<svg width="164" height="163" viewBox="0 0 164 163" fill="none" xmlns="http://www.w3.org/2000/svg">
<circle cx="82" cy="81.5" r="81.5" fill="white"/>
<path d="M132.783 58.6172C132.783 58.6172 127.743 46.1371 112.383 38.6971C97.0234 31.2571 78.3034 33.1771 69.6634 38.2171C61.0234 43.2571 58.1434 54.7772 54.0634 60.2971C49.9834 65.8172 29.3434 68.6972 27.1834 85.4972C25.0234 102.297 30.7042 112.68 44.6626 116.608C58.621 120.537 71.8234 115.977 82.3834 112.857C92.9434 109.737 106.383 117.897 118.623 114.777C130.863 111.657 142.151 85.562 132.783 58.6172Z" fill="#F6F6FF"/>
<path d="M119.241 53.2139C119.241 53.2139 114.244 50.4395 113.874 56.7299C113.505 63.0203 112.578 110.699 112.578 110.699" stroke="#353535" stroke-width="0.5" stroke-miterlimit="10" stroke-linecap="round"/>
<path d="M111.279 57.2842C111.279 57.2842 115.359 73.1242 113.504 110.144" stroke="#353535" stroke-width="0.5" stroke-miterlimit="10" stroke-linecap="round"/>
<path d="M115.284 54.4816C115.284 54.4816 113.364 55.7056 112.284 54.304C111.204 52.9024 113.021 50.3344 111.413 49.2376C109.805 48.1408 107.033 49.816 107.033 49.816C107.033 49.816 109.169 50.4424 109.101 51.6088C109.034 52.7752 108.002 53.2144 107.865 52.7056C107.729 52.1968 106.711 49.6288 104.985 50.6968C104.485 50.9921 104.05 51.3857 103.707 51.8539C103.363 52.3221 103.118 52.8552 102.986 53.4208C102.986 53.4208 107.023 52.9888 107.268 54.508C107.513 56.0272 105.612 54.244 103.946 54.1456C102.281 54.0472 100.761 54.292 100.869 55.3024C100.977 56.3128 100.711 57.9664 100.711 57.9664C100.711 57.9664 102.122 56.7136 103.956 56.8216C105.789 56.9296 105.72 58.096 104.052 57.9976C102.384 57.8992 100.956 59.4856 100.956 59.4856C100.956 59.4856 102.475 62.0824 104.405 63.3664C106.334 64.6504 107.03 64.1896 107.256 63.2008C107.481 62.212 106.963 59.6728 108.129 59.7424C109.296 59.812 106.197 64.1416 107.688 64.396C109.178 64.6504 110.371 64.2208 110.765 63.2392L111.156 62.26C111.156 62.26 110.637 59.7232 110.863 58.732C111.089 57.7408 111.362 58.7632 111.626 59.9488C111.89 61.1344 112.058 63.9856 112.567 63.8488C113.076 63.712 114.703 61.6336 115.087 60.82C115.471 60.0064 112.941 57.5176 112.97 57.0184C112.999 56.5192 114.95 57.4696 115.253 57.9784C115.473 58.3677 115.672 58.7682 115.85 59.1784C115.85 59.1784 117.065 58.4128 117.036 56.0704C117.007 53.728 115.284 54.4816 115.284 54.4816Z" fill="#E16EF4"/>
<path opacity="0.3" d="M115.284 54.4816C115.284 54.4816 113.364 55.7056 112.284 54.304C111.204 52.9024 113.021 50.3344 111.413 49.2376C109.805 48.1408 107.033 49.816 107.033 49.816C107.033 49.816 109.169 50.4424 109.101 51.6088C109.034 52.7752 108.002 53.2144 107.865 52.7056C107.729 52.1968 106.711 49.6288 104.985 50.6968C104.485 50.9921 104.05 51.3857 103.707 51.8539C103.363 52.3221 103.118 52.8552 102.986 53.4208C102.986 53.4208 107.023 52.9888 107.268 54.508C107.513 56.0272 105.612 54.244 103.946 54.1456C102.281 54.0472 100.761 54.292 100.869 55.3024C100.977 56.3128 100.711 57.9664 100.711 57.9664C100.711 57.9664 102.122 56.7136 103.956 56.8216C105.789 56.9296 105.72 58.096 104.052 57.9976C102.384 57.8992 100.956 59.4856 100.956 59.4856C100.956 59.4856 102.475 62.0824 104.405 63.3664C106.334 64.6504 107.03 64.1896 107.256 63.2008C107.481 62.212 106.963 59.6728 108.129 59.7424C109.296 59.812 106.197 64.1416 107.688 64.396C109.178 64.6504 110.371 64.2208 110.765 63.2392L111.156 62.26C111.156 62.26 110.637 59.7232 110.863 58.732C111.089 57.7408 111.362 58.7632 111.626 59.9488C111.89 61.1344 112.058 63.9856 112.567 63.8488C113.076 63.712 114.703 61.6336 115.087 60.82C115.471 60.0064 112.941 57.5176 112.97 57.0184C112.999 56.5192 114.95 57.4696 115.253 57.9784C115.473 58.3677 115.672 58.7682 115.85 59.1784C115.85 59.1784 117.065 58.4128 117.036 56.0704C117.007 53.728 115.284 54.4816 115.284 54.4816Z" fill="#353535"/>
<path d="M105.594 59.9725C106.839 58.4317 108.678 56.3461 110.216 55.3525" stroke="#353535" stroke-width="0.5" stroke-miterlimit="10" stroke-linecap="round"/>
<path d="M104.15 61.8466C104.15 61.8466 104.47 61.4026 104.99 60.7354" stroke="#353535" stroke-width="0.5" stroke-miterlimit="10" stroke-linecap="round"/>
<path d="M111.031 55.7344C111.031 55.7344 112.882 58.3504 113.225 61.0456" stroke="#353535" stroke-width="0.5" stroke-miterlimit="10" stroke-linecap="round"/>
<path d="M108.934 57.2817C108.934 57.2817 109.452 56.9769 109.255 60.3081" stroke="#353535" stroke-width="0.5" stroke-miterlimit="10" stroke-linecap="round"/>
<path d="M110.287 54.1858C110.287 54.1858 111.346 53.245 110.786 51.373" stroke="#353535" stroke-width="0.5" stroke-miterlimit="10" stroke-linecap="round"/>
<path d="M108.853 55.772L108.1 54.3896" stroke="#353535" stroke-width="0.5" stroke-miterlimit="10" stroke-linecap="round"/>
<path d="M107.267 57.184C107.267 57.184 104.867 55.3696 103.367 55.2832" stroke="#353535" stroke-width="0.5" stroke-miterlimit="10" stroke-linecap="round"/>
<path d="M122.099 49.542C122.099 49.542 122.022 52.29 119.877 52.422C117.731 52.554 116.406 48.9804 114.213 49.842C112.019 50.7036 111.813 54.6204 111.813 54.6204C111.813 54.6204 113.898 52.9092 115.019 53.7732C116.14 54.6372 115.878 55.9668 115.276 55.758C114.673 55.5492 111.407 54.8172 111.294 57.282C111.248 57.984 111.346 58.688 111.58 59.3514C111.814 60.0147 112.181 60.6236 112.657 61.1412C112.657 61.1412 114.978 56.8044 116.665 57.594C118.353 58.3836 115.271 59.0724 114.037 60.6732C112.804 62.274 112.014 63.9612 113.099 64.542C114.184 65.1228 115.645 66.5196 115.645 66.5196C115.645 66.5196 115.35 64.254 116.709 62.4924C118.067 60.7308 119.185 61.5948 117.952 63.1956C116.718 64.7964 117.333 67.3116 117.333 67.3116C117.333 67.3116 120.969 67.5516 123.573 66.5028C126.177 65.454 126.189 64.4364 125.351 63.5364C124.513 62.6364 121.619 61.4244 122.483 60.3036C123.347 59.1828 125.572 65.2356 126.841 63.918C128.111 62.6004 128.495 61.11 127.782 60.0492L127.062 58.9908C127.062 58.9908 124.168 57.7788 123.333 56.8788C122.497 55.9788 123.702 56.3988 125.068 56.9412C126.433 57.4836 129.405 59.262 129.613 58.6596C129.822 58.0572 128.855 55.0116 128.301 54.0732C127.746 53.1348 123.532 53.97 123.052 53.5932C122.572 53.2164 124.852 51.9132 125.579 51.9684C126.12 52.0149 126.658 52.0894 127.192 52.1916C127.192 52.1916 127.257 50.4564 124.893 48.8868C122.529 47.3172 122.099 49.542 122.099 49.542Z" fill="#E16EF4"/>
<path opacity="0.2" d="M122.099 49.542C122.099 49.542 122.022 52.29 119.877 52.422C117.731 52.554 116.406 48.9804 114.213 49.842C112.019 50.7036 111.813 54.6204 111.813 54.6204C111.813 54.6204 113.898 52.9092 115.019 53.7732C116.14 54.6372 115.878 55.9668 115.276 55.758C114.673 55.5492 111.407 54.8172 111.294 57.282C111.248 57.984 111.346 58.688 111.58 59.3514C111.814 60.0147 112.181 60.6236 112.657 61.1412C112.657 61.1412 114.978 56.8044 116.665 57.594C118.353 58.3836 115.271 59.0724 114.037 60.6732C112.804 62.274 112.014 63.9612 113.099 64.542C114.184 65.1228 115.645 66.5196 115.645 66.5196C115.645 66.5196 115.35 64.254 116.709 62.4924C118.067 60.7308 119.185 61.5948 117.952 63.1956C116.718 64.7964 117.333 67.3116 117.333 67.3116C117.333 67.3116 120.969 67.5516 123.573 66.5028C126.177 65.454 126.189 64.4364 125.351 63.5364C124.513 62.6364 121.619 61.4244 122.483 60.3036C123.347 59.1828 125.572 65.2356 126.841 63.918C128.111 62.6004 128.495 61.11 127.782 60.0492L127.062 58.9908C127.062 58.9908 124.168 57.7788 123.333 56.8788C122.497 55.9788 123.702 56.3988 125.068 56.9412C126.433 57.4836 129.405 59.262 129.613 58.6596C129.822 58.0572 128.855 55.0116 128.301 54.0732C127.746 53.1348 123.532 53.97 123.052 53.5932C122.572 53.2164 124.852 51.9132 125.579 51.9684C126.12 52.0149 126.658 52.0894 127.192 52.1916C127.192 52.1916 127.257 50.4564 124.893 48.8868C122.529 47.3172 122.099 49.542 122.099 49.542Z" fill="#353535"/>
<path d="M120.988 62.9864C120.295 60.6872 119.459 57.428 119.512 55.208" stroke="#353535" stroke-width="0.5" stroke-miterlimit="10" stroke-linecap="round"/>
<path d="M121.882 65.7107C121.882 65.7107 121.656 65.0867 121.342 64.1123" stroke="#353535" stroke-width="0.5" stroke-miterlimit="10" stroke-linecap="round"/>
<path d="M120.451 54.6568C120.451 54.6568 124.332 54.5848 127.265 56.08" stroke="#353535" stroke-width="0.5" stroke-miterlimit="10" stroke-linecap="round"/>
<path d="M120.57 57.8101C120.57 57.8101 120.621 57.0901 123.822 59.5501" stroke="#353535" stroke-width="0.5" stroke-miterlimit="10" stroke-linecap="round"/>
<path d="M118.395 54.3469C118.395 54.3469 118.174 52.6453 115.918 51.9277" stroke="#353535" stroke-width="0.5" stroke-miterlimit="10" stroke-linecap="round"/>
<path d="M119.005 56.8591L117.109 56.6719" stroke="#353535" stroke-width="0.5" stroke-miterlimit="10" stroke-linecap="round"/>
<path d="M119.337 59.4111C119.337 59.4111 115.886 60.5799 114.777 62.0199" stroke="#353535" stroke-width="0.5" stroke-miterlimit="10" stroke-linecap="round"/>
<path d="M99.0703 67.832C99.0703 67.832 109.988 81.8336 109.803 109.772" stroke="#353535" stroke-width="0.5" stroke-miterlimit="10" stroke-linecap="round"/>
<path d="M112.531 65.9248C112.531 65.9248 112.185 69.0904 109.696 69.0448C107.207 68.9992 106.019 64.7416 103.403 65.5288C100.787 66.316 100.173 70.8088 100.173 70.8088C100.173 70.8088 102.739 69.0304 103.951 70.132C105.163 71.2336 104.738 72.7456 104.061 72.448C103.384 72.1504 99.6859 71.008 99.3211 73.8304C99.2017 74.6356 99.2465 75.4565 99.4527 76.2439C99.659 77.0313 100.022 77.7688 100.521 78.412C100.521 78.412 103.619 73.6336 105.491 74.7064C107.363 75.7792 103.744 76.2784 102.17 78.0088C100.595 79.7392 99.5299 81.6088 100.73 82.384C101.93 83.1592 103.499 84.904 103.499 84.904C103.499 84.904 103.375 82.264 105.107 80.344C106.84 78.424 108.052 79.5424 106.478 81.2728C104.903 83.0032 105.374 85.9648 105.374 85.9648C105.374 85.9648 109.543 86.596 112.646 85.6216C115.749 84.6472 115.857 83.4808 114.976 82.3648C114.095 81.2488 110.87 79.576 111.971 78.364C113.073 77.152 115.07 84.3472 116.661 82.948C118.252 81.5488 118.821 79.8616 118.101 78.5728L117.381 77.2816C117.381 77.2816 114.155 75.6016 113.275 74.4928C112.394 73.384 113.755 73.9744 115.274 74.7328C116.793 75.4912 120.057 77.8192 120.357 77.1328C120.657 76.4464 119.824 72.8512 119.272 71.7184C118.72 70.5856 113.781 71.1496 113.26 70.6768C112.739 70.204 115.497 68.9152 116.33 69.04C116.951 69.1452 117.566 69.2822 118.173 69.4504C118.173 69.4504 118.413 67.4512 115.828 65.4208C113.243 63.3904 112.531 65.9248 112.531 65.9248Z" fill="#E16EF4"/>
<path opacity="0.3" d="M112.531 65.9248C112.531 65.9248 112.185 69.0904 109.696 69.0448C107.207 68.9992 106.019 64.7416 103.403 65.5288C100.787 66.316 100.173 70.8088 100.173 70.8088C100.173 70.8088 102.739 69.0304 103.951 70.132C105.163 71.2336 104.738 72.7456 104.061 72.448C103.384 72.1504 99.6859 71.008 99.3211 73.8304C99.2017 74.6356 99.2465 75.4565 99.4527 76.2439C99.659 77.0313 100.022 77.7688 100.521 78.412C100.521 78.412 103.619 73.6336 105.491 74.7064C107.363 75.7792 103.744 76.2784 102.17 78.0088C100.595 79.7392 99.5299 81.6088 100.73 82.384C101.93 83.1592 103.499 84.904 103.499 84.904C103.499 84.904 103.375 82.264 105.107 80.344C106.84 78.424 108.052 79.5424 106.478 81.2728C104.903 83.0032 105.374 85.9648 105.374 85.9648C105.374 85.9648 109.543 86.596 112.646 85.6216C115.749 84.6472 115.857 83.4808 114.976 82.3648C114.095 81.2488 110.87 79.576 111.971 78.364C113.073 77.152 115.07 84.3472 116.661 82.948C118.252 81.5488 118.821 79.8616 118.101 78.5728L117.381 77.2816C117.381 77.2816 114.155 75.6016 113.275 74.4928C112.394 73.384 113.755 73.9744 115.274 74.7328C116.793 75.4912 120.057 77.8192 120.357 77.1328C120.657 76.4464 119.824 72.8512 119.272 71.7184C118.72 70.5856 113.781 71.1496 113.26 70.6768C112.739 70.204 115.497 68.9152 116.33 69.04C116.951 69.1452 117.566 69.2822 118.173 69.4504C118.173 69.4504 118.413 67.4512 115.828 65.4208C113.243 63.3904 112.531 65.9248 112.531 65.9248Z" fill="#353535"/>
<path d="M109.987 81.3319C109.404 78.6151 108.749 74.7751 109.027 72.2119" stroke="#353535" stroke-width="0.5" stroke-miterlimit="10" stroke-linecap="round"/>
<path d="M110.759 84.5604C110.759 84.5604 110.558 83.8211 110.279 82.6667" stroke="#353535" stroke-width="0.5" stroke-miterlimit="10" stroke-linecap="round"/>
<path d="M110.152 71.6699C110.152 71.6699 114.638 71.9555 117.88 73.9547" stroke="#353535" stroke-width="0.5" stroke-miterlimit="10" stroke-linecap="round"/>
<path d="M109.994 75.3204C109.994 75.3204 110.119 74.4876 113.582 77.6364" stroke="#353535" stroke-width="0.5" stroke-miterlimit="10" stroke-linecap="round"/>
<path d="M107.807 71.118C107.807 71.118 107.714 69.1332 105.179 68.094" stroke="#353535" stroke-width="0.5" stroke-miterlimit="10" stroke-linecap="round"/>
<path d="M108.277 74.0772L106.105 73.6836" stroke="#353535" stroke-width="0.5" stroke-miterlimit="10" stroke-linecap="round"/>
<path d="M108.418 77.0527C108.418 77.0527 104.324 78.0727 102.898 79.6303" stroke="#353535" stroke-width="0.5" stroke-miterlimit="10" stroke-linecap="round"/>
<path d="M112.531 93.8048C112.531 93.8048 112.185 96.968 109.697 96.9248C107.208 96.8816 106.02 92.6216 103.404 93.3992C100.788 94.1768 100.173 98.6792 100.173 98.6792C100.173 98.6792 102.739 96.9008 103.951 98.0048C105.163 99.1088 104.738 100.618 104.061 100.318C103.385 100.018 99.6861 98.8784 99.3213 101.701C99.2017 102.506 99.2463 103.327 99.4526 104.114C99.6588 104.902 100.022 105.639 100.521 106.282C100.521 106.282 103.62 101.514 105.492 102.584C107.364 103.654 103.745 104.158 102.18 105.879C100.615 107.6 99.5397 109.479 100.74 110.254C101.94 111.03 103.509 112.774 103.509 112.774C103.509 112.774 103.385 110.134 105.117 108.226C106.85 106.318 108.062 107.425 106.488 109.155C104.913 110.886 105.384 113.845 105.384 113.845C105.384 113.845 109.553 114.476 112.656 113.502C115.759 112.527 115.867 111.363 114.986 110.245C114.105 109.126 110.88 107.456 111.981 106.244C113.083 105.032 115.08 112.227 116.671 110.828C118.262 109.429 118.831 107.744 118.111 106.453L117.391 105.162C117.391 105.162 114.165 103.482 113.285 102.373C112.404 101.264 113.765 101.854 115.284 102.613C116.803 103.371 120.067 105.699 120.367 105.013C120.667 104.326 119.834 100.731 119.282 99.5984C118.73 98.4656 113.791 99.0296 113.27 98.5568C112.749 98.084 115.507 96.7952 116.34 96.9224C116.961 97.026 117.576 97.1622 118.183 97.3304C118.183 97.3304 118.423 95.3336 115.838 93.3008C113.253 91.268 112.531 93.8048 112.531 93.8048Z" fill="#E16EF4"/>
<path opacity="0.3" d="M112.531 93.8048C112.531 93.8048 112.185 96.968 109.697 96.9248C107.208 96.8816 106.02 92.6216 103.404 93.3992C100.788 94.1768 100.173 98.6792 100.173 98.6792C100.173 98.6792 102.739 96.9008 103.951 98.0048C105.163 99.1088 104.738 100.618 104.061 100.318C103.385 100.018 99.6861 98.8784 99.3213 101.701C99.2017 102.506 99.2463 103.327 99.4526 104.114C99.6588 104.902 100.022 105.639 100.521 106.282C100.521 106.282 103.62 101.514 105.492 102.584C107.364 103.654 103.745 104.158 102.18 105.879C100.615 107.6 99.5397 109.479 100.74 110.254C101.94 111.03 103.509 112.774 103.509 112.774C103.509 112.774 103.385 110.134 105.117 108.226C106.85 106.318 108.062 107.425 106.488 109.155C104.913 110.886 105.384 113.845 105.384 113.845C105.384 113.845 109.553 114.476 112.656 113.502C115.759 112.527 115.867 111.363 114.986 110.245C114.105 109.126 110.88 107.456 111.981 106.244C113.083 105.032 115.08 112.227 116.671 110.828C118.262 109.429 118.831 107.744 118.111 106.453L117.391 105.162C117.391 105.162 114.165 103.482 113.285 102.373C112.404 101.264 113.765 101.854 115.284 102.613C116.803 103.371 120.067 105.699 120.367 105.013C120.667 104.326 119.834 100.731 119.282 99.5984C118.73 98.4656 113.791 99.0296 113.27 98.5568C112.749 98.084 115.507 96.7952 116.34 96.9224C116.961 97.026 117.576 97.1622 118.183 97.3304C118.183 97.3304 118.423 95.3336 115.838 93.3008C113.253 91.268 112.531 93.8048 112.531 93.8048Z" fill="#353535"/>
<path d="M109.987 109.213C109.404 106.496 108.749 102.654 109.027 100.093" stroke="#353535" stroke-width="0.5" stroke-miterlimit="10" stroke-linecap="round"/>
<path d="M110.759 112.441C110.759 112.441 110.558 111.7 110.279 110.545" stroke="#353535" stroke-width="0.5" stroke-miterlimit="10" stroke-linecap="round"/>
<path d="M110.152 99.5488C110.152 99.5488 114.638 99.8344 117.88 101.836" stroke="#353535" stroke-width="0.5" stroke-miterlimit="10" stroke-linecap="round"/>
<path d="M109.994 103.201C109.994 103.201 110.119 102.366 113.582 105.517" stroke="#353535" stroke-width="0.5" stroke-miterlimit="10" stroke-linecap="round"/>
<path d="M107.808 98.9967C107.808 98.9967 107.714 97.0143 105.18 95.9727" stroke="#353535" stroke-width="0.5" stroke-miterlimit="10" stroke-linecap="round"/>
<path d="M108.277 101.955L106.105 101.562" stroke="#353535" stroke-width="0.5" stroke-miterlimit="10" stroke-linecap="round"/>
<path d="M108.42 104.932C108.42 104.932 104.326 105.952 102.9 107.509" stroke="#353535" stroke-width="0.5" stroke-miterlimit="10" stroke-linecap="round"/>
<path d="M103.326 89.8497C103.326 89.8497 110.416 92.3529 111.097 109.959L109.619 76.5273" stroke="#353535" stroke-width="0.5" stroke-miterlimit="10" stroke-linecap="round"/>
<path d="M120.35 85.9595C111.098 84.2939 111.098 109.96 111.098 109.96" stroke="#353535" stroke-width="0.5" stroke-miterlimit="10" stroke-linecap="round"/>
<path d="M112.208 109.772C112.208 109.772 106.841 63.9463 122.384 63.9463" stroke="#353535" stroke-width="0.5" stroke-miterlimit="10" stroke-linecap="round"/>
<path d="M116.819 84.8439C115.556 83.4207 112.871 83.4207 111.299 87.0543C109.727 90.6879 111.14 90.0567 111.14 90.0567C111.14 90.0567 114.14 89.1087 116.036 88.4751C117.932 87.8415 120.46 86.2647 120.618 87.2127C120.776 88.1607 119.353 89.1087 117.616 89.4231C115.878 89.7375 111.299 90.9999 111.779 91.9599C112.259 92.9199 113.358 95.7519 113.358 95.7519C114.709 94.6063 116.133 93.5513 117.623 92.5935C119.677 91.3287 120.942 91.8039 119.836 93.2247C118.729 94.6455 115.571 96.2271 116.202 98.1207C116.833 100.014 120.625 102.388 120.625 102.388C120.625 102.388 121.105 98.4375 122.204 97.1751C123.304 95.9127 123.311 97.3311 122.994 99.5439C122.837 100.485 122.732 101.435 122.68 102.388L127.093 103.96C127.093 103.96 128.672 101.589 129.462 100.799L130.252 100.009C130.252 100.009 126.776 97.0095 126.618 95.1135C126.46 93.2175 128.987 95.1135 129.779 95.4279C130.571 95.7423 131.831 97.9599 131.831 97.9599C131.831 97.9599 132.62 94.3263 132.779 93.0615L132.937 91.7991C132.937 91.7991 129.62 90.5199 128.356 90.5199C127.091 90.5199 126.46 91.4679 126.46 90.2031C126.46 88.9383 127.724 88.1511 129.145 88.3095C130.566 88.4679 132.937 89.2575 132.937 89.2575C132.937 89.2575 133.885 88.4655 133.568 86.0967C133.252 83.7279 132.462 83.7279 130.568 84.3591C128.675 84.9903 127.408 86.4135 125.987 86.4135C124.566 86.4135 125.356 84.6759 126.304 84.2007C127.252 83.7255 129.62 82.7799 130.093 82.6215C130.566 82.4631 127.566 80.2527 125.987 79.9359C124.408 79.6191 122.36 80.7327 122.512 82.3047C122.819 85.6335 118.088 86.2647 116.819 84.8439Z" fill="#E16EF4"/>
<path d="M126.992 101.108C127.04 101.588 127.074 102.064 127.093 102.534" stroke="#353535" stroke-width="0.5" stroke-miterlimit="10" stroke-linecap="round"/>
<path d="M123.82 89.7656C124.929 92.3312 126.22 95.8664 126.794 99.5552" stroke="#353535" stroke-width="0.5" stroke-miterlimit="10" stroke-linecap="round"/>
<path d="M123.251 88.4992C122.469 86.8192 121.881 85.7896 121.881 85.7896C121.881 85.7896 123.302 85.1584 123.933 83.896C124.301 83.1474 124.842 82.4975 125.512 82" stroke="#353535" stroke-width="0.5" stroke-miterlimit="10" stroke-linecap="round"/>
<path d="M116.352 91.1607C116.352 91.1607 122.037 88.7919 122.037 89.2671" stroke="#353535" stroke-width="0.5" stroke-miterlimit="10" stroke-linecap="round"/>
<path d="M125.197 88.1603C125.197 88.1603 127.724 86.8955 129.935 86.8955" stroke="#353535" stroke-width="0.5" stroke-miterlimit="10" stroke-linecap="round"/>
<path d="M124.26 91.96C123.164 92.8609 122.158 93.8664 121.257 94.9624C120.335 96.0502 119.589 97.2764 119.047 98.596" stroke="#353535" stroke-width="0.5" stroke-miterlimit="10" stroke-linecap="round"/>
<path d="M125.988 92.5839C125.988 92.5839 129.305 91.6239 131.043 93.2151" stroke="#353535" stroke-width="0.5" stroke-miterlimit="10" stroke-linecap="round"/>
<path d="M131.998 71.2379C130.277 70.2203 128.374 70.1987 127.438 69.1259C126.502 68.0531 128.336 67.5083 129.315 67.9139C130.294 68.3195 132.564 69.4859 132.994 69.7403C133.424 69.9947 133.126 66.2795 132.329 64.8803C131.532 63.4811 129.351 62.6651 128.261 63.8075C125.964 66.2219 122.379 63.0563 122.624 61.1675C122.868 59.2787 121.109 57.2531 117.329 58.4435C113.549 59.6339 114.96 60.2915 114.96 60.2915C114.96 60.2915 117.644 61.9355 119.364 62.9531C121.085 63.9707 123.924 64.8443 123.322 65.5931C122.72 66.3419 121.061 65.8811 119.684 64.7747C118.306 63.6683 114.353 61.0355 113.94 62.0147C113.528 62.9939 112.114 65.6915 112.114 65.6915C113.866 65.96 115.599 66.344 117.3 66.8411C119.6 67.5611 120.07 68.8283 118.272 68.9267C116.475 69.0251 113.22 67.6739 112.196 69.3995C111.171 71.1251 111.874 75.5363 111.874 75.5363C111.874 75.5363 115.167 73.3043 116.847 73.3115C118.527 73.3187 117.452 74.2499 115.575 75.4715C114.761 75.9631 113.975 76.5 113.22 77.0795L114.927 81.4547C114.927 81.4547 117.752 81.0947 118.865 81.1739L119.981 81.2531C119.981 81.2531 119.969 76.6595 121.296 75.2987C122.624 73.9379 122.849 77.0867 123.13 77.8907C123.411 78.6947 122.566 81.0995 122.566 81.0995C122.566 81.0995 125.828 79.3139 126.886 78.6035L127.944 77.8955C127.944 77.8955 126.723 74.5619 125.895 73.6067C125.067 72.6515 123.936 72.7979 124.892 71.9675C125.847 71.1371 127.27 71.5763 128.084 72.7547C128.897 73.9331 129.852 76.2371 129.852 76.2371C129.852 76.2371 131.069 76.4363 132.653 74.6435C134.237 72.8507 133.716 72.2555 131.998 71.2379ZM117.06 76.2947C115.796 75.6635 118.798 74.3987 118.798 74.3987C119.89 74.2403 118.311 76.9259 117.06 76.2947ZM119.187 70.3979C118.649 70.1267 120.264 69.5891 120.264 69.5891C122.58 70.0379 119.715 70.6667 119.175 70.3979H119.187Z" fill="#E16EF4"/>
<path d="M117.013 79.5127C116.684 79.8615 116.345 80.1983 115.998 80.5231" stroke="#353535" stroke-width="0.5" stroke-miterlimit="10" stroke-linecap="round"/>
<path d="M123.496 69.6826C122.296 72.2002 120.458 75.4858 118.053 78.3442" stroke="#353535" stroke-width="0.5" stroke-miterlimit="10" stroke-linecap="round"/>
<path d="M124.08 68.4207C124.838 66.7263 125.227 65.6104 125.227 65.6104C125.227 65.6104 126.636 66.2704 128.004 65.9176C128.811 65.7061 129.656 65.6888 130.471 65.8671" stroke="#353535" stroke-width="0.5" stroke-miterlimit="10" stroke-linecap="round"/>
<path d="M117.539 64.9551C117.539 64.9551 123.059 67.6959 122.699 68.0079" stroke="#353535" stroke-width="0.5" stroke-miterlimit="10" stroke-linecap="round"/>
<path d="M125.613 69.668C125.613 69.668 128.224 70.748 129.674 72.4184" stroke="#353535" stroke-width="0.5" stroke-miterlimit="10" stroke-linecap="round"/>
<path d="M122.128 71.4374C120.73 71.2012 119.312 71.1016 117.894 71.1398C116.467 71.1579 115.051 71.4009 113.699 71.8598" stroke="#353535" stroke-width="0.5" stroke-miterlimit="10" stroke-linecap="round"/>
<path d="M122.791 73.1631C122.791 73.1631 125.671 75.0471 125.628 77.3967" stroke="#353535" stroke-width="0.5" stroke-miterlimit="10" stroke-linecap="round"/>
<path d="M107.46 93.1264C106.075 92.308 104.544 92.2912 103.795 91.4272C103.046 90.5632 104.515 90.1264 105.304 90.4528C106.094 90.7792 107.92 91.7176 108.266 91.9216C108.612 92.1256 108.372 89.1376 107.731 88.0096C107.09 86.8816 105.331 86.2264 104.457 87.148C102.607 89.0896 99.7243 86.5432 99.9211 85.0264C100.118 83.5096 98.6923 81.88 95.6515 82.84C92.6107 83.8 93.7435 84.328 93.7435 84.328C93.7435 84.328 95.9035 85.6504 97.2859 86.4688C98.6683 87.2872 100.965 87.9904 100.471 88.5856C99.9763 89.1808 98.6539 88.8256 97.5451 87.9304C96.4363 87.0352 93.2515 84.9232 92.9251 85.7104C92.5987 86.4976 91.4539 88.672 91.4539 88.672C92.8632 88.8879 94.2566 89.1965 95.6251 89.596C97.4755 90.1768 97.8547 91.1944 96.4075 91.276C94.9603 91.3576 92.3275 90.268 91.5139 91.6528C90.7003 93.0376 91.2547 96.5896 91.2547 96.5896C91.2547 96.5896 93.8947 94.7944 95.2579 94.7992C96.6211 94.804 95.7379 95.5552 94.2331 96.5296C93.5781 96.9301 92.946 97.3667 92.3395 97.8376L93.7123 101.358C93.7123 101.358 95.9851 101.068 96.8827 101.133L97.7803 101.195C97.7803 101.195 97.7803 97.4992 98.8387 96.3952C99.8971 95.2912 100.089 97.8352 100.312 98.4808C100.536 99.1264 99.8611 101.063 99.8611 101.063C99.8611 101.063 102.484 99.6232 103.336 99.0544L104.188 98.4832C104.188 98.4832 103.207 95.8024 102.54 95.0344C101.872 94.2664 100.963 94.3816 101.731 93.7144C102.499 93.0472 103.651 93.4 104.299 94.3456C104.947 95.2912 105.724 97.1512 105.724 97.1512C105.724 97.1512 106.704 97.3096 107.978 95.8672C109.252 94.4248 108.835 93.9448 107.46 93.1264ZM95.4283 97.2064C94.4107 96.6976 96.8275 95.68 96.8275 95.68C97.7083 95.5432 96.4363 97.7056 95.4187 97.1968L95.4283 97.2064ZM97.1395 92.44C96.7051 92.224 98.0059 91.7896 98.0059 91.7896C99.8779 92.1616 97.5643 92.68 97.1395 92.44Z" fill="#E16EF4"/>
<path d="M95.3923 99.7859C95.1283 100.064 94.8547 100.338 94.5763 100.599" stroke="#353535" stroke-width="0.5" stroke-miterlimit="10" stroke-linecap="round"/>
<path d="M100.61 91.873C99.6361 93.901 98.1649 96.5458 96.2305 98.845" stroke="#353535" stroke-width="0.5" stroke-miterlimit="10" stroke-linecap="round"/>
<path d="M101.08 90.8599C101.69 89.4967 102.002 88.5967 102.002 88.5967C102.002 88.5967 103.137 89.1271 104.236 88.8367C104.886 88.6659 105.567 88.6527 106.223 88.7983" stroke="#353535" stroke-width="0.5" stroke-miterlimit="10" stroke-linecap="round"/>
<path d="M95.8223 88.0713C95.8223 88.0713 100.26 90.2793 99.9743 90.5193" stroke="#353535" stroke-width="0.5" stroke-miterlimit="10" stroke-linecap="round"/>
<path d="M102.312 91.8633C102.312 91.8633 104.415 92.7321 105.581 94.0761" stroke="#353535" stroke-width="0.5" stroke-miterlimit="10" stroke-linecap="round"/>
<path d="M99.509 93.2865C98.3835 93.096 97.2421 93.0156 96.101 93.0465C94.9531 93.0598 93.8144 93.2534 92.7266 93.6201" stroke="#353535" stroke-width="0.5" stroke-miterlimit="10" stroke-linecap="round"/>
<path d="M100.041 94.6768C100.041 94.6768 102.367 96.1936 102.323 98.0824" stroke="#353535" stroke-width="0.5" stroke-miterlimit="10" stroke-linecap="round"/>
<path d="M101.805 67.0404C101.805 67.0404 100.067 68.3052 98.9635 67.0404C97.8595 65.7756 99.4435 63.2508 97.8571 62.3028C96.2707 61.3548 93.7507 63.0924 93.7507 63.0924C93.7507 63.0924 95.8027 63.5724 95.8027 64.6716C95.8027 65.7708 94.8547 66.2508 94.6987 65.778C94.5427 65.3052 93.4339 62.934 91.8547 64.0404C91.3991 64.3479 91.0103 64.7443 90.7117 65.2058C90.4131 65.6673 90.2109 66.1844 90.1171 66.726C90.1171 66.726 93.9067 66.0924 94.2235 67.5156C94.5403 68.9388 92.6443 67.3572 91.0651 67.3572C89.4859 67.3572 88.0627 67.674 88.2211 68.622C88.3795 69.57 88.2211 71.1492 88.2211 71.1492C88.2211 71.1492 89.4835 69.8844 91.2211 69.8844C92.9587 69.8844 92.9587 70.9908 91.3795 70.9908C89.8003 70.9908 88.5379 72.57 88.5379 72.57C88.5379 72.57 90.1171 74.9388 92.0131 76.0452C93.9091 77.1516 94.5403 76.6764 94.6987 75.7308C94.8571 74.7852 94.2187 72.4116 95.3299 72.4116C96.4411 72.4116 93.7507 76.6764 95.1715 76.8348C96.5923 76.9932 97.6987 76.5204 98.0155 75.5724L98.3299 74.6244C98.3299 74.6244 97.6987 72.2532 97.8499 71.3076C98.0011 70.362 98.3299 71.3076 98.6395 72.4116C98.9491 73.5156 99.2707 76.2036 99.7459 76.0452C100.221 75.8868 101.642 73.8348 101.956 73.0452C102.271 72.2556 99.7459 70.0428 99.7459 69.57C99.7459 69.0972 101.642 69.8844 101.956 70.3596C102.187 70.7163 102.398 71.0848 102.59 71.4636C102.59 71.4636 103.694 70.674 103.535 68.4636C103.377 66.2532 101.805 67.0404 101.805 67.0404Z" fill="#E16EF4"/>
<path d="M92.957 72.7713C94.049 71.2449 95.669 69.1713 97.0682 68.1465" stroke="#353535" stroke-width="0.5" stroke-miterlimit="10" stroke-linecap="round"/>
<path d="M91.6953 74.6241C91.6953 74.6241 91.9737 74.1849 92.4153 73.5273" stroke="#353535" stroke-width="0.5" stroke-miterlimit="10" stroke-linecap="round"/>
<path d="M97.8594 68.4639C97.8594 68.4639 99.7554 70.8327 100.228 73.3599" stroke="#353535" stroke-width="0.5" stroke-miterlimit="10" stroke-linecap="round"/>
<path d="M95.9609 70.043C95.9609 70.043 96.4409 69.7262 96.4409 72.887" stroke="#353535" stroke-width="0.5" stroke-miterlimit="10" stroke-linecap="round"/>
<path d="M97.0664 67.0401C97.0664 67.0401 98.0144 66.0921 97.3808 64.3545" stroke="#353535" stroke-width="0.5" stroke-miterlimit="10" stroke-linecap="round"/>
<path d="M95.8033 68.6222L95.0137 67.3574" stroke="#353535" stroke-width="0.5" stroke-miterlimit="10" stroke-linecap="round"/>
<path d="M94.3818 70.0431C94.3818 70.0431 92.013 68.4639 90.5898 68.4639" stroke="#353535" stroke-width="0.5" stroke-miterlimit="10" stroke-linecap="round"/>
<path d="M117.336 111.284C117.336 111.284 115.599 112.549 114.495 111.284C113.391 110.019 114.975 107.495 113.388 106.547C111.802 105.599 109.282 107.336 109.282 107.336C109.282 107.336 111.334 107.816 111.334 108.915C111.334 110.015 110.386 110.495 110.228 110.022C110.069 109.549 108.965 107.178 107.386 108.284C106.93 108.591 106.541 108.987 106.242 109.449C105.943 109.911 105.741 110.428 105.648 110.97C105.648 110.97 109.438 110.336 109.755 111.759C110.072 113.183 108.176 111.601 106.596 111.601C105.017 111.601 103.594 111.915 103.752 112.863C103.911 113.811 103.752 115.393 103.752 115.393C103.752 115.393 105.015 114.128 106.752 114.128C108.49 114.128 108.49 115.235 106.911 115.235C105.332 115.235 104.067 116.814 104.067 116.814C104.067 116.814 105.648 119.183 107.544 120.289C109.44 121.395 110.072 120.92 110.228 119.972C110.384 119.024 109.748 116.655 110.861 116.655C111.975 116.655 109.282 120.92 110.703 121.079C112.124 121.237 113.22 120.759 113.547 119.814L113.861 118.868C113.861 118.868 113.23 116.497 113.381 115.549C113.532 114.601 113.861 115.549 114.171 116.655C114.48 117.762 114.802 120.447 115.277 120.289C115.752 120.131 117.173 118.076 117.488 117.287C117.802 116.497 115.277 114.287 115.277 113.811C115.277 113.336 117.173 114.128 117.488 114.601C117.717 114.959 117.928 115.328 118.119 115.707C118.119 115.707 119.225 114.918 119.067 112.707C118.908 110.497 117.336 111.284 117.336 111.284Z" fill="#E16EF4"/>
<path d="M108.486 117.013C109.578 115.489 111.198 113.413 112.598 112.391" stroke="#353535" stroke-width="0.5" stroke-miterlimit="10" stroke-linecap="round"/>
<path d="M107.219 118.869C107.219 118.869 107.497 118.43 107.939 117.77" stroke="#353535" stroke-width="0.5" stroke-miterlimit="10" stroke-linecap="round"/>
<path d="M113.387 112.708C113.387 112.708 115.283 115.077 115.756 117.604" stroke="#353535" stroke-width="0.5" stroke-miterlimit="10" stroke-linecap="round"/>
<path d="M111.492 114.279C111.492 114.279 111.972 113.963 111.972 117.123" stroke="#353535" stroke-width="0.5" stroke-miterlimit="10" stroke-linecap="round"/>
<path d="M112.598 111.284C112.598 111.284 113.546 110.336 112.912 108.599" stroke="#353535" stroke-width="0.5" stroke-miterlimit="10" stroke-linecap="round"/>
<path d="M111.333 112.864L110.543 111.602" stroke="#353535" stroke-width="0.5" stroke-miterlimit="10" stroke-linecap="round"/>
<path d="M109.913 114.279C109.913 114.279 107.544 112.7 106.121 112.7" stroke="#353535" stroke-width="0.5" stroke-miterlimit="10" stroke-linecap="round"/>
<path d="M28.5 31.5045C28.5 31.5045 75.9816 46.5693 136.538 30.9717" stroke="#353535" stroke-width="0.5" stroke-linecap="round" stroke-linejoin="round"/>
<path d="M41.8963 38.5555C41.8508 38.8741 41.7118 39.1721 41.4969 39.4117C41.282 39.6514 41.0009 39.8219 40.6891 39.9018C40.3773 39.9816 40.0488 39.9672 39.7452 39.8604C39.4416 39.7535 39.1765 39.559 38.9834 39.3015C38.7904 39.044 38.678 38.735 38.6606 38.4136C38.6432 38.0922 38.7214 37.7728 38.8855 37.4959C39.0496 37.219 39.2921 36.997 39.5824 36.8579C39.8727 36.7189 40.1976 36.669 40.5163 36.7147C40.7278 36.7447 40.9314 36.8162 41.1154 36.925C41.2993 37.0338 41.46 37.1778 41.5882 37.3488C41.7164 37.5198 41.8096 37.7144 41.8624 37.9215C41.9153 38.1285 41.9268 38.344 41.8963 38.5555Z" fill="white" stroke="#353535" stroke-width="0.5" stroke-linecap="round" stroke-linejoin="round"/>
<path d="M40.6899 35.325L40.7326 35.331C40.945 35.3612 41.1367 35.4745 41.2656 35.646C41.3944 35.8175 41.4499 36.0331 41.4197 36.2455L41.3 37.089L39.6533 36.8553L39.7724 36.0165C39.7868 35.9106 39.822 35.8087 39.876 35.7165C39.93 35.6243 40.0017 35.5438 40.087 35.4795C40.1723 35.4152 40.2695 35.3684 40.373 35.3419C40.4765 35.3154 40.5842 35.3096 40.6899 35.325Z" fill="#353535" stroke="#353535" stroke-width="0.5" stroke-linecap="round" stroke-linejoin="round"/>
<path d="M39.7793 34.248C39.7793 34.248 40.7201 34.6224 40.8785 35.3568C41.0389 35.0318 41.3045 34.7704 41.6321 34.6152" stroke="#353535" stroke-width="0.5" stroke-linecap="round" stroke-linejoin="round"/>
<path d="M59.3972 40.9269C59.3756 41.248 59.2593 41.5555 59.0629 41.8104C58.8665 42.0654 58.599 42.2565 58.2941 42.3594C57.9891 42.4623 57.6605 42.4725 57.3498 42.3887C57.0391 42.3048 56.7602 42.1308 56.5485 41.8884C56.3367 41.6461 56.2015 41.3464 56.16 41.0273C56.1186 40.7081 56.1727 40.3839 56.3155 40.0955C56.4583 39.8071 56.6835 39.5675 56.9624 39.4071C57.2414 39.2466 57.5617 39.1725 57.8828 39.1941C58.3132 39.2237 58.7143 39.4227 58.9982 39.7475C59.282 40.0723 59.4255 40.4964 59.3972 40.9269Z" fill="white" stroke="#353535" stroke-width="0.5" stroke-linecap="round" stroke-linejoin="round"/>
<path d="M57.9554 37.799L57.9985 37.8019C58.1044 37.8091 58.208 37.8372 58.3031 37.8844C58.3982 37.9316 58.4832 37.9971 58.553 38.0771C58.6228 38.1571 58.6762 38.2501 58.7101 38.3508C58.744 38.4514 58.7577 38.5578 58.7505 38.6637L58.6927 39.5138L57.0358 39.4011L57.0936 38.5511C57.1008 38.4451 57.1288 38.3416 57.176 38.2465C57.2232 38.1513 57.2887 38.0664 57.3687 37.9966C57.4487 37.9267 57.5417 37.8733 57.6424 37.8394C57.7431 37.8055 57.8494 37.7918 57.9554 37.799Z" fill="#353535" stroke="#353535" stroke-width="0.5" stroke-linecap="round" stroke-linejoin="round"/>
<path d="M56.9727 36.7871C56.9727 36.7871 57.9327 37.0919 58.1511 37.8119C58.2871 37.4756 58.5334 37.1955 58.8495 37.0175" stroke="#353535" stroke-width="0.5" stroke-linecap="round" stroke-linejoin="round"/>
<path d="M74.34 41.9109C74.3323 42.2325 74.2295 42.5446 74.0445 42.8078C73.8595 43.0709 73.6007 43.2734 73.3007 43.3895C73.0007 43.5057 72.673 43.5303 72.359 43.4603C72.0451 43.3902 71.7589 43.2287 71.5367 42.9961C71.3145 42.7635 71.1662 42.4702 71.1106 42.1534C71.0549 41.8365 71.0945 41.5103 71.2242 41.2159C71.3539 40.9216 71.568 40.6722 71.8393 40.4995C72.1107 40.3267 72.4272 40.2382 72.7488 40.2453C72.9627 40.2499 73.1736 40.2967 73.3694 40.383C73.5652 40.4693 73.742 40.5933 73.8898 40.748C74.0376 40.9028 74.1535 41.0851 74.2307 41.2846C74.308 41.4842 74.3451 41.697 74.34 41.9109Z" fill="white" stroke="#353535" stroke-width="0.5" stroke-linecap="round" stroke-linejoin="round"/>
<path d="M72.7676 38.8455L72.8108 38.8465C72.917 38.8489 73.0216 38.8722 73.1188 38.9151C73.216 38.9579 73.3038 39.0195 73.3772 39.0963C73.4505 39.1731 73.5081 39.2636 73.5465 39.3626C73.5849 39.4616 73.6034 39.5672 73.601 39.6734L73.5817 40.5252L71.9213 40.4875L71.9406 39.6357C71.9455 39.4213 72.0354 39.2176 72.1904 39.0694C72.3455 38.9212 72.5531 38.8406 72.7676 38.8455Z" fill="#353535" stroke="#353535" stroke-width="0.5" stroke-linecap="round" stroke-linejoin="round"/>
<path d="M71.7402 37.8838C71.7402 37.8838 72.7194 38.143 72.9642 38.8438C73.0851 38.5061 73.3158 38.2187 73.6194 38.0278" stroke="#353535" stroke-width="0.5" stroke-linecap="round" stroke-linejoin="round"/>
<path d="M91.236 41.8005C91.2467 42.1222 91.1619 42.4398 90.9921 42.7132C90.8223 42.9867 90.5752 43.2036 90.2821 43.3366C89.989 43.4696 89.6631 43.5127 89.3455 43.4604C89.0279 43.4082 88.7329 43.2629 88.4979 43.043C88.2629 42.8231 88.0984 42.5384 88.0252 42.225C87.952 41.9116 87.9733 41.5835 88.0866 41.2822C88.1999 40.9809 88.3999 40.72 88.6615 40.5325C88.923 40.3449 89.2343 40.2391 89.556 40.2285C89.7696 40.2211 89.9826 40.256 90.1827 40.331C90.3828 40.4061 90.5661 40.5199 90.7222 40.6659C90.8782 40.812 91.0039 40.9873 91.0921 41.182C91.1803 41.3767 91.2292 41.5869 91.236 41.8005Z" fill="white" stroke="#353535" stroke-width="0.5" stroke-linecap="round" stroke-linejoin="round"/>
<path d="M89.4592 39.0656L89.5024 39.0643C89.7165 39.0579 89.9244 39.1366 90.0805 39.2832C90.2367 39.4298 90.3283 39.6323 90.3354 39.8464L90.3609 40.6984L88.7001 40.7482L88.6746 39.8962C88.6688 39.6821 88.7481 39.4745 88.8952 39.3188C89.0423 39.163 89.2451 39.072 89.4592 39.0656Z" fill="#353535" stroke="#353535" stroke-width="0.5" stroke-linecap="round" stroke-linejoin="round"/>
<path d="M88.4064 37.9269C88.4064 37.9269 89.4 38.1333 89.6832 38.8293C89.7822 38.4778 89.9992 38.171 90.2976 37.9605" stroke="#353535" stroke-width="0.5" stroke-linecap="round" stroke-linejoin="round"/>
<path d="M108.921 40.1546C108.972 40.4722 108.928 40.798 108.795 41.0906C108.661 41.3833 108.443 41.6298 108.17 41.7988C107.896 41.9679 107.578 42.052 107.257 42.0405C106.935 42.029 106.624 41.9224 106.363 41.7342C106.102 41.546 105.903 41.2846 105.79 40.9831C105.678 40.6816 105.657 40.3536 105.731 40.0404C105.805 39.7272 105.97 39.443 106.206 39.2237C106.441 39.0043 106.736 38.8597 107.054 38.8082C107.265 38.7739 107.481 38.7815 107.689 38.8307C107.897 38.8798 108.093 38.9694 108.266 39.0945C108.44 39.2195 108.587 39.3775 108.699 39.5594C108.812 39.7413 108.887 39.9435 108.921 40.1546Z" fill="white" stroke="#353535" stroke-width="0.5" stroke-linecap="round" stroke-linejoin="round"/>
<path d="M106.811 37.4381L106.847 37.4323C106.952 37.4154 107.059 37.4192 107.162 37.4437C107.266 37.4681 107.363 37.5127 107.449 37.5748C107.535 37.637 107.609 37.7155 107.664 37.8059C107.72 37.8962 107.758 37.9967 107.775 38.1016L107.911 38.9426L106.271 39.2079L106.135 38.3668C106.118 38.2614 106.122 38.1536 106.147 38.0497C106.172 37.9458 106.217 37.8478 106.28 37.7615C106.343 37.6751 106.422 37.6021 106.513 37.5466C106.604 37.4911 106.706 37.4542 106.811 37.4381Z" fill="#353535" stroke="#353535" stroke-width="0.5" stroke-linecap="round" stroke-linejoin="round"/>
<path d="M105.623 36.6692C105.623 36.6692 106.633 36.746 107.003 37.3892C107.059 37.031 107.235 36.7025 107.502 36.458" stroke="#353535" stroke-width="0.5" stroke-linecap="round" stroke-linejoin="round"/>
<path d="M126.269 37.4248C126.334 37.7396 126.304 38.0664 126.182 38.3639C126.061 38.6615 125.855 38.9165 125.589 39.0966C125.323 39.2768 125.009 39.374 124.688 39.3761C124.367 39.3781 124.052 39.2849 123.784 39.1082C123.515 38.9314 123.306 38.6791 123.181 38.3831C123.056 38.0872 123.021 37.7608 123.082 37.4452C123.142 37.1297 123.295 36.8392 123.521 36.6105C123.746 36.3817 124.035 36.225 124.349 36.16C124.771 36.0736 125.211 36.1582 125.571 36.3953C125.931 36.6324 126.182 37.0027 126.269 37.4248Z" fill="white" stroke="#353535" stroke-width="0.5" stroke-linecap="round" stroke-linejoin="round"/>
<path d="M124.075 35.0633L124.124 35.0532C124.228 35.032 124.335 35.0315 124.44 35.0517C124.544 35.0719 124.643 35.1124 124.732 35.171C124.82 35.2296 124.897 35.305 124.956 35.3931C125.016 35.4811 125.057 35.58 125.078 35.6841L125.249 36.5191L123.621 36.8512L123.451 36.0163C123.408 35.806 123.45 35.5874 123.569 35.4084C123.687 35.2294 123.871 35.1048 124.082 35.0619L124.075 35.0633Z" fill="#353535" stroke="#353535" stroke-width="0.5" stroke-linecap="round" stroke-linejoin="round"/>
<path d="M122.82 34.0873C122.82 34.0873 123.833 34.1209 124.229 34.7569C124.269 34.3938 124.432 34.0551 124.69 33.7969" stroke="#353535" stroke-width="0.5" stroke-linecap="round" stroke-linejoin="round"/>
<path d="M54.6816 85.5448L53.4336 86.7928L52.3656 86.9704L53.256 122.246H63.5832L66.4296 88.6624L61.4448 86.704L54.6816 85.5448Z" fill="white" stroke="#353535" stroke-width="0.5" stroke-miterlimit="10" stroke-linecap="round"/>
<path d="M52.6338 86.3468C52.6338 86.3468 53.7018 100.677 53.8794 102.014C54.057 103.351 54.7698 122.246 54.7698 122.246H39.0138C39.0138 122.246 38.5794 116.44 38.5794 115.72C38.5794 115 31.1154 110.94 31.1154 110.94C31.1154 110.94 31.1154 109.74 31.7322 106.965C32.421 103.826 35.9874 89.462 36.345 88.8404C36.7026 88.2188 49.065 87.2372 49.065 87.2372C49.065 87.2372 51.1194 86.5244 52.6338 86.3468Z" fill="#353535" stroke="#353535" stroke-width="0.5" stroke-miterlimit="10" stroke-linecap="round"/>
<path d="M38.2873 103.405L43.0201 106.909C43.0201 106.909 42.3985 101.745 40.2601 98.9894" stroke="#616161" stroke-width="0.5" stroke-miterlimit="10" stroke-linecap="round"/>
<path d="M36.5236 102.103L37.678 102.957" stroke="#616161" stroke-width="0.5" stroke-miterlimit="10" stroke-linecap="round"/>
<path d="M42.674 97.9601C43.394 100.257 44.2484 103.583 44.0876 105.923" stroke="#616161" stroke-width="0.5" stroke-miterlimit="10" stroke-linecap="round"/>
<path d="M41.7736 95.337C41.7736 95.337 41.9824 95.877 42.2752 96.741" stroke="#616161" stroke-width="0.5" stroke-miterlimit="10" stroke-linecap="round"/>
<path d="M47.6971 93.6427L46.4923 99.2539L50.8531 100.499L46.7587 102.816L53.5219 120.261" stroke="#616161" stroke-width="0.5" stroke-miterlimit="10" stroke-linecap="round"/>
<path d="M49.0723 87.2365L48.0763 91.8733" stroke="#616161" stroke-width="0.5" stroke-miterlimit="10" stroke-linecap="round"/>
<path d="M56.8176 94.6264L57.8856 98.1856L54.1464 122.246H61.1784L59.3088 98.0968L61.2672 94.8928L59.4864 91.7776L56.8176 94.6264Z" fill="url(#paint0_linear_4_591)" stroke="#353535" stroke-width="0.5" stroke-miterlimit="10" stroke-linecap="round"/>
<path d="M55.2144 80.2001L54.1464 85.0961C54.1464 85.0961 56.5464 91.3361 58.8648 93.3737C58.8648 93.3737 61.0008 92.7521 61.6248 92.0393C62.1534 91.3649 62.6292 90.6508 63.048 89.9033L64.6512 86.8769C64.6512 86.8769 61.0008 84.1169 60.4656 82.8713C59.9304 81.6257 59.1312 77.0801 59.1312 77.0801L55.2144 80.2001Z" fill="white" stroke="#353535" stroke-width="0.5" stroke-miterlimit="10" stroke-linecap="round"/>
<path d="M71.6811 70.4152C71.6811 70.4152 73.7283 69.6952 73.9083 67.744C74.0883 65.7928 67.7667 61.336 63.8499 61.78C59.9331 62.224 54.5931 65.3416 53.5299 68.2768C52.4667 71.212 54.8643 75.6664 54.8643 77.2672C54.8643 78.868 54.4203 80.74 55.3923 80.92C56.3643 81.1 58.2411 79.3168 58.5987 78.6952C58.9563 78.0736 61.3563 78.3376 62.1579 76.4704C62.9595 74.6032 64.0275 72.376 66.2523 72.1072C68.4771 71.8384 70.9803 71.0368 71.6811 70.4152Z" fill="#353535" stroke="#353535" stroke-width="0.5" stroke-miterlimit="10" stroke-linecap="round"/>
<path d="M59.3969 76.1988C59.3969 76.1988 58.7753 73.974 57.6185 73.8852C56.4617 73.7964 55.5713 76.4676 56.3705 77.8908C57.1697 79.314 57.9737 79.4028 57.9737 79.4028C57.7223 79.9465 57.6226 80.548 57.6851 81.1437C57.7476 81.7395 57.9701 82.3072 58.3289 82.7868C59.5769 84.4668 64.3817 87.8604 65.6273 88.038C66.8729 88.2156 67.3193 87.1476 67.9433 85.9908C68.5673 84.834 69.8129 81.5412 69.8129 81.5412L70.8809 81.006V77.9796C70.8809 77.9796 71.2361 76.2876 71.5025 76.11C71.6871 75.948 71.8129 75.7294 71.8601 75.4884L71.6801 70.4148C70.1863 70.7329 68.6662 70.9112 67.1393 70.9476H65.0033L63.7577 69.7908L66.6977 67.4796C66.6977 67.4796 62.6921 68.37 62.6921 69.438C62.6921 70.506 63.8489 71.3964 62.9585 72.1956C62.0681 72.9948 60.2873 74.4228 60.2873 74.4228C60.2873 74.4228 60.4649 74.6892 60.2873 75.4908C60.1097 76.2924 59.6657 76.0212 59.3969 76.1988Z" fill="white" stroke="#353535" stroke-width="0.5" stroke-miterlimit="10" stroke-linecap="round"/>
<path d="M66.9354 76.7053C66.9354 77.0461 66.8034 77.3221 66.6426 77.3221C66.4818 77.3221 66.3498 77.0461 66.3498 76.7053C66.3498 76.3645 66.4794 76.0909 66.6426 76.0909C66.8058 76.0909 66.9354 76.3597 66.9354 76.7053Z" fill="#353535"/>
<path d="M64.9181 74.7763C65.4931 74.5495 66.1119 74.4557 66.7282 74.5018C67.3446 74.5479 67.9425 74.7328 68.4773 75.0427" stroke="#353535" stroke-width="0.5" stroke-miterlimit="10" stroke-linecap="round"/>
<path d="M71.5036 76.1105L70.258 77.0009L70.882 81.0065" stroke="#353535" stroke-width="0.5" stroke-miterlimit="10" stroke-linecap="round"/>
<path d="M69.8146 81.5421L68.5666 81.7197" stroke="#353535" stroke-width="0.5" stroke-miterlimit="10" stroke-linecap="round"/>
<path d="M68.1219 83.3203C68.1219 83.3203 66.1635 82.9651 65.1843 81.9859C64.2051 81.0067 64.0275 80.6515 64.0275 80.6515" stroke="#353535" stroke-width="0.5" stroke-miterlimit="10" stroke-linecap="round"/>
<path d="M54.1471 85.1007L52.8127 86.7039L54.8599 96.8511L58.8655 93.3783L54.1471 85.1007Z" fill="white" stroke="#353535" stroke-width="0.5" stroke-miterlimit="10" stroke-linecap="round"/>
<path d="M58.8654 93.3789L61.623 92.0445L63.315 89.5509L62.3358 97.2957L58.8654 93.3789Z" fill="white" stroke="#353535" stroke-width="0.5" stroke-miterlimit="10" stroke-linecap="round"/>
<path d="M63.6723 88.3048C63.6723 88.3048 62.3355 100.065 62.3355 106.463C62.3355 112.862 60.9123 122.246 60.9123 122.246H77.0235C77.0235 122.246 73.9971 107.442 73.9971 105.75C73.9971 104.058 73.9971 91.5088 73.7283 90.976C73.4595 90.4432 63.6723 88.3048 63.6723 88.3048Z" fill="#353535" stroke="#353535" stroke-width="0.5" stroke-miterlimit="10" stroke-linecap="round"/>
<path d="M66.6981 89.3732C66.6981 89.3732 68.7453 100.413 68.7453 100.677C68.7453 100.941 65.3613 101.925 65.3613 101.925L67.9437 104.505L63.9357 115.492" stroke="#616161" stroke-width="0.5" stroke-miterlimit="10" stroke-linecap="round"/>
<path d="M69.6759 105.229L69.8127 103.17" stroke="#616161" stroke-width="0.5" stroke-miterlimit="10" stroke-linecap="round"/>
<path d="M68.5666 122.246L69.5962 106.492" stroke="#616161" stroke-width="0.5" stroke-miterlimit="10" stroke-linecap="round"/>
<path d="M73.7228 116.466C74.0468 116.294 74.3756 116.133 74.7068 115.986" stroke="#616161" stroke-width="0.5" stroke-miterlimit="10" stroke-linecap="round"/>
<path d="M68.5666 120.52C69.7834 119.241 71.1399 118.101 72.6106 117.124" stroke="#616161" stroke-width="0.5" stroke-miterlimit="10" stroke-linecap="round"/>
<path d="M68.924 116.611C68.924 116.611 70.0808 113.584 73.82 111.271" stroke="#616161" stroke-width="0.5" stroke-miterlimit="10" stroke-linecap="round"/>
<path d="M69.1896 114.386C69.7162 112.996 70.4679 111.703 71.4144 110.558" stroke="#616161" stroke-width="0.5" stroke-miterlimit="10" stroke-linecap="round"/>
<path d="M63.7605 105.88L65.5077 99.5585L64.9605 99.4073L63.2109 105.727L58.6797 105.967C58.6458 105.968 58.6134 105.981 58.5885 106.004C58.5636 106.027 58.5478 106.059 58.544 106.092C58.5402 106.126 58.5487 106.16 58.5679 106.188C58.5871 106.216 58.6157 106.236 58.6485 106.245L62.9373 107.431L63.1221 107.481L67.4109 108.669C67.4433 108.678 67.4776 108.674 67.5079 108.66C67.5381 108.646 67.5623 108.621 67.5761 108.59C67.5899 108.56 67.5924 108.526 67.5833 108.493C67.5741 108.461 67.5539 108.433 67.5261 108.415L63.7605 105.88Z" fill="white" stroke="#353535" stroke-width="0.5" stroke-miterlimit="10" stroke-linecap="round"/>
<path d="M65.2348 99.482C64.2149 99.1995 63.3489 98.5235 62.8272 97.6027C62.3056 96.6819 62.1711 95.5916 62.4532 94.5716L65.8612 86.7404L71.2468 88.2308L70.1452 96.7004C69.8627 97.7203 69.1868 98.5863 68.2659 99.1079C67.3451 99.6295 66.2548 99.7641 65.2348 99.482Z" fill="white" stroke="#353535" stroke-width="0.5" stroke-miterlimit="10" stroke-linecap="round"/>
<path d="M69.9458 93.6661L69.6866 96.2077C69.2258 98.1277 67.361 99.3133 65.525 98.8693C63.689 98.4253 62.5802 96.5197 63.0362 94.5997L63.197 94.1917L69.9458 93.6661Z" fill="url(#paint1_linear_4_591)" stroke="#353535" stroke-width="0.5" stroke-miterlimit="10" stroke-linecap="round"/>
<path d="M61.0002 97.3839C61.0002 97.3839 65.361 98.0079 65.8002 98.1855C66.2394 98.3631 67.8474 100.946 68.025 101.656C68.2026 102.366 67.1346 102.724 67.1346 102.724C67.1346 102.724 65.7114 105.75 65.1762 105.93C64.8601 106.037 64.5303 106.097 64.197 106.108L62.4162 105.306C62.4162 105.306 58.233 107.265 57.165 107.354C56.097 107.442 54.585 107.442 54.585 107.442L52.905 108.688L51.7482 103.972L54.9522 102.458L61.0002 97.3839Z" fill="white" stroke="#353535" stroke-width="0.5" stroke-miterlimit="10" stroke-linecap="round"/>
<path d="M62.2464 99.16C62.2464 99.16 65.2728 99.88 65.5392 99.9616C65.8056 100.043 67.14 102.724 67.14 102.724" stroke="#353535" stroke-width="0.5" stroke-miterlimit="10" stroke-linecap="round"/>
<path d="M62.6037 101.39C62.6037 101.39 64.7397 101.745 65.0037 102.014C65.2677 102.283 66.4269 103.972 66.4269 103.972" stroke="#353535" stroke-width="0.5" stroke-miterlimit="10" stroke-linecap="round"/>
<path d="M62.2464 103.526L64.4712 103.883L65.5392 105.484" stroke="#353535" stroke-width="0.5" stroke-miterlimit="10" stroke-linecap="round"/>
<path d="M52.9897 102.546L54.9481 111.004L52.0993 111.803L50.3185 103.436L52.9897 102.546Z" fill="white" stroke="#353535" stroke-width="0.5" stroke-miterlimit="10" stroke-linecap="round"/>
<path d="M51.744 102.546L53.424 112.782C53.424 112.782 41.5968 116.44 39.9936 116.968C38.3904 117.496 34.3368 119.056 33.0024 117.364C31.668 115.672 30.7776 111.935 31.14 110.68C31.5024 109.424 32.6088 107.994 37.8888 106.674C40.7016 105.98 51.744 102.546 51.744 102.546Z" fill="#353535" stroke="#353535" stroke-width="0.5" stroke-miterlimit="10" stroke-linecap="round"/>
<path d="M63.2712 117.317L62.424 119.637" stroke="#353535" stroke-width="0.5" stroke-miterlimit="10" stroke-linecap="round"/>
<path d="M135.953 122.246H137.468" stroke="#353535" stroke-width="0.5" stroke-miterlimit="10" stroke-linecap="round"/>
<path d="M31.1424 122.246H134.414" stroke="#353535" stroke-width="0.5" stroke-miterlimit="10" stroke-linecap="round"/>
<path d="M27.4512 122.246H29.3616" stroke="#353535" stroke-width="0.5" stroke-miterlimit="10" stroke-linecap="round"/>
<path d="M102.297 74.3012C102.297 74.3012 100.574 77.102 100.574 78.7196C100.574 80.3372 100.838 80.1116 100.622 81.5132C100.406 82.9148 98.6346 83.6732 98.9586 84.7508C99.0389 85.0524 99.2042 85.3245 99.4348 85.5347C99.6655 85.7449 99.9517 85.8843 100.259 85.9364C100.259 85.9364 100.905 88.9508 101.121 89.5988C101.15 89.6852 101.174 89.7692 101.198 89.8388C101.267 90.0824 101.397 90.3048 101.574 90.4858C101.751 90.6668 101.971 90.8008 102.213 90.8756H102.23C102.516 90.962 102.822 90.962 103.108 90.8756L105.645 90.1244C105.645 90.1244 107.368 92.9252 107.692 94.0028C108.016 95.0804 107.152 95.0804 107.152 95.0804C107.152 95.0804 101.872 95.51 100.797 96.5876C99.7218 97.6652 97.0194 108.664 96.8034 109.202C96.5874 109.74 94.9794 113.296 94.9794 113.296C94.9794 113.296 90.9954 111.465 89.1642 110.388C87.333 109.31 81.6162 104.14 81.2994 103.72C80.9826 103.3 81.1914 100.92 81.1914 99.6284C81.1914 98.3372 80.5458 97.6892 78.177 96.182C75.8082 94.6748 71.6058 93.5948 71.0658 93.9188C70.5258 94.2428 71.0658 94.4564 72.0258 94.8788C72.9858 95.3012 75.4722 97.0388 75.4722 97.0388C75.4722 97.0388 74.073 99.5156 73.965 100.701C73.857 101.887 77.6274 105.547 78.597 107.056C79.5666 108.566 89.157 118.905 89.6922 119.659C90.2274 120.412 93.2466 122.136 94.3242 122.352C95.4018 122.568 98.3106 119.767 98.8482 119.013C99.3858 118.26 101.757 115.672 101.757 115.672L103.372 117.182L103.156 122.136H129.335C129.335 122.136 127.075 98.1164 125.255 95.8532C123.436 93.59 119.438 94.8932 118.144 94.4516C116.851 94.01 115.024 89.1716 114.914 88.6364C114.763 88.0532 114.583 87.478 114.374 86.9132C114.374 86.9132 114.914 85.082 113.728 81.6332C112.543 78.1844 109.204 76.8956 106.727 75.602C104.251 74.3084 102.945 73.2236 102.297 74.3012Z" fill="white" stroke="#353535" stroke-width="0.5" stroke-miterlimit="10" stroke-linecap="round"/>
<path d="M73.9523 97.1303C73.8989 97.103 73.8405 97.0867 73.7807 97.0823C73.7208 97.0779 73.6607 97.0855 73.6039 97.1048C73.547 97.124 73.4946 97.1544 73.4498 97.1943C73.4049 97.2341 73.3685 97.2826 73.3427 97.3367C73.1819 97.6703 72.9875 98.1431 73.0811 98.3279C73.2299 98.6279 74.6531 99.6767 75.0275 100.126C75.4019 100.574 76.0763 101.249 76.2275 100.8C76.3787 100.351 75.9275 99.2255 75.7019 98.7023C75.5219 98.2799 74.6123 97.4807 73.9523 97.1303Z" fill="white" stroke="#353535" stroke-width="0.5" stroke-miterlimit="10" stroke-linecap="round"/>
<path d="M73.0823 98.3271C73.0823 98.3271 72.1727 98.7544 72.2399 99.5752C72.3071 100.396 74.8799 101.622 75.2111 101.759C75.5423 101.896 75.7919 101.555 75.7919 101.279C75.7919 101.003 75.1439 100.151 74.6999 99.5727C74.2559 98.9943 73.0823 98.3271 73.0823 98.3271Z" fill="white" stroke="#353535" stroke-width="0.5" stroke-miterlimit="10" stroke-linecap="round"/>
<path d="M72.4787 100.154C72.3099 100.447 72.216 100.777 72.2051 101.114C72.2051 101.625 74.4923 102.48 74.7323 102.314C74.9723 102.149 75.0059 101.801 74.5619 101.563C74.1179 101.325 72.4787 100.154 72.4787 100.154Z" fill="white" stroke="#353535" stroke-width="0.5" stroke-miterlimit="10" stroke-linecap="round"/>
<path d="M104.607 97.2236C104.607 97.2236 108.594 98.4548 109.239 98.63C109.885 98.8052 110.353 98.6876 110.588 98.9228" stroke="#353535" stroke-width="0.5" stroke-miterlimit="10" stroke-linecap="round"/>
<path d="M112.756 99.0984C113.188 98.7976 113.639 98.5234 114.105 98.2776C114.515 98.1024 118.444 97.1064 118.444 97.1064" stroke="#353535" stroke-width="0.5" stroke-miterlimit="10" stroke-linecap="round"/>
<path d="M101.719 102.761C101.719 102.761 102.232 105.058 102.336 105.823C102.388 106.152 102.422 106.484 102.439 106.817L102.026 107.89" stroke="#353535" stroke-width="0.5" stroke-miterlimit="10" stroke-linecap="round"/>
<path d="M102.442 81.424C102.442 81.7648 102.31 82.0408 102.146 82.0408C101.983 82.0408 101.854 81.7648 101.854 81.424C101.854 81.0832 101.986 80.8096 102.146 80.8096C102.307 80.8096 102.442 81.0832 102.442 81.424Z" fill="#353535"/>
<path d="M101.092 86.44C101.092 86.44 103.144 86.5552 103.847 85.6768" stroke="#353535" stroke-width="0.5" stroke-miterlimit="10" stroke-linecap="round"/>
<path d="M101.268 79.8112C101.268 79.8112 102.264 78.8152 102.852 79.8712" stroke="#353535" stroke-width="0.5" stroke-miterlimit="10" stroke-linecap="round"/>
<path d="M105.639 90.1363L108.091 89.1523L106.613 91.7299L105.639 90.1363Z" fill="#353535" stroke="#353535" stroke-width="0.5" stroke-miterlimit="10" stroke-linecap="round"/>
<path d="M101.759 115.665C101.759 115.665 99.4186 114.549 100.107 110.339C100.796 106.13 105.464 105.748 105.692 105.748C105.92 105.748 110.744 109.269 110.744 109.269C110.744 109.269 114.877 106.055 116.867 105.909C118.856 105.762 121.619 108.04 122.761 110.2C123.903 112.36 124.062 116.627 124.062 116.627L123.985 122.291H103.158L103.374 117.186L101.759 115.665Z" fill="#E16EF4" stroke="#353535" stroke-width="0.5" stroke-miterlimit="10" stroke-linecap="round"/>
<path d="M77.2548 105.127L76.6044 98.6016L76.038 98.6592L76.686 105.185L72.5724 107.028C72.5414 107.043 72.5164 107.068 72.5019 107.099C72.4875 107.13 72.4844 107.165 72.4932 107.198C72.5021 107.231 72.5223 107.26 72.5504 107.28C72.5785 107.3 72.6126 107.309 72.6468 107.306L77.046 106.867L77.2356 106.848L81.6324 106.411C81.6668 106.408 81.6988 106.392 81.7228 106.367C81.7468 106.342 81.7613 106.31 81.7636 106.275C81.7659 106.241 81.7559 106.207 81.7354 106.179C81.7149 106.151 81.6852 106.131 81.6516 106.123L77.2548 105.127Z" fill="white" stroke="#353535" stroke-width="0.5" stroke-miterlimit="10" stroke-linecap="round"/>
<path d="M76.3211 98.632C75.7995 98.684 75.2727 98.6328 74.7709 98.4813C74.2691 98.3298 73.802 98.0808 73.3964 97.7488C72.9908 97.4167 72.6545 97.008 72.4069 96.5459C72.1593 96.0839 72.0051 95.5776 71.9531 95.056L72.3083 86.5216L77.8667 85.96L79.8971 94.2568C79.9502 94.779 79.8998 95.3065 79.7487 95.8091C79.5976 96.3118 79.3488 96.7797 79.0167 97.1861C78.6845 97.5925 78.2755 97.9294 77.8129 98.1775C77.3504 98.4256 76.8434 98.58 76.3211 98.632Z" fill="white" stroke="#353535" stroke-width="0.5" stroke-miterlimit="10" stroke-linecap="round"/>
<path d="M72.5892 92.2002L72.498 94.7538C72.6924 96.7146 74.3748 98.1498 76.254 97.9626C78.1356 97.7754 79.5012 96.0426 79.3044 94.077L79.2036 93.6498L72.5892 92.2002Z" fill="url(#paint2_linear_4_591)" stroke="#353535" stroke-width="0.5" stroke-miterlimit="10" stroke-linecap="round"/>
<path d="M103.729 71.546C103.729 71.546 103.026 70.3172 101.089 71.078C99.1523 71.8388 99.8579 75.2996 100.444 75.8276C101.029 76.3556 102.203 76.646 102.203 76.646C102.203 76.646 104.255 80.282 106.129 81.0428C108.004 81.8036 107.771 82.274 108.289 82.7444C108.808 83.2148 109.873 83.0948 110.106 83.0948C110.339 83.0948 109.931 85.4396 112.158 87.2564C114.385 89.0732 115.499 89.2508 117.961 87.7364C120.424 86.222 120.841 85.742 120.541 84.4532C120.417 83.8336 120.241 83.2258 120.013 82.6364C120.013 82.6364 121.655 80.7596 121.069 79.0604C120.484 77.3612 118.259 76.3604 118.259 76.3604C118.259 76.3604 118.904 74.3084 116.149 71.438C113.394 68.5676 109.29 68.2724 106.595 69.1508C103.9 70.0292 103.729 71.546 103.729 71.546Z" fill="#353535" stroke="#353535" stroke-width="0.5" stroke-miterlimit="10" stroke-linecap="round"/>
<path d="M115.314 75.9551C115.696 75.9891 116.075 76.0443 116.45 76.1207" stroke="#616161" stroke-width="0.5" stroke-miterlimit="10" stroke-linecap="round"/>
<path d="M105.779 72.7772C105.779 72.7772 106.423 74.9372 109.063 75.3572C110.81 75.6284 112.919 75.746 114.52 75.8804" stroke="#616161" stroke-width="0.5" stroke-miterlimit="10" stroke-linecap="round"/>
<path d="M117.693 82.0225C118.141 82.1566 118.556 82.3822 118.913 82.6849" stroke="#616161" stroke-width="0.5" stroke-miterlimit="10" stroke-linecap="round"/>
<path d="M114.279 81.4531C115.038 81.4893 115.794 81.5791 116.54 81.7219" stroke="#616161" stroke-width="0.5" stroke-miterlimit="10" stroke-linecap="round"/>
<path d="M121 104.14L124.29 117.28C124.29 117.28 109.902 119.577 107.147 119.882C104.392 120.187 103.168 120.035 102.107 120.266C101.636 120.345 101.174 120.473 100.729 120.647C100.729 120.647 95.9845 121.413 94.9117 121.797C93.8389 122.181 92.5405 122.409 92.7685 122.637C92.9965 122.865 94.2229 123.021 94.6885 123.021C95.1541 123.021 102.573 123.326 102.803 123.326C103.033 123.326 105.405 123.479 106.017 123.249C106.629 123.019 109.23 122.486 109.23 122.486C109.23 122.486 119.087 123.64 121.307 123.64C123.527 123.64 128.423 124.252 130.187 123.64C131.951 123.028 132.558 122.032 132.407 120.885C132.256 119.738 128.197 101.699 127.127 98.4089C126.057 95.1185 124.833 93.9689 122.613 94.1993C120.393 94.4297 119.322 95.2697 119.322 95.2697" fill="white"/>
<path d="M121 104.14L124.29 117.28C124.29 117.28 109.902 119.577 107.147 119.882C104.392 120.187 103.168 120.035 102.107 120.266C101.636 120.345 101.174 120.473 100.729 120.647C100.729 120.647 95.9845 121.413 94.9117 121.797C93.8389 122.181 92.5405 122.409 92.7685 122.637C92.9965 122.865 94.2229 123.021 94.6885 123.021C95.1541 123.021 102.573 123.326 102.803 123.326C103.033 123.326 105.405 123.479 106.017 123.249C106.629 123.019 109.23 122.486 109.23 122.486C109.23 122.486 119.087 123.64 121.307 123.64C123.527 123.64 128.423 124.252 130.187 123.64C131.951 123.028 132.558 122.032 132.407 120.885C132.256 119.738 128.197 101.699 127.127 98.4089C126.057 95.1185 124.833 93.9689 122.613 94.1993C120.393 94.4297 119.322 95.2697 119.322 95.2697" stroke="#353535" stroke-width="0.5" stroke-miterlimit="10" stroke-linecap="round"/>
<path d="M124.291 117.281C124.291 117.281 126.818 116.822 127.965 116.822L124.291 117.281Z" fill="white"/>
<path d="M124.291 117.281C124.291 117.281 126.818 116.822 127.965 116.822" stroke="#353535" stroke-width="0.5" stroke-miterlimit="10" stroke-linecap="round"/>
<path d="M80.3636 102.463C80.3636 102.463 81.7868 99.9911 81.9356 99.0167C82.0844 98.0423 81.1124 95.7215 81.1124 94.6727C81.1124 93.6239 81.7868 92.4983 81.1124 92.4239C80.438 92.3495 79.5404 93.6983 79.5404 94.5215C79.5404 95.3447 79.4636 96.3935 79.5404 96.6935C79.6172 96.9935 78.1172 99.4655 78.1172 99.9911C78.1172 100.517 78.566 101.637 78.566 101.637" fill="white"/>
<path d="M80.3636 102.463C80.3636 102.463 81.7868 99.9911 81.9356 99.0167C82.0844 98.0423 81.1124 95.7215 81.1124 94.6727C81.1124 93.6239 81.7868 92.4983 81.1124 92.4239C80.438 92.3495 79.5404 93.6983 79.5404 94.5215C79.5404 95.3447 79.4636 96.3935 79.5404 96.6935C79.6172 96.9935 78.1172 99.4655 78.1172 99.9911C78.1172 100.517 78.566 101.637 78.566 101.637" stroke="#353535" stroke-width="0.5" stroke-miterlimit="10" stroke-linecap="round"/>
<path d="M108.66 84.0906C108.66 84.0906 109.769 81.4002 111.115 81.6402C112.462 81.8802 112.114 85.0986 111.595 85.8018C111.417 86.0407 111.182 86.2316 110.911 86.3572C110.64 86.4829 110.343 86.5394 110.045 86.5218C109.813 86.5178 109.584 86.4714 109.368 86.385" fill="white"/>
<path d="M108.66 84.0906C108.66 84.0906 109.769 81.4002 111.115 81.6402C112.462 81.8802 112.114 85.0986 111.595 85.8018C111.417 86.0407 111.182 86.2316 110.911 86.3572C110.64 86.4829 110.343 86.5394 110.045 86.5218C109.813 86.5178 109.584 86.4714 109.368 86.385" stroke="#353535" stroke-width="0.5" stroke-miterlimit="10" stroke-linecap="round"/>
<path d="M110.999 86.2007C110.999 86.0383 110.951 85.8796 110.861 85.7447C110.771 85.6097 110.642 85.5045 110.492 85.4424C110.342 85.3802 110.177 85.364 110.018 85.3957C109.859 85.4273 109.713 85.5055 109.598 85.6203C109.483 85.7351 109.405 85.8813 109.373 86.0406C109.342 86.1998 109.358 86.3648 109.42 86.5148C109.482 86.6648 109.587 86.793 109.722 86.8832C109.857 86.9733 110.016 87.0215 110.178 87.0215C110.396 87.0215 110.605 86.935 110.759 86.7811C110.913 86.6271 110.999 86.4184 110.999 86.2007Z" fill="url(#paint3_linear_4_591)" stroke="#353535" stroke-width="0.5" stroke-miterlimit="10" stroke-linecap="round"/>
<path d="M96.5851 124.739C102.364 124.739 107.049 124.119 107.049 123.355C107.049 122.59 102.364 121.97 96.5851 121.97C90.806 121.97 86.1211 122.59 86.1211 123.355C86.1211 124.119 90.806 124.739 96.5851 124.739Z" fill="white" stroke="#353535" stroke-width="0.5" stroke-miterlimit="10" stroke-linecap="round"/>
<path d="M109.411 122.877C109.411 123.64 103.67 124.262 96.5854 124.262C89.5006 124.262 83.7598 123.64 83.7598 122.877C83.7598 122.114 89.503 121.492 96.5854 121.492C103.668 121.492 109.411 122.111 109.411 122.877Z" fill="white" stroke="#353535" stroke-width="0.5" stroke-miterlimit="10" stroke-linecap="round"/>
<path d="M104.611 122.877C104.611 123.357 101.011 123.744 96.5857 123.744C92.1601 123.744 88.5625 123.355 88.5625 122.877C88.5625 122.4 92.1625 122.011 96.5857 122.011C101.009 122.011 104.611 122.4 104.611 122.877Z" fill="white" stroke="#353535" stroke-width="0.5" stroke-miterlimit="10" stroke-linecap="round"/>
<path d="M99.979 119.383H92.4766V123.014H99.979V119.383Z" fill="white" stroke="#353535" stroke-width="0.5" stroke-miterlimit="10" stroke-linecap="round"/>
<path d="M99.9792 119.383H96.6816V123.014H99.9792V119.383Z" fill="white" stroke="#353535" stroke-width="0.5" stroke-miterlimit="10" stroke-linecap="round"/>
<path d="M62.4601 124.739C68.2392 124.739 72.9241 124.119 72.9241 123.355C72.9241 122.59 68.2392 121.97 62.4601 121.97C56.681 121.97 51.9961 122.59 51.9961 123.355C51.9961 124.119 56.681 124.739 62.4601 124.739Z" fill="white" stroke="#353535" stroke-width="0.5" stroke-miterlimit="10" stroke-linecap="round"/>
<path d="M75.286 122.877C75.286 123.64 69.5428 124.262 62.4604 124.262C55.378 124.262 49.6348 123.64 49.6348 122.877C49.6348 122.114 55.378 121.492 62.4604 121.492C69.5428 121.492 75.286 122.112 75.286 122.877Z" fill="white" stroke="#353535" stroke-width="0.5" stroke-miterlimit="10" stroke-linecap="round"/>
<path d="M70.4839 122.877C70.4839 123.357 66.8839 123.744 62.4607 123.744C58.0375 123.744 54.4375 123.355 54.4375 122.877C54.4375 122.4 58.0375 122.011 62.4607 122.011C66.8839 122.011 70.4839 122.4 70.4839 122.877Z" fill="white" stroke="#353535" stroke-width="0.5" stroke-miterlimit="10" stroke-linecap="round"/>
<path d="M65.854 119.383H58.3516V123.014H65.854V119.383Z" fill="white" stroke="#353535" stroke-width="0.5" stroke-miterlimit="10" stroke-linecap="round"/>
<path d="M65.8542 119.383H62.5566V123.014H65.8542V119.383Z" fill="white" stroke="#353535" stroke-width="0.5" stroke-miterlimit="10" stroke-linecap="round"/>
<path d="M89.851 105.237C89.6021 104.644 89.1848 104.138 88.651 103.78C87.6454 103.098 87.451 102.17 87.463 101.02L87.3382 96.2199L86.3998 96.1575V96.1191L86.107 96.1383L85.8142 96.1191V96.1575L84.8758 96.2199L84.751 101.02C84.7654 102.17 84.5686 103.098 83.563 103.78C83.0291 104.138 82.6119 104.644 82.363 105.237C82.099 105.878 82.1902 106.47 82.2046 107.138L82.2622 109.602C82.3102 111.796 82.3598 113.99 82.411 116.183C82.4558 118.212 82.5022 120.241 82.5502 122.27L82.591 124.048C82.5941 124.247 82.6617 124.441 82.7837 124.599C82.9057 124.756 83.0755 124.871 83.2678 124.924C83.7286 125.051 84.4678 125.164 86.1166 125.164C87.7654 125.164 88.5046 125.051 88.9654 124.924C89.1574 124.87 89.3271 124.756 89.449 124.598C89.5709 124.44 89.6387 124.247 89.6422 124.048L89.683 122.27C89.7278 120.239 89.7742 118.21 89.8222 116.183C89.8718 113.99 89.9214 111.796 89.971 109.602L90.0286 107.138C90.0238 106.47 90.115 105.88 89.851 105.237Z" fill="#353535" stroke="#353535" stroke-width="0.5" stroke-miterlimit="10" stroke-linecap="round"/>
<path d="M82.1934 107.379L82.2438 109.602C82.2918 111.795 82.3414 113.989 82.3926 116.183L82.4478 118.645C82.695 118.803 82.9824 118.886 83.2758 118.885H89.0358C89.2863 118.885 89.5333 118.825 89.7558 118.71L89.8134 116.18C89.863 113.987 89.9126 111.793 89.9622 109.599L90.0126 107.377L82.1934 107.379Z" fill="white" stroke="#353535" stroke-width="0.5" stroke-miterlimit="10" stroke-linecap="round"/>
<path d="M88.8611 116.565H83.1083L82.8203 109.871H89.1491L88.8611 116.565Z" fill="#CCCCCC"/>
<path d="M86.391 96.1624V96.124L86.0982 96.1432L85.8054 96.124V96.1624L84.867 96.2248L84.7422 101.025V101.183H87.4542V101.025L87.3294 96.2248L86.391 96.1624Z" fill="#CCCCCC" stroke="#353535" stroke-width="0.5" stroke-miterlimit="10" stroke-linecap="round"/>
<path d="M85.2592 94.6524H87.0016C87.1741 94.6524 87.3395 94.7209 87.4615 94.8429C87.5834 94.9649 87.652 95.1303 87.652 95.3028V96.1308C87.652 96.2097 87.6206 96.2854 87.5648 96.3412C87.509 96.397 87.4333 96.4284 87.3544 96.4284H84.8992C84.8202 96.4284 84.7445 96.397 84.6887 96.3412C84.6329 96.2854 84.6016 96.2097 84.6016 96.1308V95.3028C84.6016 95.2168 84.6186 95.1316 84.6517 95.0522C84.6849 94.9728 84.7334 94.9008 84.7946 94.8403C84.8558 94.7798 84.9283 94.7321 85.008 94.6998C85.0878 94.6675 85.1731 94.6514 85.2592 94.6524Z" fill="#CCCCCC" stroke="#353535" stroke-width="0.5" stroke-miterlimit="10" stroke-linecap="round"/>
<path d="M51.7421 120.688H44.6621V126.81H51.7421V120.688Z" fill="#CCCCCC" stroke="#353535" stroke-width="0.5" stroke-miterlimit="10" stroke-linecap="round"/>
<path d="M52.1805 127.479H44.3181L41.6973 126.044H54.8037L52.1805 127.479Z" fill="white" stroke="#353535" stroke-width="0.5" stroke-miterlimit="10" stroke-linecap="round"/>
<path d="M49.54 117.913C49.54 119.286 48.5368 120.4 48.5368 120.4C48.5368 120.4 47.5312 119.286 47.5312 117.913C47.5312 116.54 48.5368 115.427 48.5368 115.427C48.5368 115.427 49.54 116.54 49.54 117.913Z" fill="white" stroke="#353535" stroke-width="0.5" stroke-miterlimit="10" stroke-linecap="round"/>
<path d="M123.742 120.688H116.662V126.81H123.742V120.688Z" fill="#CCCCCC" stroke="#353535" stroke-width="0.5" stroke-miterlimit="10" stroke-linecap="round"/>
<path d="M124.183 127.479H116.318L113.697 126.044H126.804L124.183 127.479Z" fill="white" stroke="#353535" stroke-width="0.5" stroke-miterlimit="10" stroke-linecap="round"/>
<path d="M121.54 117.913C121.54 119.286 120.537 120.4 120.537 120.4C120.537 120.4 119.531 119.286 119.531 117.913C119.531 116.54 120.537 115.427 120.537 115.427C120.537 115.427 121.54 116.54 121.54 117.913Z" fill="white" stroke="#353535" stroke-width="0.5" stroke-miterlimit="10" stroke-linecap="round"/>
<defs>
<linearGradient id="paint0_linear_4_591" x1="57.7068" y1="91.7776" x2="57.7068" y2="122.246" gradientUnits="userSpaceOnUse">
<stop stop-color="#AC6EEC"/>
<stop offset="1" stop-color="#6961ED"/>
</linearGradient>
<linearGradient id="paint1_linear_4_591" x1="66.4398" y1="93.6661" x2="66.4398" y2="98.9625" gradientUnits="userSpaceOnUse">
<stop stop-color="#AC6EEC"/>
<stop offset="1" stop-color="#6961ED"/>
</linearGradient>
<linearGradient id="paint2_linear_4_591" x1="75.9107" y1="92.2002" x2="75.9107" y2="97.979" gradientUnits="userSpaceOnUse">
<stop stop-color="#AC6EEC"/>
<stop offset="1" stop-color="#6961ED"/>
</linearGradient>
<linearGradient id="paint3_linear_4_591" x1="110.178" y1="85.3799" x2="110.178" y2="87.0215" gradientUnits="userSpaceOnUse">
<stop stop-color="#AC6EEC"/>
<stop offset="1" stop-color="#6961ED"/>
</linearGradient>
</defs>
</svg>
