<svg width="164" height="163" viewBox="0 0 164 163" fill="none" xmlns="http://www.w3.org/2000/svg">
<circle cx="82" cy="81.5" r="81.5" fill="white"/>
<g opacity="0.7">
<path d="M128.874 44.0463C121.858 28.0484 105.017 22.0249 91.729 32.7663C86.5402 36.9568 83.3028 43.6261 76.9494 46.3023C70.9879 48.8121 63.4359 48.0733 56.9894 49.4325C43.2617 52.3089 24.7794 63.2223 26.1894 80.038C26.807 87.4038 31.7758 95.5846 34.232 102.477C37.052 110.407 38.744 120.327 46.2086 125.068C59.0057 133.206 74.4424 126.554 85.9706 119.992C92.1746 116.464 95.5896 114.295 102.27 115.505C108.454 116.633 114.024 120.581 120.067 115.897C124.605 112.381 124.98 105.254 128.789 101.07C133.081 96.3545 137.433 96.0133 139.663 88.9266C142.368 80.3284 138.383 74.9563 135.69 67.2746C132.997 59.593 132.179 51.5729 128.874 44.0463Z" fill="#F2F2FF"/>
</g>
<path d="M75.4861 138.425C99.561 138.425 119.078 137.21 119.078 135.71C119.078 134.21 99.561 132.994 75.4861 132.994C51.4111 132.994 31.8945 134.21 31.8945 135.71C31.8945 137.21 51.4111 138.425 75.4861 138.425Z" fill="url(#paint0_linear_4_490)"/>
<path opacity="0.8" d="M75.4861 138.425C99.561 138.425 119.078 137.21 119.078 135.71C119.078 134.21 99.561 132.994 75.4861 132.994C51.4111 132.994 31.8945 134.21 31.8945 135.71C31.8945 137.21 51.4111 138.425 75.4861 138.425Z" fill="white"/>
<path d="M108.244 32.4443H64.4129C61.3867 32.4443 58.9336 34.8975 58.9336 37.9236V130.459C58.9336 133.485 61.3867 135.938 64.4129 135.938H108.244C111.27 135.938 113.723 133.485 113.723 130.459V37.9236C113.723 34.8975 111.27 32.4443 108.244 32.4443Z" fill="#353535"/>
<path d="M111.287 43.8086H61.3672V124.573H111.287V43.8086Z" fill="white" stroke="#353535" stroke-width="1.33739" stroke-miterlimit="10"/>
<path d="M93.9808 76.5125C98.2064 72.2869 98.2064 65.4358 93.9808 61.2102C89.7551 56.9846 82.9041 56.9846 78.6785 61.2102C74.4529 65.4358 74.4529 72.2869 78.6785 76.5125C82.9041 80.7381 89.7551 80.7381 93.9808 76.5125Z" fill="#E16EF4"/>
<path d="M100.533 119.495H72.1246C72.0607 119.496 71.9973 119.483 71.9381 119.459C71.8789 119.435 71.8251 119.399 71.7798 119.354C71.7344 119.309 71.6985 119.256 71.6739 119.197C71.6494 119.138 71.6367 119.074 71.6367 119.01C71.6364 118.946 71.6487 118.883 71.6731 118.823C71.6975 118.764 71.7334 118.71 71.7788 118.665C71.8242 118.619 71.8781 118.583 71.9374 118.559C71.9968 118.534 72.0604 118.522 72.1246 118.522H100.533C100.597 118.522 100.661 118.535 100.72 118.56C100.779 118.584 100.832 118.62 100.877 118.666C100.922 118.711 100.958 118.765 100.982 118.824C101.006 118.883 101.019 118.946 101.018 119.01C101.018 119.139 100.967 119.262 100.876 119.353C100.785 119.444 100.662 119.495 100.533 119.495Z" fill="url(#paint1_linear_4_490)"/>
<path d="M101.459 85.7646H71.1972C70.5727 85.7646 70.0664 86.2709 70.0664 86.8955V90.4628C70.0664 91.0873 70.5727 91.5936 71.1972 91.5936H101.459C102.083 91.5936 102.589 91.0873 102.589 90.4628V86.8955C102.589 86.2709 102.083 85.7646 101.459 85.7646Z" fill="#E16EF4"/>
<path d="M101.459 96.667H71.1972C70.5727 96.667 70.0664 97.1733 70.0664 97.7978V101.365C70.0664 101.99 70.5727 102.496 71.1972 102.496H101.459C102.083 102.496 102.589 101.99 102.589 101.365V97.7978C102.589 97.1733 102.083 96.667 101.459 96.667Z" fill="#E16EF4"/>
<path d="M91.7161 74.2593L88.5323 72.4263V70.912C88.9933 70.3543 89.3272 69.7028 89.5108 69.0029C89.6204 69.0418 89.7358 69.0618 89.8521 69.0621C90.2469 69.0621 90.4978 67.8382 90.5401 66.964C90.9998 65.9911 90.3738 65.4215 90.3738 65.4215C90.3738 65.4215 90.6332 65.162 90.8052 64.1214C90.9772 63.0809 90.1989 63.5151 89.5926 62.562C88.9863 61.6088 88.552 60.5711 86.5611 60.5711C86.0125 60.553 85.4712 60.7004 85.0075 60.9941C84.5438 61.2878 84.1792 61.7143 83.9611 62.2179C83.4655 62.2197 82.9717 62.2774 82.489 62.39C81.8799 62.562 81.7079 64.5557 82.2268 65.3369C82.4591 65.7638 82.583 66.2411 82.5877 66.7271C82.4496 66.5579 82.3057 66.5128 82.2268 66.8963C82.0548 67.7621 82.7485 68.9747 82.7485 68.9747L83.1066 68.8731C83.287 69.6211 83.6352 70.3183 84.1246 70.912V72.4263L80.9409 74.2593C80.569 74.474 80.2602 74.7827 80.0454 75.1544C79.8306 75.5261 79.7173 75.9478 79.717 76.3772V77.4262C81.6105 78.889 83.9357 79.6825 86.3285 79.6825C88.7212 79.6825 91.0464 78.889 92.94 77.4262V76.3772C92.9402 75.9477 92.8271 75.5258 92.6123 75.154C92.3974 74.7821 92.0883 74.4736 91.7161 74.2593Z" fill="#F6F6FF"/>
<path d="M74.1878 101.047C74.1148 101.046 74.045 101.016 73.9932 100.965C73.9654 100.94 73.9433 100.91 73.9282 100.876C73.9131 100.842 73.9055 100.805 73.9058 100.768C73.9066 100.717 73.9212 100.667 73.9481 100.624L74.4557 99.8117L73.4658 99.8427C73.4285 99.845 73.3912 99.8395 73.3562 99.8263C73.3212 99.8132 73.2894 99.7928 73.2628 99.7666C73.2168 99.7149 73.1914 99.6482 73.1914 99.579C73.1914 99.5099 73.2168 99.4431 73.2628 99.3915C73.2888 99.3643 73.3204 99.343 73.3555 99.3294C73.3906 99.3158 73.4283 99.31 73.4658 99.3125L74.4416 99.3492L73.9396 98.5399C73.9123 98.4958 73.8977 98.4451 73.8973 98.3932C73.897 98.356 73.9047 98.3191 73.9198 98.2851C73.9348 98.2511 73.957 98.2206 73.9847 98.1958C74.0365 98.1444 74.1063 98.1151 74.1793 98.114C74.2273 98.1144 74.2743 98.1283 74.3148 98.1543C74.3552 98.1802 74.3874 98.2171 74.4077 98.2607L74.8899 99.1321L75.3665 98.2663C75.3891 98.2201 75.4239 98.181 75.4672 98.1532C75.5104 98.1253 75.5605 98.1098 75.6119 98.1084C75.6475 98.1086 75.6827 98.1162 75.7152 98.1308C75.7478 98.1454 75.7769 98.1666 75.8008 98.193C75.8526 98.2467 75.8809 98.3187 75.8798 98.3932C75.8796 98.4417 75.867 98.4893 75.8431 98.5314L75.3327 99.3492L76.3225 99.3125C76.3601 99.31 76.3977 99.3158 76.4328 99.3294C76.4679 99.343 76.4996 99.3643 76.5255 99.3915C76.5736 99.4414 76.6 99.5083 76.5989 99.5776C76.5987 99.6475 76.5725 99.7148 76.5255 99.7666C76.499 99.7928 76.4672 99.8132 76.4322 99.8263C76.3972 99.8395 76.3598 99.845 76.3225 99.8427L75.327 99.8117L75.8234 100.615C75.8512 100.66 75.8658 100.712 75.8657 100.765C75.8657 100.84 75.8359 100.911 75.7831 100.964C75.7302 101.017 75.6584 101.047 75.5837 101.047C75.5353 101.046 75.4882 101.031 75.4481 101.004C75.408 100.977 75.3767 100.939 75.3581 100.895L74.8871 100.049L74.419 100.895C74.3982 100.939 74.3656 100.976 74.3248 101.003C74.284 101.03 74.2366 101.045 74.1878 101.047Z" fill="#353535"/>
<path d="M78.7622 101.047C78.6892 101.046 78.6195 101.016 78.5676 100.965C78.5399 100.94 78.5177 100.91 78.5027 100.876C78.4876 100.842 78.4799 100.805 78.4802 100.768C78.4811 100.717 78.4957 100.667 78.5225 100.624L79.0301 99.8117L78.0431 99.8427C78.0055 99.8444 77.9678 99.8386 77.9325 99.8255C77.8971 99.8124 77.8647 99.7924 77.8373 99.7666C77.7998 99.7279 77.7749 99.679 77.7657 99.626C77.7565 99.573 77.7634 99.5185 77.7856 99.4695C77.8078 99.4205 77.8443 99.3793 77.8902 99.3513C77.9361 99.3234 77.9894 99.3098 78.0431 99.3125L79.016 99.3492L78.5141 98.5399C78.4867 98.4958 78.4721 98.4451 78.4718 98.3932C78.4715 98.356 78.4791 98.3191 78.4942 98.2851C78.5093 98.2511 78.5314 98.2206 78.5592 98.1958C78.611 98.1444 78.6808 98.1151 78.7538 98.114C78.8018 98.1144 78.8488 98.1283 78.8892 98.1543C78.9297 98.1802 78.9619 98.2171 78.9822 98.2607L79.4644 99.1321L79.941 98.2663C79.9636 98.2201 79.9984 98.181 80.0416 98.1532C80.0849 98.1253 80.1349 98.1099 80.1863 98.1084C80.222 98.1083 80.2573 98.1157 80.2899 98.1303C80.3225 98.1449 80.3516 98.1663 80.3753 98.193C80.4014 98.2194 80.4221 98.2506 80.4361 98.285C80.4501 98.3193 80.4573 98.3561 80.457 98.3932C80.456 98.4419 80.4424 98.4895 80.4176 98.5314L79.9071 99.3492L80.8998 99.3182C80.9369 99.3157 80.9742 99.3215 81.0088 99.3351C81.0434 99.3488 81.0746 99.37 81.1 99.3971C81.1481 99.4471 81.1744 99.514 81.1733 99.5833C81.1731 99.6532 81.147 99.7205 81.1 99.7722C81.074 99.7984 81.0426 99.8188 81.0081 99.8319C80.9736 99.845 80.9366 99.8506 80.8998 99.8483L79.9015 99.8173L80.3978 100.621C80.4256 100.666 80.4403 100.718 80.4401 100.77C80.4401 100.845 80.4104 100.917 80.3575 100.97C80.3046 101.023 80.2329 101.052 80.1581 101.052C80.1098 101.052 80.0627 101.037 80.0226 101.01C79.9825 100.983 79.9512 100.945 79.9325 100.9L79.4616 100.054L78.9935 100.9C78.9719 100.943 78.939 100.98 78.8982 101.006C78.8575 101.032 78.8105 101.046 78.7622 101.047Z" fill="#353535"/>
<path d="M83.3384 101.047C83.2644 101.047 83.1935 101.017 83.141 100.965C83.1132 100.94 83.0911 100.91 83.076 100.876C83.061 100.842 83.0533 100.805 83.0536 100.768C83.0544 100.717 83.0691 100.667 83.0959 100.624L83.6035 99.8117L82.6165 99.8427C82.5633 99.8448 82.5107 99.8311 82.4654 99.8032C82.4201 99.7753 82.3841 99.7346 82.3621 99.6862C82.34 99.6378 82.3328 99.584 82.3415 99.5315C82.3501 99.479 82.3742 99.4303 82.4106 99.3915C82.4373 99.3643 82.4694 99.3432 82.5049 99.3296C82.5405 99.316 82.5785 99.3102 82.6165 99.3125L83.5894 99.3492L83.0874 98.5399C83.0601 98.4958 83.0455 98.4451 83.0451 98.3932C83.046 98.3562 83.0542 98.3197 83.0692 98.2858C83.0842 98.252 83.1057 98.2214 83.1325 98.1958C83.1851 98.1437 83.256 98.1144 83.3299 98.114C83.3775 98.1149 83.4239 98.1291 83.4638 98.155C83.5037 98.1809 83.5355 98.2176 83.5555 98.2607L84.0378 99.1321L84.5143 98.2663C84.5369 98.2201 84.5718 98.181 84.615 98.1532C84.6582 98.1253 84.7083 98.1099 84.7597 98.1084C84.7954 98.1083 84.8307 98.1157 84.8633 98.1303C84.8959 98.1449 84.925 98.1663 84.9486 98.193C84.9748 98.2194 84.9954 98.2506 85.0095 98.285C85.0235 98.3193 85.0306 98.3561 85.0304 98.3932C85.0294 98.4419 85.0158 98.4895 84.9909 98.5314L84.4805 99.3492L85.4731 99.3125C85.5096 99.3089 85.5465 99.3131 85.5812 99.3249C85.6159 99.3367 85.6477 99.3558 85.6745 99.3809C85.7012 99.406 85.7222 99.4366 85.7361 99.4705C85.7501 99.5045 85.7565 99.541 85.7551 99.5776C85.7557 99.6471 85.7306 99.7144 85.6846 99.7666C85.6581 99.7928 85.6262 99.8132 85.5913 99.8263C85.5563 99.8395 85.5189 99.845 85.4816 99.8427L84.4861 99.8117L84.9796 100.615C85.0074 100.66 85.0221 100.712 85.0219 100.765C85.021 100.802 85.0129 100.838 84.9979 100.872C84.9829 100.906 84.9613 100.937 84.9345 100.962C84.91 100.989 84.8803 101.01 84.8474 101.024C84.8144 101.039 84.7788 101.047 84.7428 101.047C84.6948 101.046 84.6481 101.031 84.6085 101.004C84.569 100.977 84.5382 100.939 84.52 100.895L84.0462 100.049L83.5781 100.895C83.557 100.94 83.5231 100.979 83.4806 101.006C83.4381 101.033 83.3888 101.047 83.3384 101.047Z" fill="#353535"/>
<path d="M87.9113 101.047C87.8373 101.047 87.7664 101.017 87.7139 100.965C87.6608 100.913 87.6303 100.842 87.6293 100.768C87.6284 100.717 87.6421 100.667 87.6688 100.624L88.1764 99.8117L87.1894 99.8427C87.1517 99.8444 87.1141 99.8386 87.0787 99.8255C87.0434 99.8124 87.011 99.7924 86.9835 99.7666C86.9375 99.7149 86.9121 99.6482 86.9121 99.579C86.9121 99.5099 86.9375 99.4431 86.9835 99.3915C87.0107 99.3652 87.043 99.3446 87.0784 99.3311C87.1138 99.3175 87.1515 99.3112 87.1894 99.3125L88.1651 99.3492L87.6659 98.5399C87.6386 98.4958 87.624 98.4451 87.6236 98.3932C87.6245 98.3562 87.6327 98.3197 87.6477 98.2858C87.6627 98.252 87.6842 98.2214 87.7111 98.1958C87.7636 98.1437 87.8345 98.1144 87.9085 98.114C87.9565 98.1144 88.0035 98.1283 88.0439 98.1543C88.0844 98.1802 88.1166 98.2171 88.1369 98.2607L88.6163 99.1321L89.0929 98.2663C89.1155 98.2201 89.1503 98.181 89.1935 98.1532C89.2368 98.1253 89.2868 98.1099 89.3382 98.1084C89.3739 98.1083 89.4092 98.1157 89.4418 98.1303C89.4744 98.1449 89.5035 98.1663 89.5271 98.193C89.5533 98.2194 89.574 98.2506 89.588 98.285C89.602 98.3193 89.6091 98.3561 89.6089 98.3932C89.6079 98.4419 89.5943 98.4895 89.5694 98.5314L89.059 99.3492L90.0517 99.3125C90.0882 99.3089 90.125 99.3131 90.1597 99.3249C90.1945 99.3367 90.2263 99.3558 90.253 99.3809C90.2797 99.406 90.3007 99.4366 90.3147 99.4705C90.3286 99.5045 90.335 99.541 90.3337 99.5776C90.3342 99.6471 90.3091 99.7144 90.2632 99.7666C90.2366 99.7928 90.2048 99.8132 90.1698 99.8263C90.1348 99.8395 90.0974 99.845 90.0601 99.8427L89.0647 99.8117L89.5582 100.615C89.586 100.66 89.6006 100.712 89.6005 100.765C89.6007 100.802 89.5931 100.839 89.578 100.873C89.5629 100.907 89.5408 100.937 89.513 100.962C89.4885 100.989 89.4588 101.01 89.4259 101.024C89.3929 101.039 89.3573 101.047 89.3213 101.047C89.2733 101.046 89.2267 101.031 89.1871 101.004C89.1475 100.977 89.1167 100.939 89.0985 100.895L88.6247 100.049L88.1566 100.895C88.1351 100.941 88.1004 100.98 88.0568 101.008C88.0132 101.035 87.9626 101.048 87.9113 101.047Z" fill="#353535"/>
<path d="M92.4855 101.047C92.4115 101.047 92.3406 101.017 92.2881 100.965C92.2444 100.921 92.2166 100.863 92.2089 100.802C92.2013 100.74 92.2142 100.677 92.2458 100.624L92.7506 99.8117L91.7636 99.8427C91.7259 99.8444 91.6883 99.8386 91.6529 99.8255C91.6176 99.8124 91.5852 99.7924 91.5577 99.7666C91.5117 99.7149 91.4863 99.6482 91.4863 99.579C91.4863 99.5099 91.5117 99.4432 91.5577 99.3915C91.585 99.3652 91.6172 99.3446 91.6526 99.3311C91.688 99.3175 91.7257 99.3112 91.7636 99.3125L92.7393 99.3492L92.2373 98.5399C92.21 98.4958 92.1954 98.4451 92.195 98.3932C92.1961 98.3188 92.2265 98.2479 92.2796 98.1958C92.3322 98.1437 92.4031 98.1144 92.477 98.114C92.5251 98.1144 92.5721 98.1283 92.6125 98.1543C92.6529 98.1802 92.6852 98.2171 92.7055 98.2607L93.1849 99.1321L93.6614 98.2663C93.684 98.2201 93.7189 98.181 93.7621 98.1532C93.8053 98.1253 93.8554 98.1099 93.9068 98.1084C93.9429 98.1082 93.9786 98.1157 94.0117 98.1302C94.0447 98.1448 94.0743 98.1662 94.0985 98.193C94.1503 98.2467 94.1787 98.3187 94.1775 98.3932C94.1765 98.4419 94.1629 98.4895 94.138 98.5314L93.6276 99.3492L94.6202 99.3125C94.6567 99.3089 94.6936 99.3131 94.7283 99.3249C94.763 99.3367 94.7948 99.3558 94.8216 99.3809C94.8483 99.406 94.8693 99.4366 94.8832 99.4705C94.8971 99.5045 94.9036 99.541 94.9022 99.5776C94.9028 99.6471 94.8777 99.7144 94.8317 99.7666C94.8052 99.7929 94.7733 99.8132 94.7384 99.8263C94.7034 99.8395 94.666 99.845 94.6287 99.8427L93.6332 99.8117L94.1267 100.615C94.1546 100.66 94.1692 100.712 94.169 100.765C94.1693 100.802 94.1617 100.839 94.1466 100.873C94.1315 100.907 94.1094 100.937 94.0816 100.962C94.0571 100.989 94.0274 101.01 93.9945 101.024C93.9615 101.039 93.9259 101.047 93.8899 101.047C93.8419 101.046 93.7952 101.031 93.7557 101.004C93.7161 100.977 93.6853 100.939 93.6671 100.895L93.1933 100.049L92.7252 100.895C92.7041 100.94 92.6703 100.979 92.6277 101.006C92.5852 101.033 92.5359 101.047 92.4855 101.047Z" fill="#353535"/>
<path d="M97.0606 101.047C96.9876 101.046 96.9178 101.016 96.866 100.965C96.8383 100.94 96.8161 100.91 96.801 100.876C96.786 100.842 96.7783 100.805 96.7786 100.768C96.7795 100.717 96.7941 100.667 96.8209 100.624L97.3257 99.8117L96.3387 99.8427C96.3024 99.8454 96.2659 99.8406 96.2316 99.8285C96.1972 99.8163 96.1658 99.7972 96.1393 99.7723C96.1127 99.7473 96.0917 99.7172 96.0775 99.6836C96.0633 99.6501 96.0562 99.614 96.0567 99.5776C96.0565 99.5431 96.0631 99.5089 96.0762 99.477C96.0892 99.445 96.1085 99.416 96.1328 99.3915C96.1588 99.3643 96.1904 99.3431 96.2255 99.3294C96.2606 99.3158 96.2983 99.31 96.3358 99.3125L97.3116 99.3492L96.8096 98.5399C96.7823 98.4958 96.7677 98.4451 96.7673 98.3932C96.7684 98.3188 96.7988 98.2479 96.8519 98.1958C96.9044 98.1437 96.9753 98.1144 97.0493 98.114C97.0974 98.1144 97.1443 98.1283 97.1848 98.1543C97.2252 98.1802 97.2574 98.2171 97.2777 98.2607L97.7571 99.1321L98.2365 98.2663C98.2589 98.2205 98.2933 98.1817 98.336 98.1539C98.3787 98.1261 98.4281 98.1104 98.479 98.1084C98.5152 98.1082 98.5509 98.1157 98.584 98.1302C98.617 98.1448 98.6466 98.1662 98.6708 98.193C98.7226 98.2467 98.7509 98.3187 98.7498 98.3932C98.7496 98.4417 98.737 98.4893 98.7131 98.5314L98.2027 99.3492L99.1925 99.3125C99.2301 99.31 99.2677 99.3158 99.3028 99.3294C99.3379 99.3431 99.3696 99.3643 99.3955 99.3915C99.4436 99.4414 99.47 99.5083 99.4689 99.5776C99.4687 99.6475 99.4426 99.7148 99.3955 99.7666C99.369 99.7929 99.3372 99.8132 99.3022 99.8263C99.2672 99.8395 99.2298 99.845 99.1925 99.8427L98.197 99.8117L98.6905 100.615C98.7184 100.66 98.733 100.712 98.7328 100.765C98.7318 100.839 98.7014 100.91 98.6482 100.962C98.5969 101.015 98.5271 101.045 98.4537 101.047C98.4057 101.046 98.359 101.031 98.3195 101.004C98.2799 100.977 98.2491 100.939 98.2309 100.895L97.7571 100.049L97.289 100.895C97.2687 100.939 97.2366 100.976 97.1963 101.003C97.156 101.03 97.109 101.045 97.0606 101.047Z" fill="#353535"/>
<g style="mix-blend-mode:multiply">
<path d="M111.287 43.9161H61.3672V47.0435H111.287V43.9161Z" fill="url(#paint2_linear_4_490)" fill-opacity="0.5"/>
</g>
<path d="M91.756 38.1544H80.899C80.703 38.1544 80.5151 38.0766 80.3766 37.938C80.238 37.7995 80.1602 37.6115 80.1602 37.4156C80.1602 37.2196 80.238 37.0317 80.3766 36.8932C80.5151 36.7546 80.703 36.6768 80.899 36.6768H91.756C91.9519 36.6768 92.1399 36.7546 92.2784 36.8932C92.417 37.0317 92.4948 37.2196 92.4948 37.4156C92.4948 37.6115 92.417 37.7995 92.2784 37.938C92.1399 38.0766 91.9519 38.1544 91.756 38.1544Z" fill="url(#paint3_linear_4_490)" stroke="#353535" stroke-width="1.33739" stroke-linecap="round" stroke-linejoin="round"/>
<path d="M89.2872 129.137C89.2878 128.551 89.1145 127.978 88.7894 127.491C88.4642 127.003 88.0018 126.623 87.4607 126.399C86.9195 126.174 86.3239 126.115 85.7493 126.23C85.1746 126.344 84.6468 126.626 84.2325 127.04C83.8182 127.454 83.5362 127.982 83.422 128.557C83.3078 129.132 83.3667 129.727 83.5912 130.268C83.8156 130.809 84.1956 131.272 84.6829 131.597C85.1703 131.922 85.7432 132.095 86.3291 132.095C87.1134 132.094 87.8654 131.782 88.42 131.228C88.9746 130.673 89.2865 129.921 89.2872 129.137Z" fill="#E16EF4"/>
<path d="M122.07 95.0885C122.07 95.0885 118.139 85.1 121.639 83.9128C125.282 82.6748 125.122 89.2708 124.981 92.4856C124.684 99.3551 123.926 100.633 123.359 98.9547L122.07 95.0885ZM120.889 102.88C121.969 104.29 122.273 102.829 120.325 96.2334C119.411 93.1314 117.426 86.8569 114.38 89.2116C111.456 91.4676 118.416 99.6456 118.416 99.6456L120.889 102.88ZM118.802 108.605C119.831 109.518 119.851 108.365 117.406 103.602C116.258 101.371 113.83 96.8566 111.842 99.09C109.933 101.245 116.439 106.481 116.439 106.481L118.802 108.605ZM116.546 115.412C117.575 116.329 117.595 115.172 115.15 110.412C114.002 108.182 111.574 103.664 109.586 105.9C107.688 108.06 114.174 113.297 114.174 113.297L116.546 115.412ZM123.06 101.555C121.413 102.198 122.722 102.897 129.6 102.877C132.826 102.877 139.413 102.731 138.009 99.1464C136.664 95.7032 126.867 100.088 126.867 100.088L123.06 101.555ZM121.185 106.134C119.442 106.436 120.587 107.384 127.332 108.732C130.494 109.366 136.977 110.536 136.314 106.758C135.68 103.114 125.206 105.466 125.206 105.466L121.185 106.134ZM119.087 111.726C117.603 111.941 118.551 112.767 124.222 114.064C126.881 114.673 132.338 115.815 131.864 112.592C131.413 109.49 122.502 111.244 122.502 111.244L119.087 111.726ZM117.493 116.907C116.041 117.276 117.07 117.998 122.851 118.686C125.559 119.008 131.106 119.566 130.296 116.41C129.515 113.382 120.841 116.064 120.841 116.064L117.493 116.907ZM125.993 95.9345C125.147 97.8295 126.904 97.5419 132.877 92.3305C135.674 89.8856 141.286 84.7701 136.841 82.2236C132.575 79.7759 127.987 91.586 127.987 91.586L125.993 95.9345ZM117.713 123.655C116.819 124.177 117.696 124.38 121.797 123.562C123.72 123.181 127.631 122.335 126.309 120.666C125.028 119.058 119.783 122.442 119.783 122.442L117.713 123.655Z" fill="url(#paint4_linear_4_490)"/>
<path opacity="0.3" d="M122.07 95.0885C122.07 95.0885 118.139 85.1 121.639 83.9128C125.282 82.6748 125.122 89.2708 124.981 92.4856C124.684 99.3551 123.926 100.633 123.359 98.9547L122.07 95.0885ZM120.889 102.88C121.969 104.29 122.273 102.829 120.325 96.2334C119.411 93.1314 117.426 86.8569 114.38 89.2116C111.456 91.4676 118.416 99.6456 118.416 99.6456L120.889 102.88ZM118.802 108.605C119.831 109.518 119.851 108.365 117.406 103.602C116.258 101.371 113.83 96.8566 111.842 99.09C109.933 101.245 116.439 106.481 116.439 106.481L118.802 108.605ZM116.546 115.412C117.575 116.329 117.595 115.172 115.15 110.412C114.002 108.182 111.574 103.664 109.586 105.9C107.688 108.06 114.174 113.297 114.174 113.297L116.546 115.412ZM123.06 101.555C121.413 102.198 122.722 102.897 129.6 102.877C132.826 102.877 139.413 102.731 138.009 99.1464C136.664 95.7032 126.867 100.088 126.867 100.088L123.06 101.555ZM121.185 106.134C119.442 106.436 120.587 107.384 127.332 108.732C130.494 109.366 136.977 110.536 136.314 106.758C135.68 103.114 125.206 105.466 125.206 105.466L121.185 106.134ZM119.087 111.726C117.603 111.941 118.551 112.767 124.222 114.064C126.881 114.673 132.338 115.815 131.864 112.592C131.413 109.49 122.502 111.244 122.502 111.244L119.087 111.726ZM117.493 116.907C116.041 117.276 117.07 117.998 122.851 118.686C125.559 119.008 131.106 119.566 130.296 116.41C129.515 113.382 120.841 116.064 120.841 116.064L117.493 116.907ZM125.993 95.9345C125.147 97.8295 126.904 97.5419 132.877 92.3305C135.674 89.8856 141.286 84.7701 136.841 82.2236C132.575 79.7759 127.987 91.586 127.987 91.586L125.993 95.9345ZM117.713 123.655C116.819 124.177 117.696 124.38 121.797 123.562C123.72 123.181 127.631 122.335 126.309 120.666C125.028 119.058 119.783 122.442 119.783 122.442L117.713 123.655Z" fill="white"/>
<path d="M123.804 99.7386L123.118 88.3374L123.804 99.7386ZM121.635 103.5L117.304 93.6954L121.635 103.5ZM132.814 100.649L122.433 102.138L132.814 100.649ZM119.39 108.785L113.77 101.574L119.39 108.785ZM120.377 106.574L128.121 106.963L120.377 106.574ZM118.544 112.104L124.466 112.691L118.544 112.104ZM117.115 115.618L114.173 111.193L117.115 115.618ZM116.776 117.18L123.739 117.245L116.776 117.18ZM115.366 130.243C115.413 130.239 115.456 130.217 115.487 130.182C115.518 130.146 115.533 130.1 115.53 130.054C115.087 123.404 117.659 112.513 121.785 103.574C124.421 97.8605 134.757 86.6313 134.867 86.5185C134.9 86.4852 134.919 86.44 134.919 86.393C134.919 86.3459 134.9 86.3008 134.867 86.2675C134.85 86.2511 134.831 86.2381 134.81 86.2292C134.788 86.2204 134.766 86.2158 134.743 86.2158C134.719 86.2158 134.697 86.2204 134.675 86.2292C134.654 86.2381 134.635 86.2511 134.618 86.2675C134.514 86.3803 124.137 97.6518 121.477 103.416C117.275 112.572 114.737 123.266 115.189 130.076C115.192 130.121 115.212 130.163 115.245 130.194C115.278 130.225 115.321 130.242 115.366 130.243ZM123.801 99.9135C123.848 99.9105 123.891 99.8894 123.922 99.8545C123.953 99.8197 123.97 99.774 123.967 99.7273L123.293 88.3204C123.292 88.2972 123.287 88.2744 123.277 88.2535C123.267 88.2325 123.253 88.2137 123.235 88.1982C123.218 88.1827 123.198 88.1708 123.176 88.1632C123.154 88.1557 123.13 88.1525 123.107 88.1541C123.061 88.157 123.017 88.1781 122.986 88.213C122.955 88.2478 122.939 88.2935 122.941 88.3402L123.626 99.7414C123.628 99.7863 123.648 99.8287 123.68 99.8596C123.713 99.8906 123.756 99.9079 123.801 99.9078V99.9135ZM121.697 103.661C121.739 103.642 121.773 103.607 121.789 103.564C121.806 103.521 121.806 103.473 121.787 103.43L117.453 93.6249C117.434 93.5822 117.4 93.5488 117.356 93.5318C117.313 93.5149 117.264 93.5159 117.222 93.5346C117.179 93.5533 117.146 93.5882 117.129 93.6316C117.112 93.6749 117.113 93.7232 117.132 93.7659L121.463 103.571C121.477 103.602 121.499 103.629 121.528 103.648C121.556 103.667 121.59 103.678 121.624 103.678C121.653 103.68 121.682 103.674 121.708 103.661H121.697ZM122.447 102.308L132.822 100.824C132.847 100.824 132.872 100.818 132.894 100.807C132.917 100.797 132.937 100.781 132.954 100.762C132.97 100.743 132.982 100.721 132.989 100.697C132.996 100.673 132.998 100.647 132.994 100.623C132.991 100.598 132.982 100.574 132.969 100.553C132.956 100.531 132.938 100.513 132.917 100.499C132.897 100.485 132.873 100.476 132.848 100.472C132.824 100.467 132.798 100.468 132.774 100.475L122.399 101.958C122.353 101.961 122.31 101.982 122.279 102.017C122.248 102.052 122.233 102.098 122.236 102.144C122.239 102.19 122.26 102.234 122.295 102.264C122.33 102.295 122.376 102.311 122.422 102.308H122.447ZM119.489 108.926C119.526 108.897 119.55 108.855 119.556 108.808C119.562 108.762 119.549 108.715 119.52 108.678L113.897 101.453C113.868 101.416 113.826 101.391 113.779 101.385C113.732 101.379 113.685 101.392 113.648 101.421C113.61 101.45 113.586 101.492 113.58 101.539C113.574 101.586 113.586 101.633 113.615 101.67L119.249 108.906C119.266 108.928 119.287 108.945 119.311 108.956C119.335 108.968 119.361 108.974 119.388 108.974C119.43 108.972 119.47 108.955 119.5 108.926H119.489ZM128.276 106.972C128.278 106.925 128.261 106.88 128.229 106.846C128.198 106.811 128.154 106.791 128.107 106.789L120.377 106.397C120.334 106.4 120.293 106.418 120.263 106.45C120.232 106.481 120.214 106.522 120.212 106.565C120.21 106.609 120.224 106.652 120.251 106.685C120.279 106.719 120.318 106.742 120.361 106.749L128.104 107.141C128.151 107.143 128.196 107.126 128.231 107.094C128.265 107.062 128.285 107.019 128.288 106.972H128.276ZM124.63 112.708C124.633 112.685 124.631 112.661 124.624 112.639C124.618 112.616 124.607 112.595 124.592 112.577C124.577 112.559 124.559 112.544 124.539 112.533C124.518 112.522 124.495 112.515 124.472 112.513L118.55 111.929C118.527 111.927 118.504 111.929 118.482 111.936C118.46 111.943 118.439 111.954 118.421 111.968C118.403 111.983 118.389 112.001 118.378 112.022C118.367 112.042 118.36 112.064 118.358 112.087C118.354 112.134 118.369 112.18 118.398 112.215C118.428 112.251 118.47 112.274 118.516 112.279L124.438 112.866H124.455C124.501 112.869 124.546 112.854 124.58 112.825C124.615 112.795 124.637 112.753 124.641 112.708H124.63ZM117.199 115.765C117.238 115.739 117.266 115.698 117.275 115.652C117.285 115.607 117.276 115.559 117.25 115.519L114.323 111.095C114.296 111.057 114.256 111.03 114.21 111.021C114.164 111.013 114.117 111.022 114.078 111.047C114.038 111.073 114.011 111.113 114.002 111.159C113.992 111.205 114.001 111.253 114.027 111.292L116.954 115.717C116.971 115.741 116.993 115.761 117.019 115.774C117.045 115.788 117.074 115.795 117.103 115.796C117.142 115.798 117.179 115.787 117.211 115.765H117.199ZM123.917 117.245C123.916 117.199 123.897 117.154 123.865 117.121C123.832 117.088 123.788 117.069 123.742 117.068L116.779 117.003C116.733 117.003 116.688 117.021 116.655 117.054C116.623 117.087 116.604 117.131 116.604 117.177C116.604 117.201 116.607 117.224 116.616 117.246C116.624 117.267 116.637 117.287 116.654 117.304C116.67 117.32 116.69 117.334 116.711 117.342C116.733 117.351 116.756 117.356 116.779 117.355L123.742 117.42C123.766 117.421 123.789 117.417 123.812 117.409C123.834 117.401 123.854 117.388 123.872 117.372C123.889 117.356 123.903 117.336 123.913 117.314C123.922 117.293 123.927 117.269 123.928 117.245H123.917ZM114.574 127.657C114.588 127.626 115.775 124.354 119.345 123.573C119.391 123.563 119.431 123.535 119.457 123.496C119.482 123.456 119.491 123.408 119.481 123.362C119.469 123.317 119.441 123.278 119.402 123.253C119.362 123.228 119.315 123.22 119.269 123.229C115.504 124.053 114.255 127.507 114.241 127.541C114.227 127.586 114.23 127.634 114.25 127.676C114.271 127.718 114.307 127.751 114.351 127.767H114.408C114.445 127.77 114.483 127.761 114.515 127.741C114.547 127.721 114.571 127.692 114.585 127.657H114.574ZM115.366 130.243C115.413 130.239 115.456 130.217 115.487 130.182C115.518 130.146 115.533 130.1 115.53 130.054C115.087 123.404 117.659 112.513 121.785 103.574C124.421 97.8605 134.757 86.6313 134.867 86.5185C134.9 86.4852 134.919 86.44 134.919 86.393C134.919 86.3459 134.9 86.3008 134.867 86.2675C134.85 86.2511 134.831 86.2381 134.81 86.2292C134.788 86.2204 134.766 86.2158 134.743 86.2158C134.719 86.2158 134.697 86.2204 134.675 86.2292C134.654 86.2381 134.635 86.2511 134.618 86.2675C134.514 86.3803 124.137 97.6518 121.477 103.416C117.275 112.572 114.737 123.266 115.189 130.076C115.192 130.121 115.212 130.163 115.245 130.194C115.278 130.225 115.321 130.242 115.366 130.243ZM123.801 99.9135C123.848 99.9105 123.891 99.8894 123.922 99.8545C123.953 99.8197 123.97 99.774 123.967 99.7273L123.293 88.3204C123.292 88.2972 123.287 88.2744 123.277 88.2535C123.267 88.2325 123.253 88.2137 123.235 88.1982C123.218 88.1827 123.198 88.1708 123.176 88.1632C123.154 88.1557 123.13 88.1525 123.107 88.1541C123.061 88.157 123.017 88.1781 122.986 88.213C122.955 88.2478 122.939 88.2935 122.941 88.3402L123.626 99.7414C123.628 99.7863 123.648 99.8287 123.68 99.8596C123.713 99.8906 123.756 99.9079 123.801 99.9078V99.9135ZM121.697 103.661C121.739 103.642 121.773 103.607 121.789 103.564C121.806 103.521 121.806 103.473 121.787 103.43L117.453 93.6249C117.434 93.5822 117.4 93.5488 117.356 93.5318C117.313 93.5149 117.264 93.5159 117.222 93.5346C117.179 93.5533 117.146 93.5882 117.129 93.6316C117.112 93.6749 117.113 93.7232 117.132 93.7659L121.463 103.571C121.477 103.602 121.499 103.629 121.528 103.648C121.556 103.667 121.59 103.678 121.624 103.678C121.653 103.68 121.682 103.674 121.708 103.661H121.697ZM122.447 102.308L132.822 100.824C132.847 100.824 132.872 100.818 132.894 100.807C132.917 100.797 132.937 100.781 132.954 100.762C132.97 100.743 132.982 100.721 132.989 100.697C132.996 100.673 132.998 100.647 132.994 100.623C132.991 100.598 132.982 100.574 132.969 100.553C132.956 100.531 132.938 100.513 132.917 100.499C132.897 100.485 132.873 100.476 132.848 100.472C132.824 100.467 132.798 100.468 132.774 100.475L122.399 101.958C122.353 101.961 122.31 101.982 122.279 102.017C122.248 102.052 122.233 102.098 122.236 102.144C122.239 102.19 122.26 102.234 122.295 102.264C122.33 102.295 122.376 102.311 122.422 102.308H122.447ZM119.489 108.926C119.526 108.897 119.55 108.855 119.556 108.808C119.562 108.762 119.549 108.715 119.52 108.678L113.897 101.453C113.883 101.435 113.865 101.419 113.845 101.407C113.825 101.396 113.802 101.388 113.779 101.385C113.756 101.382 113.732 101.384 113.71 101.39C113.687 101.396 113.666 101.406 113.648 101.421C113.629 101.435 113.613 101.453 113.602 101.473C113.59 101.493 113.583 101.516 113.58 101.539C113.577 101.562 113.578 101.586 113.584 101.608C113.59 101.631 113.601 101.652 113.615 101.67L119.249 108.906C119.266 108.928 119.287 108.945 119.311 108.956C119.335 108.968 119.361 108.974 119.388 108.974C119.43 108.972 119.47 108.955 119.5 108.926H119.489ZM128.276 106.972C128.278 106.925 128.261 106.88 128.229 106.846C128.198 106.811 128.154 106.791 128.107 106.789L120.377 106.397C120.334 106.4 120.293 106.418 120.263 106.45C120.232 106.481 120.214 106.522 120.212 106.565C120.21 106.609 120.224 106.652 120.251 106.685C120.279 106.719 120.318 106.742 120.361 106.749L128.104 107.141C128.151 107.143 128.196 107.126 128.231 107.094C128.265 107.062 128.285 107.019 128.288 106.972H128.276ZM124.63 112.708C124.633 112.685 124.631 112.661 124.624 112.639C124.618 112.616 124.607 112.595 124.592 112.577C124.577 112.559 124.559 112.544 124.539 112.533C124.518 112.522 124.495 112.515 124.472 112.513L118.55 111.929C118.527 111.927 118.504 111.929 118.482 111.936C118.46 111.943 118.439 111.954 118.421 111.968C118.403 111.983 118.389 112.001 118.378 112.022C118.367 112.042 118.36 112.064 118.358 112.087C118.354 112.134 118.369 112.18 118.398 112.215C118.428 112.251 118.47 112.274 118.516 112.279L124.438 112.866H124.455C124.501 112.869 124.546 112.854 124.58 112.825C124.615 112.795 124.637 112.753 124.641 112.708H124.63ZM117.199 115.765C117.238 115.739 117.266 115.698 117.275 115.652C117.285 115.607 117.276 115.559 117.25 115.519L114.323 111.095C114.296 111.057 114.256 111.03 114.21 111.021C114.164 111.013 114.117 111.022 114.078 111.047C114.038 111.073 114.011 111.113 114.002 111.159C113.992 111.205 114.001 111.253 114.027 111.292L116.954 115.717C116.971 115.741 116.993 115.761 117.019 115.774C117.045 115.788 117.074 115.795 117.103 115.796C117.142 115.798 117.179 115.787 117.211 115.765H117.199ZM123.917 117.245C123.916 117.199 123.897 117.154 123.865 117.121C123.832 117.088 123.788 117.069 123.742 117.068L116.779 117.003C116.733 117.003 116.688 117.021 116.655 117.054C116.623 117.087 116.604 117.131 116.604 117.177C116.604 117.201 116.607 117.224 116.616 117.246C116.624 117.267 116.637 117.287 116.654 117.304C116.67 117.32 116.69 117.334 116.711 117.342C116.733 117.351 116.756 117.356 116.779 117.355L123.742 117.42C123.766 117.421 123.789 117.417 123.812 117.409C123.834 117.401 123.854 117.388 123.872 117.372C123.889 117.356 123.903 117.336 123.913 117.314C123.922 117.293 123.927 117.269 123.928 117.245H123.917ZM114.574 127.657C114.588 127.626 115.775 124.354 119.345 123.573C119.391 123.563 119.431 123.535 119.457 123.496C119.482 123.456 119.491 123.408 119.481 123.362C119.469 123.317 119.441 123.278 119.402 123.253C119.362 123.228 119.315 123.22 119.269 123.229C115.504 124.053 114.255 127.507 114.241 127.541C114.227 127.586 114.23 127.634 114.25 127.676C114.271 127.718 114.307 127.751 114.351 127.767H114.408C114.445 127.77 114.483 127.761 114.515 127.741C114.547 127.721 114.571 127.692 114.585 127.657H114.574Z" fill="url(#paint5_linear_4_490)"/>
<path opacity="0.2" d="M123.804 99.7386L123.118 88.3374L123.804 99.7386ZM121.635 103.5L117.304 93.6954L121.635 103.5ZM132.814 100.649L122.433 102.138L132.814 100.649ZM119.39 108.785L113.77 101.574L119.39 108.785ZM120.377 106.574L128.121 106.963L120.377 106.574ZM118.544 112.104L124.466 112.691L118.544 112.104ZM117.115 115.618L114.173 111.193L117.115 115.618ZM116.776 117.18L123.739 117.245L116.776 117.18ZM115.366 130.243C115.413 130.239 115.456 130.217 115.487 130.182C115.518 130.146 115.533 130.1 115.53 130.054C115.087 123.404 117.659 112.513 121.785 103.574C124.421 97.8605 134.757 86.6313 134.867 86.5185C134.9 86.4852 134.919 86.44 134.919 86.393C134.919 86.3459 134.9 86.3008 134.867 86.2675C134.85 86.2511 134.831 86.2381 134.81 86.2292C134.788 86.2204 134.766 86.2158 134.743 86.2158C134.719 86.2158 134.697 86.2204 134.675 86.2292C134.654 86.2381 134.635 86.2511 134.618 86.2675C134.514 86.3803 124.137 97.6518 121.477 103.416C117.275 112.572 114.737 123.266 115.189 130.076C115.192 130.121 115.212 130.163 115.245 130.194C115.278 130.225 115.321 130.242 115.366 130.243ZM123.801 99.9135C123.848 99.9105 123.891 99.8894 123.922 99.8545C123.953 99.8197 123.97 99.774 123.967 99.7273L123.293 88.3204C123.292 88.2972 123.287 88.2744 123.277 88.2535C123.267 88.2325 123.253 88.2137 123.235 88.1982C123.218 88.1827 123.198 88.1708 123.176 88.1632C123.154 88.1557 123.13 88.1525 123.107 88.1541C123.061 88.157 123.017 88.1781 122.986 88.213C122.955 88.2478 122.939 88.2935 122.941 88.3402L123.626 99.7414C123.628 99.7863 123.648 99.8287 123.68 99.8596C123.713 99.8906 123.756 99.9079 123.801 99.9078V99.9135ZM121.697 103.661C121.739 103.642 121.773 103.607 121.789 103.564C121.806 103.521 121.806 103.473 121.787 103.43L117.453 93.6249C117.434 93.5822 117.4 93.5488 117.356 93.5318C117.313 93.5149 117.264 93.5159 117.222 93.5346C117.179 93.5533 117.146 93.5882 117.129 93.6316C117.112 93.6749 117.113 93.7232 117.132 93.7659L121.463 103.571C121.477 103.602 121.499 103.629 121.528 103.648C121.556 103.667 121.59 103.678 121.624 103.678C121.653 103.68 121.682 103.674 121.708 103.661H121.697ZM122.447 102.308L132.822 100.824C132.847 100.824 132.872 100.818 132.894 100.807C132.917 100.797 132.937 100.781 132.954 100.762C132.97 100.743 132.982 100.721 132.989 100.697C132.996 100.673 132.998 100.647 132.994 100.623C132.991 100.598 132.982 100.574 132.969 100.553C132.956 100.531 132.938 100.513 132.917 100.499C132.897 100.485 132.873 100.476 132.848 100.472C132.824 100.467 132.798 100.468 132.774 100.475L122.399 101.958C122.353 101.961 122.31 101.982 122.279 102.017C122.248 102.052 122.233 102.098 122.236 102.144C122.239 102.19 122.26 102.234 122.295 102.264C122.33 102.295 122.376 102.311 122.422 102.308H122.447ZM119.489 108.926C119.526 108.897 119.55 108.855 119.556 108.808C119.562 108.762 119.549 108.715 119.52 108.678L113.897 101.453C113.868 101.416 113.826 101.391 113.779 101.385C113.732 101.379 113.685 101.392 113.648 101.421C113.61 101.45 113.586 101.492 113.58 101.539C113.574 101.586 113.586 101.633 113.615 101.67L119.249 108.906C119.266 108.928 119.287 108.945 119.311 108.956C119.335 108.968 119.361 108.974 119.388 108.974C119.43 108.972 119.47 108.955 119.5 108.926H119.489ZM128.276 106.972C128.278 106.925 128.261 106.88 128.229 106.846C128.198 106.811 128.154 106.791 128.107 106.789L120.377 106.397C120.334 106.4 120.293 106.418 120.263 106.45C120.232 106.481 120.214 106.522 120.212 106.565C120.21 106.609 120.224 106.652 120.251 106.685C120.279 106.719 120.318 106.742 120.361 106.749L128.104 107.141C128.151 107.143 128.196 107.126 128.231 107.094C128.265 107.062 128.285 107.019 128.288 106.972H128.276ZM124.63 112.708C124.633 112.685 124.631 112.661 124.624 112.639C124.618 112.616 124.607 112.595 124.592 112.577C124.577 112.559 124.559 112.544 124.539 112.533C124.518 112.522 124.495 112.515 124.472 112.513L118.55 111.929C118.527 111.927 118.504 111.929 118.482 111.936C118.46 111.943 118.439 111.954 118.421 111.968C118.403 111.983 118.389 112.001 118.378 112.022C118.367 112.042 118.36 112.064 118.358 112.087C118.354 112.134 118.369 112.18 118.398 112.215C118.428 112.251 118.47 112.274 118.516 112.279L124.438 112.866H124.455C124.501 112.869 124.546 112.854 124.58 112.825C124.615 112.795 124.637 112.753 124.641 112.708H124.63ZM117.199 115.765C117.238 115.739 117.266 115.698 117.275 115.652C117.285 115.607 117.276 115.559 117.25 115.519L114.323 111.095C114.296 111.057 114.256 111.03 114.21 111.021C114.164 111.013 114.117 111.022 114.078 111.047C114.038 111.073 114.011 111.113 114.002 111.159C113.992 111.205 114.001 111.253 114.027 111.292L116.954 115.717C116.971 115.741 116.993 115.761 117.019 115.774C117.045 115.788 117.074 115.795 117.103 115.796C117.142 115.798 117.179 115.787 117.211 115.765H117.199ZM123.917 117.245C123.916 117.199 123.897 117.154 123.865 117.121C123.832 117.088 123.788 117.069 123.742 117.068L116.779 117.003C116.733 117.003 116.688 117.021 116.655 117.054C116.623 117.087 116.604 117.131 116.604 117.177C116.604 117.201 116.607 117.224 116.616 117.246C116.624 117.267 116.637 117.287 116.654 117.304C116.67 117.32 116.69 117.334 116.711 117.342C116.733 117.351 116.756 117.356 116.779 117.355L123.742 117.42C123.766 117.421 123.789 117.417 123.812 117.409C123.834 117.401 123.854 117.388 123.872 117.372C123.889 117.356 123.903 117.336 123.913 117.314C123.922 117.293 123.927 117.269 123.928 117.245H123.917ZM114.574 127.657C114.588 127.626 115.775 124.354 119.345 123.573C119.391 123.563 119.431 123.535 119.457 123.496C119.482 123.456 119.491 123.408 119.481 123.362C119.469 123.317 119.441 123.278 119.402 123.253C119.362 123.228 119.315 123.22 119.269 123.229C115.504 124.053 114.255 127.507 114.241 127.541C114.227 127.586 114.23 127.634 114.25 127.676C114.271 127.718 114.307 127.751 114.351 127.767H114.408C114.445 127.77 114.483 127.761 114.515 127.741C114.547 127.721 114.571 127.692 114.585 127.657H114.574ZM115.366 130.243C115.413 130.239 115.456 130.217 115.487 130.182C115.518 130.146 115.533 130.1 115.53 130.054C115.087 123.404 117.659 112.513 121.785 103.574C124.421 97.8605 134.757 86.6313 134.867 86.5185C134.9 86.4852 134.919 86.44 134.919 86.393C134.919 86.3459 134.9 86.3008 134.867 86.2675C134.85 86.2511 134.831 86.2381 134.81 86.2292C134.788 86.2204 134.766 86.2158 134.743 86.2158C134.719 86.2158 134.697 86.2204 134.675 86.2292C134.654 86.2381 134.635 86.2511 134.618 86.2675C134.514 86.3803 124.137 97.6518 121.477 103.416C117.275 112.572 114.737 123.266 115.189 130.076C115.192 130.121 115.212 130.163 115.245 130.194C115.278 130.225 115.321 130.242 115.366 130.243ZM123.801 99.9135C123.848 99.9105 123.891 99.8894 123.922 99.8545C123.953 99.8197 123.97 99.774 123.967 99.7273L123.293 88.3204C123.292 88.2972 123.287 88.2744 123.277 88.2535C123.267 88.2325 123.253 88.2137 123.235 88.1982C123.218 88.1827 123.198 88.1708 123.176 88.1632C123.154 88.1557 123.13 88.1525 123.107 88.1541C123.061 88.157 123.017 88.1781 122.986 88.213C122.955 88.2478 122.939 88.2935 122.941 88.3402L123.626 99.7414C123.628 99.7863 123.648 99.8287 123.68 99.8596C123.713 99.8906 123.756 99.9079 123.801 99.9078V99.9135ZM121.697 103.661C121.739 103.642 121.773 103.607 121.789 103.564C121.806 103.521 121.806 103.473 121.787 103.43L117.453 93.6249C117.434 93.5822 117.4 93.5488 117.356 93.5318C117.313 93.5149 117.264 93.5159 117.222 93.5346C117.179 93.5533 117.146 93.5882 117.129 93.6316C117.112 93.6749 117.113 93.7232 117.132 93.7659L121.463 103.571C121.477 103.602 121.499 103.629 121.528 103.648C121.556 103.667 121.59 103.678 121.624 103.678C121.653 103.68 121.682 103.674 121.708 103.661H121.697ZM122.447 102.308L132.822 100.824C132.847 100.824 132.872 100.818 132.894 100.807C132.917 100.797 132.937 100.781 132.954 100.762C132.97 100.743 132.982 100.721 132.989 100.697C132.996 100.673 132.998 100.647 132.994 100.623C132.991 100.598 132.982 100.574 132.969 100.553C132.956 100.531 132.938 100.513 132.917 100.499C132.897 100.485 132.873 100.476 132.848 100.472C132.824 100.467 132.798 100.468 132.774 100.475L122.399 101.958C122.353 101.961 122.31 101.982 122.279 102.017C122.248 102.052 122.233 102.098 122.236 102.144C122.239 102.19 122.26 102.234 122.295 102.264C122.33 102.295 122.376 102.311 122.422 102.308H122.447ZM119.489 108.926C119.526 108.897 119.55 108.855 119.556 108.808C119.562 108.762 119.549 108.715 119.52 108.678L113.897 101.453C113.883 101.435 113.865 101.419 113.845 101.407C113.825 101.396 113.802 101.388 113.779 101.385C113.756 101.382 113.732 101.384 113.71 101.39C113.687 101.396 113.666 101.406 113.648 101.421C113.629 101.435 113.613 101.453 113.602 101.473C113.59 101.493 113.583 101.516 113.58 101.539C113.577 101.562 113.578 101.586 113.584 101.608C113.59 101.631 113.601 101.652 113.615 101.67L119.249 108.906C119.266 108.928 119.287 108.945 119.311 108.956C119.335 108.968 119.361 108.974 119.388 108.974C119.43 108.972 119.47 108.955 119.5 108.926H119.489ZM128.276 106.972C128.278 106.925 128.261 106.88 128.229 106.846C128.198 106.811 128.154 106.791 128.107 106.789L120.377 106.397C120.334 106.4 120.293 106.418 120.263 106.45C120.232 106.481 120.214 106.522 120.212 106.565C120.21 106.609 120.224 106.652 120.251 106.685C120.279 106.719 120.318 106.742 120.361 106.749L128.104 107.141C128.151 107.143 128.196 107.126 128.231 107.094C128.265 107.062 128.285 107.019 128.288 106.972H128.276ZM124.63 112.708C124.633 112.685 124.631 112.661 124.624 112.639C124.618 112.616 124.607 112.595 124.592 112.577C124.577 112.559 124.559 112.544 124.539 112.533C124.518 112.522 124.495 112.515 124.472 112.513L118.55 111.929C118.527 111.927 118.504 111.929 118.482 111.936C118.46 111.943 118.439 111.954 118.421 111.968C118.403 111.983 118.389 112.001 118.378 112.022C118.367 112.042 118.36 112.064 118.358 112.087C118.354 112.134 118.369 112.18 118.398 112.215C118.428 112.251 118.47 112.274 118.516 112.279L124.438 112.866H124.455C124.501 112.869 124.546 112.854 124.58 112.825C124.615 112.795 124.637 112.753 124.641 112.708H124.63ZM117.199 115.765C117.238 115.739 117.266 115.698 117.275 115.652C117.285 115.607 117.276 115.559 117.25 115.519L114.323 111.095C114.296 111.057 114.256 111.03 114.21 111.021C114.164 111.013 114.117 111.022 114.078 111.047C114.038 111.073 114.011 111.113 114.002 111.159C113.992 111.205 114.001 111.253 114.027 111.292L116.954 115.717C116.971 115.741 116.993 115.761 117.019 115.774C117.045 115.788 117.074 115.795 117.103 115.796C117.142 115.798 117.179 115.787 117.211 115.765H117.199ZM123.917 117.245C123.916 117.199 123.897 117.154 123.865 117.121C123.832 117.088 123.788 117.069 123.742 117.068L116.779 117.003C116.733 117.003 116.688 117.021 116.655 117.054C116.623 117.087 116.604 117.131 116.604 117.177C116.604 117.201 116.607 117.224 116.616 117.246C116.624 117.267 116.637 117.287 116.654 117.304C116.67 117.32 116.69 117.334 116.711 117.342C116.733 117.351 116.756 117.356 116.779 117.355L123.742 117.42C123.766 117.421 123.789 117.417 123.812 117.409C123.834 117.401 123.854 117.388 123.872 117.372C123.889 117.356 123.903 117.336 123.913 117.314C123.922 117.293 123.927 117.269 123.928 117.245H123.917ZM114.574 127.657C114.588 127.626 115.775 124.354 119.345 123.573C119.391 123.563 119.431 123.535 119.457 123.496C119.482 123.456 119.491 123.408 119.481 123.362C119.469 123.317 119.441 123.278 119.402 123.253C119.362 123.228 119.315 123.22 119.269 123.229C115.504 124.053 114.255 127.507 114.241 127.541C114.227 127.586 114.23 127.634 114.25 127.676C114.271 127.718 114.307 127.751 114.351 127.767H114.408C114.445 127.77 114.483 127.761 114.515 127.741C114.547 127.721 114.571 127.692 114.585 127.657H114.574Z" fill="#353535"/>
<path d="M119.972 125.271H111.988V126.923H112.685L114.126 135.939H117.834L119.275 126.923H119.972V125.271Z" fill="url(#paint6_linear_4_490)"/>
<path opacity="0.3" d="M119.972 125.271H111.988V126.923H112.685L114.126 135.939H117.834L119.275 126.923H119.972V125.271Z" fill="white"/>
<path d="M48.0964 75.2999L38.8101 72.2684L37.9839 70.0857L36.0973 70.0265L32.6738 69.3779L33.0855 70.0857L37.3945 73.2131L38.4576 73.7433L48.1697 78.8165L48.0964 75.2999Z" fill="white" stroke="#353535" stroke-width="0.5" stroke-miterlimit="10"/>
<path d="M37.9837 70.0858L37.0982 69.5557L35.3301 70.2043L35.6234 70.5568L37.9837 70.0858Z" fill="white" stroke="#353535" stroke-width="0.5" stroke-linejoin="round"/>
<path d="M48.0964 75.2999L38.8101 72.2684L37.9839 70.0857L36.0973 70.0265L32.6738 69.3779L33.0855 70.0857L37.3945 73.2131L38.4576 73.7433L48.1697 78.8165L48.0964 75.2999Z" fill="white"/>
<mask id="mask0_4_490" style="mask-type:luminance" maskUnits="userSpaceOnUse" x="32" y="69" width="17" height="10">
<path d="M48.0964 75.2999L38.8101 72.2684L37.9839 70.0857L36.0973 70.0265L32.6738 69.3779L33.0855 70.0857L37.3945 73.2131L38.4576 73.7433L48.1697 78.8165L48.0964 75.2999Z" fill="white"/>
</mask>
<g mask="url(#mask0_4_490)">
<path opacity="0.5" d="M48.0964 75.2999L38.8101 72.2684L37.9839 70.0857L36.0973 70.0265L32.6738 69.3779L33.0855 70.0857L37.3945 73.2131L38.4576 73.7433L48.1697 78.8165L48.0964 75.2999Z" fill="#AC6DEC" stroke="#353535" stroke-width="0.5" stroke-miterlimit="10"/>
</g>
<path d="M48.0964 75.2999L38.8101 72.2684L37.9839 70.0857L36.0973 70.0265L32.6738 69.3779L33.0855 70.0857L37.3945 73.2131L38.4576 73.7433L48.1697 78.8165L48.0964 75.2999Z" stroke="#353535" stroke-width="0.5" stroke-miterlimit="10"/>
<path d="M37.9837 70.0858L37.0982 69.5557L35.3301 70.2043L35.6234 70.5568L37.9837 70.0858Z" fill="white"/>
<mask id="mask1_4_490" style="mask-type:luminance" maskUnits="userSpaceOnUse" x="35" y="69" width="3" height="2">
<path d="M37.9837 70.0858L37.0982 69.5557L35.3301 70.2043L35.6234 70.5568L37.9837 70.0858Z" fill="white"/>
</mask>
<g mask="url(#mask1_4_490)">
<path opacity="0.5" d="M37.9837 70.0858L37.0982 69.5557L35.3301 70.2043L35.6234 70.5568L37.9837 70.0858Z" fill="#AC6DEC" stroke="#353535" stroke-width="0.5" stroke-linejoin="round"/>
</g>
<path d="M37.9837 70.0858L37.0982 69.5557L35.3301 70.2043L35.6234 70.5568L37.9837 70.0858Z" stroke="#353535" stroke-width="0.5" stroke-linejoin="round"/>
<path d="M50.0666 55.625C50.0666 55.625 49.9228 56.894 50.2809 57.709C50.6391 58.5239 52.6272 61.2847 52.6272 61.2847L48.916 64.2598C48.916 64.2598 47.3763 61.1578 47.083 60.6559C46.7898 60.1539 46.4373 57.9938 47.3932 56.4456C48.3492 54.8974 49.7254 54.4801 50.0666 55.625Z" fill="white"/>
<mask id="mask2_4_490" style="mask-type:luminance" maskUnits="userSpaceOnUse" x="46" y="54" width="7" height="11">
<path d="M50.0666 55.625C50.0666 55.625 49.9228 56.894 50.2809 57.709C50.6391 58.5239 52.6272 61.2847 52.6272 61.2847L48.916 64.2598C48.916 64.2598 47.3763 61.1578 47.083 60.6559C46.7898 60.1539 46.4373 57.9938 47.3932 56.4456C48.3492 54.8974 49.7254 54.4801 50.0666 55.625Z" fill="white"/>
</mask>
<g mask="url(#mask2_4_490)">
<g style="mix-blend-mode:multiply" opacity="0.5">
<path d="M48.1607 59.7031L49.7709 63.042L48.9136 64.2631L47.2949 61.3726L48.1607 59.7031Z" fill="#AC6DEC"/>
</g>
</g>
<path d="M50.0666 55.625C50.0666 55.625 49.9228 56.894 50.2809 57.709C50.6391 58.5239 52.6272 61.2847 52.6272 61.2847L48.916 64.2598C48.916 64.2598 47.3763 61.1578 47.083 60.6559C46.7898 60.1539 46.4373 57.9938 47.3932 56.4456C48.3492 54.8974 49.7254 54.4801 50.0666 55.625Z" stroke="#353535" stroke-width="0.5" stroke-miterlimit="10"/>
<path d="M51.2168 53.3009C50.9884 51.8909 49.3725 49.023 46.8091 49.133C45.1453 49.2063 44.367 49.5419 43.6451 49.9508C43.0566 50.2975 42.5081 50.7079 42.0095 51.1746C40.7574 52.6777 40.3175 53.0894 40.56 54.24C40.5401 54.6989 40.612 55.1572 40.7715 55.5879C41.155 56.6116 41.4173 57.2799 41.7501 57.7678C41.6485 58.2444 41.3835 59.5021 41.3694 59.7897C41.3553 60.0774 42.2154 59.8772 42.6496 59.7672C43.4562 61.572 44.9338 62.8241 45.3935 62.9679C46.1944 63.2189 47.4606 61.9019 48.1317 60.8811C48.8029 59.8602 48.2953 58.7125 48.2981 58.2557C48.3009 57.7988 49.8068 56.7949 50.3652 56.4762C50.9235 56.1576 51.4424 54.7081 51.2168 53.3009Z" fill="white"/>
<mask id="mask3_4_490" style="mask-type:luminance" maskUnits="userSpaceOnUse" x="40" y="49" width="12" height="14">
<path d="M51.2168 53.3009C50.9884 51.8909 49.3725 49.023 46.8091 49.133C45.1453 49.2063 44.367 49.5419 43.6451 49.9508C43.0566 50.2975 42.5081 50.7079 42.0095 51.1746C40.7574 52.6777 40.3175 53.0894 40.56 54.24C40.5401 54.6989 40.612 55.1572 40.7715 55.5879C41.155 56.6116 41.4173 57.2799 41.7501 57.7678C41.6485 58.2444 41.3835 59.5021 41.3694 59.7897C41.3553 60.0774 42.2154 59.8772 42.6496 59.7672C43.4562 61.572 44.9338 62.8241 45.3935 62.9679C46.1944 63.2189 47.4606 61.9019 48.1317 60.8811C48.8029 59.8602 48.2953 58.7125 48.2981 58.2557C48.3009 57.7988 49.8068 56.7949 50.3652 56.4762C50.9235 56.1576 51.4424 54.7081 51.2168 53.3009Z" fill="white"/>
</mask>
<g mask="url(#mask3_4_490)">
<g style="mix-blend-mode:multiply" opacity="0.5">
<path d="M40.5717 54.2396C40.5518 54.6985 40.6237 55.1568 40.7832 55.5876C41.1667 56.6112 41.4289 57.2796 41.7617 57.7674C41.6602 58.244 41.3951 59.5017 41.381 59.7894C41.3669 60.077 42.227 59.8768 42.6613 59.7668C43.4678 61.5716 44.9455 62.8237 45.4051 62.9675C46.206 63.2185 47.4722 61.9016 48.1434 60.8807C48.311 60.6259 48.4199 60.3369 48.462 60.0347C48.4254 59.9022 48.4 59.8204 48.4 59.8204C48.4 59.8204 48.0221 61.2727 47.272 61.0838C46.5219 60.8948 45.3741 59.3918 44.734 58.8729C44.0938 58.354 44.3561 57.6716 44.2292 56.8989C44.1023 56.1262 42.2073 55.4466 42.0804 55.0038C41.9535 54.5611 42.3962 52.7281 42.3962 52.7281C42.3962 52.7281 43.1153 51.7693 42.9602 52.1641C42.8506 52.5064 42.8108 52.8673 42.8433 53.2253C42.8757 53.5832 42.9797 53.9311 43.1491 54.2481C43.268 54.4982 43.4566 54.7087 43.6922 54.8543C43.9278 54.9999 44.2005 55.0743 44.4774 55.0687L45.1654 51.6593L43.7131 50.458L42.0211 51.163C40.7578 52.6774 40.3263 53.0891 40.5717 54.2396Z" fill="#AC6DEC"/>
</g>
</g>
<path d="M51.2168 53.3009C50.9884 51.8909 49.3725 49.023 46.8091 49.133C45.1453 49.2063 44.367 49.5419 43.6451 49.9508C43.0566 50.2975 42.5081 50.7079 42.0095 51.1746C40.7574 52.6777 40.3175 53.0894 40.56 54.24C40.5401 54.6989 40.612 55.1572 40.7715 55.5879C41.155 56.6116 41.4173 57.2799 41.7501 57.7678C41.6485 58.2444 41.3835 59.5021 41.3694 59.7897C41.3553 60.0774 42.2154 59.8772 42.6496 59.7672C43.4562 61.572 44.9338 62.8241 45.3935 62.9679C46.1944 63.2189 47.4606 61.9019 48.1317 60.8811C48.8029 59.8602 48.2953 58.7125 48.2981 58.2557C48.3009 57.7988 49.8068 56.7949 50.3652 56.4762C50.9235 56.1576 51.4424 54.7081 51.2168 53.3009Z" stroke="#353535" stroke-width="0.5" stroke-miterlimit="10"/>
<path d="M42.1016 56.916L42.3836 57.7225C42.3836 57.7225 42.9899 57.9228 43.7287 57.1162" stroke="#353535" stroke-width="0.5" stroke-miterlimit="10" stroke-linecap="round"/>
<path d="M44.1836 60.6834C44.1836 60.6834 44.8548 60.6157 45.1255 59.6738" stroke="#353535" stroke-width="0.5" stroke-miterlimit="10" stroke-linecap="round"/>
<path d="M41.6289 56.242C41.6289 56.242 41.8291 55.6357 43.0389 55.6357" stroke="#353535" stroke-width="0.5" stroke-miterlimit="10" stroke-linecap="round"/>
<path d="M47.8306 48.0107C46.9515 47.8843 46.065 47.8165 45.177 47.8077C45.177 47.8077 42.5205 46.2764 39.9684 47.9092C37.4163 49.542 38.643 52.4015 38.643 53.1149C38.643 53.8284 37.8252 53.8312 38.3356 54.7505C38.8461 55.6699 40.5719 55.1623 40.5719 55.1623C40.5901 54.8155 40.6818 54.4766 40.8407 54.1679C40.9997 53.8592 41.2224 53.5878 41.494 53.3716C42.4134 52.6581 43.1466 52.503 43.4511 52.7089C43.4511 52.7089 43.2481 54.2401 43.5526 54.8521C43.5526 54.8521 44.5735 55.3625 44.8809 55.3625C45.1882 55.3625 44.6806 55.7939 45.6987 56.1775C45.8841 56.2441 46.0825 56.2668 46.2782 56.2438C46.474 56.2208 46.6617 56.1527 46.8267 56.0449C46.9761 55.4245 47.3032 54.4911 47.9124 54.7082C48.8063 55.0269 49.6213 57.2265 48.4115 57.9766C49.8666 58.2417 51.6291 55.667 51.7335 53.3208C51.8378 50.9746 49.3421 48.2758 47.8306 48.0107Z" fill="#353535"/>
<path d="M54.7462 130.849C54.7462 130.849 55.8093 132.501 55.6909 133.564L55.5752 134.627C55.5752 134.627 51.6752 135.696 50.8489 135.696C50.0227 135.696 45.6488 135.282 45.6488 135.282L45.4599 134.532C45.4467 134.476 45.4529 134.418 45.4776 134.367C45.5022 134.315 45.5438 134.274 45.5953 134.25L49.4953 132.431L50.7248 131.086L54.7462 130.849Z" fill="white" stroke="#353535" stroke-width="0.5" stroke-miterlimit="10"/>
<path d="M51.4394 134.864C52.4969 134.946 54.5047 134.3 55.6694 133.889L55.5876 134.628C55.5876 134.628 51.6734 135.696 50.8472 135.696C50.0209 135.696 45.6471 135.282 45.6471 135.282L45.5117 134.746C46.2111 134.749 50.0406 134.757 51.4394 134.864Z" fill="#AC6DEC" stroke="#353535" stroke-width="0.5" stroke-miterlimit="10"/>
<path d="M49.4997 132.43L43.823 134.9C43.823 134.9 43.338 136.116 43.823 136.358C44.308 136.601 54.883 136.358 54.883 136.358C54.883 136.358 55.6134 134.438 54.46 133.149C53.3067 131.86 49.4997 132.43 49.4997 132.43Z" fill="white" stroke="#353535" stroke-width="0.5" stroke-miterlimit="10"/>
<path d="M54.8835 136.358C54.8835 136.358 44.3085 136.601 43.8234 136.358C43.5894 136.24 43.5809 135.899 43.6345 135.574H55.0696C55.0322 135.841 54.9699 136.103 54.8835 136.358Z" fill="#AC6DEC" stroke="#353535" stroke-width="0.5" stroke-miterlimit="10"/>
<path d="M46.8158 89.5073C46.8158 89.5073 45.3325 96.0807 44.7713 100.192C44.2101 104.304 43.8802 112.541 43.9986 113.486C44.117 114.43 50.0221 130.259 50.0221 130.259L50.6115 131.669L54.7456 130.843C54.7456 130.843 52.8562 124.819 52.1484 121.511C51.4406 118.204 49.8924 112.769 49.8924 111.825C49.8924 110.88 53.5584 92.8377 53.8207 91.6533C54.0829 90.4689 55.273 88.65 55.273 88.65L47.3572 88.4893L46.8158 89.5073Z" fill="#AC6DEC" stroke="#353535" stroke-width="0.5" stroke-miterlimit="10"/>
<path d="M46.8158 89.5073C46.8158 89.5073 45.9472 95.5111 46.3053 99.6847C46.6635 103.858 47.4333 112.744 47.4333 114.067C47.4333 115.389 49.5681 123.288 49.6893 125.77C49.8783 129.354 49.6132 131.128 49.6132 131.128L49.4863 132.428C49.4863 132.428 51.9764 132.783 52.5206 132.938C53.1492 133.1 53.798 133.17 54.4467 133.147C54.4467 133.147 55.3519 129.162 55.3519 125.767C55.3519 122.372 54.599 115.384 54.2239 112.552C53.8488 109.721 55.0304 98.7992 55.7016 96.7604C56.3727 94.7215 57.8391 90.4041 56.8521 88.1989C55.8651 85.9936 46.8158 89.5073 46.8158 89.5073Z" fill="#AC6DEC" stroke="#353535" stroke-width="0.5" stroke-miterlimit="10"/>
<path d="M57.9488 87.0928L57.8586 89.7774C57.8586 89.7774 56.2512 90.0961 54.0854 90.4711C52.2975 90.7813 47.8081 90.3894 46.2966 90.2427C46.1588 90.2305 46.0315 90.1644 45.9422 90.0588C45.853 89.9532 45.8091 89.8166 45.82 89.6787L45.9666 87.2535L57.9488 87.0928Z" fill="#353535"/>
<path d="M51.6651 60.3311C51.6651 60.3311 49.1271 63.0749 48.1711 64.781C47.2152 66.4871 46.8373 69.1013 46.4791 71.1599C46.121 73.2185 47.0911 78.0519 46.8175 80.2713L45.9518 87.2621C45.9518 87.2621 45.7657 87.7358 46.3889 88.2547C47.0121 88.7736 50.0549 88.9625 52.8044 89.1007C53.8083 89.1515 56.806 88.5057 57.2967 88.4747C57.8889 88.438 57.9086 87.6851 57.934 87.0929C58.0524 84.3095 58.5544 76.8901 58.8843 73.6584C59.5639 67.068 55.8444 60.7061 51.6651 60.3311Z" fill="white" stroke="#353535" stroke-width="0.5" stroke-miterlimit="10"/>
<g style="mix-blend-mode:multiply">
<path d="M58.5752 77.4066C58.688 75.943 58.8008 74.6148 58.8995 73.6588C58.9277 73.3768 58.9446 73.0948 58.9587 72.8128L52.2161 73.9408L46.4238 71.9668C46.4245 73.1653 46.4922 74.3629 46.6269 75.5538L52.3092 77.1443L58.5752 77.4066Z" fill="#AC6DEC"/>
</g>
<g style="mix-blend-mode:multiply">
<path d="M51.4146 60.6074C51.0311 61.0332 50.2697 61.899 49.5449 62.8183L53.8257 67.1696L55.2357 66.6056L51.4146 60.6074Z" fill="#AC6DEC"/>
</g>
<path d="M51.6656 60.3311C51.6656 60.3311 49.1276 63.0749 48.1716 64.781C47.8881 65.2995 47.6585 65.8457 47.4863 66.411L52.5905 60.5144C52.289 60.423 51.9792 60.3616 51.6656 60.3311Z" fill="#353535"/>
<g style="mix-blend-mode:multiply">
<path d="M46.6777 70.0493L52.2162 71.871L58.9419 71.0983C58.8365 69.4229 58.4643 67.775 57.8393 66.2169L52.4164 68.3911L47.5689 66.1943C47.1725 67.4543 46.8745 68.7432 46.6777 70.0493Z" fill="#AC6DEC"/>
</g>
<g style="mix-blend-mode:multiply">
<path d="M56.2123 84.3098C53.4032 84.7815 50.5209 84.546 47.8256 83.6246L46.4749 83.1621L46.0547 86.5461L47.5944 86.9776C50.5215 87.796 53.5808 88.0317 56.5987 87.6713L57.8423 87.5218C57.907 87.3848 57.9434 87.2361 57.9494 87.0847C57.9833 86.3318 58.0425 85.2376 58.1186 83.9827L56.2123 84.3098Z" fill="#AC6DEC"/>
</g>
<g style="mix-blend-mode:multiply">
<path d="M56.9653 79.7023C54.1561 80.1758 51.2731 79.9392 48.5786 79.0142L46.8584 78.4248C46.9011 79.0392 46.8926 79.6561 46.833 80.2691L46.6328 81.8962L48.3474 82.3756C51.2733 83.1949 54.3317 83.4315 57.3488 83.0722L58.1948 82.9706C58.2653 81.8426 58.3471 80.6413 58.4345 79.4541L56.9653 79.7023Z" fill="#AC6DEC"/>
</g>
<path d="M30.5084 67.7771L35.9609 72.1611L36.196 71.8688L30.7434 67.4849L30.5084 67.7771Z" fill="#353535"/>
<path d="M54.2912 63.374C54.2912 63.374 56.2906 64.7361 56.3357 67.9537C56.3554 69.3637 56.2088 70.6806 55.8845 72.9902C55.5602 75.2998 53.5467 82.8207 51.9788 83.7344C50.4109 84.6481 47.9772 82.9223 47.9772 82.9223L36.2066 75.108L33.3612 72.8097L31.9512 70.1477L32.3939 69.3017L35.8653 71.9637L33.9957 70.2351L34.3623 69.7698L35.0391 70.2407L37.0131 70.9796L37.4445 73.7996L38.0537 74.2169L49.3139 78.3313C49.3139 78.3313 49.1729 72.2711 49.2773 71.1121C49.3816 69.9531 49.5254 67.04 50.7662 64.9278" fill="white"/>
<mask id="mask4_4_490" style="mask-type:luminance" maskUnits="userSpaceOnUse" x="31" y="63" width="26" height="22">
<path d="M54.2912 63.374C54.2912 63.374 56.2906 64.7361 56.3357 67.9537C56.3554 69.3637 56.2088 70.6806 55.8845 72.9902C55.5602 75.2998 53.5467 82.8207 51.9788 83.7344C50.4109 84.6481 47.9772 82.9223 47.9772 82.9223L36.2066 75.108L33.3612 72.8097L31.9512 70.1477L32.3939 69.3017L35.8653 71.9637L33.9957 70.2351L34.3623 69.7698L35.0391 70.2407L37.0131 70.9796L37.4445 73.7996L38.0537 74.2169L49.3139 78.3313C49.3139 78.3313 49.1729 72.2711 49.2773 71.1121C49.3816 69.9531 49.5254 67.04 50.7662 64.9278" fill="white"/>
</mask>
<g mask="url(#mask4_4_490)">
<g style="mix-blend-mode:multiply" opacity="0.5">
<path d="M49.2358 73.7517C49.2358 75.8442 49.3063 78.3314 49.3063 78.3314L38.0573 74.2339L37.4482 73.8166L37.0168 70.9966L35.0428 70.2577L34.3688 69.7783L34.0022 70.2436L35.8662 71.9638L32.3948 69.3018L31.9746 70.1337L33.3846 72.7957L36.23 75.1081L36.9463 75.5847L52.4986 80.5959L49.2358 73.7517Z" fill="#AC6DEC"/>
</g>
</g>
<path d="M54.2912 63.374C54.2912 63.374 56.2906 64.7361 56.3357 67.9537C56.3555 69.3637 56.2088 70.6806 55.8845 72.9902C55.5602 75.2998 53.5467 82.8207 51.9788 83.7344C50.4109 84.6481 47.9772 82.9223 47.9772 82.9223L36.2066 75.108L33.3612 72.8097L31.9512 70.1477L32.3939 69.3017L35.8653 71.9637L33.9957 70.2351L34.3623 69.7698L35.0391 70.2407L37.0131 70.9796L37.4445 73.7996L38.0537 74.2169L49.3139 78.3313C49.3139 78.3313 49.1729 72.2711 49.2773 71.1121C49.3816 69.9531 49.5254 67.04 50.7662 64.9278" stroke="#353535" stroke-width="0.5" stroke-miterlimit="10"/>
<path d="M49.3135 78.3314L53.6112 81.4334L54.7251 79.4594C54.7251 79.4594 55.495 78.8531 55.6078 78.3962C55.7206 77.9394 55.5768 77.1977 55.6924 76.7409C55.808 76.2841 56.3833 75.8554 56.4369 74.75C56.4904 73.6445 56.4369 72.7224 56.4369 72.7224C56.4369 72.7224 57.3675 68.8957 57.2659 67.2319C57.1644 65.5681 55.5598 62.6268 54.2739 62.5619C52.988 62.4971 51.3157 62.6917 50.0185 64.6544C48.7213 66.6171 48.9864 72.3473 48.7834 72.7055C48.5803 73.0636 48.8623 74.8318 48.8623 74.8318C48.7496 74.9158 48.6561 75.0229 48.5881 75.1459C48.52 75.269 48.4789 75.4051 48.4675 75.5452C48.445 76.0049 48.9413 77.1357 48.9413 77.1357L49.3135 78.3314Z" fill="white" stroke="#353535" stroke-width="0.5" stroke-miterlimit="10"/>
<g style="mix-blend-mode:multiply">
<path d="M48.8958 71.2334C48.9046 71.7255 48.8678 72.2173 48.7858 72.7026C48.6053 73.0241 48.8112 74.4764 48.8563 74.7725C51.2735 75.5233 53.8296 75.7161 56.3321 75.3365C56.3859 75.1404 56.418 74.939 56.428 74.7358C56.4844 73.6332 56.428 72.7083 56.428 72.7083C56.428 72.7083 56.5098 72.367 56.6226 71.8482C54.0308 72.0129 51.4289 71.8059 48.8958 71.2334Z" fill="#AC6DEC"/>
</g>
<g style="mix-blend-mode:multiply">
<path d="M49.8445 64.9678C49.4413 65.7771 49.2157 66.9925 49.0859 68.2249C51.646 69.2019 54.4061 69.5378 57.1258 69.2034C57.2343 68.5512 57.2824 67.8904 57.2696 67.2294C57.2207 66.7069 57.0973 66.1941 56.903 65.7066C54.5283 65.762 52.1563 65.5137 49.8445 64.9678Z" fill="#AC6DEC"/>
</g>
<path d="M48.9414 77.167L49.3052 78.3317L53.6029 81.4337L54.7168 79.4597C54.7168 79.4597 55.4866 78.8534 55.5994 78.3965C55.6196 78.3171 55.6318 78.2358 55.6361 78.154C53.3713 78.1149 51.1211 77.7831 48.9414 77.167Z" fill="#353535"/>
<path d="M52.0528 132.901C52.0528 132.901 52.1487 130.459 52.6168 126.888C53.0849 123.318 51.9597 118.248 51.7708 117.402C51.5819 116.556 51.8667 114.678 51.6777 114.018C51.4888 113.358 50.5751 110.544 51.1137 107.278C51.6524 104.013 52.0895 95.3806 52.0895 95.3806C52.0895 95.3806 50.733 94.278 50.3354 92.8426C49.9378 91.4073 50.2424 90.9561 50.2424 90.9561" stroke="#353535" stroke-width="0.5" stroke-miterlimit="10"/>
<path d="M52.6819 91.0889L52.1602 93.9765" stroke="#353535" stroke-width="0.5" stroke-miterlimit="10"/>
<defs>
<linearGradient id="paint0_linear_4_490" x1="75.4861" y1="132.994" x2="75.4861" y2="138.425" gradientUnits="userSpaceOnUse">
<stop stop-color="#AC6DEC"/>
<stop offset="1" stop-color="#6961ED"/>
</linearGradient>
<linearGradient id="paint1_linear_4_490" x1="86.3275" y1="118.522" x2="86.3275" y2="119.495" gradientUnits="userSpaceOnUse">
<stop stop-color="#AC6DEC"/>
<stop offset="1" stop-color="#6961ED"/>
</linearGradient>
<linearGradient id="paint2_linear_4_490" x1="86.3271" y1="43.9161" x2="86.3271" y2="47.0435" gradientUnits="userSpaceOnUse">
<stop stop-color="#AC6DEC"/>
<stop offset="1" stop-color="#6961ED"/>
</linearGradient>
<linearGradient id="paint3_linear_4_490" x1="86.3275" y1="36.6768" x2="86.3275" y2="38.1544" gradientUnits="userSpaceOnUse">
<stop stop-color="#AC6DEC"/>
<stop offset="1" stop-color="#6961ED"/>
</linearGradient>
<linearGradient id="paint4_linear_4_490" x1="123.867" y1="81.8896" x2="123.867" y2="124.112" gradientUnits="userSpaceOnUse">
<stop stop-color="#AC6DEC"/>
<stop offset="1" stop-color="#6961ED"/>
</linearGradient>
<linearGradient id="paint5_linear_4_490" x1="124.248" y1="86.2158" x2="124.248" y2="130.243" gradientUnits="userSpaceOnUse">
<stop stop-color="#AC6DEC"/>
<stop offset="1" stop-color="#6961ED"/>
</linearGradient>
<linearGradient id="paint6_linear_4_490" x1="115.98" y1="125.271" x2="115.98" y2="135.939" gradientUnits="userSpaceOnUse">
<stop stop-color="#AC6DEC"/>
<stop offset="1" stop-color="#6961ED"/>
</linearGradient>
</defs>
</svg>
