<svg width="172" height="163" viewBox="0 0 172 163" fill="none" xmlns="http://www.w3.org/2000/svg">
<circle cx="81.6135" cy="81.5" r="81.5" fill="white"/>
<g clip-path="url(#clip0_4_403)">
<path d="M89.3523 19.0669L87.2083 20.5082C86.6823 20.8617 86.5426 21.5747 86.8961 22.1006L88.3374 24.2447C88.691 24.7706 89.4039 24.9103 89.9298 24.5568L92.0739 23.1155C92.5998 22.762 92.7396 22.049 92.386 21.5231L90.9447 19.379C90.5912 18.8531 89.8782 18.7133 89.3523 19.0669Z" fill="#F5F5F5"/>
<path d="M26.3231 53.3229L24.1791 54.7642C23.6532 55.1177 23.5134 55.8306 23.867 56.3566L25.3082 58.5006C25.6618 59.0266 26.3747 59.1663 26.9007 58.8128L29.0447 57.3715C29.5707 57.0179 29.7104 56.305 29.3569 55.7791L27.9156 53.635C27.562 53.1091 26.8491 52.9693 26.3231 53.3229Z" fill="#F5F5F5"/>
<path d="M113.781 30.8753L114.543 31.0402L116.687 29.192L117.007 27.7422C117.007 27.7422 118.199 27.9311 117.642 29.8035C117.086 31.6758 117.343 31.2223 117.343 31.2223C117.343 31.2223 119.834 31.7789 119.999 32.0331C120.116 32.2152 119.655 34.6028 119.405 35.8945C119.347 36.2133 119.183 36.5031 118.94 36.7171C118.697 36.931 118.388 37.0564 118.065 37.0729C117.972 37.0741 117.88 37.0649 117.79 37.0454C117.168 36.9114 114.093 35.7262 114.093 35.7262L112.778 35.4376L113.781 30.8753Z" fill="#BA68C8"/>
<path d="M111.692 29.9961L111.067 35.0771L112.369 35.3623L113.441 30.4874L111.692 29.9961Z" fill="#E0E0E0"/>
<path d="M128.539 43.0573L129.508 44.0536C129.561 44.1073 129.626 44.1475 129.698 44.1709C129.77 44.1942 129.846 44.1999 129.92 44.1876L131.294 43.954C131.382 43.9382 131.471 43.9475 131.553 43.9808C131.635 44.0141 131.706 44.07 131.758 44.142C131.809 44.214 131.839 44.2991 131.844 44.3874C131.849 44.4758 131.829 44.5637 131.786 44.6411L131.136 45.8675C131.101 45.9341 131.082 46.0085 131.082 46.0839C131.082 46.1594 131.101 46.2338 131.136 46.3004L131.782 47.5337C131.827 47.6109 131.848 47.6992 131.844 47.7882C131.84 47.8772 131.81 47.9631 131.758 48.0355C131.706 48.108 131.635 48.164 131.552 48.1969C131.469 48.2297 131.378 48.238 131.291 48.2208L129.917 47.9838C129.842 47.9705 129.766 47.9758 129.694 47.9992C129.622 48.0226 129.557 48.0633 129.505 48.1177L128.536 49.1106C128.475 49.1733 128.399 49.2178 128.314 49.2389C128.23 49.2601 128.141 49.257 128.058 49.2302C127.976 49.2033 127.902 49.1536 127.846 49.0869C127.79 49.0202 127.754 48.9391 127.742 48.8529L127.543 47.4787C127.531 47.4053 127.502 47.3357 127.458 47.2759C127.414 47.2162 127.356 47.1679 127.289 47.1352L126.045 46.5202C125.967 46.4823 125.901 46.423 125.854 46.3492C125.808 46.2753 125.783 46.19 125.783 46.1028C125.783 46.0157 125.808 45.9304 125.854 45.8565C125.901 45.7827 125.967 45.7234 126.045 45.6854L127.292 45.0705C127.359 45.0385 127.418 44.9905 127.462 44.9305C127.507 44.8706 127.535 44.8007 127.546 44.7269L127.749 43.3528C127.755 43.2641 127.787 43.1791 127.84 43.1079C127.893 43.0368 127.966 42.9824 128.049 42.9512C128.132 42.9201 128.223 42.9136 128.31 42.9324C128.397 42.9512 128.476 42.9945 128.539 43.0573Z" fill="#E16EF4"/>
<path d="M45.9084 20.5997L46.5955 21.3074C46.6333 21.345 46.6794 21.3733 46.7301 21.39C46.7808 21.4067 46.8347 21.4113 46.8875 21.4036L47.8563 21.2387C47.9153 21.2339 47.9745 21.2445 48.0282 21.2693C48.0819 21.2941 48.1283 21.3324 48.1628 21.3805C48.1974 21.4285 48.219 21.4847 48.2254 21.5435C48.2319 21.6023 48.2231 21.6618 48.1998 21.7162L47.7463 22.5819C47.7211 22.6289 47.7079 22.6815 47.7079 22.7348C47.7079 22.7882 47.7211 22.8407 47.7463 22.8877L48.2101 23.7672C48.2334 23.8216 48.2422 23.8811 48.2357 23.9399C48.2293 23.9987 48.2077 24.0549 48.1731 24.1029C48.1386 24.1509 48.0922 24.1892 48.0385 24.2141C47.9848 24.2389 47.9256 24.2495 47.8666 24.2447L46.8978 24.0764C46.845 24.0686 46.7911 24.0733 46.7404 24.09C46.6897 24.1067 46.6436 24.1349 46.6058 24.1726L45.9187 24.8596C45.8737 24.8985 45.8194 24.925 45.7611 24.9366C45.7028 24.9482 45.6425 24.9445 45.586 24.9258C45.5296 24.9071 45.479 24.8741 45.4392 24.83C45.3993 24.7859 45.3716 24.7322 45.3587 24.6741L45.2178 23.7019C45.2093 23.6487 45.1883 23.5984 45.1567 23.5548C45.1251 23.5112 45.0836 23.4757 45.0358 23.4511L44.1529 23.0148C44.1016 22.9844 44.0591 22.9411 44.0296 22.8893C44.0001 22.8375 43.9846 22.779 43.9846 22.7194C43.9846 22.6597 44.0001 22.6012 44.0296 22.5494C44.0591 22.4976 44.1016 22.4543 44.1529 22.4239L45.0358 21.9876C45.0832 21.9633 45.1244 21.9283 45.156 21.8854C45.1876 21.8425 45.2088 21.7928 45.2178 21.7402L45.3587 20.7646C45.375 20.7101 45.4046 20.6605 45.4448 20.6202C45.485 20.58 45.5346 20.5504 45.5891 20.534C45.6436 20.5177 45.7013 20.5151 45.757 20.5266C45.8127 20.538 45.8648 20.5632 45.9084 20.5997Z" fill="#A158EA"/>
<path d="M23.0974 37.2139C23.6193 37.1613 24.1065 36.9281 24.4747 36.5545C24.8429 36.1809 25.069 35.6904 25.1139 35.1678C25.1589 34.6452 25.0199 34.1233 24.7209 33.6923C24.4219 33.2613 23.9817 32.9483 23.4765 32.8074C22.9712 32.6665 22.4326 32.7066 21.9537 32.9206C21.4748 33.1347 21.0858 33.5093 20.8538 33.9798C20.6218 34.4503 20.5615 34.987 20.6832 35.4972C20.805 36.0074 21.1011 36.4591 21.5205 36.7741C18.0576 36.3206 17.2502 39.8008 17.2502 39.8008L25.1174 42.0338C25.1174 42.0338 26.2649 38.6087 23.0974 37.2139Z" fill="#BA68C8"/>
<path d="M130.874 65.6899C123.858 49.692 107.017 43.6685 93.7292 54.4099C88.5404 58.6004 85.3031 65.2697 78.9496 67.9459C72.9881 70.4557 65.4362 69.7168 58.9897 71.0761C45.2619 73.9525 26.7796 84.8659 28.1896 101.682C28.8072 109.047 33.776 117.228 36.2323 124.12C39.0523 132.05 40.7443 141.971 48.2088 146.711C61.006 154.85 76.4426 148.197 87.9708 141.635C94.1748 138.107 97.5898 135.939 104.27 137.149C110.455 138.277 116.024 142.225 122.067 137.541C126.605 134.024 126.98 126.898 130.79 122.713C135.082 117.998 139.433 117.657 141.664 110.57C144.368 101.972 140.383 96.5999 137.69 88.9182C134.997 81.2365 134.179 73.2164 130.874 65.6899Z" fill="#5B53FF" fill-opacity="0.08"/>
<path d="M63.7998 110.468C63.7998 110.468 36.6596 81.4006 33.4578 77.5941C32.0836 75.9382 29.9983 71.6336 29.7337 70.1941C29.5367 69.142 29.6763 68.0545 30.1327 67.0862C30.5891 66.1179 31.339 65.3181 32.276 64.8004C36.5634 62.4472 47.3096 59.3037 74.0993 59.3037C96.6702 59.3037 106.846 61.9112 111.426 64.3676C112.628 65.0181 113.582 66.0468 114.141 67.2944C114.7 68.542 114.832 69.9391 114.517 71.2694C114.029 73.3436 113.013 75.2562 111.566 76.8211L80.4755 110.489L77.6962 134.032H67.888L63.7998 110.468Z" fill="#DED1F9"/>
<path d="M108.974 66.6591C109.234 66.7657 109.46 66.942 109.627 67.1686C109.794 67.3952 109.895 67.6634 109.92 67.9438C109.944 68.2242 109.891 68.5059 109.766 68.758C109.641 69.0101 109.449 69.2229 109.211 69.3731C102.793 73.4956 94.7234 74.595 87.0211 75.1C69.7373 76.2303 42.7449 75.5432 34.73 68.6001C34.6066 68.4953 34.5131 68.3596 34.4591 68.207C34.405 68.0543 34.3924 67.8901 34.4224 67.7309C34.4524 67.5718 34.524 67.4235 34.6299 67.301C34.7359 67.1785 34.8723 67.0862 35.0255 67.0335C37.8185 66.0647 46.0979 62.8285 71.7196 63.0209C94.1154 63.1893 104.731 64.9379 108.974 66.6591Z" fill="#353535"/>
<path d="M80.9802 110.142C80.9312 110.179 80.8783 110.212 80.8222 110.238L80.3584 110.482C80.1153 110.61 79.8653 110.725 79.6095 110.825C79.3106 110.949 78.9774 111.107 78.5789 111.234L77.9742 111.451C77.7647 111.523 77.5379 111.578 77.3077 111.646C76.8508 111.791 76.3458 111.894 75.8202 112.01C74.6689 112.229 73.5014 112.352 72.3298 112.378C71.1571 112.383 69.9861 112.29 68.829 112.1C68.3 111.997 67.7984 111.907 67.3312 111.773C67.0976 111.712 66.8708 111.664 66.6441 111.595L66.036 111.396C65.6444 111.279 65.3077 111.128 65.0054 111.011C64.746 110.911 64.4925 110.796 64.2461 110.667L63.7755 110.434C63.7184 110.411 63.6651 110.38 63.6174 110.341C63.6776 110.356 63.7363 110.377 63.7926 110.403L64.2736 110.605C64.4832 110.698 64.7374 110.805 65.0431 110.911C65.3489 111.018 65.6856 111.158 66.0738 111.255L66.6819 111.44C66.8914 111.505 67.1182 111.55 67.3483 111.609C67.8087 111.736 68.3137 111.818 68.8393 111.918C71.1364 112.296 73.4821 112.266 75.7687 111.828C76.2943 111.715 76.7993 111.619 77.2493 111.485C77.4795 111.42 77.7063 111.365 77.9158 111.296L78.517 111.097C78.9052 110.976 79.2419 110.825 79.5477 110.712C79.8534 110.599 80.1042 110.482 80.3103 110.386L80.7879 110.169C80.8504 110.151 80.9151 110.142 80.9802 110.142Z" fill="#353535"/>
<path d="M111.526 67.5352C111.526 67.5352 111.475 67.5833 111.365 67.6691L110.88 68.0436L110.083 68.6482L108.943 69.3972C107.882 70.0554 106.78 70.6452 105.645 71.163C104.137 71.8438 102.584 72.4178 100.996 72.8807C99.0776 73.4398 97.1274 73.8848 95.1561 74.2137C93.0261 74.5572 90.7346 74.8424 88.3195 75.0519C83.4824 75.4539 78.154 75.739 72.5542 75.7115C69.7543 75.7115 67.0197 75.6325 64.3847 75.4779C61.7497 75.3233 59.2074 75.1344 56.7992 74.8424C52.5296 74.3737 48.2869 73.6857 44.088 72.7811C41.2253 72.2636 38.4847 71.2149 36.0078 69.6892C35.3334 69.2758 34.7126 68.7808 34.1595 68.2154C34.0194 68.0646 33.8919 67.9026 33.7781 67.731C33.7026 67.6142 33.6682 67.5523 33.6682 67.5523C33.8276 67.7759 34.0009 67.9894 34.187 68.1913C34.7463 68.7428 35.369 69.226 36.0421 69.6308C38.5246 71.1268 41.2613 72.1527 44.1154 72.6574C48.3158 73.5468 52.5582 74.2245 56.8267 74.6878C59.2315 74.9626 61.7703 75.1653 64.4053 75.313C67.0403 75.4608 69.768 75.5398 72.5645 75.5432C78.1574 75.5432 83.4858 75.2924 88.3126 74.8973C90.7175 74.6947 93.0158 74.4267 95.1423 74.0763C97.1129 73.7557 99.0631 73.3198 100.983 72.7708C102.566 72.316 104.116 71.7547 105.624 71.0909C106.759 70.58 107.861 70.0007 108.925 69.3559L110.049 68.6173L110.853 68.0264L111.351 67.6657L111.526 67.5352Z" fill="#353535"/>
<path d="M111.035 77.3848L110.849 77.4775L110.296 77.7352L108.166 78.7109L106.627 79.3979C106.057 79.6419 105.425 79.872 104.755 80.1366C103.401 80.645 101.889 81.3012 100.148 81.8268L97.4336 82.7132C96.963 82.8781 96.4717 82.9983 95.9736 83.1323L94.4517 83.5377L92.8714 83.974L92.064 84.187L91.2327 84.3622L87.7972 85.0836C82.6678 86.0252 77.4722 86.5605 72.2586 86.6846C67.0389 86.7347 61.8237 86.359 56.665 85.5612L53.2055 84.9256L52.3707 84.7744C52.0959 84.716 51.8279 84.6439 51.56 84.5786L49.9728 84.1904L48.444 83.8159C47.9424 83.6888 47.4443 83.5858 46.9736 83.4277L44.2459 82.5861C42.4938 82.0948 40.9753 81.4489 39.6183 80.9542C38.9312 80.6931 38.3094 80.4732 37.7391 80.2328L36.1966 79.5457L34.0494 78.5803L33.4963 78.3261L33.3108 78.2333L33.5032 78.3089L34.0632 78.5494L36.2103 79.4804L37.7597 80.1675C38.33 80.4045 38.9656 80.621 39.6423 80.8752C41.0165 81.3596 42.5178 81.9952 44.2699 82.4796L46.9977 83.3075C47.4683 83.4655 47.9665 83.5686 48.4646 83.6923L49.9968 84.0599L51.5771 84.4446C51.8485 84.5065 52.1165 84.5786 52.3913 84.637L53.2227 84.7882L56.6582 85.4134C61.8206 86.1955 67.0376 86.5608 72.2586 86.5059C77.4669 86.3829 82.6576 85.8533 87.7834 84.9222L91.2189 84.2076L92.0469 84.0358L92.8542 83.8228L94.4276 83.4071L95.953 83.0086C96.4477 82.8746 96.9424 82.7578 97.4096 82.5929L100.124 81.7203C101.865 81.205 103.38 80.5557 104.734 80.0576C105.421 79.7965 106.039 79.5732 106.61 79.3327L108.156 78.6456L110.299 77.7043L110.856 77.4638C110.966 77.4088 111.035 77.3848 111.035 77.3848Z" fill="#353535"/>
<path d="M69.3034 134.011C69.2896 133.976 69.2804 133.939 69.2759 133.901C69.2759 133.822 69.245 133.716 69.2175 133.582C69.1694 133.29 69.0973 132.871 69.0045 132.328C68.8225 131.225 68.5579 129.631 68.2247 127.621C67.572 123.585 66.6478 117.892 65.5691 111.234L65.5897 111.279C63.0303 108.489 60.2372 105.418 57.3996 102.144C54.2011 98.4542 51.2604 94.847 48.7147 91.4665C47.4402 89.7796 46.2721 88.1409 45.1899 86.6018C44.1078 85.0628 43.1287 83.6164 42.3385 82.2113C41.603 80.9612 41.1231 79.5774 40.9265 78.1403C40.8007 77.0486 40.9373 75.9426 41.325 74.9144C41.5708 74.2714 41.9475 73.6864 42.4313 73.1967L42.658 72.9837L42.8366 72.8463C42.9294 72.7707 42.9809 72.7363 42.9809 72.7363C42.9385 72.7799 42.8938 72.8212 42.847 72.86C42.7989 72.8978 42.7405 72.9459 42.6752 73.0043L42.4587 73.2242C41.9893 73.718 41.6258 74.3025 41.3903 74.9419C41.0195 75.9599 40.8948 77.0511 41.0262 78.1266C41.2296 79.5484 41.7131 80.9157 42.4484 82.1495C43.2249 83.5408 44.2521 84.9666 45.3136 86.516C46.3752 88.0654 47.5673 89.6835 48.8487 91.3668C51.3978 94.737 54.3454 98.3408 57.5335 102.017C60.3712 105.291 63.1608 108.362 65.7134 111.155H65.7306V111.217C66.7852 117.878 67.6853 123.585 68.3243 127.614C68.637 129.624 68.8843 131.222 69.0561 132.328C69.1351 132.871 69.2004 133.29 69.2416 133.582C69.2622 133.719 69.2759 133.829 69.2897 133.908L69.3034 134.011Z" fill="#353535"/>
<path d="M106.212 62.2202C106.212 62.2408 106.033 62.2202 105.727 62.2786C105.297 62.3483 104.896 62.539 104.57 62.8282C104.097 63.2749 103.717 63.8109 103.453 64.4051C103.118 65.1331 102.841 65.8868 102.625 66.6588C102.144 68.3009 101.869 69.8332 101.653 70.9359C101.56 71.4616 101.481 71.9013 101.423 72.2448C101.403 72.4075 101.366 72.5675 101.313 72.7224C101.312 72.5589 101.326 72.3957 101.354 72.2345C101.392 71.9219 101.447 71.4719 101.529 70.9119C101.749 69.4606 102.058 68.0242 102.453 66.6107C102.671 65.8282 102.956 65.066 103.305 64.333C103.585 63.7237 103.987 63.1786 104.487 62.7321C104.836 62.4372 105.266 62.2551 105.72 62.2099C105.842 62.1983 105.963 62.1983 106.085 62.2099C106.167 62.2064 106.212 62.2133 106.212 62.2202Z" fill="#353535"/>
<path d="M122.962 57.1406C122.962 57.1406 119.702 51.4892 118.07 51.8122C116.951 52.0864 115.905 52.5984 115.002 53.3135L119.152 58.1918L122.962 57.1406Z" fill="#FFBE9D"/>
<path d="M142.672 72.0185L130.188 66.4153L122.908 55.3428L118.428 57.6651L126.896 72.7571L140.82 78.0374L142.672 72.0185Z" fill="#A058EA"/>
<path d="M115.964 52.169C116.858 52.3752 117.797 52.2623 118.617 51.8499C119.437 51.4376 120.087 50.7516 120.455 49.9107C120.823 49.0697 120.885 48.1266 120.632 47.2445C120.378 46.3623 119.824 45.5965 119.066 45.0795C118.307 44.5624 117.392 44.3267 116.478 44.4129C115.564 44.4992 114.709 44.9021 114.061 45.5519C113.413 46.2017 113.012 47.0577 112.928 47.9717C112.843 48.8858 113.081 49.8005 113.6 50.5578C108.103 47.8644 104.823 53.179 104.823 53.179L116.606 61.2901C116.606 61.2901 120.433 56.2503 115.964 52.169Z" fill="#353535"/>
<path d="M105.315 57.6039C104.484 56.6596 103.706 55.671 102.982 54.6425C102.144 53.3233 102.261 53.2443 102.429 53.1687C102.882 52.966 103.992 55.4292 104.057 54.7559C104.123 54.0825 102.34 51.9045 102.834 51.7121C103.463 51.4613 104.576 54.0654 104.686 54.2784C104.796 54.4914 105.105 54.3299 104.995 54.1444C104.837 53.8764 103.25 51.0147 103.861 50.7604C104.205 50.6196 104.384 51.2655 104.384 51.2655C104.384 51.2655 105.675 54.0551 105.96 53.9279C106.246 53.8008 105.548 52.1312 105.273 51.585C104.999 51.0387 105.143 50.6917 105.48 50.7639C105.706 50.812 106.593 52.4576 106.854 53.0004C107.115 53.5432 107.805 55.0616 108.06 54.031C108.314 53.0004 108.894 52.2927 109.176 52.2102C109.458 52.1278 109.671 52.5022 109.468 52.7633C109.276 53.0674 109.125 53.3954 109.018 53.739C108.925 54.0135 108.878 54.3012 108.877 54.591C108.877 54.8383 108.877 55.0616 108.898 55.2781L108.997 57.3943L106.575 59.0536L105.315 57.6039Z" fill="#FFBE9D"/>
<path d="M138.004 56.0546L138.165 70.3461C138.175 71.0938 137.894 71.816 137.381 72.3603C136.868 72.9045 136.164 73.2281 135.417 73.2628C135.038 73.2808 134.66 73.224 134.303 73.0956C133.946 72.9672 133.618 72.7697 133.337 72.5145C133.057 72.2592 132.83 71.9512 132.668 71.608C132.507 71.2649 132.415 70.8932 132.397 70.5144L132.219 66.8694C132.219 66.8694 129.625 67.292 129.106 65.4265C128.763 64.231 129.106 55.6904 129.106 55.6904L138.004 56.0546Z" fill="#FFBE9D"/>
<path d="M119.184 54.0859C118.979 54.1358 118.79 54.233 118.63 54.3697C118.47 54.5063 118.344 54.6786 118.263 54.8727C117.602 54.3499 116.776 54.0795 115.934 54.11C116.031 54.5939 116.31 55.022 116.714 55.3055C117.098 55.6078 117.538 55.8312 117.923 56.13C118.329 56.408 118.616 56.8286 118.727 57.3084" fill="#FFBE9D"/>
<path d="M128.067 53.7799C127.38 53.852 126.961 54.7006 127.123 55.3842C127.284 56.0679 127.83 56.5901 128.397 57.0023C128.349 57.3021 128.379 57.6092 128.485 57.8939C128.59 58.1786 128.768 58.4311 129 58.6268C129.232 58.8226 129.511 58.9549 129.809 59.011C130.107 59.0671 130.415 59.045 130.702 58.9468C130.648 59.0006 130.604 59.0651 130.576 59.1364C130.547 59.2076 130.533 59.2841 130.535 59.3609C130.538 59.4377 130.556 59.5132 130.589 59.5827C130.622 59.6521 130.669 59.714 130.726 59.7644C130.849 59.8608 130.992 59.9289 131.144 59.9639C131.296 59.9989 131.453 60 131.606 59.9671C131.915 59.9225 132.211 59.8091 132.516 59.7541C132.862 59.6829 133.221 59.7198 133.545 59.86C133.869 60.0001 134.142 60.2367 134.327 60.5374C134.65 61.1627 134.286 62.0902 133.588 62.1796C133.431 62.183 133.275 62.2002 133.121 62.2311C133.03 62.275 132.949 62.338 132.884 62.4158C132.819 62.4937 132.772 62.5845 132.745 62.6822C132.719 62.7799 132.713 62.8822 132.729 62.9822C132.746 63.0822 132.783 63.1775 132.839 63.2617C132.961 63.4256 133.119 63.5593 133.301 63.6528C133.482 63.7463 133.683 63.797 133.887 63.8011C133.667 64.0911 133.569 64.4553 133.613 64.8165C133.658 65.1778 133.841 65.5074 134.125 65.7355C134.408 65.9636 134.77 66.0722 135.132 66.0381C135.494 66.0041 135.829 65.8301 136.065 65.5532C136.142 65.795 136.268 66.018 136.437 66.2072C136.606 66.3965 136.813 66.5478 137.045 66.6512C137.276 66.7545 137.527 66.8076 137.781 66.8068C138.034 66.806 138.285 66.7515 138.516 66.6468C138.747 66.5421 138.953 66.3895 139.121 66.1993C139.288 66.009 139.414 65.7853 139.489 65.543C139.564 65.3007 139.586 65.0453 139.555 64.7936C139.524 64.5418 139.44 64.2996 139.308 64.0828C139.651 63.9308 139.949 63.6944 140.175 63.3957C140.401 63.097 140.547 62.7457 140.601 62.3749C140.654 62.0041 140.612 61.6259 140.479 61.2756C140.346 60.9254 140.127 60.6147 139.841 60.3725C140.269 60.0398 140.648 59.649 140.968 59.2113C141.126 58.9905 141.236 58.7384 141.29 58.4719C141.344 58.2054 141.341 57.9305 141.28 57.6654C141.21 57.4028 141.052 57.1725 140.831 57.0134C140.611 56.8544 140.342 56.7765 140.071 56.7928C140.211 56.5971 140.295 56.3668 140.313 56.1269C140.332 55.887 140.284 55.6466 140.175 55.4319C140.066 55.2173 139.901 55.0366 139.696 54.9094C139.492 54.7823 139.257 54.7136 139.016 54.7109C138.975 54.2482 138.783 53.8119 138.47 53.469C138.157 53.126 137.74 52.8955 137.283 52.8127C136.825 52.73 136.354 52.7996 135.94 53.011C135.527 53.2224 135.194 53.5637 134.993 53.9826C134.942 53.347 134.22 52.9176 133.595 53.0206C133.285 53.0953 132.996 53.2418 132.753 53.4482C132.509 53.6547 132.318 53.9154 132.193 54.2093C132.229 54.0232 132.226 53.8318 132.185 53.6468C132.144 53.4618 132.066 53.287 131.956 53.1329C131.846 52.9788 131.706 52.8487 131.544 52.7504C131.382 52.6521 131.202 52.5876 131.014 52.5609C130.826 52.5342 130.635 52.5457 130.452 52.5949C130.269 52.6441 130.098 52.7298 129.95 52.847C129.801 52.9641 129.677 53.1102 129.586 53.2765C129.495 53.4427 129.439 53.6256 129.421 53.8142C129.455 53.729 129.467 53.6365 129.456 53.5453C129.445 53.4541 129.411 53.3673 129.357 53.2929C129.303 53.2185 129.231 53.1591 129.148 53.1201C129.065 53.0811 128.973 53.0639 128.881 53.07C128.79 53.0762 128.701 53.1054 128.624 53.1552C128.546 53.2049 128.483 53.2734 128.44 53.3543C128.396 53.4352 128.374 53.5258 128.375 53.6176C128.376 53.7095 128.4 53.7996 128.445 53.8795" fill="#353535"/>
<path d="M132.778 61.5444C132.778 61.5169 132.878 61.5444 133.002 61.4757C133.083 61.4508 133.154 61.4022 133.207 61.3361C133.26 61.27 133.292 61.1895 133.299 61.1051C133.305 61.0206 133.286 60.9362 133.245 60.8626C133.203 60.789 133.14 60.7297 133.063 60.6924C132.95 60.6203 132.857 60.6203 132.854 60.5928C132.85 60.5653 132.954 60.5206 133.118 60.5928C133.234 60.6275 133.334 60.7007 133.402 60.8002C133.471 60.8997 133.503 61.0196 133.494 61.1399C133.484 61.2602 133.434 61.3738 133.352 61.4617C133.269 61.5497 133.159 61.6067 133.039 61.6234C132.864 61.6303 132.768 61.5616 132.778 61.5444Z" fill="#EB996E"/>
<path d="M131.215 59.806L131.287 61.8673C131.283 61.955 131.301 62.0423 131.339 62.1215C131.382 62.1821 131.446 62.2256 131.518 62.2444C131.59 62.2632 131.666 62.2562 131.734 62.2246C131.802 62.1902 131.862 62.1418 131.91 62.0826C131.958 62.0234 131.993 61.9547 132.012 61.881C132.052 61.7377 132.075 61.5901 132.081 61.4413C132.137 60.7296 132.282 60.0278 132.514 59.3525C132.271 59.2702 132.006 59.2812 131.771 59.3834C131.536 59.4857 131.348 59.6719 131.243 59.9056" fill="#353535"/>
<path d="M142.166 108.022C142.166 108.071 140.17 108.503 137.7 108.995C135.23 109.486 133.196 109.84 133.186 109.792C133.176 109.744 135.182 109.307 137.652 108.82C140.122 108.332 142.156 107.971 142.166 108.022Z" fill="#D9D4FF"/>
<path d="M125.853 130.8C125.804 130.8 126.409 124.029 127.206 115.684C128.003 107.339 128.687 100.588 128.735 100.592C128.783 100.595 128.182 107.36 127.385 115.708C126.588 124.056 125.901 130.8 125.853 130.8Z" fill="#D9D4FF"/>
<path d="M126.863 130.927C126.811 130.927 127.358 124.077 128.076 115.636C128.794 107.195 129.422 100.355 129.47 100.358C129.519 100.362 128.976 107.209 128.254 115.65C127.533 124.091 126.911 130.931 126.863 130.927Z" fill="#D9D4FF"/>
<path d="M132.53 72.2429C132.33 72.2197 132.133 72.1794 131.939 72.1226L130.349 71.7344L125.106 70.4152L119.853 69.1166L118.263 68.7215C118.067 68.68 117.874 68.6249 117.686 68.5566C117.886 68.5733 118.085 68.6067 118.28 68.6563C118.658 68.7284 119.208 68.8452 119.884 68.9998C121.234 69.2953 123.1 69.7316 125.147 70.2434C127.195 70.7553 129.047 71.2466 130.38 71.6176L131.96 72.0642C132.154 72.1107 132.345 72.1704 132.53 72.2429Z" fill="#353535"/>
<path fill-rule="evenodd" clip-rule="evenodd" d="M147.814 129.172L146.475 121.396L138.776 123.207L142.005 136.392C143.966 134.188 146.012 131.685 147.814 129.172ZM147.932 160.232L147.847 160.238L147.849 160.245L147.932 160.232Z" fill="#FFBE9D"/>
<path fill-rule="evenodd" clip-rule="evenodd" d="M132.316 145.265L133.805 122.5C133.805 122.5 127.051 122.799 126.776 122.799C126.596 122.799 126.085 138.834 125.754 149.918C127.676 148.627 130.121 146.939 132.316 145.265ZM131.553 156.933L125.559 156.559C125.493 158.834 125.453 160.245 125.453 160.245L131.294 160.891L131.553 156.933Z" fill="#FFBE9D"/>
<path d="M138.67 69.9919C138.246 70.0479 137.819 70.0777 137.392 70.0812C136.605 70.1224 135.52 70.1911 134.324 70.3148C133.128 70.4385 132.05 70.5931 131.27 70.7133C130.851 70.797 130.428 70.8566 130.002 70.892C130.111 70.8418 130.227 70.8071 130.346 70.7889C130.562 70.734 130.875 70.6652 131.263 70.5897C132.036 70.4351 133.118 70.2633 134.317 70.1362C135.516 70.0091 136.612 69.961 137.409 69.9541C137.804 69.9541 138.124 69.9541 138.347 69.9541C138.456 69.9554 138.564 69.9681 138.67 69.9919Z" fill="#353535"/>
<path d="M143.592 87.9698V95.5725L144.423 101.887L126.294 100.224L127.071 87.5988C127.191 84.6443 127.246 81.5661 127.318 78.8418C126.085 78.3746 114.607 74.0322 113.827 73.9188C113.047 73.8054 105.486 59.9124 105.486 59.9124C105.249 58.2462 109.766 57.1641 109.766 57.1641C109.766 57.1641 116.782 67.7453 117.376 68.3396C117.97 68.9339 128.943 70.8578 128.943 70.8578C131.783 70.282 134.669 69.9613 137.566 69.8993C139.322 69.8724 141.022 70.5134 142.324 71.6927C143.625 72.872 144.429 74.5015 144.574 76.2515C144.808 78.8865 144.66 82.662 143.592 87.9698Z" fill="#A058EA"/>
<path d="M132.2 80.6142C132.183 80.6588 130.675 80.1435 128.83 79.4598C126.985 78.7762 125.501 78.1853 125.518 78.1406C126.662 78.4655 127.788 78.8496 128.892 79.2915C130.016 79.6755 131.121 80.117 132.2 80.6142Z" fill="#353535"/>
<path d="M132.774 72.126C132.895 72.1626 133.011 72.2157 133.117 72.284C133.431 72.4592 133.722 72.6727 133.983 72.9196C134.372 73.2869 134.697 73.7179 134.941 74.1941C135.242 74.7803 135.411 75.4252 135.436 76.0836C135.461 76.7402 135.351 77.395 135.113 78.0075C134.921 78.5134 134.637 78.9793 134.275 79.3817C134.035 79.6585 133.718 79.8572 133.365 79.952C133.269 79.9756 133.171 79.9849 133.073 79.9794C133.004 79.9794 132.97 79.9726 132.97 79.9588C133.097 79.9433 133.223 79.9192 133.347 79.8867C133.675 79.7702 133.964 79.5657 134.182 79.2958C134.516 78.8999 134.779 78.4488 134.959 77.9628C135.18 77.369 135.281 76.7374 135.258 76.1042C135.233 75.4715 135.075 74.8511 134.794 74.2834C134.563 73.8191 134.259 73.3946 133.894 73.0261C133.549 72.6918 133.174 72.3904 132.774 72.126Z" fill="#353535"/>
<path d="M130.207 99.9871C130.194 99.9238 130.189 99.8593 130.19 99.7947C130.19 99.6504 130.19 99.4718 130.19 99.2519C130.19 98.7778 130.19 98.0941 130.19 97.249C130.207 95.5588 130.262 93.2227 130.375 90.6461C130.489 88.0695 130.637 85.7368 130.764 84.0534C130.829 83.2083 130.884 82.5281 130.932 82.0574C130.953 81.8375 130.973 81.6589 130.987 81.5181C130.989 81.4548 130.994 81.3916 131.004 81.3291C131.014 81.3917 131.014 81.4554 131.004 81.5181C131.004 81.6623 131.004 81.8444 130.98 82.0643C130.953 82.559 130.915 83.2358 130.87 84.0603C130.774 85.7471 130.647 88.0798 130.527 90.6564C130.406 93.233 130.338 95.5622 130.286 97.2525C130.262 98.077 130.241 98.7538 130.224 99.2519C130.224 99.4718 130.207 99.6504 130.2 99.7947C130.211 99.8582 130.214 99.9229 130.207 99.9871Z" fill="#353535"/>
<path d="M135.017 70.043C134.423 70.251 133.849 70.5096 133.299 70.8159C132.781 71.1738 132.295 71.5761 131.846 72.0184C132.191 71.4701 132.656 71.0073 133.206 70.6651C133.756 70.3229 134.376 70.1102 135.02 70.043H135.017Z" fill="#353535"/>
<path d="M59.9452 59.2695L59.5467 59.7917C56.7125 63.6188 59.6395 66.8997 60.2957 67.5524L69.0423 58.7748C68.3832 58.1383 67.6153 57.6251 66.7749 57.2598C64.8683 56.4524 63.0269 56.7067 61.3023 58.0156L60.7869 58.4038L61.0377 57.8129C61.3404 57.0948 61.3851 56.294 61.1644 55.5467C60.9436 54.7993 60.4708 54.1515 59.8265 53.7132C59.1822 53.2748 58.406 53.0731 57.6298 53.1422C56.8536 53.2113 56.1252 53.547 55.5685 54.0923C55.2587 54.4021 55.0142 54.7709 54.8496 55.1769C54.685 55.5829 54.6035 56.0178 54.61 56.4559C54.6112 57.0164 54.7517 57.5678 55.019 58.0605C55.2862 58.5532 55.6718 58.9717 56.141 59.2783C56.6102 59.585 57.1482 59.7701 57.7068 59.8172C58.2653 59.8642 58.8267 59.7716 59.3406 59.5478L59.9452 59.2695Z" fill="#E16EF4"/>
<path d="M97.3364 37.1973C96.9947 36.8004 96.5251 36.5354 96.0088 36.448C95.4924 36.3605 94.9617 36.4563 94.5084 36.7186C94.0551 36.9809 93.7077 37.3933 93.5262 37.8845C93.3447 38.3758 93.3405 38.915 93.5144 39.409C93.6882 39.903 94.0292 40.3208 94.4783 40.5901C94.9275 40.8595 95.4566 40.9634 95.9742 40.8841C96.4919 40.8047 96.9656 40.547 97.3134 40.1555C97.6612 39.764 97.8614 39.2632 97.8792 38.7398C99.4905 41.8317 102.809 40.5091 102.809 40.5091L100.133 32.7793C100.133 32.7793 96.6493 33.7996 97.3364 37.1973Z" fill="#D9D4FF"/>
<path d="M92.364 55.5678L88.1992 49.3723C87.8457 48.8464 87.1327 48.7066 86.6068 49.0602L80.4113 53.225C79.8853 53.5785 79.7456 54.2915 80.0991 54.8174L84.2639 61.0129C84.6175 61.5389 85.3304 61.6786 85.8564 61.3251L92.0519 57.1603C92.5778 56.8067 92.7176 56.0938 92.364 55.5678Z" fill="#E16EF4"/>
<path d="M58.3479 35.7779L55.5721 34.1753C55.0233 33.8584 54.3215 34.0465 54.0046 34.5953L52.402 37.3711C52.0851 37.9199 52.2732 38.6217 52.822 38.9386L55.5979 40.5412C56.1467 40.8581 56.8484 40.67 57.1653 40.1212L58.7679 37.3454C59.0848 36.7965 58.8968 36.0948 58.3479 35.7779Z" fill="#E16EF4"/>
<path d="M76.948 45.623C76.522 44.4756 75.7113 42.3662 75.5292 42.2769C75.2784 42.1567 73.0316 42.9365 73.0316 42.9365C73.0316 42.9365 73.0488 43.4175 72.5747 41.6654C72.1006 39.9133 71.0631 40.3462 71.0631 40.3462L71.52 41.6482L70.7264 44.163L70.0393 44.4L71.4788 48.502L72.6606 48.0897C72.6606 48.0897 75.67 47.5228 76.23 47.327C76.3107 47.2964 76.3878 47.2573 76.4602 47.2102C76.7091 47.0399 76.8928 46.7902 76.9814 46.5019C77.07 46.2136 77.0583 45.9038 76.948 45.623Z" fill="#353535"/>
<path d="M67.9592 44.7309L69.9484 49.0561L71.1199 48.6439L69.5808 44.2637L67.9592 44.7309Z" fill="#353535"/>
<path d="M39.5074 42.5077L38.5215 41.0889L38.6692 40.6388L35.9655 39.7422L35.7078 40.522C35.7078 40.522 34.7974 42.3119 34.6772 42.6795C34.6599 42.7341 34.6495 42.7907 34.6463 42.8478C34.6347 43.045 34.6907 43.2403 34.805 43.4014C34.9193 43.5625 35.085 43.6799 35.2749 43.7342C36.0411 43.9712 37.4599 44.3972 37.5801 44.3354C37.7004 44.2736 38.2397 42.7757 38.2397 42.7757C38.2397 42.7757 37.9821 42.5936 39.0814 43.0471C40.1808 43.5006 40.3697 42.7929 40.3697 42.7929L39.5074 42.5077Z" fill="#D9D4FF"/>
<path d="M39.3354 39.4196L36.2916 38.7188L36.0374 39.4917L38.9266 40.4502L39.3354 39.4196Z" fill="#D9D4FF"/>
<path d="M71.6092 19.8511C71.4955 19.7559 71.3666 19.6804 71.2279 19.6278C71.0262 19.563 70.8088 19.5666 70.6094 19.6381C70.41 19.7095 70.2398 19.8448 70.1251 20.0228C69.9975 20.3038 69.9274 20.6075 69.919 20.916C69.8709 21.2596 69.8194 21.6238 69.7644 22.0223C69.7094 22.4208 69.6476 22.8433 69.5823 23.29C69.5429 23.5375 69.4147 23.7622 69.2216 23.9221C69.1208 23.9979 69.0112 24.0614 68.8952 24.111L68.5517 24.2794L67.1328 24.9665L66.3839 25.3444C66.2641 25.4073 66.1605 25.4971 66.0812 25.6068C66.0019 25.7164 65.9491 25.843 65.927 25.9765C65.9031 26.1138 65.9115 26.2548 65.9515 26.3884C65.9914 26.5219 66.0618 26.6443 66.1572 26.746C66.2559 26.8467 66.3724 26.9282 66.5007 26.9865L66.9198 27.1926L68.696 28.079C68.8471 28.158 68.9914 28.213 69.1529 28.3126C69.3 28.4192 69.4181 28.5609 69.4964 28.7248C69.5689 28.8914 69.612 29.0692 69.6235 29.2505C69.6476 29.4188 69.6716 29.594 69.6991 29.7624L70.0049 31.8752C70.0225 32.0423 70.0875 32.2008 70.1922 32.3323C70.2969 32.4637 70.4369 32.5626 70.5958 32.6172C70.7562 32.6744 70.9298 32.6834 71.0952 32.6431C71.2606 32.6028 71.4106 32.515 71.5268 32.3905L73.1174 30.7621L73.5193 30.3533C73.6608 30.1999 73.8432 30.0902 74.045 30.0372C74.2429 29.9928 74.4482 29.9928 74.6462 30.0372L75.1993 30.1334L77.3774 30.5113C77.54 30.5346 77.706 30.5115 77.8561 30.4446C78.0062 30.3778 78.1344 30.2699 78.2259 30.1334C78.3174 30.0005 78.3708 29.8452 78.3805 29.6841C78.3902 29.5231 78.3558 29.3625 78.2809 29.2196L77.3464 27.3919C77.1953 27.0896 77.0338 26.8182 76.893 26.5021C76.8347 26.3369 76.8181 26.1599 76.8449 25.9868C76.8772 25.8214 76.9389 25.6632 77.027 25.5196C77.3258 24.963 77.611 24.4202 77.8893 23.898C78.1675 23.3758 78.5763 22.8674 78.3702 22.3692C78.3275 22.2514 78.2613 22.1435 78.1757 22.052C78.09 21.9605 77.9868 21.8873 77.8721 21.8368C77.7628 21.7924 77.6464 21.768 77.5285 21.7646C77.4053 21.7743 77.2826 21.7904 77.1609 21.8127L74.4744 22.2559C74.2716 22.2809 74.0659 22.245 73.8835 22.1528C73.7256 22.064 73.5848 21.9477 73.4678 21.8093L72.8185 21.1222L71.915 20.1774L71.6882 19.9301C71.6602 19.9029 71.6348 19.8729 71.6127 19.8407C71.6449 19.8629 71.6748 19.8882 71.702 19.9163C71.7604 19.9782 71.8428 20.0572 71.9425 20.1534L72.8597 21.0741L73.5193 21.7406C73.6288 21.8797 73.7641 21.9963 73.9179 22.0841C74.0817 22.1688 74.2679 22.2 74.4504 22.1734L77.13 21.7062C77.258 21.6795 77.3877 21.6623 77.5182 21.6547C77.658 21.6541 77.7967 21.6798 77.927 21.7303C78.0654 21.7845 78.1904 21.8679 78.2935 21.975C78.3966 22.082 78.4753 22.2101 78.5243 22.3504C78.5732 22.4907 78.5912 22.64 78.5771 22.7879C78.563 22.9359 78.517 23.079 78.4424 23.2075L78.037 23.9805L77.185 25.6055C77.0996 25.7287 77.0439 25.8702 77.0225 26.0186C77.001 26.1671 77.0143 26.3185 77.0613 26.4609C77.1884 26.7357 77.3602 27.0346 77.5079 27.3266L78.4424 29.1405C78.5322 29.3111 78.5739 29.5029 78.563 29.6954C78.5522 29.8878 78.4891 30.0737 78.3805 30.233C78.2708 30.3998 78.115 30.5311 77.932 30.611C77.749 30.6909 77.5468 30.7159 77.3499 30.6831L75.1649 30.3086L74.6118 30.2158C74.4394 30.1715 74.2586 30.1715 74.0862 30.2158C73.9155 30.2581 73.7612 30.3502 73.643 30.4804L73.2411 30.8926L71.6505 32.521C71.5099 32.6684 71.3298 32.7721 71.1317 32.8196C70.9337 32.8672 70.7261 32.8565 70.5339 32.789C70.3488 32.717 70.1872 32.595 70.0671 32.4368C69.9471 32.2785 69.8732 32.09 69.8537 31.8923C69.7541 31.1743 69.651 30.4701 69.5514 29.7795C69.5285 29.6032 69.5044 29.4314 69.4792 29.2642C69.4703 29.101 69.4331 28.9406 69.3693 28.7901C69.3013 28.6515 69.1983 28.5331 69.0704 28.4466C68.9468 28.3641 68.775 28.2954 68.6341 28.2198L66.8889 27.3507L66.4698 27.1411C66.3191 27.0767 66.1825 26.9833 66.0678 26.8663C65.9557 26.7479 65.8732 26.6045 65.8272 26.4481C65.7812 26.2916 65.773 26.1264 65.8033 25.9662C65.8305 25.8117 65.8927 25.6655 65.9849 25.5387C66.0772 25.4119 66.1972 25.3078 66.3358 25.2344L67.0916 24.86L68.5139 24.1729C68.7355 24.0752 68.9492 23.9604 69.1529 23.8293C69.3314 23.6934 69.4537 23.4965 69.4964 23.2762C69.5617 22.8296 69.627 22.407 69.6888 22.0085C69.7507 21.61 69.8056 21.2459 69.8571 20.9057C69.8741 20.588 69.9522 20.2766 70.0873 19.9885C70.2319 19.7716 70.4547 19.6189 70.7091 19.5625C70.8929 19.5194 71.0852 19.5314 71.2623 19.5968C71.3696 19.6366 71.4687 19.696 71.5543 19.772C71.5742 19.7972 71.5926 19.8236 71.6092 19.8511Z" fill="#942DD9"/>
<path d="M40.6506 51.8868L41.6194 52.8831C41.6723 52.9368 41.7374 52.977 41.8092 53.0004C41.8809 53.0237 41.9572 53.0294 42.0317 53.0171L43.4058 52.7835C43.493 52.767 43.583 52.776 43.6653 52.8092C43.7475 52.8423 43.8185 52.8984 43.8699 52.9707C43.9212 53.0431 43.9507 53.1286 43.955 53.2172C43.9592 53.3057 43.9379 53.3937 43.8937 53.4706L43.2444 54.7005C43.2097 54.7673 43.1917 54.8416 43.1917 54.9169C43.1917 54.9922 43.2097 55.0664 43.2444 55.1333L43.8902 56.3632C43.9333 56.4405 43.9535 56.5285 43.9485 56.6168C43.9435 56.7052 43.9136 56.7903 43.8621 56.8623C43.8106 56.9343 43.7398 56.9901 43.6578 57.0234C43.5758 57.0567 43.486 57.066 43.399 57.0503L42.0248 56.8133C41.9503 56.8003 41.8739 56.8058 41.802 56.8291C41.7302 56.8525 41.6651 56.893 41.6125 56.9472L40.6506 57.916C40.5895 57.9775 40.5125 58.0208 40.4281 58.041C40.3438 58.0612 40.2556 58.0576 40.1732 58.0305C40.0908 58.0034 40.0176 57.9539 39.9618 57.8876C39.906 57.8213 39.8697 57.7407 39.857 57.6549L39.6577 56.2808C39.646 56.2073 39.6168 56.1378 39.5726 56.078C39.5283 56.0182 39.4703 55.9699 39.4035 55.9372L38.1599 55.3223C38.0825 55.2834 38.0175 55.2237 37.9721 55.15C37.9266 55.0763 37.9026 54.9914 37.9026 54.9049C37.9026 54.8183 37.9266 54.7334 37.9721 54.6597C38.0175 54.586 38.0825 54.5264 38.1599 54.4875L39.407 53.8725C39.4743 53.8405 39.5327 53.7925 39.5771 53.7326C39.6214 53.6726 39.6503 53.6027 39.6612 53.529L39.8639 52.1548C39.8752 52.0691 39.9103 51.9883 39.9651 51.9215C40.0199 51.8547 40.0923 51.8046 40.1741 51.7767C40.2559 51.7489 40.3438 51.7444 40.428 51.7639C40.5122 51.7833 40.5893 51.8259 40.6506 51.8868Z" fill="#353535"/>
<path d="M80.0451 65.9721L80.258 67.3463C80.2702 67.4205 80.3003 67.4907 80.3459 67.5506C80.3914 67.6104 80.4509 67.6583 80.5191 67.6898L81.7697 68.291C81.8471 68.3294 81.9124 68.3886 81.958 68.4621C82.0036 68.5355 82.0278 68.6203 82.0278 68.7067C82.0278 68.7932 82.0036 68.8779 81.958 68.9514C81.9124 69.0248 81.8471 69.0841 81.7697 69.1224L80.5295 69.7546C80.4636 69.7876 80.4067 69.8361 80.3636 69.896C80.3205 69.9558 80.2926 70.0251 80.2821 70.0981L80.0966 71.4723C80.0845 71.5579 80.0489 71.6385 79.9937 71.7051C79.9385 71.7717 79.8659 71.8217 79.784 71.8495C79.7021 71.8773 79.6141 71.8818 79.5297 71.8625C79.4454 71.8432 79.3681 71.8009 79.3064 71.7402L78.3239 70.7543C78.2704 70.7015 78.2051 70.6624 78.1333 70.6403C78.0615 70.6182 77.9855 70.6137 77.9116 70.6272L76.5374 70.8779C76.4499 70.8953 76.3591 70.8872 76.276 70.8545C76.1929 70.8219 76.1208 70.7662 76.0684 70.6939C76.016 70.6216 75.9854 70.5358 75.9802 70.4466C75.9751 70.3575 75.9956 70.2687 76.0393 70.1909L76.6714 68.9541C76.7069 68.8875 76.7255 68.8131 76.7255 68.7377C76.7255 68.6622 76.7069 68.5878 76.6714 68.5212L76.0359 67.3291C75.9923 67.2528 75.9713 67.1657 75.9753 67.0779C75.9794 66.9901 76.0083 66.9052 76.0587 66.8332C76.1091 66.7612 76.1789 66.705 76.26 66.6712C76.3411 66.6373 76.4302 66.6272 76.5168 66.642L77.891 66.8619C77.9652 66.8735 78.0411 66.8671 78.1122 66.8432C78.1834 66.8193 78.2477 66.7785 78.2998 66.7245L79.2583 65.7179C79.3192 65.6584 79.3952 65.6167 79.478 65.5973C79.5609 65.5779 79.6474 65.5814 79.7284 65.6076C79.8094 65.6338 79.8817 65.6815 79.9375 65.7458C79.9933 65.81 80.0305 65.8883 80.0451 65.9721Z" fill="#D9D4FF"/>
<path fill-rule="evenodd" clip-rule="evenodd" d="M149.513 127.133L143.939 99.4585L126.562 98.0156L124.789 130.793L135.364 131.704L136.515 109.792L139.455 131.305L146.982 130.582C147.823 129.486 148.656 128.351 149.513 127.133Z" fill="#353535"/>
</g>
<defs>
<clipPath id="clip0_4_403">
<rect width="171.773" height="153" fill="white" transform="translate(0.113525 3)"/>
</clipPath>
</defs>
</svg>
