<svg width="229" height="228" viewBox="0 0 229 228" fill="none" xmlns="http://www.w3.org/2000/svg">
<path d="M197.555 197.405C191.832 203.31 186.703 206.779 182.788 209.397C144.533 234.942 100.81 227.575 87.2901 225.064C65.4783 221.001 47.0691 218.143 31.245 203.847C-4.70618 171.373 -2.95529 103.625 24.5139 61.6527C27.768 56.6725 55.1959 16.022 99.0178 10.2903C100.092 10.1499 100.893 10.0673 101.586 9.99301C108.367 9.27448 150.372 5.48363 184.63 34.1834C189.536 38.2881 197.423 45.7047 204.741 57.0029C231.499 98.3306 231.59 162.329 197.555 197.405Z" fill="url(#paint0_linear_809_368)"/>
<path d="M218.079 108.654C217.938 107.87 216.848 107.795 216.6 108.547C214.23 115.856 207.425 134.827 197.72 144.655C181.913 160.653 170.771 187.213 179.914 201.559C179.914 201.559 232.953 193.953 218.079 108.654Z" fill="#91B3FA"/>
<path d="M216.204 119.151C216.204 119.151 216.195 119.234 216.171 119.383C216.146 119.539 216.104 119.779 216.047 120.068C215.931 120.654 215.758 121.513 215.518 122.604C215.031 124.784 214.304 127.881 213.313 131.573C212.809 133.415 212.256 135.413 211.62 137.511C211 139.609 210.307 141.814 209.572 144.093C208.812 146.356 208.011 148.694 207.135 151.047C206.92 151.634 206.698 152.228 206.483 152.823C206.26 153.409 206.029 154.004 205.806 154.599C205.36 155.788 204.872 156.969 204.402 158.15C203.931 159.331 203.427 160.504 202.931 161.677C202.411 162.833 201.899 163.989 201.387 165.137C200.85 166.269 200.338 167.408 199.793 168.515C199.52 169.068 199.248 169.613 198.984 170.159C198.719 170.704 198.447 171.24 198.166 171.769C197.068 173.9 195.969 175.932 194.854 177.823C193.747 179.722 192.641 181.473 191.6 183.084C191.063 183.877 190.551 184.636 190.064 185.363C189.568 186.082 189.065 186.742 188.61 187.37C188.379 187.684 188.156 187.99 187.941 188.279C187.718 188.568 187.495 188.84 187.289 189.105C186.868 189.633 186.488 190.12 186.141 190.558C185.431 191.425 184.844 192.069 184.456 192.532C184.068 192.986 183.853 193.226 183.853 193.226C183.804 193.284 183.713 193.292 183.663 193.242C183.605 193.193 183.597 193.11 183.647 193.052V193.044C183.647 193.044 183.845 192.796 184.217 192.334C184.588 191.863 185.142 191.194 185.827 190.319C186.158 189.873 186.529 189.377 186.926 188.84C187.124 188.576 187.33 188.295 187.553 188.006C187.76 187.709 187.974 187.403 188.197 187.081C188.635 186.445 189.114 185.768 189.593 185.049C190.064 184.323 190.568 183.555 191.08 182.762C192.087 181.143 193.161 179.384 194.226 177.476C195.292 175.576 196.382 173.545 197.464 171.422C197.737 170.894 198.009 170.357 198.265 169.812C198.529 169.267 198.794 168.721 199.066 168.168C199.603 167.07 200.107 165.93 200.635 164.798C201.139 163.65 201.643 162.502 202.155 161.346C202.642 160.173 203.154 159.017 203.633 157.836C204.112 156.655 204.6 155.482 205.046 154.301C205.277 153.715 205.508 153.12 205.731 152.534C205.954 151.948 206.169 151.353 206.392 150.767C207.267 148.421 208.077 146.1 208.845 143.846C209.605 141.583 210.331 139.402 210.976 137.313C211.636 135.231 212.214 133.249 212.743 131.416C213.263 129.582 213.742 127.898 214.139 126.403C214.543 124.908 214.874 123.595 215.138 122.513C215.402 121.431 215.609 120.58 215.733 120.002C215.799 119.713 215.84 119.498 215.873 119.35C215.898 119.201 215.914 119.118 215.914 119.118V119.102C215.931 119.027 215.997 118.978 216.071 118.994C216.162 119.011 216.212 119.077 216.204 119.151Z" fill="#BDD0FB"/>
<path d="M181.375 208.216C181.375 208.216 181.557 198.561 191.253 188.758C200.255 179.665 222.381 158.629 227.46 146.993C227.683 146.481 228.451 146.629 228.46 147.191C228.534 153.22 227.543 168.342 217.153 183.398C203.765 202.815 181.375 208.216 181.375 208.216Z" fill="#BDD0FB"/>
<path d="M223.983 157.804C223.983 157.804 223.967 158.052 223.893 158.514C223.86 158.746 223.81 159.035 223.744 159.365C223.686 159.704 223.587 160.083 223.488 160.505C223.389 160.934 223.248 161.397 223.1 161.909C222.951 162.421 222.753 162.958 222.563 163.536C222.348 164.106 222.117 164.717 221.861 165.353C221.58 165.98 221.307 166.649 220.969 167.327C220.316 168.689 219.532 170.126 218.623 171.596C218.161 172.323 217.707 173.1 217.17 173.826C216.641 174.561 216.129 175.338 215.534 176.073C214.395 177.584 213.115 179.054 211.768 180.508C211.075 181.218 210.389 181.945 209.687 182.655C208.969 183.349 208.25 184.034 207.532 184.728C206.078 186.107 204.616 187.478 203.154 188.8C201.693 190.121 200.239 191.401 198.827 192.64C197.406 193.863 196.027 195.044 194.73 196.159C193.425 197.273 192.186 198.322 191.072 199.313C189.948 200.296 188.932 201.213 188.057 202.047C187.619 202.468 187.231 202.873 186.859 203.245C186.504 203.625 186.182 203.988 185.885 204.302C185.332 204.971 184.886 205.483 184.63 205.871C184.357 206.251 184.217 206.449 184.217 206.449L184.208 206.457C184.167 206.515 184.076 206.532 184.018 206.49C183.961 206.449 183.944 206.367 183.985 206.309C183.985 206.309 184.117 206.094 184.374 205.698C184.613 205.293 185.026 204.731 185.563 204.029C185.844 203.691 186.157 203.311 186.504 202.914C186.868 202.526 187.239 202.097 187.669 201.651C188.52 200.775 189.494 199.792 190.592 198.777C191.691 197.752 192.897 196.662 194.177 195.514C195.457 194.375 196.803 193.161 198.199 191.913C199.595 190.666 201.024 189.37 202.469 188.04C203.187 187.371 203.914 186.702 204.641 186.025C205.359 185.348 206.086 184.662 206.813 183.977C207.532 183.283 208.25 182.589 208.969 181.895C209.662 181.193 210.356 180.491 211.033 179.798C212.371 178.377 213.643 176.94 214.799 175.486C215.402 174.776 215.923 174.025 216.46 173.314C217.005 172.604 217.467 171.861 217.954 171.159C218.904 169.738 219.705 168.342 220.416 167.037C220.771 166.385 221.076 165.741 221.382 165.13C221.663 164.51 221.927 163.924 222.175 163.371C222.637 162.247 223.009 161.264 223.273 160.43C223.405 160.017 223.521 159.646 223.612 159.315C223.711 158.993 223.777 158.712 223.835 158.481C223.942 158.027 223.983 157.779 223.983 157.779C223.983 157.771 223.992 157.763 224 157.763C223.975 157.787 223.983 157.796 223.983 157.804Z" fill="url(#paint1_linear_809_368)"/>
<path d="M48.2996 26.5117C44.8061 36.9758 26.942 98.7279 81.8722 125.9C81.8722 125.9 104.097 88.2804 49.8936 26.1896C49.4145 25.6445 48.5308 25.8262 48.2996 26.5117Z" fill="#BDD0FB"/>
<path d="M52.1398 37.0175C52.1398 37.0175 52.5693 42.2867 53.5191 50.1492C53.7586 52.1148 54.0311 54.2456 54.3284 56.492C54.634 58.7385 54.9644 61.1088 55.3443 63.5617C55.7077 66.0063 56.1206 68.5336 56.5584 71.1021C56.7813 72.3823 57.0126 73.6706 57.2356 74.9673C57.4834 76.2557 57.7063 77.5606 57.9624 78.8573C58.2184 80.1539 58.4662 81.4506 58.7387 82.739C59.003 84.0274 59.2755 85.3075 59.5564 86.5794C59.6968 87.2153 59.8372 87.843 59.9776 88.4707C60.1262 89.0983 60.2749 89.7178 60.4153 90.3372C60.6961 91.576 61.0099 92.7983 61.3072 93.9959C62.5213 98.7943 63.818 103.221 65.0898 106.962C65.3954 107.904 65.7258 108.788 66.0314 109.638C66.1883 110.06 66.3369 110.472 66.4773 110.877C66.626 111.274 66.7829 111.662 66.9316 112.033C67.2289 112.777 67.4932 113.479 67.7657 114.115C68.0383 114.751 68.2943 115.337 68.5256 115.857C68.6412 116.122 68.7486 116.369 68.8559 116.601C68.9633 116.832 69.0706 117.047 69.1698 117.245C69.3597 117.649 69.5249 117.988 69.657 118.269C69.9213 118.822 70.0617 119.12 70.0617 119.12L70.07 119.144C70.2021 119.417 70.0865 119.747 69.814 119.879C69.5414 120.012 69.211 119.896 69.0789 119.623C69.0789 119.623 68.9385 119.326 68.6742 118.756C68.5421 118.475 68.3769 118.129 68.1869 117.716C68.0878 117.509 67.9887 117.294 67.8731 117.055C67.774 116.815 67.6666 116.568 67.551 116.295C67.3198 115.758 67.072 115.164 66.7994 114.519C66.5269 113.875 66.2709 113.165 65.9735 112.405C65.8249 112.025 65.6762 111.637 65.5276 111.232C65.3872 110.828 65.2385 110.415 65.0816 109.985C64.776 109.126 64.4539 108.234 64.1566 107.285C62.9012 103.51 61.6293 99.0421 60.4483 94.2189C60.1592 93.0131 59.8537 91.7908 59.5811 90.5437C59.4407 89.9242 59.3003 89.2966 59.1517 88.6606C59.0195 88.0329 58.8791 87.397 58.747 86.7611C58.4662 85.4892 58.2101 84.2008 57.9541 82.9041C57.6898 81.6157 57.4503 80.3108 57.2026 79.0142C56.9548 77.7175 56.7318 76.4126 56.5005 75.116C56.2858 73.8193 56.0628 72.5227 55.8481 71.2343C55.4351 68.6657 55.0387 66.1302 54.6918 63.6773C54.3367 61.2244 54.0229 58.8458 53.7338 56.5912C53.4447 54.3365 53.1887 52.2057 52.9657 50.2318C52.0737 42.3445 51.6856 37.067 51.6856 37.067C51.6773 36.9349 51.7682 36.8275 51.9003 36.8193C52.0159 36.7945 52.1316 36.8936 52.1398 37.0175Z" fill="url(#paint2_linear_809_368)"/>
<path d="M19.3849 39.3867C19.4014 38.2965 20.8715 37.9579 21.367 38.9242C26.1325 48.3311 39.4046 72.6124 54.6671 83.8611C79.51 102.188 100.281 135.826 90.9321 157.225C90.9321 157.233 17.3945 158.233 19.3849 39.3867Z" fill="#91B3FA"/>
<path d="M24.4804 53.1459C24.4804 53.1459 24.5134 53.245 24.5795 53.4515C24.6538 53.6497 24.7529 53.9305 24.9099 54.3104C25.2072 55.0702 25.6614 56.1852 26.2395 57.5975C26.8259 59.0097 27.5527 60.7193 28.4116 62.6602C29.2623 64.6093 30.2699 66.7897 31.3518 69.1765C32.4585 71.5468 33.6643 74.1153 34.994 76.8078C36.3072 79.5084 37.7608 82.3165 39.2639 85.2236C40.7918 88.1225 42.3775 91.104 44.0706 94.0937C44.4918 94.8453 44.913 95.5968 45.3425 96.3484C45.7802 97.1 46.2097 97.8433 46.6474 98.5948C47.5063 100.106 48.4231 101.593 49.315 103.088C50.207 104.583 51.1568 106.053 52.0652 107.531C52.9985 108.993 53.9318 110.455 54.8733 111.892C55.8313 113.312 56.7646 114.741 57.7226 116.12C58.2016 116.814 58.6807 117.5 59.1597 118.177C59.3992 118.515 59.6304 118.854 59.8699 119.193C60.1095 119.523 60.3572 119.853 60.5967 120.184C61.0758 120.844 61.5548 121.497 62.0338 122.149C62.2733 122.471 62.5046 122.794 62.7441 123.116C62.9836 123.429 63.2313 123.743 63.4708 124.057C64.4371 125.296 65.3374 126.543 66.2954 127.699C66.7662 128.286 67.2287 128.856 67.6829 129.425C67.9142 129.706 68.1371 129.987 68.3601 130.268C68.5914 130.54 68.8226 130.813 69.0456 131.086C69.9624 132.159 70.8296 133.208 71.6968 134.183C72.5722 135.149 73.4146 136.082 74.2157 136.966C75.0251 137.841 75.818 138.642 76.553 139.419C76.9247 139.799 77.2798 140.17 77.6267 140.534C77.9818 140.881 78.3287 141.211 78.659 141.533C79.3198 142.177 79.9227 142.764 80.476 143.292C81.591 144.333 82.4994 145.117 83.1023 145.671C83.7135 146.216 84.0356 146.513 84.0356 146.513H84.0439C84.1017 146.563 84.1017 146.654 84.0521 146.703C84.0026 146.761 83.92 146.761 83.8622 146.72C83.8622 146.72 83.5318 146.439 82.9041 145.902C82.2847 145.365 81.3515 144.605 80.2117 143.581C79.6501 143.061 79.0307 142.483 78.3535 141.855C78.0148 141.541 77.668 141.211 77.2963 140.872C76.9412 140.517 76.5778 140.154 76.1979 139.782C75.4463 139.022 74.6369 138.229 73.8028 137.371C72.9851 136.495 72.1345 135.57 71.2425 134.604C70.3588 133.629 69.4751 132.589 68.5418 131.523C68.3106 131.259 68.0793 130.986 67.8398 130.714C67.6086 130.433 67.3773 130.152 67.1461 129.871C66.6836 129.31 66.2128 128.732 65.7338 128.154C63.826 125.825 61.9017 123.306 59.9691 120.654C59.7296 120.324 59.4818 119.994 59.234 119.655C58.9945 119.317 58.755 118.978 58.5155 118.639C58.0365 117.962 57.5492 117.268 57.0619 116.583C56.0874 115.204 55.1541 113.775 54.1795 112.346C53.238 110.909 52.2882 109.447 51.3467 107.977C50.8842 107.234 50.43 106.499 49.9675 105.755C49.505 105.012 49.0425 104.269 48.5965 103.517C47.7045 102.014 46.796 100.519 45.9289 98.9995C45.4911 98.248 45.0617 97.4881 44.6239 96.7366C44.2027 95.9768 43.7815 95.2252 43.3603 94.4736C41.6755 91.4674 40.0898 88.4694 38.5784 85.5622C37.0835 82.6386 35.6713 79.8058 34.3829 77.0886C33.0779 74.3796 31.8969 71.7946 30.815 69.4077C28.6677 64.6176 27.0076 60.5789 25.8762 57.7296C25.3145 56.3091 24.8933 55.1776 24.6125 54.4095C24.4721 54.0296 24.3648 53.7158 24.2987 53.5175C24.2326 53.3193 24.1996 53.212 24.1996 53.212C24.1748 53.1376 24.2161 53.0633 24.2904 53.0385C24.3648 53.0137 24.4391 53.055 24.4639 53.1211L24.4804 53.1459Z" fill="#BDD0FB"/>
<path d="M92.105 158.902C92.105 158.902 88.7601 144.159 70.7804 132.225C54.0974 121.15 13.5047 95.9438 2.01647 79.7315C1.50442 79.013 0.3812 79.4837 0.554638 80.3509C2.35509 89.6175 8.68969 112.47 29.3866 132.242C56.0795 157.737 92.105 158.902 92.105 158.902Z" fill="#BDD0FB"/>
<path d="M10.8288 95.1673C10.8288 95.1673 10.9609 95.539 11.2665 96.1997C11.4151 96.5301 11.6051 96.943 11.8529 97.4138C11.9768 97.6533 12.0924 97.9093 12.241 98.1736C12.3897 98.4379 12.5384 98.7269 12.7035 99.0242C13.0174 99.6272 13.4221 100.271 13.835 100.982C14.2562 101.684 14.76 102.419 15.2721 103.22C15.8172 103.996 16.4036 104.822 17.023 105.681C17.3451 106.102 17.6837 106.532 18.0223 106.978C18.3692 107.415 18.6995 107.878 19.0877 108.324C20.5743 110.124 22.2591 112.016 24.1504 113.899C24.6295 114.369 25.1085 114.84 25.604 115.319C25.8518 115.559 26.083 115.806 26.3473 116.038C26.6033 116.269 26.8676 116.5 27.1237 116.74C27.644 117.21 28.1725 117.681 28.7011 118.16C28.9737 118.4 29.2297 118.647 29.5105 118.87C29.7913 119.102 30.0721 119.325 30.3529 119.556C32.5911 121.431 34.9944 123.239 37.5051 125.007C38.777 125.858 40.0572 126.725 41.3456 127.575C42.6587 128.41 43.9884 129.244 45.3098 130.078C46.6395 130.895 47.9692 131.713 49.2907 132.523C50.6203 133.324 51.95 134.125 53.2632 134.918C54.5846 135.702 55.8978 136.479 57.1945 137.247C58.4994 138.006 59.7878 138.75 61.0514 139.485C63.5869 140.947 66.048 142.359 68.3688 143.705C70.6978 145.051 72.903 146.315 74.9181 147.529C76.9416 148.727 78.7503 149.899 80.336 150.965C81.1289 151.502 81.8474 152.03 82.5246 152.509C83.1853 153.005 83.78 153.484 84.3251 153.905C85.374 154.797 86.1833 155.507 86.6871 156.052C87.2075 156.573 87.48 156.853 87.48 156.853C87.5295 156.911 87.5295 156.994 87.48 157.052C87.4304 157.101 87.3396 157.101 87.29 157.052L87.2818 157.043C87.2818 157.043 87.001 156.779 86.4641 156.275C85.9521 155.755 85.1097 155.094 84.0525 154.235C83.4992 153.831 82.9045 153.376 82.2356 152.906C81.5501 152.451 80.8233 151.939 80.0222 151.435C78.4199 150.42 76.5782 149.321 74.5465 148.157C72.5231 146.984 70.3014 145.753 67.9559 144.448C65.6103 143.144 63.1326 141.764 60.5641 140.344C59.2922 139.617 57.9956 138.874 56.6824 138.13C55.3775 137.371 54.0561 136.602 52.7264 135.826C51.4049 135.041 50.067 134.249 48.729 133.439C47.3994 132.622 46.0614 131.804 44.7317 130.986C43.4103 130.152 42.0889 129.318 40.7674 128.492C39.4625 127.625 38.1824 126.741 36.894 125.874C34.375 124.082 31.9469 122.24 29.7252 120.308C29.4444 120.068 29.1636 119.837 28.8828 119.597C28.602 119.366 28.346 119.11 28.0734 118.862C27.5449 118.367 27.0163 117.879 26.496 117.4C25.4306 116.459 24.5056 115.427 23.5558 114.468C21.6893 112.519 20.0375 110.562 18.5839 108.712C18.204 108.258 17.8819 107.779 17.5433 107.333C17.2129 106.878 16.8826 106.433 16.5687 106.003C16.2549 105.565 15.9823 105.119 15.6933 104.698C15.4125 104.269 15.1399 103.864 14.8839 103.459C14.3966 102.633 13.9176 101.882 13.5212 101.155C13.133 100.428 12.7531 99.7676 12.4558 99.1481C12.1502 98.537 11.8777 97.9836 11.6712 97.4963C11.4482 97.0091 11.283 96.5879 11.1509 96.2492C10.8783 95.5638 10.7627 95.1921 10.7627 95.1921C10.7627 95.1838 10.7627 95.1756 10.771 95.1673C10.8122 95.1591 10.8288 95.1591 10.8288 95.1673Z" fill="url(#paint3_linear_809_368)"/>
<path d="M182.623 211.578H38.9917C33.194 211.578 28.4946 206.879 28.4946 201.081V107.548C28.4946 101.973 32.8471 97.3733 38.4136 97.0677L187.587 88.7509C193.83 88.404 198.992 93.5576 198.654 99.8014L193.112 201.642C192.798 207.217 188.198 211.578 182.623 211.578Z" fill="url(#paint4_linear_809_368)"/>
<path d="M114.156 155.145L192.666 89.7585C191.138 89.0317 189.404 88.6518 187.57 88.7591L38.4055 97.0676C35.8369 97.208 33.5327 98.2652 31.79 99.9087L90.5524 154.558C96.9366 160.488 107.425 160.752 114.156 155.145Z" fill="url(#paint5_linear_809_368)"/>
<path opacity="0.65" d="M103.246 151.899C99.34 151.899 95.4583 150.504 92.3364 147.745L70.1942 128.196C69.5417 127.626 69.4839 126.635 70.0538 125.983C70.6236 125.33 71.623 125.272 72.2672 125.842L94.4094 145.391C99.1087 149.546 105.955 149.884 111.051 146.225L122.523 137.983C123.225 137.479 124.208 137.636 124.711 138.338C125.215 139.04 125.058 140.023 124.356 140.527L112.885 148.769C109.977 150.867 106.6 151.899 103.246 151.899Z" fill="white"/>
<path opacity="0.65" d="M63.0005 121.324C62.6288 121.324 62.2572 121.192 61.9598 120.927L58.9784 118.293C58.3259 117.723 58.2681 116.732 58.838 116.079C59.4078 115.427 60.3989 115.369 61.0514 115.939L64.0328 118.574C64.6853 119.143 64.7431 120.135 64.1732 120.787C63.8594 121.142 63.4299 121.324 63.0005 121.324Z" fill="white"/>
<path d="M84.6469 57.6387L78.6592 89.7247L97.3409 73.2976L84.6469 57.6387Z" fill="#B69EFF"/>
<path d="M220.614 67.3186L90.7668 73.6202C87.4302 73.7854 84.6387 71.126 84.6387 67.7811V14.3623C84.6387 8.55626 89.2472 3.79911 95.0532 3.61742L212.082 0C220.796 0 227.865 7.06139 227.865 15.7828V59.7121C227.865 63.7755 224.677 67.1204 220.614 67.3186Z" fill="#B69EFF"/>
<path opacity="0.85" d="M94.6569 71.3244C92.6252 71.3244 90.7091 70.5563 89.2308 69.1441C87.6533 67.6409 86.7861 65.6175 86.7861 63.4371V15.2958C86.7861 9.69622 91.2707 5.17857 97.0024 5.00514L210.307 1.58594C218.814 1.58594 225.726 8.33349 225.726 16.6337V58.1432C225.726 62.0579 222.588 65.2789 218.582 65.4688L95.0451 71.3162C94.9129 71.3244 94.789 71.3244 94.6569 71.3244ZM210.307 1.86674L97.0107 5.28594C91.4277 5.45112 87.0587 9.85314 87.0587 15.2958V63.4371C87.0587 65.5349 87.8928 67.4923 89.4125 68.9459C90.9321 70.3994 92.9225 71.1427 95.0203 71.0436L218.558 65.1963C222.414 65.0146 225.445 61.9175 225.445 58.1432V16.6337C225.454 8.49041 218.657 1.86674 210.307 1.86674Z" fill="white"/>
<path d="M109.156 38.2565C109.069 36.1482 109.458 34.3021 110.323 32.7181C111.214 31.1049 112.402 29.8456 113.885 28.9402C115.395 28.0056 117.05 27.5015 118.849 27.4279C120.255 27.3704 121.527 27.5014 122.666 27.8208C123.806 28.1403 124.838 28.6049 125.764 29.2146C126.717 29.7951 127.547 30.4651 128.254 31.2245L128.012 25.3215C126.734 24.3601 125.367 23.6417 123.912 23.1663C122.457 22.6908 120.647 22.4974 118.482 22.5859C116.318 22.6744 114.309 23.1226 112.455 23.9305C110.63 24.7372 109.057 25.8575 107.736 27.2912C106.415 28.7249 105.399 30.3995 104.689 32.315C104.006 34.2013 103.71 36.2548 103.801 38.4755C103.892 40.6961 104.355 42.7326 105.191 44.5849C106.054 46.408 107.202 47.98 108.636 49.3011C110.07 50.6221 111.729 51.6101 113.614 52.2651C115.527 52.9189 117.566 53.2016 119.731 53.113C121.895 53.0245 123.683 52.6839 125.095 52.0912C126.507 51.4985 127.81 50.6708 129.006 49.6083L128.764 43.7053C128.122 44.5199 127.35 45.2695 126.449 45.954C125.575 46.6092 124.583 47.1425 123.473 47.5539C122.364 47.9653 121.107 48.1997 119.701 48.2572C117.902 48.3308 116.212 47.9776 114.632 47.1975C113.078 46.3882 111.791 45.216 110.771 43.6809C109.779 42.1447 109.241 40.3366 109.156 38.2565ZM136.672 38.3559L157.712 37.4953L157.524 32.8994L136.484 33.7599L136.672 38.3559ZM153.854 21.646L155.061 51.1612L160.036 50.9577L158.829 21.4425L153.854 21.646ZM134.037 22.4565L135.244 51.9717L140.219 51.7683L139.012 22.253L134.037 22.4565ZM169.851 42.954L185.452 42.3159L184.31 38.1391L170.607 38.6996L169.851 42.954ZM177.012 29.0614L182.141 39.8328L182.317 41.0504L186.69 49.8676L192.298 49.6382L176.604 19.0684L163.458 50.8178L169.066 50.5884L172.778 41.1871L172.817 40.0874L177.012 29.0614ZM188.796 24.8205L196.555 24.5032L197.574 49.4225L202.591 49.2172L201.572 24.298L209.373 23.9789L209.185 19.383L188.608 20.2246L188.796 24.8205Z" fill="white"/>
<path d="M42.5592 128.922C42.4848 129.062 37.9507 132.399 37.9507 132.399C37.9507 132.399 38.95 139.568 43.0217 142.401C47.498 145.514 53.8161 139.84 53.8161 139.84C53.8161 139.84 58.8458 141.038 61.5217 130.566C62.1329 128.162 58.5898 127.964 54.3199 128.402C48.8029 128.972 42.5592 128.922 42.5592 128.922Z" fill="#1B1B1C"/>
<path d="M31.0794 156.871C33.1937 155.417 35.531 154.327 38.0004 153.65C38.9337 153.394 43.9551 154.856 47.0605 154.781C51.3221 154.682 55.658 152.741 59.1763 153.617C62.6616 154.484 65.5192 155.624 67.171 156.797C72.1098 160.307 75.0087 166.856 76.7679 173.339C73.423 176.775 69.2192 178.295 69.2192 178.295L68.4429 209.811L49.8024 219.358L28.5274 208.679L29.2872 177.882C29.2872 177.882 22.5314 174.735 22.0359 173.595C21.5486 172.439 25.1247 160.976 31.0794 156.871Z" fill="url(#paint6_linear_809_368)"/>
<path d="M22.3578 173.446C22.3578 173.446 13.306 198.545 33.9451 208.852C38.2315 208.282 36.5797 201.163 36.5797 201.163C36.5797 201.163 27.6105 199.181 30.3029 178.245C27.8335 176.213 22.3578 173.446 22.3578 173.446Z" fill="url(#paint7_linear_809_368)"/>
<path d="M76.3385 173.446C76.3385 173.446 82.5658 199.644 64.7512 208.852C60.4648 208.282 62.1166 201.163 62.1166 201.163C62.1166 201.163 69.3432 197.604 68.3934 178.245C70.8629 176.213 76.3385 173.446 76.3385 173.446Z" fill="url(#paint8_linear_809_368)"/>
<path d="M67.3524 210.62H30.088C29.097 210.62 28.2876 209.811 28.2876 208.819V184.819C28.2876 183.828 29.097 183.019 30.088 183.019H67.3606C68.3517 183.019 69.1611 183.828 69.1611 184.819V208.819C69.1528 209.811 68.3435 210.62 67.3524 210.62Z" fill="url(#paint9_linear_809_368)"/>
<path d="M87.5461 218.92C87.3975 218.879 87.2405 218.837 87.0836 218.804C82.4091 217.731 71.5981 218.309 71.5981 218.309L71.1604 219.498L70.4336 225.42C70.4336 225.42 80.7242 227.278 85.8035 227.27C86.3238 227.27 86.7946 227.195 87.224 227.055C91.0231 225.866 91.4774 220.027 87.5461 218.92Z" fill="url(#paint10_linear_809_368)"/>
<path d="M68.4843 217.97L70.3178 218.044C71.3006 218.085 72.2256 218.564 72.8863 219.374C73.5471 220.183 73.8857 221.249 73.8279 222.339C73.7783 223.206 73.4232 224.024 72.8368 224.593C72.2504 225.172 71.4741 225.461 70.6977 225.403L67.8979 225.205L68.4843 217.97Z" fill="url(#paint11_linear_809_368)"/>
<path d="M22.8451 219.416L22.4322 218.21C22.4322 218.21 11.6377 217.302 6.9384 218.235C6.77322 218.268 6.6163 218.301 6.4759 218.334C2.51987 219.317 2.82545 225.172 6.59978 226.477C7.02925 226.626 7.50001 226.717 8.02032 226.733C13.0913 226.89 23.4315 225.354 23.4315 225.354L22.8451 219.416Z" fill="url(#paint12_linear_809_368)"/>
<path d="M25.5457 217.971L23.7122 217.995C22.7294 218.004 21.7879 218.458 21.1107 219.243C20.4334 220.027 20.0618 221.093 20.0948 222.183C20.1196 223.05 20.4582 223.876 21.0281 224.47C21.5979 225.065 22.366 225.379 23.1506 225.346L25.9587 225.23L25.5457 217.971Z" fill="url(#paint13_linear_809_368)"/>
<path d="M88.388 200.246C86.2654 195.365 81.0788 194.572 76.6603 196.852C76.5859 196.951 48.6212 211.28 23.96 217.565C24.662 219.828 25.0254 222.24 25.108 224.602C25.1245 225.13 25.1162 225.651 25.0832 226.163C43.9962 225.188 64.5196 218.887 82.1525 213.345C87.6281 211.586 90.7418 205.656 88.388 200.246Z" fill="url(#paint14_linear_809_368)"/>
<path d="M68.6247 224.982C68.5503 222.256 69.0789 219.713 70.2187 217.359C70.2517 217.251 70.293 217.144 70.326 217.045C68.9137 216.607 67.0968 216.021 64.7099 215.203C47.201 209.207 33.838 203.162 21.0945 196.191C16.1391 193.482 10.5065 195.299 8.9208 201.163C7.50852 206.391 10.6139 210.859 15.3297 212.428C29.4443 217.128 22.0938 215.823 26.7023 217.301C39.0824 221.125 54.4854 224.618 68.6577 225.568C68.6412 225.378 68.6247 225.18 68.6247 224.982Z" fill="url(#paint15_linear_809_368)"/>
<path d="M38.0088 153.649C38.0088 153.649 39.8918 161.809 49.0345 161.644C58.3506 161.471 59.1764 153.625 59.1764 153.625L53.0896 152.32L52.5776 145.539L43.4267 146.216L43.2532 152.658L38.0088 153.649Z" fill="url(#paint16_linear_809_368)"/>
<path d="M45.5326 127.725C45.5326 127.725 36.7203 144.796 47.1761 148.942C54.5513 151.865 59.1763 137.602 57.7971 133.745C55.6663 127.774 54.2622 128.484 54.2622 128.484L45.5326 127.725Z" fill="url(#paint17_linear_809_368)"/>
<path d="M59.9198 126.172C64.2722 127.369 60.5557 136.809 53.9981 134.58C47.4405 132.35 44.8637 132.383 43.8479 134.183C42.8237 135.984 42.609 142.376 40.3874 139.213C37.9592 135.752 36.6048 128.798 39.578 126.552C42.2374 124.545 42.865 121.44 46.053 121.547C50.2898 121.687 53.5686 119.813 55.4847 121.167C57.6816 122.72 56.7153 125.288 59.9198 126.172Z" fill="url(#paint18_linear_809_368)"/>
<path d="M43.4345 135.645C43.4345 135.645 41.5514 133.621 41.2541 136.058C40.9568 138.494 41.9231 141.633 43.0546 139.915C44.186 138.197 43.4345 135.645 43.4345 135.645Z" fill="url(#paint19_linear_809_368)"/>
<defs>
<linearGradient id="paint0_linear_809_368" x1="254.244" y1="250.225" x2="84.1399" y2="97.6315" gradientUnits="userSpaceOnUse">
<stop stop-color="#F0EBFF"/>
<stop offset="1" stop-color="white"/>
</linearGradient>
<linearGradient id="paint1_linear_809_368" x1="183.935" y1="182.153" x2="223.982" y2="182.153" gradientUnits="userSpaceOnUse">
<stop stop-color="#DAE3FE"/>
<stop offset="1" stop-color="#E9EFFD"/>
</linearGradient>
<linearGradient id="paint2_linear_809_368" x1="51.6755" y1="78.359" x2="70.1329" y2="78.359" gradientUnits="userSpaceOnUse">
<stop stop-color="#DAE3FE"/>
<stop offset="1" stop-color="#E9EFFD"/>
</linearGradient>
<linearGradient id="paint3_linear_809_368" x1="10.796" y1="126.118" x2="87.5273" y2="126.118" gradientUnits="userSpaceOnUse">
<stop stop-color="#DAE3FE"/>
<stop offset="1" stop-color="#E9EFFD"/>
</linearGradient>
<linearGradient id="paint4_linear_809_368" x1="113.332" y1="108.162" x2="114.157" y2="249.189" gradientUnits="userSpaceOnUse">
<stop stop-color="#775EEB"/>
<stop offset="0.599" stop-color="#6862ED"/>
<stop offset="1" stop-color="#2A23C0"/>
</linearGradient>
<linearGradient id="paint5_linear_809_368" x1="113.112" y1="56.1829" x2="111.462" y2="128.758" gradientUnits="userSpaceOnUse">
<stop stop-color="#6862ED"/>
<stop offset="1" stop-color="#5D59C8"/>
</linearGradient>
<linearGradient id="paint6_linear_809_368" x1="48.6675" y1="151.629" x2="54.0127" y2="313.32" gradientUnits="userSpaceOnUse">
<stop stop-color="#504DA0"/>
<stop offset="1" stop-color="#4844A9"/>
</linearGradient>
<linearGradient id="paint7_linear_809_368" x1="17.7338" y1="166.701" x2="53.1485" y2="252.248" gradientUnits="userSpaceOnUse">
<stop stop-color="#FEBBBA"/>
<stop offset="1" stop-color="#FF928E"/>
</linearGradient>
<linearGradient id="paint8_linear_809_368" x1="80.5161" y1="166.517" x2="45.1013" y2="252.064" gradientUnits="userSpaceOnUse">
<stop stop-color="#FEBBBA"/>
<stop offset="1" stop-color="#FF928E"/>
</linearGradient>
<linearGradient id="paint9_linear_809_368" x1="20.6075" y1="231.824" x2="66.0568" y2="175.235" gradientUnits="userSpaceOnUse">
<stop stop-color="#2D2D2D"/>
<stop offset="1" stop-color="#2D2D2D"/>
</linearGradient>
<linearGradient id="paint10_linear_809_368" x1="101.693" y1="222.943" x2="-0.830328" y2="221.712" gradientUnits="userSpaceOnUse">
<stop stop-color="#2D2D2D"/>
<stop offset="1" stop-color="#1A0F91"/>
</linearGradient>
<linearGradient id="paint11_linear_809_368" x1="83.2211" y1="187.724" x2="62.7928" y2="243.056" gradientUnits="userSpaceOnUse">
<stop stop-color="#FEBBBA"/>
<stop offset="1" stop-color="#FF928E"/>
</linearGradient>
<linearGradient id="paint12_linear_809_368" x1="34.8589" y1="222.564" x2="-67.6488" y2="221.334" gradientUnits="userSpaceOnUse">
<stop stop-color="#2D2D2D"/>
<stop offset="1" stop-color="#1A0F91"/>
</linearGradient>
<linearGradient id="paint13_linear_809_368" x1="42.2922" y1="171.051" x2="21.853" y2="226.412" gradientUnits="userSpaceOnUse">
<stop stop-color="#FEBBBA"/>
<stop offset="1" stop-color="#FF928E"/>
</linearGradient>
<linearGradient id="paint14_linear_809_368" x1="65.0497" y1="189.693" x2="28.762" y2="283.712" gradientUnits="userSpaceOnUse">
<stop stop-color="#B3B0F6"/>
<stop offset="1" stop-color="#4042E2"/>
</linearGradient>
<linearGradient id="paint15_linear_809_368" x1="56.2147" y1="235.016" x2="7.83599" y2="167.945" gradientUnits="userSpaceOnUse">
<stop stop-color="#B3B0F6"/>
<stop offset="1" stop-color="#4042E2"/>
</linearGradient>
<linearGradient id="paint16_linear_809_368" x1="48.8232" y1="173.764" x2="48.352" y2="132.765" gradientUnits="userSpaceOnUse">
<stop stop-color="#FEBBBA"/>
<stop offset="1" stop-color="#FF928E"/>
</linearGradient>
<linearGradient id="paint17_linear_809_368" x1="47.8362" y1="148.453" x2="53.8755" y2="119.056" gradientUnits="userSpaceOnUse">
<stop stop-color="#FEBBBA"/>
<stop offset="1" stop-color="#FF928E"/>
</linearGradient>
<linearGradient id="paint18_linear_809_368" x1="70.4305" y1="100.413" x2="49.4914" y2="130.169" gradientUnits="userSpaceOnUse">
<stop stop-color="#2D2D2D"/>
<stop offset="1" stop-color="#2D2D2D"/>
</linearGradient>
<linearGradient id="paint19_linear_809_368" x1="43.8333" y1="152.358" x2="39.5045" y2="105.528" gradientUnits="userSpaceOnUse">
<stop stop-color="#FEBBBA"/>
<stop offset="1" stop-color="#FF928E"/>
</linearGradient>
</defs>
</svg>
