<svg width="199" height="198" viewBox="0 0 199 198" fill="none" xmlns="http://www.w3.org/2000/svg">
<path d="M175.82 170.316C171.798 174.552 167.991 177.281 164.983 179.438C129.632 204.803 87.8082 197.41 78.9149 195.603C65.7857 192.938 40.4131 187.781 22.0693 166.209C-5.68203 133.571 -1.36039 82.1474 20.1621 48.2029C24.098 41.9955 44.899 7.52954 87.1796 2.00785C112.767 -1.33517 142.589 5.40801 164.19 23.5017C209.528 61.4893 206.3 138.229 175.82 170.316Z" fill="#F0EBFF"/>
<path d="M54.7359 130.356C54.7359 130.356 55.3431 104.819 43.5783 97.9829C31.8134 91.1469 9.44803 86.8752 8.61228 50.202C8.1194 28.7296 7.5908 19.3434 7.23364 15.2503C7.09792 13.6503 8.51227 12.3645 10.0909 12.6645C21.2343 14.7646 57.4218 23.4007 65.0079 48.1019C74.0012 77.3891 54.7359 130.356 54.7359 130.356Z" fill="#D3C5FF"/>
<path opacity="0.5" d="M18.7057 22.8647C30.9348 33.7723 45.0784 53.0733 52.6144 72.3742C53.5788 75.5529 56.4146 82.3175 57.6433 94.3395C58.7433 104.361 58.1933 114.955 56.8647 121.969C56.7789 122.412 56.3503 122.705 55.9075 122.619C55.1431 122.477 55.2431 121.655 55.2503 121.684C56.7718 109.705 56.136 94.7896 52.6573 81.3389C48.2071 64.8167 38.2852 48.8016 28.0204 35.2153L26.9632 33.8795C19.0128 23.6647 17.3342 23.5933 18.0771 22.879C18.2485 22.7075 18.5271 22.7075 18.7057 22.8647Z" fill="white"/>
<path d="M73.6365 179.458C75.2295 180.236 58.5715 159.293 53.3498 126.391C50.8926 110.89 50.8569 91.4608 42.0279 83.9747C34.6775 77.7458 9.66916 81.6746 1.48305 83.1747C0.461573 83.3604 0.118699 84.6533 0.911595 85.3248C4.83321 88.6178 13.2336 96.3967 15.4194 104.233C18.3053 114.562 28.1201 121.127 36.9133 122.905C45.7066 124.684 50.5926 126.405 54.8785 140.463C59.1573 154.521 69.1149 177.243 73.6365 179.458Z" fill="#AA8FFF"/>
<path opacity="0.5" d="M12.9911 87.539C23.4344 87.9747 34.6421 92.7392 40.3281 101.675L40.8639 102.525C42.1068 104.526 49.1285 118.733 53.0359 130.513C53.0859 130.663 53.0073 130.82 52.8573 130.87C52.6073 130.955 52.4859 130.677 52.5073 130.705C49.7857 124.048 45.8855 115.612 42.7711 109.304C39.4352 102.418 37.0994 97.7538 29.4919 93.2893C21.0272 88.4819 12.9339 87.9819 12.9554 87.989C12.8339 87.9747 12.7411 87.8676 12.7554 87.7461C12.7696 87.6247 12.8768 87.5318 12.9911 87.539Z" fill="white"/>
<path d="M66.4931 182.216C67.436 182.716 61.1714 171.929 60.6928 162.429C60.2142 152.929 58.0712 136.714 49.878 127.02C41.6847 117.32 32.7129 116.434 21.4123 125.256C11.9905 132.606 6.11874 136.313 2.66857 136.999C1.81853 137.171 1.3828 138.135 1.7971 138.899C4.00435 142.971 10.2547 152.321 20.748 151.657C34.1344 150.814 50.3494 142.121 55.2925 149.378C60.2356 156.636 59.5999 160.693 59.7499 164.136C59.907 167.572 60.2428 178.923 66.4931 182.216Z" fill="#D3C5FF"/>
<path opacity="0.5" d="M25.2124 136.899C29.3126 132.97 35.9915 129.106 41.8275 129.827C49.4207 131.049 54.4781 136.12 57.2354 143.671C58.314 146.878 58.7569 148.585 59.3926 152.514C59.4426 152.828 58.9783 152.921 58.9069 152.614C58.4426 150.771 57.9854 148.835 57.2925 146.842C53.2923 133.949 44.749 132.213 44.4133 131.949C43.7704 132.013 39.8488 129.084 30.5626 134.077C28.8268 135.02 27.1411 136.099 25.5553 137.292L25.5481 137.299C25.4338 137.385 25.2695 137.363 25.1838 137.249C25.1052 137.135 25.1195 136.992 25.2124 136.899Z" fill="white"/>
<path d="M58.6711 15.3586C54.2423 15.7444 50.8493 19.4517 50.8421 23.8948C50.7636 51.0675 50.635 144.786 52.4065 177.952C52.5922 181.467 55.4781 184.224 58.9925 184.267C76.4005 184.453 126.46 184.795 154.883 182.981C160.805 182.602 165.412 177.702 165.405 171.766C165.369 143.251 164.912 63.0538 161.012 26.3949C160.54 22.0018 157.012 18.5731 152.611 18.2302C133.625 16.7516 83.2151 13.2228 58.6711 15.3586Z" fill="url(#paint0_linear_52_2663)"/>
<path d="M57.8282 31.0162C57.4853 54.2602 56.5138 131.571 58.2139 160.108C58.4639 164.28 61.6998 167.573 65.7 167.708C82.1722 168.28 124.41 169.394 148.475 166.744C152.811 166.266 156.119 162.508 156.24 157.965C156.84 134.25 158.469 62.2391 156.819 34.0163C156.554 29.5161 153.118 25.9231 148.804 25.6302C130.967 24.4302 85.1724 21.6586 64.7071 23.3587C60.864 23.6873 57.8853 26.9946 57.8282 31.0162Z" fill="#C7B5FF"/>
<path d="M97.6231 19.4014C97.6374 20.0443 98.1517 20.5586 98.7946 20.5801C101.966 20.6729 110.895 20.9515 114.881 21.0944C115.667 21.1229 116.267 20.4015 116.103 19.63C116.088 19.6086 115.988 18.6157 114.981 18.5514C112.281 18.3657 104.138 17.8585 98.7589 18.1657C97.6517 18.2299 97.5874 19.4871 97.6231 19.4014Z" fill="url(#paint1_linear_52_2663)"/>
<path d="M88.1725 79.9888C101.321 79.9888 111.981 69.3295 111.981 56.1805C111.981 43.0316 101.321 32.3723 88.1725 32.3723C75.0236 32.3723 64.3643 43.0316 64.3643 56.1805C64.3643 69.3295 75.0236 79.9888 88.1725 79.9888Z" fill="white"/>
<mask id="mask0_52_2663" style="mask-type:luminance" maskUnits="userSpaceOnUse" x="66" y="34" width="44" height="44">
<path d="M88.173 77.391C99.886 77.391 109.381 67.8958 109.381 56.1828C109.381 44.4699 99.886 34.9746 88.173 34.9746C76.4601 34.9746 66.9648 44.4699 66.9648 56.1828C66.9648 67.8958 76.4601 77.391 88.173 77.391Z" fill="white"/>
</mask>
<g mask="url(#mask0_52_2663)">
<path d="M88.266 60.0535C93.3985 60.0535 97.5593 55.8927 97.5593 50.7602C97.5593 45.6276 93.3985 41.4669 88.266 41.4669C83.1334 41.4669 78.9727 45.6276 78.9727 50.7602C78.9727 55.8927 83.1334 60.0535 88.266 60.0535Z" fill="url(#paint2_linear_52_2663)"/>
</g>
<mask id="mask1_52_2663" style="mask-type:luminance" maskUnits="userSpaceOnUse" x="66" y="34" width="44" height="44">
<path d="M88.173 77.391C99.886 77.391 109.381 67.8958 109.381 56.1828C109.381 44.4699 99.886 34.9746 88.173 34.9746C76.4601 34.9746 66.9648 44.4699 66.9648 56.1828C66.9648 67.8958 76.4601 77.391 88.173 77.391Z" fill="white"/>
</mask>
<g mask="url(#mask1_52_2663)">
<path d="M74.1505 78.6691H103.759C105.573 78.6691 106.659 76.3261 105.688 74.5332C103.173 69.9258 97.9088 63.1612 88.8013 63.4684C80.0151 63.7613 74.8149 69.8758 72.1933 74.2546C71.0718 76.119 72.2076 78.6691 74.1505 78.6691Z" fill="url(#paint3_linear_52_2663)"/>
</g>
<g opacity="0.8">
<path d="M148.418 48.3095L121.196 47.8952C120.724 47.888 120.345 47.4951 120.353 47.0237L120.417 42.9378C120.424 42.4663 120.817 42.0877 121.288 42.0949L148.511 42.5092C148.983 42.5163 149.361 42.9092 149.354 43.3807L149.29 47.4666C149.275 47.938 148.89 48.3166 148.418 48.3095Z" fill="white"/>
<path d="M148.247 60.1818L121.025 59.7674C120.553 59.7603 120.175 59.3674 120.182 58.896L120.246 54.8101C120.253 54.3386 120.646 53.96 121.118 53.9672L148.34 54.3815C148.812 54.3886 149.19 54.7815 149.183 55.2529L149.119 59.3389C149.105 59.8103 148.719 60.1889 148.247 60.1818Z" fill="white"/>
<path d="M148.054 72.0609L120.831 71.6466C120.36 71.6394 119.981 71.2466 119.988 70.7751L120.053 66.6892C120.06 66.2177 120.453 65.8391 120.924 65.8463L148.147 66.2606C148.618 66.2677 148.997 66.6606 148.99 67.1321L148.925 71.218C148.911 71.6894 148.525 72.068 148.054 72.0609Z" fill="white"/>
</g>
<path d="M124.503 30.1736C124.41 30.1379 124.339 30.0521 124.332 29.9521C124.303 29.6093 124.289 29.2664 124.275 28.9235C124.268 28.7807 124.382 28.6664 124.525 28.6664C124.875 28.6592 124.782 29.0092 124.846 29.9307C124.853 30.0736 124.746 30.195 124.603 30.2022C124.568 30.195 124.532 30.1879 124.503 30.1736Z" fill="#BDD0FB"/>
<path d="M124.382 25.7087C124.447 25.0587 124.539 24.3943 124.654 23.7515C124.675 23.6157 124.811 23.5229 124.954 23.5514C125.339 23.6229 125.089 23.8443 124.897 25.7658C124.882 25.9087 124.754 26.0087 124.611 25.9944C124.468 25.973 124.368 25.8444 124.382 25.7087ZM125.418 20.637C125.618 20.0084 125.847 19.3727 126.082 18.7798C126.211 18.4583 126.689 18.6655 126.568 18.9727C126.325 19.5655 126.111 20.1799 125.918 20.7942C125.875 20.9299 125.732 21.0013 125.589 20.9585C125.447 20.9156 125.375 20.7656 125.418 20.637ZM127.475 15.8868C127.797 15.3153 128.147 14.751 128.518 14.2081C128.711 13.9296 129.14 14.2153 128.954 14.4939C128.597 15.0296 128.254 15.5796 127.932 16.1368C127.761 16.4368 127.311 16.1797 127.475 15.8868ZM130.511 12.0295C130.404 11.9366 130.39 11.7723 130.483 11.6723C130.918 11.1794 131.383 10.7008 131.854 10.2437C132.097 10.0079 132.461 10.3794 132.218 10.608C131.754 11.058 131.304 11.5294 130.875 12.008C130.783 12.1152 130.618 12.1223 130.511 12.0295ZM134.268 8.51501C134.183 8.40072 134.204 8.24357 134.318 8.15785C134.847 7.76497 135.404 7.38638 135.961 7.03637C136.247 6.85779 136.533 7.28638 136.247 7.4721C135.697 7.81497 135.154 8.18642 134.64 8.57215C134.526 8.65073 134.361 8.6293 134.268 8.51501ZM138.833 5.96489C138.769 5.94346 138.719 5.89345 138.69 5.83631C138.626 5.70773 138.683 5.55772 138.811 5.49344C139.412 5.21485 140.033 4.95769 140.654 4.72911C140.79 4.67911 140.94 4.7434 140.99 4.87912C141.04 5.01484 140.976 5.15771 140.84 5.20771C140.233 5.43629 139.626 5.6863 139.033 5.95774C138.969 5.98632 138.897 5.98632 138.833 5.96489ZM143.74 4.27909C143.662 4.25052 143.597 4.18623 143.576 4.10051C143.54 3.96479 143.626 3.82193 143.762 3.79335C144.412 3.64335 145.069 3.51477 145.733 3.41476C145.876 3.39333 146.012 3.48619 146.033 3.62906C146.055 3.77192 145.962 3.9005 145.819 3.92193C145.176 4.02193 144.526 4.14337 143.89 4.29337C143.84 4.30052 143.79 4.29338 143.74 4.27909ZM148.741 3.37905C148.733 3.23618 148.848 3.12189 148.991 3.11475C149.655 3.10046 150.333 3.1076 151.005 3.13618C151.348 3.15761 151.326 3.66477 150.983 3.64334C150.326 3.60763 149.662 3.60049 149.012 3.62192C148.869 3.6362 148.748 3.52191 148.741 3.37905ZM165.391 8.92931C163.834 7.74354 163.484 7.75783 163.698 7.43638C163.777 7.32209 163.934 7.28638 164.056 7.36495C164.62 7.72925 165.17 8.12213 165.706 8.5293C165.984 8.73645 165.67 9.14361 165.391 8.92931ZM153.955 3.72192C153.977 3.5862 154.112 3.49334 154.255 3.51477C154.912 3.62906 155.577 3.77907 156.227 3.94336C156.562 4.02908 156.434 4.52196 156.105 4.43624C155.469 4.27194 154.819 4.12908 154.169 4.01479C154.027 3.99336 153.934 3.85764 153.955 3.72192ZM160.977 6.2149C159.212 5.36486 158.87 5.45057 159.012 5.09341C159.105 4.86483 159.377 4.95055 159.348 4.95055C159.977 5.19342 160.598 5.46486 161.198 5.75773C161.327 5.82202 161.384 5.97203 161.32 6.10061C161.263 6.22204 161.113 6.28633 160.977 6.2149Z" fill="#BDD0FB"/>
<path d="M168.541 11.7798C167.941 11.1441 167.576 10.9226 167.819 10.6798C167.919 10.5798 168.084 10.5798 168.184 10.6798C168.826 11.3155 169.148 11.5655 168.905 11.7941C168.834 11.8655 168.641 11.887 168.541 11.7798Z" fill="#BDD0FB"/>
<path d="M175.498 30.4018C175.391 30.3661 175.32 30.2589 175.327 30.1447C175.348 29.8089 175.355 29.4661 175.362 29.1375C175.362 28.9946 175.484 28.8875 175.627 28.8875C175.77 28.8946 175.884 29.0089 175.884 29.1517C175.877 29.4946 175.87 29.8375 175.848 30.1804C175.841 30.3232 175.72 30.4304 175.577 30.4161C175.548 30.4161 175.52 30.4161 175.498 30.4018Z" fill="#BDD0FB"/>
<path d="M140.433 51.8673C139.761 51.5958 139.097 51.2887 138.454 50.9601C138.325 50.8958 138.275 50.7386 138.34 50.6172C138.518 50.2672 138.668 50.5958 140.625 51.3958C140.761 51.453 140.825 51.603 140.768 51.7315C140.683 51.953 140.404 51.8673 140.433 51.8673ZM143.597 52.6744C143.697 52.2887 143.926 52.5816 145.99 52.953C146.133 52.9745 146.226 53.1102 146.204 53.253C146.183 53.3888 146.047 53.4816 145.904 53.4602C145.197 53.3316 144.483 53.1816 143.783 52.9959C143.647 52.9459 143.561 52.803 143.597 52.6744ZM135.425 49.1528C134.832 48.7457 134.247 48.3028 133.689 47.8456C133.575 47.7528 133.561 47.5956 133.654 47.4885C133.911 47.1813 133.982 47.5385 135.718 48.7385C135.84 48.8171 135.868 48.9814 135.782 49.0957C135.711 49.2029 135.547 49.2314 135.425 49.1528ZM149.333 53.8102C149.233 53.7745 149.162 53.6745 149.162 53.5602C149.169 53.4173 149.283 53.3102 149.426 53.3173C150.133 53.3459 150.847 53.3459 151.547 53.3173C151.69 53.3102 151.812 53.4173 151.819 53.5602C151.826 53.7031 151.719 53.8174 151.576 53.8245C150.862 53.8531 150.126 53.8531 149.412 53.8245C149.383 53.8245 149.354 53.8245 149.333 53.8102ZM154.933 53.4245C154.855 53.3959 154.783 53.3245 154.769 53.2316C154.74 53.0959 154.833 52.9602 154.976 52.9316C155.669 52.8102 156.362 52.653 157.041 52.4673C157.176 52.4316 157.319 52.5102 157.362 52.6459C157.405 52.7816 157.319 52.9245 157.183 52.9602C156.491 53.1459 155.783 53.303 155.076 53.4316C155.019 53.4459 154.976 53.4459 154.933 53.4245ZM160.291 51.8387C160.226 51.8173 160.169 51.7673 160.141 51.703C160.084 51.5744 160.141 51.4244 160.276 51.3672C160.919 51.0958 161.562 50.7958 162.184 50.4743C162.312 50.41 162.469 50.4601 162.534 50.5815C162.605 50.7029 162.555 50.8601 162.427 50.9244C161.798 51.253 161.141 51.5601 160.484 51.8387C160.419 51.8673 160.355 51.8673 160.291 51.8387ZM165.155 49.1386C165.112 49.1243 165.07 49.0886 165.034 49.0457C164.948 48.9314 164.977 48.7743 165.091 48.6885C165.655 48.2885 166.212 47.8528 166.748 47.4028C166.855 47.3099 167.02 47.3242 167.112 47.4313C167.205 47.5385 167.198 47.7028 167.091 47.7885C166.548 48.2457 165.984 48.6885 165.398 49.0957C165.327 49.16 165.234 49.1671 165.155 49.1386ZM169.213 45.4027C168.905 45.1384 169.27 45.0884 170.513 43.424C170.713 43.1526 171.134 43.4597 170.934 43.7312C170.513 44.2955 170.055 44.8526 169.584 45.3812C169.484 45.4884 169.32 45.4955 169.213 45.4027ZM172.448 40.931C172.091 40.7382 172.427 40.6096 173.263 38.7166C173.399 38.4095 173.877 38.6166 173.741 38.9238C173.456 39.5667 173.141 40.2096 172.798 40.831C172.734 40.9525 172.577 40.9953 172.448 40.931ZM174.577 35.8451C174.449 35.7951 174.377 35.6593 174.42 35.5308C174.613 34.8593 174.777 34.1807 174.906 33.5021C174.934 33.3664 175.07 33.2735 175.213 33.3021C175.356 33.3307 175.449 33.4664 175.42 33.6021C175.284 34.295 175.12 34.9879 174.92 35.6665C174.884 35.8022 174.741 35.8808 174.599 35.8379C174.591 35.8522 174.584 35.8522 174.577 35.8451Z" fill="#BDD0FB"/>
<path d="M131.125 45.4166C130.51 44.7523 130.203 44.488 130.46 44.2737C130.732 44.0522 130.882 44.3951 131.51 45.0737C131.61 45.1809 131.603 45.338 131.496 45.438C131.382 45.5309 131.218 45.5237 131.125 45.4166Z" fill="#BDD0FB"/>
<path d="M133.961 38.959L137.654 38.5019C138.783 39.8234 140.125 40.9877 141.661 41.9235C141.804 45.4879 141.561 45.7451 141.947 45.8736L146.204 47.2951C146.326 47.338 146.469 47.2951 146.547 47.1951L148.79 44.3021C150.576 44.4736 152.347 44.3521 154.04 43.9664L156.726 46.5522C156.819 46.6451 156.962 46.6665 157.076 46.6094L161.062 44.6664C161.176 44.6093 161.248 44.4879 161.226 44.3593L160.705 40.7234C162.034 39.6376 163.198 38.3304 164.119 36.8375L167.848 36.8232C167.977 36.8232 168.091 36.7375 168.134 36.6161L169.513 32.4516C169.555 32.3301 169.513 32.1944 169.405 32.1158L166.427 29.8657C166.577 28.1085 166.427 26.3656 166.005 24.7012C168.477 22.1082 168.827 22.1011 168.648 21.751C166.584 17.9152 166.698 17.5866 166.298 17.6366L162.605 18.0937C161.477 16.7722 160.134 15.6079 158.598 14.6721C158.455 11.1148 158.698 10.8505 158.312 10.7219C154.055 9.38617 153.955 9.09329 153.712 9.40045L151.469 12.2934C149.683 12.122 147.912 12.2434 146.219 12.6292C143.576 10.1862 143.54 9.81476 143.176 9.9862C139.268 11.9791 138.968 11.8434 139.025 12.2363L139.547 15.8722C138.218 16.958 137.054 18.2652 136.132 19.7581C132.575 19.8438 132.247 19.5938 132.118 19.9795C130.825 24.1226 130.525 24.2369 130.846 24.4798L133.825 26.7299C133.675 28.4871 133.825 30.2229 134.247 31.8944C131.782 34.4802 131.425 34.4874 131.604 34.8445C133.675 38.6804 133.561 39.009 133.961 38.959Z" fill="#6961ED"/>
<path d="M145.776 27.9438C145.933 25.5865 148.019 23.8222 150.419 24.015C152.819 24.2079 154.648 26.2794 154.484 28.6367C154.326 30.9939 152.241 32.7583 149.841 32.5654C147.44 32.3726 145.619 30.301 145.776 27.9438ZM150.369 24.7794C148.419 24.6222 146.69 26.0437 146.555 28.0081C146.426 29.9439 147.926 31.6511 149.898 31.8083C151.869 31.9654 153.576 30.5153 153.712 28.5795C153.841 26.6366 152.334 24.9365 150.369 24.7794Z" fill="white"/>
<path d="M146.333 38.5015C145.725 38.2729 145.14 37.9943 144.59 37.6729C144.425 37.5729 144.354 37.38 144.418 37.2086C144.425 37.1871 144.433 37.1657 144.447 37.1514C144.554 36.9728 144.797 36.9085 144.983 37.0228C145.618 37.3943 146.304 37.7014 147.011 37.9372C152.333 39.7087 158.062 37.03 159.983 31.944C160.033 31.8154 160.076 31.6797 160.126 31.5511C161.905 26.1795 158.883 20.3863 153.433 18.5648C147.99 16.7504 142.097 19.5934 140.325 24.9508C139.268 28.1438 140.189 30.2796 140.068 30.6082C139.932 30.9654 139.411 30.9225 139.325 30.5511C138.854 28.5296 138.954 26.3437 139.739 24.2794C143.104 15.3718 155.783 14.8289 160.198 23.3936C161.555 26.0294 161.798 29.0153 160.876 31.794C160.826 31.9369 160.776 32.0797 160.726 32.2226C159.748 34.8084 157.847 36.8871 155.319 38.1157C152.654 39.4158 149.626 39.6015 146.783 38.6586C146.618 38.6086 146.476 38.5515 146.333 38.5015Z" fill="white"/>
<path d="M177.478 20.0009C178.156 20.6938 178.949 21.2867 179.842 21.7439L180.028 23.8154C180.049 24.044 180.242 23.944 182.578 24.5654C182.792 24.6154 182.756 24.4226 183.892 22.7439C184.892 22.7582 185.871 22.601 186.792 22.301L188.392 23.6297C188.571 23.7797 188.628 23.5725 190.728 22.351C190.793 22.3153 190.821 22.2367 190.807 22.1724L190.371 20.1366C191.064 19.458 191.657 18.6651 192.114 17.7722C194.086 17.5508 194.278 17.6722 194.336 17.4579C194.886 15.0507 195.05 14.9721 194.857 14.8507L193.114 13.722C193.128 12.722 192.971 11.7434 192.671 10.8219L194 9.22182C194.15 9.04324 193.943 8.9861 192.721 6.886C192.607 6.69313 192.5 6.85742 190.507 7.24316C189.828 6.55027 189.035 5.95738 188.142 5.50021L187.957 3.42869C187.935 3.2001 187.742 3.30011 185.407 2.67865C185.192 2.62865 185.235 2.81437 184.092 4.50017C183.092 4.48588 182.114 4.64303 181.192 4.94305L179.592 3.61441C179.535 3.56441 179.456 3.56441 179.392 3.60012L177.256 4.89304C177.192 4.92876 177.163 5.00733 177.178 5.07876L177.613 7.11458C176.92 7.79318 176.328 8.58608 175.87 9.47898C173.899 9.70042 173.706 9.57898 173.649 9.79328C173.099 12.2005 172.934 12.2791 173.127 12.4005L174.87 13.5292C174.856 14.5292 175.013 15.5078 175.313 16.4293C174.07 17.9794 173.849 18.0294 173.97 18.2223L175.263 20.3581C175.377 20.5509 175.492 20.3866 177.478 20.0009Z" fill="#6961ED"/>
<path d="M181.385 13.6371C181.378 12.2013 182.535 11.0298 183.971 11.0155C185.406 11.0084 186.578 12.1656 186.592 13.6013C186.599 15.0371 185.442 16.2086 184.006 16.2229C182.571 16.2372 181.392 15.0728 181.385 13.6371ZM182.163 13.6371C182.171 14.6443 182.992 15.4586 183.999 15.4514C185.621 15.4443 186.428 13.4656 185.271 12.3227C184.121 11.1869 182.149 12.0084 182.163 13.6371Z" fill="white"/>
<path d="M171.227 18.4297C171.106 18.1011 170.992 17.7654 170.892 17.4297C170.849 17.2939 170.927 17.1511 171.07 17.1082C171.413 17.0082 171.392 17.4011 171.713 18.244C171.763 18.3797 171.699 18.5297 171.563 18.5797C171.427 18.6297 171.277 18.5654 171.227 18.4297Z" fill="#BDD0FB"/>
<path d="M170.362 14.0153C170.341 13.3295 170.377 12.6081 170.47 11.8866C170.512 11.5437 171.027 11.6152 170.984 11.9509C170.748 13.8224 171.063 14.251 170.634 14.2653C170.484 14.2724 170.362 14.1581 170.362 14.0153ZM171.477 8.87932C171.341 8.82931 171.277 8.67216 171.334 8.54358C171.598 7.88641 171.92 7.24353 172.284 6.63635C172.463 6.34348 172.905 6.60778 172.727 6.90065C172.377 7.48639 172.07 8.10785 171.813 8.73645C171.72 8.96504 171.448 8.87932 171.477 8.87932ZM174.506 4.33624C174.47 4.32196 174.441 4.30053 174.413 4.2791C174.313 4.17909 174.313 4.0148 174.413 3.91479C174.92 3.41477 175.463 2.9576 176.041 2.5433C176.156 2.45758 176.32 2.48615 176.406 2.60044C176.491 2.71473 176.463 2.87903 176.348 2.96475C175.791 3.36477 175.27 3.80764 174.784 4.28624C174.706 4.35767 174.598 4.37196 174.506 4.33624ZM179.091 1.37895C179.027 1.35038 178.97 1.30038 178.941 1.22895C178.891 1.09323 178.956 0.94322 179.091 0.893218C179.756 0.636063 180.442 0.436053 181.134 0.286046C181.277 0.257473 181.413 0.34319 181.442 0.486054C181.47 0.628918 181.384 0.764641 181.242 0.793213C180.577 0.936077 179.913 1.12894 179.277 1.37895C179.213 1.40038 179.149 1.40038 179.091 1.37895ZM184.306 0.25033C184.313 0.107466 184.435 -0.00682566 184.577 0.000317545C185.285 0.0288904 185.999 0.114609 186.692 0.257473C187.028 0.321762 186.928 0.82893 186.592 0.764641C185.928 0.62892 185.242 0.550343 184.556 0.52177C184.406 0.507484 184.299 0.38605 184.306 0.25033Z" fill="#BDD0FB"/>
<path d="M190.642 2.31463C189.828 1.83603 189.478 1.80032 189.628 1.48602C189.692 1.35744 189.842 1.30029 189.97 1.36458C190.285 1.51459 190.599 1.68603 190.899 1.86461C191.021 1.93604 191.063 2.09319 190.992 2.22177C190.921 2.3432 190.763 2.38606 190.642 2.31463Z" fill="#BDD0FB"/>
<path d="M196.85 11.0366C196.664 10.1009 196.457 9.82943 196.793 9.72943C196.929 9.69371 197.071 9.77229 197.114 9.90801C197.207 10.2437 197.293 10.5866 197.364 10.9295C197.393 11.0723 197.3 11.2081 197.164 11.2366C197.014 11.2652 196.879 11.1724 196.85 11.0366Z" fill="#BDD0FB"/>
<path d="M180.428 26.5229C180.535 26.1086 180.871 26.5014 182.728 26.68C183.071 26.7086 183.021 27.2301 182.678 27.1943C181.985 27.13 181.285 27.0086 180.613 26.8372C180.485 26.8015 180.392 26.6586 180.428 26.5229ZM185.785 26.88C185.764 26.7372 185.864 26.6086 185.999 26.5872C187.864 26.3014 188.157 25.8871 188.285 26.2943C188.328 26.43 188.257 26.5729 188.114 26.6157C187.449 26.83 186.764 26.9872 186.071 27.0943C185.942 27.1158 185.806 27.0229 185.785 26.88ZM190.85 25.1085C190.621 24.7442 191.135 24.7799 192.557 23.5584C192.814 23.337 193.157 23.7299 192.893 23.9513C192.364 24.4085 191.8 24.8228 191.207 25.1942C191.085 25.2657 190.928 25.23 190.85 25.1085ZM194.807 21.4869C194.45 21.2369 194.943 21.0726 195.771 19.394C195.921 19.0868 196.386 19.3154 196.236 19.6225C195.928 20.2511 195.571 20.8583 195.171 21.4298C195.085 21.5441 194.928 21.5726 194.807 21.4869ZM196.836 16.301C197.221 14.458 196.928 14.0366 197.364 14.058C197.507 14.0651 197.614 14.1866 197.607 14.3294C197.571 15.0295 197.478 15.7295 197.343 16.4081C197.314 16.551 197.178 16.6367 197.036 16.6081C196.893 16.5724 196.8 16.4367 196.836 16.301Z" fill="#BDD0FB"/>
<path d="M177.442 25.5798C177.134 25.4084 176.827 25.2298 176.534 25.0369C176.413 24.9583 176.384 24.8012 176.463 24.6798C176.663 24.3797 176.899 24.694 177.692 25.1298C177.82 25.2012 177.863 25.3584 177.792 25.4798C177.727 25.6084 177.563 25.6512 177.442 25.5798Z" fill="#BDD0FB"/>
<path d="M181.227 19.3588C181.006 19.2516 180.949 19.0159 181.034 18.8302C181.127 18.6373 181.363 18.5588 181.556 18.6516C181.913 18.823 182.292 18.9659 182.685 19.0588C182.77 19.0659 184.792 19.7088 186.949 18.4087C191.221 15.8229 190.235 9.31545 185.378 8.12254C182.585 7.43679 179.756 8.97258 178.763 11.6013C177.763 14.2443 179.192 15.4872 178.391 15.73C178.184 15.7943 177.97 15.68 177.906 15.4729C177.563 14.3657 177.534 13.1871 177.813 12.0584C178.656 8.63685 182.127 6.52246 185.563 7.36535C189.263 8.27254 191.392 12.2299 190.021 15.8658C188.913 18.7945 185.735 20.6089 182.499 19.8088C182.063 19.7088 181.634 19.5517 181.227 19.3588Z" fill="white"/>
<path d="M124.189 161.601H94.573C93.6015 161.601 92.8086 160.808 92.8086 159.837V151.415C92.8086 150.444 93.6015 149.651 94.573 149.651H124.189C125.16 149.651 125.953 150.444 125.953 151.415V159.837C125.946 160.808 125.153 161.601 124.189 161.601Z" fill="#A058EA"/>
<g opacity="0.8">
<path d="M146.355 106.405H79.5376C79.009 106.405 78.5732 105.97 78.5732 105.441V100.798C78.5732 100.269 79.009 99.8335 79.5376 99.8335H146.355C146.884 99.8335 147.319 100.269 147.319 100.798V105.441C147.327 105.97 146.891 106.405 146.355 106.405Z" fill="white"/>
<path d="M69.7584 107.084C71.9597 107.084 73.7443 105.3 73.7443 103.098C73.7443 100.897 71.9597 99.1125 69.7584 99.1125C67.557 99.1125 65.7725 100.897 65.7725 103.098C65.7725 105.3 67.557 107.084 69.7584 107.084Z" fill="white"/>
<path d="M146.355 118.75H79.5376C79.009 118.75 78.5732 118.314 78.5732 117.786V113.143C78.5732 112.614 79.009 112.178 79.5376 112.178H146.355C146.884 112.178 147.319 112.614 147.319 113.143V117.786C147.327 118.314 146.891 118.75 146.355 118.75Z" fill="white"/>
<path d="M71.2891 119.126C73.3229 118.283 74.2887 115.952 73.4462 113.918C72.6038 111.884 70.2721 110.918 68.2382 111.761C66.2044 112.603 65.2386 114.935 66.0811 116.969C66.9235 119.002 69.2552 119.968 71.2891 119.126Z" fill="white"/>
<path d="M146.355 131.085H79.5376C79.009 131.085 78.5732 130.65 78.5732 130.121V125.478C78.5732 124.949 79.009 124.514 79.5376 124.514H146.355C146.884 124.514 147.319 124.949 147.319 125.478V130.121C147.327 130.65 146.891 131.085 146.355 131.085Z" fill="white"/>
<path d="M69.7584 131.764C71.9597 131.764 73.7443 129.98 73.7443 127.778C73.7443 125.577 71.9597 123.792 69.7584 123.792C67.557 123.792 65.7725 125.577 65.7725 127.778C65.7725 129.98 67.557 131.764 69.7584 131.764Z" fill="white"/>
<path d="M146.354 143.429H79.5366C79.008 143.429 78.5723 142.994 78.5723 142.465V137.822C78.5723 137.293 79.008 136.858 79.5366 136.858H146.354C146.883 136.858 147.318 137.293 147.318 137.822V142.465C147.326 142.994 146.89 143.429 146.354 143.429Z" fill="white"/>
<path d="M71.2891 143.806C73.3229 142.963 74.2887 140.632 73.4462 138.598C72.6038 136.564 70.2721 135.598 68.2382 136.441C66.2044 137.283 65.2386 139.615 66.0811 141.649C66.9235 143.683 69.2552 144.648 71.2891 143.806Z" fill="white"/>
</g>
<path d="M47.692 42.2455L46.3562 43.2813C46.2634 43.3527 46.1205 43.3384 46.0491 43.2456C45.9776 43.1527 45.9919 43.0099 46.0848 42.9384L47.4491 41.9241C47.542 41.8598 47.6634 41.8741 47.7349 41.967C47.7992 42.0527 47.7777 42.1741 47.692 42.2455Z" fill="white"/>
<path d="M43.0212 46.0533C42.1783 46.7891 41.3425 47.5463 40.5282 48.3177C40.4139 48.4249 40.2282 48.4177 40.121 48.3034C40.0139 48.1891 40.021 48.0034 40.1353 47.8963C40.9711 47.132 41.8211 46.3891 42.6854 45.6605C42.7926 45.5676 42.9569 45.5819 43.0497 45.689C43.1426 45.7962 43.1283 45.9605 43.0212 46.0533Z" fill="white"/>
<path d="M37.4424 51.3533C36.6638 52.1604 35.8923 52.9819 35.1423 53.8177C35.0137 53.9605 34.7994 53.9677 34.6637 53.8462C34.5208 53.7177 34.5136 53.5034 34.6351 53.3676C35.3994 52.539 36.1852 51.7247 36.9852 50.9175C37.1066 50.7961 37.3066 50.7961 37.4352 50.9175C37.5567 51.0318 37.5638 51.2318 37.4424 51.3533Z" fill="white"/>
<path d="M32.3275 57.0966C31.6203 57.9681 30.9274 58.8467 30.2488 59.7396C30.1203 59.911 29.8703 59.9467 29.6988 59.8181C29.5274 59.6896 29.4917 59.4396 29.6202 59.2681C29.6202 59.2681 29.6202 59.2681 29.6202 59.261C30.3131 58.3681 31.0275 57.4895 31.7561 56.618C31.8846 56.4608 32.1204 56.4394 32.2775 56.5751C32.4347 56.7109 32.4561 56.9394 32.3275 57.0966Z" fill="white"/>
<path d="M27.7276 63.2611C27.099 64.1897 26.4847 65.1255 25.8918 66.0755C25.7632 66.2827 25.4846 66.347 25.2775 66.2184C25.0703 66.0898 25.0061 65.8112 25.1346 65.6041V65.5969C25.7489 64.6469 26.3775 63.704 27.0276 62.7754C27.1633 62.5825 27.4276 62.5396 27.6205 62.6682C27.8062 62.8039 27.8562 63.0682 27.7276 63.2611Z" fill="white"/>
<path d="M23.698 69.797C23.1551 70.7757 22.6265 71.7686 22.1265 72.7686C22.005 73.0115 21.7122 73.1043 21.4765 72.9829C21.2336 72.8615 21.1407 72.5686 21.2622 72.3329V72.3257C21.7836 71.3185 22.3194 70.3185 22.8765 69.3327C23.0051 69.1041 23.2908 69.0256 23.5194 69.1542C23.7408 69.2827 23.8194 69.5685 23.698 69.797Z" fill="white"/>
<path d="M20.284 76.6761C19.834 77.7047 19.4125 78.7405 19.0054 79.7834C18.9054 80.0477 18.6054 80.1834 18.3339 80.0834C18.0696 79.9834 17.9339 79.6834 18.0339 79.4119V79.4048C18.4482 78.3476 18.8911 77.3047 19.3554 76.2689C19.4697 76.0118 19.7697 75.8975 20.0197 76.0118C20.284 76.1261 20.3983 76.4189 20.284 76.6761Z" fill="white"/>
<path d="M17.5692 83.8477C17.2263 84.9121 16.9049 85.9835 16.6049 87.0622C16.5263 87.355 16.2191 87.5265 15.9263 87.4479C15.6334 87.3693 15.462 87.0622 15.5405 86.7693V86.7621C15.8477 85.6692 16.1834 84.5835 16.5406 83.512C16.6334 83.2334 16.9406 83.0763 17.2192 83.1691C17.5049 83.262 17.6549 83.5691 17.5692 83.8477Z" fill="white"/>
<path d="M15.5841 91.2477C15.3483 92.3406 15.1412 93.4407 14.9483 94.5407C14.8912 94.855 14.5911 95.0693 14.2768 95.0193C13.9625 94.9622 13.7483 94.6622 13.7983 94.3479V94.3407C13.9983 93.2264 14.2197 92.112 14.4697 91.0048C14.5411 90.6977 14.8412 90.5048 15.1483 90.5762C15.4555 90.6405 15.6483 90.9477 15.5841 91.2477Z" fill="white"/>
<path d="M14.3841 98.8124C14.2698 99.9267 14.1698 101.041 14.0912 102.155C14.0698 102.491 13.7769 102.748 13.434 102.727C13.0983 102.705 12.8411 102.413 12.8626 102.07V102.063C12.9483 100.934 13.0554 99.8053 13.184 98.6766C13.2197 98.3481 13.5197 98.1123 13.8483 98.148C14.1769 98.1909 14.4126 98.4838 14.3841 98.8124Z" fill="white"/>
<path d="M13.8765 106.47C13.8408 107.592 13.8336 108.706 13.8336 109.828C13.8336 110.185 13.5408 110.471 13.1907 110.471C12.8407 110.471 12.5479 110.178 12.5479 109.821C12.5479 108.685 12.5764 107.556 12.6193 106.42C12.6336 106.07 12.9264 105.799 13.2765 105.813C13.6193 105.835 13.8908 106.128 13.8765 106.47Z" fill="white"/>
<path d="M13.9191 114.149C13.9691 115.271 14.0334 116.385 14.1191 117.499C14.1476 117.864 13.8762 118.178 13.5119 118.207C13.1476 118.235 12.8333 117.964 12.8047 117.599C12.719 116.471 12.6619 115.335 12.6119 114.206C12.5976 113.849 12.8762 113.542 13.2405 113.528C13.6048 113.514 13.9048 113.792 13.9191 114.149Z" fill="white"/>
<path d="M14.5475 121.792C14.6833 122.899 14.8404 124.006 15.019 125.114C15.0761 125.478 14.8333 125.821 14.469 125.878C14.1047 125.935 13.7618 125.692 13.7046 125.328C13.5261 124.206 13.3689 123.085 13.2332 121.956C13.1903 121.592 13.4475 121.263 13.8118 121.221C14.1689 121.171 14.5047 121.428 14.5475 121.792Z" fill="white"/>
<path d="M15.8269 129.342C16.0626 130.435 16.3269 131.521 16.6126 132.6C16.7126 132.964 16.4912 133.336 16.134 133.428C15.7697 133.528 15.3983 133.307 15.3054 132.95C15.0125 131.85 14.7483 130.743 14.5125 129.635C14.434 129.271 14.6625 128.914 15.0268 128.835C15.3911 128.75 15.7483 128.978 15.8269 129.342Z" fill="white"/>
<path d="M17.8556 136.715C18.2127 137.772 18.5913 138.815 19.0056 139.851C19.1485 140.201 18.9771 140.608 18.6199 140.744C18.2699 140.887 17.8627 140.715 17.727 140.358C17.3056 139.301 16.9198 138.229 16.5627 137.151C16.4412 136.794 16.6341 136.408 16.9984 136.286C17.3484 136.165 17.7341 136.358 17.8556 136.715Z" fill="white"/>
<path d="M20.7339 143.779C21.2196 144.779 21.7411 145.765 22.2911 146.73C22.484 147.065 22.3625 147.494 22.0268 147.68C21.6911 147.872 21.2625 147.751 21.0768 147.415C20.5124 146.422 19.9838 145.408 19.491 144.379C19.3267 144.037 19.4695 143.622 19.8124 143.451C20.1553 143.294 20.5696 143.437 20.7339 143.779Z" fill="white"/>
<path d="M24.5699 150.358C25.1985 151.273 25.8628 152.166 26.5557 153.03C26.7986 153.337 26.7486 153.78 26.4485 154.03C26.1414 154.273 25.6985 154.223 25.4485 153.923C24.7342 153.03 24.0556 152.109 23.4055 151.166C23.1841 150.844 23.2698 150.408 23.5913 150.187C23.9056 149.958 24.3484 150.037 24.5699 150.358Z" fill="white"/>
<path d="M29.3847 156.237C30.1562 157.03 30.9634 157.794 31.792 158.53C32.092 158.794 32.1206 159.252 31.8563 159.544C31.592 159.845 31.1348 159.873 30.8419 159.609C29.9848 158.852 29.1562 158.059 28.3633 157.23C28.0918 156.944 28.099 156.494 28.3775 156.216C28.6561 155.944 29.1061 155.951 29.3847 156.237Z" fill="white"/>
<path d="M35.1279 161.194C35.5779 161.523 36.0279 161.837 36.4922 162.144C36.9494 162.458 37.4209 162.744 37.8923 163.044L37.9137 163.059C38.2495 163.273 38.3423 163.716 38.128 164.051C37.9137 164.387 37.4709 164.487 37.1351 164.266C36.6494 163.959 36.1637 163.659 35.6851 163.344C35.2065 163.03 34.735 162.701 34.2707 162.366C33.9421 162.13 33.8707 161.68 34.1064 161.351C34.3493 161.03 34.7993 160.958 35.1279 161.194Z" fill="white"/>
<path d="M41.6281 165.116C42.621 165.602 43.6354 166.059 44.664 166.466C45.0283 166.609 45.1997 167.023 45.0569 167.38C44.914 167.745 44.5068 167.916 44.1425 167.773C43.0782 167.352 42.0281 166.887 40.9995 166.387C40.6424 166.216 40.4995 165.787 40.6709 165.437C40.8424 165.087 41.271 164.944 41.6281 165.116Z" fill="white"/>
<path d="M48.707 167.873C49.7713 168.187 50.8499 168.466 51.9285 168.702C52.3 168.787 52.5357 169.152 52.4571 169.523C52.3714 169.895 52.0071 170.13 51.6357 170.052C50.5213 169.809 49.4141 169.53 48.3141 169.209C47.9426 169.102 47.7355 168.716 47.8426 168.345C47.9498 167.973 48.3355 167.766 48.707 167.873Z" fill="white"/>
<path d="M56.1569 169.445C57.2569 169.595 58.3641 169.702 59.4785 169.78C59.8499 169.809 60.1285 170.13 60.1071 170.502C60.0856 170.873 59.7571 171.159 59.3856 171.13C58.2498 171.052 57.1141 170.945 55.9783 170.795C55.6069 170.745 55.3426 170.402 55.3854 170.03C55.4354 169.659 55.7783 169.402 56.1569 169.445Z" fill="white"/>
<path d="M63.7649 169.93C64.8792 169.93 65.9936 169.895 67.1079 169.83C67.4722 169.809 67.7865 170.088 67.808 170.452C67.8294 170.816 67.5508 171.13 67.1865 171.152C66.0507 171.216 64.915 171.259 63.772 171.266C63.4006 171.266 63.1006 170.973 63.1006 170.602C63.1006 170.23 63.3935 169.93 63.7649 169.93Z" fill="white"/>
<path d="M71.3935 169.452C72.5007 169.323 73.6079 169.166 74.708 168.98C75.058 168.923 75.3937 169.159 75.4508 169.516C75.508 169.866 75.2723 170.202 74.9223 170.259C73.8008 170.444 72.6793 170.609 71.5507 170.752C71.1935 170.794 70.8649 170.537 70.8221 170.18C70.7792 169.823 71.0363 169.494 71.3935 169.452Z" fill="white"/>
<path d="M78.9507 168.18C80.0436 167.944 81.1294 167.687 82.2152 167.409C82.5438 167.323 82.8723 167.523 82.9581 167.844C83.0438 168.166 82.8509 168.494 82.5295 168.587C81.4366 168.88 80.3294 169.151 79.2293 169.409C78.8936 169.487 78.5507 169.273 78.4793 168.937C78.3936 168.594 78.6007 168.259 78.9507 168.18Z" fill="white"/>
<path d="M86.3732 166.237C87.4447 165.909 88.509 165.566 89.5662 165.202C89.8591 165.102 90.1805 165.259 90.2877 165.552C90.3877 165.844 90.2377 166.166 89.9448 166.266C88.8805 166.645 87.8019 167.009 86.7232 167.352C86.4161 167.452 86.0875 167.28 85.9875 166.973C85.8875 166.666 86.0589 166.337 86.3732 166.237Z" fill="white"/>
<path d="M93.6233 163.709C94.6662 163.302 95.702 162.873 96.7306 162.43C96.9949 162.316 97.302 162.437 97.4163 162.702C97.5306 162.966 97.4092 163.266 97.1449 163.387C96.1091 163.844 95.0662 164.287 94.0162 164.709C93.7376 164.823 93.4233 164.687 93.309 164.409C93.209 164.137 93.3376 163.823 93.6233 163.709Z" fill="white"/>
<path d="M100.667 160.644C101.681 160.158 102.681 159.658 103.674 159.137C103.91 159.016 104.195 159.108 104.317 159.344C104.438 159.58 104.345 159.866 104.117 159.987C103.117 160.516 102.117 161.037 101.095 161.537C100.852 161.659 100.552 161.559 100.431 161.309C100.317 161.066 100.417 160.766 100.667 160.644Z" fill="white"/>
<path d="M107.459 157.052C108.424 156.487 109.381 155.901 110.324 155.294C110.517 155.173 110.774 155.223 110.902 155.416C111.024 155.609 110.974 155.859 110.781 155.987C109.838 156.616 108.888 157.23 107.917 157.816C107.702 157.944 107.431 157.88 107.302 157.666C107.174 157.459 107.245 157.18 107.459 157.052Z" fill="white"/>
<path d="M113.896 152.858C114.803 152.201 115.703 151.529 116.582 150.829C116.732 150.708 116.953 150.737 117.068 150.887C117.182 151.037 117.161 151.251 117.018 151.372C116.139 152.087 115.253 152.787 114.346 153.465C114.182 153.594 113.946 153.558 113.818 153.387C113.689 153.222 113.725 152.987 113.896 152.858Z" fill="white"/>
<path d="M119.917 148.065C120.76 147.329 121.589 146.565 122.41 145.801C122.524 145.694 122.696 145.701 122.803 145.815C122.903 145.922 122.903 146.094 122.796 146.201C121.996 146.994 121.167 147.772 120.331 148.529C120.203 148.644 120.01 148.637 119.896 148.508C119.774 148.379 119.781 148.187 119.917 148.065C119.91 148.072 119.91 148.065 119.917 148.065Z" fill="white"/>
<path d="M125.482 142.743L126.639 141.508C126.718 141.429 126.846 141.422 126.925 141.5C127.003 141.579 127.01 141.7 126.939 141.786L125.803 143.051C125.717 143.143 125.582 143.151 125.489 143.065C125.403 142.986 125.396 142.843 125.482 142.743C125.475 142.75 125.475 142.75 125.482 142.743Z" fill="white"/>
<path d="M119.189 93.5545H66.7791C66.3076 93.5545 65.9219 93.1688 65.9219 92.6973V87.8328C65.9219 87.3613 66.3076 86.9756 66.7791 86.9756H119.189C119.66 86.9756 120.046 87.3613 120.046 87.8328V92.6973C120.046 93.1688 119.66 93.5545 119.189 93.5545Z" fill="white"/>
<path d="M121.195 122.027L131.61 137.121L137.353 123.585L121.195 122.027Z" fill="url(#paint4_linear_52_2663)"/>
<path d="M183.098 66.5608L166.998 130.421C166.691 131.643 165.898 132.685 164.805 133.314C163.712 133.943 162.405 134.093 161.197 133.743L97.6872 115.156C96.9586 114.942 96.4371 114.313 96.3586 113.556C96.28 112.799 96.6729 112.077 97.3443 111.727L183.098 66.5608Z" fill="url(#paint5_linear_52_2663)"/>
<path d="M121.202 122.028L183.098 66.5608L131.445 125.056L134.153 129.371L121.202 122.028Z" fill="url(#paint6_linear_52_2663)"/>
<path d="M137.532 126.807L131.611 137.122L131.446 125.057L137.532 126.807Z" fill="url(#paint7_linear_52_2663)"/>
<defs>
<linearGradient id="paint0_linear_52_2663" x1="148.512" y1="242.11" x2="90.0101" y2="46.3541" gradientUnits="userSpaceOnUse">
<stop stop-color="#A33BE3"/>
<stop offset="1" stop-color="#3C34C1"/>
</linearGradient>
<linearGradient id="paint1_linear_52_2663" x1="112.141" y1="-45.3111" x2="107.922" y2="6.72184" gradientUnits="userSpaceOnUse">
<stop stop-color="#6961ED"/>
<stop offset="1" stop-color="#1A0F91"/>
</linearGradient>
<linearGradient id="paint2_linear_52_2663" x1="121.226" y1="132.687" x2="140.539" y2="180.688" gradientUnits="userSpaceOnUse">
<stop stop-color="#E16EF4"/>
<stop offset="1" stop-color="#FE7062"/>
</linearGradient>
<linearGradient id="paint3_linear_52_2663" x1="69.0575" y1="40.3398" x2="119.994" y2="131.743" gradientUnits="userSpaceOnUse">
<stop stop-color="#B861ED"/>
<stop offset="1" stop-color="#E16EF4"/>
</linearGradient>
<linearGradient id="paint4_linear_52_2663" x1="109.026" y1="64.6161" x2="125.339" y2="111.492" gradientUnits="userSpaceOnUse">
<stop stop-color="#4F52FF"/>
<stop offset="1" stop-color="#4042E2"/>
</linearGradient>
<linearGradient id="paint5_linear_52_2663" x1="138.696" y1="90.3267" x2="310.45" y2="144.328" gradientUnits="userSpaceOnUse">
<stop stop-color="#4F52FF"/>
<stop offset="1" stop-color="#4042E2"/>
</linearGradient>
<linearGradient id="paint6_linear_52_2663" x1="138.279" y1="54.4362" x2="154.592" y2="101.313" gradientUnits="userSpaceOnUse">
<stop stop-color="#6961ED"/>
<stop offset="1" stop-color="#4042E2"/>
</linearGradient>
<linearGradient id="paint7_linear_52_2663" x1="171.95" y1="63.1058" x2="138.949" y2="118.607" gradientUnits="userSpaceOnUse">
<stop stop-color="#6961ED"/>
<stop offset="1" stop-color="#2C20AF"/>
</linearGradient>
</defs>
</svg>
