<svg width="234" height="140" viewBox="0 0 234 140" fill="none" xmlns="http://www.w3.org/2000/svg">
<rect x="0.5" width="233.5" height="140" rx="20" fill="#765EEB"/>
<mask id="mask0_1305_384" style="mask-type:alpha" maskUnits="userSpaceOnUse" x="0" y="0" width="234" height="140">
<rect x="0.5" width="233.5" height="140" rx="20" fill="#7D6AF0"/>
</mask>
<g mask="url(#mask0_1305_384)">
<ellipse cx="17.0352" cy="126.5" rx="25.5547" ry="25.5" fill="white" fill-opacity="0.31"/>
<ellipse cx="14.8192" cy="15.0926" rx="14.8192" ry="15.0926" transform="matrix(0.98621 0.165496 -0.184352 0.98286 217.064 73)" fill="white" fill-opacity="0.31"/>
<ellipse cx="3.97561" cy="4.04895" rx="3.97561" ry="4.04895" transform="matrix(0.98621 0.165496 -0.184352 0.98286 198.993 22)" fill="white" fill-opacity="0.31"/>
<ellipse cx="3.97561" cy="4.04895" rx="3.97561" ry="4.04895" transform="matrix(0.98621 0.165496 -0.184352 0.98286 36.9932 11)" fill="white" fill-opacity="0.31"/>
<ellipse cx="9.51945" cy="16" rx="30.0644" ry="30" fill="url(#paint0_linear_1305_384)"/>
<circle cx="12.5" cy="101" r="9" fill="url(#paint1_linear_1305_384)"/>
<ellipse cx="32.5098" cy="33.1096" rx="32.5098" ry="33.1096" transform="matrix(0.98621 0.165496 -0.184352 0.98286 208.708 14)" fill="url(#paint2_linear_1305_384)"/>
</g>
<defs>
<linearGradient id="paint0_linear_1305_384" x1="9.51945" y1="-14" x2="9.51945" y2="46" gradientUnits="userSpaceOnUse">
<stop stop-color="#9959EA"/>
<stop offset="1" stop-color="#F19FFF"/>
</linearGradient>
<linearGradient id="paint1_linear_1305_384" x1="12.5" y1="92" x2="12.5" y2="110" gradientUnits="userSpaceOnUse">
<stop stop-color="#9959EA"/>
<stop offset="1" stop-color="#F19FFF"/>
</linearGradient>
<linearGradient id="paint2_linear_1305_384" x1="32.5098" y1="0" x2="32.5098" y2="66.2191" gradientUnits="userSpaceOnUse">
<stop stop-color="#9959EA"/>
<stop offset="1" stop-color="#F19FFF"/>
</linearGradient>
</defs>
</svg>
