<svg width="234" height="140" viewBox="0 0 234 140" fill="none" xmlns="http://www.w3.org/2000/svg">
<rect width="233.5" height="140" rx="20" fill="#F0EBFF"/>
<mask id="mask0_1305_357" style="mask-type:alpha" maskUnits="userSpaceOnUse" x="0" y="0" width="234" height="140">
<rect width="233.5" height="140" rx="20" fill="#7D6AF0"/>
</mask>
<g mask="url(#mask0_1305_357)">
<ellipse cx="16.5352" cy="126.5" rx="25.5547" ry="25.5" fill="url(#paint0_linear_1305_357)"/>
<ellipse cx="14.8192" cy="15.0926" rx="14.8192" ry="15.0926" transform="matrix(0.98621 0.165496 -0.184352 0.98286 216.564 73)" fill="url(#paint1_linear_1305_357)"/>
<ellipse cx="3.97561" cy="4.04895" rx="3.97561" ry="4.04895" transform="matrix(0.98621 0.165496 -0.184352 0.98286 198.493 22)" fill="url(#paint2_linear_1305_357)"/>
<ellipse cx="3.97561" cy="4.04895" rx="3.97561" ry="4.04895" transform="matrix(0.98621 0.165496 -0.184352 0.98286 36.4932 11)" fill="url(#paint3_linear_1305_357)"/>
<ellipse cx="9.01945" cy="16" rx="30.0644" ry="30" fill="url(#paint4_linear_1305_357)"/>
<circle cx="12" cy="101" r="9" fill="url(#paint5_linear_1305_357)"/>
<ellipse cx="32.5098" cy="33.1096" rx="32.5098" ry="33.1096" transform="matrix(0.98621 0.165496 -0.184352 0.98286 208.208 14)" fill="url(#paint6_linear_1305_357)"/>
</g>
<defs>
<linearGradient id="paint0_linear_1305_357" x1="16.5352" y1="101" x2="16.5352" y2="152" gradientUnits="userSpaceOnUse">
<stop stop-color="#A978EF"/>
<stop offset="1" stop-color="#A978EF"/>
</linearGradient>
<linearGradient id="paint1_linear_1305_357" x1="14.8192" y1="0" x2="14.8192" y2="30.1851" gradientUnits="userSpaceOnUse">
<stop stop-color="#A978EF"/>
<stop offset="1" stop-color="#A978EF"/>
</linearGradient>
<linearGradient id="paint2_linear_1305_357" x1="3.97561" y1="0" x2="3.97561" y2="8.0979" gradientUnits="userSpaceOnUse">
<stop stop-color="#A978EF"/>
<stop offset="1" stop-color="#A978EF"/>
</linearGradient>
<linearGradient id="paint3_linear_1305_357" x1="3.97561" y1="0" x2="3.97561" y2="8.0979" gradientUnits="userSpaceOnUse">
<stop stop-color="#A978EF"/>
<stop offset="1" stop-color="#A978EF"/>
</linearGradient>
<linearGradient id="paint4_linear_1305_357" x1="9.01945" y1="-14" x2="9.01945" y2="46" gradientUnits="userSpaceOnUse">
<stop stop-color="#9959EA"/>
<stop offset="1" stop-color="#F19FFF"/>
</linearGradient>
<linearGradient id="paint5_linear_1305_357" x1="12" y1="92" x2="12" y2="110" gradientUnits="userSpaceOnUse">
<stop stop-color="#9959EA"/>
<stop offset="1" stop-color="#F19FFF"/>
</linearGradient>
<linearGradient id="paint6_linear_1305_357" x1="32.5098" y1="0" x2="32.5098" y2="66.2191" gradientUnits="userSpaceOnUse">
<stop stop-color="#9959EA"/>
<stop offset="1" stop-color="#F19FFF"/>
</linearGradient>
</defs>
</svg>
