<svg width="205" height="204" viewBox="0 0 205 204" fill="none" xmlns="http://www.w3.org/2000/svg">
<path d="M33.7232 122.273C35.8642 123.562 38.3582 124.139 40.8477 123.923C43.3373 123.707 45.6944 122.709 47.5814 121.07C49.4684 119.432 50.7883 117.239 51.3518 114.804C51.9154 112.37 51.6937 109.819 50.7186 107.518C49.7434 105.218 48.0649 103.285 45.9236 101.997C43.7822 100.709 41.2881 100.132 38.7986 100.348C36.3092 100.565 33.9522 101.564 32.0657 103.203C30.1791 104.842 28.8598 107.036 28.2968 109.47C27.7302 111.904 27.9503 114.455 28.9254 116.755C29.9005 119.056 31.5804 120.988 33.7232 122.273Z" fill="#EBEBEB"/>
<path d="M36.2083 110.829C36.2164 111.542 36.4357 112.236 36.8385 112.824C37.2412 113.412 37.8093 113.867 38.4709 114.132C39.1325 114.397 39.8578 114.46 40.5551 114.313C41.2524 114.166 41.8904 113.815 42.3883 113.305C42.8862 112.795 43.2217 112.149 43.3523 111.449C43.4829 110.748 43.4028 110.024 43.1221 109.369C42.8414 108.714 42.3727 108.157 41.7753 107.768C41.1779 107.38 40.4787 107.177 39.7661 107.186C39.2931 107.191 38.8259 107.29 38.3911 107.476C37.9562 107.662 37.5623 107.932 37.2319 108.27C36.9015 108.608 36.641 109.009 36.4654 109.448C36.2897 109.887 36.2024 110.356 36.2083 110.829Z" fill="white"/>
<path d="M33.7069 120.788V122.273C35.5903 123.405 37.7517 123.99 39.9488 123.963C42.146 123.936 44.2922 123.297 46.1468 122.118V120.637C46.1554 119.809 45.9984 118.986 45.6848 118.219C45.3713 117.452 44.9076 116.755 44.321 116.169C43.7343 115.584 43.0366 115.121 42.2688 114.809C41.5009 114.497 40.6785 114.341 39.8496 114.351C39.0208 114.361 38.2023 114.537 37.4423 114.867C36.6822 115.198 35.996 115.677 35.4237 116.277C34.8515 116.877 34.4048 117.585 34.11 118.359C33.8152 119.134 33.6781 119.96 33.7069 120.788Z" fill="white"/>
<path d="M165.267 74.3212C166.669 75.1661 168.304 75.545 169.935 75.4038C171.566 75.2626 173.111 74.6085 174.348 73.5353C175.584 72.462 176.449 71.0248 176.819 69.4296C177.188 67.8344 177.043 66.1632 176.404 64.6556C175.765 63.148 174.665 61.8815 173.262 61.0376C171.858 60.1937 170.224 59.8158 168.593 59.958C166.962 60.1003 165.417 60.7554 164.181 61.8295C162.946 62.9036 162.081 64.3414 161.713 65.9368C161.332 67.5307 161.472 69.2046 162.111 70.7135C162.751 72.2223 163.857 73.4866 165.267 74.3212Z" fill="#EBEBEB"/>
<path d="M166.895 66.8264C166.9 67.2928 167.044 67.747 167.308 68.1316C167.572 68.5162 167.944 68.814 168.377 68.9872C168.81 69.1605 169.285 69.2014 169.741 69.1049C170.197 69.0083 170.615 68.7787 170.94 68.4449C171.266 68.1111 171.486 67.6883 171.571 67.2298C171.657 66.7713 171.604 66.2977 171.42 65.869C171.237 65.4403 170.93 65.0757 170.539 64.8212C170.148 64.5668 169.691 64.434 169.224 64.4396C168.915 64.4434 168.609 64.508 168.324 64.63C168.039 64.752 167.782 64.9288 167.565 65.1505C167.349 65.3721 167.178 65.6342 167.063 65.9218C166.948 66.2093 166.891 66.5167 166.895 66.8264Z" fill="white"/>
<path d="M165.254 73.35V74.321C166.489 75.0644 167.907 75.4487 169.349 75.4307C170.79 75.4126 172.198 74.993 173.414 74.219V73.252C173.401 72.17 172.959 71.1373 172.185 70.3814C171.41 69.6254 170.367 69.208 169.285 69.221C168.203 69.234 167.171 69.6763 166.415 70.4506C165.659 71.2249 165.241 72.2679 165.254 73.35Z" fill="white"/>
<path d="M52.3031 61.6814L25.3838 65.3545L27.7132 82.4261L54.6325 78.753L52.3031 61.6814Z" fill="#EBEBEB"/>
<path d="M52.316 61.6895C51.3695 62.8767 50.3984 64.0232 49.46 65.1983C48.5216 66.3733 47.522 67.4994 46.5428 68.6418C45.5636 69.7842 44.5028 71.0163 43.4747 72.1955L43.3808 72.3056C42.4751 73.3474 41.5639 74.3851 40.6472 75.4187L40.5126 75.5696L40.3453 75.4635L36.8814 73.1869C36.8388 73.164 36.7979 73.1381 36.759 73.1094C35.4344 72.2417 34.1192 71.374 32.8136 70.5063C31.5733 69.6686 30.3316 68.8227 29.0886 67.9686C27.8646 67.0955 26.608 66.2509 25.3799 65.3615C26.6569 66.0918 27.9217 66.8751 29.1906 67.6299C30.4595 68.3847 31.7243 69.1803 32.985 69.9719C34.3885 70.845 35.792 71.7331 37.1956 72.6361L40.3494 74.6761C41.1654 73.7459 42.0059 72.8075 42.8423 71.8854C43.9561 70.6614 45.07 69.4129 46.192 68.193C47.1956 67.105 48.2034 66.017 49.2152 64.929C50.276 63.8274 51.2634 62.738 52.316 61.6895Z" fill="white"/>
<path d="M37.2897 73.0322C37.2814 73.0441 37.2718 73.055 37.2611 73.0649C37.1387 73.2036 37.0123 73.3464 36.8858 73.4729C36.2901 74.1379 35.6618 74.7785 35.0416 75.4027C34.2746 76.1738 33.4831 76.9205 32.6875 77.663C31.8919 78.4056 31.0555 79.1237 30.2395 79.8295C29.4235 80.5353 28.5667 81.2289 27.6895 81.8695C28.4075 81.0535 29.1664 80.2375 29.9335 79.4909C30.7005 78.7442 31.5002 77.9731 32.2917 77.2305C33.0832 76.488 33.9237 75.7658 34.7397 75.06C35.4007 74.4969 36.0739 73.938 36.7797 73.4076L37.2652 73.0404L37.2897 73.0322Z" fill="white"/>
<path d="M54.4868 78.2218C53.4668 77.8138 52.4672 77.3854 51.4839 76.9284C50.5006 76.4715 49.5214 75.986 48.5504 75.4964C47.5793 75.0068 46.6205 74.4845 45.6944 73.946C44.9233 73.5135 44.1562 73.0647 43.4096 72.5873L42.9322 72.2813C42.9322 72.2813 42.9077 72.2813 42.8955 72.2568H42.9363L43.5034 72.4853C44.3194 72.8117 45.1069 73.1667 45.8984 73.5339C46.8898 73.9908 47.8609 74.4764 48.8278 74.97C49.7948 75.4637 50.7577 75.9778 51.6838 76.5164C52.61 77.0549 53.5729 77.618 54.4868 78.2218Z" fill="white"/>
<path d="M137.745 101.545L131.456 128.105L173.338 138.021L179.627 111.46L137.745 101.545Z" fill="#EBEBEB"/>
<path d="M179.612 111.453C177.54 112.677 175.447 113.812 173.366 114.999C171.285 116.186 169.188 117.3 167.095 118.43C164.919 119.613 162.732 120.78 160.534 121.931L160.334 122.049L154.52 125.093L154.235 125.232L154.047 124.979C152.766 123.205 151.492 121.428 150.224 119.646C150.175 119.586 150.128 119.523 150.085 119.458C148.647 117.446 147.213 115.419 145.785 113.379C144.426 111.441 143.072 109.475 141.705 107.508C140.338 105.542 139.025 103.559 137.715 101.539C139.184 103.351 140.608 105.211 142.052 107.067C143.496 108.924 144.908 110.801 146.328 112.69C147.903 114.779 149.472 116.892 151.036 119.03C152.208 120.621 153.378 122.215 154.545 123.812C156.299 122.91 158.062 121.996 159.82 121.111C162.17 119.911 164.522 118.725 166.875 117.553C168.98 116.509 171.091 115.475 173.207 114.452C175.381 113.449 177.495 112.412 179.612 111.453Z" fill="white"/>
<path d="M150.979 119.646C150.958 119.646 150.942 119.67 150.918 119.678C150.657 119.817 150.391 119.952 150.126 120.086C148.865 120.727 147.588 121.31 146.299 121.885C144.724 122.587 143.129 123.24 141.53 123.885C139.93 124.529 138.319 125.109 136.691 125.696C135.063 126.284 133.427 126.814 131.754 127.275C133.288 126.459 134.855 125.737 136.425 125.039C137.996 124.342 139.604 123.689 141.199 123.04C142.794 122.391 144.414 121.796 146.046 121.224C147.34 120.772 148.653 120.331 149.983 119.939C150.289 119.845 150.595 119.76 150.91 119.674L150.979 119.646Z" fill="white"/>
<path d="M173.435 137.137C172.15 135.978 170.926 134.75 169.73 133.51C168.535 132.269 167.368 131 166.209 129.723C165.051 128.446 163.933 127.133 162.843 125.798C161.95 124.713 161.073 123.616 160.24 122.486C160.057 122.241 159.881 122 159.706 121.759C159.691 121.741 159.678 121.722 159.665 121.702C159.682 121.721 159.701 121.737 159.722 121.751L160.436 122.4C161.448 123.346 162.419 124.326 163.382 125.317C164.581 126.541 165.74 127.826 166.891 129.111C168.041 130.397 169.167 131.702 170.261 133.036C171.354 134.371 172.427 135.725 173.435 137.137Z" fill="white"/>
<path d="M170.464 15.8955H145.735V31.579H170.464V15.8955Z" fill="#EBEBEB"/>
<path d="M170.465 15.9121C169.465 16.8668 168.45 17.7807 167.442 18.7232C166.434 19.6657 165.402 20.5633 164.39 21.4691C163.378 22.3748 162.252 23.3622 161.183 24.2965L161.089 24.3863L158.233 26.8588L158.09 26.973L157.952 26.8588L155.096 24.3822L154.998 24.2965C153.923 23.3635 152.853 22.4197 151.787 21.465C150.771 20.5633 149.747 19.6412 148.739 18.7232C147.731 17.8052 146.699 16.8668 145.716 15.9121C146.777 16.7281 147.821 17.589 148.874 18.4295C149.926 19.2699 150.967 20.1349 152.007 21.008C153.166 21.9655 154.323 22.9379 155.479 23.9252C156.344 24.6556 157.209 25.394 158.074 26.1325C158.935 25.394 159.8 24.6515 160.665 23.9252C161.821 22.946 162.978 21.9723 164.137 21.0039C165.176 20.139 166.219 19.2822 167.266 18.4335C168.36 17.5727 169.412 16.7281 170.465 15.9121Z" fill="white"/>
<path d="M155.54 24.2676L155.511 24.2921C155.381 24.4063 155.245 24.5165 155.103 24.6225C154.483 25.1489 153.851 25.6507 153.202 26.1362C152.414 26.736 151.611 27.3113 150.799 27.8865C149.987 28.4618 149.167 29.0004 148.351 29.5389C147.535 30.0775 146.674 30.5957 145.801 31.073C146.552 30.4161 147.331 29.8041 148.118 29.2085C148.906 28.6128 149.714 28.0293 150.517 27.4581C151.321 26.8869 152.149 26.3361 152.99 25.8017C153.655 25.3733 154.328 24.953 155.03 24.5777L155.511 24.3043L155.54 24.2676Z" fill="white"/>
<path d="M170.404 31.073C169.53 30.5957 168.686 30.0734 167.854 29.5389C167.021 29.0045 166.201 28.4455 165.385 27.8865C164.569 27.3276 163.753 26.736 162.982 26.1362C162.337 25.6507 161.705 25.1529 161.089 24.6266L160.681 24.2921C160.681 24.2921 160.681 24.2921 160.652 24.2676L160.689 24.288L161.17 24.5613C161.864 24.9693 162.533 25.3773 163.21 25.7853C164.047 26.3198 164.863 26.8788 165.679 27.4418C166.495 28.0049 167.291 28.5883 168.078 29.1921C168.865 29.796 169.653 30.4161 170.404 31.073Z" fill="white"/>
<path d="M102.415 193.445C147.105 193.445 183.333 185.798 183.333 176.366C183.333 166.934 147.105 159.287 102.415 159.287C57.7246 159.287 21.4961 166.934 21.4961 176.366C21.4961 185.798 57.7246 193.445 102.415 193.445Z" fill="#EBEBEB"/>
<path d="M16.8076 151.327L38.2317 151.225L59.6558 151.192L102.5 151.123L145.344 151.188L166.768 151.225L188.192 151.327L166.768 151.425L145.344 151.462L102.5 151.531L59.6558 151.462L38.2317 151.425L16.8076 151.327Z" fill="#263238"/>
<path d="M135.699 22.2568H69.126C68.2332 22.2643 67.3507 22.4477 66.5288 22.7965C65.7069 23.1453 64.9619 23.6527 64.3363 24.2897C63.7107 24.9267 63.2167 25.6808 62.8828 26.5088C62.5488 27.3368 62.3814 28.2225 62.39 29.1153V166.158C62.3747 167.961 63.0756 169.696 64.3387 170.982C65.6017 172.268 67.3236 173 69.126 173.017H135.699C137.502 173 139.225 172.268 140.488 170.982C141.752 169.696 142.454 167.961 142.44 166.158V29.1153C142.455 27.3122 141.753 25.5768 140.489 24.2907C139.225 23.0045 137.503 22.273 135.699 22.2568ZM138.225 161.919C138.225 165.526 135.524 168.447 132.195 168.447H72.6267C69.2892 168.447 66.5883 165.526 66.5883 161.919V34.3092C66.5883 26.9652 69.2892 26.602 72.6267 26.602H84.5607C85.2543 26.602 85.8214 27.3895 85.8214 28.3646V28.7726C85.8214 31.0615 87.074 31.0656 88.608 31.0656H116.197C117.747 31.0656 118.992 31.0656 118.992 28.7726V28.3646C118.992 27.3895 119.551 26.602 120.257 26.602H132.187C135.516 26.602 138.217 27.5772 138.217 34.3092L138.225 161.919Z" fill="#263238"/>
<path d="M138.229 34.4189V162.033C138.229 165.64 135.528 168.561 132.199 168.561H72.6312C69.2937 168.561 66.5928 165.644 66.5928 162.033V34.4189C66.5928 27.0749 69.2937 26.7158 72.6312 26.7158H84.5652C85.2588 26.7158 85.8259 27.5033 85.8259 28.4784V28.8864C85.8259 31.1753 87.0785 31.1834 88.6125 31.1834H116.21C117.76 31.1834 119.004 31.1834 119.004 28.8864V28.4784C119.004 27.5033 119.563 26.7158 120.269 26.7158H132.199C135.549 26.7158 138.229 27.6909 138.229 34.4189Z" fill="white"/>
<path d="M138.229 34.4229V45.9979H66.5967V34.4229C66.5967 27.0789 69.2976 26.7158 72.6351 26.7158H84.5691C85.2627 26.7158 85.8298 27.5033 85.8298 28.4784V28.8864C85.8298 31.1712 87.0824 31.1793 88.6164 31.1793H116.209C117.76 31.1793 119.004 31.1793 119.004 28.8864V28.4784C119.004 27.5033 119.563 26.7158 120.269 26.7158H132.199C135.549 26.7158 138.229 27.6909 138.229 34.4229Z" fill="url(#paint0_linear_116_2160)"/>
<path d="M106.172 28.2259H98.6488C98.5867 28.2254 98.5253 28.2124 98.4682 28.1878C98.4112 28.1632 98.3597 28.1273 98.3167 28.0825C98.2737 28.0376 98.2402 27.9846 98.218 27.9265C98.1959 27.8684 98.1856 27.8065 98.1878 27.7444C98.1878 27.6218 98.2362 27.5041 98.3226 27.417C98.4089 27.3299 98.5262 27.2804 98.6488 27.2793H106.172C106.234 27.2788 106.295 27.2904 106.352 27.3135C106.408 27.3367 106.46 27.3709 106.504 27.4141C106.547 27.4573 106.582 27.5088 106.606 27.5655C106.629 27.6222 106.642 27.683 106.642 27.7444C106.644 27.8072 106.633 27.8698 106.611 27.9284C106.588 27.987 106.554 28.0404 106.51 28.0854C106.466 28.1304 106.413 28.166 106.355 28.1902C106.297 28.2143 106.235 28.2265 106.172 28.2259Z" fill="white"/>
<path d="M82.5083 29.4699C82.4715 29.5066 82.4307 29.5433 82.394 29.5841C82.3703 29.6038 82.3484 29.6256 82.3287 29.6494C82.1828 29.5032 82.0095 29.3872 81.8188 29.3081C81.628 29.2289 81.4235 29.1882 81.2169 29.1882C81.0104 29.1882 80.8059 29.2289 80.6151 29.3081C80.4243 29.3872 80.251 29.5032 80.1051 29.6494L80.0439 29.5841L79.9297 29.4699L80.0766 29.3434C80.1788 29.2579 80.2912 29.1853 80.4111 29.1271C80.558 29.0526 80.7145 28.9991 80.8763 28.968L81.1007 28.9395H81.2843H81.4352C81.5746 28.9556 81.7116 28.9885 81.8432 29.0374C81.9404 29.0701 82.0335 29.1139 82.1207 29.1679C82.2147 29.2206 82.3034 29.2821 82.3858 29.3515L82.5083 29.4617V29.4699Z" fill="white"/>
<path d="M80.4678 30.0129L80.2842 29.8293C80.5305 29.5834 80.8643 29.4453 81.2124 29.4453C81.5604 29.4453 81.8943 29.5834 82.1406 29.8293L81.957 30.0089C81.8592 29.9107 81.7427 29.8331 81.6145 29.7805C81.4863 29.728 81.3489 29.7016 81.2103 29.7029C81.072 29.7017 80.9349 29.7286 80.8073 29.7819C80.6797 29.8352 80.5642 29.9138 80.4678 30.0129Z" fill="white"/>
<path d="M81.7775 30.1922L81.5979 30.3718C81.5475 30.3217 81.4876 30.2822 81.4218 30.2556C81.3559 30.229 81.2854 30.2158 81.2144 30.2167C81.1436 30.2159 81.0735 30.2296 81.0082 30.257C80.943 30.2844 80.884 30.3248 80.835 30.3758L80.6514 30.1922C80.725 30.1177 80.8127 30.0586 80.9093 30.0182C81.006 29.9778 81.1097 29.957 81.2144 29.957C81.3192 29.957 81.4229 29.9778 81.5195 30.0182C81.6162 30.0586 81.7038 30.1177 81.7775 30.1922Z" fill="white"/>
<path d="M81.3824 30.5392C81.3832 30.5725 81.3741 30.6052 81.3562 30.6333C81.3383 30.6613 81.3125 30.6834 81.282 30.6967C81.2515 30.7099 81.2177 30.7138 81.185 30.7079C81.1523 30.7019 81.1221 30.6863 81.0983 30.663C81.0745 30.6398 81.0582 30.61 81.0514 30.5775C81.0446 30.5449 81.0477 30.5111 81.0602 30.4803C81.0727 30.4495 81.0941 30.4231 81.1217 30.4045C81.1493 30.386 81.1818 30.376 81.2151 30.376C81.2369 30.3755 81.2585 30.3793 81.2788 30.3873C81.2991 30.3952 81.3175 30.4072 81.3331 30.4224C81.3487 30.4376 81.3611 30.4557 81.3696 30.4758C81.378 30.4959 81.3824 30.5174 81.3824 30.5392Z" fill="white"/>
<path d="M71.2676 29.8174C71.2668 29.7226 71.2942 29.6298 71.3463 29.5506C71.3985 29.4715 71.473 29.4097 71.5604 29.3731C71.6478 29.3364 71.7441 29.3266 71.8371 29.3449C71.93 29.3632 72.0155 29.4087 72.0825 29.4758C72.1495 29.5428 72.195 29.6282 72.2133 29.7212C72.2316 29.8141 72.2218 29.9105 72.1852 29.9978C72.1485 30.0852 72.0867 30.1598 72.0076 30.2119C71.9285 30.264 71.8356 30.2914 71.7409 30.2906C71.6154 30.2906 71.495 30.2408 71.4062 30.152C71.3175 30.0633 71.2676 29.9429 71.2676 29.8174Z" fill="white"/>
<path d="M72.7656 29.817C72.7656 29.7234 72.7934 29.6319 72.8454 29.5541C72.8974 29.4763 72.9713 29.4156 73.0578 29.3798C73.1443 29.344 73.2394 29.3346 73.3312 29.3528C73.423 29.3711 73.5074 29.4162 73.5736 29.4824C73.6398 29.5486 73.6848 29.6329 73.7031 29.7247C73.7214 29.8165 73.712 29.9117 73.6762 29.9981C73.6403 30.0846 73.5797 30.1585 73.5019 30.2105C73.424 30.2626 73.3325 30.2903 73.2389 30.2903C73.1134 30.2903 72.993 30.2404 72.9043 30.1517C72.8155 30.0629 72.7656 29.9426 72.7656 29.817Z" fill="white"/>
<path d="M74.2588 29.8174C74.258 29.7226 74.2854 29.6298 74.3376 29.5506C74.3897 29.4715 74.4642 29.4097 74.5516 29.3731C74.639 29.3364 74.7353 29.3266 74.8283 29.3449C74.9213 29.3632 75.0067 29.4087 75.0737 29.4758C75.1407 29.5428 75.1862 29.6282 75.2045 29.7212C75.2228 29.8141 75.213 29.9105 75.1764 29.9978C75.1398 30.0852 75.0779 30.1598 74.9988 30.2119C74.9197 30.264 74.8268 30.2914 74.7321 30.2906C74.6066 30.2906 74.4862 30.2408 74.3974 30.152C74.3087 30.0633 74.2588 29.9429 74.2588 29.8174Z" fill="white"/>
<path d="M75.752 29.8174C75.7512 29.7228 75.7785 29.6301 75.8304 29.5511C75.8824 29.472 75.9567 29.4102 76.0438 29.3735C76.131 29.3367 76.2271 29.3267 76.3199 29.3446C76.4128 29.3626 76.4982 29.4077 76.5654 29.4743C76.6326 29.5409 76.6784 29.626 76.6972 29.7187C76.7159 29.8114 76.7067 29.9076 76.6707 29.995C76.6347 30.0825 76.5735 30.1573 76.495 30.2099C76.4164 30.2626 76.3239 30.2907 76.2293 30.2907C76.1034 30.2907 75.9826 30.2409 75.8932 30.1523C75.8038 30.0636 75.753 29.9433 75.752 29.8174Z" fill="white"/>
<path d="M77.249 29.8174C77.2482 29.7226 77.2756 29.6298 77.3278 29.5506C77.3799 29.4715 77.4544 29.4097 77.5418 29.3731C77.6292 29.3364 77.7255 29.3266 77.8185 29.3449C77.9115 29.3632 77.9969 29.4087 78.0639 29.4758C78.1309 29.5428 78.1765 29.6282 78.1948 29.7212C78.2131 29.8141 78.2033 29.9105 78.1666 29.9978C78.13 30.0852 78.0682 30.1598 77.9891 30.2119C77.9099 30.264 77.8171 30.2914 77.7223 30.2906C77.5968 30.2906 77.4764 30.2408 77.3877 30.152C77.2989 30.0633 77.249 29.9429 77.249 29.8174Z" fill="white"/>
<path d="M132.856 30.8536H128.992V29.0625H132.856V30.8536ZM129.184 30.6578H132.652V29.2583H129.184V30.6578Z" fill="white"/>
<path d="M131.803 29.3682H129.311V30.5514H131.803V29.3682Z" fill="white"/>
<path d="M133.198 29.4785H132.855V30.4373H133.198V29.4785Z" fill="white"/>
<path d="M73.3851 41.5712L71.2676 39.5883L73.3851 37.6055L73.7115 37.9563L71.9693 39.5883L73.7115 41.2203L73.3851 41.5712Z" fill="white"/>
<path d="M131.733 41.7143H130.305V41.2083C130.305 41.188 130.299 41.1683 130.288 41.1511C130.277 41.1339 130.262 41.1198 130.244 41.1104C130.189 41.0825 130.136 41.0511 130.085 41.0166C130.067 41.0054 130.045 40.9995 130.024 40.9995C130.002 40.9995 129.981 41.0054 129.963 41.0166L129.534 41.2655L128.82 40.0415L129.253 39.7926C129.27 39.7808 129.284 39.7649 129.293 39.7464C129.302 39.7278 129.307 39.7072 129.306 39.6865C129.306 39.6579 129.306 39.6253 129.306 39.5967C129.306 39.5682 129.306 39.5355 129.306 39.507C129.307 39.4857 129.302 39.4645 129.293 39.4453C129.284 39.4261 129.27 39.4094 129.253 39.3968L128.82 39.152L129.534 37.928L129.963 38.1769C129.981 38.1877 130.001 38.1934 130.022 38.1934C130.043 38.1934 130.063 38.1877 130.081 38.1769L130.244 38.0871C130.263 38.077 130.278 38.0623 130.289 38.0444C130.299 38.0265 130.305 38.006 130.305 37.9851V37.4629H131.733V37.9443C131.733 37.9653 131.739 37.9859 131.75 38.0039C131.76 38.0219 131.776 38.0366 131.795 38.0463C131.849 38.0729 131.903 38.1029 131.954 38.1361C131.972 38.1468 131.993 38.1525 132.015 38.1525C132.036 38.1525 132.058 38.1468 132.076 38.1361L132.505 37.8872L133.219 39.1112L132.786 39.3601C132.768 39.3705 132.753 39.3861 132.743 39.405C132.734 39.4239 132.73 39.4452 132.733 39.4662V39.6457C132.73 39.6666 132.734 39.6879 132.743 39.7068C132.753 39.7257 132.768 39.7414 132.786 39.7518L133.219 40.0007L132.505 41.2247L132.072 40.9758C132.054 40.965 132.034 40.9593 132.013 40.9593C131.992 40.9593 131.972 40.965 131.954 40.9758C131.903 41.0103 131.85 41.0417 131.795 41.0696C131.777 41.079 131.762 41.0931 131.751 41.1103C131.74 41.1275 131.734 41.1472 131.733 41.1675V41.7143ZM130.611 41.4083H131.427V41.2083C131.427 41.1312 131.447 41.0553 131.488 40.9896C131.528 40.9239 131.587 40.871 131.656 40.837L131.786 40.7636C131.852 40.7214 131.929 40.699 132.007 40.699C132.085 40.699 132.161 40.7214 132.227 40.7636L132.39 40.8575L132.798 40.1516L132.631 40.0578C132.56 40.0178 132.503 39.9576 132.467 39.8849C132.43 39.8123 132.417 39.7304 132.427 39.6498V39.4988C132.422 39.4217 132.439 39.3448 132.475 39.2769C132.512 39.209 132.568 39.153 132.635 39.1153L132.798 39.0174L132.39 38.3115L132.227 38.4095C132.161 38.4516 132.085 38.4741 132.007 38.4741C131.929 38.4741 131.852 38.4516 131.786 38.4095C131.746 38.3802 131.702 38.3556 131.656 38.336C131.586 38.3018 131.527 38.2482 131.487 38.1817C131.446 38.1152 131.426 38.0385 131.427 37.9607V37.773H130.611V37.9443C130.613 38.0226 130.592 38.0996 130.55 38.1662C130.509 38.2327 130.45 38.286 130.379 38.3197C130.334 38.341 130.29 38.3656 130.248 38.3931C130.183 38.4345 130.107 38.4564 130.03 38.4564C129.953 38.4564 129.877 38.4345 129.812 38.3931L129.644 38.2952L129.236 39.001L129.4 39.099C129.468 39.1369 129.524 39.1936 129.56 39.2623C129.597 39.331 129.614 39.4088 129.608 39.4866V39.6375C129.613 39.7146 129.596 39.7916 129.559 39.8594C129.522 39.9273 129.467 39.9834 129.4 40.021L129.236 40.1149L129.644 40.8207L129.812 40.7269C129.877 40.6847 129.954 40.6623 130.032 40.6623C130.11 40.6623 130.187 40.6847 130.252 40.7269C130.294 40.7551 130.338 40.781 130.383 40.8044C130.452 40.8384 130.51 40.8913 130.551 40.957C130.591 41.0227 130.612 41.0985 130.611 41.1757V41.4083ZM131.019 40.6575C130.807 40.6583 130.6 40.5963 130.423 40.4792C130.246 40.3622 130.108 40.1953 130.026 39.9998C129.944 39.8043 129.922 39.5888 129.962 39.3806C130.002 39.1725 130.103 38.9809 130.252 38.8301C130.401 38.6793 130.592 38.576 130.8 38.5334C131.007 38.4907 131.223 38.5106 131.419 38.5904C131.616 38.6703 131.784 38.8065 131.903 38.982C132.022 39.1575 132.087 39.3643 132.088 39.5763C132.09 39.7177 132.064 39.8581 132.011 39.9892C131.958 40.1203 131.879 40.2396 131.78 40.3401C131.68 40.4407 131.562 40.5205 131.431 40.575C131.301 40.6295 131.161 40.6575 131.019 40.6575ZM131.019 38.8215C130.867 38.8207 130.718 38.8654 130.591 38.9497C130.464 39.0341 130.365 39.1543 130.307 39.2951C130.248 39.4359 130.233 39.5909 130.264 39.7403C130.294 39.8896 130.368 40.0267 130.476 40.1338C130.584 40.241 130.722 40.3135 130.872 40.342C131.022 40.3706 131.176 40.3539 131.317 40.294C131.457 40.2342 131.576 40.134 131.659 40.0062C131.742 39.8784 131.785 39.7287 131.782 39.5763C131.779 39.3757 131.698 39.1844 131.555 39.0433C131.412 38.9022 131.22 38.8226 131.019 38.8215Z" fill="white"/>
<path d="M127.972 123.086H76.8574V79.8465L102.41 63.6162L127.972 79.8465V123.086Z" fill="url(#paint1_linear_116_2160)"/>
<path opacity="0.2" d="M127.972 123.086H76.8574V79.8465L102.41 63.6162L127.972 79.8465V123.086Z" fill="black"/>
<path d="M125.092 119.777H79.7383V61.5596H113.415L125.092 72.6531V119.777Z" fill="#EBEBEB"/>
<path d="M113.414 61.5596L125.091 72.6531H113.414V61.5596Z" fill="#DBDBDB"/>
<path d="M84.1645 72.8242H109.379V71.3309H84.1645V72.8242Z" fill="#DBDBDB"/>
<path d="M84.1645 76.5986H109.379V75.1054H84.1645V76.5986Z" fill="#DBDBDB"/>
<path d="M84.1645 80.3682H109.379V78.8749H84.1645V80.3682Z" fill="#DBDBDB"/>
<path d="M84.1611 84.1426H121.105V82.6493H84.1611V84.1426Z" fill="#DBDBDB"/>
<path d="M84.1611 87.916H121.105V86.4227H84.1611V87.916Z" fill="#DBDBDB"/>
<path d="M84.1611 91.6904H121.105V90.1971H84.1611V91.6904Z" fill="#DBDBDB"/>
<path d="M84.1611 95.4639H121.105V93.9706H84.1611V95.4639Z" fill="#DBDBDB"/>
<path d="M84.1611 99.2344H121.105V97.7411H84.1611V99.2344Z" fill="#DBDBDB"/>
<path d="M84.1611 103.008H121.105V101.515H84.1611V103.008Z" fill="#DBDBDB"/>
<path d="M84.1611 106.778H121.105V105.285H84.1611V106.778Z" fill="#DBDBDB"/>
<path d="M84.1611 110.557H121.105V109.063H84.1611V110.557Z" fill="#DBDBDB"/>
<path d="M84.1611 114.33H121.105V112.837H84.1611V114.33Z" fill="#DBDBDB"/>
<path d="M127.972 90.6699V123.086H76.8574V90.6699C79.0525 91.8939 81.2108 93.2158 83.3854 94.4888C85.5601 95.7618 87.7143 97.0837 89.8645 98.4056C92.2594 99.8622 94.6544 101.347 97.0412 102.841L97.1187 102.796C97.0942 102.796 97.082 102.836 97.0575 102.849C98.8445 103.961 100.633 105.08 102.423 106.207C104.206 105.085 105.993 103.954 107.78 102.849C107.759 102.849 107.743 102.812 107.719 102.796C107.743 102.812 107.769 102.826 107.796 102.836C110.182 101.346 112.574 99.8662 114.973 98.3974C117.122 97.0837 119.279 95.7808 121.444 94.4888C123.622 93.2158 125.777 91.9102 127.972 90.6699Z" fill="url(#paint2_linear_116_2160)"/>
<g opacity="0.2">
<path d="M127.972 90.6699C125.907 92.1183 123.806 93.5259 121.725 94.9376C119.644 96.3493 117.527 97.7283 115.413 99.1114C113.21 100.556 111.003 101.986 108.792 103.404L108.592 103.542L102.704 107.304L102.41 107.48L102.129 107.304C100.162 106.05 98.2013 104.796 96.2456 103.542L96.0416 103.412C93.8221 101.992 91.6107 100.558 89.4075 99.1114C87.3022 97.7365 85.201 96.3411 83.1039 94.9458C81.0068 93.5504 78.9219 92.1265 76.8574 90.6781C79.0525 91.9021 81.2108 93.224 83.3854 94.497C85.5601 95.7699 87.7143 97.0918 89.8645 98.4138C92.2594 99.8703 94.6544 101.355 97.0412 102.849C98.8282 103.961 100.617 105.08 102.406 106.207C104.189 105.085 105.976 103.954 107.763 102.849C110.149 101.358 112.541 99.8785 114.94 98.4097C117.089 97.0959 119.246 95.793 121.411 94.501C123.622 93.2158 125.777 91.9102 127.972 90.6699Z" fill="black"/>
<path d="M97.1146 102.816C97.0902 102.816 97.0779 102.857 97.0534 102.869C96.7814 103.101 96.5094 103.329 96.2374 103.555C94.9563 104.636 93.6426 105.672 92.3084 106.68C90.6764 107.904 89.0158 109.128 87.343 110.295C85.6702 111.462 83.973 112.604 82.2471 113.71C80.5213 114.816 78.775 115.897 76.9717 116.888C78.5221 115.53 80.1337 114.261 81.7616 113.029C83.3895 111.796 85.0623 110.581 86.727 109.41C88.3916 108.239 90.1052 107.092 91.831 105.987C93.206 105.105 94.6054 104.236 96.0334 103.424C96.3598 103.233 96.6903 103.049 97.029 102.861L97.1146 102.816Z" fill="black"/>
<path d="M127.85 116.868C126.046 115.876 124.296 114.795 122.578 113.689C120.861 112.584 119.159 111.433 117.474 110.275C115.789 109.116 114.133 107.9 112.505 106.66C111.179 105.652 109.865 104.62 108.592 103.543L107.776 102.849C107.756 102.849 107.739 102.812 107.715 102.796C107.739 102.813 107.765 102.826 107.792 102.837C108.131 103.028 108.461 103.212 108.792 103.404C110.22 104.22 111.607 105.085 112.99 105.966C114.716 107.072 116.405 108.222 118.086 109.389C119.767 110.556 121.424 111.764 123.052 113.008C124.679 114.253 126.299 115.509 127.85 116.868Z" fill="black"/>
</g>
<path d="M84.3075 134.901H76.8574V142.351H84.3075V134.901Z" fill="#EBEBEB"/>
<path d="M95.1932 134.901H87.7432V142.351H95.1932V134.901Z" fill="#EBEBEB"/>
<path d="M106.079 134.901H98.6289V142.351H106.079V134.901Z" fill="#EBEBEB"/>
<path d="M116.964 134.901H109.514V142.351H116.964V134.901Z" fill="#EBEBEB"/>
<path d="M127.853 134.901H120.403V142.351H127.853V134.901Z" fill="#EBEBEB"/>
<path d="M127.621 146.276H76.6289V147.08H127.621V146.276Z" fill="#EBEBEB"/>
<path d="M127.621 148.398H76.6289V149.202H127.621V148.398Z" fill="#EBEBEB"/>
<path d="M127.621 150.523H76.6289V151.327H127.621V150.523Z" fill="#EBEBEB"/>
<path d="M100.301 152.646H76.6289V153.449H100.301V152.646Z" fill="#EBEBEB"/>
<path d="M77.049 72.2163H76.4696V71.9103H78.1016V72.2163H77.049ZM74.4296 72.1878L72.7976 72.1429V71.8369L74.4296 71.8818V72.1878ZM80.1416 72.1878V71.8818C80.6802 71.8818 81.2228 71.8573 81.7736 71.8369V72.1429C81.2269 72.1511 80.6843 72.1633 80.1457 72.1755L80.1416 72.1878ZM83.8136 72.0613V71.7553L85.4456 71.6737V71.9797L83.8136 72.0613ZM70.7576 72.0613C70.2068 72.0287 69.6601 71.9919 69.1256 71.9511L69.146 71.6451C69.6805 71.6859 70.2191 71.7227 70.778 71.7553L70.7576 72.0613ZM87.4856 71.8614L87.4652 71.5554L89.0972 71.4411L89.1217 71.7471L87.4856 71.8614ZM67.0856 71.7716C66.5308 71.7145 65.9922 71.6533 65.4536 71.5839L65.4904 71.282C66.0167 71.3473 66.5593 71.4085 67.1224 71.4656L67.0856 71.7716ZM91.1576 71.5839L91.1291 71.2779L92.7611 71.1351L92.7896 71.4411L91.1576 71.5839ZM63.4463 71.3024C62.8955 71.2167 62.3569 71.1229 61.8143 71.025L61.8714 70.7271C62.3936 70.821 62.9281 70.9148 63.4748 71.0005L63.4463 71.3024ZM94.8133 71.2453L94.7848 70.9393L96.4168 70.772L96.4494 71.078L94.8133 71.2453ZM98.4853 70.8373L98.4486 70.5313L98.8566 70.4823C99.2646 70.4375 99.6522 70.3885 100.048 70.3355L100.089 70.6374L98.8892 70.7883L98.4853 70.8373ZM59.8232 70.5843C59.2847 70.4619 58.7502 70.3314 58.2361 70.1763L58.3136 69.8785C58.8236 70.0172 59.354 70.1437 59.8926 70.2661L59.8232 70.5843ZM102.092 70.3355L102.043 70.0335C102.582 69.9438 103.116 69.854 103.651 69.752L103.708 70.0539C103.175 70.1519 102.636 70.2457 102.092 70.3355ZM105.715 69.6582L105.654 69.3603C106.184 69.2461 106.715 69.1319 107.245 69.0095L107.31 69.3073C106.796 69.4297 106.266 69.5439 105.731 69.6582H105.715ZM56.2532 69.6337C55.7269 69.4664 55.2047 69.2869 54.7028 69.1033L54.8089 68.8177C55.3067 68.9972 55.8248 69.1767 56.3471 69.344L56.2532 69.6337ZM109.293 68.8177L109.216 68.5239C109.742 68.3893 110.268 68.2506 110.791 68.1159L110.872 68.4097L109.293 68.8177ZM52.8016 68.3322C52.2956 68.1078 51.7979 67.8711 51.3205 67.6263L51.4592 67.353C51.9325 67.5978 52.4262 67.8303 52.924 68.0507L52.8016 68.3322ZM112.835 67.8426L112.749 67.5488L114.303 67.0755L114.393 67.3652C113.895 67.5325 113.377 67.6916 112.855 67.8467L112.835 67.8426ZM116.339 66.7369L116.241 66.4472C116.76 66.2718 117.274 66.0963 117.784 65.9168L117.886 66.2065L116.339 66.7369ZM49.5335 66.6227C49.0643 66.333 48.6032 66.027 48.1667 65.7128L48.3462 65.4639C48.7787 65.774 49.2316 66.0759 49.6967 66.3615L49.5335 66.6227ZM119.807 65.5129L119.701 65.2232C120.211 65.0355 120.721 64.8438 121.227 64.6479L121.337 64.9335C120.86 65.1335 120.342 65.3252 119.828 65.517L119.807 65.5129ZM46.5796 64.4643C46.1634 64.1053 45.7636 63.7299 45.38 63.3383L45.6004 63.1261C45.9757 63.5055 46.3715 63.8809 46.7795 64.2318L46.5796 64.4643ZM123.259 64.2032L123.141 63.9217C123.651 63.7136 124.153 63.5137 124.65 63.2975L124.769 63.579C124.271 63.7707 123.765 63.9788 123.259 64.1828V64.2032ZM126.645 62.7752L126.523 62.4937L128.016 61.8327L128.139 62.1102C127.649 62.3142 127.151 62.5345 126.645 62.7548V62.7752ZM44.0132 61.8083C43.6666 61.3764 43.3606 60.9134 43.0993 60.4251L43.3686 60.2823C43.6206 60.7543 43.917 61.201 44.254 61.6165L44.0132 61.8083ZM129.995 61.2534L129.869 60.9759C130.362 60.7434 130.856 60.5108 131.342 60.2742L131.472 60.5516C130.987 60.7679 130.497 61.0004 129.995 61.233V61.2534ZM133.308 59.6499L133.169 59.3766L134.626 58.6381L134.765 58.9115L133.308 59.6499ZM42.4057 58.4667C42.337 58.0981 42.3029 57.7238 42.3037 57.3488C42.3037 57.1652 42.3037 56.9857 42.3282 56.8021L42.6301 56.8266C42.6301 57.002 42.6097 57.1734 42.6097 57.3488C42.6102 57.7045 42.6416 58.0594 42.7036 58.4096L42.4057 58.4667ZM136.576 57.9363L136.433 57.6671C136.923 57.4059 137.404 57.1489 137.874 56.8919L138.021 57.1611L136.576 57.9363ZM139.808 56.1738L139.661 55.9086L141.081 55.0926L141.231 55.3578C140.77 55.6393 140.297 55.8963 139.808 56.1819V56.1738ZM43.1116 54.8723L42.826 54.758C43.03 54.2444 43.277 53.749 43.5644 53.277L43.8256 53.4361C43.5424 53.8958 43.2994 54.379 43.0993 54.8804L43.1116 54.8723ZM143.01 54.3378L142.855 54.0726C143.341 53.787 143.81 53.5055 144.255 53.2362L144.414 53.4973L143.01 54.3378ZM146.156 52.4243L145.993 52.1631C146.491 51.8531 146.952 51.5593 147.376 51.29L147.539 51.5471C147.107 51.8163 146.646 52.1183 146.156 52.4324V52.4243ZM44.9965 51.8163L44.764 51.6164C45.1026 51.2084 45.478 50.8004 45.8819 50.3924L46.0981 50.6127C45.6983 51.0207 45.3311 51.4083 44.9965 51.8163ZM149.241 50.4332L149.069 50.1762C149.95 49.5887 150.42 49.2541 150.424 49.2541L150.599 49.503C150.599 49.503 150.126 49.8416 149.241 50.4332ZM47.6036 49.2704L47.4078 49.0338C47.8158 48.6992 48.2483 48.3565 48.7012 48.0219L48.8807 48.2667C48.4319 48.6013 48.0035 48.9359 47.6036 49.2704ZM50.5494 47.108L50.3821 46.851C50.8309 46.5613 51.3001 46.2675 51.7734 45.9819L51.9325 46.2471C51.4592 46.5123 50.9941 46.8183 50.5494 47.108ZM53.7032 45.2394L53.5564 44.9701C54.0296 44.7171 54.5192 44.4642 55.0129 44.2194L55.1476 44.4927C54.658 44.7375 54.1724 44.9905 53.7032 45.2394ZM56.9917 43.6319L56.8693 43.3503C57.3752 43.1259 57.8852 42.9138 58.3789 42.7139L58.4932 42.9995C57.9995 43.1953 57.4936 43.4075 56.9917 43.6319Z" fill="#263238"/>
<path d="M152.883 42.2854L150.509 49.3765L155.768 45.0394L176.107 37.0508L152.883 42.2854Z" fill="url(#paint3_linear_116_2160)"/>
<path opacity="0.1" d="M152.883 42.2854L150.509 49.3765L155.768 45.0394L176.107 37.0508L152.883 42.2854Z" fill="black"/>
<path d="M156.502 46.6598L150.509 49.3771L155.768 45.04L156.502 46.6598Z" fill="#263238"/>
<path d="M155.769 45.0394L176.107 37.0508L159.702 53.9338L155.769 45.0394Z" fill="url(#paint4_linear_116_2160)"/>
<path d="M152.883 42.2856L144.201 37.002L176.107 37.0509L152.883 42.2856Z" fill="url(#paint5_linear_116_2160)"/>
<path d="M144.773 127.517C144.581 127.329 144.365 127.141 144.186 126.958L144.394 126.733C144.594 126.921 144.802 127.109 144.985 127.296L144.773 127.517Z" fill="#263238"/>
<path d="M142.076 159.855V159.549C142.623 159.549 143.169 159.5 143.708 159.447L143.736 159.753C143.198 159.806 142.643 159.839 142.076 159.855ZM140.036 159.818C139.497 159.79 138.946 159.741 138.404 159.675L138.436 159.373C138.983 159.435 139.53 159.484 140.068 159.516L140.036 159.818ZM145.776 159.439L145.711 159.141C146.254 159.027 146.78 158.892 147.282 158.733L147.372 159.027C146.858 159.186 146.319 159.325 145.772 159.439H145.776ZM136.364 159.369C135.842 159.271 135.299 159.157 134.756 159.031L134.826 158.733C135.364 158.859 135.899 158.97 136.421 159.067L136.364 159.369ZM132.769 158.504C132.251 158.349 131.725 158.182 131.203 158.007L131.301 157.717C131.819 157.892 132.341 158.06 132.855 158.211L132.769 158.504ZM149.301 158.28L149.171 158.003C149.66 157.772 150.134 157.512 150.591 157.223L150.754 157.484C150.283 157.777 149.795 158.043 149.293 158.28H149.301ZM129.277 157.305C128.771 157.105 128.257 156.897 127.755 156.677L127.877 156.399C128.375 156.611 128.885 156.807 129.387 157.019L129.277 157.305ZM152.402 156.232L152.194 156.003C152.593 155.643 152.964 155.253 153.304 154.837L153.541 155.028C153.19 155.458 152.806 155.86 152.394 156.232H152.402ZM125.882 155.824C125.395 155.593 124.906 155.348 124.413 155.089L124.552 154.82C125.046 155.073 125.531 155.314 126.017 155.546L125.882 155.824ZM122.618 154.118C122.137 153.849 121.668 153.572 121.203 153.302L121.358 153.041C121.823 153.319 122.292 153.592 122.769 153.857L122.618 154.118ZM154.695 153.302L154.426 153.156C154.682 152.682 154.901 152.19 155.083 151.683L155.368 151.789C155.179 152.311 154.95 152.819 154.683 153.307L154.695 153.302ZM119.46 152.209C118.999 151.911 118.546 151.605 118.098 151.299L118.273 151.046C118.718 151.352 119.171 151.654 119.628 151.952L119.46 152.209ZM116.429 150.112C115.988 149.785 115.552 149.455 115.123 149.12L115.311 148.88C115.739 149.214 116.172 149.541 116.613 149.863L116.429 150.112ZM155.891 149.785L155.593 149.732C155.68 149.2 155.736 148.664 155.76 148.125H156.066C156.04 148.683 155.977 149.239 155.878 149.79L155.891 149.785ZM113.516 147.847C113.108 147.497 112.675 147.146 112.263 146.791L112.459 146.558C112.867 146.913 113.275 147.264 113.712 147.611L113.516 147.847ZM155.703 146.109C155.65 145.583 155.572 145.04 155.466 144.502L155.768 144.445C155.874 144.996 155.956 145.542 156.005 146.077L155.703 146.109ZM110.725 145.436C110.317 145.069 109.909 144.702 109.501 144.331L109.713 144.106C110.11 144.479 110.51 144.846 110.913 145.208L110.725 145.436ZM108.036 142.923C107.628 142.543 107.257 142.16 106.869 141.776L107.086 141.556C107.473 141.944 107.861 142.323 108.253 142.703L108.036 142.923ZM154.956 142.535C154.805 142.033 154.626 141.515 154.426 140.997L154.712 140.887C154.916 141.413 155.095 141.936 155.25 142.446L154.956 142.535ZM105.409 140.324C105.025 139.936 104.646 139.545 104.266 139.153L104.483 138.941L105.625 140.108L105.409 140.324ZM153.622 139.129C153.394 138.651 153.141 138.162 152.876 137.684L153.141 137.537C153.41 138.019 153.663 138.512 153.9 138.998L153.622 139.129ZM102.851 137.676L101.721 136.489L101.945 136.281L103.075 137.464L102.851 137.676ZM151.835 135.934C151.55 135.485 151.244 135.032 150.925 134.579L151.178 134.404C151.497 134.857 151.803 135.318 152.092 135.771L151.835 135.934ZM100.313 135.008L99.1828 133.825L99.4072 133.612L100.533 134.796L100.313 135.008ZM149.714 132.943C149.387 132.535 149.04 132.099 148.685 131.674L148.918 131.479C149.277 131.887 149.628 132.335 149.954 132.756L149.714 132.943ZM97.7711 132.348C97.3917 131.94 97.0163 131.564 96.6328 131.173L96.8531 130.956L97.9914 132.135L97.7711 132.348ZM147.339 130.153C146.98 129.745 146.609 129.361 146.221 128.965L146.441 128.749C146.829 129.157 147.204 129.565 147.567 129.944L147.339 130.153ZM95.2007 129.724L94.0461 128.565L94.2623 128.349L95.421 129.508L95.2007 129.724ZM92.5895 127.133L91.4104 126.003L91.6185 125.779L92.8017 126.913L92.5895 127.133ZM89.9171 124.608C89.5091 124.241 89.1011 123.873 88.6931 123.506L88.8971 123.278C89.3051 123.645 89.7131 124.016 90.1211 124.383L89.9171 124.608ZM87.1794 122.16C86.7714 121.805 86.3634 121.45 85.9554 121.099L86.1513 120.862C86.5592 121.217 86.9877 121.576 87.3957 121.931L87.1794 122.16ZM84.3683 119.793C83.9603 119.451 83.5237 119.112 83.0913 118.769L83.283 118.529C83.7155 118.871 84.1398 119.214 84.5601 119.557L84.3683 119.793ZM81.4797 117.505C81.0717 117.174 80.6147 116.848 80.17 116.521L80.3536 116.276C80.7983 116.603 81.2349 116.929 81.6633 117.26L81.4797 117.505ZM78.5176 115.326L77.1753 114.391L77.3507 114.139C77.8036 114.453 78.2524 114.763 78.693 115.077L78.5176 115.326ZM75.4821 113.253C75.0292 112.955 74.5722 112.657 74.1112 112.364L74.2744 112.107C74.7395 112.4 75.1965 112.698 75.6493 112.996L75.4821 113.253ZM72.3772 111.283C71.9161 111.001 71.451 110.719 70.9777 110.438L71.1328 110.177C71.6101 110.458 72.0753 110.74 72.5363 111.021L72.3772 111.283ZM69.2111 109.414C68.7419 109.145 68.2686 108.879 67.7872 108.598L67.9341 108.329C68.4155 108.598 68.8929 108.863 69.3621 109.145L69.2111 109.414ZM65.9879 107.643C65.5105 107.39 65.0291 107.141 64.5395 106.888L64.6782 106.619C65.1678 106.868 65.6533 107.121 66.1307 107.374L65.9879 107.643ZM62.7239 105.974C62.2425 105.734 61.7488 105.497 61.2551 105.26L61.3857 104.983C61.8834 105.22 62.373 105.46 62.8585 105.697L62.7239 105.974ZM59.4028 104.395L57.9136 103.722L58.036 103.445C58.5419 103.665 59.0397 103.89 59.5293 104.118L59.4028 104.395ZM56.0409 102.906C55.5431 102.694 55.0413 102.498 54.5312 102.274L54.6496 101.988L56.1592 102.625L56.0409 102.906Z" fill="#263238"/>
<path d="M52.5284 101.466L51.7695 101.165L51.8797 100.879L52.6427 101.181L52.5284 101.466Z" fill="#263238"/>
<path d="M53.4991 96.3536L56.1919 103.759L50.5329 99.3361L28.8926 91.4902L53.4991 96.3536Z" fill="url(#paint6_linear_116_2160)"/>
<path opacity="0.1" d="M53.4991 96.3536L56.1919 103.759L50.5329 99.3361L28.8926 91.4902L53.4991 96.3536Z" fill="black"/>
<path d="M49.8066 101.062L56.1918 103.759L50.5329 99.3359L49.8066 101.062Z" fill="#263238"/>
<path d="M50.5329 99.3361L28.8926 91.4902L46.6406 108.81L50.5329 99.3361Z" fill="url(#paint7_linear_116_2160)"/>
<path d="M53.4991 96.3537L62.4914 90.5479L28.8926 91.4903L53.4991 96.3537Z" fill="url(#paint8_linear_116_2160)"/>
<path d="M146.007 48.7569C147.812 40.9871 142.977 33.225 135.207 31.4198C127.438 29.6146 119.675 34.4498 117.87 42.2196C116.065 49.9894 120.9 57.7515 128.67 59.5567C136.44 61.362 144.202 56.5267 146.007 48.7569Z" fill="#B298FF"/>
<path d="M141.795 39.2373H122.08V51.7425H141.795V39.2373Z" fill="white"/>
<path d="M141.795 39.2373C140.999 40.0003 140.188 40.7306 139.384 41.4813C138.58 42.232 137.752 42.946 136.936 43.6723C136.12 44.3985 135.234 45.1778 134.382 45.9244L134.304 45.9979L132.032 47.9685L131.921 48.0583L131.811 47.9685L129.543 45.9938L129.461 45.9244C128.604 45.1764 127.752 44.4243 126.903 43.6682C126.087 42.946 125.271 42.2116 124.455 41.4813C123.639 40.751 122.843 40.0003 122.048 39.2373C122.892 39.8901 123.725 40.5755 124.565 41.2447C125.406 41.9138 126.234 42.6074 127.062 43.2847C127.984 44.0517 128.908 44.8283 129.832 45.6143L131.901 47.3728C132.591 46.7853 133.28 46.1937 133.97 45.6143C134.892 44.831 135.815 44.0544 136.74 43.2847C137.556 42.5965 138.388 41.9165 139.237 41.2447C140.118 40.5755 140.95 39.8901 141.795 39.2373Z" fill="#DBDBDB"/>
<path d="M129.894 45.916H129.869L129.559 46.1771C129.065 46.5851 128.559 46.9931 128.041 47.4011C127.413 47.8785 126.772 48.3395 126.128 48.7924C125.483 49.2453 124.826 49.6859 124.161 50.1103C123.496 50.5346 122.823 50.9548 122.121 51.3343C122.721 50.8079 123.345 50.3224 123.969 49.8451C124.594 49.3677 125.242 48.9067 125.887 48.4497C126.532 47.9927 127.188 47.5562 127.854 47.1278C128.384 46.7891 128.922 46.4546 129.486 46.1404L129.873 45.9242L129.894 45.916Z" fill="#DBDBDB"/>
<path d="M141.746 51.3422C141.052 50.9587 140.375 50.5262 139.706 50.1182C139.037 49.7102 138.388 49.2492 137.735 48.8004C137.083 48.3516 136.45 47.8865 135.822 47.4091C135.308 47.0011 134.802 46.6217 134.312 46.1851L133.998 45.9199H133.974H134.002L134.39 46.1402C134.941 46.4544 135.475 46.789 136.022 47.1276C136.687 47.5356 137.336 48.0007 137.984 48.4495C138.633 48.8983 139.274 49.3634 139.902 49.8449C140.53 50.3263 141.15 50.8159 141.746 51.3422Z" fill="#DBDBDB"/>
<path d="M141.157 42.0333C142.698 41.1933 143.267 39.2628 142.427 37.7215C141.587 36.1802 139.656 35.6117 138.115 36.4517C136.574 37.2917 136.005 39.2221 136.845 40.7634C137.685 42.3047 139.616 42.8733 141.157 42.0333Z" fill="url(#paint9_linear_116_2160)"/>
<path d="M138.909 39.29C138.909 39.9247 138.562 40.2555 138.054 40.2555C137.9 40.2618 137.747 40.2275 137.61 40.156L137.688 40C137.798 40.0644 137.924 40.0953 138.051 40.0888C138.455 40.0888 138.713 39.8198 138.713 39.3222C138.713 39.2792 138.713 39.2254 138.713 39.169C138.66 39.2724 138.577 39.358 138.476 39.4149C138.375 39.4718 138.259 39.4976 138.143 39.489C138.064 39.4981 137.984 39.4904 137.908 39.4664C137.832 39.4425 137.762 39.4029 137.702 39.3501C137.642 39.2974 137.595 39.2327 137.562 39.1602C137.529 39.0878 137.511 39.0092 137.511 38.9296C137.512 38.8488 137.53 38.769 137.563 38.6954C137.597 38.6218 137.645 38.5559 137.705 38.5019C137.765 38.4478 137.836 38.4068 137.912 38.3814C137.989 38.3559 138.07 38.3466 138.151 38.354C138.64 38.3567 138.909 38.701 138.909 39.29ZM138.64 38.9188C138.64 38.7117 138.471 38.5181 138.148 38.5181C138.091 38.5113 138.033 38.5167 137.977 38.5339C137.922 38.5512 137.871 38.58 137.828 38.6184C137.785 38.6568 137.75 38.7039 137.727 38.7566C137.703 38.8093 137.691 38.8664 137.691 38.9242C137.691 39.169 137.871 39.3276 138.162 39.3276C138.22 39.3343 138.28 39.329 138.336 39.3119C138.392 39.2948 138.445 39.2664 138.49 39.2284C138.535 39.1904 138.572 39.1435 138.598 39.0908C138.624 39.038 138.64 38.9804 138.643 38.9215L138.64 38.9188Z" fill="white"/>
<path d="M140.536 39.2902C140.536 39.925 140.189 40.2558 139.681 40.2558C139.527 40.2621 139.374 40.2278 139.237 40.1563L139.315 40.0003C139.425 40.065 139.551 40.0959 139.678 40.089C140.082 40.089 140.34 39.8201 140.34 39.3225C140.34 39.2795 140.34 39.2257 140.34 39.1692C140.287 39.2725 140.204 39.3578 140.103 39.4147C140.001 39.4716 139.886 39.4975 139.77 39.4893C139.691 39.4983 139.611 39.4906 139.535 39.4667C139.459 39.4428 139.389 39.4032 139.329 39.3504C139.269 39.2976 139.222 39.2329 139.189 39.1605C139.156 39.088 139.138 39.0095 139.138 38.9299C139.138 38.8489 139.156 38.769 139.189 38.6952C139.223 38.6214 139.271 38.5553 139.331 38.5012C139.391 38.4471 139.462 38.4061 139.539 38.3808C139.616 38.3555 139.697 38.3465 139.778 38.3543C140.265 38.357 140.536 38.7012 140.536 39.2902ZM140.267 38.9191C140.267 38.712 140.098 38.5184 139.775 38.5184C139.718 38.5115 139.66 38.5169 139.604 38.5342C139.549 38.5515 139.498 38.5803 139.455 38.6186C139.412 38.657 139.377 38.7041 139.354 38.7568C139.33 38.8096 139.318 38.8667 139.318 38.9245C139.318 39.1692 139.498 39.3279 139.789 39.3279C139.847 39.3346 139.906 39.3292 139.963 39.3122C140.019 39.2951 140.072 39.2667 140.117 39.2287C140.162 39.1906 140.199 39.1438 140.225 39.091C140.251 39.0383 140.267 38.9807 140.27 38.9218L140.267 38.9191Z" fill="white"/>
<path d="M142.045 39.3894H141.547V39.8735H141.378V39.3894H140.883V39.2307H141.378V38.752H141.547V39.2414H142.045V39.3894Z" fill="white"/>
<defs>
<linearGradient id="paint0_linear_116_2160" x1="102.413" y1="26.7158" x2="102.413" y2="45.9979" gradientUnits="userSpaceOnUse">
<stop stop-color="#9B58EA"/>
<stop offset="1" stop-color="#6E60EB"/>
</linearGradient>
<linearGradient id="paint1_linear_116_2160" x1="102.415" y1="63.6162" x2="102.415" y2="123.086" gradientUnits="userSpaceOnUse">
<stop stop-color="#9B58EA"/>
<stop offset="1" stop-color="#6E60EB"/>
</linearGradient>
<linearGradient id="paint2_linear_116_2160" x1="102.415" y1="90.6699" x2="102.415" y2="123.086" gradientUnits="userSpaceOnUse">
<stop stop-color="#9B58EA"/>
<stop offset="1" stop-color="#6E60EB"/>
</linearGradient>
<linearGradient id="paint3_linear_116_2160" x1="163.308" y1="37.0508" x2="163.308" y2="49.3765" gradientUnits="userSpaceOnUse">
<stop stop-color="#9B58EA"/>
<stop offset="1" stop-color="#6E60EB"/>
</linearGradient>
<linearGradient id="paint4_linear_116_2160" x1="165.938" y1="37.0508" x2="165.938" y2="53.9338" gradientUnits="userSpaceOnUse">
<stop stop-color="#9B58EA"/>
<stop offset="1" stop-color="#6E60EB"/>
</linearGradient>
<linearGradient id="paint5_linear_116_2160" x1="160.154" y1="37.002" x2="160.154" y2="42.2856" gradientUnits="userSpaceOnUse">
<stop stop-color="#9B58EA"/>
<stop offset="1" stop-color="#6E60EB"/>
</linearGradient>
<linearGradient id="paint6_linear_116_2160" x1="42.5422" y1="91.4902" x2="42.5422" y2="103.759" gradientUnits="userSpaceOnUse">
<stop stop-color="#9B58EA"/>
<stop offset="1" stop-color="#6E60EB"/>
</linearGradient>
<linearGradient id="paint7_linear_116_2160" x1="39.7127" y1="91.4902" x2="39.7127" y2="108.81" gradientUnits="userSpaceOnUse">
<stop stop-color="#9B58EA"/>
<stop offset="1" stop-color="#6E60EB"/>
</linearGradient>
<linearGradient id="paint8_linear_116_2160" x1="45.692" y1="90.5479" x2="45.692" y2="96.3537" gradientUnits="userSpaceOnUse">
<stop stop-color="#9B58EA"/>
<stop offset="1" stop-color="#6E60EB"/>
</linearGradient>
<linearGradient id="paint9_linear_116_2160" x1="138.115" y1="36.4517" x2="141.157" y2="42.0333" gradientUnits="userSpaceOnUse">
<stop stop-color="#9B58EA"/>
<stop offset="1" stop-color="#6E60EB"/>
</linearGradient>
</defs>
</svg>
