<svg width="136" height="68" viewBox="0 0 136 68" fill="none" xmlns="http://www.w3.org/2000/svg">
<path d="M0.886123 67.9977C-0.14357 44.4414 20.9927 39.8631 33.5697 43.8968C32.8344 40.429 33.0705 36.8244 34.2516 33.483C35.4327 30.1416 37.5127 27.1941 40.2609 24.9674C43.0091 22.7408 46.3179 21.3221 49.8203 20.8687C53.3228 20.4153 56.8818 20.945 60.1027 22.3989C56.0942 16.5283 57.9421 7.6855 63.5595 3.33793C69.1768 -1.00965 77.5799 -0.834278 83.4822 3.12561C89.3846 7.08551 92.6759 14.2853 92.7586 21.4021C93.9906 15.7714 101.033 12.7623 106.448 14.8115C111.863 16.8606 115.108 22.7128 115.375 28.4726C115.642 34.2325 113.352 39.8446 110.3 44.7276C118.142 40.6938 128.862 43.8045 133.33 51.4566C135.748 55.5919 135.886 61.841 131.813 64.3793C129.91 65.5424 127.566 65.6254 125.378 65.6624L0.886123 67.9977Z" fill="white"/>
</svg>
