<svg width="90" height="46" viewBox="0 0 90 46" fill="none" xmlns="http://www.w3.org/2000/svg">
<path d="M0.217066 45.2007C-0.469833 29.5268 13.63 26.4804 22.02 29.1644C21.5295 26.857 21.687 24.4585 22.4749 22.2352C23.2628 20.0119 24.6504 18.0507 26.4836 16.5691C28.3169 15.0875 30.5242 14.1435 32.8607 13.8419C35.1971 13.5402 37.5713 13.8926 39.7199 14.8601C37.0459 10.9539 38.2786 5.07001 42.0259 2.1772C45.7732 -0.715599 51.3788 -0.59891 55.3162 2.03594C59.2536 4.67078 61.4492 9.46142 61.5044 14.1968C62.3262 10.4503 67.0241 8.44801 70.6365 9.8115C74.2489 11.175 76.4138 15.0689 76.5917 18.9014C76.7695 22.7339 75.2424 26.4681 73.2062 29.7172C78.4377 27.0332 85.5888 29.103 88.5695 34.1946C90.1825 36.9461 90.2745 41.1041 87.5575 42.7931C86.288 43.567 84.7241 43.6223 83.2644 43.6468L0.217066 45.2007Z" fill="white"/>
</svg>
