<svg width="38" height="19" viewBox="0 0 38 19" fill="none" xmlns="http://www.w3.org/2000/svg">
<path d="M0.358534 18.888C0.0726576 12.3326 5.89513 11.059 9.35822 12.1822C9.15556 11.217 9.22052 10.2137 9.5459 9.2837C9.87128 8.3537 10.4443 7.53332 11.2015 6.91361C11.9587 6.2939 12.8703 5.8991 13.8352 5.77302C14.8002 5.64694 15.7807 5.79451 16.668 6.19936C15.5643 4.56235 16.0709 2.10317 17.6197 0.895596C19.1685 -0.311975 21.4808 -0.264265 23.1056 0.833194C23.9022 1.41143 24.5501 2.17541 24.9948 3.06075C25.4394 3.94609 25.6677 4.92686 25.6604 5.92041C26.0006 4.35314 27.9511 3.51628 29.4311 4.0852C30.9112 4.65412 31.8158 6.28745 31.8882 7.88776C31.9606 9.48807 31.3309 11.0517 30.4914 12.4097C31.592 11.8838 32.8441 11.7837 34.0123 12.1285C35.1805 12.4732 36.1843 13.2389 36.835 14.2817C37.5008 15.4342 37.537 17.1703 36.4152 17.8713C35.864 18.1507 35.2498 18.2773 34.6348 18.2384L0.358534 18.888Z" fill="white"/>
</svg>
