<svg width="56" height="29" viewBox="0 0 56 29" fill="none" xmlns="http://www.w3.org/2000/svg">
<path d="M0.28055 28.5895C-0.146872 19.0014 8.55846 17.1386 13.7362 18.7813C13.4332 17.3696 13.5303 15.9022 14.0168 14.5419C14.5033 13.1817 15.3601 11.9818 16.4921 11.0754C17.6242 10.169 18.9872 9.59154 20.4299 9.40713C21.8726 9.22273 23.3387 9.43857 24.6652 10.0307C23.0151 7.63638 23.7725 4.03952 26.0882 2.2733C28.4038 0.507077 31.8611 0.576859 34.2903 2.18203C35.4814 3.02777 36.4501 4.14519 37.1148 5.44011C37.7796 6.73503 38.1209 8.16952 38.1101 9.62272C38.6187 7.33039 41.5349 6.10638 43.7477 6.93849C45.9606 7.7706 47.3132 10.1596 47.4214 12.5002C47.5296 14.8409 46.5882 17.1278 45.333 19.1141C46.9785 18.3448 48.8506 18.1985 50.5972 18.7027C52.3438 19.2069 53.8446 20.3269 54.8174 21.8521C55.8129 23.5378 55.867 26.077 54.1898 27.1024C53.3657 27.511 52.4474 27.6962 51.5279 27.6393L0.28055 28.5895Z" fill="white"/>
</svg>
