<svg width="57" height="29" viewBox="0 0 57 29" fill="none" xmlns="http://www.w3.org/2000/svg">
<path d="M0.948519 28.1742C0.521097 18.5861 9.22643 16.7233 14.4042 18.366C14.1012 16.9543 14.1983 15.4869 14.6848 14.1267C15.1713 12.7664 16.0281 11.5665 17.1601 10.6601C18.2922 9.7537 19.6552 9.17625 21.0979 8.99185C22.5406 8.80744 24.0066 9.02328 25.3332 9.61543C23.683 7.22109 24.4405 3.62424 26.7561 1.85802C29.0718 0.0917933 32.529 0.161576 34.9583 1.76674C36.1493 2.61249 37.118 3.72991 37.7828 5.02483C38.4475 6.31975 38.7889 7.75424 38.7781 9.20743C39.2866 6.9151 42.2028 5.6911 44.4157 6.52321C46.6286 7.35532 47.9812 9.74427 48.0894 12.0849C48.1976 14.4256 47.2562 16.7125 46.001 18.6989C47.6465 17.9296 49.5186 17.7833 51.2652 18.2875C53.0118 18.7917 54.5126 19.9116 55.4854 21.4368C56.4809 23.1225 56.535 25.6618 54.8578 26.6871C54.0337 27.0957 53.1153 27.2809 52.1959 27.224L0.948519 28.1742Z" fill="white"/>
</svg>
