<svg width="61" height="32" viewBox="0 0 61 32" fill="none" xmlns="http://www.w3.org/2000/svg">
<path d="M0.302591 31.2498C-0.161164 20.7042 9.28419 18.6553 14.9021 20.4621C14.5733 18.9095 14.6787 17.2955 15.2065 15.7994C15.7344 14.3033 16.664 12.9836 17.8923 11.9866C19.1206 10.9897 20.5994 10.3546 22.1648 10.1518C23.7302 9.94895 25.3208 10.1864 26.7602 10.8376C24.9697 8.20418 25.7915 4.2481 28.304 2.30549C30.8165 0.362873 34.5677 0.439625 37.2035 2.2051C38.4957 3.13531 39.5468 4.36433 40.268 5.78857C40.9893 7.21281 41.3597 8.79056 41.3479 10.3889C41.8997 7.86763 45.0638 6.52138 47.4648 7.43659C49.8657 8.3518 51.3333 10.9793 51.4507 13.5538C51.5681 16.1282 50.5467 18.6435 49.1848 20.8282C50.9702 19.9821 53.0014 19.8212 54.8965 20.3757C56.7916 20.9303 58.42 22.1621 59.4755 23.8396C60.5556 25.6936 60.6143 28.4865 58.7945 29.6143C57.9003 30.0637 56.904 30.2674 55.9063 30.2047L0.302591 31.2498Z" fill="white"/>
</svg>
