<svg width="89" height="44" viewBox="0 0 89 44" fill="none" xmlns="http://www.w3.org/2000/svg">
<path d="M0.333077 43.5461C-0.341218 28.4421 13.4999 25.5065 21.7359 28.0929C21.2545 25.8694 21.409 23.5581 22.1825 21.4157C22.9559 19.2732 24.3181 17.3833 26.1177 15.9556C27.9173 14.5279 30.0841 13.6183 32.3777 13.3275C34.6713 13.0368 37.0019 13.3765 39.1111 14.3087C36.4862 10.5446 37.6963 4.87466 41.3748 2.08705C45.0533 -0.700559 50.556 -0.588114 54.4212 1.95092C58.2864 4.48995 60.4417 9.10639 60.4959 13.6695C61.3026 10.0593 65.9143 8.12983 69.4604 9.44373C73.0065 10.7576 75.1317 14.51 75.3063 18.2031C75.4809 21.8962 73.9818 25.4947 71.983 28.6256C77.1185 26.0392 84.1384 28.0337 87.0643 32.9402C88.6477 35.5916 88.738 39.5985 86.0709 41.226C84.8247 41.9718 83.2895 42.025 81.8566 42.0487L0.333077 43.5461Z" fill="white"/>
</svg>
