<svg width="69" height="91" viewBox="0 0 69 91" fill="none" xmlns="http://www.w3.org/2000/svg">
<path d="M66.8826 32.8684C66.0355 31.3938 64.8074 30.1742 63.327 29.3373L14.9657 1.53989C10.7259 -0.903831 0.694336 2.40741 0.694336 9.21319V53.078C0.694394 54.7452 1.13521 56.3828 1.97206 57.8248C2.80891 59.2667 4.01208 60.4618 5.45963 61.289L42.7997 82.6227L36.3483 78.9571L39.4396 87.7423C39.4866 87.8679 39.5799 87.9707 39.7003 88.0298C39.8207 88.0889 39.9591 88.0997 40.0872 88.06C40.637 87.7789 43.0685 86.4715 44.4492 85.6162H44.547C44.547 85.6162 44.6447 85.6162 44.6692 85.5063L45.4267 84.2844L53.8453 89.0863C55.2398 89.9574 56.8398 90.4442 58.4831 90.4974C60.1265 90.5506 61.7546 90.1682 63.2025 89.3891C64.6503 88.6099 65.8663 87.4618 66.7272 86.061C67.5882 84.6602 68.0633 83.0567 68.1045 81.413V37.4993C68.1029 35.8762 67.682 34.281 66.8826 32.8684Z" fill="#818CE8"/>
<path opacity="0.2" d="M44.6701 85.3597C44.6701 85.3597 44.5968 85.433 44.5479 85.4696H44.4502C43.0695 86.386 40.638 87.6934 40.0881 87.9134C40.2147 87.8826 40.3242 87.8037 40.3936 87.6934L43.3871 82.806L42.8007 82.4639L45.4277 83.9668L44.6701 85.3597Z" fill="white"/>
<path opacity="0.4" d="M57.4865 38.2079C56.8813 36.9832 56.0185 35.9037 54.9573 35.0433C54.592 34.7577 54.2083 34.4965 53.8087 34.2613L5.41076 6.48839C4.93284 6.21103 4.3902 6.06469 3.83764 6.06415C3.28507 6.0636 2.74216 6.20887 2.2637 6.48529C1.78524 6.7617 1.38819 7.15947 1.11265 7.63843C0.837104 8.1174 0.692797 8.66058 0.694348 9.21315C0.694348 2.40737 10.7259 -0.891653 14.9657 1.53985L63.327 29.3372C64.7987 30.1894 66.0142 31.4217 66.846 32.9051L57.4865 38.2079Z" fill="white"/>
<path opacity="0.2" d="M58.5494 86.2034V42.4485C58.5497 42.0726 58.5252 41.6971 58.4761 41.3244C58.3214 40.2381 57.9869 39.1851 57.4864 38.2087L66.8825 32.8691C67.6819 34.2817 68.1028 35.8769 68.1044 37.5V81.2549C68.0632 82.8985 67.588 84.5021 66.7271 85.9028C65.8662 87.3036 64.6502 88.4518 63.2023 89.2309C61.7545 90.01 60.1263 90.3924 58.483 90.3393C56.8397 90.2861 55.2397 89.7993 53.8452 88.9282C54.3228 89.2025 54.8642 89.3464 55.4149 89.3454C55.9657 89.3444 56.5065 89.1985 56.9831 88.9225C57.4597 88.6464 57.8553 88.2499 58.1302 87.7726C58.4052 87.2954 58.5497 86.7542 58.5494 86.2034Z" fill="white"/>
<path d="M21.1352 30.6444C19.2046 29.5325 17.2741 29.2637 15.8078 30.1068C12.8387 31.7807 12.8265 37.2669 15.8078 42.3254L17.5185 45.3067L28.1365 63.6347L38.84 57.5254L40.5628 56.5234C43.5197 54.8495 43.5319 49.3755 40.5628 44.3048C39.2817 42.0429 37.4437 40.1459 35.2233 38.7942C33.2927 37.6823 31.3622 37.4135 29.896 38.2444L28.1609 39.2219L26.4503 36.2527C25.1815 33.9638 23.3528 32.0341 21.1352 30.6444Z" fill="white"/>
</svg>
