<svg width="92" height="38" viewBox="0 0 92 38" fill="none" xmlns="http://www.w3.org/2000/svg">
<path d="M91.7141 37.9486L62.5258 19.2568L49.6716 23.3825L91.7141 37.9486Z" fill="#A158EA"/>
<path d="M91.714 37.9503L66.4829 16.9104L72.0961 10.4365L91.714 37.9503Z" fill="#A158EA"/>
<path d="M66.4829 16.9087V21.7921L91.714 37.9487L66.4829 16.9087Z" fill="#A158EA"/>
<path opacity="0.3" d="M66.4829 16.9087V21.7921L91.714 37.9487L66.4829 16.9087Z" fill="#353535"/>
<path d="M61.3193 15.4974C61.1168 15.4974 60.9199 15.4318 60.7579 15.3103C60.3931 15.0297 60.0189 14.7584 59.6447 14.4871C59.5442 14.4155 59.4589 14.3247 59.3937 14.22C59.3284 14.1153 59.2846 13.9987 59.2646 13.877C59.2446 13.7552 59.2489 13.6307 59.2772 13.5107C59.3055 13.3906 59.3572 13.2773 59.4295 13.1773C59.5018 13.0776 59.5931 12.9931 59.6982 12.9288C59.8032 12.8645 59.9199 12.8215 60.0416 12.8024C60.1633 12.7832 60.2876 12.7883 60.4073 12.8174C60.527 12.8464 60.6398 12.8988 60.7392 12.9715C61.1228 13.2428 61.5064 13.5235 61.8806 13.8135C62.0377 13.9313 62.1537 14.0955 62.2122 14.283C62.2708 14.4704 62.2688 14.6715 62.2068 14.8577C62.1447 15.044 62.0256 15.206 61.8663 15.3208C61.707 15.4357 61.5156 15.4974 61.3193 15.4974Z" fill="#A158EA"/>
<path d="M56.0513 11.8859C55.8761 11.8865 55.7043 11.8379 55.5554 11.7456C54.7259 11.2217 53.884 10.7165 53.0295 10.23C52.8137 10.106 52.6559 9.90126 52.591 9.6609C52.5261 9.42054 52.5593 9.16424 52.6834 8.94838C52.8074 8.73252 53.0122 8.57478 53.2525 8.50987C53.4929 8.44495 53.7492 8.47817 53.965 8.60223C54.8444 9.10742 55.7051 9.62196 56.5565 10.1552C56.7296 10.2625 56.863 10.4234 56.9364 10.6134C57.0098 10.8034 57.0191 11.0122 56.963 11.2081C56.9069 11.4039 56.7884 11.576 56.6256 11.6984C56.4627 11.8207 56.2643 11.8866 56.0606 11.8859H56.0513ZM49.1003 8.05028C48.9607 8.05147 48.8228 8.01939 48.6981 7.95672C47.8187 7.53573 46.9112 7.12411 46.0224 6.7499C45.9047 6.70528 45.7972 6.63736 45.7063 6.5502C45.6155 6.46305 45.5431 6.35844 45.4937 6.24266C45.4442 6.12689 45.4186 6.00232 45.4184 5.87641C45.4182 5.75051 45.4435 5.62586 45.4926 5.50994C45.5417 5.39402 45.6138 5.28921 45.7044 5.2018C45.795 5.11438 45.9023 5.04615 46.0199 5.0012C46.1375 4.95625 46.263 4.9355 46.3888 4.94019C46.5146 4.94489 46.6382 4.97493 46.7521 5.02853C47.6877 5.42145 48.6232 5.83308 49.5026 6.27278C49.6928 6.36487 49.8461 6.51862 49.9378 6.70901C50.0294 6.89939 50.0539 7.11519 50.0073 7.32127C49.9607 7.52735 49.8456 7.71157 49.6809 7.84394C49.5163 7.97631 49.3116 8.04904 49.1003 8.05028ZM41.7471 5.06595C41.6456 5.06407 41.5449 5.04833 41.4477 5.01917C40.5122 4.71045 39.5767 4.42043 38.6412 4.15849C38.5132 4.13537 38.3915 4.08585 38.2838 4.01309C38.1761 3.94032 38.0847 3.84591 38.0155 3.73587C37.9463 3.62583 37.9009 3.50258 37.882 3.37398C37.863 3.24537 37.8711 3.11424 37.9057 2.98894C37.9403 2.86364 38.0006 2.74693 38.0828 2.64624C38.165 2.54555 38.2673 2.46309 38.3832 2.40413C38.499 2.34517 38.6259 2.31099 38.7557 2.30379C38.8855 2.29658 39.0153 2.3165 39.137 2.36228C40.0725 2.62423 41.0735 2.9236 42.0278 3.24168C42.1455 3.27978 42.2545 3.34085 42.3484 3.42136C42.4424 3.50188 42.5195 3.60024 42.5751 3.71074C42.6308 3.82125 42.664 3.94169 42.6728 4.06512C42.6817 4.18855 42.6659 4.3125 42.6265 4.42979C42.5659 4.60968 42.452 4.76687 42.2999 4.88049C42.1479 4.99412 41.9648 5.0588 41.7751 5.06595H41.7471ZM7.62847 4.87885C7.43119 4.8787 7.23902 4.81619 7.0794 4.70026C6.91978 4.58432 6.8009 4.42089 6.73974 4.23333C6.66258 3.99884 6.68124 3.74335 6.79164 3.52255C6.90204 3.30175 7.09524 3.13354 7.32912 3.05457C8.26465 2.72713 9.2563 2.43712 10.2199 2.11904C10.3384 2.08639 10.4623 2.07744 10.5843 2.09269C10.7063 2.10794 10.8241 2.14709 10.931 2.20792C11.0379 2.26874 11.1317 2.35003 11.2071 2.44715C11.2826 2.54427 11.3381 2.65531 11.3706 2.77391C11.4032 2.89247 11.4122 3.0163 11.3969 3.13832C11.3817 3.26034 11.3425 3.37815 11.2817 3.48502C11.2209 3.5919 11.1396 3.68574 11.0425 3.76116C10.9454 3.83659 10.8343 3.89213 10.7157 3.92461C9.7802 4.18655 8.84467 4.46721 7.90914 4.77594C7.8315 4.82453 7.74603 4.85935 7.65653 4.87885H7.62847ZM34.0664 3.07328H33.8887C32.9531 2.89553 31.9615 2.73649 31.0073 2.61487C30.8844 2.5989 30.7659 2.55888 30.6585 2.49711C30.5511 2.43534 30.4569 2.35303 30.3814 2.25487C30.3058 2.1567 30.2503 2.04461 30.218 1.92499C30.1858 1.80538 30.1774 1.68058 30.1933 1.55773C30.2093 1.43487 30.2493 1.31637 30.3111 1.20897C30.3729 1.10158 30.4552 1.00741 30.5534 0.931833C30.6515 0.856255 30.7636 0.800751 30.8832 0.768492C31.0028 0.736233 31.1276 0.727846 31.2505 0.743817C32.2421 0.874791 33.2432 1.03383 34.2348 1.22094C34.4829 1.24327 34.712 1.36325 34.8717 1.55449C35.0313 1.74572 35.1085 1.99255 35.0861 2.24066C35.0638 2.48878 34.9438 2.71786 34.7526 2.87751C34.5614 3.03717 34.3145 3.11432 34.0664 3.09199V3.07328ZM15.3559 2.92359C15.2331 2.93404 15.1093 2.92018 14.9918 2.88281C14.8743 2.84544 14.7654 2.7853 14.6711 2.70581C14.5769 2.62633 14.4992 2.52905 14.4425 2.41954C14.3859 2.31004 14.3513 2.19044 14.3409 2.06759C14.3304 1.94473 14.3443 1.82102 14.3817 1.70352C14.419 1.58603 14.4792 1.47704 14.5587 1.38278C14.6381 1.28852 14.7354 1.21085 14.8449 1.15419C14.9544 1.09753 15.074 1.06299 15.1969 1.05254C16.1885 0.884148 17.1989 0.734465 18.1999 0.622202C18.448 0.593668 18.6973 0.66487 18.8929 0.820139C19.0886 0.975408 19.2145 1.20203 19.243 1.45014C19.2716 1.69826 19.2004 1.94754 19.0451 2.14317C18.8898 2.33879 18.6632 2.46472 18.4151 2.49325C17.4795 2.60552 16.4786 2.74584 15.515 2.91424L15.3559 2.92359ZM26.2267 2.18453C25.2912 2.18453 24.2715 2.18453 23.2985 2.18453C23.0504 2.18453 22.8125 2.08596 22.637 1.91052C22.4616 1.73507 22.363 1.49712 22.363 1.249C22.363 1.00089 22.4616 0.76293 22.637 0.587485C22.8125 0.41204 23.0504 0.313477 23.2985 0.313477C24.3182 0.313477 25.3193 0.313477 26.3296 0.313477C26.5778 0.313477 26.8157 0.41204 26.9911 0.587485C27.1666 0.76293 27.2652 1.00089 27.2652 1.249C27.2652 1.49712 27.1666 1.73507 26.9911 1.91052C26.8157 2.08596 26.5778 2.18453 26.3296 2.18453H26.2267Z" fill="#A158EA"/>
<path d="M1.73572 7.2463C1.52443 7.24507 1.31978 7.17234 1.1551 7.03997C0.990411 6.90759 0.875382 6.72337 0.828743 6.51729C0.782103 6.31122 0.806591 6.09542 0.898233 5.90503C0.989875 5.71465 1.14328 5.5609 1.33345 5.4688L2.63381 4.87943C2.74623 4.82967 2.86734 4.80254 2.99023 4.79959C3.11313 4.79664 3.23541 4.81792 3.35008 4.86222C3.46475 4.90653 3.56957 4.97299 3.65856 5.05781C3.74755 5.14262 3.81896 5.24413 3.86871 5.35654C3.91847 5.46895 3.94559 5.59007 3.94854 5.71296C3.95149 5.83586 3.93021 5.95813 3.8859 6.0728C3.8416 6.18747 3.77515 6.2923 3.69033 6.38128C3.60552 6.47027 3.504 6.54168 3.39159 6.59143C2.9706 6.76918 2.54961 6.96564 2.12862 7.1621C2.00529 7.2183 1.87124 7.24703 1.73572 7.2463Z" fill="#A158EA"/>
</svg>
