<svg width="97" height="97" viewBox="0 0 97 97" fill="none" xmlns="http://www.w3.org/2000/svg">
<path d="M0.000144676 64.9787L39.3919 60.4769L50.5177 71.1882L0.000144676 64.9787Z" fill="#A158EA"/>
<path d="M0.000767202 64.9788L36.5058 56.0729L34.0031 46.6002L0.000767202 64.9788Z" fill="#A158EA"/>
<path opacity="0.3" d="M36.5055 56.0735L34.0455 61.0913L0.000423344 64.9794L36.5055 56.0735Z" fill="#DA00FF"/>
<path d="M46.5539 57.72C46.405 57.6458 46.2833 57.5265 46.2062 57.379C46.1292 57.2315 46.1007 57.0635 46.1249 56.8989C46.1491 56.7343 46.2246 56.5815 46.3408 56.4624C46.4569 56.3433 46.6077 56.264 46.7717 56.2357L47.9386 56.043C48.0412 56.0246 48.1463 56.0266 48.2481 56.0488C48.3499 56.071 48.4463 56.1131 48.5318 56.1725C48.6174 56.232 48.6903 56.3078 48.7466 56.3955C48.8029 56.4831 48.8413 56.581 48.8597 56.6836C48.8781 56.7861 48.8762 56.8913 48.8539 56.993C48.8317 57.0948 48.7897 57.1912 48.7302 57.2768C48.6707 57.3623 48.5949 57.4353 48.5073 57.4915C48.4196 57.5478 48.3217 57.5862 48.2191 57.6046L47.0487 57.8044C46.879 57.8309 46.7052 57.8013 46.5539 57.72Z" fill="#E9A4FE"/>
<path d="M51.5946 56.8348C51.4846 56.7808 51.3886 56.702 51.3144 56.6046C51.2401 56.5071 51.1895 56.3937 51.1666 56.2733C51.1276 56.0676 51.1718 55.8549 51.2896 55.6818C51.4074 55.5088 51.5891 55.3896 51.7948 55.3506L54.0999 54.8983C54.2989 54.8703 54.501 54.9192 54.6652 55.035C54.8294 55.1509 54.9431 55.325 54.9834 55.5218C55.0236 55.7187 54.9873 55.9234 54.8818 56.0944C54.7763 56.2654 54.6096 56.3897 54.4156 56.442C53.6437 56.5999 52.8719 56.7577 52.0893 56.9015C51.9216 56.9334 51.748 56.9099 51.5946 56.8348ZM57.7585 55.5404C57.6138 55.468 57.4948 55.3528 57.4177 55.2105C57.3406 55.0682 57.3091 54.9056 57.3275 54.7448C57.3458 54.584 57.4132 54.4327 57.5205 54.3115C57.6277 54.1903 57.7697 54.105 57.927 54.0671L60.2102 53.5162C60.3133 53.4811 60.4227 53.4678 60.5312 53.477C60.6398 53.4862 60.7453 53.5179 60.8411 53.5699C60.9368 53.6219 61.0208 53.6931 61.0876 53.7792C61.1545 53.8652 61.2028 53.9642 61.2295 54.0698C61.2563 54.1754 61.2609 54.2855 61.243 54.3929C61.2251 54.5004 61.1852 54.6031 61.1257 54.6944C61.0662 54.7857 60.9884 54.8637 60.8973 54.9234C60.8062 54.9832 60.7037 55.0235 60.5963 55.0417C59.8318 55.2383 59.0566 55.4208 58.2815 55.6034C58.1051 55.6429 57.9205 55.6207 57.7585 55.5404ZM63.8567 53.9678C63.7127 53.8985 63.5931 53.7871 63.5138 53.6484C63.4344 53.5096 63.399 53.3501 63.4123 53.1908C63.4256 53.0316 63.4869 52.8801 63.5882 52.7564C63.6895 52.6328 63.8259 52.5428 63.9794 52.4983C64.7366 52.2806 65.4868 52.0594 66.2193 51.8383C66.3178 51.8042 66.422 51.7899 66.526 51.7962C66.63 51.8026 66.7317 51.8295 66.8253 51.8754C66.9189 51.9212 67.0024 51.9852 67.0711 52.0635C67.1399 52.1418 67.1924 52.233 67.2257 52.3317C67.2926 52.5292 67.2786 52.7452 67.1868 52.9324C67.0951 53.1196 66.9329 53.2629 66.7358 53.331C65.9787 53.5664 65.225 53.7947 64.4572 54.016C64.2585 54.0799 64.0427 54.0626 63.8567 53.9678ZM69.8497 52.0358C69.6643 51.9463 69.5211 51.7878 69.4509 51.5942C69.384 51.3967 69.398 51.1807 69.4898 50.9935C69.5816 50.8062 69.7437 50.6629 69.9408 50.5949C70.68 50.3243 71.4121 50.0503 72.1088 49.7589C72.2999 49.6982 72.507 49.7125 72.688 49.7989C72.8689 49.8854 73.0102 50.0374 73.0831 50.2242C73.156 50.411 73.1551 50.6186 73.0805 50.8048C73.0059 50.9909 72.8633 51.1417 72.6816 51.2265C71.9496 51.5182 71.2069 51.7958 70.4572 52.0699C70.3587 52.1047 70.2543 52.1196 70.1501 52.1138C70.0458 52.1079 69.9437 52.0814 69.8497 52.0358ZM75.677 49.671C75.5112 49.5902 75.379 49.4538 75.3033 49.2856C75.26 49.1912 75.2357 49.0891 75.2319 48.9853C75.228 48.8815 75.2448 48.7779 75.2811 48.6805C75.3174 48.5832 75.3725 48.4939 75.4434 48.4179C75.5142 48.3419 75.5994 48.2807 75.694 48.2377C76.4081 47.9109 77.1079 47.5771 77.7971 47.2293C77.9827 47.1463 78.1932 47.1382 78.3846 47.2066C78.5761 47.275 78.7338 47.4146 78.8249 47.5964C78.9159 47.7781 78.9333 47.988 78.8735 48.1823C78.8136 48.3766 78.6811 48.5403 78.5035 48.6393C77.8003 48.9978 77.0793 49.3388 76.3513 49.6763C76.2454 49.7253 76.1301 49.7502 76.0135 49.7493C75.897 49.7484 75.782 49.7217 75.677 49.671ZM81.2564 46.7539C81.1293 46.6914 81.0215 46.5958 80.9441 46.4773C80.8667 46.3588 80.8226 46.2216 80.8164 46.0801C80.8103 45.9387 80.8422 45.7982 80.9091 45.6734C80.9759 45.5485 81.075 45.444 81.1961 45.3706C81.8637 44.9771 82.5241 44.5625 83.1704 44.1409C83.2555 44.0705 83.3545 44.0188 83.4609 43.9891C83.5672 43.9594 83.6787 43.9524 83.7879 43.9684C83.8972 43.9845 84.0019 44.0233 84.0952 44.0824C84.1885 44.1414 84.2684 44.2194 84.3297 44.3113C84.391 44.4032 84.4323 44.5069 84.451 44.6157C84.4697 44.7246 84.4654 44.8361 84.4382 44.9432C84.4111 45.0503 84.3618 45.1504 84.2936 45.2373C84.2253 45.3241 84.1396 45.3956 84.0419 45.4472C83.3782 45.8866 82.6932 46.3155 82.0115 46.7198C81.8985 46.7882 81.7702 46.8272 81.6383 46.8331C81.5063 46.8391 81.375 46.8119 81.2564 46.7539ZM86.4495 43.208C86.3458 43.1532 86.254 43.0783 86.1795 42.9877C86.1147 42.9061 86.0667 42.8125 86.0383 42.7122C86.0099 42.612 86.0016 42.5071 86.0139 42.4036C86.0263 42.3001 86.0589 42.2001 86.1101 42.1093C86.1613 42.0186 86.2299 41.9388 86.312 41.8747C86.926 41.3933 87.5222 40.8945 88.0937 40.3923C88.1717 40.3237 88.2625 40.2713 88.3608 40.2378C88.4592 40.2044 88.5631 40.1906 88.6667 40.1974C88.7704 40.2041 88.8717 40.2312 88.9648 40.277C89.058 40.3229 89.1412 40.3867 89.2098 40.4647C89.2783 40.5428 89.3308 40.6335 89.3642 40.7319C89.3976 40.8302 89.4114 40.9341 89.4047 41.0378C89.3979 41.1414 89.3709 41.2427 89.325 41.3359C89.2791 41.429 89.2153 41.5123 89.1373 41.5808C88.5483 42.1008 87.9275 42.6139 87.2854 43.1167C87.1689 43.2091 87.0286 43.2668 86.8807 43.2829C86.7328 43.2991 86.5833 43.2731 86.4495 43.208ZM91.083 38.9569C91.0099 38.9334 90.9407 38.8995 90.8775 38.8561C90.7269 38.7133 90.6386 38.517 90.6317 38.3096C90.6248 38.1022 90.6998 37.9004 90.8406 37.748C91.3656 37.179 91.88 36.5961 92.3625 36.0063C92.4956 35.8443 92.6876 35.7417 92.8963 35.7212C93.105 35.7007 93.3133 35.7639 93.4754 35.897C93.6374 36.0301 93.74 36.2221 93.7605 36.4308C93.781 36.6395 93.7178 36.8478 93.5847 37.0099C93.0742 37.6387 92.5354 38.2536 91.9753 38.8581C91.8542 38.9633 91.704 39.0291 91.5446 39.0467C91.3852 39.0644 91.2241 39.033 91.083 38.9569Z" fill="#A158EA"/>
<path d="M94.9564 33.998L94.8643 33.9528C94.6904 33.8369 94.5696 33.6569 94.5283 33.4521C94.487 33.2473 94.5286 33.0344 94.644 32.8602C94.8533 32.5409 95.0694 32.1897 95.2541 31.8847C95.3631 31.705 95.5391 31.5761 95.7433 31.5261C95.9475 31.4762 96.1631 31.5094 96.3428 31.6185C96.5225 31.7276 96.6514 31.9035 96.7014 32.1077C96.7513 32.3119 96.7181 32.5275 96.609 32.7072C96.3964 33.0513 96.1836 33.3777 95.9604 33.7254C95.8545 33.8848 95.6943 34.0003 95.5097 34.0505C95.325 34.1006 95.1284 34.082 94.9564 33.998Z" fill="#E9A4FE"/>
</svg>
