<svg width="77" height="80" viewBox="0 0 77 80" fill="none" xmlns="http://www.w3.org/2000/svg">
<path d="M52.4575 79.1804L50.6042 58.2571C50.5283 57.4054 50.1602 56.6062 49.5623 55.9948C48.9645 55.3835 48.1737 54.9976 47.3239 54.9027L30.9226 53.0494C30.7375 53.0267 30.5673 52.9367 30.4443 52.7966C30.3212 52.6565 30.254 52.476 30.2554 52.2896C30.2501 52.104 30.3164 51.9235 30.4406 51.7854C30.5649 51.6474 30.7374 51.5625 30.9226 51.5483L47.3239 49.695C48.1737 49.6001 48.9645 49.2142 49.5623 48.6029C50.1602 47.9916 50.5283 47.1923 50.6042 46.3406L52.4575 25.4359C52.4575 25.2343 52.5376 25.0411 52.6801 24.8986C52.8225 24.7561 53.0158 24.676 53.2173 24.676C53.4188 24.676 53.6121 24.7561 53.7546 24.8986C53.8971 25.0411 53.9771 25.2343 53.9771 25.4359L55.8304 46.3406C55.9071 47.1952 56.2778 47.9966 56.8794 48.6083C57.481 49.22 58.2761 49.6041 59.1292 49.695L75.5121 51.5483C75.6972 51.5625 75.8698 51.6474 75.994 51.7854C76.1182 51.9235 76.1845 52.104 76.1792 52.2896C76.1806 52.476 76.1134 52.6565 75.9904 52.7966C75.8673 52.9367 75.6971 53.0267 75.5121 53.0494L59.1292 54.9027C58.2761 54.9936 57.481 55.3777 56.8794 55.9894C56.2778 56.6011 55.9071 57.4026 55.8304 58.2571L53.9771 79.1804C53.9771 79.3819 53.8971 79.5752 53.7546 79.7177C53.6121 79.8602 53.4188 79.9402 53.2173 79.9402C53.0158 79.9402 52.8225 79.8602 52.6801 79.7177C52.5376 79.5752 52.4575 79.3819 52.4575 79.1804ZM58.981 51.3815C57.7832 51.2461 56.6687 50.7023 55.8248 49.8416C54.981 48.9809 54.4594 47.8559 54.3478 46.6557L53.2173 34.0906L52.0868 46.6557C51.9752 47.8559 51.4536 48.9809 50.6098 49.8416C49.766 50.7023 48.6514 51.2461 47.4537 51.3815L37.8723 52.4379L47.4537 53.4942C48.6514 53.6296 49.766 54.1734 50.6098 55.0341C51.4536 55.8948 51.9752 57.0199 52.0868 58.22L53.2173 70.7851L54.3478 58.22C54.4594 57.0199 54.981 55.8948 55.8248 55.0341C56.6687 54.1734 57.7832 53.6296 58.981 53.4942L68.5808 52.4379L58.981 51.3815Z" fill="#BA68C8"/>
<g opacity="0.5">
<path d="M16.0404 37.574L14.7616 23.341C14.7135 22.8178 14.4862 22.3274 14.1182 21.9525C13.7501 21.5777 13.2637 21.3415 12.7416 21.2839L1.62199 20.0422C1.44319 20.014 1.28031 19.9229 1.1627 19.7853C1.04508 19.6477 0.980469 19.4726 0.980469 19.2916C0.980469 19.1106 1.04508 18.9355 1.1627 18.7979C1.28031 18.6603 1.44319 18.5692 1.62199 18.541L12.7416 17.2994C13.2637 17.2418 13.7501 17.0056 14.1182 16.6307C14.4862 16.2559 14.7135 15.7654 14.7616 15.2422L16.0404 1.0092C16.0685 0.830392 16.1596 0.667515 16.2972 0.549902C16.4348 0.43229 16.6099 0.367676 16.7909 0.367676C16.9719 0.367676 17.1471 0.43229 17.2847 0.549902C17.4223 0.667515 17.5133 0.830392 17.5415 1.0092L18.8202 15.2422C18.8724 15.767 19.1035 16.2578 19.4747 16.6324C19.8459 17.0069 20.3346 17.2424 20.8588 17.2994L31.9784 18.541C32.1572 18.5692 32.3201 18.6603 32.4377 18.7979C32.5553 18.9355 32.6199 19.1106 32.6199 19.2916C32.6199 19.4726 32.5553 19.6477 32.4377 19.7853C32.3201 19.9229 32.1572 20.014 31.9784 20.0422L20.8588 21.2839C20.3346 21.3408 19.8459 21.5763 19.4747 21.9509C19.1035 22.3254 18.8724 22.8163 18.8202 23.341L17.5415 37.574C17.5133 37.7528 17.4223 37.9157 17.2847 38.0333C17.1471 38.1509 16.9719 38.2156 16.7909 38.2156C16.6099 38.2156 16.4348 38.1509 16.2972 38.0333C16.1596 37.9157 16.0685 37.7528 16.0404 37.574ZM20.6921 18.8005C19.814 18.7234 18.9922 18.3359 18.374 17.7076C17.7559 17.0792 17.3818 16.2512 17.3191 15.372L16.8002 9.4786L16.2628 15.372C16.2007 16.2483 15.8293 17.074 15.2149 17.702C14.6005 18.3299 13.7831 18.7192 12.9083 18.8005L8.53468 19.2824L12.9083 19.7827C13.7831 19.864 14.6005 20.2533 15.2149 20.8812C15.8293 21.5092 16.2007 22.3349 16.2628 23.2113L16.8002 29.1046L17.3191 23.2113C17.3818 22.3321 17.7559 21.504 18.374 20.8756C18.9922 20.2473 19.814 19.8598 20.6921 19.7827L25.0658 19.2824L20.6921 18.8005Z" fill="#BA68C8"/>
</g>
</svg>
