<svg width="76" height="80" viewBox="0 0 76 80" fill="none" xmlns="http://www.w3.org/2000/svg">
<path d="M51.7158 78.8647L49.8625 57.9414C49.7866 57.0897 49.4185 56.2905 48.8206 55.6792C48.2228 55.0678 47.432 54.682 46.5822 54.587L30.1809 52.7338C29.9958 52.711 29.8256 52.621 29.7026 52.4809C29.5795 52.3408 29.5123 52.1604 29.5137 51.9739C29.5084 51.7883 29.5747 51.6078 29.6989 51.4698C29.8232 51.3317 29.9957 51.2468 30.1809 51.2326L46.5822 49.3794C47.432 49.2844 48.2228 48.8986 48.8206 48.2872C49.4185 47.6759 49.7866 46.8767 49.8625 46.025L51.7158 25.1202C51.7158 24.9187 51.7959 24.7254 51.9384 24.5829C52.0809 24.4404 52.2741 24.3604 52.4756 24.3604C52.6771 24.3604 52.8704 24.4404 53.0129 24.5829C53.1554 24.7254 53.2354 24.9187 53.2354 25.1202L55.0887 46.025C55.1654 46.8795 55.5361 47.6809 56.1377 48.2926C56.7393 48.9043 57.5344 49.2884 58.3875 49.3794L74.7704 51.2326C74.9555 51.2468 75.1281 51.3317 75.2523 51.4698C75.3765 51.6078 75.4428 51.7883 75.4375 51.9739C75.4389 52.1604 75.3717 52.3408 75.2487 52.4809C75.1256 52.621 74.9554 52.711 74.7704 52.7338L58.3875 54.587C57.5344 54.678 56.7393 55.062 56.1377 55.6737C55.5361 56.2854 55.1654 57.0869 55.0887 57.9414L53.2354 78.8647C53.2354 79.0663 53.1554 79.2595 53.0129 79.402C52.8704 79.5445 52.6771 79.6246 52.4756 79.6246C52.2741 79.6246 52.0809 79.5445 51.9384 79.402C51.7959 79.2595 51.7158 79.0663 51.7158 78.8647ZM58.2393 51.0658C57.0415 50.9305 55.927 50.3867 55.0831 49.526C54.2393 48.6653 53.7177 47.5402 53.6061 46.34L52.4756 33.7749L51.3451 46.34C51.2335 47.5402 50.7119 48.6653 49.8681 49.526C49.0243 50.3867 47.9097 50.9305 46.712 51.0658L37.1306 52.1222L46.712 53.1786C47.9097 53.3139 49.0243 53.8577 49.8681 54.7184C50.7119 55.5791 51.2335 56.7042 51.3451 57.9043L52.4756 70.4695L53.6061 57.9043C53.7177 56.7042 54.2393 55.5791 55.0831 54.7184C55.927 53.8577 57.0415 53.3139 58.2393 53.1786L67.8391 52.1222L58.2393 51.0658Z" fill="#BA68C8"/>
<g opacity="0.5">
<path d="M15.2987 37.2601L14.0199 23.027C13.9718 22.5039 13.7445 22.0134 13.3765 21.6386C13.0084 21.2637 12.522 21.0275 11.9999 20.9699L0.880296 19.7282C0.701486 19.7 0.538609 19.6089 0.420996 19.4713C0.303384 19.3337 0.23877 19.1587 0.23877 18.9777C0.23877 18.7966 0.303384 18.6216 0.420996 18.484C0.538609 18.3464 0.701486 18.2553 0.880296 18.2271L11.9999 16.9854C12.522 16.9278 13.0084 16.6916 13.3765 16.3168C13.7445 15.9419 13.9718 15.4514 14.0199 14.9283L15.2987 0.695237C15.3268 0.516428 15.4179 0.35355 15.5555 0.235938C15.6931 0.118325 15.8682 0.0537109 16.0492 0.0537109C16.2302 0.0537109 16.4054 0.118325 16.543 0.235938C16.6806 0.35355 16.7716 0.516428 16.7998 0.695237L18.0785 14.9283C18.1307 15.453 18.3618 15.9438 18.733 16.3184C19.1042 16.6929 19.5929 16.9285 20.1171 16.9854L31.2367 18.2271C31.4155 18.2553 31.5784 18.3464 31.696 18.484C31.8136 18.6216 31.8782 18.7966 31.8782 18.9777C31.8782 19.1587 31.8136 19.3337 31.696 19.4713C31.5784 19.6089 31.4155 19.7 31.2367 19.7282L20.1171 20.9699C19.5929 21.0269 19.1042 21.2624 18.733 21.6369C18.3618 22.0115 18.1307 22.5023 18.0785 23.027L16.7998 37.2601C16.7716 37.4389 16.6806 37.6017 16.543 37.7194C16.4054 37.837 16.2302 37.9016 16.0492 37.9016C15.8682 37.9016 15.6931 37.837 15.5555 37.7194C15.4179 37.6017 15.3268 37.4389 15.2987 37.2601ZM19.9504 18.4865C19.0723 18.4094 18.2505 18.022 17.6323 17.3936C17.0142 16.7653 16.6401 15.9372 16.5774 15.058L16.0585 9.16464L15.5211 15.058C15.459 15.9343 15.0876 16.7601 14.4732 17.388C13.8588 18.016 13.0414 18.4053 12.1666 18.4865L7.79298 18.9684L12.1666 19.4688C13.0414 19.55 13.8588 19.9393 14.4732 20.5673C15.0876 21.1952 15.459 22.021 15.5211 22.8973L16.0585 28.7907L16.5774 22.8973C16.6401 22.0181 17.0142 21.19 17.6323 20.5617C18.2505 19.9333 19.0723 19.5459 19.9504 19.4688L24.3241 18.9684L19.9504 18.4865Z" fill="#BA68C8"/>
</g>
</svg>
