<svg width="154" height="78" viewBox="0 0 154 78" fill="none" xmlns="http://www.w3.org/2000/svg">
<path d="M0.508919 78C-0.666142 51.1568 23.4541 45.9397 37.8066 50.5362C36.9676 46.5845 37.2369 42.4769 38.5848 38.6693C39.9327 34.8617 42.3064 31.5029 45.4425 28.9655C48.5786 26.4282 52.3546 24.8115 56.3515 24.2948C60.3484 23.7782 64.4099 24.3818 68.0855 26.0386C63.5111 19.3489 65.6199 9.27216 72.0303 4.31795C78.4407 -0.636261 88.03 -0.436421 94.7656 4.07601C101.501 8.58845 105.257 16.7929 105.352 24.9027C106.758 18.4864 114.794 15.0573 120.974 17.3924C127.153 19.7275 130.857 26.3963 131.161 32.9598C131.465 39.5233 128.853 45.9186 125.37 51.4829C134.319 46.8863 146.552 50.4311 151.651 59.1509C154.41 63.8632 154.568 70.9842 149.92 73.8768C147.748 75.2021 145.073 75.2968 142.576 75.3388L0.508919 78Z" fill="white"/>
</svg>
