<svg width="68" height="91" viewBox="0 0 68 91" fill="none" xmlns="http://www.w3.org/2000/svg">
<path d="M1.56732 32.981C2.41441 31.5063 3.64251 30.2867 5.12294 29.4498L53.5209 1.68906C57.7608 -0.754661 67.7922 2.55659 67.7922 9.36236V53.2272C67.7922 54.8944 67.3514 56.532 66.5146 57.9739C65.6777 59.4159 64.4745 60.611 63.027 61.4381L25.6502 82.7352L32.1017 79.0696L29.0104 87.8548C28.9633 87.9804 28.8701 88.0833 28.7497 88.1423C28.6293 88.2014 28.4909 88.2122 28.3628 88.1725C27.8129 87.8915 25.3814 86.5841 24.0007 85.7288H23.903C23.903 85.7288 23.8052 85.7288 23.7808 85.6188L23.0232 84.3969L14.6046 89.1988C13.2101 90.0699 11.6101 90.5567 9.9668 90.6099C8.32349 90.6631 6.69534 90.2807 5.2475 89.5016C3.79965 88.7224 2.58362 87.5743 1.72271 86.1735C0.861805 84.7727 0.386652 83.1692 0.345459 81.5256V37.6118C0.347011 35.9887 0.7679 34.3935 1.56732 32.981Z" fill="#E16EF4"/>
<path opacity="0.2" d="M23.7805 85.471C23.7805 85.471 23.8538 85.5443 23.9027 85.581H24.0004C25.3811 86.4974 27.8127 87.8048 28.3625 88.0247C28.236 87.9939 28.1264 87.915 28.057 87.8048L25.0635 82.9173L25.65 82.5752L23.0229 84.0781L23.7805 85.471Z" fill="white"/>
<path opacity="0.4" d="M10.9627 38.319C11.568 37.0943 12.4308 36.0147 13.492 35.1544C13.8572 34.8688 14.2409 34.6076 14.6405 34.3724L63.0385 6.59948C63.5164 6.32212 64.059 6.17578 64.6116 6.17523C65.1642 6.17468 65.7071 6.31995 66.1856 6.59637C66.664 6.87278 67.0611 7.27056 67.3366 7.74952C67.6122 8.22848 67.7564 8.77167 67.7549 9.32423C67.7549 2.51846 57.7234 -0.780569 53.4835 1.65094L5.12223 29.4483C3.6505 30.3005 2.43507 31.5328 1.60327 33.0161L10.9627 38.319Z" fill="white"/>
<path opacity="0.2" d="M9.90043 86.3138V42.5589C9.90014 42.183 9.92462 41.8075 9.97374 41.4348C10.1284 40.3485 10.4629 39.2955 10.9634 38.319L1.56732 32.9795C0.7679 34.3921 0.347011 35.9872 0.345459 37.6104V81.3652C0.386652 83.0089 0.861805 84.6124 1.72271 86.0132C2.58362 87.414 3.79965 88.5621 5.2475 89.3413C6.69534 90.1204 8.32349 90.5028 9.9668 90.4496C11.6101 90.3964 13.2101 89.9096 14.6046 89.0385C14.127 89.3128 13.5856 89.4567 13.0349 89.4557C12.4841 89.4547 11.9433 89.3089 11.4667 89.0328C10.9901 88.7568 10.5945 88.3602 10.3196 87.883C10.0447 87.4057 9.90012 86.8646 9.90043 86.3138Z" fill="white"/>
<path d="M47.3139 30.7565C49.2445 29.6446 51.175 29.3758 52.6413 30.2188C55.6104 31.8928 55.6226 37.3789 52.6413 42.4375L50.9307 45.4188L40.3127 63.7467L29.6091 57.6374L27.8863 56.6355C24.9294 54.9615 24.9172 49.4876 27.8863 44.4169C29.1674 42.1549 31.0054 40.258 33.2259 38.9063C35.1564 37.7944 37.0869 37.5256 38.5532 38.3564L40.2882 39.3339L41.9988 36.3648C43.2676 34.0758 45.0963 32.1462 47.3139 30.7565Z" fill="white"/>
</svg>
