<svg width="350" height="121" viewBox="0 0 350 121" fill="none" xmlns="http://www.w3.org/2000/svg">
<path d="M104.638 20.4534C91.6828 7.59366 70.6783 7.59366 57.7231 20.4534L11.4453 66.3905L31.6853 86.4814C46.4176 101.105 70.3031 101.105 85.0352 86.4814L104.638 67.0229C117.593 54.1632 117.593 33.3133 104.638 20.4534Z" fill="#9559EA"/>
<path d="M96.766 28.9242C88.5565 20.7753 75.2463 20.7753 67.0367 28.9242L28.1914 67.4838L31.2455 70.5156C45.9778 85.1393 69.8634 85.1393 84.5956 70.5156L96.766 58.4347C104.976 50.2856 104.976 37.0733 96.766 28.9242Z" fill="#D2A6FF"/>
<path d="M76.3934 95.9622C91.1255 81.3384 91.1255 57.6285 76.3934 43.0048L33.3332 0.261719L14.1232 20.168C-0.608884 34.7917 -0.934165 57.9865 13.798 72.6103L56.8582 115.353L76.3934 95.9622Z" fill="url(#paint0_linear_1044_981)"/>
<path d="M56.6061 116.167C66.3993 106.958 78.2467 82.4501 47.2907 58.0833C33.8066 47.742 12.4936 22.3697 31.9794 1.69051L33.6758 0C33.0788 0.559708 32.5138 1.12334 31.9794 1.69051L8.75427 24.8352C1.55147 32.006 -7.95628 51.0802 11.6355 70.011L56.6061 116.167Z" fill="url(#paint1_linear_1044_981)"/>
<path d="M130.516 42.3101C130.516 43.6759 130.821 44.8756 131.43 45.9092C132.057 46.9428 132.869 47.7457 133.866 48.3178C134.881 48.8716 135.979 49.1484 137.161 49.1484C138.083 49.1484 138.914 49.0284 139.652 48.7885C140.391 48.5486 141.055 48.2256 141.646 47.8195C142.255 47.395 142.781 46.9243 143.224 46.4076V50.2835C142.412 50.948 141.535 51.4555 140.594 51.8062C139.652 52.1569 138.471 52.3322 137.05 52.3322C135.629 52.3322 134.3 52.0923 133.063 51.6124C131.845 51.1325 130.784 50.4404 129.879 49.536C128.975 48.6316 128.264 47.5703 127.748 46.3522C127.249 45.1156 127 43.7682 127 42.3101C127 40.852 127.249 39.5139 127.748 38.2957C128.264 37.0591 128.975 35.9886 129.879 35.0842C130.784 34.1798 131.845 33.4877 133.063 33.0078C134.3 32.5279 135.629 32.288 137.05 32.288C138.471 32.288 139.652 32.4633 140.594 32.814C141.535 33.1647 142.412 33.6723 143.224 34.3367V38.2127C142.781 37.6959 142.255 37.2345 141.646 36.8284C141.055 36.4039 140.391 36.0717 139.652 35.8317C138.914 35.5918 138.083 35.4718 137.161 35.4718C135.979 35.4718 134.881 35.7579 133.866 36.3301C132.869 36.8838 132.057 37.6774 131.43 38.711C130.821 39.7261 130.516 40.9258 130.516 42.3101ZM149.603 42.3101C149.603 43.639 149.879 44.8295 150.433 45.8815C151.005 46.9151 151.79 47.7272 152.786 48.3178C153.783 48.9085 154.918 49.2038 156.192 49.2038C157.484 49.2038 158.619 48.9085 159.597 48.3178C160.594 47.7272 161.369 46.9151 161.923 45.8815C162.495 44.8295 162.781 43.639 162.781 42.3101C162.781 40.9812 162.504 39.8 161.95 38.7664C161.397 37.7143 160.621 36.893 159.625 36.3024C158.646 35.7118 157.502 35.4164 156.192 35.4164C154.918 35.4164 153.783 35.7118 152.786 36.3024C151.79 36.893 151.005 37.7143 150.433 38.7664C149.879 39.8 149.603 40.9812 149.603 42.3101ZM146.142 42.3101C146.142 40.852 146.391 39.5139 146.889 38.2957C147.388 37.0776 148.089 36.0255 148.993 35.1396C149.916 34.2352 150.987 33.5338 152.205 33.0355C153.442 32.5372 154.771 32.288 156.192 32.288C157.65 32.288 158.988 32.5372 160.206 33.0355C161.424 33.5338 162.486 34.2352 163.39 35.1396C164.313 36.0255 165.023 37.0776 165.522 38.2957C166.02 39.5139 166.269 40.852 166.269 42.3101C166.269 43.7498 166.02 45.0879 165.522 46.3245C165.023 47.5611 164.322 48.6316 163.418 49.536C162.513 50.4404 161.443 51.151 160.206 51.6678C158.988 52.1661 157.65 52.4153 156.192 52.4153C154.752 52.4153 153.414 52.1661 152.177 51.6678C150.941 51.151 149.87 50.4404 148.966 49.536C148.08 48.6316 147.388 47.5611 146.889 46.3245C146.391 45.0879 146.142 43.7498 146.142 42.3101ZM171.8 42.3101C171.8 43.639 172.076 44.8295 172.63 45.8815C173.202 46.9151 173.987 47.7272 174.983 48.3178C175.98 48.9085 177.115 49.2038 178.389 49.2038C179.681 49.2038 180.816 48.9085 181.794 48.3178C182.791 47.7272 183.566 46.9151 184.12 45.8815C184.692 44.8295 184.978 43.639 184.978 42.3101C184.978 40.9812 184.701 39.8 184.147 38.7664C183.594 37.7143 182.818 36.893 181.822 36.3024C180.843 35.7118 179.699 35.4164 178.389 35.4164C177.115 35.4164 175.98 35.7118 174.983 36.3024C173.987 36.893 173.202 37.7143 172.63 38.7664C172.076 39.8 171.8 40.9812 171.8 42.3101ZM168.339 42.3101C168.339 40.852 168.588 39.5139 169.086 38.2957C169.585 37.0776 170.286 36.0255 171.19 35.1396C172.113 34.2352 173.184 33.5338 174.402 33.0355C175.639 32.5372 176.967 32.288 178.389 32.288C179.847 32.288 181.185 32.5372 182.403 33.0355C183.621 33.5338 184.682 34.2352 185.587 35.1396C186.51 36.0255 187.22 37.0776 187.719 38.2957C188.217 39.5139 188.466 40.852 188.466 42.3101C188.466 43.7498 188.217 45.0879 187.719 46.3245C187.22 47.5611 186.519 48.6316 185.615 49.536C184.71 50.4404 183.64 51.151 182.403 51.6678C181.185 52.1661 179.847 52.4153 178.389 52.4153C176.949 52.4153 175.611 52.1661 174.374 51.6678C173.138 51.151 172.067 50.4404 171.163 49.536C170.277 48.6316 169.585 47.5611 169.086 46.3245C168.588 45.0879 168.339 43.7498 168.339 42.3101ZM191.643 32.6202H194.91V49.0653H202.607V52H191.643V32.6202Z" fill="#AC6DEC"/>
<path d="M127 65.6999H135.526V99.9999H127V65.6999ZM139.25 99.9999H132.488V92.6499H138.956C140.263 92.6499 141.52 92.4867 142.729 92.16C143.97 91.8333 145.048 91.2942 145.963 90.5429C146.91 89.7916 147.662 88.7952 148.217 87.5539C148.772 86.2799 149.05 84.7119 149.05 82.8499C149.05 80.9879 148.772 79.4362 148.217 78.1949C147.662 76.9209 146.91 75.9082 145.963 75.1569C145.048 74.4056 143.97 73.8666 142.729 73.5399C141.52 73.2132 140.263 73.0499 138.956 73.0499H132.488V65.6999H139.25C143.007 65.6999 146.257 66.4022 149.001 67.8069C151.745 69.2116 153.868 71.1879 155.371 73.7359C156.874 76.2839 157.625 79.3219 157.625 82.8499C157.625 86.3452 156.874 89.3832 155.371 91.9639C153.868 94.5119 151.745 96.4882 149.001 97.8929C146.257 99.2976 143.007 99.9999 139.25 99.9999ZM171.512 84.4669H180.087L190.818 99.9999H181.116L171.512 84.4669ZM162.937 65.6999H171.218V99.9999H162.937V65.6999ZM168.131 72.7069V65.6999H175.432C178.372 65.6999 180.822 66.1736 182.782 67.1209C184.742 68.0682 186.228 69.3912 187.241 71.0899C188.253 72.7559 188.76 74.6996 188.76 76.9209C188.76 79.1096 188.253 81.0532 187.241 82.7519C186.228 84.4179 184.742 85.7246 182.782 86.6719C180.822 87.6192 178.372 88.0929 175.432 88.0929H168.131V81.674H174.844C175.954 81.674 176.902 81.5106 177.686 81.1839C178.502 80.8246 179.123 80.3182 179.548 79.6649C179.972 78.9789 180.185 78.1622 180.185 77.2149C180.185 76.2676 179.972 75.4672 179.548 74.8139C179.123 74.1279 178.502 73.6052 177.686 73.2459C176.902 72.8866 175.954 72.7069 174.844 72.7069H168.131ZM200.15 99.9999V93.1889H217.447V99.9999H200.15ZM200.15 72.5109V65.6999H217.447V72.5109H200.15ZM200.15 85.2999V78.6359H216.467V85.2999H200.15ZM194.662 65.6999H202.6V99.9999H194.662V65.6999ZM229.577 93.3849L230.165 87.0639H247.168L247.707 93.3849H229.577ZM238.544 78.2929L233.742 89.3669L234.134 91.1799L229.871 99.9999H220.512L238.544 63.5439L256.625 99.9999H247.217L243.101 91.5229L243.395 89.4159L238.544 78.2929ZM269.039 82.507L266.981 99.9999H258.259L263.796 63.9849L278.398 84.9079L293.049 63.9849L298.586 99.9999H289.864L287.806 82.507L278.398 96.8149L269.039 82.507ZM323.116 65.6999H332.622L320.617 86.035V99.9999H312.189V86.0839L300.184 65.6999H309.69L316.403 78.5869L323.116 65.6999Z" fill="#AC6DEC"/>
<defs>
<linearGradient id="paint0_linear_1044_981" x1="40.0592" y1="11.3358" x2="75.0775" y2="84.6522" gradientUnits="userSpaceOnUse">
<stop stop-color="#F19FFF"/>
<stop offset="1" stop-color="#7260EB"/>
</linearGradient>
<linearGradient id="paint1_linear_1044_981" x1="33.6221" y1="0" x2="33.6221" y2="116.167" gradientUnits="userSpaceOnUse">
<stop offset="0.135417" stop-color="#9959EA"/>
<stop offset="0.442708" stop-color="#AC6DEC"/>
<stop offset="1" stop-color="#F3AFFF"/>
</linearGradient>
</defs>
</svg>
