<svg width="116" height="117" viewBox="0 0 116 117" fill="none" xmlns="http://www.w3.org/2000/svg">
<path d="M105.515 21.2847C92.5596 8.42495 71.5551 8.42495 58.6 21.2847L12.3221 67.2218L32.5621 87.3127C47.2944 101.936 71.18 101.936 85.9121 87.3127L105.515 67.8542C118.47 54.9945 118.47 34.1446 105.515 21.2847Z" fill="#9559EA"/>
<path d="M97.643 29.7553C89.4334 21.6063 76.1232 21.6063 67.9137 29.7553L29.0684 68.3148L32.1225 71.3466C46.8548 85.9704 70.7403 85.9704 85.4726 71.3466L97.643 59.2657C105.853 51.1166 105.853 37.9044 97.643 29.7553Z" fill="#D2A6FF"/>
<path d="M77.2704 96.7932C92.0025 82.1695 92.0025 58.4596 77.2704 43.8358L34.2101 1.09277L14.6749 20.4841C-0.0571667 35.1079 -0.0571847 58.8176 14.6749 73.4413L57.7352 116.184L77.2704 96.7932Z" fill="url(#paint0_linear_225_90)"/>
<path d="M57.4827 117C67.2759 107.792 79.1233 83.2836 48.1673 58.9168C34.6832 48.5755 13.3702 23.2032 32.856 2.52401L34.5524 0.833496C33.9554 1.3932 33.3904 1.95684 32.856 2.52401L9.63085 25.6687C2.42806 32.8395 -7.07969 51.9137 12.5121 70.8445L57.4827 117Z" fill="url(#paint1_linear_225_90)"/>
<defs>
<linearGradient id="paint0_linear_225_90" x1="40.9368" y1="12.1669" x2="75.9551" y2="85.4832" gradientUnits="userSpaceOnUse">
<stop stop-color="#F19FFF"/>
<stop offset="1" stop-color="#7260EB"/>
</linearGradient>
<linearGradient id="paint1_linear_225_90" x1="34.4986" y1="0.833496" x2="34.4986" y2="117" gradientUnits="userSpaceOnUse">
<stop offset="0.135417" stop-color="#9959EA"/>
<stop offset="0.442708" stop-color="#AC6DEC"/>
<stop offset="1" stop-color="#F3AFFF"/>
</linearGradient>
</defs>
</svg>
