<svg width="145" height="49" viewBox="0 0 145 49" fill="none" xmlns="http://www.w3.org/2000/svg">
<path d="M43.3501 8.28279C37.9829 3.07513 29.2811 3.07513 23.9139 8.28279L4.7417 26.8854L13.1268 35.0214C19.2302 40.9434 29.1256 40.9434 35.2289 35.0214L43.3501 27.1415C48.7172 21.9339 48.7172 13.4905 43.3501 8.28279Z" fill="#9559EA"/>
<path d="M40.0887 11.7131C36.6876 8.41314 31.1734 8.41314 27.7723 11.7131L11.6792 27.3281L12.9445 28.5559C19.0479 34.4779 28.9433 34.4779 35.0467 28.5559L40.0887 23.6636C43.49 20.3636 43.49 15.0132 40.0887 11.7131Z" fill="#D2A6FF"/>
<path d="M31.6486 38.8607C37.7519 32.9387 37.7519 23.3372 31.6486 17.4152L13.8094 0.105988L5.85096 8.16721C-0.252322 14.0892 -0.387081 23.4821 5.71624 29.4042L23.5555 46.7132L31.6486 38.8607Z" fill="url(#paint0_linear_1044_995)"/>
<path d="M23.4511 47.0428C27.5083 43.3136 32.4165 33.3889 19.5919 23.5213C14.0056 19.3335 5.17592 9.0588 13.2486 0.684587L13.9514 0C13.7041 0.226659 13.47 0.454906 13.2486 0.684587L3.62677 10.0572C0.642753 12.9611 -3.29617 20.6854 4.82042 28.3516L23.4511 47.0428Z" fill="url(#paint1_linear_1044_995)"/>
<path d="M54.0709 17.1338C54.0709 17.6869 54.1972 18.1727 54.4495 18.5913C54.7093 19.0099 55.0457 19.335 55.4587 19.5667C55.8792 19.791 56.3341 19.9031 56.8238 19.9031C57.2058 19.9031 57.5501 19.8545 57.8558 19.7573C58.162 19.6602 58.437 19.5294 58.6819 19.3649C58.9342 19.193 59.1521 19.0024 59.3356 18.7931V20.3627C58.9992 20.6318 58.6359 20.8373 58.2461 20.9794C57.8558 21.1214 57.3665 21.1924 56.7778 21.1924C56.1891 21.1924 55.6385 21.0952 55.1261 20.9009C54.6215 20.7065 54.1819 20.4263 53.807 20.06C53.4325 19.6938 53.1379 19.264 52.9241 18.7707C52.7174 18.2699 52.6143 17.7243 52.6143 17.1338C52.6143 16.5434 52.7174 16.0015 52.9241 15.5082C53.1379 15.0074 53.4325 14.5739 53.807 14.2076C54.1819 13.8414 54.6215 13.5611 55.1261 13.3668C55.6385 13.1724 56.1891 13.0753 56.7778 13.0753C57.3665 13.0753 57.8558 13.1463 58.2461 13.2883C58.6359 13.4303 58.9992 13.6359 59.3356 13.9049V15.4745C59.1521 15.2653 58.9342 15.0784 58.6819 14.914C58.437 14.7421 58.162 14.6075 57.8558 14.5103C57.5501 14.4132 57.2058 14.3646 56.8238 14.3646C56.3341 14.3646 55.8792 14.4805 55.4587 14.7122C55.0457 14.9364 54.7093 15.2578 54.4495 15.6763C54.1972 16.0874 54.0709 16.5732 54.0709 17.1338ZM61.9784 17.1338C61.9784 17.672 62.0927 18.1541 62.3222 18.5801C62.5592 18.9987 62.8844 19.3275 63.297 19.5667C63.7101 19.8059 64.1803 19.9255 64.7081 19.9255C65.2433 19.9255 65.7136 19.8059 66.1187 19.5667C66.5318 19.3275 66.8528 18.9987 67.0824 18.5801C67.3193 18.1541 67.4378 17.672 67.4378 17.1338C67.4378 16.5957 67.3231 16.1173 67.0935 15.6988C66.8644 15.2727 66.543 14.9401 66.1303 14.701C65.7247 14.4618 65.2508 14.3422 64.7081 14.3422C64.1803 14.3422 63.7101 14.4618 63.297 14.701C62.8844 14.9401 62.5592 15.2727 62.3222 15.6988C62.0927 16.1173 61.9784 16.5957 61.9784 17.1338ZM60.5445 17.1338C60.5445 16.5434 60.6477 16.0015 60.854 15.5082C61.0607 15.0149 61.3511 14.5888 61.7256 14.2301C62.108 13.8638 62.5517 13.5798 63.0563 13.378C63.5688 13.1762 64.1194 13.0753 64.7081 13.0753C65.3121 13.0753 65.8664 13.1762 66.371 13.378C66.8756 13.5798 67.3156 13.8638 67.6901 14.2301C68.0725 14.5888 68.3666 15.0149 68.5734 15.5082C68.7797 16.0015 68.8828 16.5434 68.8828 17.1338C68.8828 17.7168 68.7797 18.2587 68.5734 18.7595C68.3666 19.2603 68.0762 19.6938 67.7017 20.06C67.3268 20.4263 66.8835 20.714 66.371 20.9233C65.8664 21.1251 65.3121 21.226 64.7081 21.226C64.1115 21.226 63.5572 21.1251 63.0447 20.9233C62.5327 20.714 62.089 20.4263 61.7145 20.06C61.3474 19.6938 61.0607 19.2603 60.854 18.7595C60.6477 18.2587 60.5445 17.7168 60.5445 17.1338ZM71.1743 17.1338C71.1743 17.672 71.2886 18.1541 71.5181 18.5801C71.7551 18.9987 72.0803 19.3275 72.4929 19.5667C72.906 19.8059 73.3762 19.9255 73.904 19.9255C74.4392 19.9255 74.9095 19.8059 75.3146 19.5667C75.7277 19.3275 76.0487 18.9987 76.2783 18.5801C76.5152 18.1541 76.6337 17.672 76.6337 17.1338C76.6337 16.5957 76.519 16.1173 76.2894 15.6988C76.0603 15.2727 75.7389 14.9401 75.3262 14.701C74.9206 14.4618 74.4467 14.3422 73.904 14.3422C73.3762 14.3422 72.906 14.4618 72.4929 14.701C72.0803 14.9401 71.7551 15.2727 71.5181 15.6988C71.2886 16.1173 71.1743 16.5957 71.1743 17.1338ZM69.7404 17.1338C69.7404 16.5434 69.8436 16.0015 70.0499 15.5082C70.2566 15.0149 70.547 14.5888 70.9215 14.2301C71.3039 13.8638 71.7476 13.5798 72.2522 13.378C72.7647 13.1762 73.3149 13.0753 73.904 13.0753C74.508 13.0753 75.0623 13.1762 75.5669 13.378C76.0715 13.5798 76.5111 13.8638 76.886 14.2301C77.2684 14.5888 77.5625 15.0149 77.7693 15.5082C77.9756 16.0015 78.0787 16.5434 78.0787 17.1338C78.0787 17.7168 77.9756 18.2587 77.7693 18.7595C77.5625 19.2603 77.2721 19.6938 76.8976 20.06C76.5227 20.4263 76.0794 20.714 75.5669 20.9233C75.0623 21.1251 74.508 21.226 73.904 21.226C73.3074 21.226 72.7531 21.1251 72.2406 20.9233C71.7286 20.714 71.2849 20.4263 70.9104 20.06C70.5433 19.6938 70.2566 19.2603 70.0499 18.7595C69.8436 18.2587 69.7404 17.7168 69.7404 17.1338ZM79.3949 13.2098H80.7484V19.8694H83.9372V21.0578H79.3949V13.2098Z" fill="#AC6DEC"/>
<path d="M52.6143 26.6058H56.1465V40.4958H52.6143V26.6058ZM57.6893 40.4958H54.8879V37.5194H57.5675C58.1089 37.5194 58.6297 37.4533 59.1306 37.321C59.6447 37.1887 60.0913 36.9704 60.4704 36.6661C60.8627 36.3619 61.1742 35.9584 61.4042 35.4557C61.6341 34.9398 61.7493 34.3048 61.7493 33.5508C61.7493 32.7968 61.6341 32.1684 61.4042 31.6657C61.1742 31.1498 60.8627 30.7397 60.4704 30.4355C60.0913 30.1312 59.6447 29.9129 59.1306 29.7806C58.6297 29.6483 58.1089 29.5822 57.5675 29.5822H54.8879V26.6058H57.6893C59.2457 26.6058 60.5922 26.8902 61.729 27.459C62.8658 28.0279 63.7453 28.8282 64.368 29.86C64.9906 30.8918 65.3018 32.1221 65.3018 33.5508C65.3018 34.9663 64.9906 36.1965 64.368 37.2416C63.7453 38.2734 62.8658 39.0737 61.729 39.6426C60.5922 40.2114 59.2457 40.4958 57.6893 40.4958ZM71.0549 34.2056H74.6074L79.0531 40.4958H75.0337L71.0549 34.2056ZM67.5024 26.6058H70.9331V40.4958H67.5024V26.6058ZM69.6542 29.4433V26.6058H72.6789C73.8969 26.6058 74.9119 26.7976 75.7239 27.1812C76.5359 27.5648 77.1516 28.1006 77.5712 28.7885C77.9905 29.4631 78.2005 30.2503 78.2005 31.1498C78.2005 32.0361 77.9905 32.8232 77.5712 33.5111C77.1516 34.1858 76.5359 34.7149 75.7239 35.0985C74.9119 35.4822 73.8969 35.674 72.6789 35.674H69.6542V33.0746H72.4353C72.8952 33.0746 73.2879 33.0084 73.6127 32.8761C73.9508 32.7306 74.2081 32.5256 74.3841 32.261C74.5598 31.9832 74.648 31.6525 74.648 31.2689C74.648 30.8852 74.5598 30.5611 74.3841 30.2966C74.2081 30.0188 73.9508 29.8071 73.6127 29.6616C73.2879 29.5161 72.8952 29.4433 72.4353 29.4433H69.6542ZM82.9193 40.4958V37.7377H90.0852V40.4958H82.9193ZM82.9193 29.3639V26.6058H90.0852V29.3639H82.9193ZM82.9193 34.5429V31.8443H89.6792V34.5429H82.9193ZM80.6457 26.6058H83.9343V40.4958H80.6457V26.6058ZM95.1104 37.817L95.354 35.2573H102.398L102.621 37.817H95.1104ZM98.8253 31.7054L96.8359 36.1899L96.9983 36.9241L95.2322 40.4958H91.3549L98.8253 25.7327L106.316 40.4958H102.418L100.713 37.063L100.835 36.2098L98.8253 31.7054ZM111.459 33.4119L110.606 40.4958H106.993L109.287 25.9113L115.336 34.3842L121.406 25.9113L123.7 40.4958H120.086L119.234 33.4119L115.336 39.206L111.459 33.4119ZM133.862 26.6058H137.801L132.827 34.8406V40.4958H129.335V34.8604L124.362 26.6058H128.3L131.081 31.8245L133.862 26.6058Z" fill="#AC6DEC"/>
<defs>
<linearGradient id="paint0_linear_1044_995" x1="16.5959" y1="4.59053" x2="30.5732" y2="34.5282" gradientUnits="userSpaceOnUse">
<stop stop-color="#F19FFF"/>
<stop offset="1" stop-color="#7260EB"/>
</linearGradient>
<linearGradient id="paint1_linear_1044_995" x1="13.9292" y1="0" x2="13.9292" y2="47.0428" gradientUnits="userSpaceOnUse">
<stop offset="0.135417" stop-color="#9959EA"/>
<stop offset="0.442708" stop-color="#AC6DEC"/>
<stop offset="1" stop-color="#F3AFFF"/>
</linearGradient>
</defs>
</svg>
