<svg width="115" height="48" viewBox="0 0 115 48" fill="none" xmlns="http://www.w3.org/2000/svg">
<g clip-path="url(#clip0_4_963)">
<path d="M47.4183 9.39216C42.1907 4.20502 33.7152 4.20502 28.4877 9.39216L9.81421 27.9214L17.9812 36.0253C23.9258 41.924 33.5639 41.924 39.5084 36.0253L47.4183 28.1765C52.6458 22.9894 52.6458 14.5793 47.4183 9.39216Z" fill="#9559EA"/>
<path d="M44.2419 12.8088C40.9292 9.52182 35.5585 9.52182 32.2458 12.8088L16.5714 28.3622L17.8038 29.5851C23.7484 35.4838 33.3864 35.4838 39.331 29.5851L44.2419 24.7122C47.5545 21.4251 47.5545 16.0958 44.2419 12.8088Z" fill="#D2A6FF"/>
<path d="M36.0214 39.8493C41.9659 33.9507 41.9659 24.387 36.0214 18.4884L18.6462 1.24747L10.7636 9.06919C4.81904 14.9678 4.81904 24.5314 10.7636 30.4301L28.1388 47.671L36.0214 39.8493Z" fill="url(#paint0_linear_4_963)"/>
<path d="M28.0369 48.0001C31.9885 44.2858 36.769 34.4001 24.278 24.5715C18.8371 20.4002 10.2371 10.166 18.0998 1.8248L18.7843 1.14291C18.5434 1.36868 18.3154 1.59603 18.0998 1.8248L8.72822 11.1605C5.82183 14.0529 1.98537 21.7467 9.89083 29.3827L28.0369 48.0001Z" fill="url(#paint1_linear_4_963)"/>
<path d="M60.1359 20.6057C60.1359 20.0229 60.2655 19.5177 60.5246 19.0903C60.7915 18.6551 61.137 18.3209 61.561 18.0878C61.9928 17.8469 62.46 17.7264 62.9625 17.7264C63.3551 17.7264 63.7084 17.7769 64.0224 17.8779C64.3364 17.979 64.6191 18.1188 64.8703 18.2976C65.1294 18.4686 65.3532 18.6629 65.5416 18.8805V17.2485C65.1962 16.9687 64.8232 16.755 64.4228 16.6073C64.0224 16.4597 63.5199 16.3858 62.9153 16.3858C62.3108 16.3858 61.7455 16.4868 61.2194 16.6889C60.7013 16.891 60.2498 17.1824 59.8651 17.5632C59.4804 17.944 59.1781 18.3948 58.9582 18.9154C58.7463 19.4283 58.6403 19.9918 58.6403 20.6057C58.6403 21.2196 58.7463 21.787 58.9582 22.3077C59.1781 22.8206 59.4804 23.2675 59.8651 23.6482C60.2498 24.029 60.7013 24.3204 61.2194 24.5225C61.7455 24.7246 62.3108 24.8256 62.9153 24.8256C63.5199 24.8256 64.0224 24.7518 64.4228 24.6041C64.8232 24.4565 65.1962 24.2427 65.5416 23.963V22.331C65.3532 22.5486 65.1294 22.7467 64.8703 22.9255C64.6191 23.0964 64.3364 23.2325 64.0224 23.3335C63.7084 23.4345 63.3551 23.485 62.9625 23.485C62.46 23.485 61.9928 23.3685 61.561 23.1353C61.137 22.8944 60.7915 22.5564 60.5246 22.1211C60.2655 21.6859 60.1359 21.1808 60.1359 20.6057ZM68.2552 20.6057C68.2552 20.0462 68.3729 19.5488 68.6085 19.1136C68.8518 18.6706 69.1856 18.3248 69.6096 18.0761C70.0336 17.8274 70.5164 17.7031 71.0582 17.7031C71.6159 17.7031 72.1022 17.8274 72.5185 18.0761C72.9425 18.3248 73.2723 18.6706 73.5078 19.1136C73.7434 19.5488 73.8611 20.0462 73.8611 20.6057C73.8611 21.1653 73.7392 21.6665 73.496 22.1095C73.2605 22.5447 72.9307 22.8866 72.5068 23.1353C72.0904 23.384 71.6075 23.5083 71.0582 23.5083C70.5164 23.5083 70.0336 23.384 69.6096 23.1353C69.1856 22.8866 68.8518 22.5447 68.6085 22.1095C68.3729 21.6665 68.2552 21.1653 68.2552 20.6057ZM66.783 20.6057C66.783 21.2119 66.889 21.7753 67.101 22.296C67.313 22.8167 67.6074 23.2675 67.9843 23.6482C68.369 24.029 68.8244 24.3283 69.3505 24.5458C69.8763 24.7557 70.4458 24.8606 71.0582 24.8606C71.6782 24.8606 72.2477 24.7557 72.7659 24.5458C73.2917 24.3283 73.7475 24.029 74.132 23.6482C74.5165 23.2675 74.8151 22.8167 75.0271 22.296C75.2391 21.7753 75.345 21.2119 75.345 20.6057C75.345 19.9918 75.2391 19.4283 75.0271 18.9154C74.8151 18.4025 74.513 17.9595 74.1202 17.5865C73.7357 17.2057 73.2841 16.9104 72.7659 16.7006C72.2477 16.4907 71.6782 16.3858 71.0582 16.3858C70.4534 16.3858 69.8881 16.4907 69.3623 16.7006C68.844 16.9104 68.3887 17.2057 67.9961 17.5865C67.6114 17.9595 67.313 18.4025 67.101 18.9154C66.889 19.4283 66.783 19.9918 66.783 20.6057ZM77.6977 20.6057C77.6977 20.0462 77.8155 19.5488 78.051 19.1136C78.2942 18.6706 78.6281 18.3248 79.0521 18.0761C79.476 17.8274 79.9589 17.7031 80.5006 17.7031C81.0576 17.7031 81.5447 17.8274 81.961 18.0761C82.385 18.3248 82.7147 18.6706 82.9503 19.1136C83.1858 19.5488 83.3036 20.0462 83.3036 20.6057C83.3036 21.1653 83.1817 21.6665 82.9385 22.1095C82.703 22.5447 82.3732 22.8866 81.9492 23.1353C81.5329 23.384 81.05 23.5083 80.5006 23.5083C79.9589 23.5083 79.476 23.384 79.0521 23.1353C78.6281 22.8866 78.2942 22.5447 78.051 22.1095C77.8155 21.6665 77.6977 21.1653 77.6977 20.6057ZM76.2256 20.6057C76.2256 21.2119 76.3316 21.7753 76.5435 22.296C76.7555 22.8167 77.05 23.2675 77.4268 23.6482C77.8113 24.029 78.2665 24.3283 78.793 24.5458C79.3188 24.7557 79.8882 24.8606 80.5006 24.8606C81.1207 24.8606 81.6901 24.7557 82.2083 24.5458C82.7341 24.3283 83.1893 24.029 83.5745 23.6482C83.959 23.2675 84.2575 22.8167 84.4695 22.296C84.6815 21.7753 84.7875 21.2119 84.7875 20.6057C84.7875 19.9918 84.6815 19.4283 84.4695 18.9154C84.2575 18.4025 83.9548 17.9595 83.5627 17.5865C83.1775 17.2057 82.7265 16.9104 82.2083 16.7006C81.6901 16.4907 81.1207 16.3858 80.5006 16.3858C79.8959 16.3858 79.3306 16.4907 78.8047 16.7006C78.2866 16.9104 77.8307 17.2057 77.4386 17.5865C77.0534 17.9595 76.7555 18.4025 76.5435 18.9154C76.3316 19.4283 76.2256 19.9918 76.2256 20.6057ZM86.1391 16.5257V24.6857H90.8029V23.4501H87.5288V16.5257H86.1391Z" fill="#AC6DEC"/>
<path d="M58.499 30.1029V45.9429H62.4769V30.1029H58.499ZM64.2144 45.9429C65.9671 45.9429 67.4836 45.6185 68.7638 44.9698C70.0441 44.3212 71.0347 43.4085 71.7358 42.2318C72.4369 41.04 72.7874 39.637 72.7874 38.0229C72.7874 36.3936 72.4369 34.9906 71.7358 33.814C71.0347 32.6373 70.0441 31.7246 68.7638 31.0759C67.4836 30.4272 65.9671 30.1029 64.2144 30.1029H61.0595V33.4971H64.0772C64.6869 33.4971 65.2736 33.5726 65.8375 33.7234C66.4167 33.8743 66.9197 34.1232 67.3464 34.4702C67.7884 34.8172 68.1389 35.2848 68.398 35.8731C68.6571 36.4464 68.7867 37.163 68.7867 38.0229C68.7867 38.8828 68.6571 39.6069 68.398 40.1952C68.1389 40.7685 67.7884 41.2286 67.3464 41.5756C66.9197 41.9225 66.4167 42.1714 65.8375 42.3223C65.2736 42.4732 64.6869 42.5486 64.0772 42.5486H61.0595V45.9429H64.2144ZM77.0882 42.888H85.5469L85.2954 39.9689H77.3625L77.0882 42.888ZM81.2718 35.9184L83.5351 41.0551L83.3979 42.0281L85.3183 45.9429H89.7077L81.2718 29.1072L72.8588 45.9429H77.2253L79.2143 41.8697L79.0314 41.0325L81.2718 35.9184ZM88.1766 33.5198H92.566V45.9429H96.4296V33.5198H100.842V30.1029H88.1766V33.5198ZM105.152 45.9429H113.222V42.7975H105.152V45.9429ZM105.152 33.2482H113.222V30.1029H105.152V33.2482ZM105.152 39.1543H112.765V36.0768H105.152V39.1543ZM102.592 30.1029V45.9429H106.295V30.1029H102.592Z" fill="#AC6DEC"/>
</g>
<defs>
<linearGradient id="paint0_linear_4_963" x1="21.3605" y1="5.71433" x2="35.4823" y2="35.2913" gradientUnits="userSpaceOnUse">
<stop stop-color="#F19FFF"/>
<stop offset="1" stop-color="#7260EB"/>
</linearGradient>
<linearGradient id="paint1_linear_4_963" x1="18.7626" y1="1.14291" x2="18.7626" y2="48.0001" gradientUnits="userSpaceOnUse">
<stop offset="0.135417" stop-color="#9959EA"/>
<stop offset="0.442708" stop-color="#AC6DEC"/>
<stop offset="1" stop-color="#F3AFFF"/>
</linearGradient>
<clipPath id="clip0_4_963">
<rect width="115" height="48" fill="white"/>
</clipPath>
</defs>
</svg>
