<svg width="285" height="119" viewBox="0 0 285 119" fill="none" xmlns="http://www.w3.org/2000/svg">
<g clip-path="url(#clip0_4_1079)">
<path d="M117.515 23.2847C104.56 10.4249 83.5551 10.4249 70.6 23.2847L24.3221 69.2218L44.5621 89.3127C59.2944 103.936 83.18 103.936 97.9121 89.3127L117.515 69.8542C130.47 56.9945 130.47 36.1446 117.515 23.2847Z" fill="#9559EA"/>
<path d="M109.643 31.7553C101.433 23.6063 88.1232 23.6063 79.9137 31.7553L41.0684 70.3148L44.1225 73.3466C58.8548 87.9704 82.7403 87.9704 97.4726 73.3466L109.643 61.2657C117.853 53.1166 117.853 39.9044 109.643 31.7553Z" fill="#D2A6FF"/>
<path d="M89.2704 98.7932C104.002 84.1695 104.002 60.4596 89.2704 45.8358L46.2101 3.09277L26.6749 22.4841C11.9428 37.1079 11.9428 60.8176 26.6749 75.4413L69.7352 118.184L89.2704 98.7932Z" fill="url(#paint0_linear_4_1079)"/>
<path d="M69.4827 119C79.2759 109.792 91.1233 85.2836 60.1673 60.9168C46.6832 50.5755 25.3702 25.2032 44.856 4.52401L46.5524 2.8335C45.9554 3.3932 45.3904 3.95684 44.856 4.52401L21.6309 27.6687C14.4281 34.8395 4.92031 53.9137 24.5121 72.8445L69.4827 119Z" fill="url(#paint1_linear_4_1079)"/>
<path d="M149.033 51.0851C149.033 49.6401 149.354 48.3877 149.996 47.3281C150.657 46.2491 151.514 45.4207 152.564 44.8427C153.634 44.2455 154.792 43.9468 156.037 43.9468C157.01 43.9468 157.886 44.0721 158.664 44.3225C159.443 44.5729 160.143 44.9197 160.766 45.3629C161.408 45.7867 161.962 46.2685 162.429 46.8079V42.7619C161.573 42.0683 160.649 41.5384 159.657 41.1724C158.664 40.8064 157.419 40.6233 155.921 40.6233C154.422 40.6233 153.021 40.8737 151.718 41.3747C150.434 41.8757 149.315 42.5982 148.361 43.5422C147.408 44.4862 146.659 45.6038 146.114 46.8946C145.589 48.1662 145.326 49.5631 145.326 51.0851C145.326 52.6071 145.589 54.0137 146.114 55.3045C146.659 56.5761 147.408 57.684 148.361 58.628C149.315 59.572 150.434 60.2945 151.718 60.7955C153.021 61.2965 154.422 61.5469 155.921 61.5469C157.419 61.5469 158.664 61.3638 159.657 60.9978C160.649 60.6318 161.573 60.1019 162.429 59.4083V55.3623C161.962 55.9017 161.408 56.393 160.766 56.8362C160.143 57.26 159.443 57.5973 158.664 57.8477C157.886 58.0981 157.01 58.2234 156.037 58.2234C154.792 58.2234 153.634 57.9344 152.564 57.3564C151.514 56.7592 150.657 55.9211 149.996 54.8421C149.354 53.7631 149.033 52.5109 149.033 51.0851ZM169.154 51.0851C169.154 49.6979 169.446 48.4649 170.03 47.3859C170.633 46.2877 171.46 45.4304 172.511 44.8138C173.562 44.1972 174.758 43.889 176.101 43.889C177.483 43.889 178.688 44.1972 179.72 44.8138C180.771 45.4304 181.588 46.2877 182.172 47.3859C182.755 48.4649 183.047 49.6979 183.047 51.0851C183.047 52.4723 182.745 53.715 182.142 54.8132C181.559 55.8922 180.741 56.7398 179.691 57.3564C178.659 57.973 177.462 58.2812 176.101 58.2812C174.758 58.2812 173.562 57.973 172.511 57.3564C171.46 56.7398 170.633 55.8922 170.03 54.8132C169.446 53.715 169.154 52.4723 169.154 51.0851ZM165.506 51.0851C165.506 52.5879 165.768 53.9848 166.294 55.2756C166.819 56.5664 167.549 57.684 168.483 58.628C169.436 59.572 170.565 60.3139 171.869 60.8533C173.172 61.3735 174.583 61.6336 176.101 61.6336C177.637 61.6336 179.049 61.3735 180.333 60.8533C181.636 60.3139 182.766 59.572 183.719 58.628C184.671 57.684 185.411 56.5664 185.937 55.2756C186.462 53.9848 186.725 52.5879 186.725 51.0851C186.725 49.5631 186.462 48.1662 185.937 46.8946C185.411 45.623 184.663 44.5248 183.689 43.6C182.736 42.656 181.617 41.9238 180.333 41.4036C179.049 40.8834 177.637 40.6233 176.101 40.6233C174.602 40.6233 173.201 40.8834 171.898 41.4036C170.613 41.9238 169.485 42.656 168.512 43.6C167.559 44.5248 166.819 45.623 166.294 46.8946C165.768 48.1662 165.506 49.5631 165.506 51.0851ZM192.555 51.0851C192.555 49.6979 192.847 48.4649 193.431 47.3859C194.033 46.2877 194.861 45.4304 195.912 44.8138C196.962 44.1972 198.159 43.889 199.502 43.889C200.882 43.889 202.089 44.1972 203.121 44.8138C204.172 45.4304 204.989 46.2877 205.573 47.3859C206.156 48.4649 206.448 49.6979 206.448 51.0851C206.448 52.4723 206.146 53.715 205.543 54.8132C204.96 55.8922 204.142 56.7398 203.092 57.3564C202.06 57.973 200.863 58.2812 199.502 58.2812C198.159 58.2812 196.962 57.973 195.912 57.3564C194.861 56.7398 194.033 55.8922 193.431 54.8132C192.847 53.715 192.555 52.4723 192.555 51.0851ZM188.907 51.0851C188.907 52.5879 189.17 53.9848 189.695 55.2756C190.22 56.5664 190.95 57.684 191.884 58.628C192.837 59.572 193.965 60.3139 195.27 60.8533C196.573 61.3735 197.984 61.6336 199.502 61.6336C201.038 61.6336 202.45 61.3735 203.734 60.8533C205.037 60.3139 206.165 59.572 207.119 58.628C208.072 57.684 208.812 56.5664 209.338 55.2756C209.863 53.9848 210.126 52.5879 210.126 51.0851C210.126 49.5631 209.863 48.1662 209.338 46.8946C208.812 45.623 208.062 44.5248 207.09 43.6C206.136 42.656 205.018 41.9238 203.734 41.4036C202.45 40.8834 201.038 40.6233 199.502 40.6233C198.003 40.6233 196.602 40.8834 195.299 41.4036C194.015 41.9238 192.885 42.656 191.913 43.6C190.959 44.5248 190.22 45.623 189.695 46.8946C189.17 48.1662 188.907 49.5631 188.907 51.0851ZM213.475 40.9701V61.2001H225.033V58.1367H216.919V40.9701H213.475Z" fill="#AC6DEC"/>
<path d="M144.976 74.63V113.9H154.834V74.63H144.976ZM159.14 113.9C163.484 113.9 167.242 113.096 170.415 111.488C173.587 109.88 176.042 107.617 177.78 104.7C179.517 101.745 180.386 98.2668 180.386 94.265C180.386 90.2258 179.517 86.7476 177.78 83.8304C176.042 80.9132 173.587 78.6505 170.415 77.0423C167.242 75.4341 163.484 74.63 159.14 74.63H151.321V83.045H158.8C160.311 83.045 161.765 83.232 163.162 83.606C164.598 83.98 165.844 84.5971 166.902 85.4573C167.997 86.3175 168.866 87.4769 169.508 88.9355C170.15 90.3567 170.471 92.1332 170.471 94.265C170.471 96.3968 170.15 98.192 169.508 99.6506C168.866 101.072 167.997 102.213 166.902 103.073C165.844 103.933 164.598 104.55 163.162 104.924C161.765 105.298 160.311 105.485 158.8 105.485H151.321V113.9H159.14ZM191.044 106.327H212.007L211.384 99.0896H191.724L191.044 106.327ZM201.413 89.0477L207.022 101.782L206.682 104.195L211.441 113.9H222.319L201.413 72.1616L180.563 113.9H191.384L196.313 103.802L195.86 101.726L201.413 89.0477ZM218.525 83.1011H229.403V113.9H238.978V83.1011H249.912V74.63H218.525V83.1011ZM260.595 113.9H280.595V106.102H260.595V113.9ZM260.595 82.4279H280.595V74.63H260.595V82.4279ZM260.595 97.07H279.461V89.4404H260.595V97.07ZM254.249 74.63V113.9H263.428V74.63H254.249Z" fill="#AC6DEC"/>
</g>
<defs>
<linearGradient id="paint0_linear_4_1079" x1="52.9368" y1="14.1669" x2="87.9551" y2="87.4832" gradientUnits="userSpaceOnUse">
<stop stop-color="#F19FFF"/>
<stop offset="1" stop-color="#7260EB"/>
</linearGradient>
<linearGradient id="paint1_linear_4_1079" x1="46.4986" y1="2.8335" x2="46.4986" y2="119" gradientUnits="userSpaceOnUse">
<stop offset="0.135417" stop-color="#9959EA"/>
<stop offset="0.442708" stop-color="#AC6DEC"/>
<stop offset="1" stop-color="#F3AFFF"/>
</linearGradient>
<clipPath id="clip0_4_1079">
<rect width="285" height="119" fill="white"/>
</clipPath>
</defs>
</svg>
