<svg width="423" height="315" viewBox="0 0 423 315" fill="none" xmlns="http://www.w3.org/2000/svg">
<g clip-path="url(#clip0_1362_1117)">
<path d="M422.694 276.822H0V277.034H422.694V276.822Z" fill="#E6E6E6"/>
<path d="M319.269 285.775H290.188V285.987H319.269V285.775Z" fill="#E6E6E6"/>
<path d="M93.8721 285.877H77.5054V286.088H93.8721V285.877Z" fill="#E6E6E6"/>
<path d="M212.193 285.387H179.02V285.598H212.193V285.387Z" fill="#E6E6E6"/>
<path d="M178.174 282.377H163.346V282.588H178.174V282.377Z" fill="#E6E6E6"/>
<path d="M358.918 282.479H314.121V282.69H358.918V282.479Z" fill="#E6E6E6"/>
<path d="M200.357 239.119H37.121C35.8422 239.116 34.6165 238.607 33.7131 237.702C32.8097 236.797 32.3022 235.57 32.3022 234.292V4.82786C32.3134 3.55642 32.8257 2.34072 33.7279 1.44481C34.6302 0.548898 35.8495 0.0451468 37.121 0.0429688H200.357C201.637 0.0429688 202.865 0.551544 203.77 1.45681C204.676 2.36208 205.184 3.58989 205.184 4.87013V234.292C205.184 235.572 204.676 236.8 203.77 237.705C202.865 238.61 201.637 239.119 200.357 239.119ZM37.121 0.212047C35.8982 0.214286 34.7264 0.701581 33.8625 1.56697C32.9987 2.43236 32.5136 3.60514 32.5136 4.82786V234.292C32.5136 235.514 32.9987 236.687 33.8625 237.552C34.7264 238.418 35.8982 238.905 37.121 238.907H200.357C201.58 238.905 202.753 238.418 203.618 237.553C204.484 236.688 204.971 235.515 204.973 234.292V4.82786C204.971 3.60436 204.484 2.43161 203.618 1.56646C202.753 0.701306 201.58 0.214282 200.357 0.212047H37.121Z" fill="#E6E6E6"/>
<path d="M383.223 239.119H219.979C218.699 239.116 217.472 238.607 216.568 237.702C215.663 236.798 215.154 235.571 215.151 234.292V4.82786C215.165 3.55565 215.679 2.33995 216.583 1.44428C217.486 0.548603 218.706 0.045123 219.979 0.0429688H383.223C384.493 0.0473686 385.71 0.552103 386.611 1.44777C387.511 2.34344 388.022 3.55788 388.033 4.82786V234.292C388.033 235.569 387.527 236.794 386.625 237.699C385.724 238.604 384.5 239.114 383.223 239.119ZM219.979 0.212047C218.755 0.214282 217.582 0.701306 216.717 1.56646C215.852 2.43161 215.365 3.60436 215.363 4.82786V234.292C215.365 235.515 215.852 236.688 216.717 237.553C217.582 238.418 218.755 238.905 219.979 238.907H383.223C384.446 238.905 385.619 238.418 386.484 237.553C387.35 236.688 387.837 235.515 387.839 234.292V4.82786C387.837 3.60436 387.35 2.43161 386.484 1.56646C385.619 0.701306 384.446 0.214282 383.223 0.212047H219.979Z" fill="#E6E6E6"/>
<path d="M169.83 74.9355H119.082V130.486H169.83V74.9355Z" fill="white"/>
<path d="M176.965 74.9355H121.829V130.486H176.965V74.9355Z" fill="#FAFAFA"/>
<path d="M171.275 124.805V80.625H127.51V124.805H171.275Z" fill="white"/>
<path d="M137.798 102.715C137.801 99.9477 138.902 97.2943 140.859 95.3382C142.817 93.382 145.471 92.2832 148.239 92.2832H150.589C153.355 92.2854 156.007 93.3853 157.963 95.3412C159.919 97.2971 161.019 99.9492 161.021 102.715C161.021 104.085 160.751 105.442 160.227 106.707C159.703 107.973 158.934 109.123 157.966 110.092C156.997 111.061 155.847 111.829 154.581 112.353C153.316 112.878 151.959 113.147 150.589 113.147H148.239C146.868 113.148 145.511 112.879 144.244 112.356C142.977 111.832 141.826 111.064 140.857 110.095C139.887 109.126 139.118 107.976 138.593 106.709C138.068 105.443 137.798 104.086 137.798 102.715Z" fill="#F5F5F5"/>
<path d="M77.9784 88.1911C70.9157 88.1911 64.1423 85.3855 59.1483 80.3914C54.1543 75.3974 51.3486 68.624 51.3486 61.5614C51.3486 54.4987 54.1543 47.7254 59.1483 42.7313C64.1423 37.7373 70.9157 34.9316 77.9784 34.9316H82.7886V88.1911H77.9784Z" fill="white"/>
<path d="M297.864 181.801H261.588V279.815H297.864V181.801Z" fill="white"/>
<path d="M288.176 279.815H297.864V263.584H278.023L288.176 279.815Z" fill="#FAFAFA"/>
<path d="M80.3879 181.801H44.1123V279.815H80.3879V181.801Z" fill="white"/>
<path d="M297.872 181.801H71.9341V274.227H297.872V181.801Z" fill="#FAFAFA"/>
<path d="M81.6222 279.815H71.9341V263.584H91.7753L81.6222 279.815Z" fill="#FAFAFA"/>
<path d="M290.357 189.748H79.4497V223.766H290.357V189.748Z" fill="#F0F0F0"/>
<path d="M290.357 231.992H79.4497V266.011H290.357V231.992Z" fill="#F0F0F0"/>
<path d="M259.433 189.748H79.4497V223.766H259.433V189.748Z" fill="white"/>
<path d="M134.873 194.338H123.926C123.926 194.338 125.828 200.907 125.828 204.77C125.828 208.633 117.501 223.774 129.404 223.774C141.307 223.774 132.971 208.633 132.971 204.77C132.971 200.907 134.873 194.338 134.873 194.338Z" fill="#FAFAFA"/>
<path d="M91.7754 205.752V211.729C91.7754 218.357 98.1834 223.776 106.012 223.776H113.071C120.899 223.776 127.307 218.357 127.307 211.729V205.752H91.7754Z" fill="#F0F0F0"/>
<path d="M259.433 231.992H79.4497V266.011H259.433V231.992Z" fill="white"/>
<path d="M180.533 265.393H197.39V237.317H180.533V265.393Z" fill="white"/>
<path d="M194.76 265.832H195.91V237.757H194.76V265.832Z" fill="#E6E6E6"/>
<path d="M195.995 266.045H198.937C199.161 266.045 199.342 265.863 199.342 265.639V237.944C199.342 237.72 199.161 237.538 198.937 237.538H195.995C195.77 237.538 195.589 237.72 195.589 237.944V265.639C195.589 265.863 195.77 266.045 195.995 266.045Z" fill="#EBEBEB"/>
<path d="M195.589 250.709H199.342V244.047H195.589V250.709Z" fill="white"/>
<path d="M195.589 256.871H199.342V252.763H195.589V256.871Z" fill="white"/>
<path d="M179.67 266.045H194.862C195.086 266.045 195.268 265.863 195.268 265.639V237.944C195.268 237.72 195.086 237.538 194.862 237.538H179.67C179.446 237.538 179.264 237.72 179.264 237.944V265.639C179.264 265.863 179.446 266.045 179.67 266.045Z" fill="#EBEBEB"/>
<path d="M172.307 265.326H190.905V234.351H172.307V265.326Z" fill="white"/>
<path d="M188.023 265.809H189.282V234.834H188.023V265.809Z" fill="#E6E6E6"/>
<path d="M189.375 266.045H192.622C192.869 266.045 193.07 265.844 193.07 265.597V235.045C193.07 234.797 192.869 234.596 192.622 234.596H189.375C189.128 234.596 188.927 234.797 188.927 235.045V265.597C188.927 265.844 189.128 266.045 189.375 266.045Z" fill="#F0F0F0"/>
<path d="M188.927 245.688H193.07V244.614H188.927V245.688Z" fill="white"/>
<path d="M188.927 248.799H193.07V247.725H188.927V248.799Z" fill="white"/>
<path d="M188.927 251.9H193.07V250.827H188.927V251.9Z" fill="white"/>
<path d="M171.369 266.045H188.124C188.372 266.045 188.572 265.844 188.572 265.597V235.045C188.572 234.797 188.372 234.596 188.124 234.596H171.369C171.121 234.596 170.921 234.797 170.921 235.045V265.597C170.921 265.844 171.121 266.045 171.369 266.045Z" fill="#F0F0F0"/>
<path d="M149.397 255.258C149.398 256.201 149.12 257.124 148.597 257.909C148.074 258.694 147.33 259.306 146.459 259.669C145.588 260.031 144.629 260.126 143.704 259.943C142.778 259.76 141.928 259.307 141.26 258.641C140.593 257.974 140.138 257.124 139.953 256.199C139.768 255.274 139.862 254.315 140.223 253.443C140.584 252.572 141.195 251.826 141.979 251.302C142.763 250.778 143.685 250.498 144.629 250.498C145.892 250.498 147.103 250.999 147.997 251.892C148.891 252.784 149.395 253.995 149.397 255.258Z" fill="#FAFAFA"/>
<path d="M141.273 257.531C141.273 258.268 141.054 258.989 140.644 259.602C140.235 260.215 139.653 260.693 138.971 260.975C138.29 261.257 137.54 261.331 136.817 261.187C136.094 261.044 135.43 260.688 134.908 260.167C134.387 259.646 134.032 258.981 133.888 258.258C133.744 257.535 133.818 256.785 134.1 256.104C134.382 255.423 134.86 254.841 135.473 254.431C136.086 254.021 136.807 253.803 137.545 253.803C138.533 253.805 139.48 254.198 140.178 254.897C140.877 255.596 141.27 256.543 141.273 257.531Z" fill="#FAFAFA"/>
<path d="M157.555 257.532C157.555 258.475 157.275 259.397 156.751 260.181C156.228 260.965 155.483 261.576 154.612 261.937C153.74 262.298 152.782 262.392 151.857 262.208C150.932 262.024 150.082 261.57 149.416 260.903C148.749 260.236 148.295 259.387 148.111 258.462C147.927 257.537 148.021 256.578 148.382 255.707C148.743 254.836 149.354 254.091 150.138 253.567C150.922 253.043 151.844 252.764 152.787 252.764C154.051 252.766 155.262 253.269 156.156 254.163C157.05 255.056 157.553 256.268 157.555 257.532Z" fill="#FAFAFA"/>
<path d="M165.367 256.137C165.367 257.08 165.087 258.002 164.563 258.786C164.039 259.57 163.294 260.181 162.423 260.542C161.552 260.903 160.593 260.997 159.668 260.814C158.743 260.63 157.894 260.175 157.227 259.509C156.56 258.842 156.106 257.992 155.922 257.067C155.738 256.142 155.833 255.184 156.194 254.312C156.554 253.441 157.166 252.697 157.95 252.173C158.734 251.649 159.656 251.369 160.599 251.369C161.863 251.369 163.076 251.871 163.97 252.766C164.864 253.66 165.367 254.873 165.367 256.137Z" fill="#FAFAFA"/>
<path d="M124.424 256.754C124.424 256.754 125.075 266.053 150.158 266.053C175.241 266.053 175.892 256.754 175.892 256.754H124.424Z" fill="#F5F5F5"/>
<path d="M194.761 214.477C194.761 214.477 195.801 223.776 235.551 223.776C275.301 223.776 276.332 214.477 276.332 214.477H194.761Z" fill="white"/>
<path d="M211.347 315.001C301.873 315.001 375.259 310.716 375.259 305.431C375.259 300.146 301.873 295.861 211.347 295.861C120.821 295.861 47.4346 300.146 47.4346 305.431C47.4346 310.716 120.821 315.001 211.347 315.001Z" fill="white"/>
<path d="M124.206 178.694C142.086 160.813 142.086 131.823 124.206 113.943C106.325 96.062 77.335 96.062 59.4544 113.943C41.5737 131.823 41.5737 160.813 59.4544 178.694C77.335 196.575 106.325 196.575 124.206 178.694Z" fill="#FFD13A"/>
<path opacity="0.4" d="M124.206 178.694C142.086 160.813 142.086 131.823 124.206 113.943C106.325 96.062 77.335 96.062 59.4544 113.943C41.5737 131.823 41.5737 160.813 59.4544 178.694C77.335 196.575 106.325 196.575 124.206 178.694Z" fill="#F19F24"/>
<path opacity="0.2" d="M129.735 152.783C133.305 131.851 119.231 111.988 98.2989 108.417C77.3668 104.847 57.5036 118.921 53.9332 139.853C50.3627 160.785 64.437 180.648 85.3691 184.219C106.301 187.789 126.164 173.715 129.735 152.783Z" fill="#F19F24"/>
<path d="M131.572 150C132.999 129.615 117.631 111.934 97.2464 110.507C76.8618 109.08 59.18 124.448 57.7531 144.833C56.3262 165.217 71.6944 182.899 92.0791 184.326C112.464 185.753 130.145 170.385 131.572 150Z" fill="#FFD13A"/>
<path opacity="0.4" d="M131.572 150C132.999 129.615 117.631 111.934 97.2464 110.507C76.8618 109.08 59.18 124.448 57.7531 144.833C56.3262 165.217 71.6944 182.899 92.0791 184.326C112.464 185.753 130.145 170.385 131.572 150Z" fill="#F19F24"/>
<path d="M107.035 142.793L109.444 153.234C109.547 153.632 109.565 154.048 109.498 154.454C109.431 154.86 109.28 155.248 109.055 155.592C108.837 155.945 108.55 156.25 108.212 156.489C107.873 156.729 107.491 156.898 107.086 156.987L97.9048 159.109L99.5956 166.456C99.6951 166.853 99.7104 167.266 99.6405 167.669C99.5706 168.073 99.4171 168.457 99.1898 168.797C98.9714 169.144 98.6837 169.441 98.3447 169.671C98.0057 169.901 97.6228 170.058 97.22 170.133C96.8166 170.234 96.3971 170.253 95.9861 170.189C95.5752 170.125 95.1813 169.98 94.8276 169.761C94.4753 169.554 94.17 169.275 93.9313 168.943C93.6926 168.612 93.5257 168.234 93.4412 167.834L91.7504 160.403L82.6456 162.508C82.2532 162.602 81.8457 162.617 81.4476 162.55C81.0496 162.483 80.6691 162.336 80.3292 162.119C79.976 161.912 79.6696 161.633 79.4295 161.301C79.1894 160.97 79.0208 160.592 78.9343 160.191C78.8382 159.796 78.8231 159.386 78.8899 158.985C78.9567 158.584 79.1041 158.201 79.3232 157.858C79.5322 157.508 79.8113 157.205 80.143 156.968C80.4747 156.731 80.8518 156.565 81.2507 156.48L102.554 151.568L101.557 147.232L80.3123 152.126C79.919 152.227 79.5094 152.246 79.1084 152.184C78.7073 152.121 78.3231 151.978 77.979 151.763C77.6261 151.551 77.3213 151.268 77.0841 150.932C76.8468 150.595 76.6823 150.213 76.601 149.81L74.2001 139.412C74.0153 138.612 74.1556 137.772 74.5899 137.076C75.0243 136.381 75.7173 135.886 76.5165 135.7L85.5791 133.612L83.8883 126.257C83.7903 125.869 83.7712 125.464 83.8321 125.068C83.8931 124.671 84.033 124.291 84.2433 123.95C84.4663 123.58 84.7657 123.262 85.1214 123.017C85.4771 122.772 85.881 122.606 86.3061 122.529C86.697 122.434 87.1033 122.42 87.5 122.487C87.8968 122.553 88.2758 122.7 88.614 122.918C88.9612 123.132 89.2615 123.413 89.4969 123.746C89.7322 124.079 89.8978 124.456 89.9835 124.854L91.6743 132.201L100.974 130.07C101.376 129.973 101.794 129.958 102.202 130.026C102.61 130.094 103 130.244 103.349 130.467C103.702 130.67 104.009 130.944 104.25 131.271C104.492 131.599 104.663 131.973 104.752 132.37C104.931 133.187 104.782 134.042 104.338 134.751C103.894 135.461 103.19 135.968 102.377 136.165L81.0731 141.077L82.0031 145.389L103.231 140.494C103.633 140.396 104.051 140.381 104.459 140.45C104.867 140.518 105.258 140.668 105.606 140.891C105.965 141.09 106.277 141.362 106.523 141.69C106.77 142.018 106.944 142.394 107.035 142.793Z" fill="#FFD13A"/>
<g opacity="0.7">
<path d="M107.035 142.793L109.444 153.234C109.547 153.632 109.565 154.048 109.498 154.454C109.431 154.86 109.28 155.248 109.055 155.592C108.837 155.945 108.55 156.25 108.212 156.489C107.873 156.729 107.491 156.898 107.086 156.987L97.9048 159.109L99.5956 166.456C99.6951 166.853 99.7104 167.266 99.6405 167.669C99.5706 168.073 99.4171 168.457 99.1898 168.797C98.9714 169.144 98.6837 169.441 98.3447 169.671C98.0057 169.901 97.6228 170.058 97.22 170.133C96.8166 170.234 96.3971 170.253 95.9861 170.189C95.5752 170.125 95.1813 169.98 94.8276 169.761C94.4753 169.554 94.17 169.275 93.9313 168.943C93.6926 168.612 93.5257 168.234 93.4412 167.834L91.7504 160.403L82.6456 162.508C82.2532 162.602 81.8457 162.617 81.4476 162.55C81.0496 162.483 80.6691 162.336 80.3292 162.119C79.976 161.912 79.6696 161.633 79.4295 161.301C79.1894 160.97 79.0208 160.592 78.9343 160.191C78.8382 159.796 78.8231 159.386 78.8899 158.985C78.9567 158.584 79.1041 158.201 79.3232 157.858C79.5322 157.508 79.8113 157.205 80.143 156.968C80.4747 156.731 80.8518 156.565 81.2507 156.48L102.554 151.568L101.557 147.232L80.3123 152.126C79.919 152.227 79.5094 152.246 79.1084 152.184C78.7073 152.121 78.3231 151.978 77.979 151.763C77.6261 151.551 77.3213 151.268 77.0841 150.932C76.8468 150.595 76.6823 150.213 76.601 149.81L74.2001 139.412C74.0153 138.612 74.1556 137.772 74.5899 137.076C75.0243 136.381 75.7173 135.886 76.5165 135.7L85.5791 133.612L83.8883 126.257C83.7903 125.869 83.7712 125.464 83.8321 125.068C83.8931 124.671 84.033 124.291 84.2433 123.95C84.4663 123.58 84.7657 123.262 85.1214 123.017C85.4771 122.772 85.881 122.606 86.3061 122.529C86.697 122.434 87.1033 122.42 87.5 122.487C87.8968 122.553 88.2758 122.7 88.614 122.918C88.9612 123.132 89.2615 123.413 89.4969 123.746C89.7322 124.079 89.8978 124.456 89.9835 124.854L91.6743 132.201L100.974 130.07C101.376 129.973 101.794 129.958 102.202 130.026C102.61 130.094 103 130.244 103.349 130.467C103.702 130.67 104.009 130.944 104.25 131.271C104.492 131.599 104.663 131.973 104.752 132.37C104.931 133.187 104.782 134.042 104.338 134.751C103.894 135.461 103.19 135.968 102.377 136.165L81.0731 141.077L82.0031 145.389L103.231 140.494C103.633 140.396 104.051 140.381 104.459 140.45C104.867 140.518 105.258 140.668 105.606 140.891C105.965 141.09 106.277 141.362 106.523 141.69C106.77 142.018 106.944 142.394 107.035 142.793Z" fill="white"/>
</g>
<path d="M189.535 109.905C200.927 96.425 199.234 76.2628 185.754 64.8714C172.274 53.4799 152.112 55.173 140.72 68.6529C129.329 82.1329 131.022 102.295 144.502 113.687C157.982 125.078 178.144 123.385 189.535 109.905Z" fill="#FFD13A"/>
<path opacity="0.4" d="M189.535 109.905C200.927 96.425 199.234 76.2628 185.754 64.8714C172.274 53.4799 152.112 55.173 140.72 68.6529C129.329 82.1329 131.022 102.295 144.502 113.687C157.982 125.078 178.144 123.385 189.535 109.905Z" fill="#F19F24"/>
<path opacity="0.2" d="M185.811 106.352C195.253 94.9303 193.648 78.0168 182.226 68.5747C170.805 59.1325 153.891 60.7373 144.449 72.159C135.007 83.5807 136.612 100.494 148.033 109.936C159.455 119.379 176.369 117.774 185.811 106.352Z" fill="#F19F24"/>
<path d="M186.621 106.632C195.26 95.329 193.1 79.1629 181.797 70.5242C170.494 61.8855 154.328 64.0453 145.689 75.3484C137.05 86.6515 139.21 102.818 150.513 111.456C161.816 120.095 177.982 117.935 186.621 106.632Z" fill="#FFD13A"/>
<path opacity="0.4" d="M186.621 106.632C195.26 95.329 193.1 79.1629 181.797 70.5242C170.494 61.8855 154.328 64.0453 145.689 75.3484C137.05 86.6515 139.21 102.818 150.513 111.456C161.816 120.095 177.982 117.935 186.621 106.632Z" fill="#F19F24"/>
<path d="M175.688 91.9018L173.87 99.1552C173.804 99.431 173.682 99.69 173.51 99.9157C173.338 100.141 173.121 100.329 172.873 100.466C172.622 100.618 172.343 100.718 172.052 100.761C171.762 100.803 171.466 100.786 171.182 100.711L164.85 99.1129L163.565 104.185C163.5 104.462 163.377 104.723 163.206 104.95C163.034 105.177 162.816 105.366 162.568 105.504C162.328 105.653 162.06 105.751 161.781 105.794C161.502 105.836 161.217 105.821 160.944 105.749C160.663 105.683 160.398 105.562 160.164 105.392C159.931 105.222 159.733 105.007 159.583 104.76C159.431 104.519 159.329 104.249 159.286 103.966C159.242 103.684 159.257 103.396 159.33 103.12L160.623 97.9632L154.283 96.4161C154.008 96.3504 153.749 96.2296 153.523 96.061C153.296 95.8925 153.106 95.6797 152.964 95.4355C152.811 95.1959 152.71 94.9271 152.666 94.6463C152.622 94.3654 152.637 94.0786 152.71 93.8039C152.774 93.5259 152.893 93.2639 153.062 93.0342C153.231 92.8044 153.445 92.6117 153.691 92.4682C153.934 92.3198 154.205 92.2223 154.487 92.1817C154.769 92.141 155.056 92.1579 155.331 92.2315L170.125 95.9427L170.886 92.9332L156.134 89.2303C155.858 89.1685 155.597 89.0502 155.369 88.8829C155.141 88.7156 154.949 88.5029 154.807 88.2582C154.654 88.017 154.553 87.7462 154.513 87.4635C154.472 87.1808 154.491 86.8927 154.57 86.6181L156.379 79.39C156.447 79.1145 156.569 78.8553 156.738 78.6272C156.907 78.3992 157.12 78.2069 157.363 78.0614C157.607 77.916 157.877 77.8203 158.158 77.7799C158.439 77.7395 158.725 77.7552 159 77.8261L165.273 79.3985L166.558 74.3262C166.62 74.0398 166.741 73.7695 166.912 73.5322C167.084 73.2948 167.303 73.0956 167.556 72.9471C167.808 72.7986 168.089 72.704 168.38 72.6693C168.671 72.6345 168.966 72.6604 169.246 72.7453C169.519 72.8084 169.775 72.9274 169.999 73.0947C170.223 73.2621 170.41 73.4741 170.548 73.7175C170.698 73.9585 170.796 74.2275 170.839 74.508C170.881 74.7886 170.865 75.0747 170.793 75.3491L169.508 80.4214L175.933 82.0361C176.215 82.1034 176.48 82.2273 176.713 82.4002C176.945 82.5732 177.14 82.7915 177.286 83.0421C177.44 83.2796 177.543 83.5463 177.59 83.8255C177.636 84.1048 177.625 84.3906 177.556 84.6653C177.486 84.9469 177.36 85.2116 177.185 85.4439C177.011 85.6761 176.792 85.8713 176.542 86.0179C176.292 86.1732 176.013 86.2758 175.723 86.3195C175.432 86.3631 175.135 86.3468 174.851 86.2715L160.048 82.5602L159.304 85.5529L174.048 89.2473C174.33 89.3146 174.595 89.4385 174.828 89.6114C175.06 89.7843 175.255 90.0027 175.401 90.2533C175.563 90.4916 175.673 90.762 175.723 91.0464C175.773 91.3307 175.761 91.6224 175.688 91.9018Z" fill="#FFD13A"/>
<g opacity="0.7">
<path d="M175.688 91.9018L173.87 99.1552C173.804 99.431 173.682 99.69 173.51 99.9157C173.338 100.141 173.121 100.329 172.873 100.466C172.622 100.618 172.343 100.718 172.052 100.761C171.762 100.803 171.466 100.786 171.182 100.711L164.85 99.1129L163.565 104.185C163.5 104.462 163.377 104.723 163.206 104.95C163.034 105.177 162.816 105.366 162.568 105.504C162.328 105.653 162.06 105.751 161.781 105.794C161.502 105.836 161.217 105.821 160.944 105.749C160.663 105.683 160.398 105.562 160.164 105.392C159.931 105.222 159.733 105.007 159.583 104.76C159.431 104.519 159.329 104.249 159.286 103.966C159.242 103.684 159.257 103.396 159.33 103.12L160.623 97.9632L154.283 96.4161C154.008 96.3504 153.749 96.2296 153.523 96.061C153.296 95.8925 153.106 95.6797 152.964 95.4355C152.811 95.1959 152.71 94.9271 152.666 94.6463C152.622 94.3654 152.637 94.0786 152.71 93.8039C152.774 93.5259 152.893 93.2639 153.062 93.0342C153.231 92.8044 153.445 92.6117 153.691 92.4682C153.934 92.3198 154.205 92.2223 154.487 92.1817C154.769 92.141 155.056 92.1579 155.331 92.2315L170.125 95.9427L170.886 92.9332L156.134 89.2303C155.858 89.1685 155.597 89.0502 155.369 88.8829C155.141 88.7156 154.949 88.5029 154.807 88.2582C154.654 88.017 154.553 87.7462 154.513 87.4635C154.472 87.1808 154.491 86.8927 154.57 86.6181L156.379 79.39C156.447 79.1145 156.569 78.8553 156.738 78.6272C156.907 78.3992 157.12 78.2069 157.363 78.0614C157.607 77.916 157.877 77.8203 158.158 77.7799C158.439 77.7395 158.725 77.7552 159 77.8261L165.273 79.3985L166.558 74.3262C166.62 74.0398 166.741 73.7695 166.912 73.5322C167.084 73.2948 167.303 73.0956 167.556 72.9471C167.808 72.7986 168.089 72.704 168.38 72.6693C168.671 72.6345 168.966 72.6604 169.246 72.7453C169.519 72.8084 169.775 72.9274 169.999 73.0947C170.223 73.2621 170.41 73.4741 170.548 73.7175C170.698 73.9585 170.796 74.2275 170.839 74.508C170.881 74.7886 170.865 75.0747 170.793 75.3491L169.508 80.4214L175.933 82.0361C176.215 82.1034 176.48 82.2273 176.713 82.4002C176.945 82.5732 177.14 82.7915 177.286 83.0421C177.44 83.2796 177.543 83.5463 177.59 83.8255C177.636 84.1048 177.625 84.3906 177.556 84.6653C177.486 84.9469 177.36 85.2116 177.185 85.4439C177.011 85.6761 176.792 85.8713 176.542 86.0179C176.292 86.1732 176.013 86.2758 175.723 86.3195C175.432 86.3631 175.135 86.3468 174.851 86.2715L160.048 82.5602L159.304 85.5529L174.048 89.2473C174.33 89.3146 174.595 89.4385 174.828 89.6114C175.06 89.7843 175.255 90.0027 175.401 90.2533C175.563 90.4916 175.673 90.762 175.723 91.0464C175.773 91.3307 175.761 91.6224 175.688 91.9018Z" fill="white"/>
</g>
<path d="M111.105 74.8439C115.91 61.2182 108.76 46.2773 95.134 41.4724C81.5083 36.6675 66.5674 43.8182 61.7625 57.4438C56.9576 71.0695 64.1083 86.0104 77.7339 90.8153C91.3596 95.6201 106.3 88.4695 111.105 74.8439Z" fill="#FFD13A"/>
<path opacity="0.4" d="M111.105 74.8439C115.91 61.2182 108.76 46.2773 95.134 41.4724C81.5083 36.6675 66.5674 43.8182 61.7625 57.4438C56.9576 71.0695 64.1083 86.0104 77.7339 90.8153C91.3596 95.6201 106.3 88.4695 111.105 74.8439Z" fill="#F19F24"/>
<path opacity="0.2" d="M107.225 73.2072C111.135 61.723 104.996 49.243 93.5115 45.3325C82.0273 41.4219 69.5474 47.5616 65.6368 59.0458C61.7263 70.53 67.8659 83.01 79.3502 86.9205C90.8344 90.8311 103.314 84.6914 107.225 73.2072Z" fill="#F19F24"/>
<path d="M107.925 73.186C111.255 62.0259 104.907 50.2793 93.7472 46.9493C82.5871 43.6192 70.8406 49.9667 67.5105 61.1268C64.1805 72.2869 70.528 84.0335 81.6881 87.3636C92.8482 90.6936 104.595 84.3461 107.925 73.186Z" fill="#FFD13A"/>
<path opacity="0.4" d="M107.925 73.186C111.255 62.0259 104.907 50.2793 93.7472 46.9493C82.5871 43.6192 70.8406 49.9667 67.5105 61.1268C64.1805 72.2869 70.528 84.0335 81.6881 87.3636C92.8482 90.6936 104.595 84.3461 107.925 73.186Z" fill="#F19F24"/>
<path d="M95.278 65.0851L95.9931 71.1648C96.0227 71.395 96.0039 71.6289 95.938 71.8515C95.872 72.0741 95.7603 72.2804 95.61 72.4574C95.4623 72.647 95.2779 72.8048 95.0678 72.9214C94.8576 73.038 94.6261 73.111 94.3871 73.136L89.0765 73.7517L89.5659 78.0073C89.5963 78.2384 89.5782 78.4733 89.5127 78.697C89.4471 78.9207 89.3356 79.1283 89.1853 79.3064C89.045 79.49 88.8688 79.6431 88.6674 79.7564C88.4661 79.8696 88.2438 79.9408 88.0141 79.9654C87.7796 79.9965 87.5413 79.9805 87.3131 79.9183C87.0849 79.8562 86.8714 79.7492 86.6851 79.6035C86.4982 79.4632 86.3422 79.2858 86.2269 79.0825C86.1116 78.8792 86.0393 78.6543 86.0147 78.4219L85.5073 74.0991L80.205 74.7561C79.9756 74.7856 79.7426 74.7682 79.5202 74.705C79.2977 74.6418 79.0904 74.5341 78.9108 74.3885C78.7242 74.2494 78.5685 74.0732 78.4535 73.8709C78.3386 73.6686 78.2668 73.4447 78.2429 73.2133C78.2105 72.9821 78.226 72.7469 78.2884 72.522C78.3508 72.2971 78.4588 72.0875 78.6056 71.9061C78.7486 71.722 78.9275 71.5687 79.1315 71.4557C79.3354 71.3427 79.5602 71.2723 79.7922 71.2487L92.1937 69.7934L91.9021 67.2688L79.5354 68.7184C79.306 68.7513 79.0723 68.7364 78.8489 68.6746C78.6255 68.6129 78.4172 68.5057 78.2372 68.3596C78.05 68.2196 77.8946 68.0414 77.7813 67.8368C77.668 67.6323 77.5993 67.4061 77.5798 67.173L76.8657 61.1152C76.8378 60.8846 76.8559 60.6507 76.919 60.4271C76.9821 60.2035 77.0888 59.9946 77.2331 59.8125C77.3774 59.6304 77.5564 59.4788 77.7597 59.3663C77.963 59.2538 78.1865 59.1827 78.4174 59.1571L83.6753 58.5392L83.186 54.2836C83.1504 54.0464 83.1643 53.8044 83.2269 53.5729C83.2895 53.3413 83.3993 53.1253 83.5495 52.9383C83.6996 52.7512 83.8869 52.5974 84.0995 52.4863C84.3121 52.3752 84.5454 52.3094 84.7846 52.2929C85.0115 52.2621 85.2423 52.2787 85.4625 52.3418C85.6826 52.4048 85.8872 52.5128 86.0634 52.659C86.2479 52.8001 86.4017 52.9773 86.5154 53.1798C86.6291 53.3822 86.7004 53.6058 86.7249 53.8367L87.2142 58.0923L92.6009 57.4625C92.8362 57.4322 93.0751 57.45 93.3033 57.5148C93.5315 57.5797 93.7442 57.6902 93.9283 57.8397C94.1152 57.9768 94.2719 58.1509 94.3886 58.3511C94.5053 58.5513 94.5796 58.7734 94.6067 59.0036C94.6345 59.2396 94.6149 59.4789 94.549 59.7072C94.4831 59.9356 94.3723 60.1485 94.223 60.3335C94.077 60.5249 93.8935 60.6844 93.6836 60.8022C93.4737 60.92 93.2419 60.9936 93.0025 61.0186L80.5945 62.4763L80.8941 64.983L93.2519 63.5295C93.4872 63.4992 93.7261 63.517 93.9543 63.5818C94.1825 63.6467 94.3952 63.7572 94.5793 63.9067C94.7732 64.0418 94.9359 64.2169 95.0564 64.4202C95.1769 64.6234 95.2525 64.8501 95.278 65.0851Z" fill="#FFD13A"/>
<g opacity="0.7">
<path d="M95.279 65.0851L95.994 71.1648C96.0237 71.395 96.0049 71.6289 95.939 71.8515C95.873 72.0741 95.7613 72.2804 95.611 72.4574C95.4633 72.647 95.2789 72.8048 95.0687 72.9214C94.8586 73.038 94.6271 73.111 94.388 73.136L89.0775 73.7517L89.5668 78.0073C89.5973 78.2384 89.5792 78.4733 89.5136 78.697C89.4481 78.9207 89.3366 79.1283 89.1862 79.3064C89.046 79.49 88.8698 79.6431 88.6684 79.7564C88.4671 79.8696 88.2448 79.9408 88.0151 79.9654C87.7806 79.9965 87.5423 79.9805 87.3141 79.9183C87.0859 79.8562 86.8724 79.7492 86.686 79.6035C86.4992 79.4632 86.3432 79.2858 86.2279 79.0825C86.1126 78.8792 86.0403 78.6543 86.0157 78.4219L85.5082 74.0991L80.2059 74.7561C79.9766 74.7856 79.7436 74.7682 79.5212 74.705C79.2987 74.6418 79.0914 74.5341 78.9118 74.3885C78.7252 74.2494 78.5695 74.0732 78.4545 73.8709C78.3396 73.6686 78.2678 73.4447 78.2438 73.2133C78.2115 72.9821 78.227 72.7469 78.2894 72.522C78.3518 72.2971 78.4598 72.0875 78.6066 71.9061C78.7496 71.722 78.9285 71.5687 79.1325 71.4557C79.3364 71.3427 79.5612 71.2723 79.7932 71.2487L92.1947 69.7934L91.9031 67.2688L79.5364 68.7184C79.307 68.7513 79.0732 68.7364 78.8498 68.6746C78.6264 68.6129 78.4182 68.5057 78.2382 68.3596C78.051 68.2196 77.8956 68.0414 77.7823 67.8368C77.6689 67.6323 77.6003 67.4061 77.5808 67.173L76.8666 61.1152C76.8388 60.8846 76.8569 60.6507 76.92 60.4271C76.983 60.2035 77.0898 59.9946 77.2341 59.8125C77.3784 59.6304 77.5574 59.4788 77.7607 59.3663C77.9639 59.2538 78.1875 59.1827 78.4184 59.1571L83.6763 58.5392L83.187 54.2836C83.1514 54.0464 83.1653 53.8044 83.2279 53.5729C83.2904 53.3413 83.4003 53.1253 83.5504 52.9383C83.7006 52.7512 83.8879 52.5974 84.1005 52.4863C84.3131 52.3752 84.5463 52.3094 84.7856 52.2929C85.0125 52.2621 85.2433 52.2787 85.4634 52.3418C85.6836 52.4048 85.8882 52.5128 86.0644 52.659C86.2489 52.8001 86.4027 52.9773 86.5164 53.1798C86.6301 53.3822 86.7014 53.6058 86.7258 53.8367L87.2152 58.0923L92.6019 57.4625C92.8371 57.4322 93.0761 57.45 93.3043 57.5148C93.5325 57.5797 93.7451 57.6902 93.9293 57.8397C94.1162 57.9768 94.2729 58.1509 94.3896 58.3511C94.5063 58.5513 94.5805 58.7734 94.6077 59.0036C94.6355 59.2396 94.6158 59.4789 94.5499 59.7072C94.484 59.9356 94.3732 60.1485 94.224 60.3335C94.078 60.5249 93.8944 60.6844 93.6845 60.8022C93.4746 60.92 93.2429 60.9936 93.0035 61.0186L80.5955 62.4763L80.8951 64.983L93.2529 63.5295C93.4881 63.4992 93.7271 63.517 93.9553 63.5818C94.1835 63.6467 94.3961 63.7572 94.5803 63.9067C94.7742 64.0418 94.9368 64.2169 95.0574 64.4202C95.1779 64.6234 95.2535 64.8501 95.279 65.0851Z" fill="white"/>
</g>
<path d="M87.2946 282.377H86.4492V291.921H87.2946V282.377Z" fill="#D2A6FF"/>
<path opacity="0.1" d="M87.2946 282.377H86.4492V291.921H87.2946V282.377Z" fill="#AC6DEC"/>
<path d="M336.244 206.758H335.399V219.836H336.244V206.758Z" fill="#D2A6FF"/>
<path d="M336.244 226.699H335.399V233.792H336.244V226.699Z" fill="#D2A6FF"/>
<path opacity="0.1" d="M336.244 206.758H335.399V219.836H336.244V206.758Z" fill="#AC6DEC"/>
<path opacity="0.1" d="M336.244 226.699H335.399V233.792H336.244V226.699Z" fill="#AC6DEC"/>
<path d="M320.571 150.049H102.131C95.1045 150.049 89.4082 155.745 89.4082 162.772V290.637C89.4082 297.664 95.1045 303.36 102.131 303.36H320.571C327.598 303.36 333.294 297.664 333.294 290.637V162.772C333.294 155.745 327.598 150.049 320.571 150.049Z" fill="#D2A6FF"/>
<path opacity="0.2" d="M320.571 150.049H102.131C95.1045 150.049 89.4082 155.745 89.4082 162.772V290.637C89.4082 297.664 95.1045 303.36 102.131 303.36H320.571C327.598 303.36 333.294 297.664 333.294 290.637V162.772C333.294 155.745 327.598 150.049 320.571 150.049Z" fill="url(#paint0_linear_1362_1117)"/>
<path d="M293.814 203.436C298 203.436 302.015 201.773 304.975 198.813C307.935 195.853 309.598 191.839 309.598 187.653C309.598 183.467 307.935 179.452 304.975 176.492C302.015 173.532 298 171.869 293.814 171.869H273.441C269.255 171.869 265.24 173.532 262.28 176.492C259.32 179.452 257.657 183.467 257.657 187.653C257.657 191.839 259.32 195.853 262.28 198.813C265.24 201.773 269.255 203.436 273.441 203.436H293.814Z" fill="#DFC1FF"/>
<path d="M156.177 203.426H118.583C115.557 203.426 113.104 205.878 113.104 208.904V233.479C113.104 236.505 115.557 238.957 118.583 238.957H156.177C159.202 238.957 161.655 236.505 161.655 233.479V208.904C161.655 205.878 159.202 203.426 156.177 203.426Z" fill="#D2A6FF"/>
<path opacity="0.3" d="M156.177 203.426H118.583C115.557 203.426 113.104 205.878 113.104 208.904V233.479C113.104 236.505 115.557 238.957 118.583 238.957H156.177C159.202 238.957 161.655 236.505 161.655 233.479V208.904C161.655 205.878 159.202 203.426 156.177 203.426Z" fill="white"/>
<path d="M182.19 167.988H116.985C114.842 167.988 113.104 169.724 113.104 171.864C113.104 174.005 114.842 175.74 116.985 175.74H182.19C184.333 175.74 186.07 174.005 186.07 171.864C186.07 169.724 184.333 167.988 182.19 167.988Z" fill="#D2A6FF"/>
<path opacity="0.3" d="M182.19 167.988H116.985C114.842 167.988 113.104 169.724 113.104 171.864C113.104 174.005 114.842 175.74 116.985 175.74H182.19C184.333 175.74 186.07 174.005 186.07 171.864C186.07 169.724 184.333 167.988 182.19 167.988Z" fill="white"/>
<path d="M148.12 256.594H118.794C115.652 256.594 113.104 259.141 113.104 262.283V267.601C113.104 270.743 115.652 273.29 118.794 273.29H148.12C151.263 273.29 153.81 270.743 153.81 267.601V262.283C153.81 259.141 151.263 256.594 148.12 256.594Z" fill="#D2A6FF"/>
<path opacity="0.3" d="M148.12 256.594H118.794C115.652 256.594 113.104 259.141 113.104 262.283V267.601C113.104 270.743 115.652 273.29 118.794 273.29H148.12C151.263 273.29 153.81 270.743 153.81 267.601V262.283C153.81 259.141 151.263 256.594 148.12 256.594Z" fill="white"/>
<path d="M200.044 256.594H170.717C167.575 256.594 165.028 259.141 165.028 262.283V267.601C165.028 270.743 167.575 273.29 170.717 273.29H200.044C203.186 273.29 205.733 270.743 205.733 267.601V262.283C205.733 259.141 203.186 256.594 200.044 256.594Z" fill="#D2A6FF"/>
<path opacity="0.3" d="M200.044 256.594H170.717C167.575 256.594 165.028 259.141 165.028 262.283V267.601C165.028 270.743 167.575 273.29 170.717 273.29H200.044C203.186 273.29 205.733 270.743 205.733 267.601V262.283C205.733 259.141 203.186 256.594 200.044 256.594Z" fill="white"/>
<path d="M251.976 256.594H222.65C219.508 256.594 216.96 259.141 216.96 262.283V267.601C216.96 270.743 219.508 273.29 222.65 273.29H251.976C255.119 273.29 257.666 270.743 257.666 267.601V262.283C257.666 259.141 255.119 256.594 251.976 256.594Z" fill="#D2A6FF"/>
<path opacity="0.3" d="M251.976 256.594H222.65C219.508 256.594 216.96 259.141 216.96 262.283V267.601C216.96 270.743 219.508 273.29 222.65 273.29H251.976C255.119 273.29 257.666 270.743 257.666 267.601V262.283C257.666 259.141 255.119 256.594 251.976 256.594Z" fill="white"/>
<path d="M303.9 256.594H274.573C271.431 256.594 268.884 259.141 268.884 262.283V267.601C268.884 270.743 271.431 273.29 274.573 273.29H303.9C307.042 273.29 309.589 270.743 309.589 267.601V262.283C309.589 259.141 307.042 256.594 303.9 256.594Z" fill="#D2A6FF"/>
<path opacity="0.3" d="M303.9 256.594H274.573C271.431 256.594 268.884 259.141 268.884 262.283V267.601C268.884 270.743 271.431 273.29 274.573 273.29H303.9C307.042 273.29 309.589 270.743 309.589 267.601V262.283C309.589 259.141 307.042 256.594 303.9 256.594Z" fill="white"/>
<path d="M411.459 139.278L403.098 134.442C400.004 132.608 395.405 132.963 390.273 135.922C383.164 140.03 377.085 149.989 374.6 158.341L368.682 154.96C365.63 152.914 361.446 152.601 356.847 155.273C356.263 155.602 355.697 155.957 355.156 156.338C354.86 156.541 354.564 156.769 354.311 156.98C354.057 157.192 353.795 157.344 353.541 157.538C353.144 157.851 352.764 158.172 352.383 158.502L351.952 158.866C351.504 159.263 351.064 159.711 350.633 160.1L350.43 160.286C349.948 160.768 349.483 161.258 349.027 161.765C349.027 161.765 349.027 161.765 348.985 161.765C347.572 163.333 346.289 165.013 345.147 166.787C341.883 171.724 339.939 177.101 339.939 181.869C339.939 190.703 345.392 196.342 352.096 199.943L358.69 203.747C362.605 206.081 366.844 207.825 371.269 208.921L382.141 211.795L393.012 196.359C403.368 181.649 415.711 161.317 415.711 147.994C415.711 143.708 414.096 140.732 411.459 139.278Z" fill="#BA68C8"/>
<path opacity="0.7" d="M411.459 139.278L403.098 134.442C400.004 132.608 395.405 132.963 390.273 135.922C383.164 140.03 377.085 149.989 374.6 158.341L368.682 154.96C365.63 152.914 361.446 152.601 356.847 155.273C356.263 155.602 355.697 155.957 355.156 156.338C354.86 156.541 354.564 156.769 354.311 156.98C354.057 157.192 353.795 157.344 353.541 157.538C353.144 157.851 352.764 158.172 352.383 158.502L351.952 158.866C351.504 159.263 351.064 159.711 350.633 160.1L350.43 160.286C349.948 160.768 349.483 161.258 349.027 161.765C349.027 161.765 349.027 161.765 348.985 161.765C347.572 163.333 346.289 165.013 345.147 166.787C341.883 171.724 339.939 177.101 339.939 181.869C339.939 190.703 345.392 196.342 352.096 199.943L358.69 203.747C362.605 206.081 366.844 207.825 371.269 208.921L382.141 211.795L393.012 196.359C403.368 181.649 415.711 161.317 415.711 147.994C415.711 143.708 414.096 140.732 411.459 139.278Z" fill="#BA68C8"/>
<path d="M358.588 203.664L352.087 199.928C345.4 196.318 339.931 190.688 339.931 181.845C339.931 177.111 341.9 171.7 345.062 166.797L353.634 171.725C350.473 176.612 348.511 182.039 348.511 186.773C348.511 194.695 352.874 200.046 358.588 203.664Z" fill="#BA68C8"/>
<g opacity="0.1">
<path d="M358.588 203.664L352.087 199.928C345.4 196.318 339.931 190.688 339.931 181.845C339.931 177.111 341.9 171.7 345.062 166.797L353.634 171.725C350.473 176.612 348.511 182.039 348.511 186.773C348.511 194.695 352.874 200.046 358.588 203.664Z" fill="black"/>
</g>
<path d="M411.417 139.228C408.331 137.537 403.808 137.985 398.837 140.868C390.265 145.814 383.181 159.281 382.107 168.183C381.033 160.523 373.957 155.231 365.385 160.185C360.629 163.072 356.606 167.022 353.634 171.725L345.062 166.779C345.189 166.576 345.324 166.374 345.468 166.162C345.578 165.987 345.696 165.818 345.823 165.655C346.11 165.232 346.415 164.81 346.668 164.404C347.538 163.258 348.469 162.16 349.458 161.115C349.695 160.845 349.948 160.591 350.202 160.337L350.743 159.805C352.561 158.042 354.581 156.501 356.762 155.214C358.729 154.014 360.977 153.352 363.28 153.295C365.182 153.29 367.042 153.852 368.623 154.91L374.541 158.292C377.018 149.931 383.096 139.981 390.214 135.88C395.354 132.913 399.945 132.55 403.039 134.384L411.417 139.228Z" fill="#BA68C8"/>
<path opacity="0.4" d="M411.417 139.228C408.331 137.537 403.808 137.985 398.837 140.868C390.265 145.814 383.181 159.281 382.107 168.183C381.033 160.523 373.957 155.231 365.385 160.185C360.629 163.072 356.606 167.022 353.634 171.725L345.062 166.779C345.189 166.576 345.324 166.374 345.468 166.162C345.578 165.987 345.696 165.818 345.823 165.655C346.11 165.232 346.415 164.81 346.668 164.404C347.538 163.258 348.469 162.16 349.458 161.115C349.695 160.845 349.948 160.591 350.202 160.337L350.743 159.805C352.561 158.042 354.581 156.501 356.762 155.214C358.729 154.014 360.977 153.352 363.28 153.295C365.182 153.29 367.042 153.852 368.623 154.91L374.541 158.292C377.018 149.931 383.096 139.981 390.214 135.88C395.354 132.913 399.945 132.55 403.039 134.384L411.417 139.228Z" fill="white"/>
<path d="M343.828 211.661L340.573 209.767C339.365 209.057 337.572 209.192 335.569 210.35C332.804 211.948 330.429 215.828 329.465 219.083L327.149 217.756C326.451 217.326 325.643 217.108 324.823 217.129C324.004 217.15 323.208 217.409 322.533 217.874C322.305 218.01 322.085 218.145 321.865 218.297C321.645 218.449 321.637 218.458 321.527 218.542L321.223 218.762L320.774 219.134L320.605 219.278C320.428 219.43 320.259 219.59 320.09 219.76L320.014 219.836C319.828 220.022 319.642 220.208 319.464 220.41C318.916 221.022 318.415 221.675 317.968 222.363C316.774 224.097 316.083 226.128 315.973 228.23C315.973 231.671 318.095 233.869 320.707 235.272L323.285 236.819C324.808 237.731 326.458 238.411 328.18 238.84L332.407 239.964L336.634 233.945C340.666 228.213 345.477 220.292 345.477 215.101C345.552 214.431 345.437 213.753 345.146 213.145C344.854 212.537 344.398 212.022 343.828 211.661Z" fill="#BA68C8"/>
<path opacity="0.5" d="M343.828 211.661L340.573 209.767C339.365 209.057 337.572 209.192 335.569 210.35C332.804 211.948 330.429 215.828 329.465 219.083L327.149 217.756C326.451 217.326 325.643 217.108 324.823 217.129C324.004 217.15 323.208 217.409 322.533 217.874C322.305 218.01 322.085 218.145 321.865 218.297C321.645 218.449 321.637 218.458 321.527 218.542L321.223 218.762L320.774 219.134L320.605 219.278C320.428 219.43 320.259 219.59 320.09 219.76L320.014 219.836C319.828 220.022 319.642 220.208 319.464 220.41C318.916 221.022 318.415 221.675 317.968 222.363C316.774 224.097 316.083 226.128 315.973 228.23C315.973 231.671 318.095 233.869 320.707 235.272L323.285 236.819C324.808 237.731 326.458 238.411 328.18 238.84L332.407 239.964L336.634 233.945C340.666 228.213 345.477 220.292 345.477 215.101C345.552 214.431 345.437 213.753 345.146 213.145C344.854 212.537 344.398 212.022 343.828 211.661Z" fill="black"/>
<path d="M323.226 236.752L320.69 235.29C318.086 233.887 315.956 231.697 315.956 228.248C316.062 226.145 316.753 224.113 317.951 222.381L321.29 224.308C320.096 226.042 319.405 228.073 319.295 230.175C319.295 233.253 320.994 235.341 323.226 236.752Z" fill="#BA68C8"/>
<g opacity="0.7">
<path d="M323.226 236.752L320.69 235.29C318.086 233.887 315.956 231.697 315.956 228.248C316.062 226.145 316.753 224.113 317.951 222.381L321.29 224.308C320.096 226.042 319.405 228.073 319.295 230.175C319.295 233.253 320.994 235.341 323.226 236.752Z" fill="black"/>
</g>
<path d="M343.811 211.635C342.611 210.993 340.852 211.153 338.908 212.278C335.526 214.205 332.813 219.455 332.39 222.921C331.976 219.937 329.211 217.849 325.872 219.81C324.015 220.932 322.446 222.472 321.29 224.307L317.951 222.38C318.001 222.304 318.052 222.219 318.111 222.143C318.151 222.075 318.197 222.01 318.247 221.949C318.356 221.78 318.475 221.619 318.593 221.458C318.931 221.009 319.295 220.58 319.684 220.174L319.971 219.869L320.182 219.666C320.891 218.977 321.68 218.375 322.533 217.874C323.297 217.406 324.173 217.15 325.069 217.13C325.809 217.126 326.533 217.344 327.149 217.756L329.465 219.083C330.429 215.828 332.796 211.948 335.569 210.35C337.572 209.192 339.364 209.048 340.565 209.767L343.811 211.635Z" fill="#BA68C8"/>
<path opacity="0.2" d="M343.811 211.635C342.611 210.993 340.852 211.153 338.908 212.278C335.526 214.205 332.813 219.455 332.39 222.921C331.976 219.937 329.211 217.849 325.872 219.81C324.015 220.932 322.446 222.472 321.29 224.307L317.951 222.38C318.001 222.304 318.052 222.219 318.111 222.143C318.151 222.075 318.197 222.01 318.247 221.949C318.356 221.78 318.475 221.619 318.593 221.458C318.931 221.009 319.295 220.58 319.684 220.174L319.971 219.869L320.182 219.666C320.891 218.977 321.68 218.375 322.533 217.874C323.297 217.406 324.173 217.15 325.069 217.13C325.809 217.126 326.533 217.344 327.149 217.756L329.465 219.083C330.429 215.828 332.796 211.948 335.569 210.35C337.572 209.192 339.364 209.048 340.565 209.767L343.811 211.635Z" fill="black"/>
<path d="M354.327 61.8251C355.298 60.9937 356.092 59.9756 356.662 58.8311C357.231 57.6866 357.564 56.4393 357.641 55.1634C357.641 51.5198 354.928 52.3313 354.928 52.3313C356.263 50.6599 357.025 48.6026 357.1 46.4644C357.14 45.897 357.032 45.329 356.786 44.8162C356.54 44.3034 356.164 43.8634 355.697 43.5393L348.807 39.659C348.156 39.2109 347.218 39.1602 345.958 39.8872L339.93 43.3871C339.714 41.7676 339.258 40.1892 338.578 38.7037C338.324 38.0755 337.853 37.5594 337.251 37.2496L330.42 33.4031C328.12 31.8983 324.13 34.7726 324.13 35.8801C324.13 36.6494 324.316 39.2617 324.375 41.7217C324.375 42.2712 324.375 42.8207 324.375 43.3364C324.405 44.3684 324.32 45.4004 324.122 46.4136C324.063 46.6081 323.961 46.904 323.817 47.259C323.758 47.4196 323.682 47.6056 323.606 47.7916L323.276 48.637C322.989 49.3387 322.659 50.1587 322.287 51.0379C322.203 51.2493 322.11 51.4775 322.008 51.7058C320.968 54.1827 319.743 57.0317 318.813 59.179L318.339 60.278L317.401 62.4253V91.8786L317.502 91.8279L324.519 95.8773L346.998 82.8752C349.94 81.1844 352.003 77.5155 351.986 75.0723C352.019 73.965 351.823 72.8627 351.411 71.8344C353.313 70.727 355.224 66.7621 355.224 65.0713C355.224 62.5098 354.327 61.8251 354.327 61.8251Z" fill="#BA68C8"/>
<g opacity="0.4">
<path d="M337.259 37.2494C334.934 36.1081 331.24 38.7795 331.24 39.887L324.13 35.8883C324.13 34.747 328.129 31.8896 330.437 33.4029L337.259 37.2494Z" fill="white"/>
<path d="M355.705 43.5312C355.273 43.3564 354.802 43.2972 354.34 43.3594C353.877 43.4217 353.439 43.6033 353.068 43.8863L339.482 51.7399C340.111 48.9966 340.265 46.166 339.939 43.3706L345.975 39.8791C347.226 39.1436 348.165 39.2113 348.816 39.6509L355.705 43.5312Z" fill="white"/>
</g>
<g opacity="0.1">
<path d="M324.519 95.8778L317.41 91.7692L317.384 62.4258L324.494 66.5344L324.519 95.8778Z" fill="black"/>
</g>
<g opacity="0.05">
<path d="M331.24 50.404C330.665 52.4583 324.477 66.534 324.477 66.534L317.367 62.5268C317.367 62.5268 323.522 48.4511 324.13 46.4137C324.739 44.3764 324.13 37.2497 324.13 35.8887L331.248 39.8874C331.24 41.2569 331.832 48.375 331.24 50.404Z" fill="black"/>
</g>
<path d="M321.265 69.0437C321.24 68.593 321.109 68.1545 320.882 67.7638C320.656 67.3732 320.341 67.0412 319.963 66.795L315.448 64.1912C315.047 63.9909 314.604 63.8867 314.155 63.8867C313.706 63.8867 313.263 63.9909 312.862 64.1912L305.659 68.359C305.275 68.5969 304.958 68.9285 304.737 69.3227C304.507 69.7135 304.377 70.1547 304.357 70.6077V101.769C304.379 102.22 304.508 102.66 304.735 103.051C304.961 103.442 305.278 103.774 305.659 104.017L310.173 106.63C310.571 106.842 311.016 106.947 311.467 106.934C311.916 106.945 312.361 106.844 312.76 106.638L319.988 102.462C320.365 102.217 320.679 101.886 320.904 101.497C321.129 101.108 321.258 100.671 321.282 100.222L321.265 69.0437Z" fill="#BA68C8"/>
<g opacity="0.1">
<path d="M311.45 73.213V106.936C310.999 106.948 310.553 106.844 310.156 106.631L305.642 104.019C305.261 103.775 304.944 103.444 304.718 103.053C304.491 102.661 304.362 102.222 304.34 101.77V70.6092C304.36 70.1562 304.49 69.715 304.72 69.3242L311.45 73.213Z" fill="black"/>
</g>
<g opacity="0.3">
<path d="M320.884 67.7418L311.45 73.2115L304.687 69.3227C304.907 68.9285 305.224 68.5969 305.608 68.359L312.811 64.1912C313.212 63.9909 313.655 63.8867 314.104 63.8867C314.553 63.8867 314.996 63.9909 315.398 64.1912L319.912 66.795C320.31 67.0246 320.644 67.3501 320.884 67.7418Z" fill="white"/>
</g>
<path d="M368.733 121.585C369.324 121.076 369.807 120.455 370.153 119.756C370.498 119.057 370.7 118.296 370.745 117.518C370.745 115.303 369.097 115.827 369.097 115.827C369.912 114.809 370.378 113.555 370.424 112.251C370.45 111.906 370.386 111.56 370.237 111.248C370.089 110.935 369.862 110.666 369.579 110.468L365.352 108.101C365.086 107.958 364.785 107.896 364.485 107.922C364.185 107.947 363.899 108.059 363.661 108.244L359.983 110.375C359.844 109.386 359.559 108.423 359.138 107.517C358.969 107.142 358.668 106.841 358.293 106.672L354.116 104.322C352.713 103.409 350.278 105.167 350.278 105.843C350.278 106.308 350.388 107.889 350.431 109.403C350.431 109.741 350.431 110.07 350.431 110.392C350.452 111.018 350.401 111.645 350.278 112.26C350.278 112.378 350.177 112.556 350.092 112.793C350.092 112.894 350.008 113.004 349.966 113.122L349.763 113.629C349.594 114.061 349.382 114.559 349.162 115.092L348.993 115.498C348.359 117.011 347.607 118.744 347.041 120.054C346.939 120.3 346.846 120.519 346.753 120.722C346.457 121.415 346.246 121.897 346.178 122.041V140.006H346.237L350.515 142.474L364.227 134.544C365.068 134.041 365.781 133.349 366.309 132.523C366.837 131.697 367.166 130.76 367.271 129.785C367.292 129.111 367.171 128.439 366.916 127.815C368.082 127.139 369.24 124.712 369.24 123.673C369.274 121.999 368.733 121.585 368.733 121.585Z" fill="#BA68C8"/>
<path opacity="0.5" d="M368.733 121.585C369.324 121.076 369.807 120.455 370.153 119.756C370.498 119.057 370.7 118.296 370.745 117.518C370.745 115.303 369.097 115.827 369.097 115.827C369.912 114.809 370.378 113.555 370.424 112.251C370.45 111.906 370.386 111.56 370.237 111.248C370.089 110.935 369.862 110.666 369.579 110.468L365.352 108.101C365.086 107.958 364.785 107.896 364.485 107.922C364.185 107.947 363.899 108.059 363.661 108.244L359.983 110.375C359.844 109.386 359.559 108.423 359.138 107.517C358.969 107.142 358.668 106.841 358.293 106.672L354.116 104.322C352.713 103.409 350.278 105.167 350.278 105.843C350.278 106.308 350.388 107.889 350.431 109.403C350.431 109.741 350.431 110.07 350.431 110.392C350.452 111.018 350.401 111.645 350.278 112.26C350.278 112.378 350.177 112.556 350.092 112.793C350.092 112.894 350.008 113.004 349.966 113.122L349.763 113.629C349.594 114.061 349.382 114.559 349.162 115.092L348.993 115.498C348.359 117.011 347.607 118.744 347.041 120.054C346.939 120.3 346.846 120.519 346.753 120.722C346.457 121.415 346.246 121.897 346.178 122.041V140.006H346.237L350.515 142.474L364.227 134.544C365.068 134.041 365.781 133.349 366.309 132.523C366.837 131.697 367.166 130.76 367.271 129.785C367.292 129.111 367.171 128.439 366.916 127.815C368.082 127.139 369.24 124.712 369.24 123.673C369.274 121.999 368.733 121.585 368.733 121.585Z" fill="black"/>
<path d="M358.326 106.629C356.906 105.936 354.649 107.559 354.649 108.236L350.337 105.784C350.337 105.091 352.772 103.349 354.184 104.271L358.326 106.629Z" fill="#BA68C8"/>
<path d="M369.57 110.425C369.307 110.318 369.021 110.282 368.739 110.319C368.458 110.356 368.191 110.465 367.964 110.636L359.679 115.43C360.058 113.767 360.153 112.052 359.958 110.357L363.636 108.219C363.875 108.037 364.162 107.927 364.461 107.903C364.761 107.879 365.061 107.942 365.326 108.083L369.57 110.425Z" fill="#BA68C8"/>
<g opacity="0.2">
<path d="M358.326 106.629C356.906 105.936 354.649 107.559 354.649 108.236L350.337 105.784C350.337 105.091 352.772 103.349 354.184 104.271L358.326 106.629Z" fill="black"/>
<path d="M369.57 110.425C369.307 110.318 369.02 110.282 368.739 110.319C368.457 110.356 368.19 110.465 367.964 110.636L359.679 115.43C360.058 113.767 360.152 112.052 359.958 110.357L363.635 108.219C363.875 108.037 364.161 107.927 364.461 107.903C364.76 107.879 365.061 107.942 365.326 108.083L369.57 110.425Z" fill="black"/>
</g>
<path d="M350.549 142.346L346.221 139.844L346.204 121.947L350.54 124.45L350.549 142.346Z" fill="#BA68C8"/>
<g opacity="0.7">
<path d="M350.549 142.346L346.221 139.844L346.204 121.947L350.54 124.45L350.549 142.346Z" fill="black"/>
</g>
<g opacity="0.2">
<path d="M354.649 114.619C354.302 115.87 350.54 124.451 350.54 124.451L346.204 122.007C346.204 122.007 349.957 113.393 350.338 112.184C350.718 110.975 350.338 106.596 350.338 105.768L354.674 108.202C354.649 109.039 355.013 113.393 354.649 114.619Z" fill="#455A64"/>
</g>
<path d="M348.57 125.989C348.56 125.713 348.478 125.445 348.334 125.211C348.2 124.97 348.008 124.766 347.776 124.619L345.02 123.03C344.777 122.902 344.507 122.836 344.234 122.836C343.96 122.836 343.69 122.902 343.447 123.03L339.051 125.566C338.822 125.716 338.631 125.919 338.494 126.157C338.357 126.395 338.279 126.661 338.265 126.936V145.94C338.275 146.215 338.352 146.483 338.489 146.722C338.626 146.961 338.819 147.162 339.051 147.309L341.799 148.899C342.043 149.03 342.316 149.097 342.594 149.093C342.867 149.096 343.137 149.032 343.38 148.907L347.784 146.371C348.014 146.223 348.206 146.022 348.344 145.786C348.482 145.549 348.563 145.283 348.579 145.01L348.57 125.989Z" fill="#BA68C8"/>
<path opacity="0.5" d="M348.57 125.989C348.56 125.713 348.478 125.445 348.334 125.211C348.2 124.97 348.008 124.766 347.776 124.619L345.02 123.03C344.777 122.902 344.507 122.836 344.234 122.836C343.96 122.836 343.69 122.902 343.447 123.03L339.051 125.566C338.822 125.716 338.631 125.919 338.494 126.157C338.357 126.395 338.279 126.661 338.265 126.936V145.94C338.275 146.215 338.352 146.483 338.489 146.722C338.626 146.961 338.819 147.162 339.051 147.309L341.799 148.899C342.043 149.03 342.316 149.097 342.594 149.093C342.867 149.096 343.137 149.032 343.38 148.907L347.784 146.371C348.014 146.223 348.206 146.022 348.344 145.786C348.482 145.549 348.563 145.283 348.579 145.01L348.57 125.989Z" fill="black"/>
<path d="M342.594 128.525V149.093C342.317 149.097 342.043 149.03 341.799 148.898L339.043 147.309C338.81 147.162 338.617 146.96 338.48 146.722C338.343 146.483 338.267 146.215 338.257 145.94V126.918C338.267 126.644 338.345 126.377 338.485 126.141L342.594 128.525Z" fill="#BA68C8"/>
<g opacity="0.7">
<path d="M342.594 128.525V149.093C342.317 149.097 342.043 149.03 341.799 148.898L339.043 147.309C338.81 147.162 338.617 146.96 338.48 146.722C338.343 146.483 338.267 146.215 338.257 145.94V126.918C338.267 126.644 338.345 126.377 338.485 126.141L342.594 128.525Z" fill="black"/>
</g>
<path d="M348.334 125.228L342.594 128.542L338.502 126.158C338.635 125.917 338.827 125.713 339.06 125.566L343.456 123.03C343.698 122.902 343.968 122.836 344.242 122.836C344.516 122.836 344.786 122.902 345.028 123.03L347.784 124.619C348.016 124.772 348.205 124.982 348.334 125.228Z" fill="#BA68C8"/>
<g opacity="0.2">
<path d="M348.334 125.228L342.594 128.542L338.502 126.158C338.635 125.917 338.827 125.713 339.06 125.566L343.456 123.03C343.698 122.902 343.968 122.836 344.242 122.836C344.516 122.836 344.786 122.902 345.028 123.03L347.784 124.619C348.016 124.772 348.205 124.982 348.334 125.228Z" fill="black"/>
</g>
<path d="M413.217 81.8267C413.83 81.2973 414.331 80.6506 414.689 79.9246C415.048 79.1986 415.257 78.4081 415.305 77.5998C415.305 75.2919 413.615 75.7991 413.615 75.7991C414.461 74.7419 414.947 73.4413 415.001 72.0878C415.017 71.7323 414.941 71.3786 414.78 71.0615C414.618 70.7443 414.377 70.4746 414.08 70.2787L409.709 67.8271C409.429 67.6677 409.108 67.5962 408.787 67.6218C408.465 67.6475 408.159 67.769 407.908 67.9708L404.087 70.1857C403.952 69.1605 403.668 68.1607 403.242 67.2184C403.078 66.8209 402.778 66.4944 402.396 66.2969L398.068 63.8538C396.606 62.9069 394.069 64.6992 394.069 65.4346C394.069 65.9165 394.196 67.5566 394.23 69.129C394.23 69.4841 394.23 69.8307 394.23 70.1604C394.246 70.8124 394.192 71.4642 394.069 72.1048C394.069 72.2231 393.968 72.4091 393.875 72.6543C393.875 72.7557 393.79 72.8741 393.74 72.9924C393.689 73.1108 393.613 73.3306 393.537 73.525L392.911 75.0382L392.734 75.4694C392.074 77.0418 391.296 78.8509 390.705 80.2036C390.595 80.4487 390.502 80.6854 390.409 80.8968L389.809 82.2663V100.924H389.868L394.315 103.46L408.559 95.2177C409.434 94.6968 410.174 93.9795 410.723 93.1225C411.272 92.2656 411.614 91.2925 411.721 90.2806C411.744 89.578 411.62 88.8785 411.358 88.2263C412.566 87.5246 413.775 84.9969 413.775 83.9233C413.784 82.2579 413.217 81.8267 413.217 81.8267Z" fill="#BA68C8"/>
<g opacity="0.4">
<path d="M402.396 66.2539C400.925 65.5353 398.584 67.2261 398.584 67.9447L394.078 65.4085C394.078 64.6899 396.614 62.8723 398.068 63.8361L402.396 66.2539Z" fill="white"/>
<path d="M414.088 70.278C413.812 70.1616 413.51 70.1206 413.213 70.1592C412.916 70.1978 412.634 70.3147 412.397 70.4978L403.791 75.4772C404.188 73.7396 404.285 71.9469 404.078 70.1766L407.9 67.9617C408.152 67.7627 408.457 67.6423 408.777 67.6152C409.097 67.5881 409.418 67.6557 409.7 67.8095L414.088 70.278Z" fill="white"/>
</g>
<g opacity="0.1">
<path d="M394.323 103.401L389.817 100.797L389.809 82.207L394.306 84.8108L394.323 103.401Z" fill="black"/>
</g>
<g opacity="0.05">
<path d="M398.584 74.5904C398.22 75.8923 394.306 84.8111 394.306 84.8111L389.809 82.275C389.809 82.275 393.706 73.3477 394.086 72.0627C394.467 70.7777 394.086 66.2549 394.086 65.3926L398.592 67.9287C398.584 68.791 398.964 73.3054 398.584 74.5904Z" fill="black"/>
</g>
<path d="M392.26 86.3992C392.245 86.1117 392.16 85.8321 392.013 85.5847C391.866 85.3373 391.66 85.1294 391.415 84.979L388.557 83.2882C388.302 83.1628 388.022 83.0977 387.737 83.0977C387.453 83.0977 387.173 83.1628 386.917 83.2882L382.352 85.9343C382.108 86.0822 381.906 86.2922 381.769 86.5429C381.619 86.8 381.538 87.091 381.532 87.3883V107.137C381.549 107.424 381.634 107.703 381.781 107.95C381.929 108.197 382.133 108.405 382.378 108.557L385.235 110.248C385.496 110.382 385.787 110.449 386.08 110.442C386.374 110.452 386.666 110.385 386.926 110.248L391.508 107.602C391.752 107.45 391.956 107.241 392.103 106.994C392.25 106.747 392.336 106.468 392.353 106.181L392.26 86.3992Z" fill="#BA68C8"/>
<g opacity="0.1">
<path d="M386.055 89.0453V110.408C385.761 110.415 385.471 110.348 385.21 110.214L382.352 108.523C382.108 108.372 381.903 108.163 381.756 107.916C381.609 107.669 381.523 107.39 381.507 107.103V87.3884C381.513 87.091 381.594 86.8001 381.744 86.543L386.055 89.0453Z" fill="black"/>
</g>
<g opacity="0.3">
<path d="M392.023 85.587L386.055 89.0447L381.786 86.5761C381.923 86.3254 382.124 86.1154 382.369 85.9675L386.934 83.3214C387.189 83.196 387.47 83.1309 387.754 83.1309C388.038 83.1309 388.319 83.196 388.574 83.3214L391.431 85.0122C391.672 85.1542 391.874 85.3512 392.023 85.587Z" fill="white"/>
</g>
</g>
<defs>
<linearGradient id="paint0_linear_1362_1117" x1="211.352" y1="150.049" x2="211.352" y2="303.36" gradientUnits="userSpaceOnUse">
<stop offset="0.135417" stop-color="#9959EA"/>
<stop offset="0.682292" stop-color="#E96CFF"/>
<stop offset="1" stop-color="#9858E9"/>
</linearGradient>
<clipPath id="clip0_1362_1117">
<rect width="422.694" height="315" fill="white"/>
</clipPath>
</defs>
</svg>
