<svg width="382" height="429" viewBox="0 0 382 429" fill="none" xmlns="http://www.w3.org/2000/svg">
<path d="M162.13 11.589C163.2 7.84115 170.823 0.711723 178.403 0.852621C179.131 0.877638 179.849 1.02039 180.531 1.27532L327.727 85.0249C329.877 86.2648 331.665 88.0462 332.914 90.1918C334.162 92.3374 334.827 94.7725 334.842 97.2548V415.684C334.842 423.799 325.486 431.535 316.708 427.815C316.516 427.752 316.328 427.677 316.145 427.589L168.864 343.628C166.718 342.389 164.937 340.606 163.7 338.459C162.463 336.312 161.815 333.877 161.82 331.399V13.1248C161.802 12.5957 161.908 12.0698 162.13 11.589Z" fill="#818CE8"/>
<path d="M314.3 130.901C314.298 129.658 313.967 128.437 313.341 127.363C312.715 126.289 311.816 125.4 310.735 124.786L174.065 47.0244C173.529 46.7185 172.922 46.5585 172.306 46.5606C171.689 46.5627 171.083 46.7267 170.55 47.0363C170.016 47.3459 169.573 47.7901 169.265 48.3246C168.957 48.8591 168.795 49.465 168.795 50.0819V306.868C168.794 308.113 169.124 309.337 169.75 310.414C170.376 311.49 171.277 312.382 172.36 312.997L309.03 390.885C309.568 391.187 310.175 391.344 310.791 391.339C311.407 391.334 312.012 391.168 312.544 390.858C313.077 390.547 313.519 390.103 313.827 389.569C314.135 389.035 314.298 388.43 314.3 387.814V130.901Z" fill="#818CE8"/>
<path d="M314.3 130.901C314.298 129.658 313.967 128.437 313.341 127.363C312.715 126.289 311.816 125.4 310.735 124.786L174.065 47.0244C173.529 46.7185 172.922 46.5585 172.306 46.5606C171.689 46.5627 171.083 46.7267 170.55 47.0363C170.016 47.3459 169.573 47.7901 169.265 48.3246C168.957 48.8591 168.795 49.465 168.795 50.0819V306.868C168.794 308.113 169.124 309.337 169.75 310.414C170.376 311.49 171.277 312.382 172.36 312.997L309.03 390.885C309.568 391.187 310.175 391.344 310.791 391.339C311.407 391.334 312.012 391.168 312.544 390.858C313.077 390.547 313.519 390.103 313.827 389.569C314.135 389.035 314.298 388.43 314.3 387.814V130.901Z" fill="#F0EBFF"/>
<path opacity="0.3" d="M334.828 97.2417V415.67C334.828 423.786 325.472 431.521 316.694 427.802C317.223 427.991 317.79 428.051 318.347 427.976C318.904 427.9 319.435 427.693 319.895 427.369C320.355 427.046 320.73 426.617 320.99 426.119C321.249 425.62 321.385 425.067 321.386 424.505V106.076C321.378 103.307 320.555 100.602 319.019 98.2984L333.433 91.0985C334.352 93.0158 334.829 95.1153 334.828 97.2417Z" fill="#353535"/>
<path opacity="0.1" d="M178.389 0.838339C179.116 0.863356 179.835 1.0061 180.517 1.26102L327.712 85.0106C330.155 86.4205 332.118 88.5311 333.348 91.0692L318.963 98.3395C317.751 96.5 316.124 94.9702 314.214 93.873L167.019 10.053C166.6 9.81868 166.138 9.67236 165.66 9.62306C165.183 9.57375 164.701 9.62251 164.243 9.76632C163.785 9.91013 163.361 10.146 162.998 10.4594C162.635 10.7728 162.339 11.1571 162.129 11.5888C163.186 7.82686 170.809 0.697441 178.389 0.838339Z" fill="white"/>
<path d="M223.407 62.6351C222.364 62.0433 221.519 62.5083 221.505 63.6918C221.547 64.3433 221.739 64.9762 222.066 65.5409C222.394 66.1055 222.848 66.5867 223.393 66.9466L252.277 83.6288C253.305 84.2206 254.136 83.7134 254.151 82.5298C254.115 81.8858 253.928 81.2593 253.605 80.7011C253.282 80.1429 252.831 79.6688 252.291 79.3174L223.407 62.6351Z" fill="#353535"/>
<path d="M259.701 83.6015C258.673 82.9957 257.827 83.4747 257.827 84.6583C257.866 85.3073 258.054 85.9386 258.377 86.5031C258.699 87.0676 259.148 87.5501 259.687 87.913C259.87 88.0651 260.095 88.1578 260.332 88.1786C260.569 88.1994 260.807 88.1474 261.014 88.0295C261.221 87.9115 261.387 87.7333 261.489 87.5187C261.592 87.304 261.627 87.0631 261.589 86.8281C261.549 86.1799 261.358 85.5502 261.03 84.9897C260.702 84.4292 260.247 83.9537 259.701 83.6015Z" fill="#353535"/>
<path d="M241.214 60.2129C239.143 59.0153 237.48 59.9734 237.48 62.3404C237.543 63.6383 237.912 64.903 238.556 66.0317C239.2 67.1604 240.101 68.1211 241.186 68.8358C243.257 70.0194 244.962 69.0472 244.976 66.6801C244.901 65.3823 244.522 64.1204 243.868 62.9968C243.215 61.8731 242.305 60.9194 241.214 60.2129Z" fill="#353535"/>
<path d="M241.202 359.973C236.975 357.536 233.607 359.48 233.593 364.313C233.725 366.954 234.479 369.527 235.794 371.821C237.109 374.115 238.947 376.066 241.159 377.515C245.386 379.953 248.852 377.966 248.866 373.119C248.715 370.479 247.942 367.912 246.61 365.627C245.278 363.343 243.425 361.406 241.202 359.973Z" fill="#353535"/>
<path d="M295.086 314.077L299.23 311.737C299.674 311.449 300.044 311.06 300.309 310.603C300.574 310.146 300.728 309.632 300.756 309.105V202.841C300.729 202.314 300.576 201.8 300.311 201.342C300.045 200.885 299.675 200.497 299.23 200.209L87.6928 78.5508C87.2191 78.3141 86.6965 78.1909 86.1666 78.1909C85.6367 78.1909 85.1142 78.3141 84.6405 78.5508L80.4964 80.8904C80.0521 81.1786 79.6824 81.5671 79.4172 82.0244C79.152 82.4818 78.9989 82.995 78.9702 83.5224V189.751C78.9979 190.279 79.1507 190.792 79.416 191.25C79.6813 191.707 80.0515 192.096 80.4964 192.383L292.022 314.077C292.495 314.321 293.021 314.448 293.554 314.448C294.087 314.448 294.612 314.321 295.086 314.077Z" fill="#A2ABFF"/>
<path opacity="0.4" d="M79.0282 83.0662C79.2278 82.4345 79.8147 82.2357 80.4957 82.6451L292.021 204.338C292.473 204.633 292.844 205.035 293.101 205.508L300.298 201.379C300.044 200.903 299.672 200.501 299.218 200.209L87.6686 78.5508C87.1949 78.3141 86.6723 78.1909 86.1424 78.1909C85.6125 78.1909 85.0899 78.3141 84.6163 78.5508L80.4839 80.8904C80.1071 81.1371 79.784 81.4569 79.5338 81.8307C79.2837 82.2045 79.1118 82.6247 79.0282 83.0662Z" fill="white"/>
<path d="M292.022 204.35L80.485 82.6922C79.6397 82.2125 78.9588 82.5986 78.9588 83.5695V189.751C78.9866 190.279 79.1393 190.793 79.4046 191.25C79.6699 191.708 80.0401 192.096 80.485 192.383L292.022 314.077C292.868 314.568 293.548 314.17 293.548 313.2V206.947C293.515 206.426 293.36 205.919 293.095 205.468C292.83 205.017 292.463 204.634 292.022 204.35Z" fill="#A2ABFF"/>
<path opacity="0.15" d="M292.398 314.24C292.833 314.399 293.297 314.467 293.759 314.439C294.222 314.411 294.674 314.287 295.086 314.076L299.219 311.736C299.662 311.447 300.03 311.058 300.295 310.601C300.56 310.144 300.714 309.631 300.745 309.104V202.84C300.733 202.312 300.583 201.796 300.311 201.343L293.114 205.472C293.393 205.924 293.551 206.44 293.572 206.97V313.199C293.572 314.029 293.067 314.438 292.398 314.24Z" fill="#858585"/>
<path d="M288.793 312.228V323.061C288.795 323.436 288.675 323.803 288.452 324.106C288.229 324.409 287.914 324.632 287.554 324.744C287.194 324.855 286.808 324.848 286.452 324.724C286.096 324.6 285.789 324.366 285.577 324.055L269.717 301.244L288.793 312.228Z" fill="#A2ABFF"/>
<path d="M186.096 192.781L174.356 186.019C172.959 185.212 171.82 185.785 171.82 187.306C171.884 188.155 172.146 188.977 172.587 189.706C173.027 190.436 173.633 191.052 174.356 191.505L186.096 198.267C187.504 199.074 188.643 198.501 188.643 196.992C188.581 196.14 188.318 195.314 187.875 194.582C187.433 193.85 186.823 193.233 186.096 192.781Z" fill="#FAFAFA"/>
<path d="M165.633 181.001L135.72 163.794C134.311 162.987 133.173 163.56 133.173 165.069C133.235 165.921 133.498 166.747 133.94 167.478C134.383 168.21 134.993 168.828 135.72 169.28L165.633 186.488C167.042 187.295 168.18 186.722 168.18 185.201C168.117 184.351 167.853 183.528 167.41 182.798C166.968 182.068 166.359 181.453 165.633 181.001Z" fill="#FAFAFA"/>
<path d="M128.255 159.489L94.4913 140.083C93.0943 139.275 91.9555 139.849 91.9555 141.369C92.019 142.218 92.2814 143.041 92.7219 143.77C93.1623 144.499 93.7683 145.115 94.4913 145.569L128.255 164.976C129.652 165.783 130.79 165.21 130.79 163.701C130.729 162.85 130.467 162.025 130.027 161.294C129.586 160.562 128.979 159.944 128.255 159.489Z" fill="#FAFAFA"/>
<path d="M186.107 159.863L156.194 142.609C154.786 141.801 153.659 142.375 153.659 143.895C153.719 144.745 153.981 145.568 154.421 146.298C154.862 147.028 155.47 147.644 156.194 148.095L186.107 165.303C187.516 166.11 188.655 165.537 188.655 164.027C188.585 163.183 188.319 162.367 187.877 161.644C187.434 160.921 186.828 160.311 186.107 159.863Z" fill="#FAFAFA"/>
<path d="M148.727 138.363L121.068 122.442C119.659 121.635 118.52 122.208 118.52 123.729C118.584 124.579 118.848 125.402 119.291 126.132C119.733 126.861 120.342 127.477 121.068 127.928L148.727 143.849C150.135 144.656 151.274 144.083 151.274 142.562C151.208 141.712 150.944 140.89 150.501 140.161C150.059 139.431 149.451 138.815 148.727 138.363Z" fill="#FAFAFA"/>
<path d="M113.438 118.043L93.6914 106.685C92.2826 105.878 91.1439 106.451 91.1439 107.971C91.2041 108.826 91.4663 109.654 91.9091 110.388C92.3518 111.121 92.9626 111.741 93.6914 112.194L113.438 123.553C114.835 124.36 115.973 123.787 115.973 122.278C115.915 121.423 115.655 120.594 115.215 119.858C114.774 119.122 114.165 118.5 113.438 118.043Z" fill="#FAFAFA"/>
<path d="M186.107 209.287L156.194 192.079C154.786 191.272 153.659 191.845 153.659 193.354C153.718 194.205 153.979 195.031 154.42 195.762C154.861 196.494 155.469 197.112 156.194 197.565L186.107 214.773C187.516 215.58 188.655 215.007 188.655 213.486C188.591 212.636 188.327 211.813 187.884 211.083C187.442 210.353 186.833 209.738 186.107 209.287Z" fill="#FAFAFA"/>
<path d="M148.727 187.716L121.068 171.854C119.659 171.047 118.52 171.62 118.52 173.129C118.582 173.981 118.845 174.807 119.288 175.539C119.731 176.27 120.341 176.888 121.068 177.34L148.727 193.25C150.135 194.057 151.274 193.484 151.274 191.974C151.217 191.115 150.957 190.28 150.514 189.54C150.071 188.8 149.459 188.175 148.727 187.716Z" fill="#FAFAFA"/>
<path d="M113.438 167.397L93.6914 156.038C92.2826 155.231 91.1439 155.804 91.1439 157.313C91.2059 158.165 91.469 158.991 91.9116 159.723C92.3543 160.454 92.9641 161.072 93.6914 161.524L113.438 172.883C114.835 173.69 115.973 173.117 115.973 171.596C115.91 170.747 115.647 169.925 115.207 169.196C114.767 168.466 114.161 167.85 113.438 167.397Z" fill="#FAFAFA"/>
<path d="M186.105 176.334L129.755 143.883C128.358 143.076 127.219 143.65 127.219 145.17C127.282 146.019 127.545 146.841 127.985 147.571C128.426 148.3 129.032 148.916 129.755 149.37L186.105 181.82C187.514 182.627 188.653 182.054 188.653 180.533C188.589 179.683 188.325 178.86 187.882 178.13C187.44 177.4 186.831 176.785 186.105 176.334Z" fill="#FAFAFA"/>
<path d="M121.526 139.17L94.525 123.659C93.1162 122.852 91.9775 123.425 91.9775 124.934C92.0395 125.786 92.3026 126.612 92.7452 127.344C93.1879 128.075 93.7977 128.693 94.525 129.145L121.526 144.657C122.935 145.464 124.074 144.891 124.062 143.37C123.999 142.521 123.736 141.699 123.296 140.969C122.855 140.24 122.249 139.624 121.526 139.17Z" fill="#FAFAFA"/>
<path d="M241.235 180.802C264.879 194.419 284.05 227.489 284.038 254.698C284.027 281.907 264.867 292.938 241.224 279.334C217.58 265.729 198.397 232.636 198.421 205.438C198.444 178.24 217.615 167.174 241.235 180.802Z" fill="#F0EBFF"/>
<path opacity="0.1" d="M257.061 284.96C261.005 285.491 265.019 285.036 268.742 283.638L267.862 280.877L271.008 259.061C270.537 258.615 270.12 258.116 269.763 257.575C269.587 257.329 269.411 257.06 269.212 256.744C268.984 256.394 268.777 256.03 268.59 255.656C268.449 255.399 268.32 255.13 268.179 254.838C268.038 254.545 267.909 254.253 267.768 253.937L267.533 253.41C267.392 253.06 267.251 252.674 267.11 252.241C267.064 252.13 267.025 252.017 266.993 251.901C267.063 253.071 267.157 254.896 267.181 256.873C267.214 259.108 267.112 261.342 266.876 263.564C266.171 269.273 260.031 281.719 257.625 283.696C257.417 283.829 257.252 284.019 257.152 284.244C257.052 284.468 257.02 284.717 257.061 284.96Z" fill="#858585"/>
<path d="M191.931 243.712C196.508 251.677 201.488 259.403 206.85 266.862C208.17 268.637 211.89 273.529 213.834 274.015C216.317 274.628 218.419 272.673 219.729 271.764C224.209 268.648 247.39 245.604 247.39 245.604C254.607 235.545 252.789 229.132 251.807 229.132C250.824 229.132 243.428 227.188 237.099 233.358C232.303 238.039 215.915 254.975 215.915 254.975C212.048 250.432 209.512 248.182 205.656 243.628C203.775 241.409 200.922 239.021 200.785 235.978C200.801 234.583 200.928 233.191 201.165 231.815C201.388 228.633 201.182 225.434 200.552 222.306C200.539 222.164 200.503 222.025 200.447 221.894C200.346 221.717 200.185 221.582 199.992 221.514C199.636 221.411 199.256 221.43 198.911 221.568C198.567 221.706 198.278 221.954 198.091 222.275C197.729 222.921 197.534 223.647 197.52 224.388C197.497 225.116 197.336 225.833 197.045 226.501C196.982 226.637 196.887 226.756 196.77 226.849C196.635 226.929 196.483 226.973 196.326 226.976C195.439 226.976 194.974 226.015 194.646 225.317C193.887 223.687 193.272 221.994 192.808 220.256C192.491 219.063 191.941 217.911 191.529 216.727C191.369 216.023 191.001 215.382 190.473 214.889C189.511 214.192 188.159 214.583 187.102 215.111C186.509 215.401 185.949 215.755 185.433 216.168C183.919 217.559 182.918 219.42 182.591 221.45C182.168 223.806 182.328 226.229 183.056 228.508C183.969 231.708 185.474 234.708 187.493 237.352C188.972 239.465 190.6 241.483 191.931 243.712Z" fill="#FFA8A7"/>
<path d="M253.868 229.098C253.868 229.098 246.651 226.256 240.132 230.461C233.613 234.666 215.916 254.984 215.916 254.984L211.467 250.04C211.467 250.04 209.111 258.777 201.736 259.549C201.736 259.549 207.526 268.994 210.76 272.481C213.993 275.968 216.571 275.323 220.269 272.481C223.967 269.639 241.992 252.998 241.992 252.998C246.006 250.521 249.246 246.969 251.345 242.745C253.444 238.521 254.318 233.794 253.868 229.098Z" fill="#838FFF"/>
<path opacity="0.25" d="M253.868 229.098C253.868 229.098 246.651 226.256 240.132 230.461C233.613 234.666 215.916 254.984 215.916 254.984L211.467 250.04C211.467 250.04 209.111 258.777 201.736 259.549C201.736 259.549 207.526 268.994 210.76 272.481C213.993 275.968 216.571 275.323 220.269 272.481C223.967 269.639 241.992 252.998 241.992 252.998C246.006 250.521 249.246 246.969 251.345 242.745C253.444 238.521 254.318 233.794 253.868 229.098Z" fill="#353535"/>
<path d="M284.146 251.051V261.312C283.393 264.469 283.393 264.469 282.507 267.626C281.243 272.137 278.692 277.451 273.095 281.439C262.797 288.529 246.352 284.937 240.375 278.796C240.294 267.602 240.312 253.752 240.813 247.505C241.708 236.118 244.92 230.329 249.76 229.071C252.069 228.463 269.373 230.34 269.373 230.34L278.955 233.197C279.162 233.313 279.362 233.445 279.555 233.591C281.022 234.658 281.814 237.238 282.507 239.519C283.493 242.763 284.146 247.181 284.146 251.051Z" fill="#626BBF"/>
<path d="M273.17 197.001C272.974 199.734 271.97 202.348 270.287 204.51C268.604 206.673 266.316 208.287 263.715 209.149C261.113 210.01 258.314 210.079 255.673 209.348C253.032 208.617 250.667 207.119 248.878 205.042C247.089 202.966 245.957 200.405 245.626 197.685C245.294 194.964 245.777 192.207 247.014 189.761C248.251 187.316 250.186 185.292 252.574 183.948C254.962 182.603 257.696 181.998 260.428 182.208C264.076 182.49 267.464 184.203 269.852 186.975C272.239 189.747 273.432 193.351 273.17 197.001Z" fill="#353535"/>
<path d="M282.48 207.565C282.48 207.565 279.437 217.909 278.401 219.568C277.721 220.583 276.677 221.298 275.485 221.565L276.214 214.169L282.48 207.565Z" fill="#353535"/>
<path d="M280.747 192.299C280.866 191.974 281.052 191.678 281.292 191.428C281.532 191.179 281.822 190.983 282.142 190.852C282.574 190.722 283.03 190.696 283.473 190.778C286.273 191.148 287.9 193.662 288.059 196.357C288.089 198.334 287.704 200.296 286.928 202.115C286.464 203.547 285.725 204.875 284.752 206.024C284.285 206.541 283.717 206.955 283.082 207.241C282.447 207.526 281.76 207.677 281.064 207.683C280.12 207.602 279.17 207.63 278.233 207.768C278.55 205.838 278.874 203.911 279.205 201.988L279.997 197.255C280.114 196.557 280.261 195.86 280.346 195.142C280.361 194.2 280.489 193.264 280.726 192.352L280.747 192.299Z" fill="#353535"/>
<path d="M276.965 207.671C277.768 208.242 279.078 206.71 280.23 205.695C281.381 204.681 284.868 203.456 286.294 207.164C287.721 210.873 284.181 215.5 281.402 216.145C276.679 217.202 276.215 214.222 276.215 214.222L274.587 231.339C268.248 238.248 252.262 237.995 259.478 230.821L260.007 224.185C257.925 224.353 255.832 224.299 253.762 224.027C250.402 223.245 248.479 220.403 247.729 216.631C246.525 210.598 246.261 205.791 248.553 194.295C251.068 181.69 265.871 182.673 273.478 188.336C281.085 193.999 276.965 207.671 276.965 207.671Z" fill="#FFA8A7"/>
<path d="M282.141 197.117C282.479 195.902 281.877 194.655 282.141 193.419C282.405 192.183 283.198 191.675 283.641 190.672C284.455 188.749 283.388 187.227 281.887 186.002C275.981 181.194 267.634 180.793 260.988 177.095C260.029 176.491 259.018 175.975 257.967 175.552C257.437 175.348 256.87 175.255 256.303 175.281C255.735 175.306 255.18 175.449 254.67 175.7C254.237 175.984 253.865 176.352 253.577 176.782C253.288 177.212 253.089 177.696 252.99 178.204C252.855 179.227 252.809 180.259 252.853 181.289C251.881 181.289 251.014 180.624 250.021 180.529C248.957 180.41 247.88 180.593 246.915 181.057C246.265 181.328 245.731 181.818 245.404 182.441C245.207 182.938 245.124 183.472 245.161 184.005C245.215 185.716 245.676 187.391 246.507 188.888C247.337 190.386 248.513 191.664 249.937 192.616C250.931 193.249 251.994 193.767 253.106 194.158C254.971 194.909 256.961 195.296 258.97 195.299C260.996 195.294 262.948 194.541 264.454 193.186C265.353 195.057 266.837 196.585 268.68 197.539C269.613 197.999 270.642 198.229 271.682 198.213C272.722 198.196 273.742 197.933 274.66 197.444C274.777 200.255 275.115 203.044 275.284 205.897C275.231 206.808 275.53 207.704 276.119 208.401C277.756 209.922 279.172 206.531 280.165 205.76C280.746 205.305 280.799 204.164 280.873 203.509C280.947 202.854 281.01 202.146 281.032 201.47C280.956 201.034 280.92 200.592 280.926 200.149C281.243 199.029 281.866 198.121 282.141 197.117Z" fill="#353535"/>
<path d="M283.567 191.897L288.85 189.541C288.713 189.185 288.506 188.861 288.241 188.588C287.975 188.314 287.657 188.097 287.306 187.95C286.954 187.803 286.577 187.729 286.195 187.732C285.814 187.734 285.438 187.814 285.089 187.967C284.38 188.303 283.828 188.898 283.545 189.629C283.262 190.36 283.27 191.172 283.567 191.897Z" fill="#353535"/>
<path d="M260.006 224.186C260.006 224.186 267.698 223.235 270.456 222.072C272.072 221.381 273.442 220.217 274.386 218.734C273.869 220.252 273.049 221.65 271.977 222.844C269.864 225.179 259.848 226.246 259.848 226.246L260.006 224.186Z" fill="#F28F8F"/>
<path d="M261.875 204.607C261.866 204.905 261.944 205.199 262.1 205.453C262.256 205.707 262.484 205.909 262.754 206.035C263.024 206.161 263.325 206.205 263.62 206.161C263.914 206.117 264.19 205.987 264.412 205.789C264.634 205.59 264.792 205.33 264.868 205.042C264.943 204.753 264.932 204.449 264.837 204.167C264.741 203.885 264.564 203.637 264.329 203.454C264.094 203.271 263.81 203.162 263.513 203.139C263.309 203.127 263.105 203.156 262.912 203.224C262.719 203.292 262.541 203.397 262.389 203.533C262.237 203.67 262.113 203.835 262.025 204.019C261.937 204.204 261.886 204.403 261.875 204.607Z" fill="#353535"/>
<path d="M263.926 198.997L267.032 201.036C267.299 200.609 267.39 200.095 267.285 199.603C267.181 199.11 266.889 198.677 266.472 198.395C266.267 198.261 266.037 198.171 265.796 198.129C265.555 198.087 265.308 198.094 265.07 198.15C264.832 198.207 264.607 198.311 264.411 198.456C264.214 198.602 264.049 198.786 263.926 198.997Z" fill="#353535"/>
<path d="M261.971 214.54L257.639 215.797C257.71 216.087 257.838 216.359 258.017 216.598C258.195 216.837 258.419 217.037 258.676 217.188C258.933 217.339 259.218 217.436 259.513 217.475C259.809 217.514 260.109 217.493 260.396 217.414C260.979 217.23 261.468 216.829 261.761 216.293C262.055 215.758 262.13 215.13 261.971 214.54Z" fill="#F28F8F"/>
<path d="M249.124 199.114L252.293 197.064C252.17 196.853 252.005 196.669 251.808 196.523C251.611 196.378 251.386 196.274 251.148 196.219C250.909 196.163 250.662 196.157 250.421 196.201C250.18 196.245 249.951 196.337 249.747 196.473C249.323 196.748 249.022 197.176 248.906 197.668C248.79 198.16 248.868 198.678 249.124 199.114Z" fill="#353535"/>
<path d="M249.726 203.244C249.716 203.542 249.795 203.836 249.951 204.09C250.107 204.344 250.334 204.546 250.604 204.672C250.874 204.798 251.176 204.841 251.47 204.797C251.765 204.754 252.04 204.624 252.262 204.425C252.484 204.226 252.643 203.967 252.718 203.678C252.794 203.39 252.783 203.086 252.687 202.804C252.592 202.522 252.415 202.274 252.18 202.091C251.944 201.908 251.661 201.798 251.363 201.776C251.159 201.764 250.955 201.793 250.762 201.861C250.57 201.928 250.392 202.033 250.24 202.17C250.088 202.306 249.964 202.471 249.876 202.656C249.788 202.84 249.737 203.04 249.726 203.244Z" fill="#353535"/>
<path d="M256.9 202.389L255.695 211.486L251.057 209.489L256.9 202.389Z" fill="#F28F8F"/>
<path d="M173.071 274.102L176.312 267.241L176.872 267.207L176.576 266.683L179.38 260.734L180.565 260.007L179.812 259.786L186.196 246.28C188.569 241.248 191.024 236.052 193.791 231.039C194.898 229.05 196.059 227.07 197.254 225.113L197.675 224.992L197.438 224.816C198.543 223.019 199.674 221.241 200.833 219.467L201.32 219.394L201.089 219.079C203.215 215.838 205.357 212.69 207.491 209.568L206.727 209.002C205.266 211.13 203.805 213.258 202.377 215.41L201.886 215.142L201.937 216.079C200.776 217.771 199.667 219.501 198.565 221.237L198.201 221.144L198.315 221.629C196.419 224.607 194.59 227.618 192.888 230.69C190.084 235.757 187.62 240.994 185.233 246.048L177.375 262.699L176.966 262.716L177.179 263.115L174.119 269.597L173.109 269.939L173.767 270.427L169.487 279.553C170.935 277.941 172.163 276.074 173.071 274.102Z" fill="#59704B"/>
<path d="M203.407 210.322C202.286 207.735 200.399 205.758 197.907 204.561C195.415 203.363 192.393 202.982 189.1 203.449C190.117 206.365 190.726 209.554 193.189 211.115C194.525 211.808 196.135 212.096 197.902 211.959C199.668 211.822 201.549 211.263 203.407 210.322Z" fill="#59704B"/>
<path d="M201.837 210.088C208.032 210.127 212.973 212.788 215.661 217.531C211.983 218.939 208.437 219.133 205.595 218.081C202.853 217.067 200.916 213.766 201.837 210.088Z" fill="#59704B"/>
<path d="M213.073 192.972C213.96 191.5 213.811 190.026 213.689 188.656C213.368 187.349 213.603 185.74 214.347 184.145C212.771 184.697 211.189 185.59 209.708 186.762C208.227 187.935 206.883 189.359 205.766 190.938C205.591 191.885 205.674 192.754 206.005 193.441C206.336 194.128 206.901 194.604 207.633 194.812C209.116 195.302 211.905 194.892 213.073 192.972Z" fill="#C41D3B"/>
<path opacity="0.3" d="M213.073 192.972C213.96 191.5 213.811 190.026 213.689 188.656C213.368 187.349 213.603 185.74 214.347 184.145C212.771 184.697 211.189 185.59 209.708 186.762C208.227 187.935 206.883 189.359 205.766 190.938C205.591 191.885 205.674 192.754 206.005 193.441C206.336 194.128 206.901 194.604 207.633 194.812C209.116 195.302 211.905 194.892 213.073 192.972Z" fill="#353535"/>
<path d="M218.502 195.69C220.046 193.044 221.799 190.481 223.729 188.044C218.363 188.664 212.563 191.569 207.494 196.175C207.765 197.462 208.121 198.636 208.393 199.923C211.695 198.432 215.124 197.282 218.502 195.69Z" fill="#C41D3B"/>
<path opacity="0.2" d="M218.502 195.69C220.046 193.044 221.799 190.481 223.729 188.044C218.363 188.664 212.563 191.569 207.494 196.175C207.765 197.462 208.121 198.636 208.393 199.923C211.695 198.432 215.124 197.282 218.502 195.69Z" fill="#353535"/>
<path d="M201.24 196.642C199.574 199.111 197.458 201.471 196.531 204.105C195.939 205.903 195.886 207.624 196.381 208.995C196.883 210.355 197.71 211.456 198.809 212.229C199.395 212.797 200.149 213.162 201.021 213.301C201.892 213.439 202.863 213.348 203.868 213.033C205.24 212.418 206.552 211.334 207.558 209.984C208.547 208.638 209.35 207.194 209.926 205.728C211.8 201.202 212.465 196.707 211.831 192.854C211.382 190.117 210.28 187.791 208.606 186.044C207.94 185.36 207.087 185.205 206.032 186.412C204.977 187.62 204.764 189.371 204.252 190.767C203.53 192.77 202.51 194.759 201.24 196.642Z" fill="#C41D3B"/>
<path opacity="0.1" d="M201.24 196.642C199.574 199.111 197.458 201.471 196.531 204.105C195.939 205.903 195.886 207.624 196.381 208.995C196.883 210.355 197.71 211.456 198.809 212.229C199.395 212.797 200.149 213.162 201.021 213.301C201.892 213.439 202.863 213.348 203.868 213.033C205.24 212.418 206.552 211.334 207.558 209.984C208.547 208.638 209.35 207.194 209.926 205.728C211.8 201.202 212.465 196.707 211.831 192.854C211.382 190.117 210.28 187.791 208.606 186.044C207.94 185.36 207.087 185.205 206.032 186.412C204.977 187.62 204.764 189.371 204.252 190.767C203.53 192.77 202.51 194.759 201.24 196.642Z" fill="#353535"/>
<path d="M225.553 193.379C226.008 193.453 226.498 193.635 226.416 194.22C226.334 194.805 221.316 197.306 219.651 201.282C218.684 203.577 217.402 205.824 215.863 207.925C214.783 209.387 213.49 210.674 212.085 211.686C210.679 212.699 209.2 213.408 207.763 213.758C206.434 214.116 205.203 214.025 204.236 213.498C203.485 212.949 202.978 212.108 202.769 211.061C202.559 210.015 202.654 208.801 203.044 207.545C203.792 205.335 205.003 203.148 206.562 201.19C207.652 199.713 209.012 198.468 210.472 197.613C213.728 195.456 217.114 194.034 220.352 193.464C222.178 193.144 223.929 193.115 225.553 193.379Z" fill="#C41D3B"/>
<path opacity="0.05" d="M225.553 193.379C226.008 193.453 226.498 193.635 226.416 194.22C226.334 194.805 221.316 197.306 219.651 201.282C218.684 203.577 217.402 205.824 215.863 207.925C214.783 209.387 213.49 210.674 212.085 211.686C210.679 212.699 209.2 213.408 207.763 213.758C206.434 214.116 205.203 214.025 204.236 213.498C203.485 212.949 202.978 212.108 202.769 211.061C202.559 210.015 202.654 208.801 203.044 207.545C203.792 205.335 205.003 203.148 206.562 201.19C207.652 199.713 209.012 198.468 210.472 197.613C213.728 195.456 217.114 194.034 220.352 193.464C222.178 193.144 223.929 193.115 225.553 193.379Z" fill="#353535"/>
<path d="M201.399 212.942C203.908 213.188 215.587 203.786 221.596 206.521C219.513 208.971 217.178 211.182 214.685 213.065C212.22 214.835 209.564 215.804 207.193 215.798C204.709 215.762 202.668 214.756 201.399 212.942Z" fill="#C41D3B"/>
<path d="M198.817 211.423C189.935 207.725 198.917 196.133 198.972 192.864C201.396 197.802 201.341 204.463 198.817 211.423Z" fill="#C41D3B"/>
</svg>
