<svg width="368" height="510" viewBox="0 0 368 510" fill="none" xmlns="http://www.w3.org/2000/svg">
<path d="M177.258 82.1165C176.159 78.2727 168.335 70.9609 160.554 71.1054C159.808 71.131 159.07 71.2774 158.371 71.5389L7.29801 157.417C5.10411 158.698 3.28292 160.529 2.01465 162.729C0.746374 164.929 0.0749756 167.421 0.0668945 169.96V496.537C0.0668945 504.861 9.66982 512.794 18.6798 508.979C18.8774 508.914 19.0707 508.837 19.2583 508.748L170.36 422.711C172.576 421.449 174.419 419.624 175.701 417.422C176.984 415.219 177.661 412.716 177.663 410.168V83.6916C177.654 83.142 177.516 82.6023 177.258 82.1165Z" fill="#A158EA"/>
<path d="M21.3783 204.367C21.3802 203.089 21.7192 201.835 22.3611 200.731C23.003 199.627 23.9249 198.713 25.0331 198.081L165.156 118.149C165.706 117.835 166.327 117.67 166.96 117.672C167.592 117.675 168.213 117.843 168.76 118.161C169.307 118.48 169.761 118.936 170.077 119.486C170.393 120.035 170.559 120.658 170.559 121.292V385.246C170.56 386.527 170.222 387.784 169.58 388.891C168.938 389.998 168.015 390.914 166.904 391.547L26.781 471.609C26.2301 471.92 25.6078 472.08 24.9759 472.076C24.3439 472.071 23.7242 471.9 23.1782 471.581C22.6322 471.262 22.1789 470.805 21.8632 470.256C21.5475 469.708 21.3803 469.086 21.3783 468.452V204.367Z" fill="#F1E1F4"/>
<path opacity="0.2" d="M217.917 190.949C217.919 189.672 218.258 188.417 218.9 187.313C219.541 186.209 220.463 185.295 221.572 184.664L361.695 104.732C362.244 104.417 362.866 104.253 363.498 104.255C364.131 104.257 364.752 104.426 365.299 104.744C365.846 105.062 366.3 105.519 366.615 106.068C366.931 106.617 367.097 107.24 367.098 107.874V371.829C367.098 373.109 366.76 374.367 366.118 375.474C365.476 376.58 364.553 377.497 363.443 378.129L223.319 458.192C222.769 458.502 222.146 458.663 221.514 458.658C220.882 458.653 220.263 458.482 219.717 458.163C219.171 457.844 218.717 457.388 218.402 456.839C218.086 456.29 217.919 455.668 217.917 455.034V190.949Z" fill="#F1E1F4"/>
<path opacity="0.3" d="M0.066897 169.758V496.53C0.066897 504.858 9.84044 512.796 19.0105 508.979C18.4578 509.173 17.8655 509.235 17.2836 509.157C16.7018 509.08 16.1473 508.867 15.6669 508.535C15.1865 508.204 14.7942 507.764 14.5231 507.252C14.252 506.74 14.11 506.172 14.109 505.595V178.824C14.1171 175.982 14.9771 173.206 16.5818 170.842L1.52409 163.454C0.563608 165.421 0.0656043 167.576 0.066897 169.758Z" fill="#353535"/>
<path opacity="0.1" d="M160.232 71.1054C159.488 71.1311 158.753 71.2778 158.055 71.5399L7.41217 157.643C4.91229 159.093 2.903 161.262 1.64429 163.872L16.3668 171.346C17.607 169.455 19.2714 167.883 21.2263 166.755L171.869 80.579C172.298 80.3381 172.771 80.1877 173.259 80.137C173.748 80.0863 174.241 80.1364 174.71 80.2842C175.178 80.4321 175.612 80.6746 175.984 80.9968C176.356 81.319 176.658 81.7141 176.873 82.158C175.791 78.2903 167.99 70.9605 160.232 71.1054Z" fill="white"/>
<path d="M114.165 134.512C115.224 133.904 116.082 134.382 116.097 135.599C116.054 136.268 115.859 136.919 115.526 137.5C115.193 138.08 114.732 138.575 114.179 138.945L84.8483 156.095C83.8038 156.703 82.9596 156.182 82.9453 154.965C82.9813 154.303 83.1711 153.659 83.4993 153.085C83.8275 152.511 84.2847 152.024 84.8339 151.662L114.165 134.512Z" fill="#353535"/>
<path d="M77.0409 155.859C78.1157 155.168 78.9991 155.714 78.9991 157.064C78.9585 157.804 78.7621 158.524 78.425 159.168C78.0879 159.812 77.6193 160.362 77.0556 160.776C76.8643 160.95 76.6291 161.055 76.3813 161.079C76.1336 161.103 75.8851 161.044 75.6691 160.909C75.453 160.775 75.2797 160.571 75.1723 160.327C75.0649 160.082 75.0285 159.807 75.068 159.539C75.1095 158.8 75.3097 158.081 75.6524 157.442C75.9952 156.803 76.4708 156.26 77.0409 155.859Z" fill="#353535"/>
<path d="M96.3789 132.389C98.5599 131.212 100.311 132.153 100.311 134.478C100.244 135.753 99.8564 136.995 99.1783 138.104C98.5003 139.212 97.5513 140.156 96.4086 140.858C94.2276 142.02 92.4323 141.066 92.4175 138.741C92.4962 137.466 92.8958 136.227 93.5841 135.123C94.2724 134.019 95.2299 133.083 96.3789 132.389Z" fill="#353535"/>
<path d="M96.3934 439.235C100.762 436.687 104.243 438.719 104.257 443.77C104.121 446.531 103.342 449.219 101.983 451.617C100.624 454.015 98.7235 456.054 96.4371 457.568C92.0681 460.116 88.4856 458.039 88.4711 452.974C88.6276 450.215 89.4268 447.532 90.8036 445.144C92.1803 442.756 94.0957 440.732 96.3934 439.235Z" fill="#353535"/>
<path d="M42.8139 326.722L38.6845 324.382C38.2418 324.094 37.8734 323.706 37.6092 323.248C37.3449 322.791 37.1923 322.278 37.1638 321.75V215.487C37.1914 214.959 37.3436 214.445 37.6079 213.988C37.8723 213.53 38.2412 213.142 38.6845 212.855L249.469 91.1962C249.941 90.9595 250.462 90.8363 250.99 90.8363C251.518 90.8363 252.039 90.9595 252.511 91.1962L256.64 93.5358C257.083 93.824 257.451 94.2125 257.715 94.6699C257.98 95.1272 258.132 95.6404 258.161 96.1678V202.397C258.133 202.924 257.981 203.438 257.717 203.895C257.452 204.353 257.083 204.741 256.64 205.029L45.867 326.722C45.3952 326.966 44.8717 327.094 44.3404 327.094C43.8092 327.094 43.2857 326.966 42.8139 326.722Z" fill="#E16EF4"/>
<path opacity="0.4" d="M258.103 95.7116C257.904 95.0799 257.319 94.8811 256.64 95.2905L45.8675 216.984C45.4172 217.278 45.0473 217.68 44.7912 218.154L37.6204 214.024C37.8731 213.549 38.2437 213.146 38.6966 212.855L249.493 91.1962C249.965 90.9595 250.486 90.8363 251.014 90.8363C251.542 90.8363 252.063 90.9595 252.535 91.1962L256.652 93.5358C257.028 93.7825 257.35 94.1023 257.599 94.4761C257.848 94.8499 258.019 95.2701 258.103 95.7116Z" fill="white"/>
<path d="M45.8676 216.995L256.652 95.3366C257.495 94.857 258.173 95.243 258.173 96.214V202.396C258.145 202.924 257.993 203.437 257.729 203.895C257.465 204.352 257.096 204.74 256.652 205.028L45.8676 326.721C45.0253 327.213 44.3469 326.815 44.3469 325.844V219.592C44.3799 219.07 44.5347 218.564 44.7987 218.113C45.0628 217.662 45.4289 217.279 45.8676 216.995Z" fill="#E16EF4"/>
<path opacity="0.15" d="M45.4923 326.886C45.0588 327.046 44.5969 327.114 44.1357 327.086C43.6746 327.058 43.2243 326.934 42.8135 326.722L38.6958 324.383C38.2545 324.093 37.887 323.704 37.623 323.247C37.3589 322.79 37.2055 322.278 37.1751 321.751V215.487C37.1874 214.959 37.3365 214.443 37.6079 213.99L44.7788 218.119C44.5006 218.571 44.3435 219.086 44.3225 219.616V325.845C44.3225 326.676 44.8255 327.085 45.4923 326.886Z" fill="#858585"/>
<path d="M49.0849 324.874V335.706C49.0834 336.082 49.2025 336.448 49.4248 336.751C49.6471 337.054 49.9608 337.278 50.3196 337.389C50.6785 337.5 51.0636 337.493 51.4184 337.369C51.7731 337.245 52.0787 337.011 52.2901 336.7L68.094 313.889L49.0849 324.874Z" fill="#E16EF4"/>
<path d="M151.418 205.427L163.116 198.665C164.508 197.858 165.642 198.432 165.642 199.952C165.579 200.801 165.318 201.623 164.879 202.353C164.44 203.082 163.836 203.698 163.116 204.152L151.418 210.913C150.014 211.72 148.879 211.147 148.879 209.638C148.941 208.786 149.203 207.96 149.644 207.229C150.085 206.497 150.693 205.879 151.418 205.427Z" fill="#FAFAFA"/>
<path d="M171.808 193.647L201.614 176.439C203.018 175.632 204.153 176.205 204.153 177.714C204.091 178.566 203.829 179.392 203.388 180.124C202.947 180.856 202.339 181.473 201.614 181.926L171.808 199.133C170.404 199.94 169.27 199.367 169.27 197.846C169.333 196.996 169.596 196.173 170.037 195.443C170.478 194.714 171.085 194.098 171.808 193.647Z" fill="#FAFAFA"/>
<path d="M209.053 172.135L242.696 152.728C244.088 151.921 245.223 152.494 245.223 154.015C245.16 154.864 244.898 155.686 244.46 156.415C244.021 157.145 243.417 157.761 242.696 158.214L209.053 177.621C207.661 178.428 206.526 177.855 206.526 176.346C206.588 175.495 206.849 174.671 207.287 173.939C207.726 173.208 208.331 172.59 209.053 172.135Z" fill="#FAFAFA"/>
<path d="M151.406 172.508L181.212 155.254C182.616 154.447 183.739 155.02 183.739 156.541C183.679 157.39 183.418 158.214 182.979 158.943C182.54 159.673 181.935 160.289 181.212 160.74L151.406 177.948C150.002 178.755 148.868 178.182 148.868 176.673C148.937 175.829 149.202 175.013 149.643 174.29C150.084 173.566 150.688 172.956 151.406 172.508Z" fill="#FAFAFA"/>
<path d="M188.651 151.007L216.212 135.086C217.616 134.279 218.75 134.852 218.75 136.373C218.687 137.223 218.424 138.046 217.983 138.776C217.542 139.506 216.935 140.121 216.212 140.573L188.651 156.493C187.248 157.301 186.113 156.727 186.113 155.207C186.178 154.357 186.442 153.534 186.883 152.805C187.324 152.076 187.93 151.46 188.651 151.007Z" fill="#FAFAFA"/>
<path d="M223.815 130.689L243.491 119.33C244.895 118.523 246.029 119.096 246.029 120.617C245.969 121.471 245.708 122.299 245.267 123.033C244.826 123.767 244.217 124.386 243.491 124.84L223.815 136.198C222.423 137.006 221.288 136.432 221.288 134.923C221.346 134.068 221.605 133.239 222.044 132.503C222.483 131.767 223.09 131.146 223.815 130.689Z" fill="#FAFAFA"/>
<path d="M151.406 221.933L181.212 204.726C182.616 203.918 183.739 204.492 183.739 206.001C183.679 206.852 183.419 207.677 182.98 208.409C182.541 209.141 181.935 209.759 181.212 210.212L151.406 227.419C150.002 228.227 148.867 227.653 148.867 226.133C148.931 225.283 149.194 224.459 149.635 223.73C150.076 223 150.683 222.385 151.406 221.933Z" fill="#FAFAFA"/>
<path d="M188.652 200.361L216.212 184.499C217.616 183.691 218.75 184.265 218.75 185.774C218.689 186.626 218.426 187.451 217.985 188.183C217.544 188.915 216.937 189.532 216.212 189.985L188.652 205.894C187.248 206.701 186.113 206.128 186.113 204.619C186.17 203.759 186.429 202.925 186.87 202.185C187.312 201.445 187.922 200.819 188.652 200.361Z" fill="#FAFAFA"/>
<path d="M223.815 180.042L243.491 168.683C244.895 167.876 246.029 168.449 246.029 169.958C245.968 170.811 245.706 171.636 245.264 172.368C244.823 173.1 244.216 173.717 243.491 174.17L223.815 185.528C222.423 186.336 221.288 185.762 221.288 184.242C221.352 183.393 221.613 182.571 222.052 181.841C222.491 181.112 223.095 180.496 223.815 180.042Z" fill="#FAFAFA"/>
<path d="M151.406 188.979L207.556 156.529C208.948 155.722 210.083 156.295 210.083 157.816C210.019 158.665 209.758 159.487 209.319 160.216C208.88 160.946 208.276 161.562 207.556 162.015L151.406 194.465C150.002 195.273 148.867 194.699 148.867 193.179C148.931 192.329 149.194 191.505 149.635 190.776C150.076 190.046 150.683 189.431 151.406 188.979Z" fill="#FAFAFA"/>
<path d="M215.755 151.814L242.66 136.302C244.064 135.495 245.199 136.068 245.199 137.578C245.137 138.43 244.875 139.255 244.434 139.987C243.992 140.719 243.385 141.336 242.66 141.789L215.755 157.3C214.351 158.107 213.216 157.534 213.228 156.013C213.291 155.165 213.553 154.342 213.992 153.613C214.431 152.884 215.035 152.267 215.755 151.814Z" fill="#FAFAFA"/>
<path d="M96.4734 193.447C72.9138 207.063 53.8111 240.133 53.8228 267.342C53.8345 294.552 72.9255 305.583 96.4851 291.978C120.045 278.374 139.159 245.28 139.136 218.083C139.112 190.885 120.01 179.819 96.4734 193.447Z" fill="#F0EBFF"/>
<path d="M114.3 258.195C106.346 257.867 85.2191 255.177 85.2191 255.177C78.9216 251.075 73.8367 245.362 70.492 238.632C67.1473 231.901 65.6648 224.398 66.1983 216.901L66.6662 210.327C67.0621 204.265 69.512 198.519 73.6119 194.036C77.7119 189.554 83.2171 186.602 89.2198 185.668C92.8466 185.119 96.5504 185.392 100.057 186.468C103.564 187.543 106.785 189.393 109.48 191.881C112.176 194.368 114.278 197.43 115.63 200.84C116.983 204.25 117.552 207.92 117.295 211.579C117.061 214.807 117.412 217.755 119.634 220.282C120.912 221.553 122.328 222.675 123.857 223.628C126.029 225.038 127.921 226.839 129.437 228.939C130.188 229.995 130.713 231.194 130.981 232.462C131.249 233.729 131.253 235.039 130.993 236.308C130.544 237.923 129.643 239.376 128.396 240.496C128.17 240.653 128.015 240.893 127.963 241.163C127.971 241.359 128.032 241.549 128.139 241.713C130.034 245.152 130.595 249.585 128.572 252.954C127.192 255.055 125.124 256.61 122.723 257.353C120.349 258.08 117.868 258.396 115.388 258.289C115.107 258.195 114.698 258.195 114.3 258.195Z" fill="#353535"/>
<path d="M77.0415 258.406C76.4503 262.81 74.1523 266.805 70.6427 269.53C69.4883 270.437 68.2024 271.163 66.8292 271.683L60.8282 290.294C56.4064 285.089 53.8094 277.286 53.8094 267.319C53.8407 263.311 54.2322 259.314 54.9792 255.376C58.0558 247.749 61.998 244.567 70.5843 243.678C71.0054 243.935 78.4921 249.024 77.0415 258.406Z" fill="#FFA8A7"/>
<path d="M168.696 257.552C163.634 266.372 158.125 274.926 152.19 283.183C150.716 285.148 146.599 290.576 144.446 291.102C141.709 291.781 139.381 289.616 137.919 288.61C132.959 285.171 107.294 259.658 107.294 259.658C99.3041 248.522 101.316 241.421 102.404 241.409C103.492 241.398 111.681 239.257 118.688 246.089C123.998 251.271 142.142 270.022 142.142 270.022C146.423 264.992 149.231 262.501 153.501 257.459C155.583 255.002 158.753 252.359 158.893 248.978C158.879 247.433 158.742 245.892 158.484 244.369C158.226 240.846 158.45 237.303 159.151 233.841C159.165 233.683 159.204 233.529 159.268 233.385C159.382 233.191 159.56 233.042 159.771 232.963C160.164 232.849 160.584 232.868 160.965 233.019C161.347 233.169 161.667 233.442 161.876 233.794C162.278 234.51 162.499 235.313 162.52 236.134C162.54 236.939 162.715 237.733 163.034 238.473C163.102 238.625 163.206 238.758 163.339 238.859C163.487 238.958 163.663 239.007 163.842 239C164.812 239 165.339 237.947 165.69 237.175C166.536 235.368 167.217 233.489 167.725 231.56C168.076 230.238 168.684 228.963 169.141 227.653C169.319 226.876 169.727 226.171 170.31 225.629C171.363 224.845 172.861 225.278 174.042 225.875C174.694 226.199 175.309 226.591 175.879 227.044C177.561 228.58 178.671 230.643 179.025 232.893C179.499 235.497 179.322 238.177 178.511 240.696C177.507 244.241 175.84 247.564 173.598 250.487C172.007 252.85 170.193 255.084 168.696 257.552Z" fill="#FFA8A7"/>
<path d="M111.597 274.092L111.304 280.351C106.903 284.868 101.918 288.778 96.4832 291.979C91.6584 294.904 86.2897 296.818 80.7027 297.605C76.7733 298.136 72.7736 297.682 69.0633 296.283L69.9407 293.523L66.8056 271.706C67.2746 271.26 67.6906 270.762 68.0456 270.22C68.2211 269.975 68.3965 269.706 68.5954 269.39C68.8221 269.039 69.0291 268.676 69.2154 268.302C69.3558 268.045 69.4844 267.776 69.6248 267.483C69.7652 267.191 69.8939 266.898 70.0342 266.582L70.2682 266.056C70.4086 265.705 70.5489 265.319 70.6893 264.886C70.7353 264.776 70.7744 264.662 70.8063 264.547C71.4685 262.549 71.9386 260.493 72.2101 258.406C73.3798 249.737 71.2274 244.544 70.5372 243.655C70.8999 243.538 78.8779 243.093 78.8779 243.093L94.8689 241.221L102.531 241.514C108.367 245.12 112.881 250.516 115.399 256.897C119.481 266.945 111.597 274.092 111.597 274.092Z" fill="#FAFAFA"/>
<path opacity="0.1" d="M80.7027 297.606C76.7733 298.137 72.7736 297.683 69.0633 296.284L69.9407 293.524L66.8056 271.707C67.2746 271.261 67.6906 270.762 68.0456 270.221C68.2211 269.976 68.3965 269.707 68.5954 269.391C68.8221 269.04 69.0291 268.677 69.2154 268.303C69.3558 268.045 69.4844 267.776 69.6248 267.484C69.7652 267.192 69.8939 266.899 70.0342 266.583L70.2682 266.057C70.4086 265.706 70.5489 265.32 70.6893 264.887C70.7353 264.777 70.7744 264.663 70.8063 264.548C70.7361 265.718 70.6425 267.542 70.6191 269.519C70.5859 271.754 70.6875 273.988 70.9233 276.211C71.6251 281.919 77.7432 294.366 80.1412 296.343C80.3486 296.475 80.5124 296.665 80.6122 296.89C80.7121 297.115 80.7436 297.364 80.7027 297.606Z" fill="#858585"/>
<path d="M110.79 200.115C112.299 201.916 114.171 206.49 112.627 221.054C111.317 233.396 107.059 236.121 104.977 236.835C102.894 237.548 99.0575 236.683 95.3375 235.747L94.8345 241.771C98.4037 244.567 101.463 247.959 103.877 251.796C106.731 256.71 93.0915 257.645 85.0434 250.053C80.7385 245.994 78.0246 243.128 78.0246 243.128L79.6038 225.277C79.6038 225.277 77.2642 227.254 73.7549 223.651C70.8772 220.68 70.2455 216.012 72.8307 213.743C73.5069 213.21 74.3 212.846 75.1447 212.68C75.9894 212.514 76.8615 212.552 77.6888 212.79C78.5162 213.027 79.2751 213.458 79.903 214.047C80.5309 214.636 81.0098 215.366 81.3 216.176C81.3 216.176 87.3011 216.902 95.6768 213.158C104.052 209.415 109.855 204.864 110.79 200.115Z" fill="#FFA8A7"/>
<path d="M99.6783 217.124C99.687 217.34 99.651 217.556 99.5725 217.757C99.494 217.959 99.3747 218.142 99.2221 218.295C99.0695 218.448 98.8869 218.568 98.6858 218.647C98.4846 218.726 98.2693 218.762 98.0533 218.754C97.8374 218.746 97.6254 218.694 97.4308 218.6C97.2361 218.506 97.063 218.373 96.9223 218.208C96.7815 218.044 96.6763 217.853 96.613 217.646C96.5498 217.44 96.53 217.222 96.5549 217.007C96.5462 216.792 96.5822 216.576 96.6607 216.375C96.7392 216.173 96.8585 215.99 97.0111 215.837C97.1637 215.684 97.3463 215.564 97.5474 215.485C97.7485 215.406 97.9638 215.37 98.1798 215.378C98.3958 215.386 98.6078 215.438 98.8024 215.532C98.9971 215.626 99.1702 215.759 99.3109 215.924C99.4516 216.088 99.5569 216.279 99.6201 216.486C99.6833 216.692 99.7031 216.91 99.6783 217.124Z" fill="#353535"/>
<path d="M97.9227 226.915L101.935 228.564C101.839 228.834 101.69 229.082 101.496 229.293C101.302 229.504 101.067 229.673 100.806 229.791C100.545 229.909 100.263 229.973 99.9764 229.979C99.69 229.986 99.4053 229.934 99.1393 229.828C98.6095 229.582 98.1909 229.147 97.9658 228.608C97.7406 228.069 97.7253 227.465 97.9227 226.915Z" fill="#F74949"/>
<path d="M112.45 213.989L109.034 212.27C109.135 212.041 109.281 211.834 109.464 211.664C109.646 211.493 109.862 211.361 110.098 211.277C110.333 211.193 110.584 211.157 110.833 211.173C111.083 211.189 111.327 211.256 111.55 211.369C112.007 211.607 112.355 212.012 112.523 212.499C112.69 212.987 112.664 213.52 112.45 213.989Z" fill="#353535"/>
<path d="M110.791 217.685C110.768 217.989 110.656 218.279 110.47 218.52C110.283 218.761 110.03 218.942 109.742 219.04C109.454 219.139 109.143 219.15 108.849 219.074C108.554 218.997 108.288 218.836 108.084 218.61C107.88 218.384 107.747 218.103 107.701 217.802C107.655 217.501 107.699 217.193 107.826 216.916C107.954 216.64 108.16 216.407 108.418 216.246C108.677 216.086 108.977 216.004 109.282 216.013C109.491 216.023 109.696 216.075 109.885 216.165C110.074 216.254 110.243 216.381 110.383 216.536C110.523 216.691 110.632 216.873 110.701 217.07C110.771 217.267 110.802 217.476 110.791 217.685Z" fill="#353535"/>
<path d="M104.543 215.452L103.619 225.57L108.673 224.459L104.543 215.452Z" fill="#F28F8F"/>
<path d="M95.3372 235.747C91.395 234.893 83.417 231.864 82.4695 228.53C82.8443 230.209 83.7264 231.732 84.9962 232.893C87.2656 235.233 95.1851 238.216 95.1851 238.216L95.3372 235.747Z" fill="#F28F8F"/>
<path d="M80.3878 220.657C81.2162 220.657 82.0106 220.328 82.5964 219.742C83.1821 219.156 83.5112 218.362 83.5112 217.533C83.5112 216.705 83.1821 215.91 82.5964 215.325C82.0106 214.739 81.2162 214.41 80.3878 214.41V220.657Z" fill="#353535"/>
<path d="M187.567 32.9812C188.414 31.5066 189.643 30.2869 191.123 29.4501L239.521 1.68934C243.761 -0.754387 253.792 2.55686 253.792 9.36264V53.2275C253.792 54.8947 253.351 56.5322 252.515 57.9742C251.678 59.4162 250.475 60.6113 249.027 61.4384L211.65 82.7355L218.102 79.0699L215.01 87.8551C214.963 87.9807 214.87 88.0835 214.75 88.1426C214.629 88.2017 214.491 88.2124 214.363 88.1728C213.813 87.8917 211.381 86.5843 210.001 85.729H209.903C209.903 85.729 209.805 85.729 209.781 85.6191L209.023 84.3972L200.605 89.1991C199.21 90.0702 197.61 90.557 195.967 90.6102C194.323 90.6634 192.695 90.281 191.247 89.5018C189.8 88.7227 188.584 87.5745 187.723 86.1738C186.862 84.773 186.387 83.1695 186.345 81.5258V37.6121C186.347 35.989 186.768 34.3938 187.567 32.9812Z" fill="#E16EF4"/>
<path opacity="0.2" d="M209.781 85.4711C209.781 85.4711 209.854 85.5444 209.903 85.581H210.001C211.381 86.4974 213.813 87.8048 214.363 88.0248C214.236 87.9939 214.126 87.915 214.057 87.8048L211.064 82.9174L211.65 82.5752L209.023 84.0781L209.781 85.4711Z" fill="white"/>
<path opacity="0.4" d="M196.963 38.3192C197.568 37.0944 198.431 36.0149 199.492 35.1546C199.857 34.869 200.241 34.6077 200.64 34.3726L249.038 6.59966C249.516 6.3223 250.059 6.17596 250.612 6.17541C251.164 6.17487 251.707 6.32014 252.186 6.59655C252.664 6.87297 253.061 7.27074 253.337 7.7497C253.612 8.22866 253.756 8.77185 253.755 9.32441C253.755 2.51864 243.723 -0.780386 239.483 1.65112L191.122 29.4485C189.65 30.3007 188.435 31.533 187.603 33.0163L196.963 38.3192Z" fill="white"/>
<path opacity="0.2" d="M195.9 86.314V42.5591C195.9 42.1832 195.925 41.8076 195.974 41.435C196.128 40.3486 196.463 39.2957 196.963 38.3192L187.567 32.9797C186.768 34.3923 186.347 35.9874 186.345 37.6105V81.3654C186.387 83.0091 186.862 84.6126 187.723 86.0134C188.584 87.4141 189.8 88.5623 191.247 89.3414C192.695 90.1206 194.323 90.503 195.967 90.4498C197.61 90.3966 199.21 89.9098 200.605 89.0387C200.127 89.313 199.586 89.4569 199.035 89.4559C198.484 89.4549 197.943 89.3091 197.467 89.033C196.99 88.7569 196.595 88.3604 196.32 87.8832C196.045 87.4059 195.9 86.8647 195.9 86.314Z" fill="white"/>
<path d="M233.314 30.7568C235.245 29.6449 237.175 29.3761 238.641 30.2192C241.61 31.8931 241.623 37.3793 238.641 42.4378L236.931 45.4192L226.313 63.7471L215.609 57.6378L213.886 56.6359C210.929 54.9619 210.917 49.488 213.886 44.4172C215.167 42.1553 217.005 40.2583 219.226 38.9066C221.156 37.7947 223.087 37.5259 224.553 38.3568L226.288 39.3343L227.999 36.3652C229.268 34.0762 231.096 32.1465 233.314 30.7568Z" fill="white"/>
</svg>
