<svg width="500" height="140" viewBox="0 0 500 140" fill="none" xmlns="http://www.w3.org/2000/svg">
<rect width="500" height="140" rx="20" fill="#765EEB"/>
<mask id="mask0_1253_806" style="mask-type:alpha" maskUnits="userSpaceOnUse" x="0" y="0" width="500" height="140">
<rect width="500" height="140" rx="20" fill="#7D6AF0"/>
</mask>
<g mask="url(#mask0_1253_806)">
<circle cx="41.5" cy="125.5" r="7.5" fill="white" fill-opacity="0.31"/>
<circle cx="27.5" cy="37.5" r="15.5" fill="white" fill-opacity="0.31"/>
<ellipse cx="10.1019" cy="10.2882" rx="10.1019" ry="10.2882" transform="matrix(0.98621 0.165496 -0.184352 0.98286 416.762 100)" fill="white" fill-opacity="0.31"/>
<ellipse cx="24.4628" cy="24.9141" rx="24.4628" ry="24.9141" transform="matrix(0.98621 0.165496 -0.184352 0.98286 473.188 70)" fill="white" fill-opacity="0.31"/>
<ellipse cx="9.0175" cy="20" rx="30.0644" ry="30" fill="url(#paint0_linear_1253_806)"/>
<circle cx="54.5" cy="65.5" r="10.5" fill="url(#paint1_linear_1253_806)"/>
<circle cx="13" cy="89" r="33" fill="url(#paint2_linear_1253_806)"/>
<ellipse cx="41.6887" cy="42.4578" rx="41.6887" ry="42.4578" transform="matrix(0.98621 0.165496 -0.184352 0.98286 425.586 -23.6152)" fill="url(#paint3_linear_1253_806)"/>
<ellipse cx="16.7969" cy="17.1068" rx="16.7969" ry="17.1068" transform="matrix(0.98621 0.165496 -0.184352 0.98286 458.309 94)" fill="url(#paint4_linear_1253_806)"/>
<ellipse cx="10.1019" cy="10.2882" rx="10.1019" ry="10.2882" transform="matrix(0.98621 0.165496 -0.184352 0.98286 410.793 -3)" fill="white" fill-opacity="0.31"/>
</g>
<defs>
<linearGradient id="paint0_linear_1253_806" x1="9.0175" y1="-10" x2="9.0175" y2="50" gradientUnits="userSpaceOnUse">
<stop stop-color="#9959EA"/>
<stop offset="1" stop-color="#F19FFF"/>
</linearGradient>
<linearGradient id="paint1_linear_1253_806" x1="54.5" y1="55" x2="54.5" y2="76" gradientUnits="userSpaceOnUse">
<stop stop-color="#9959EA"/>
<stop offset="1" stop-color="#F19FFF"/>
</linearGradient>
<linearGradient id="paint2_linear_1253_806" x1="13" y1="56" x2="13" y2="122" gradientUnits="userSpaceOnUse">
<stop stop-color="#9959EA"/>
<stop offset="1" stop-color="#F19FFF"/>
</linearGradient>
<linearGradient id="paint3_linear_1253_806" x1="41.6887" y1="0" x2="41.6887" y2="84.9155" gradientUnits="userSpaceOnUse">
<stop stop-color="#9959EA"/>
<stop offset="1" stop-color="#F19FFF"/>
</linearGradient>
<linearGradient id="paint4_linear_1253_806" x1="16.7969" y1="0" x2="16.7969" y2="34.2135" gradientUnits="userSpaceOnUse">
<stop stop-color="#9959EA"/>
<stop offset="1" stop-color="#F19FFF"/>
</linearGradient>
</defs>
</svg>
