<svg width="343" height="191" viewBox="0 0 343 191" fill="none" xmlns="http://www.w3.org/2000/svg">
<rect width="343" height="191" rx="20" fill="#765EEB"/>
<mask id="mask0_1894_1181" style="mask-type:alpha" maskUnits="userSpaceOnUse" x="0" y="0" width="343" height="191">
<rect width="343" height="191" rx="20" fill="#7D6AF0"/>
</mask>
<g mask="url(#mask0_1894_1181)">
<ellipse cx="43.8723" cy="183" rx="10.968" ry="11" fill="white" fill-opacity="0.31"/>
<ellipse cx="38.4349" cy="22.5" rx="15.4549" ry="15.5" fill="white" fill-opacity="0.31"/>
<ellipse cx="13.6316" cy="13.9211" rx="13.6316" ry="13.9211" transform="matrix(0.986132 0.165965 -0.183834 0.982957 334.159 71)" fill="white" fill-opacity="0.31"/>
<ellipse cx="20.006" cy="11" rx="29.977" ry="30" fill="url(#paint0_linear_1894_1181)"/>
<ellipse cx="13.9594" cy="53" rx="5.98256" ry="6" fill="url(#paint1_linear_1894_1181)"/>
<ellipse cx="248.276" cy="148" rx="5.98256" ry="6" fill="url(#paint2_linear_1894_1181)"/>
<ellipse cx="297.633" cy="33.5" rx="7.4782" ry="7.5" fill="url(#paint3_linear_1894_1181)"/>
<ellipse cx="2.99123" cy="157" rx="32.9041" ry="33" fill="url(#paint4_linear_1894_1181)"/>
<ellipse cx="41.5708" cy="42.4536" rx="41.5708" ry="42.4536" transform="matrix(0.986132 0.165965 -0.183834 0.982957 319.654 -23.6152)" fill="url(#paint5_linear_1894_1181)"/>
<ellipse cx="41.5708" cy="42.4536" rx="41.5708" ry="42.4536" transform="matrix(0.986132 0.165965 -0.183834 0.982957 264.814 116)" fill="url(#paint6_linear_1894_1181)"/>
<ellipse cx="10.0733" cy="10.2872" rx="10.0733" ry="10.2872" transform="matrix(0.986132 0.165965 -0.183834 0.982957 304.904 -3)" fill="white" fill-opacity="0.31"/>
<ellipse cx="13.8624" cy="14.1568" rx="13.8624" ry="14.1568" transform="matrix(0.986132 0.165965 -0.183834 0.982957 241.516 169)" fill="white" fill-opacity="0.31"/>
</g>
<defs>
<linearGradient id="paint0_linear_1894_1181" x1="20.006" y1="-19" x2="20.006" y2="41" gradientUnits="userSpaceOnUse">
<stop stop-color="#9959EA"/>
<stop offset="1" stop-color="#F19FFF"/>
</linearGradient>
<linearGradient id="paint1_linear_1894_1181" x1="13.9594" y1="47" x2="13.9594" y2="59" gradientUnits="userSpaceOnUse">
<stop stop-color="#9959EA"/>
<stop offset="1" stop-color="#F19FFF"/>
</linearGradient>
<linearGradient id="paint2_linear_1894_1181" x1="248.276" y1="142" x2="248.276" y2="154" gradientUnits="userSpaceOnUse">
<stop stop-color="#9959EA"/>
<stop offset="1" stop-color="#F19FFF"/>
</linearGradient>
<linearGradient id="paint3_linear_1894_1181" x1="297.632" y1="26" x2="297.632" y2="41" gradientUnits="userSpaceOnUse">
<stop stop-color="#9959EA"/>
<stop offset="1" stop-color="#F19FFF"/>
</linearGradient>
<linearGradient id="paint4_linear_1894_1181" x1="2.99123" y1="124" x2="2.99123" y2="190" gradientUnits="userSpaceOnUse">
<stop stop-color="#9959EA"/>
<stop offset="1" stop-color="#F19FFF"/>
</linearGradient>
<linearGradient id="paint5_linear_1894_1181" x1="41.5708" y1="0" x2="41.5708" y2="84.9071" gradientUnits="userSpaceOnUse">
<stop stop-color="#9959EA"/>
<stop offset="1" stop-color="#F19FFF"/>
</linearGradient>
<linearGradient id="paint6_linear_1894_1181" x1="41.5708" y1="0" x2="41.5708" y2="84.9071" gradientUnits="userSpaceOnUse">
<stop stop-color="#9959EA"/>
<stop offset="1" stop-color="#F19FFF"/>
</linearGradient>
</defs>
</svg>
