<svg width="378" height="248" viewBox="0 0 378 248" fill="none" xmlns="http://www.w3.org/2000/svg">
<path d="M53.7799 134.818L53.5829 134.928L52.9859 135.218L50.7411 136.297L42.4783 140.2L42.3828 140.248L42.335 140.151L35.9947 129.243L36.1857 129.304L24.8423 134.582L24.6453 134.522V134.473L24.5915 134.388L24.49 134.206L24.2811 133.849L23.8691 133.134C23.5945 132.661 23.3259 132.188 23.0512 131.722C22.5139 130.783 21.9766 129.855 21.4512 128.946C20.4004 127.128 19.3736 125.353 18.3944 123.65L18.5855 123.711L7.24207 128.958L7.14655 129.001L7.09282 128.91C5.17638 125.547 3.61815 122.814 2.5256 120.905L1.29573 118.717C1.16439 118.475 1.0629 118.287 0.979314 118.141C0.941734 118.078 0.909767 118.011 0.883789 117.941C0.932555 117.997 0.974645 118.058 1.00916 118.123L1.35544 118.681L2.63903 120.838L7.29581 128.789L7.14655 128.746L18.4183 123.414L18.5377 123.359L18.6094 123.474L21.6721 128.765C22.2034 129.674 22.7348 130.583 23.2781 131.54C23.5527 132.007 23.8214 132.479 24.096 132.952L24.508 133.667L24.7169 134.025L24.8184 134.2L24.8721 134.291V134.34L24.6811 134.279L36.0245 129.013L36.1439 128.958L36.2156 129.074L42.4962 139.982L42.347 139.933L50.6515 136.121L52.9202 135.097L53.5173 134.843C53.6035 134.824 53.6917 134.815 53.7799 134.818Z" fill="#263238"/>
<path d="M377.103 236.493C377.103 236.493 377.055 236.542 376.96 236.614L376.506 236.954L374.763 238.232L368.345 242.85L368.267 242.905L368.219 242.82L362.327 232.518L362.482 232.56L353.676 238.826L353.509 238.784V238.741L353.461 238.656L353.365 238.487L353.174 238.147L352.786 237.475L352.028 236.136L350.536 233.512L347.688 228.512L347.849 228.554C344.535 230.888 341.55 233.002 339.025 234.784L338.953 234.833L338.9 234.748C337.109 231.566 335.658 228.985 334.643 227.179C334.147 226.294 333.765 225.597 333.491 225.106L333.198 224.561C333.132 224.44 333.103 224.373 333.103 224.373C333.103 224.373 333.15 224.428 333.222 224.543L333.532 225.07C333.819 225.549 334.219 226.233 334.726 227.1L339.055 234.614L338.929 234.578L347.73 228.294L347.825 228.227L347.885 228.336L350.739 233.336L352.231 235.954C352.488 236.396 352.739 236.845 352.995 237.293L353.377 237.966L353.574 238.305L353.67 238.475L353.718 238.56V238.602L353.551 238.56L362.363 232.312L362.458 232.245L362.518 232.354L368.375 242.656L368.249 242.626L374.715 238.093C375.467 237.572 376.058 237.16 376.506 236.881L376.966 236.572C377.008 236.54 377.055 236.514 377.103 236.493Z" fill="#263238"/>
<path d="M318.978 36.9016C318.971 36.827 318.971 36.752 318.978 36.6774C318.978 36.5138 319.025 36.2956 319.055 36.0229C319.127 35.4169 319.234 34.5927 319.366 33.5262C319.658 31.3385 320.07 28.2055 320.56 24.3574V24.2544H320.667L333.121 24.7149L332.972 24.8422C333.503 20.9699 334.088 16.7339 334.691 12.3162L334.852 12.1768H335.258H335.67H336.482L338.1 12.2374L341.264 12.3647L347.306 12.6131L347.157 12.7404C347.814 8.03781 348.411 3.79581 348.918 0.214349V0.111328H349.026L358.13 0.523408L360.608 0.650668L361.253 0.693088C361.326 0.683772 361.4 0.683772 361.474 0.693088C361.4 0.699622 361.326 0.699622 361.253 0.693088H360.608L358.124 0.62643L349.014 0.317368L349.169 0.329489C348.685 3.91701 348.106 8.16507 347.468 12.8616V12.9949H347.336L341.294 12.7586L338.13 12.6374L336.512 12.5768L335.7 12.5465H335.288H334.882L335.044 12.4131C334.446 16.8309 333.849 21.0668 333.3 24.9392V25.0725H333.169L320.715 24.5513L320.834 24.4483C320.285 28.2964 319.831 31.4173 319.521 33.605L319.145 36.0956L319.037 36.744C319.022 36.7983 319.002 36.851 318.978 36.9016Z" fill="#263238"/>
<path d="M44.6154 226.531H44.4721L44.0601 226.434L42.4959 226.034L36.7466 224.501L32.7824 223.423L30.5734 222.817L29.4211 222.501L28.8241 222.344C28.6493 222.275 28.4622 222.244 28.2749 222.253C28.0991 222.277 27.937 222.361 27.8161 222.493C27.6952 222.624 27.6231 222.795 27.6122 222.974C27.6177 223.181 27.656 223.386 27.7256 223.58L27.8928 224.186C28.1137 225.041 28.3405 225.913 28.5734 226.798L30.0002 232.252L31.4271 237.736C31.5406 238.185 31.654 238.621 31.7674 239.057C31.8091 239.265 31.8711 239.468 31.9525 239.663C32.0476 239.822 32.1961 239.94 32.3704 239.997C32.542 240.06 32.7302 240.06 32.9018 239.997C33.0729 239.904 33.2249 239.778 33.3495 239.627L34.2451 238.724L40.5078 232.428L44.7586 228.216C44.8792 228.108 44.9891 227.988 45.087 227.858C45.1607 227.74 45.2038 227.604 45.2124 227.465C45.2277 227.247 45.164 227.032 45.0333 226.859C44.9119 226.717 44.761 226.606 44.5915 226.531C44.6382 226.539 44.6842 226.552 44.7288 226.568C44.8656 226.621 44.9869 226.708 45.081 226.822C45.2391 227.006 45.3205 227.245 45.3079 227.489C45.2996 227.645 45.2546 227.797 45.1766 227.931C45.0816 228.074 44.9693 228.205 44.8422 228.319L40.6631 232.603L34.454 238.93L33.5645 239.833L33.3316 240.063C33.2418 240.151 33.1365 240.221 33.0212 240.269C32.789 240.372 32.5278 240.385 32.2868 240.306C32.0379 240.227 31.8257 240.059 31.6898 239.833C31.5913 239.618 31.5172 239.392 31.4689 239.16L31.1286 237.845C30.6629 236.068 30.1853 234.24 29.6958 232.361C29.2062 230.482 28.7346 228.646 28.2749 226.877C28.042 225.986 27.8151 225.119 27.6002 224.265C27.5405 224.053 27.4868 223.841 27.4331 223.659L27.3734 223.338C27.3434 223.219 27.3313 223.096 27.3375 222.974C27.3533 222.725 27.4535 222.49 27.6211 222.307C27.7888 222.125 28.0134 222.007 28.2569 221.974C28.4823 221.965 28.7074 222 28.9196 222.077L29.5167 222.241L30.6689 222.562L32.8779 223.168L36.8302 224.277L42.5497 225.907L44.1019 226.368L44.5019 226.495L44.6154 226.531Z" fill="#263238"/>
<path d="M205.829 11.8005C205.772 11.2646 205.684 10.7324 205.567 10.2068C205.341 9.32754 204.938 8.50586 204.381 7.79461C203.824 7.08336 203.127 6.49828 202.334 6.07703C201.541 5.65577 200.67 5.40766 199.777 5.34867C198.884 5.28967 197.989 5.4211 197.148 5.73448C196.572 5.94214 196.03 6.2385 195.543 6.61319C195.024 6.99485 194.571 7.45944 194.199 7.9888C193.397 9.09391 192.964 10.4307 192.964 11.8036C192.964 13.1764 193.397 14.5132 194.199 15.6183C194.572 16.1445 195.026 16.6069 195.543 16.9879C196.027 17.3772 196.569 17.686 197.148 17.903C198.22 18.2991 199.376 18.3995 200.498 18.1938C201.476 18.0087 202.398 17.5936 203.19 16.9818C204.357 16.0991 205.198 14.8443 205.578 13.4186C205.697 12.8909 205.784 12.3567 205.841 11.8187C205.877 12.3667 205.826 12.9169 205.692 13.4489C205.397 14.6934 204.756 15.8254 203.844 16.7098C202.933 17.5942 201.79 18.1936 200.552 18.4362C199.386 18.6669 198.181 18.5726 197.065 18.1635C196.459 17.9473 195.89 17.6387 195.375 17.2485C194.823 16.8488 194.339 16.3594 193.942 15.8001C193.098 14.6441 192.642 13.2429 192.642 11.8036C192.642 10.3642 193.098 8.96304 193.942 7.807C194.336 7.25841 194.816 6.77933 195.363 6.38896C195.878 6.00061 196.448 5.69409 197.053 5.47996C198.169 5.06886 199.374 4.97252 200.54 5.2012C201.778 5.44432 202.922 6.04455 203.834 6.9301C204.745 7.81565 205.386 8.94903 205.68 10.1946C205.813 10.7186 205.863 11.2606 205.829 11.8005Z" fill="#263238"/>
<path d="M198.558 240.355C198.5 239.819 198.413 239.287 198.295 238.761C197.919 237.332 197.077 236.074 195.907 235.192C195.054 234.542 194.054 234.119 192.999 233.962C191.944 233.804 190.866 233.916 189.865 234.289C189.29 234.499 188.748 234.795 188.259 235.167C187.742 235.551 187.289 236.015 186.916 236.543C186.113 237.648 185.68 238.985 185.68 240.358C185.68 241.731 186.113 243.067 186.916 244.173C187.287 244.7 187.741 245.163 188.259 245.542C188.747 245.918 189.288 246.217 189.865 246.427C190.867 246.8 191.944 246.912 193 246.754C194.055 246.595 195.055 246.17 195.907 245.518C197.075 244.637 197.917 243.381 198.295 241.955C198.413 241.427 198.501 240.893 198.558 240.355C198.594 240.902 198.545 241.452 198.414 241.985C198.12 243.229 197.478 244.362 196.567 245.246C195.655 246.13 194.512 246.73 193.274 246.972C192.107 247.202 190.9 247.108 189.781 246.7C189.174 246.476 188.604 246.159 188.092 245.76C187.552 245.361 187.076 244.878 186.683 244.33C185.838 243.174 185.382 241.773 185.382 240.334C185.382 238.894 185.838 237.493 186.683 236.337C187.459 235.256 188.539 234.439 189.781 233.992C190.825 233.606 191.948 233.496 193.046 233.671C194.143 233.845 195.179 234.3 196.056 234.992C197.24 235.918 198.073 237.23 198.414 238.706C198.548 239.245 198.596 239.801 198.558 240.355Z" fill="#263238"/>
</svg>
