<svg width="66" height="66" viewBox="0 0 66 66" fill="none" xmlns="http://www.w3.org/2000/svg">
<circle cx="33" cy="33" r="33" fill="white"/>
<mask id="path-2-inside-1_202_3" fill="white">
<path d="M63.1884 43.7364C63.6875 43.9139 63.9496 44.4632 63.7576 44.957C61.114 51.7577 56.2862 57.5001 50.0196 61.2725C43.4786 65.2101 35.7747 66.7578 28.2204 65.652C20.6662 64.5463 13.7291 60.8554 8.59112 55.2083C3.45312 49.5611 0.432144 42.3072 0.0429153 34.6824C-0.346313 27.0576 1.9203 19.5337 6.45654 13.3927C10.9928 7.25178 17.518 2.87367 24.9203 1.00439C32.3227 -0.864882 40.1442 -0.109662 47.0521 3.14137C53.6704 6.25606 59.0577 11.477 62.3802 17.9731C62.6214 18.4448 62.4167 19.0179 61.9382 19.2453C61.4597 19.4728 60.8887 19.2684 60.6466 18.7971C57.5154 12.7016 52.4518 7.80294 46.2352 4.87727C39.7288 1.81524 32.3621 1.10393 25.3901 2.86453C18.4181 4.62513 12.2722 8.7487 7.99969 14.5327C3.72718 20.3166 1.59235 27.4031 1.95895 34.5846C2.32555 41.7661 5.17089 48.5983 10.0102 53.9171C14.8495 59.2359 21.3833 62.7123 28.4983 63.7537C35.6134 64.7952 42.8694 63.3375 49.0301 59.6288C54.9165 56.0853 59.4549 50.6964 61.9492 44.3138C62.142 43.8204 62.6892 43.5589 63.1884 43.7364Z"/>
</mask>
<path d="M63.1884 43.7364C63.6875 43.9139 63.9496 44.4632 63.7576 44.957C61.114 51.7577 56.2862 57.5001 50.0196 61.2725C43.4786 65.2101 35.7747 66.7578 28.2204 65.652C20.6662 64.5463 13.7291 60.8554 8.59112 55.2083C3.45312 49.5611 0.432144 42.3072 0.0429153 34.6824C-0.346313 27.0576 1.9203 19.5337 6.45654 13.3927C10.9928 7.25178 17.518 2.87367 24.9203 1.00439C32.3227 -0.864882 40.1442 -0.109662 47.0521 3.14137C53.6704 6.25606 59.0577 11.477 62.3802 17.9731C62.6214 18.4448 62.4167 19.0179 61.9382 19.2453C61.4597 19.4728 60.8887 19.2684 60.6466 18.7971C57.5154 12.7016 52.4518 7.80294 46.2352 4.87727C39.7288 1.81524 32.3621 1.10393 25.3901 2.86453C18.4181 4.62513 12.2722 8.7487 7.99969 14.5327C3.72718 20.3166 1.59235 27.4031 1.95895 34.5846C2.32555 41.7661 5.17089 48.5983 10.0102 53.9171C14.8495 59.2359 21.3833 62.7123 28.4983 63.7537C35.6134 64.7952 42.8694 63.3375 49.0301 59.6288C54.9165 56.0853 59.4549 50.6964 61.9492 44.3138C62.142 43.8204 62.6892 43.5589 63.1884 43.7364Z" fill="#D9D9D9" stroke="#E1E1E1" stroke-width="2" mask="url(#path-2-inside-1_202_3)"/>
</svg>
