<svg width="66" height="66" viewBox="0 0 66 66" fill="none" xmlns="http://www.w3.org/2000/svg">
<circle cx="33" cy="33" r="33" fill="white"/>
<mask id="path-2-inside-1_202_2" fill="white">
<path d="M2.34618 23.6752C1.83932 23.521 1.55211 22.9845 1.72095 22.4823C4.12727 15.3256 8.91972 9.19997 15.3099 5.14211C21.7002 1.08425 29.2824 -0.648152 36.783 0.217539C37.3093 0.278282 37.6727 0.766407 37.5967 1.29071C37.5207 1.81502 37.034 2.17687 36.5076 2.11707C29.4611 1.31661 22.3414 2.94974 16.3384 6.76169C10.3354 10.5736 5.82947 16.323 3.55725 23.0409C3.38751 23.5428 2.85303 23.8294 2.34618 23.6752Z"/>
</mask>
<path d="M2.34618 23.6752C1.83932 23.521 1.55211 22.9845 1.72095 22.4823C4.12727 15.3256 8.91972 9.19997 15.3099 5.14211C21.7002 1.08425 29.2824 -0.648152 36.783 0.217539C37.3093 0.278282 37.6727 0.766407 37.5967 1.29071C37.5207 1.81502 37.034 2.17687 36.5076 2.11707C29.4611 1.31661 22.3414 2.94974 16.3384 6.76169C10.3354 10.5736 5.82947 16.323 3.55725 23.0409C3.38751 23.5428 2.85303 23.8294 2.34618 23.6752Z" fill="#D9D9D9" stroke="#00875F" stroke-width="2" mask="url(#path-2-inside-1_202_2)"/>
</svg>
