<svg width="31" height="21" viewBox="0 0 31 21" fill="none" xmlns="http://www.w3.org/2000/svg">
<g opacity="0.7">
<path d="M7.72 4.79932V15.5H5.95486V6.89404L3.34012 7.78027V6.32275L7.5076 4.79932H7.72ZM18.3987 12.5923C18.3987 13.2563 18.2449 13.8154 17.9373 14.2695C17.6297 14.7236 17.2097 15.0679 16.6775 15.3022C16.1502 15.5317 15.5545 15.6465 14.8904 15.6465C14.2263 15.6465 13.6282 15.5317 13.096 15.3022C12.5638 15.0679 12.1438 14.7236 11.8362 14.2695C11.5286 13.8154 11.3748 13.2563 11.3748 12.5923C11.3748 12.1528 11.4602 11.7549 11.6311 11.3984C11.802 11.0371 12.0437 10.7271 12.3562 10.4683C12.6736 10.2046 13.0447 10.002 13.4695 9.86035C13.8992 9.71875 14.368 9.64795 14.8758 9.64795C15.5496 9.64795 16.1526 9.77246 16.6848 10.0215C17.2171 10.2705 17.6346 10.6147 17.9373 11.0542C18.2449 11.4937 18.3987 12.0063 18.3987 12.5923ZM16.6263 12.5044C16.6263 12.1479 16.553 11.8354 16.4065 11.5669C16.26 11.2983 16.055 11.0908 15.7913 10.9443C15.5276 10.7979 15.2224 10.7246 14.8758 10.7246C14.5242 10.7246 14.219 10.7979 13.9602 10.9443C13.7014 11.0908 13.4988 11.2983 13.3523 11.5669C13.2107 11.8354 13.1399 12.1479 13.1399 12.5044C13.1399 12.8657 13.2107 13.1782 13.3523 13.4419C13.4939 13.7007 13.6966 13.8984 13.9602 14.0352C14.2239 14.1719 14.534 14.2402 14.8904 14.2402C15.2469 14.2402 15.5545 14.1719 15.8133 14.0352C16.0721 13.8984 16.2722 13.7007 16.4138 13.4419C16.5555 13.1782 16.6263 12.8657 16.6263 12.5044ZM18.157 7.64111C18.157 8.17334 18.0154 8.64697 17.7322 9.06201C17.4539 9.47705 17.0681 9.8042 16.575 10.0435C16.0818 10.2778 15.5203 10.395 14.8904 10.395C14.2556 10.395 13.6892 10.2778 13.1912 10.0435C12.698 9.8042 12.3098 9.47705 12.0266 9.06201C11.7483 8.64697 11.6092 8.17334 11.6092 7.64111C11.6092 7.00635 11.7483 6.47168 12.0266 6.03711C12.3098 5.59766 12.698 5.26318 13.1912 5.03369C13.6844 4.8042 14.2483 4.68945 14.8831 4.68945C15.5179 4.68945 16.0818 4.8042 16.575 5.03369C17.0681 5.26318 17.4539 5.59766 17.7322 6.03711C18.0154 6.47168 18.157 7.00635 18.157 7.64111ZM16.3919 7.69971C16.3919 7.38232 16.3284 7.104 16.2014 6.86475C16.0794 6.62061 15.906 6.43018 15.6814 6.29346C15.4568 6.15674 15.1907 6.08838 14.8831 6.08838C14.5755 6.08838 14.3094 6.1543 14.0847 6.28613C13.8601 6.41797 13.6868 6.60352 13.5647 6.84277C13.4427 7.08203 13.3816 7.36768 13.3816 7.69971C13.3816 8.02686 13.4427 8.3125 13.5647 8.55664C13.6868 8.7959 13.8601 8.98389 14.0847 9.12061C14.3142 9.25732 14.5828 9.32568 14.8904 9.32568C15.198 9.32568 15.4641 9.25732 15.6888 9.12061C15.9134 8.98389 16.0867 8.7959 16.2088 8.55664C16.3308 8.3125 16.3919 8.02686 16.3919 7.69971ZM26.9388 9.65527V11.2446H19.6292V9.65527H26.9388ZM24.1409 6.66699V14.4307H22.4344V6.66699H24.1409Z" fill="black"/>
<rect x="0.595001" y="1" width="29" height="19" stroke="black"/>
</g>
</svg>
