<svg width="14" height="11" viewBox="0 0 14 11" fill="none" xmlns="http://www.w3.org/2000/svg">
<path d="M7 5.71875C7.28125 5.4375 7.28125 4.96875 7 4.65625L2.75 0.40625C2.4375 0.125 1.96875 0.125 1.6875 0.40625L0.96875 1.125C0.6875 1.4375 0.6875 1.90625 0.96875 2.1875L4 5.21875L0.96875 8.21875C0.6875 8.5 0.6875 8.96875 0.96875 9.28125L1.6875 9.96875C1.96875 10.2812 2.4375 10.2812 2.75 9.96875L7 5.71875ZM13 4.65625L8.75 0.40625C8.4375 0.125 7.96875 0.125 7.6875 0.40625L6.96875 1.125C6.6875 1.40625 6.6875 1.90625 6.96875 2.1875L10 5.1875L6.96875 8.21875C6.6875 8.5 6.6875 8.96875 6.96875 9.28125L7.6875 9.96875C7.96875 10.2812 8.46875 10.2812 8.75 9.96875L13 5.71875C13.2812 5.4375 13.2812 4.96875 13 4.65625Z" fill="#6862ED" fill-opacity="0.71"/>
</svg>
