<svg width="102" height="102" viewBox="0 0 102 102" fill="none" xmlns="http://www.w3.org/2000/svg">
<path d="M68.5053 15.5652C61.1613 14.433 53.5827 15.6672 47.9197 20.2572C42.4117 24.7227 39.9127 32.1973 34.1681 36.3487C25.2961 42.7726 12.695 40.6388 7.5481 52.1709C5.7121 56.2876 5.23882 60.8878 5.3041 65.3942C5.37958 71.0389 6.29962 76.7509 8.73742 81.8407C11.1752 86.9305 15.2348 91.3716 20.4287 93.5788C28.095 96.8428 36.9792 94.8906 44.6741 91.7061C47.8483 90.3944 51.0348 88.8501 54.4661 88.6747C58.7868 88.4482 62.877 90.3964 66.9815 91.7653C71.906 93.4116 77.361 94.2398 82.2509 92.4895C86.0779 91.1206 89.2236 88.283 91.7471 85.0965C96.2557 79.3802 99.0278 72.4893 99.7337 65.2432C101.69 44.7127 91.0963 19.0434 68.5053 15.5652Z" fill="#6862ED"/>
<path opacity="0.7" d="M68.5053 15.5652C61.1613 14.433 53.5827 15.6672 47.9197 20.2572C42.4117 24.7227 39.9127 32.1973 34.1681 36.3487C25.2961 42.7726 12.695 40.6388 7.5481 52.1709C5.7121 56.2876 5.23882 60.8878 5.3041 65.3942C5.37958 71.0389 6.29962 76.7509 8.73742 81.8407C11.1752 86.9305 15.2348 91.3716 20.4287 93.5788C28.095 96.8428 36.9792 94.8906 44.6741 91.7061C47.8483 90.3944 51.0348 88.8501 54.4661 88.6747C58.7868 88.4482 62.877 90.3964 66.9815 91.7653C71.906 93.4116 77.361 94.2398 82.2509 92.4895C86.0779 91.1206 89.2236 88.283 91.7471 85.0965C96.2557 79.3802 99.0278 72.4893 99.7337 65.2432C101.69 44.7127 91.0963 19.0434 68.5053 15.5652Z" fill="white"/>
<path d="M57.9461 47.8054C56.7914 48.2297 54.0435 48.0094 54.0415 48.0094C54.0395 48.0094 54.7412 46.2427 54.8004 46.1366C55.4797 44.9126 57.5156 42.94 59.0558 43.2439C60.1676 43.4622 60.7225 44.6209 60.4063 45.6593C60.0901 46.6976 58.9293 47.4443 57.9461 47.8054Z" fill="#6862ED"/>
<path d="M22.4624 36.2651C24.0312 36.1917 25.755 38.4398 26.2486 39.7515C26.2894 39.8657 26.7525 41.718 26.724 41.716H26.6893C26.9647 42.0689 27.2564 42.4504 27.5644 42.8747C28.1295 43.6601 28.7599 44.5536 29.38 45.5716C30.0622 46.661 30.6793 47.7897 31.2283 48.9519C31.8506 50.2493 32.3558 51.5997 32.7379 52.987L32.7501 53.038C32.7685 52.579 32.8664 51.2958 32.8848 51.202C33.15 49.825 34.4678 47.326 36.0264 47.122C37.1504 46.9833 38.0378 47.9094 38.0664 48.9947C38.0949 50.08 37.2238 51.1592 36.4017 51.8099C35.4756 52.5423 32.9868 53.1543 32.7889 53.2032C33.1433 54.6246 33.4023 56.0681 33.5641 57.524C33.664 58.3726 33.7375 59.2294 33.7987 60.0903C33.8293 59.6823 33.8578 59.3375 33.868 59.2886C34.1312 57.9116 35.4511 55.4126 37.0096 55.2086C38.1337 55.0698 39.0211 55.998 39.0496 57.0833C39.0782 58.1686 38.2071 59.2457 37.387 59.8965C36.567 60.5472 34.4433 61.1205 33.8823 61.2633C33.9027 61.5938 33.9272 61.9222 33.9456 62.2527C34.0394 63.8378 34.1251 65.4208 34.2577 66.9692C34.3046 67.5138 34.3699 68.0504 34.4331 68.5869C34.4596 68.234 34.4862 67.9382 34.4943 67.8933C34.7575 66.5163 36.0774 64.0173 37.6359 63.8133C38.7579 63.6746 39.6474 64.6007 39.6759 65.686C39.7045 66.7713 38.8334 67.8504 38.0113 68.5012C37.1892 69.152 35.2736 69.6701 34.6086 69.8415C34.6902 70.3882 34.7718 70.937 34.8758 71.4633C34.9533 71.8223 35.0064 72.1712 35.1043 72.5282C35.2022 72.8852 35.2858 73.232 35.3756 73.5788C35.5796 74.2397 35.7714 74.9231 35.9774 75.5637C36.1202 76.0104 36.263 76.4327 36.4058 76.8591C36.3528 76.3164 36.2732 75.2516 36.2753 75.1618C36.3675 73.9317 36.7727 72.7457 37.4523 71.7162C37.4571 71.579 37.4742 71.4424 37.5033 71.3082C37.74 70.2474 38.7926 69.513 39.8677 69.87C41.3589 70.3658 42.1586 73.083 42.1464 74.4845C42.1464 74.5682 42.0362 75.4637 41.9587 76.0288C42.0566 75.7044 42.1443 75.3882 42.2484 75.0537C42.4524 74.3927 42.6564 73.7399 42.8971 73.0361L43.2745 72.0161C43.3928 71.6734 43.5601 71.3286 43.7049 70.9798C44.0538 70.1781 44.4454 69.3825 44.8596 68.591C44.2802 68.4155 42.2382 67.7607 41.4426 67.0712C40.647 66.3816 39.835 65.2902 39.9085 64.1846C39.9819 63.0789 40.9122 62.216 42.028 62.4057C43.5764 62.6688 44.78 65.2331 44.9799 66.6203C44.9922 66.708 45.0228 67.7199 45.0309 68.2768C45.2818 67.8015 45.5307 67.3282 45.802 66.8488C46.5834 65.4861 47.4157 64.1336 48.25 62.779C48.503 62.371 48.7498 61.9487 48.9987 61.5346C48.7947 61.4734 46.3467 60.7492 45.4573 59.976C44.6658 59.2886 43.8477 58.1951 43.9232 57.0894C43.9987 55.9838 44.9248 55.1208 46.0407 55.3106C47.5891 55.5737 48.7927 58.138 48.9926 59.5252C49.0089 59.6313 49.0518 61.0878 49.0436 61.4571C49.5924 60.5432 50.1289 59.6211 50.6226 58.699C51.2955 57.4523 51.8863 56.163 52.3913 54.8393C52.2954 54.8108 49.7393 54.0662 48.8274 53.2746C48.0359 52.5892 47.2198 51.4937 47.2933 50.388C47.3667 49.2824 48.297 48.4194 49.4128 48.6092C50.9612 48.8723 52.1628 51.4366 52.3647 52.8258C52.379 52.934 52.4259 54.5007 52.4137 54.7863C52.4422 54.7088 52.481 54.6333 52.5096 54.5558C52.979 53.2144 53.3285 51.834 53.554 50.4309C53.6887 49.6577 53.7723 48.9111 53.8396 48.1869C53.3501 48.0971 51.1142 47.6606 50.2146 47.0384C49.3516 46.4427 48.4194 45.4451 48.3786 44.3374C48.3378 43.2297 49.1599 42.2709 50.288 42.3362C51.8568 42.428 53.3337 44.8454 53.6846 46.2122C53.705 46.2856 53.8152 47.0567 53.8886 47.6218C53.9131 47.2913 53.9457 46.9527 53.9641 46.6365C54.0334 45.4512 54.0232 44.3619 54.0069 43.3949C53.9926 42.8462 53.9702 42.3504 53.9437 41.8874C53.5092 41.5467 51.7731 40.1574 51.2692 39.2109C50.7654 38.2643 50.4124 36.9669 50.8796 35.9632C51.3468 34.9595 52.5259 34.4903 53.4969 35.0676C54.8474 35.8836 55.0453 38.6988 54.7311 40.0656C54.7026 40.184 54.0681 41.9812 54.0437 41.9649L54.0171 41.9445C54.0518 42.3892 54.0844 42.8686 54.1089 43.3929C54.1456 44.3598 54.1803 45.4512 54.1354 46.6426C54.1024 47.9275 53.9948 49.2094 53.8131 50.4819C53.6154 51.908 53.2911 53.3136 52.8441 54.6822C52.8393 54.6983 52.8331 54.714 52.8258 54.7292C53.0951 54.3579 53.8866 53.3399 53.9559 53.2685C54.9351 52.2669 57.4239 50.9021 58.8234 51.6018C59.8434 52.1078 60.0678 53.3705 59.4864 54.2885C58.905 55.2065 57.5912 55.6288 56.5467 55.7165C55.3696 55.8165 52.9563 54.9556 52.7646 54.8862C52.2671 56.2691 51.6775 57.6172 51 58.9214C50.6164 59.6823 50.2044 60.4371 49.776 61.1898C50.0187 60.8757 50.2411 60.5962 50.2758 60.5595C51.255 59.5558 53.7438 58.1931 55.1432 58.8928C56.1632 59.3967 56.3856 60.6594 55.8083 61.5795C55.2309 62.4995 53.911 62.9198 52.8666 63.0075C51.8221 63.0952 49.7352 62.4057 49.1946 62.2139C49.0293 62.5016 48.8682 62.7892 48.7009 63.0768C47.9053 64.4498 47.1036 65.8166 46.359 67.1813C46.0978 67.6607 45.8571 68.1442 45.6123 68.6277C45.8306 68.3482 46.0203 68.1156 46.0468 68.081C47.026 67.0793 49.5148 65.7146 50.9163 66.4143C51.9363 66.9202 52.1587 68.183 51.5793 69.101C51 70.019 49.6821 70.4412 48.6397 70.529C47.6197 70.6146 45.7102 69.9924 45.0595 69.7701C44.8269 70.2719 44.5923 70.7738 44.3883 71.2695C44.2557 71.6122 44.1048 71.9325 43.9926 72.2895C43.8804 72.6465 43.7559 72.977 43.6396 73.3095C43.4356 73.9704 43.2316 74.6498 43.046 75.2985C42.9175 75.7493 42.8032 76.1818 42.687 76.6163C42.942 76.1328 43.4642 75.2006 43.5152 75.1292C44.3312 73.9888 46.5752 72.2732 48.0766 72.7424C49.1538 73.0892 49.572 74.3009 49.1374 75.2964C48.7029 76.292 47.4667 76.9101 46.4487 77.1549C45.3267 77.4242 42.9073 76.9713 42.6054 76.9121C42.4156 77.6322 42.2382 78.3401 42.0811 78.997C42.0464 79.1398 42.0178 79.2683 41.9852 79.405H41.004C41.057 79.201 41.11 78.9848 41.1672 78.7685C41.3569 78.0362 41.5752 77.2589 41.8057 76.4633C41.0903 76.1238 40.3949 75.7437 39.7228 75.325C38.8681 76.141 36.7506 77.0386 36.4772 77.161C36.7159 77.8648 36.9546 78.5482 37.1892 79.1888L37.2728 79.4132H36.2916C36.0549 78.7216 35.8183 77.9852 35.5816 77.2242C35.2818 77.2671 32.8399 77.6118 31.7301 77.2916C30.7244 76.9998 29.5228 76.347 29.1271 75.3107C28.7313 74.2744 29.2148 73.1034 30.3062 72.8097C31.8219 72.4017 33.9884 74.2234 34.7534 75.4005C34.7983 75.4698 35.2022 76.2777 35.449 76.7918C35.3491 76.4674 35.245 76.1532 35.1512 75.8187C34.9472 75.1577 34.7758 74.4927 34.582 73.7787C34.4984 73.4298 34.4168 73.0769 34.3332 72.722C34.2495 72.367 34.1924 71.9896 34.119 71.6183C33.968 70.7574 33.8578 69.8782 33.764 68.9908C33.1867 69.1622 31.112 69.7436 30.0777 69.6028C29.0434 69.462 27.7542 69.0051 27.2054 68.0402C26.6566 67.0752 26.9565 65.8451 27.9908 65.3882C29.4188 64.7537 31.8464 66.2286 32.7787 67.2772C32.8378 67.3425 33.4213 68.1687 33.7334 68.6297C33.6824 68.0952 33.6294 67.5608 33.5947 67.0181C33.4947 65.4534 33.4437 63.8643 33.3907 62.2792C33.3744 61.7937 33.3499 61.3102 33.3295 60.8267C33.1255 60.89 30.6775 61.6427 29.5147 61.4816C28.4763 61.3469 27.1911 60.8838 26.6424 59.9189C26.0936 58.954 26.3935 57.7239 27.4278 57.2669C28.866 56.6325 31.2834 58.1074 32.2156 59.156C32.287 59.2355 33.1255 60.4248 33.3254 60.739C33.2764 59.6721 33.2193 58.6113 33.1214 57.5668C32.9952 56.1559 32.7764 54.7548 32.4666 53.3726C32.3727 53.4032 29.8288 54.1886 28.6314 54.0335C27.593 53.8968 26.3078 53.4358 25.7611 52.4709C25.2144 51.506 25.5102 50.2758 26.5465 49.8189C27.9745 49.1844 30.4001 50.6594 31.3344 51.7079C31.4058 51.7895 32.3095 53.0706 32.4564 53.3154C32.438 53.2359 32.4278 53.1502 32.4074 53.0706C32.0605 51.6925 31.5907 50.3482 31.0039 49.0539C30.6897 48.3358 30.3491 47.6646 30.0023 47.0139C29.5433 47.2179 27.438 48.0808 26.3466 48.0584C25.298 48.0359 23.97 47.7177 23.3192 46.8201C22.6684 45.9225 22.8316 44.6658 23.8088 44.0987C25.1674 43.3092 27.7338 44.5067 28.7762 45.4492C28.8313 45.5002 29.3515 46.0836 29.7228 46.512C29.5616 46.2244 29.4004 45.9245 29.2413 45.6512C28.6456 44.6312 28.0357 43.7193 27.491 42.9237C27.1768 42.4728 26.879 42.073 26.6036 41.6997C26.0548 41.6568 23.8414 41.4549 22.8969 40.9428C21.9524 40.4308 20.9467 39.5454 20.7814 38.45C20.6162 37.3545 21.3322 36.312 22.4624 36.2651Z" fill="#6862ED"/>
<path d="M30.0758 46.7323C30.0513 46.7466 29.6862 44.8739 29.6678 44.7535C29.5577 43.3541 30.1697 40.5878 31.6221 39.9921C32.6687 39.5617 33.7703 40.2206 34.0701 41.261C34.37 42.3014 33.8294 43.5723 33.2093 44.4149C32.4953 45.4063 30.0779 46.7303 30.0758 46.7323Z" fill="#6862ED"/>
<path d="M29.2069 75.994C29.2069 75.994 23.0216 75.9165 21.5753 73.6031H5.41846C5.41846 73.6031 6.73222 75.9736 8.77222 75.994H29.2069Z" fill="white" stroke="#263238" stroke-width="0.3" stroke-miterlimit="10"/>
<path d="M21.106 74.3661H7.94394C7.94394 74.3661 8.18874 74.9006 7.51758 75.1943C7.94067 75.5853 8.47168 75.8398 9.04146 75.9246H25.798C25.798 75.9246 23.6642 75.7206 22.5075 75.0474C22.5075 75.0474 21.1672 75.2433 21.106 74.3661Z" fill="white" stroke="#263238" stroke-width="0.3" stroke-miterlimit="10"/>
<path d="M26.7668 94.4866H63.8989V89.8925H26.7668V94.4866Z" fill="#263238" stroke="#263238" stroke-width="0.3" stroke-miterlimit="10"/>
<path d="M6.33228 94.4866H43.4644V89.8925H6.33228V94.4866Z" fill="white" stroke="#263238" stroke-width="0.3" stroke-miterlimit="10"/>
<path d="M43.2074 91.1187H34.1396" stroke="#263238" stroke-width="0.3" stroke-miterlimit="10"/>
<path d="M41.4186 92.1406H28.2646" stroke="#263238" stroke-width="0.3" stroke-miterlimit="10"/>
<path d="M36.1816 93.0586H38.4807" stroke="#263238" stroke-width="0.3" stroke-miterlimit="10"/>
<path d="M39.3765 93.0586H43.0791" stroke="#263238" stroke-width="0.3" stroke-miterlimit="10"/>
<path d="M6.55078 92.8546H18.1727" stroke="#263238" stroke-width="0.3" stroke-miterlimit="10"/>
<path d="M7.57275 92.2427H9.10479" stroke="#263238" stroke-width="0.3" stroke-miterlimit="10"/>
<path d="M16.2571 92.1406H11.1489" stroke="#263238" stroke-width="0.3" stroke-miterlimit="10"/>
<path d="M6.55078 90.9146H11.0204" stroke="#263238" stroke-width="0.3" stroke-miterlimit="10"/>
<path d="M63.387 91.8326H61.0879" stroke="#8A8A8A" stroke-width="0.3" stroke-miterlimit="10"/>
<path d="M63.8993 92.8546H56.7471" stroke="#8A8A8A" stroke-width="0.3" stroke-miterlimit="10"/>
<path d="M43.8457 93.4667H47.2953" stroke="#8A8A8A" stroke-width="0.3" stroke-miterlimit="10"/>
<path d="M43.4624 91.8326H52.7872" stroke="#8A8A8A" stroke-width="0.3" stroke-miterlimit="10"/>
<path d="M60.8329 90.5066H55.4697" stroke="#8A8A8A" stroke-width="0.3" stroke-miterlimit="10"/>
<path d="M23.2809 94.3846H27.624V89.8926H23.2809V94.3846Z" fill="white" stroke="#263238" stroke-width="0.3" stroke-miterlimit="10"/>
<path d="M26.2898 89.8558H63.4219V85.2618H26.2898V89.8558Z" fill="#263238" stroke="#263238" stroke-width="0.3" stroke-miterlimit="10"/>
<path d="M5.85522 89.8558H42.9873V85.2618H5.85522V89.8558Z" fill="white" stroke="#263238" stroke-width="0.3" stroke-miterlimit="10"/>
<path d="M42.7299 86.4857H33.6621" stroke="#263238" stroke-width="0.3" stroke-miterlimit="10"/>
<path d="M40.9431 87.5057H27.7871" stroke="#263238" stroke-width="0.3" stroke-miterlimit="10"/>
<path d="M35.7065 88.4258H38.0056" stroke="#263238" stroke-width="0.3" stroke-miterlimit="10"/>
<path d="M38.8989 88.4258H42.6036" stroke="#263238" stroke-width="0.3" stroke-miterlimit="10"/>
<path d="M6.07324 88.2218H17.6972" stroke="#263238" stroke-width="0.3" stroke-miterlimit="10"/>
<path d="M7.09521 87.6078H8.62726" stroke="#263238" stroke-width="0.3" stroke-miterlimit="10"/>
<path d="M15.7816 87.5057H10.6714" stroke="#263238" stroke-width="0.3" stroke-miterlimit="10"/>
<path d="M6.07324 86.2817H10.5449" stroke="#263238" stroke-width="0.3" stroke-miterlimit="10"/>
<path d="M62.9119 87.1997H60.6128" stroke="#8A8A8A" stroke-width="0.3" stroke-miterlimit="10"/>
<path d="M63.4218 88.2218H56.2695" stroke="#8A8A8A" stroke-width="0.3" stroke-miterlimit="10"/>
<path d="M43.3706 88.8337H46.8182" stroke="#8A8A8A" stroke-width="0.3" stroke-miterlimit="10"/>
<path d="M42.9873 87.1997H52.3101" stroke="#8A8A8A" stroke-width="0.3" stroke-miterlimit="10"/>
<path d="M60.3579 85.8738H54.9927" stroke="#8A8A8A" stroke-width="0.3" stroke-miterlimit="10"/>
<path d="M22.8053 89.7538H27.1484V85.2617H22.8053V89.7538Z" fill="white" stroke="#263238" stroke-width="0.3" stroke-miterlimit="10"/>
<path d="M27.7991 85.223H64.9312V80.6289H27.7991V85.223Z" fill="#263238" stroke="#263238" stroke-width="0.3" stroke-miterlimit="10"/>
<path d="M7.3645 85.223H44.4966V80.6289H7.3645V85.223Z" fill="white" stroke="#263238" stroke-width="0.3" stroke-miterlimit="10"/>
<path d="M44.2397 81.8529H35.1719" stroke="#263238" stroke-width="0.3" stroke-miterlimit="10"/>
<path d="M42.4508 82.8729H29.2969" stroke="#263238" stroke-width="0.3" stroke-miterlimit="10"/>
<path d="M37.2139 83.793H39.5129" stroke="#263238" stroke-width="0.3" stroke-miterlimit="10"/>
<path d="M40.4087 83.793H44.1113" stroke="#263238" stroke-width="0.3" stroke-miterlimit="10"/>
<path d="M7.58301 83.589H19.2049" stroke="#263238" stroke-width="0.3" stroke-miterlimit="10"/>
<path d="M8.60498 82.9749H10.137" stroke="#263238" stroke-width="0.3" stroke-miterlimit="10"/>
<path d="M17.2893 82.8729H12.1812" stroke="#263238" stroke-width="0.3" stroke-miterlimit="10"/>
<path d="M7.58301 81.6489H12.0526" stroke="#263238" stroke-width="0.3" stroke-miterlimit="10"/>
<path d="M64.4192 82.5669H62.1201" stroke="#8A8A8A" stroke-width="0.3" stroke-miterlimit="10"/>
<path d="M64.9315 83.589H57.7793" stroke="#8A8A8A" stroke-width="0.3" stroke-miterlimit="10"/>
<path d="M44.8784 84.2009H48.3281" stroke="#8A8A8A" stroke-width="0.3" stroke-miterlimit="10"/>
<path d="M44.4946 82.5669H53.8195" stroke="#8A8A8A" stroke-width="0.3" stroke-miterlimit="10"/>
<path d="M61.8651 81.241H56.502" stroke="#8A8A8A" stroke-width="0.3" stroke-miterlimit="10"/>
<path d="M24.3131 85.121H28.6562V80.6289H24.3131V85.121Z" fill="white" stroke="#263238" stroke-width="0.3" stroke-miterlimit="10"/>
<path d="M26.6467 80.5881H63.7788V75.9941H26.6467V80.5881Z" fill="#263238" stroke="#263238" stroke-width="0.3" stroke-miterlimit="10"/>
<path d="M6.21216 80.5881H43.3442V75.9941H6.21216V80.5881Z" fill="white" stroke="#263238" stroke-width="0.3" stroke-miterlimit="10"/>
<path d="M43.0889 77.2201H34.019" stroke="#263238" stroke-width="0.3" stroke-miterlimit="10"/>
<path d="M41.3 78.2401H28.144" stroke="#263238" stroke-width="0.3" stroke-miterlimit="10"/>
<path d="M36.0635 79.1581H38.3626" stroke="#263238" stroke-width="0.3" stroke-miterlimit="10"/>
<path d="M39.2559 79.1581H42.9605" stroke="#263238" stroke-width="0.3" stroke-miterlimit="10"/>
<path d="M6.43018 78.9541H18.0541" stroke="#263238" stroke-width="0.3" stroke-miterlimit="10"/>
<path d="M7.45215 78.342H8.98623" stroke="#263238" stroke-width="0.3" stroke-miterlimit="10"/>
<path d="M16.1385 78.2401H11.0283" stroke="#263238" stroke-width="0.3" stroke-miterlimit="10"/>
<path d="M6.43018 77.0161H10.9019" stroke="#263238" stroke-width="0.3" stroke-miterlimit="10"/>
<path d="M63.2688 77.9341H60.9697" stroke="#8A8A8A" stroke-width="0.3" stroke-miterlimit="10"/>
<path d="M63.7787 78.9541H56.6265" stroke="#8A8A8A" stroke-width="0.3" stroke-miterlimit="10"/>
<path d="M43.7275 79.5681H47.1751" stroke="#8A8A8A" stroke-width="0.3" stroke-miterlimit="10"/>
<path d="M43.3442 77.9341H52.667" stroke="#8A8A8A" stroke-width="0.3" stroke-miterlimit="10"/>
<path d="M60.7148 76.6061H55.3496" stroke="#8A8A8A" stroke-width="0.3" stroke-miterlimit="10"/>
<path d="M23.1622 80.4861H27.5054V75.994H23.1622V80.4861Z" fill="white" stroke="#263238" stroke-width="0.3" stroke-miterlimit="10"/>
<path d="M93.334 24.1985H57.7891V94.4887H93.334V24.1985Z" fill="#263238" stroke="#263238" stroke-width="0.3" stroke-miterlimit="10"/>
<path d="M89.4907 24.5188V36.6874" stroke="#8A8A8A" stroke-width="0.3" stroke-miterlimit="10"/>
<path d="M91.7324 27.5604V32.6849" stroke="#8A8A8A" stroke-width="0.3" stroke-miterlimit="10"/>
<path d="M90.6128 26.4404V44.6923" stroke="#8A8A8A" stroke-width="0.3" stroke-miterlimit="10"/>
<path d="M92.5342 24.1985V48.0563" stroke="#8A8A8A" stroke-width="0.3" stroke-miterlimit="10"/>
<path d="M89.811 94.3276V81.8387" stroke="#8A8A8A" stroke-width="0.3" stroke-miterlimit="10"/>
<path d="M91.0918 94.4888V91.7654" stroke="#8A8A8A" stroke-width="0.3" stroke-miterlimit="10"/>
<path d="M91.4121 90.8045V79.7579" stroke="#8A8A8A" stroke-width="0.3" stroke-miterlimit="10"/>
<path d="M89.9722 80.2373V62.1445" stroke="#8A8A8A" stroke-width="0.3" stroke-miterlimit="10"/>
<path d="M88.3706 24.1985H52.8257V94.4887H88.3706V24.1985Z" fill="#6862ED" stroke="#263238" stroke-width="0.3" stroke-miterlimit="10"/>
<path d="M85.3288 29.172C84.6341 29.1705 83.9663 28.903 83.4625 28.4247C82.9588 27.9463 82.6572 27.2933 82.6197 26.5996H58.5803C58.5437 27.2943 58.2418 27.9485 57.737 28.4272C57.2321 28.9059 56.5628 29.1725 55.8671 29.172C55.7063 29.1717 55.5458 29.1566 55.3877 29.1272V88.128C55.5459 88.0996 55.7063 88.0846 55.8671 88.0832C56.3371 88.0831 56.7991 88.2048 57.2081 88.4364C57.6171 88.668 57.9591 89.0015 58.2009 89.4046C58.4427 89.8076 58.5759 90.2664 58.5877 90.7362C58.5995 91.2061 58.4894 91.671 58.2682 92.0856H82.9277C82.7058 91.6711 82.5952 91.206 82.6067 90.736C82.6182 90.2659 82.7514 89.8068 82.9933 89.4036C83.2352 89.0003 83.5776 88.6667 83.9869 88.4353C84.3962 88.2039 84.8586 88.0826 85.3288 88.0832C85.4896 88.0846 85.6499 88.0996 85.8082 88.128V29.117C85.6504 29.1499 85.4899 29.1683 85.3288 29.172ZM69.8778 69.9904C64.2617 69.9904 59.7105 65.0454 59.7105 58.9438C59.7105 52.8422 64.2617 47.8952 69.8778 47.8952C75.4939 47.8952 80.0452 52.8422 80.0452 58.9438C80.0452 65.0454 75.4919 69.9904 69.8778 69.9904Z" fill="white" stroke="#263238" stroke-width="0.3" stroke-miterlimit="10"/>
<path d="M93.2687 55.1005H52.9849V62.3057H93.2687V55.1005Z" fill="white" stroke="#263238" stroke-width="0.3" stroke-miterlimit="10"/>
<path d="M93.2688 55.1005H88.4482V62.3057H93.2688V55.1005Z" fill="#3D3D3D" stroke="#8A8A8A" stroke-width="0.3" stroke-miterlimit="10"/>
<path d="M14.0107 90.117L12.8234 91.898L10.5039 93.734V94.4908H18.4375L18.1661 91.8388V90.6515C18.1661 90.6515 14.9287 89.2521 14.0107 90.117Z" fill="#263238" stroke="#263238" stroke-width="0.3" stroke-miterlimit="10"/>
<path d="M18.3661 93.787H10.5039V94.4887H18.4375L18.3661 93.787Z" fill="white" stroke="#263238" stroke-width="0.3" stroke-miterlimit="10"/>
<path d="M27.1115 90.117L28.3763 91.898L30.8508 93.734V94.4908H22.395L22.6827 91.8388V90.6515C22.6827 90.6515 26.1343 89.2521 27.1115 90.117Z" fill="#263238" stroke="#263238" stroke-width="0.3" stroke-miterlimit="10"/>
<path d="M22.4705 93.787H30.8508V94.4887H22.395L22.4705 93.787Z" fill="white" stroke="#263238" stroke-width="0.3" stroke-miterlimit="10"/>
<path d="M10.4712 53.1787C10.4712 53.1787 12.3235 74.0847 12.4561 78.0545C12.5887 82.0244 13.8454 87.3834 13.8454 87.3834L13.2599 88.3096L13.8556 90.3598C13.8556 90.3598 15.2448 90.0293 15.9731 90.2945C16.7014 90.5597 18.0131 90.8902 18.0131 90.8902C18.0131 90.8902 18.6761 89.1032 18.7414 88.3096C18.8066 87.516 17.9519 85.5964 17.9519 85.5964L17.8193 61.7141H19.0106L22.0502 86.9856L21.9176 88.5075L22.5133 90.8902C22.5133 90.8902 26.0201 90.1619 26.2832 90.0946C26.4843 90.0643 26.6897 90.0875 26.8789 90.1619C26.8789 90.1619 27.2869 89.301 27.2869 89.0358C27.2869 88.7706 26.7565 87.2508 26.7565 87.2508L26.6239 75.4086V52.9809L10.4814 52.6504L10.4712 53.1787Z" fill="#6862ED" stroke="#263238" stroke-width="0.3" stroke-miterlimit="10"/>
<path d="M26.0551 62.4117L26.4162 70.3208L24.876 70.4595V71.4408L25.9959 71.5101" stroke="#263238" stroke-width="0.3" stroke-linecap="round" stroke-linejoin="round"/>
<path d="M25.7856 56.5284L26.0202 61.6366" stroke="#263238" stroke-width="0.3" stroke-linecap="round" stroke-linejoin="round"/>
<path d="M25.1123 76.1349C25.1633 77.5486 25.2755 78.7747 25.506 78.8603C26.067 79.0643 26.2057 79.2806 26.2057 79.2806" stroke="#263238" stroke-width="0.3" stroke-linecap="round" stroke-linejoin="round"/>
<path d="M25.092 71.7203C25.092 71.7203 25.0553 73.5074 25.092 75.2944" stroke="#263238" stroke-width="0.3" stroke-linecap="round" stroke-linejoin="round"/>
<path d="M16.1958 61.0083L18.9947 61.2184" stroke="#263238" stroke-width="0.3" stroke-linecap="round" stroke-linejoin="round"/>
<path d="M17.1055 54.2885L17.1748 58.2073L18.4355 59.1192" stroke="#263238" stroke-width="0.3" stroke-linecap="round" stroke-linejoin="round"/>
<path d="M18.4355 55.688L18.6457 60.5187" stroke="#263238" stroke-width="0.3" stroke-linecap="round" stroke-linejoin="round"/>
<path d="M17.5708 78.0933L17.6646 82.9219" stroke="#263238" stroke-width="0.3" stroke-linecap="round" stroke-linejoin="round"/>
<path d="M17.2441 61.2877L17.5481 76.8998" stroke="#263238" stroke-width="0.3" stroke-linecap="round" stroke-linejoin="round"/>
<path d="M22.9155 56.3184C22.9155 56.3184 23.8968 58.3482 25.7164 57.7178" stroke="#263238" stroke-width="0.3" stroke-linecap="round" stroke-linejoin="round"/>
<path d="M13.1152 56.3184C13.1152 56.3184 12.4134 57.8586 11.2935 58.0687" stroke="#263238" stroke-width="0.3" stroke-linecap="round" stroke-linejoin="round"/>
<path d="M17.273 29.8513L15.1698 30.4878L13.4072 53.091L22.7035 53.2399L23.1931 29.9982L17.273 29.8513Z" fill="white" stroke="#263238" stroke-width="0.3" stroke-miterlimit="10"/>
<path d="M16.5243 28.968H16.0306L15.7817 29.6126L15.8817 35.0696L18.958 33.0868L21.9833 35.9632L22.3811 29.4637C22.3811 29.4637 22.5301 29.1659 22.0833 28.968C21.6365 28.7701 21.4876 28.7191 21.4876 28.7191L16.5243 28.968Z" fill="white" stroke="#263238" stroke-width="0.3" stroke-miterlimit="10"/>
<path d="M16.2282 27.3768L16.3772 29.6208C16.3772 29.6208 17.8052 32.7461 18.7578 33.1928C19.7105 33.6396 21.8852 29.4719 21.8852 29.4719L21.7362 26.9912H16.1772L16.2282 27.3768Z" fill="white" stroke="#263238" stroke-width="0.3" stroke-miterlimit="10"/>
<path d="M16.2285 27.3768C16.2285 27.3768 18.0135 31.2528 19.056 31.3976C20.0984 31.5425 21.7855 27.8235 21.7855 27.4767C21.7855 27.1299 16.2285 27.3768 16.2285 27.3768Z" fill="#263238" stroke="#263238" stroke-width="0.3" stroke-miterlimit="10"/>
<path d="M15.2859 24.0558C15.2859 24.0558 14.425 23.3499 14.3067 24.3291C14.1884 25.3083 15.443 26.21 15.443 26.21L15.2859 24.0558Z" fill="white" stroke="#263238" stroke-width="0.3" stroke-miterlimit="10"/>
<path d="M22.283 24.0558C22.283 24.0558 23.1459 23.3499 23.2642 24.3291C23.3825 25.3083 22.1279 26.21 22.1279 26.21L22.283 24.0558Z" fill="white" stroke="#263238" stroke-width="0.3" stroke-miterlimit="10"/>
<path d="M15.1287 24.1719C15.1287 24.1719 15.5999 26.9157 15.9916 27.4237C16.3833 27.9317 17.5971 29.6963 18.7334 30.0104C19.8696 30.3246 21.6342 28.1295 21.9851 27.3849C22.336 26.6403 22.4564 23.3498 22.4564 23.3498L22.4176 21.5873C22.4176 21.5873 22.2993 20.2939 21.7893 19.5881C21.2793 18.8822 19.0863 18.413 17.6379 18.972C16.1895 19.5309 14.9736 22.0565 14.9736 22.5665C14.9736 23.0765 15.1287 24.1719 15.1287 24.1719Z" fill="white" stroke="#263238" stroke-width="0.3" stroke-miterlimit="10"/>
<path d="M17.7154 21.1161C17.7154 21.1161 16.4914 22.5277 15.9528 22.8011C15.7081 22.9139 15.4722 23.0448 15.247 23.1928L15.3245 24.8391L14.6982 22.5951C14.6982 22.5951 13.9149 20.2144 14.076 19.1577C14.2372 18.1009 17.797 17.0809 19.0516 16.6893C20.3062 16.2976 20.7754 17.0809 21.5975 17.7093C22.4196 18.3376 23.2826 18.8068 23.1663 19.8655C23.065 20.602 22.8809 21.3246 22.6175 22.0198C22.6175 22.0198 22.4135 24.9574 22.4135 25.0798C22.4135 25.2022 22.0606 22.1809 22.0606 22.1809C21.8605 22.1283 21.68 22.0188 21.541 21.8656C21.4019 21.7125 21.3103 21.5222 21.2772 21.318C21.1731 20.8011 21.1049 20.2776 21.0732 19.7513C21.0732 19.7513 20.5632 20.8101 20.0532 21.318C19.5432 21.826 18.2907 22.2972 18.0948 22.2585C17.899 22.2197 18.2988 21.2793 18.2988 21.2793L17.593 21.9463L17.7154 21.1161Z" fill="#263238" stroke="#263238" stroke-width="0.3" stroke-miterlimit="10"/>
<path d="M18.0298 26.6016C18.2238 26.7742 18.4497 26.9073 18.6948 26.9933C19.009 27.0708 19.5577 26.6016 19.7148 26.4833" stroke="#263238" stroke-width="0.3" stroke-miterlimit="10"/>
<path d="M17.9111 27.6991C17.9111 27.6991 18.8128 28.4029 20.0266 27.5808L17.9111 27.6991Z" fill="white"/>
<path d="M17.9111 27.6991C17.9111 27.6991 18.8128 28.4029 20.0266 27.5808" stroke="#263238" stroke-width="0.3" stroke-miterlimit="10"/>
<path d="M17.3033 25.19C17.4442 25.19 17.5583 24.9973 17.5583 24.7595C17.5583 24.5218 17.4442 24.3291 17.3033 24.3291C17.1625 24.3291 17.0483 24.5218 17.0483 24.7595C17.0483 24.9973 17.1625 25.19 17.3033 25.19Z" fill="#263238"/>
<path d="M20.2819 25.19C20.4227 25.19 20.5369 24.9973 20.5369 24.7595C20.5369 24.5218 20.4227 24.3291 20.2819 24.3291C20.141 24.3291 20.0269 24.5218 20.0269 24.7595C20.0269 24.9973 20.141 25.19 20.2819 25.19Z" fill="#263238"/>
<path d="M19.6738 23.3886C19.9264 23.2563 20.2145 23.2077 20.4965 23.2499C20.7785 23.2921 21.0398 23.4228 21.2426 23.6232" stroke="#263238" stroke-width="0.3" stroke-miterlimit="10"/>
<path d="M17.5973 23.3498C17.3977 23.2316 17.1629 23.1873 16.934 23.2245C16.705 23.2618 16.4965 23.3784 16.3447 23.5538" stroke="#263238" stroke-width="0.3" stroke-miterlimit="10"/>
<path d="M15.8307 34.68L15.3839 56.1L10.2839 55.8532L9.9759 55.2636C9.9759 55.2636 9.2823 55.2636 9.18234 54.7169C9.08238 54.1702 9.87594 42.1648 9.87594 42.1648L5.5083 41.767L8.4357 36.055C8.4357 36.055 9.32922 32.0851 9.5271 31.7873C9.72498 31.4894 15.9286 29.3556 15.9286 29.3556L15.8307 34.68Z" fill="#263238" stroke="#263238" stroke-width="0.3" stroke-miterlimit="10"/>
<path d="M22.1829 29.2291L21.4546 56.1571L28.003 56.0898L28.2682 55.0984L28.9291 54.6353V52.5178C28.9291 51.459 27.6725 43.7845 27.6725 43.7845C27.6725 43.7845 30.9814 43.3214 31.0467 42.6605C31.112 41.9995 29.6574 32.0096 28.8639 31.2814C28.0703 30.5531 22.1829 29.2291 22.1829 29.2291Z" fill="#263238" stroke="#263238" stroke-width="0.3" stroke-miterlimit="10"/>
<path d="M23.8252 44.5842L24.6963 47.0934C24.6963 47.0934 25.2002 45.8817 25.1247 45.1187C25.0492 44.3557 25.0472 44.1252 24.8187 44.0865C24.5902 44.0477 23.868 43.8967 23.8252 44.5842Z" fill="white" stroke="#263238" stroke-width="0.3" stroke-miterlimit="10"/>
<path d="M15.1206 38.0644L17.9093 43.6051L20.851 42.1526L18.3683 36.308L15.1206 38.0644Z" fill="#6862ED" stroke="#263238" stroke-width="0.3" stroke-miterlimit="10"/>
<path d="M19.9573 41.9301C19.9239 41.8419 19.9266 41.7441 19.9647 41.6578C20.0029 41.5715 20.0735 41.5037 20.1613 41.4691C20.1775 41.4671 20.194 41.4671 20.2102 41.4691L18.3742 37.1667C18.3575 37.2069 18.332 37.2428 18.2995 37.2718C18.267 37.3008 18.2284 37.322 18.1865 37.334C18.1238 37.3486 18.0581 37.344 17.9981 37.3207C17.938 37.2974 17.8864 37.2565 17.8499 37.2035L15.9119 38.2459C15.9369 38.2834 15.9555 38.3247 15.967 38.3683C15.9941 38.4464 15.9947 38.5312 15.9689 38.6097C15.9431 38.6882 15.8923 38.756 15.8242 38.8028L17.7602 42.636C17.7948 42.5976 17.8392 42.5694 17.8887 42.5544C17.9708 42.5388 18.0558 42.553 18.1284 42.5946C18.2009 42.6361 18.2563 42.7021 18.2845 42.7808L19.9634 41.9526L19.9573 41.9301ZM18.3008 40.9387C17.9438 41.0387 17.5582 40.7755 17.4379 40.3491C17.3175 39.9228 17.5072 39.4944 17.8622 39.3944C18.2171 39.2945 18.6047 39.5576 18.7251 39.984C18.8455 40.4103 18.6557 40.8367 18.3008 40.9387Z" fill="white" stroke="#263238" stroke-width="0.3" stroke-miterlimit="10"/>
<path d="M16.314 37.383L17.8032 43.4031L20.9937 42.6401L19.8697 36.3916L16.314 37.383Z" fill="#6862ED" stroke="#263238" stroke-width="0.3" stroke-miterlimit="10"/>
<path d="M20.1715 42.228C20.1645 42.1812 20.1669 42.1336 20.1785 42.0877C20.19 42.0419 20.2105 41.9988 20.2387 41.9609C20.267 41.9229 20.3024 41.891 20.343 41.8668C20.3837 41.8426 20.4287 41.8267 20.4754 41.82C20.4917 41.818 20.5081 41.818 20.5244 41.82L19.7084 37.2198C19.6829 37.2551 19.6499 37.2843 19.6118 37.3054C19.5738 37.3266 19.5315 37.3391 19.4881 37.3422C19.4232 37.3418 19.36 37.3222 19.3062 37.2859C19.2525 37.2496 19.2107 37.1982 19.1862 37.1382L17.0523 37.74C17.0692 37.7823 17.0788 37.8271 17.0809 37.8726C17.0898 37.9548 17.0714 38.0376 17.0287 38.1084C16.9859 38.1791 16.9211 38.2339 16.8442 38.2643L17.8744 42.432C17.9165 42.4026 17.966 42.3856 18.0172 42.383C18.1006 42.385 18.1804 42.417 18.2419 42.4733C18.3034 42.5295 18.3424 42.6062 18.3518 42.689L20.1735 42.2545L20.1715 42.228ZM18.768 40.8897C18.3987 40.9101 18.0805 40.5674 18.058 40.1247C18.0356 39.6821 18.3151 39.3087 18.6843 39.2883C19.0536 39.2679 19.3698 39.6127 19.3942 40.0554C19.4187 40.4981 19.1454 40.8714 18.768 40.8897Z" fill="white" stroke="#263238" stroke-width="0.3" stroke-miterlimit="10"/>
<path d="M18.0786 36.918L17.7358 43.1094L21.01 43.3174L21.7689 37.0118L18.0786 36.918Z" fill="#6862ED" stroke="#263238" stroke-width="0.3" stroke-miterlimit="10"/>
<path d="M20.345 42.6789C20.3601 42.5855 20.4114 42.5018 20.4878 42.4461C20.5642 42.3903 20.6595 42.3669 20.753 42.381C20.7701 42.385 20.7865 42.3912 20.802 42.3994L21.3609 37.7563C21.3264 37.7831 21.2863 37.8018 21.2436 37.8109C21.2008 37.8201 21.1566 37.8196 21.1141 37.8094C21.0522 37.7908 20.9973 37.754 20.9565 37.7038C20.9158 37.6536 20.8911 37.5923 20.8856 37.5279L18.6804 37.4728C18.6843 37.5174 18.6802 37.5623 18.6681 37.6054C18.6528 37.6867 18.6111 37.7607 18.5495 37.816C18.488 37.8712 18.4099 37.9048 18.3275 37.9114L18.0908 42.1954C18.1408 42.181 18.1938 42.181 18.2438 42.1954C18.323 42.2224 18.3897 42.2772 18.4317 42.3495C18.4737 42.4219 18.4881 42.507 18.4723 42.5891L20.343 42.7074C20.3412 42.6979 20.3419 42.6881 20.345 42.6789ZM19.4025 40.9918C19.0455 40.902 18.8415 40.4818 18.9497 40.0513C19.0578 39.6209 19.4352 39.3455 19.7942 39.4393C20.1533 39.5332 20.3532 39.9514 20.2471 40.3818C20.141 40.8123 19.7616 41.0815 19.4025 40.9918Z" fill="white" stroke="#263238" stroke-width="0.3" stroke-miterlimit="10"/>
<path d="M24.8188 42.9788C24.4582 42.9246 24.1012 42.8483 23.7499 42.7503C23.5969 42.6748 22.4892 42.2913 21.6099 41.8343C20.7307 41.3774 20.0065 41.8343 18.7539 42.0628C17.5014 42.2913 17.1484 42.3688 17.1484 42.6748C17.1484 42.9808 17.7992 43.0563 17.7992 43.0563C17.7992 43.0563 17.1872 43.1318 17.4932 43.552C17.6734 43.8017 17.9274 43.9886 18.2194 44.0865C18.3886 44.3668 18.6086 44.6131 18.8682 44.8127C19.2496 45.08 19.5169 45.3105 19.5169 45.3105C19.7561 45.6084 20.0742 45.8332 20.4349 45.9592C20.9694 46.1122 23.9865 45.1942 23.9865 45.1942C23.9865 45.1942 24.9025 45.4614 25.133 44.9657C25.3635 44.47 24.8188 42.9788 24.8188 42.9788Z" fill="white" stroke="#263238" stroke-width="0.3" stroke-linecap="round" stroke-linejoin="round"/>
<path d="M17.791 43.0562C17.791 43.0562 20.0819 42.9787 20.8082 42.7502" stroke="#263238" stroke-width="0.3" stroke-linecap="round" stroke-linejoin="round"/>
<path d="M18.2114 44.0865C18.8429 44.1876 19.4814 44.2388 20.1209 44.2395C20.4974 44.232 20.8657 44.1273 21.1898 43.9355" stroke="#263238" stroke-width="0.3" stroke-linecap="round" stroke-linejoin="round"/>
<path d="M19.1763 45.0432C19.1763 45.0432 20.5125 45.4512 21.4203 45.1575" stroke="#263238" stroke-width="0.3" stroke-linecap="round" stroke-linejoin="round"/>
<path d="M25.9529 36.4406L26.6811 42.1301L24.6289 42.7258C24.6289 42.7258 24.9614 44.4455 24.8329 45.2411C24.7467 45.8548 24.7023 46.4737 24.7003 47.0934C24.7003 47.0934 26.9443 46.3652 28.4049 46.2326C29.8656 46.1 31.1181 45.439 31.5139 44.3802C31.9097 43.3215 30.6551 39.6882 30.6551 39.6882" fill="#263238"/>
<path d="M25.9529 36.4406L26.6811 42.1301L24.6289 42.7258C24.6289 42.7258 24.9614 44.4455 24.8329 45.2411C24.7467 45.8548 24.7023 46.4737 24.7003 47.0934C24.7003 47.0934 26.9443 46.3652 28.4049 46.2326C29.8656 46.1 31.1181 45.439 31.5139 44.3802C31.9097 43.3215 30.6551 39.6882 30.6551 39.6882" stroke="#263238" stroke-width="0.3" stroke-miterlimit="10"/>
<path d="M25.6816 42.5585L26.6812 42.1301L29.2108 41.4508" stroke="#6B6B6B" stroke-width="0.3" stroke-miterlimit="10"/>
<path d="M26.6814 42.1302L25.896 35.4104" stroke="#6B6B6B" stroke-width="0.3" stroke-miterlimit="10"/>
<path d="M13.7455 41.9996C13.7455 41.9996 13.2886 39.9759 13.0968 39.5924C12.9051 39.2089 11.8728 40.2819 11.7973 40.6246C11.7219 40.9674 13.4395 42.0384 13.7455 41.9996Z" fill="white" stroke="#263238" stroke-width="0.3" stroke-miterlimit="10"/>
<path d="M12.7481 37.74L11.7607 38.8987C11.7607 38.8987 12.0361 40.596 12.2565 40.6633C12.4768 40.7306 14.0517 39.5168 14.0517 39.5168L12.7481 37.74Z" fill="white" stroke="#263238" stroke-width="0.3" stroke-miterlimit="10"/>
<path d="M14.5821 35.4165C14.5821 35.4165 12.8623 37.0975 12.7461 37.7462C12.6298 38.3949 13.8538 39.6189 14.0068 39.7332C14.1598 39.8474 15.2675 38.9682 15.3042 38.8152C15.3409 38.6622 14.58 37.479 14.58 37.479C14.9305 37.6507 15.2711 37.8421 15.6 38.0522C15.7143 38.1664 16.4405 39.1987 16.7077 39.1212C16.975 39.0436 16.8607 38.5479 16.7077 38.091C16.5547 37.634 14.9125 36.104 14.9125 36.104L16.0203 36.3712C16.0203 36.3712 17.3197 37.632 17.6257 37.632C17.9317 37.632 17.7787 37.326 17.587 37.0587C17.3952 36.7915 16.4793 35.7225 16.2508 35.4553C16.0223 35.188 15.1431 35.035 15.0268 35.035C14.9105 35.035 14.5821 35.4165 14.5821 35.4165Z" fill="white" stroke="#263238" stroke-width="0.3" stroke-linecap="round" stroke-linejoin="round"/>
<path d="M14.5818 37.4789L14.0474 36.9445" stroke="#263238" stroke-width="0.3" stroke-linecap="round" stroke-linejoin="round"/>
<path d="M13.3599 37.5931L14.7348 39.2741" stroke="#263238" stroke-width="0.3" stroke-linecap="round" stroke-linejoin="round"/>
<path d="M11.722 38.7151C11.722 38.7151 11.9892 39.631 12.1422 40.2043C12.2952 40.7775 13.7456 41.9995 13.7456 41.9995C13.7456 41.9995 11.6832 44.1762 9.84923 45.1309C8.01527 46.0856 5.86103 45.6062 5.21231 44.8432C4.56359 44.0803 4.83083 41.8648 5.36531 41.4058C5.89979 40.9468 9.00875 40.3573 9.77375 39.937C10.5388 39.5168 11.722 38.7151 11.722 38.7151Z" fill="#263238" stroke="#263238" stroke-width="0.3" stroke-miterlimit="10"/>
<path d="M11.7219 38.7151L6.69531 41.1712" stroke="#6B6B6B" stroke-width="0.3" stroke-miterlimit="10"/>
<path d="M11.0693 39.0375V36.6915" stroke="#6B6B6B" stroke-width="0.3" stroke-miterlimit="10"/>
<path d="M44.5213 90.6373C44.5213 90.6373 43.9093 90.8107 42.2773 89.6009C40.6453 88.3912 38.7358 86.6633 38.7358 86.6633C38.7358 86.6633 40.6208 86.4104 41.4919 85.9514C42.4507 85.4434 43.5727 84.2439 43.5727 84.2439C43.5727 84.2439 47.3732 89.4275 52.1264 89.0828C52.0439 89.5247 51.8511 89.9386 51.5657 90.286C51.2804 90.6334 50.9119 90.903 50.4944 91.0697C49.0134 91.6736 44.5213 90.6373 44.5213 90.6373Z" fill="#6862ED" stroke="#263238" stroke-width="0.3" stroke-linejoin="round"/>
<path d="M50.688 89.6764C50.688 89.6764 46.6529 88.6176 44.4721 86.3022C44.367 86.3309 44.2569 86.3358 44.1497 86.3166C44.0425 86.2975 43.9408 86.2547 43.8522 86.1915C43.7635 86.1282 43.6901 86.046 43.6371 85.9508C43.5841 85.8557 43.553 85.7499 43.5459 85.6412C42.7836 86.3571 41.8061 86.801 40.7654 86.904C40.7654 86.904 40.8307 87.3671 40.6328 87.4997C40.6328 87.4997 43.7418 90.2129 45.5288 90.5434C46.7692 90.7915 48.0388 90.8602 49.2987 90.7474C49.8428 90.6899 50.3538 90.4581 50.7553 90.0864C50.7553 90.0864 50.0923 89.9416 50.688 89.6764ZM46.8773 89.5274C46.7324 89.8844 46.0123 89.9354 45.2677 89.6254C44.5231 89.3153 44.0437 88.791 44.1783 88.436C44.313 88.0811 45.0433 88.028 45.7879 88.3381C46.5325 88.6482 47.0201 89.1725 46.8773 89.5274Z" fill="white" stroke="#263238" stroke-width="0.3" stroke-miterlimit="10"/>
<path d="M43.9092 90.5291C43.9092 90.5291 45.99 91.3859 47.6322 91.3859C48.5932 91.3913 49.5516 91.2852 50.4882 91.0697C50.4882 91.0697 49.9272 91.3757 49.0153 90.7902C48.4951 90.4557 48.1605 89.7111 48.1605 89.7111C46.7882 90.1794 45.3574 90.4547 43.9092 90.5291Z" fill="#6862ED" stroke="#263238" stroke-width="0.3" stroke-linejoin="round"/>
<path d="M67.2837 81.8163C67.2837 81.8163 71.072 80.5698 73.2874 79.0908L75.6436 82.9668C75.6436 82.9668 70.0091 87.3549 68.5301 86.2002L67.2837 81.8163Z" fill="#6862ED" stroke="#263238" stroke-width="0.3" stroke-linejoin="round"/>
<path d="M74.0278 82.7404C74.0326 82.6286 74.0736 82.5214 74.1446 82.4349C74.2156 82.3485 74.3128 82.2874 74.4216 82.261L73.375 80.5249C73.2877 80.5547 73.196 80.5699 73.1037 80.5698C72.9916 80.5758 72.8797 80.5545 72.7777 80.5075C72.6757 80.4606 72.5866 80.3896 72.5182 80.3005C70.5619 81.6694 67.561 82.3711 67.561 82.3711L68.1608 84.7273C68.1608 84.7273 68.069 86.0207 69.6847 85.6963C70.9372 85.4454 73.2934 83.8603 74.2951 83.1688C74.2164 83.1277 74.1501 83.0663 74.1031 82.991C74.0561 82.9156 74.0301 82.8291 74.0278 82.7404ZM69.9907 84.4744C69.2828 84.6355 68.6239 84.3948 68.5178 83.9358C68.4117 83.4768 68.9013 82.9709 69.6092 82.8077C70.3171 82.6445 70.978 82.8873 71.0841 83.3463C71.1902 83.8053 70.7006 84.3112 69.9907 84.4744Z" fill="white" stroke="#263238" stroke-width="0.3" stroke-miterlimit="10"/>
<path d="M66.7286 80.0619L69.3153 85.1884C69.3153 85.1884 68.4381 85.6495 68.5299 86.2084L66.0371 81.3124C66.0371 81.3124 65.7127 80.5229 66.7286 80.0619Z" fill="#6862ED" stroke="#263238" stroke-width="0.3" stroke-linejoin="round"/>
<path d="M66.2573 81.7428L68.179 85.5127C68.2608 85.3316 68.4059 85.1865 68.587 85.1047L66.4511 81.3552L66.2573 81.7428Z" fill="white" stroke="#263238" stroke-width="0.3" stroke-miterlimit="10"/>
<path d="M38.6562 53.2011L38.697 63.0278L43.8256 63.0054L43.8419 52.9788L38.6562 53.2011Z" fill="#6862ED" stroke="#263238" stroke-width="0.3" stroke-miterlimit="10"/>
<path d="M42.7016 62.063C42.706 61.9896 42.7249 61.9178 42.7574 61.8518C42.7898 61.7859 42.8351 61.7271 42.8906 61.6788C42.9461 61.6306 43.0106 61.5938 43.0804 61.5708C43.1503 61.5478 43.224 61.539 43.2973 61.5448C43.323 61.5501 43.3483 61.5576 43.3727 61.5673L43.3625 54.0866C43.3172 54.1275 43.2632 54.1578 43.2046 54.1751C43.146 54.1924 43.0842 54.1963 43.0239 54.1865C42.934 54.1644 42.8525 54.1165 42.7895 54.0488C42.7264 53.981 42.6845 53.8963 42.6689 53.8051L39.5763 53.9377C39.5864 54.0012 39.5864 54.0659 39.5763 54.1294C39.566 54.2455 39.5173 54.3549 39.4378 54.4403C39.3584 54.5256 39.2528 54.5821 39.1377 54.6007V61.5367C39.2127 61.5065 39.2945 61.4973 39.3743 61.5101C39.5015 61.547 39.6118 61.6271 39.6863 61.7366C39.7607 61.8461 39.7947 61.9781 39.7823 62.1099L42.7118 62.0977C42.7016 62.0813 42.6995 62.0711 42.7016 62.063ZM41.0043 59.4803C40.4351 59.3763 40.0598 58.7296 40.1659 58.034C40.2719 57.3383 40.8248 56.8589 41.3899 56.965C41.9549 57.0711 42.3364 57.7157 42.2283 58.4114C42.1202 59.107 41.5673 59.5864 41.0043 59.4803Z" fill="white" stroke="#263238" stroke-width="0.3" stroke-miterlimit="10"/>
<path d="M86.6102 11.6219L79.458 18.7742L83.1912 22.5074L90.5311 15.2531L86.6102 11.6219Z" fill="#6862ED" stroke="#263238" stroke-width="0.3" stroke-miterlimit="10"/>
<path d="M83.0651 21.012C83.122 20.9612 83.1886 20.9223 83.2608 20.8976C83.3331 20.873 83.4095 20.8631 83.4856 20.8687C83.5618 20.8742 83.636 20.8949 83.704 20.9297C83.7719 20.9645 83.8321 21.0127 83.8811 21.0712C83.8965 21.0943 83.9095 21.1189 83.9199 21.1446L89.3769 15.708C89.3137 15.7048 89.2521 15.6873 89.1967 15.6569C89.1412 15.6266 89.0933 15.5841 89.0566 15.5326C89.0076 15.4507 88.9837 15.3563 88.9877 15.261C88.9917 15.1657 89.0234 15.0736 89.079 14.9961L86.7371 12.8235C86.697 12.8768 86.6497 12.9242 86.5963 12.9642C86.5039 13.0412 86.3883 13.0848 86.268 13.0881C86.1478 13.0915 86.0299 13.0543 85.9333 12.9826L80.8599 18.001C80.936 18.0326 81.0017 18.0849 81.0496 18.152C81.1166 18.2715 81.1395 18.4108 81.1141 18.5454C81.0887 18.6801 81.0168 18.8015 80.9109 18.8884L83.0427 21.0222L83.0651 21.012ZM83.7179 17.8949C83.3793 17.4033 83.5812 16.6587 84.1667 16.2323C84.7522 15.806 85.5029 15.8631 85.8395 16.3547C86.1761 16.8464 85.9741 17.593 85.3887 18.0173C84.8032 18.4416 84.0484 18.3784 83.7179 17.8847V17.8949Z" fill="white" stroke="#263238" stroke-width="0.3" stroke-miterlimit="10"/>
<path d="M37.332 41.6037L47.2831 37.6686L45.2288 32.4747L35.0513 36.4303L37.332 41.6037Z" fill="#6862ED" stroke="#263238" stroke-width="0.3" stroke-miterlimit="10"/>
<path d="M44.7173 33.9884C44.3562 34.068 44.0155 33.8905 43.9563 33.5804C43.9542 33.5512 43.9542 33.5219 43.9563 33.4927L36.3696 36.467C36.4295 36.4969 36.4819 36.5399 36.5229 36.5929C36.5639 36.6459 36.5924 36.7075 36.6062 36.773C36.619 36.8728 36.6025 36.9742 36.5587 37.0647C36.5148 37.1553 36.4456 37.2311 36.3594 37.283L37.716 40.392C37.78 40.357 37.8487 40.3316 37.92 40.3165C38.0418 40.2806 38.1721 40.2866 38.2901 40.3335C38.4081 40.3805 38.5069 40.4657 38.5707 40.5756L45.6067 37.8379C45.5456 37.7756 45.5038 37.6969 45.4863 37.6114C45.4704 37.467 45.5064 37.3215 45.5879 37.2012C45.6693 37.0808 45.791 36.9934 45.9311 36.9546L44.756 33.9864L44.7173 33.9884ZM42.7752 36.7404C42.8955 37.3524 42.3876 37.999 41.6389 38.1684C40.8902 38.3377 40.1885 37.9644 40.0681 37.3524C39.9477 36.7404 40.4557 36.0957 41.2044 35.9244C41.9531 35.753 42.6548 36.1202 42.7752 36.7404Z" fill="white" stroke="#263238" stroke-width="0.3" stroke-miterlimit="10"/>
<path d="M72.4551 11.5893C72.4551 11.5893 73.0671 11.7504 73.8546 13.6293C74.642 15.5081 75.3968 17.9643 75.3968 17.9643C75.3968 17.9643 73.6465 17.2176 72.6632 17.1666C71.5779 17.1116 70.001 17.5746 70.001 17.5746C70.001 17.5746 69.389 11.1752 65.1274 9.04336C65.424 8.70232 65.8023 8.44231 66.227 8.28779C66.6517 8.13326 67.1087 8.0893 67.555 8.16004C69.1258 8.40076 72.4551 11.5893 72.4551 11.5893Z" fill="#6862ED" stroke="#263238" stroke-width="0.3" stroke-linejoin="round"/>
<path d="M66.6655 9.25961C66.6655 9.25961 69.5909 12.2401 70.2824 15.3388C70.3872 15.3683 70.4841 15.4207 70.5663 15.4921C70.6484 15.5636 70.7136 15.6523 70.7573 15.752C70.801 15.8517 70.8221 15.9598 70.819 16.0687C70.8159 16.1775 70.7887 16.2842 70.7394 16.3813C71.7605 16.1596 72.8262 16.2816 73.7708 16.7281C73.7708 16.7281 73.9504 16.2956 74.189 16.2833C74.189 16.2833 72.9038 12.3625 71.537 11.165C70.5962 10.3183 69.5389 9.61074 68.3975 9.06377C67.9003 8.83645 67.3432 8.77494 66.8083 8.88833C66.8083 8.88833 67.3204 9.33713 66.6655 9.25961ZM69.8642 11.3363C70.1682 11.1058 70.8108 11.4363 71.2922 12.0769C71.7737 12.7174 71.9246 13.4233 71.6186 13.6558C71.3126 13.8884 70.6721 13.5559 70.1906 12.9153C69.7092 12.2747 69.5644 11.5689 69.8642 11.3363Z" fill="white" stroke="#263238" stroke-width="0.3" stroke-miterlimit="10"/>
<path d="M72.926 11.9952C72.926 11.9952 71.5755 10.2 70.1638 9.35343C69.343 8.85653 68.4674 8.45608 67.5547 8.16003C67.5547 8.16003 68.1932 8.18451 68.6767 9.15351C68.9521 9.70839 68.8603 10.5183 68.8603 10.5183C70.2773 10.8203 71.6455 11.3174 72.926 11.9952Z" fill="#6862ED" stroke="#263238" stroke-width="0.3" stroke-linejoin="round"/>
<path d="M19.6638 6.44641L20.6491 10.0572C20.6491 10.0572 15.7245 13.7047 8.28467 12.6827L8.69267 8.78017C8.69267 8.78017 11.6099 9.36361 14.2721 8.81689C16.9343 8.27017 19.6638 6.44641 19.6638 6.44641Z" fill="#6862ED" stroke="#263238" stroke-width="0.3" stroke-miterlimit="10"/>
<path d="M19.101 9.89812C19.1113 9.80933 19.1484 9.7258 19.2075 9.65872C19.2665 9.59163 19.3447 9.5442 19.4315 9.52276L18.8501 7.91728C18.7652 7.94567 18.6764 7.96014 18.5869 7.96011C18.433 7.96265 18.2823 7.91621 18.1565 7.82751C17.3405 8.25591 15.8084 9.00256 14.2805 9.31876C12.8887 9.5685 11.4692 9.62615 10.0617 9.49012C10.0072 9.54852 9.94016 9.59375 9.86558 9.62238C9.791 9.65101 9.71088 9.66228 9.6313 9.65536L9.4375 11.8422C9.48646 11.8422 9.53746 11.8422 9.58846 11.8422C9.99646 11.8422 10.3167 11.9646 10.3167 12.1156C10.3142 12.1398 10.306 12.1631 10.2929 12.1837C10.2798 12.2042 10.2622 12.2214 10.2413 12.2339C14.9679 12.4134 18.2768 10.7794 19.2805 10.2082C19.2272 10.1754 19.1829 10.1299 19.1516 10.0758C19.1203 10.0217 19.1029 9.96063 19.101 9.89812ZM14.4233 11.0385C13.7011 11.1833 13.0687 11.0609 13.0095 10.7651C12.9504 10.4693 13.4869 10.1144 14.2091 9.96951C14.9312 9.82467 15.5636 9.94707 15.6228 10.2429C15.6819 10.5387 15.1454 10.8936 14.4233 11.0385Z" fill="white" stroke="#263238" stroke-width="0.3" stroke-miterlimit="10"/>
<path d="M86.1048 86.8571L87.0881 90.4679C87.0881 90.4679 82.1656 94.1154 74.7236 93.0933L75.1316 89.1908C75.1316 89.1908 78.0488 89.7743 80.7131 89.2275C83.3773 88.6808 86.1048 86.8571 86.1048 86.8571Z" fill="#6862ED" stroke="#263238" stroke-width="0.3" stroke-miterlimit="10"/>
<path d="M85.5394 90.3108C85.5493 90.2216 85.5863 90.1376 85.6454 90.0701C85.7045 90.0027 85.7828 89.9549 85.8699 89.9333L85.2885 88.3319C85.2033 88.3587 85.1146 88.3724 85.0253 88.3728C84.8684 88.3769 84.7141 88.3312 84.5847 88.2422C83.7871 88.6685 82.2469 89.4152 80.7209 89.7314C79.3292 89.9812 77.9097 90.0388 76.5022 89.9028C76.4477 89.9612 76.3806 90.0064 76.3061 90.035C76.2315 90.0636 76.1514 90.0749 76.0718 90.068L75.8882 92.2549C75.9371 92.2549 75.9881 92.2549 76.0412 92.2549C76.4492 92.2549 76.7674 92.3752 76.7674 92.5262C76.7649 92.5504 76.7567 92.5737 76.7436 92.5942C76.7305 92.6148 76.7128 92.632 76.6919 92.6445C81.4186 92.8261 84.7275 91.192 85.7332 90.6188C85.6776 90.5879 85.6306 90.5435 85.5967 90.4897C85.5629 90.4358 85.5431 90.3743 85.5394 90.3108ZM80.8617 91.4491C80.1395 91.5939 79.5071 91.4715 79.448 91.1778C79.3888 90.884 79.9253 90.5249 80.6475 90.3801C81.3697 90.2353 82.0021 90.3597 82.0612 90.6535C82.1204 90.9472 81.5839 91.3063 80.8617 91.4491Z" fill="white" stroke="#263238" stroke-width="0.3" stroke-miterlimit="10"/>
<path d="M34.5254 11.0487C34.5254 11.0487 38.3116 9.80224 40.5291 8.32324L42.8853 12.1992C42.8853 12.1992 37.2508 16.5914 35.7718 15.4367L34.5254 11.0487Z" fill="#6862ED" stroke="#263238" stroke-width="0.3" stroke-linejoin="round"/>
<path d="M41.2675 11.9728C41.2727 11.8608 41.3141 11.7536 41.3855 11.6672C41.4569 11.5807 41.5543 11.5198 41.6633 11.4934L40.6147 9.75736C40.5281 9.78733 40.4371 9.80251 40.3454 9.80224C40.2333 9.80825 40.1214 9.78688 40.0194 9.73996C39.9174 9.69305 39.8283 9.622 39.7599 9.53296C37.8036 10.9018 34.8027 11.6036 34.8027 11.6036L35.4025 13.9598C35.4025 13.9598 35.3107 15.2531 36.9264 14.9288C38.1769 14.6778 40.5331 13.0928 41.5368 12.4012C41.4577 12.3604 41.391 12.2991 41.3436 12.2238C41.2963 12.1484 41.27 12.0618 41.2675 11.9728ZM37.2324 13.7068C36.5245 13.868 35.8635 13.6272 35.7595 13.1682C35.6555 12.7092 36.143 12.2033 36.8509 12.0401C37.5588 11.8769 38.2197 12.1197 38.3258 12.5807C38.4319 13.0418 37.9443 13.5436 37.2324 13.7068Z" fill="white" stroke="#263238" stroke-width="0.3" stroke-miterlimit="10"/>
<path d="M33.9702 9.29431L36.5569 14.4208C36.5569 14.4208 35.6797 14.8819 35.7715 15.4408L33.2766 10.5448C33.2766 10.5448 32.9543 9.75535 33.9702 9.29431Z" fill="#6862ED" stroke="#263238" stroke-width="0.3" stroke-linejoin="round"/>
<path d="M33.499 10.9752L35.4187 14.7452C35.5004 14.564 35.6455 14.4189 35.8267 14.3372L33.6928 10.5876L33.499 10.9752Z" fill="white" stroke="#263238" stroke-width="0.3" stroke-miterlimit="10"/>
<path d="M66.2001 33.7865L59.0479 40.9387L62.781 44.6699L70.123 37.4157L66.2001 33.7865Z" fill="#6862ED" stroke="#263238" stroke-width="0.3" stroke-miterlimit="10"/>
<path d="M62.6567 43.1664C62.7136 43.1155 62.7802 43.0766 62.8524 43.052C62.9247 43.0273 63.0011 43.0175 63.0773 43.023C63.1534 43.0285 63.2276 43.0493 63.2956 43.0841C63.3635 43.1189 63.4238 43.167 63.4727 43.2256C63.4874 43.2487 63.4997 43.2733 63.5094 43.299L68.9726 37.8685C68.9096 37.8659 68.8481 37.8486 68.7928 37.8182C68.7376 37.7877 68.6902 37.7449 68.6543 37.6931C68.6051 37.6114 68.5808 37.5171 68.5844 37.4218C68.588 37.3265 68.6194 37.2343 68.6747 37.1566L66.3328 34.988C66.2932 35.0412 66.2458 35.088 66.192 35.1268C66.1 35.2043 65.9844 35.2485 65.8641 35.2523C65.7438 35.256 65.6257 35.2189 65.529 35.1472L60.4556 40.1635C60.5317 40.196 60.5974 40.249 60.6453 40.3165C60.7123 40.436 60.7352 40.5753 60.7098 40.71C60.6844 40.8446 60.6125 40.966 60.5066 41.053L62.6282 43.1848L62.6567 43.1664ZM63.3075 40.0493C62.9709 39.5556 63.1728 38.813 63.7583 38.3867C64.3438 37.9603 65.0925 38.0174 65.4291 38.5091C65.7657 39.0007 65.5658 39.7453 64.9782 40.1717C64.3907 40.598 63.6482 40.5409 63.3075 40.0493Z" fill="white" stroke="#263238" stroke-width="0.3" stroke-miterlimit="10"/>
<path d="M79.2744 51.2367L89.0481 52.2567L89.5785 47.1567L79.6131 46.0571L79.2744 51.2367Z" fill="#6862ED" stroke="#263238" stroke-width="0.3" stroke-miterlimit="10"/>
<path d="M88.5201 48.1706C88.4478 48.1583 88.3786 48.1317 88.3166 48.0924C88.2547 48.0532 88.2012 48.0019 88.1592 47.9417C88.1172 47.8815 88.0877 47.8136 88.0722 47.7419C88.0568 47.6701 88.0558 47.596 88.0693 47.5239C88.0781 47.4986 88.089 47.474 88.1019 47.4505L80.662 46.6528C80.6981 46.7025 80.7226 46.7596 80.7335 46.82C80.7445 46.8804 80.7417 46.9425 80.7253 47.0017C80.6944 47.0872 80.6395 47.162 80.5671 47.217C80.4947 47.272 80.408 47.3049 80.3173 47.3118L80.1133 50.4064C80.1778 50.4042 80.2424 50.4111 80.305 50.4268C80.4196 50.4499 80.5233 50.5106 80.5994 50.5993C80.6755 50.688 80.7198 50.7997 80.7253 50.9164L87.6144 51.6733C87.5919 51.596 87.5919 51.5139 87.6144 51.4366C87.6634 51.3128 87.7545 51.2102 87.8716 51.1468C87.9887 51.0834 88.1244 51.0632 88.2549 51.0898L88.5568 48.1767L88.5201 48.1706ZM85.7702 49.5986C85.605 50.1535 84.9216 50.4574 84.2422 50.2759C83.5629 50.0943 83.1447 49.4946 83.31 48.9397C83.4752 48.3848 84.1606 48.0808 84.84 48.2624C85.5193 48.444 85.9354 49.0315 85.7702 49.5884V49.5986Z" fill="white" stroke="#263238" stroke-width="0.3" stroke-miterlimit="10"/>
<path d="M90.4089 60.4718C90.4089 60.4718 91.0209 60.6329 91.8083 62.5118C92.5958 64.3906 93.3485 66.8468 93.3485 66.8468C93.3485 66.8468 91.6002 66.1001 90.6149 66.0491C89.5317 65.994 87.9629 66.4571 87.9629 66.4571C87.9629 66.4571 87.3509 60.0576 83.0894 57.9258C83.3871 57.5875 83.7658 57.3303 84.19 57.1783C84.6142 57.0263 85.0701 56.9845 85.5149 57.0568C87.0776 57.2832 90.4089 60.4718 90.4089 60.4718Z" fill="#6862ED" stroke="#263238" stroke-width="0.3" stroke-linejoin="round"/>
<path d="M84.6172 58.14C84.6172 58.14 87.5446 61.1143 88.2361 64.2212C88.3411 64.2501 88.4382 64.3021 88.5205 64.3733C88.6029 64.4444 88.6683 64.5331 88.7121 64.6327C88.7558 64.7324 88.7768 64.8405 88.7736 64.9493C88.7703 65.0581 88.7428 65.1648 88.6931 65.2616C89.7131 65.0387 90.7781 65.1592 91.7225 65.6043C91.7225 65.6043 91.9041 65.1718 92.1407 65.1596C92.1407 65.1596 90.8575 61.2387 89.4887 60.0412C88.5497 59.193 87.4938 58.484 86.3532 57.936C85.856 57.7086 85.2989 57.6471 84.7641 57.7605C84.7641 57.7605 85.272 58.2195 84.6172 58.14ZM87.8159 60.2167C88.1219 59.9862 88.7625 60.3166 89.2439 60.9572C89.7253 61.5978 89.8763 62.3036 89.5703 62.5362C89.2643 62.7687 88.6237 62.4362 88.1423 61.7956C87.6609 61.1551 87.516 60.4513 87.8159 60.2187V60.2167Z" fill="white" stroke="#263238" stroke-width="0.3" stroke-miterlimit="10"/>
<path d="M90.8782 60.8777C90.8782 60.8777 89.5277 59.0764 88.118 58.2359C87.2962 57.7415 86.42 57.3438 85.5068 57.0507C85.5068 57.0507 86.1474 57.0751 86.6288 58.0441C86.9063 58.599 86.8124 59.4089 86.8124 59.4089C88.2291 59.7081 89.5974 60.2024 90.8782 60.8777Z" fill="#6862ED" stroke="#263238" stroke-width="0.3" stroke-linejoin="round"/>
<path d="M85.6804 36.8893C85.6804 36.8893 82.3776 39.1231 80.6477 41.1509L77.3164 38.0623C77.3164 38.0623 81.5372 32.3014 83.2752 33.0092L85.6804 36.8893Z" fill="#6862ED" stroke="#263238" stroke-width="0.3" stroke-linejoin="round"/>
<path d="M78.9482 37.844C78.974 37.9527 78.9637 38.0669 78.9187 38.1692C78.8738 38.2716 78.7968 38.3565 78.6993 38.4111L80.1804 39.7963C80.2564 39.7442 80.3405 39.7049 80.4292 39.68C80.5353 39.6435 80.6487 39.6333 80.7596 39.6503C80.8705 39.6674 80.9755 39.7112 81.0657 39.7779C82.5753 37.9276 85.2702 36.4323 85.2702 36.4323L84.0462 34.3291C84.0462 34.3291 83.781 33.0602 82.3142 33.813C81.18 34.3964 79.344 36.5568 78.5708 37.5054C78.6584 37.5226 78.7397 37.5632 78.8061 37.6228C78.8725 37.6824 78.9216 37.7588 78.9482 37.844ZM82.357 35.0737C82.9935 34.7228 83.6953 34.7758 83.9217 35.1879C84.1482 35.6 83.8156 36.2222 83.1792 36.571C82.5427 36.9199 81.8409 36.8689 81.6124 36.4548C81.384 36.0406 81.7124 35.4225 82.3509 35.0737H82.357Z" fill="white" stroke="#263238" stroke-width="0.3" stroke-miterlimit="10"/>
<path d="M86.7003 38.4255L82.812 34.2006C82.812 34.2006 83.5301 33.5172 83.2894 33.0093L87.0267 37.0362C87.0267 37.0362 87.5448 37.7033 86.7003 38.4255Z" fill="#6862ED" stroke="#263238" stroke-width="0.3" stroke-linejoin="round"/>
<path d="M86.6878 36.6792L83.8114 33.5784C83.7851 33.7754 83.6888 33.9564 83.54 34.0884L86.6 37.1055L86.6878 36.6792Z" fill="white" stroke="#263238" stroke-width="0.3" stroke-miterlimit="10"/>
<path d="M1.9707 94.4888H99.5521" stroke="#263238" stroke-width="0.3" stroke-linecap="round" stroke-linejoin="round"/>
</svg>
