<svg width="56" height="56" viewBox="0 0 56 56" fill="none" xmlns="http://www.w3.org/2000/svg">
<circle cx="28" cy="28" r="28" fill="#6862ED"/>
<path fill-rule="evenodd" clip-rule="evenodd" d="M35.0739 23.6244C37.2254 25.1552 39.802 25.9731 42.4417 25.9632V20.727C41.9227 20.7284 41.4052 20.6728 40.8984 20.5612V24.7327C38.2527 24.7374 35.6724 23.9101 33.5219 22.3677V33.1368C33.5154 34.9039 33.0312 36.6363 32.1207 38.1503C31.2102 39.6643 29.9073 40.9035 28.3502 41.7364C26.7931 42.5694 25.0398 42.965 23.2762 42.8814C21.5126 42.7978 19.8045 42.2381 18.333 41.2616C19.6941 42.64 21.4333 43.5831 23.3303 43.9715C25.2272 44.3599 27.1967 44.1762 28.9893 43.4436C30.7819 42.711 32.317 41.4624 33.4001 39.856C34.4833 38.2496 35.0658 36.3576 35.0739 34.4196V23.6244ZM36.9834 18.2835C35.8893 17.0965 35.218 15.5808 35.0739 13.9723V13.2916H33.6091C33.7902 14.3141 34.1842 15.2869 34.7655 16.1469C35.3469 17.007 36.1026 17.7349 36.9834 18.2835ZM21.7248 37.1163C21.2171 36.4518 20.9059 35.658 20.8268 34.8252C20.7476 33.9924 20.9036 33.1541 21.2771 32.4057C21.6505 31.6573 22.2263 31.0289 22.939 30.5919C23.6517 30.1549 24.4726 29.927 25.3084 29.934C25.7698 29.9338 26.2285 30.0045 26.6686 30.1434V24.7327C26.1542 24.6645 25.6354 24.6353 25.1166 24.6454V28.8518C24.0451 28.5128 22.8854 28.5899 21.8681 29.0678C20.8508 29.5456 20.0505 30.3892 19.6263 31.4307C19.2021 32.4723 19.1852 33.6355 19.5789 34.6889C19.9726 35.7424 20.748 36.609 21.7509 37.1163H21.7248Z" fill="white" fill-opacity="0.12"/>
<path fill-rule="evenodd" clip-rule="evenodd" d="M33.521 22.3328C35.6715 23.8752 38.2518 24.7025 40.8975 24.6978V20.5263C39.3901 20.2073 38.0208 19.4228 36.9825 18.2835C36.1017 17.7349 35.346 17.007 34.7646 16.1469C34.1833 15.2869 33.7893 14.3141 33.6082 13.2916H29.7543V34.4196C29.7507 35.3548 29.4546 36.2654 28.9075 37.0236C28.3605 37.7817 27.59 38.3494 26.7041 38.6469C25.8183 38.9443 24.8616 38.9567 23.9684 38.6822C23.0752 38.4077 22.2903 37.8601 21.7239 37.1163C20.8263 36.663 20.1074 35.9202 19.6833 35.0078C19.2592 34.0954 19.1546 33.0666 19.3863 32.0874C19.618 31.1082 20.1726 30.2357 20.9606 29.6107C21.7485 28.9856 22.7239 28.6445 23.7293 28.6424C24.1906 28.6439 24.6491 28.7145 25.0895 28.8518V24.6454C23.1866 24.6911 21.3385 25.292 19.7719 26.3742C18.2054 27.4563 16.9886 28.9728 16.271 30.7373C15.5534 32.5019 15.3662 34.4378 15.7323 36.3073C16.0985 38.1769 17.002 39.8988 18.3321 41.2616C19.8039 42.2451 21.5147 42.8106 23.2822 42.8979C25.0498 42.9851 26.8079 42.5909 28.3692 41.7571C29.9306 40.9233 31.2368 39.6813 32.1486 38.1632C33.0604 36.6452 33.5438 34.908 33.5472 33.1368L33.521 22.3328Z" fill="white"/>
<path fill-rule="evenodd" clip-rule="evenodd" d="M40.8979 20.5263V19.4005C39.5136 19.4064 38.1561 19.019 36.983 18.2834C38.0186 19.4261 39.3891 20.2112 40.8979 20.5263ZM33.6087 13.2916C33.6087 13.0909 33.5476 12.8814 33.5215 12.6807V12H28.2027V33.1367C28.1981 34.3203 27.7245 35.4536 26.886 36.288C26.0474 37.1225 24.9123 37.5898 23.7298 37.5875C23.0335 37.591 22.3463 37.4295 21.7244 37.1162C22.2907 37.86 23.0756 38.4076 23.9689 38.6821C24.8621 38.9567 25.8187 38.9443 26.7046 38.6468C27.5904 38.3494 28.361 37.7817 28.908 37.0236C29.4551 36.2654 29.7512 35.3548 29.7548 34.4196V13.2916H33.6087ZM25.09 24.6367V23.4411C22.9013 23.1435 20.6765 23.5966 18.7782 24.7266C16.8798 25.8566 15.4197 27.5968 14.636 29.6637C13.8523 31.7305 13.7911 34.0021 14.4623 36.1082C15.1336 38.2143 16.4978 40.0308 18.3326 41.2616C17.0126 39.8956 16.1186 38.1744 15.76 36.3082C15.4013 34.4421 15.5935 32.5118 16.3129 30.7531C17.0324 28.9945 18.2481 27.4837 19.8114 26.4052C21.3747 25.3267 23.218 24.7274 25.1161 24.6803L25.09 24.6367Z" fill="white" fill-opacity="0.46"/>
</svg>
