<svg width="57" height="56" viewBox="0 0 57 56" fill="none" xmlns="http://www.w3.org/2000/svg">
<circle cx="28.5" cy="28" r="28" fill="#6862ED"/>
<path d="M44.3331 21.2789C43.9666 19.9902 42.8823 18.9736 41.5027 18.6252C39.0083 18 29 18 29 18C29 18 18.9968 18 16.4973 18.6252C15.1228 18.9689 14.0385 19.9855 13.6669 21.2789C13 23.6175 13 28.5 13 28.5C13 28.5 13 33.3825 13.6669 35.7211C14.0334 37.0098 15.1177 38.0264 16.4973 38.3748C18.9968 39 29 39 29 39C29 39 39.0083 39 41.5027 38.3748C42.8772 38.0311 43.9615 37.0145 44.3331 35.7211C45 33.3825 45 28.5 45 28.5C45 28.5 45 23.6175 44.3331 21.2789Z" fill="white"/>
<path d="M25.8031 33.0007L34.1161 28.5L25.8031 23.9993V33.0007Z" fill="#6862ED"/>
</svg>
