<svg width="56" height="56" viewBox="0 0 56 56" fill="none" xmlns="http://www.w3.org/2000/svg">
<circle cx="28" cy="28" r="28" fill="#6862ED"/>
<path d="M28.7064 31.7909V27.8019H41.9934C42.046 29.8496 41.7831 31.7909 41.2049 33.6259C40.6266 35.4342 39.7592 37.0431 38.6027 38.4525C37.4461 39.862 36.0005 40.9789 34.2657 41.8033C32.5571 42.6011 30.6121 43 28.4304 43C26.3539 43 24.4351 42.6543 22.674 41.9629C20.9129 41.2448 19.3753 40.2343 18.061 38.9312C16.7731 37.6281 15.7742 36.0857 15.0645 34.304C14.3548 32.5222 14 30.5676 14 28.4402C14 26.3127 14.3548 24.3714 15.0645 22.6162C15.8005 20.8345 16.8125 19.3054 18.1004 18.0289C19.4147 16.7258 20.9524 15.7286 22.7134 15.0371C24.5008 14.3457 26.4328 14 28.5093 14C30.3229 14 31.9657 14.2526 33.4377 14.7579C34.9096 15.2366 36.2239 15.9413 37.3804 16.8721C38.5632 17.7762 39.5621 18.8799 40.3769 20.1829L36.5919 22.7359C35.8296 21.4062 34.7651 20.3425 33.3983 19.5447C32.0577 18.7469 30.4281 18.348 28.5093 18.348C26.7219 18.348 25.1054 18.7735 23.6597 19.6245C22.214 20.4489 21.0575 21.619 20.1901 23.1348C19.3227 24.624 18.889 26.3925 18.889 28.4402C18.889 30.4613 19.3096 32.243 20.1507 33.7854C21.0181 35.3012 22.1746 36.4846 23.6203 37.3356C25.0659 38.1866 26.6956 38.6121 28.5093 38.6121C29.7447 38.6121 30.8486 38.4392 31.8212 38.0935C32.7937 37.7478 33.6348 37.2558 34.3445 36.6176C35.0542 35.9794 35.6456 35.248 36.1187 34.4237C36.5919 33.5993 36.9467 32.7217 37.1833 31.7909H28.7064Z" fill="white"/>
</svg>
