<svg width="57" height="56" viewBox="0 0 57 56" fill="none" xmlns="http://www.w3.org/2000/svg">
<circle cx="28.5" cy="28" r="28" fill="#6862ED"/>
<path d="M29.0005 14.0038C29.0005 14.0038 37.2527 13.6348 41.6278 21.8999H28.2983C28.2983 21.8999 25.7828 21.8191 23.634 24.8599C23.0167 26.1363 22.3532 27.451 23.0978 30.042C22.0252 28.2313 17.4033 20.2123 17.4033 20.2123C17.4033 20.2123 20.6633 14.3306 29.0004 14.0038H29.0005Z" fill="white"/>
<path d="M41.1994 34.9856C41.1994 34.9856 37.3915 42.2935 28.0244 41.9321C29.1818 39.9369 34.691 30.4302 34.691 30.4302C34.691 30.4302 36.022 28.3005 34.4518 24.9253C33.6531 23.7528 32.8391 22.5265 30.2157 21.8729C32.3261 21.8538 41.6045 21.8729 41.6045 21.8729C41.6045 21.8729 45.0805 27.6278 41.1994 34.9856Z" fill="white"/>
<path d="M16.8593 35.0434C16.8593 35.0434 12.411 28.1045 17.411 20.2008C18.5645 22.196 24.0737 31.7028 24.0737 31.7028C24.0737 31.7028 25.262 33.9171 28.9772 34.2476C30.3932 34.1439 31.8669 34.0554 33.7497 32.1218C32.7117 33.9517 28.0551 41.9477 28.0551 41.9477C28.0551 41.9477 21.3113 42.0707 16.8592 35.0434H16.8593Z" fill="white"/>
<path d="M28.0205 42.0014L29.8955 34.2054C29.8955 34.2054 31.9557 34.0438 33.6842 32.1564C32.6115 34.0363 28.0205 42.0014 28.0205 42.0014Z" fill="#6862ED"/>
<path d="M22.7197 28.089C22.7197 24.6523 25.5168 21.8652 28.9658 21.8652C32.4148 21.8652 35.2119 24.6523 35.2119 28.089C35.2119 31.5257 32.4148 34.3127 28.9658 34.3127C25.5168 34.3089 22.7197 31.5257 22.7197 28.089Z" fill="white"/>
<path d="M23.7651 28.0891C23.7651 25.2291 26.0916 22.9071 28.9658 22.9071C31.8361 22.9071 34.1664 25.2252 34.1664 28.0891C34.1664 30.9493 31.8401 33.2713 28.9658 33.2713C26.0954 33.2713 23.7651 30.9493 23.7651 28.0891Z" fill="#6862ED"/>
<path d="M41.6007 21.8768L33.8808 24.1334C33.8808 24.1334 32.7157 22.4303 30.2119 21.8768C32.384 21.8653 41.6007 21.8768 41.6007 21.8768Z" fill="#6862ED"/>
<path d="M22.9473 29.7577C21.8631 27.8855 17.4033 20.2124 17.4033 20.2124L23.1209 25.8481C23.1209 25.8481 22.5344 27.0514 22.7544 28.7735L22.9472 29.7577H22.9473Z" fill="#6862ED"/>
</svg>
