<svg width="102" height="103" viewBox="0 0 102 103" fill="none" xmlns="http://www.w3.org/2000/svg">
<path d="M14.6362 75.018H86.2021C86.2538 74.9579 86.3069 74.8965 86.3572 74.835C93.3081 66.3667 88.7331 52.0019 86.1409 47.932C83.5488 43.8621 89.0799 39.429 81.1579 32.1637C73.2359 24.8985 45.4797 18.3891 29.7023 25.1896C13.9249 31.9901 17.0543 40.0272 16.5103 45.3669C15.9663 50.7067 14.8661 53.4266 14.8661 53.4266C14.8661 53.4266 8.54342 59.2684 10.4801 67.9117C11.005 70.2604 12.4534 72.6906 14.6362 75.018Z" fill="#BCBAF7"/>
<path opacity="0.3" d="M14.6362 75.018H86.2021C86.2538 74.9579 86.3069 74.8965 86.3572 74.835C93.3081 66.3667 88.7331 52.0019 86.1409 47.932C83.5488 43.8621 89.0799 39.429 81.1579 32.1637C73.2359 24.8985 45.4797 18.3891 29.7023 25.1896C13.9249 31.9901 17.0543 40.0272 16.5103 45.3669C15.9663 50.7067 14.8661 53.4266 14.8661 53.4266C14.8661 53.4266 8.54342 59.2684 10.4801 67.9117C11.005 70.2604 12.4534 72.6906 14.6362 75.018Z" fill="#BCBAF7"/>
<path opacity="0.6" d="M42.4867 35.7234C42.9408 35.2776 42.9408 34.5547 42.4867 34.1089C42.0326 33.663 41.2963 33.663 40.8422 34.1089C40.3881 34.5547 40.3881 35.2776 40.8422 35.7234C41.2963 36.1693 42.0326 36.1693 42.4867 35.7234Z" fill="white"/>
<path opacity="0.3" d="M55.7531 37.7972C56.3953 37.7972 56.9159 37.2861 56.9159 36.6556C56.9159 36.0251 56.3953 35.5139 55.7531 35.5139C55.1109 35.5139 54.5903 36.0251 54.5903 36.6556C54.5903 37.2861 55.1109 37.7972 55.7531 37.7972Z" fill="white"/>
<path opacity="0.6" d="M49.6058 34.7808C49.901 34.7808 50.1402 34.5459 50.1402 34.2561C50.1402 33.9663 49.901 33.7313 49.6058 33.7313C49.3106 33.7313 49.0713 33.9663 49.0713 34.2561C49.0713 34.5459 49.3106 34.7808 49.6058 34.7808Z" fill="white"/>
<path opacity="0.3" d="M58.7244 40.8938C59.0196 40.8938 59.2589 40.6588 59.2589 40.369C59.2589 40.0792 59.0196 39.8442 58.7244 39.8442C58.4292 39.8442 58.1899 40.0792 58.1899 40.369C58.1899 40.6588 58.4292 40.8938 58.7244 40.8938Z" fill="white"/>
<path opacity="0.6" d="M25.0428 40.2275C25.338 40.2275 25.5773 39.9926 25.5773 39.7027C25.5773 39.4129 25.338 39.178 25.0428 39.178C24.7476 39.178 24.5083 39.4129 24.5083 39.7027C24.5083 39.9926 24.7476 40.2275 25.0428 40.2275Z" fill="white"/>
<path opacity="0.3" d="M45.3831 42.2918C45.6783 42.2918 45.9176 42.0569 45.9176 41.7671C45.9176 41.4773 45.6783 41.2423 45.3831 41.2423C45.0879 41.2423 44.8486 41.4773 44.8486 41.7671C44.8486 42.0569 45.0879 42.2918 45.3831 42.2918Z" fill="white"/>
<path opacity="0.3" d="M38.783 37.5957C39.0782 37.5957 39.3175 37.3607 39.3175 37.0709C39.3175 36.7811 39.0782 36.5461 38.783 36.5461C38.4878 36.5461 38.2485 36.7811 38.2485 37.0709C38.2485 37.3607 38.4878 37.5957 38.783 37.5957Z" fill="white"/>
<path opacity="0.6" d="M77.5726 39.3369C77.8678 39.3369 78.107 39.1019 78.107 38.8121C78.107 38.5223 77.8678 38.2874 77.5726 38.2874C77.2774 38.2874 77.0381 38.5223 77.0381 38.8121C77.0381 39.1019 77.2774 39.3369 77.5726 39.3369Z" fill="white"/>
<path opacity="0.3" d="M47.7155 38.274C47.7155 38.0952 47.6615 37.9204 47.5603 37.7718C47.4591 37.6231 47.3153 37.5072 47.1471 37.4388C46.9788 37.3704 46.7937 37.3525 46.6151 37.3874C46.4365 37.4222 46.2725 37.5083 46.1437 37.6348C46.0149 37.7612 45.9272 37.9223 45.8917 38.0976C45.8562 38.273 45.8744 38.4547 45.9441 38.6199C46.0138 38.7851 46.1318 38.9263 46.2832 39.0256C46.4346 39.1249 46.6126 39.178 46.7947 39.178C47.0389 39.178 47.2731 39.0827 47.4458 38.9132C47.6185 38.7437 47.7155 38.5137 47.7155 38.274Z" fill="white"/>
<path opacity="0.6" d="M35.5853 37.6998C36.0938 37.6998 36.506 37.2951 36.506 36.7958C36.506 36.2966 36.0938 35.8918 35.5853 35.8918C35.0768 35.8918 34.6646 36.2966 34.6646 36.7958C34.6646 37.2951 35.0768 37.6998 35.5853 37.6998Z" fill="white"/>
<path opacity="0.6" d="M61.1383 35.6048C61.1383 35.426 61.0843 35.2512 60.9831 35.1026C60.882 34.9539 60.7382 34.838 60.5699 34.7696C60.4017 34.7012 60.2166 34.6833 60.038 34.7182C59.8594 34.7531 59.6953 34.8392 59.5665 34.9656C59.4378 35.092 59.3501 35.2531 59.3146 35.4284C59.279 35.6038 59.2973 35.7855 59.367 35.9507C59.4366 36.1159 59.5547 36.2571 59.7061 36.3564C59.8575 36.4557 60.0355 36.5088 60.2176 36.5088C60.4618 36.5088 60.696 36.4135 60.8686 36.244C61.0413 36.0745 61.1383 35.8445 61.1383 35.6048Z" fill="white"/>
<path opacity="0.3" d="M41.3709 39.716C41.8794 39.716 42.2916 39.3113 42.2916 38.8121C42.2916 38.3128 41.8794 37.9081 41.3709 37.9081C40.8624 37.9081 40.4502 38.3128 40.4502 38.8121C40.4502 39.3113 40.8624 39.716 41.3709 39.716Z" fill="white"/>
<path opacity="0.3" d="M74.8665 37.6998C75.375 37.6998 75.7872 37.2951 75.7872 36.7958C75.7872 36.2966 75.375 35.8918 74.8665 35.8918C74.358 35.8918 73.9458 36.2966 73.9458 36.7958C73.9458 37.2951 74.358 37.6998 74.8665 37.6998Z" fill="white"/>
<path opacity="0.6" d="M50.8746 40.4611C50.8749 40.2823 50.8211 40.1073 50.7201 39.9585C50.6191 39.8097 50.4754 39.6936 50.3072 39.625C50.139 39.5564 49.9538 39.5383 49.7751 39.573C49.5964 39.6077 49.4323 39.6937 49.3034 39.8201C49.1745 39.9465 49.0866 40.1075 49.051 40.2829C49.0154 40.4583 49.0335 40.6401 49.1032 40.8054C49.1728 40.9707 49.2908 41.1119 49.4423 41.2113C49.5937 41.3107 49.7718 41.3637 49.9539 41.3637C50.1979 41.3637 50.4319 41.2687 50.6045 41.0994C50.7771 40.9302 50.8743 40.7006 50.8746 40.4611Z" fill="white"/>
<path opacity="0.3" d="M30.068 37.0709C30.068 36.8921 30.014 36.7173 29.9128 36.5686C29.8117 36.42 29.6679 36.3041 29.4996 36.2357C29.3314 36.1673 29.1463 36.1494 28.9677 36.1842C28.7891 36.2191 28.625 36.3052 28.4962 36.4316C28.3675 36.5581 28.2798 36.7191 28.2443 36.8945C28.2087 37.0698 28.227 37.2516 28.2966 37.4168C28.3663 37.582 28.4843 37.7232 28.6358 37.8225C28.7872 37.9218 28.9652 37.9748 29.1473 37.9748C29.2682 37.9748 29.3879 37.9514 29.4996 37.906C29.6113 37.8606 29.7128 37.794 29.7983 37.7101C29.8838 37.6261 29.9516 37.5265 29.9979 37.4168C30.0442 37.3071 30.068 37.1896 30.068 37.0709Z" fill="white"/>
<path d="M89.1493 65.6069C88.7128 65.6737 87.7635 65.404 87.7621 65.404C87.7608 65.404 88.1334 64.8432 88.1606 64.8111C88.487 64.4346 89.3411 63.8951 89.862 64.1074C89.9473 64.145 90.0236 64.1997 90.086 64.2681C90.1484 64.3365 90.1954 64.417 90.224 64.5044C90.2526 64.5918 90.2622 64.6841 90.252 64.7754C90.2419 64.8667 90.2123 64.9548 90.1653 65.0341C89.9776 65.3786 89.5206 65.5509 89.1493 65.6069ZM81.6789 63.4278C81.9509 63.1794 82.2405 62.7869 82.2052 62.3983C82.1999 62.3066 82.1751 62.217 82.1323 62.1354C82.0894 62.0537 82.0296 61.9818 81.9566 61.9244C81.8836 61.867 81.7991 61.8253 81.7086 61.802C81.6181 61.7787 81.5236 61.7745 81.4313 61.7894C80.8778 61.8949 80.4685 62.8069 80.4072 63.2983C80.4072 63.3397 80.3991 64.0113 80.4072 64.0086C80.4154 64.006 81.3525 63.7175 81.6789 63.4278ZM78.4352 61.8361C78.7073 62.0351 79.3873 62.1967 79.5559 62.2367C79.6253 62.3636 79.6919 62.5038 79.7762 62.6507C79.9122 62.9177 80.0577 63.2235 80.1978 63.5653C80.2345 63.6561 80.2713 63.7549 80.308 63.8511C80.2114 63.7015 80.0768 63.4999 80.0605 63.4825C79.7789 63.1487 79.0337 62.6653 78.574 62.8456C78.4991 62.8782 78.432 62.9258 78.3771 62.9854C78.3221 63.045 78.2805 63.1153 78.2548 63.1916C78.2292 63.268 78.2202 63.3488 78.2283 63.4288C78.2364 63.5088 78.2615 63.5862 78.302 63.6561C78.4638 63.9606 78.8637 64.1181 79.1901 64.1715C79.5165 64.2249 80.225 64.0554 80.3773 64.0166C80.4562 64.2289 80.531 64.4493 80.5963 64.6843C80.7198 65.1082 80.8049 65.5421 80.8506 65.9808L80.8234 65.9888C80.7513 65.842 80.5936 65.5348 80.5772 65.5108C80.3352 65.1489 79.6484 64.5881 79.171 64.7177C79.0924 64.7414 79.0198 64.7812 78.9579 64.8344C78.896 64.8875 78.8462 64.9529 78.8117 65.0262C78.7772 65.0995 78.7587 65.1791 78.7576 65.2598C78.7565 65.3405 78.7727 65.4206 78.8052 65.4948C78.9317 65.8139 79.3111 66.0129 79.6293 66.1023C79.9952 66.2038 80.8234 66.077 80.8533 66.0716C80.8861 66.5089 80.8902 66.9478 80.8656 67.3855C80.8479 67.71 80.818 68.0371 80.784 68.3656C80.7364 68.2601 80.5297 67.8582 80.512 67.8315C80.2699 67.4683 79.5831 66.9075 79.1057 67.0384C79.0271 67.0618 78.9543 67.1013 78.8923 67.1543C78.8303 67.2073 78.7804 67.2726 78.7458 67.3458C78.7113 67.4191 78.6929 67.4986 78.6919 67.5794C78.6909 67.6601 78.7072 67.7401 78.7399 67.8142C78.8664 68.1346 79.2458 68.3336 79.5627 68.4217C79.9204 68.5205 80.716 68.403 80.7867 68.3923C80.7704 68.5419 80.7568 68.6914 80.7391 68.8396C80.6847 69.3284 80.6289 69.8171 80.5881 70.3004C80.5732 70.4673 80.5664 70.6343 80.5569 70.7998C80.4807 70.6449 80.3365 70.3659 80.3216 70.3432C80.0781 69.98 79.3927 69.4192 78.9153 69.542C78.8367 69.5658 78.7641 69.6056 78.7022 69.6587C78.6402 69.7118 78.5903 69.7771 78.5557 69.8504C78.5211 69.9236 78.5026 70.0032 78.5013 70.084C78.4999 70.1647 78.5159 70.2448 78.5481 70.3191C78.676 70.6383 79.0554 70.8385 79.3723 70.9267C79.6892 71.0148 80.3624 70.9267 80.5501 70.904C80.5392 71.1804 80.5324 71.4541 80.5405 71.7238C80.5405 71.8413 80.5405 71.9602 80.5569 72.071C80.5732 72.1818 80.5759 72.2953 80.5854 72.4062C80.614 72.6332 80.6385 72.8455 80.6697 73.0564C80.6847 73.1633 80.7024 73.2634 80.7187 73.3676C80.6643 73.1993 80.5759 72.9336 80.565 72.9109C80.3801 72.5103 79.7885 71.86 79.2975 71.9174C79.2161 71.9291 79.1381 71.9575 79.0686 72.0007C78.9992 72.0439 78.9397 72.101 78.8942 72.1683C78.8486 72.2355 78.818 72.3114 78.8043 72.3911C78.7906 72.4707 78.7942 72.5523 78.8147 72.6305C78.8909 72.9656 79.2349 73.218 79.5355 73.3529C79.8673 73.5011 80.6439 73.5064 80.7391 73.5064C80.7799 73.7588 80.8221 74.0058 80.8656 74.2355C80.9132 74.4919 80.9621 74.7309 81.0097 74.9539H81.328C81.2709 74.7162 81.2124 74.4598 81.1539 74.1807C81.109 73.9738 81.0669 73.7534 81.0247 73.5264C81.1145 73.5051 81.8162 73.3262 82.1127 73.1139C82.303 73.2727 82.5028 73.4203 82.7111 73.5558C82.6023 73.7895 82.4989 74.0178 82.4065 74.2328C82.2949 74.4892 82.1957 74.7295 82.1045 74.9539H82.4364C82.5098 74.7602 82.5887 74.5533 82.6771 74.3423C82.7655 74.1313 82.8444 73.9417 82.9369 73.7281C83.028 73.7588 83.761 74.0071 84.1228 73.9751C84.4519 73.9457 84.8626 73.8189 85.0476 73.5264C85.0934 73.4594 85.1244 73.3837 85.1384 73.3041C85.1524 73.2245 85.1492 73.143 85.1289 73.0647C85.1086 72.9864 85.0717 72.9133 85.0207 72.85C84.9697 72.7866 84.9056 72.7346 84.8327 72.6972C84.388 72.4836 83.6087 72.9096 83.3013 73.222C83.2823 73.242 83.0769 73.5037 82.9749 73.6399C83.0321 73.5131 83.0865 73.3849 83.1477 73.2541C83.2333 73.0631 83.3299 72.8642 83.4197 72.6719L83.5761 72.3728C83.6277 72.2713 83.6903 72.1792 83.7461 72.0804C83.8331 71.9375 83.9283 71.7946 84.0249 71.6517C84.2166 71.7492 84.7865 72.0256 85.1061 72.0456C85.4257 72.0657 85.8609 72.0002 86.088 71.7399C86.1437 71.6804 86.186 71.6101 86.2122 71.5335C86.2384 71.4569 86.2478 71.3758 86.2398 71.2954C86.2319 71.215 86.2067 71.1371 86.166 71.0669C86.1253 70.9967 86.07 70.9357 86.0037 70.888C85.5957 70.6102 84.7606 70.916 84.4097 71.179C84.3988 71.1884 84.3295 71.2511 84.2493 71.3273C84.3472 71.1937 84.4451 71.0522 84.5485 70.9173C84.8436 70.5328 85.155 70.1509 85.4665 69.7663C85.5317 69.6862 85.5956 69.6048 85.6596 69.5246C85.8214 69.6074 86.4361 69.9132 86.7693 69.9332C87.1025 69.9533 87.5241 69.8878 87.7526 69.6275C87.8079 69.5678 87.8499 69.4975 87.8759 69.421C87.9018 69.3444 87.9111 69.2634 87.9031 69.1831C87.8952 69.1028 87.8702 69.0251 87.8297 68.9549C87.7893 68.8847 87.7343 68.8236 87.6683 68.7756C87.2603 68.4978 86.4253 68.8036 86.0744 69.0666C86.0608 69.076 85.9805 69.1521 85.8894 69.2376C86.0553 69.0266 86.2185 68.8129 86.3736 68.598C86.6414 68.2287 86.884 67.8424 87.0998 67.4416C87.1569 67.471 87.8696 67.8422 88.2409 67.8662C88.57 67.8863 88.9957 67.8208 89.2228 67.5605C89.2784 67.501 89.3206 67.4308 89.3468 67.3543C89.3729 67.2777 89.3824 67.1967 89.3746 67.1164C89.3668 67.036 89.3418 66.9582 89.3014 66.8879C89.2609 66.8177 89.2059 66.7566 89.1398 66.7085C88.7318 66.4308 87.8968 66.7366 87.5445 66.9996C87.5201 67.0183 87.2277 67.2947 87.1257 67.4002L87.1338 67.3869C87.3355 66.9879 87.5011 66.5724 87.6289 66.1451C87.7424 65.7633 87.8332 65.3755 87.9009 64.9834C87.9689 64.6215 88.0083 64.285 88.0369 63.9873C88.0532 63.8257 88.0654 63.6775 88.0749 63.5399L88.0831 63.548C88.0831 63.548 88.3701 63.0325 88.3837 62.9965C88.5441 62.5959 88.6121 61.7186 88.2286 61.4115C88.1634 61.3624 88.0884 61.3273 88.0085 61.3085C87.9286 61.2897 87.8456 61.2876 87.7648 61.3023C87.684 61.317 87.6072 61.3483 87.5396 61.394C87.4718 61.4397 87.4147 61.4989 87.3718 61.5677C87.1787 61.8548 87.2358 62.2741 87.3446 62.5799C87.4534 62.8857 87.9349 63.3957 88.0545 63.5146C88.0423 63.6588 88.026 63.811 88.0056 63.9792C87.9661 64.2757 87.9199 64.6108 87.8437 64.97C87.8233 65.0662 87.7975 65.169 87.7757 65.2678C87.7757 65.0929 87.7757 64.8512 87.7757 64.8271C87.7295 64.3959 87.3786 63.5894 86.8945 63.4919C86.8139 63.4786 86.7315 63.4821 86.6524 63.502C86.5734 63.522 86.4995 63.5579 86.4354 63.6076C86.3713 63.6573 86.3186 63.7196 86.2805 63.7905C86.2425 63.8614 86.22 63.9394 86.2145 64.0193C86.1777 64.3598 86.4225 64.707 86.6646 64.9286C86.9067 65.1503 87.5935 65.3933 87.7417 65.4427C87.6887 65.663 87.6275 65.8874 87.55 66.1184C87.4153 66.5391 87.2423 66.9471 87.0332 67.3375L87.006 67.3294C87.0291 67.1679 87.0699 66.8261 87.0699 66.7953C87.0699 66.3614 86.8129 65.5215 86.3423 65.3719C86.2634 65.3491 86.1805 65.3428 86.099 65.3534C86.0175 65.3641 85.9392 65.3915 85.8692 65.4338C85.7991 65.4761 85.739 65.5324 85.6925 65.599C85.6461 65.6657 85.6145 65.7412 85.5997 65.8206C85.5263 66.1557 85.7357 66.5283 85.9465 66.774C86.1941 67.0571 86.957 67.4002 86.9856 67.4136C86.7675 67.7958 86.5244 68.1637 86.258 68.5152C86.0608 68.7755 85.85 69.0333 85.6392 69.2883C85.6582 69.1748 85.7113 68.7275 85.7113 68.6941C85.7113 68.2601 85.4556 67.4216 84.9837 67.2707C84.9048 67.2478 84.8219 67.2416 84.7404 67.2523C84.6589 67.2631 84.5806 67.2906 84.5106 67.3331C84.4407 67.3755 84.3806 67.432 84.3344 67.4988C84.2882 67.5656 84.2569 67.6412 84.2425 67.7207C84.1677 68.0558 84.3784 68.427 84.5879 68.6727C84.83 68.9505 85.5589 69.2816 85.6215 69.3097C85.5249 69.4258 85.4284 69.542 85.3305 69.6568C85.0109 70.0347 84.6899 70.4113 84.3785 70.7931C84.2724 70.9267 84.1731 71.0602 84.0725 71.1937C84.0956 71.0241 84.1323 70.7117 84.1323 70.685C84.1323 70.251 83.8753 69.4125 83.4047 69.2616C83.3258 69.2387 83.2429 69.2325 83.1614 69.2432C83.0799 69.254 83.0016 69.2815 82.9317 69.3239C82.8617 69.3664 82.8017 69.4229 82.7555 69.4897C82.7093 69.5565 82.6779 69.6321 82.6635 69.7116C82.5887 70.0467 82.7995 70.4179 83.0089 70.6636C83.2184 70.9093 83.8317 71.1977 84.0045 71.2832C83.8399 71.5062 83.6808 71.7318 83.5352 71.9615C83.4741 72.0617 83.4061 72.1605 83.353 72.2606C83.3 72.3608 83.2442 72.4582 83.1898 72.5544C83.0851 72.76 82.9872 72.955 82.8947 73.1432C82.8471 73.2407 82.8049 73.3328 82.7587 73.429C82.809 73.2594 82.8838 72.9897 82.8879 72.9643C82.9559 72.5357 82.8308 71.6678 82.3888 71.4488C82.3143 71.4144 82.2332 71.3958 82.1509 71.3942C82.0686 71.3926 81.9868 71.4081 81.911 71.4395C81.8352 71.471 81.767 71.5179 81.7108 71.577C81.6546 71.6361 81.6118 71.7061 81.585 71.7826C81.5704 71.8226 81.559 71.8637 81.551 71.9054C81.2914 72.19 81.1107 72.5353 81.0261 72.9082C81.0261 72.9349 80.9975 73.2647 80.988 73.433C80.9635 73.2995 80.939 73.1659 80.9145 73.0177C80.8792 72.8121 80.8493 72.5931 80.818 72.3821C80.8057 72.2726 80.7935 72.1605 80.7812 72.0483C80.769 71.9361 80.7677 71.8253 80.7581 71.7132C80.75 71.5462 80.75 71.3753 80.75 71.2044C80.9649 71.1817 81.5959 71.1029 81.872 70.9467C82.1481 70.7905 82.4772 70.5007 82.5207 70.1602C82.5342 70.0807 82.5305 69.9992 82.5098 69.9211C82.4891 69.8431 82.4518 69.7702 82.4005 69.7072C82.3492 69.6442 82.2849 69.5925 82.2119 69.5555C82.1389 69.5186 82.0587 69.4971 81.9767 69.4926C81.4817 69.4806 80.9553 70.1883 80.8098 70.5982C80.8098 70.6116 80.784 70.701 80.7595 70.8078C80.7595 70.6409 80.7677 70.474 80.7785 70.3058C80.8085 69.8251 80.8533 69.3364 80.8969 68.8477C80.9064 68.7462 80.9145 68.6434 80.9227 68.5419C81.1036 68.5232 81.7877 68.4457 82.0773 68.2815C82.367 68.1173 82.6825 67.8342 82.7261 67.4937C82.7393 67.4141 82.7355 67.3328 82.7147 67.2548C82.6939 67.1768 82.6566 67.104 82.6053 67.041C82.554 66.9781 82.4899 66.9264 82.417 66.8894C82.344 66.8524 82.264 66.8308 82.1821 66.8261C81.6884 66.8154 81.1621 67.5231 81.0165 67.933C81.0165 67.9477 80.9853 68.0545 80.9581 68.1747C80.9785 67.9076 80.9948 67.6406 81.0029 67.3735C81.0187 66.9209 81.0041 66.4677 80.9594 66.0169C81.0233 66.0102 81.8271 65.9341 82.1494 65.7498C82.435 65.5869 82.7533 65.3025 82.7968 64.9633C82.8098 64.8838 82.8058 64.8025 82.7849 64.7246C82.764 64.6467 82.7268 64.574 82.6755 64.5111C82.6243 64.4482 82.5602 64.3966 82.4874 64.3595C82.4146 64.3224 82.3346 64.3006 82.2528 64.2957C81.7577 64.285 81.2314 64.9927 81.0859 65.4027C81.0764 65.432 80.9866 65.8206 80.9594 65.9608C80.9601 65.9555 80.9601 65.9501 80.9594 65.9448C80.9039 65.5024 80.8084 65.0659 80.6738 64.6402C80.5559 64.2598 80.4151 63.8866 80.2522 63.5226C80.1053 63.1834 79.9503 62.8817 79.8102 62.6159C79.7327 62.4717 79.6592 62.3422 79.5899 62.222H79.6008C79.6089 62.222 79.5505 61.6358 79.5423 61.5998C79.4485 61.1752 79.0146 60.4087 78.5223 60.362C78.4403 60.3561 78.3579 60.3673 78.2806 60.3948C78.2033 60.4223 78.1327 60.4655 78.0736 60.5215C78.0144 60.5776 77.9679 60.6453 77.9372 60.7202C77.9065 60.7951 77.8923 60.8755 77.8953 60.9562C77.8899 61.3207 78.1714 61.6412 78.4352 61.8361ZM11.3791 65.6069C11.8156 65.6737 12.7649 65.404 12.7663 65.404C12.7677 65.404 12.395 64.8432 12.3678 64.8111C12.0414 64.4346 11.1873 63.8951 10.6664 64.1074C10.5811 64.145 10.5048 64.1997 10.4424 64.2681C10.38 64.3365 10.333 64.417 10.3044 64.5044C10.2758 64.5918 10.2663 64.6841 10.2764 64.7754C10.2865 64.8667 10.3161 64.9548 10.3632 65.0341C10.5522 65.3786 11.0078 65.5509 11.3791 65.6069ZM20.1198 64.0046C20.1293 64.0046 20.1198 63.337 20.1198 63.2943C20.0586 62.8029 19.6493 61.8909 19.0957 61.7854C19.0035 61.7707 18.9091 61.7751 18.8187 61.7985C18.7283 61.8218 18.6439 61.8635 18.5709 61.9209C18.498 61.9783 18.4381 62.0501 18.3952 62.1316C18.3523 62.2132 18.3273 62.3027 18.3219 62.3943C18.2865 62.7828 18.5694 63.1754 18.8482 63.4238C19.176 63.7175 20.1198 64.0086 20.1198 64.0086V64.0046ZM22.6385 60.9736C22.6416 60.8929 22.6273 60.8125 22.5966 60.7376C22.5659 60.6627 22.5195 60.595 22.4603 60.5389C22.4011 60.4828 22.3306 60.4396 22.2533 60.4121C22.1759 60.3846 22.0936 60.3735 22.0116 60.3794C21.5193 60.4261 21.0854 61.1925 20.9916 61.6172C20.9834 61.6532 20.9249 62.2407 20.9331 62.2394H20.944C20.8746 62.3596 20.8012 62.4891 20.7236 62.6333C20.5877 62.9004 20.4285 63.2008 20.2817 63.5399C20.1188 63.904 19.978 64.2772 19.86 64.6576C19.7255 65.0832 19.6299 65.5198 19.5744 65.9621C19.5751 65.9675 19.5751 65.9728 19.5744 65.9782C19.5472 65.8379 19.4575 65.444 19.448 65.42C19.3024 65.0101 18.7761 64.3024 18.2811 64.3131C18.1992 64.318 18.1193 64.3397 18.0465 64.3768C17.9737 64.4139 17.9096 64.4656 17.8583 64.5285C17.8071 64.5914 17.7698 64.6641 17.7489 64.742C17.7281 64.8199 17.724 64.9012 17.7371 64.9807C17.7806 65.3199 18.0988 65.6043 18.3844 65.7672C18.7081 65.9488 19.5105 66.0249 19.5744 66.0342C19.5297 66.485 19.5152 66.9382 19.5309 67.3909C19.5391 67.6579 19.5554 67.925 19.5758 68.192C19.5486 68.0719 19.5228 67.965 19.5173 67.9504C19.3718 67.5404 18.8455 66.8327 18.3518 66.8434C18.2699 66.8481 18.1898 66.8697 18.1169 66.9068C18.044 66.9438 17.9798 66.9955 17.9285 67.0584C17.8772 67.1213 17.84 67.1942 17.8192 67.2721C17.7984 67.3501 17.7945 67.4315 17.8078 67.511C17.8513 67.8515 18.1696 68.136 18.4565 68.2989C18.7435 68.4618 19.4303 68.5405 19.6112 68.5592C19.6193 68.6607 19.6275 68.7635 19.637 68.865C19.6805 69.3537 19.7254 69.8424 19.7553 70.3231C19.7662 70.4914 19.7703 70.6583 19.7744 70.8252C19.7499 70.7184 19.7295 70.6289 19.724 70.6156C19.5785 70.2056 19.0522 69.4979 18.5585 69.51C18.4765 69.5145 18.3964 69.5359 18.3233 69.5729C18.2503 69.6099 18.186 69.6615 18.1347 69.7245C18.0834 69.7875 18.0462 69.8604 18.0255 69.9385C18.0047 70.0165 18.001 70.098 18.0145 70.1776C18.0581 70.5181 18.3763 70.8025 18.6632 70.9641C18.9502 71.1256 19.5704 71.1991 19.7852 71.2218C19.7852 71.3927 19.7852 71.5636 19.7771 71.7305C19.7676 71.8427 19.7689 71.9522 19.754 72.0657C19.739 72.1792 19.7295 72.29 19.7172 72.3995C19.686 72.6105 19.6561 72.8294 19.6207 73.0351C19.5962 73.1779 19.5717 73.3141 19.5472 73.4503C19.5377 73.2821 19.5146 72.9523 19.5092 72.9256C19.4246 72.5527 19.2438 72.2074 18.9842 71.9228C18.9762 71.881 18.9648 71.8399 18.9502 71.7999C18.9235 71.7235 18.8806 71.6534 18.8244 71.5943C18.7683 71.5352 18.7 71.4884 18.6242 71.4569C18.5484 71.4254 18.4667 71.41 18.3843 71.4115C18.302 71.4131 18.221 71.4317 18.1464 71.4661C17.7044 71.6851 17.5793 72.553 17.6473 72.9817C17.6473 73.007 17.7262 73.2768 17.7833 73.4463C17.7384 73.3502 17.6963 73.2581 17.6473 73.1606C17.5548 72.967 17.4569 72.7774 17.3522 72.5717L17.189 72.278C17.136 72.1778 17.068 72.079 17.0068 71.9789C16.8613 71.7492 16.7021 71.5235 16.5376 71.3006C16.7103 71.2204 17.3168 70.928 17.5331 70.681C17.7493 70.434 17.9533 70.0641 17.8785 69.7289C17.8641 69.6494 17.8328 69.5738 17.7866 69.507C17.7403 69.4402 17.6803 69.3838 17.6104 69.3413C17.5404 69.2988 17.4621 69.2713 17.3806 69.2606C17.2991 69.2498 17.2162 69.2561 17.1373 69.2789C16.6668 69.4298 16.4084 70.2684 16.4097 70.7023C16.4097 70.7291 16.4464 71.0415 16.4696 71.2111C16.3689 71.0776 16.2696 70.944 16.1636 70.8105C15.8576 70.4286 15.5366 70.0521 15.2116 69.6742C15.1136 69.5594 15.0171 69.4432 14.9205 69.327C14.9831 69.299 15.712 68.9678 15.9541 68.6901C16.169 68.4444 16.3744 68.0732 16.2996 67.738C16.2851 67.6585 16.2538 67.5829 16.2076 67.5161C16.1614 67.4494 16.1013 67.3929 16.0314 67.3504C15.9615 67.3079 15.8832 67.2804 15.8017 67.2697C15.7201 67.259 15.6372 67.2652 15.5584 67.2881C15.0878 67.4389 14.8294 68.2775 14.8308 68.7115C14.8308 68.7448 14.8838 69.1922 14.9029 69.3057C14.6907 69.0506 14.4813 68.7929 14.2854 68.5325C14.0181 68.1814 13.7745 67.8134 13.5564 67.4309C13.585 67.4176 14.348 67.0744 14.5955 66.7913C14.8117 66.5456 15.0157 66.1731 14.9423 65.838C14.9275 65.7585 14.8959 65.683 14.8495 65.6164C14.8031 65.5498 14.7429 65.4934 14.6729 65.4511C14.6028 65.4088 14.5245 65.3814 14.443 65.3708C14.3615 65.3601 14.2786 65.3664 14.1997 65.3893C13.7292 65.5388 13.4721 66.3787 13.4721 66.8127C13.4721 66.8407 13.5129 67.1826 13.536 67.3468L13.5089 67.3548C13.2997 66.9645 13.1268 66.5565 12.992 66.1357C12.9145 65.9047 12.8561 65.6804 12.8003 65.4601C12.9485 65.4107 13.6258 65.177 13.8774 64.946C14.129 64.715 14.3643 64.3772 14.3276 64.0367C14.322 63.9567 14.2995 63.8788 14.2615 63.8079C14.2234 63.737 14.1707 63.6747 14.1066 63.625C14.0426 63.5753 13.9686 63.5393 13.8896 63.5194C13.8105 63.4995 13.7281 63.496 13.6476 63.5092C13.1634 63.608 12.8139 64.4146 12.7663 64.8445C12.7663 64.8685 12.7663 65.1116 12.7663 65.2851C12.7445 65.1863 12.7187 65.0835 12.6983 64.9874C12.6221 64.6282 12.5759 64.293 12.5364 63.9966C12.516 63.8284 12.4997 63.6761 12.4875 63.5319C12.6072 63.4091 13.0845 62.9057 13.1988 62.5972C13.313 62.2888 13.3633 61.8722 13.1702 61.5851C13.1273 61.5163 13.0702 61.4571 13.0025 61.4114C12.9348 61.3656 12.858 61.3344 12.7772 61.3196C12.6965 61.3049 12.6134 61.307 12.5335 61.3258C12.4536 61.3447 12.3786 61.3798 12.3134 61.4289C11.9299 61.736 11.9979 62.6106 12.1584 63.0139C12.172 63.0499 12.4535 63.5707 12.4589 63.5653L12.4671 63.5573C12.4766 63.6908 12.4888 63.8431 12.5052 64.0046C12.5378 64.3024 12.5772 64.6389 12.6412 65.0007C12.7088 65.3928 12.7997 65.7807 12.9132 66.1624C13.0409 66.5898 13.2066 67.0053 13.4082 67.4042L13.4164 67.4176C13.3144 67.3161 13.022 67.0397 12.9975 67.017C12.6452 66.7499 11.8088 66.4482 11.4022 66.7259C11.3361 66.7739 11.2811 66.835 11.2406 66.9053C11.2002 66.9756 11.1753 67.0534 11.1674 67.1337C11.1596 67.2141 11.1691 67.2951 11.1952 67.3716C11.2214 67.4481 11.2636 67.5184 11.3193 67.5778C11.5464 67.8382 11.972 67.9036 12.3012 67.8836C12.6724 67.8609 13.3892 67.483 13.4422 67.459C13.658 67.8597 13.9006 68.246 14.1684 68.6153C14.3235 68.8303 14.4867 69.0439 14.6526 69.2549C14.5628 69.1695 14.4812 69.0933 14.4676 69.084C14.1168 68.8169 13.2804 68.5152 12.8737 68.7929C12.8077 68.841 12.7527 68.902 12.7123 68.9722C12.6718 69.0424 12.6468 69.1202 12.6389 69.2005C12.6309 69.2808 12.6402 69.3618 12.6662 69.4383C12.6921 69.5148 12.7341 69.5852 12.7894 69.6448C13.0179 69.9052 13.4422 69.9706 13.7727 69.9506C14.1032 69.9306 14.7247 69.6248 14.8825 69.542C14.9464 69.6221 15.0103 69.7036 15.0756 69.7837C15.387 70.1682 15.6984 70.5501 15.9936 70.9347C16.0969 71.0682 16.1949 71.2017 16.2928 71.3446C16.2125 71.2685 16.1432 71.2111 16.1323 71.1964C15.7814 70.9293 14.9437 70.6276 14.5384 70.9053C14.472 70.9531 14.4167 71.0141 14.376 71.0843C14.3353 71.1545 14.3101 71.2323 14.3022 71.3128C14.2942 71.3932 14.3036 71.4743 14.3298 71.5509C14.356 71.6275 14.3983 71.6978 14.454 71.7572C14.6812 72.0176 15.1069 72.0817 15.436 72.063C15.7651 72.0443 16.3254 71.7666 16.524 71.6691C16.6205 71.812 16.7157 71.9548 16.796 72.0977C16.8531 72.1965 16.9143 72.2887 16.966 72.3901L17.1224 72.6892C17.2162 72.8815 17.3128 73.0805 17.3944 73.2714C17.4556 73.4049 17.5113 73.5305 17.5671 73.6573C17.4651 73.5238 17.2597 73.2567 17.2407 73.2394C16.9333 72.9269 16.1527 72.501 15.7093 72.7146C15.6364 72.752 15.5724 72.804 15.5213 72.8673C15.4703 72.9306 15.4334 73.0038 15.4131 73.0821C15.3929 73.1603 15.3896 73.2419 15.4036 73.3214C15.4176 73.401 15.4486 73.4768 15.4945 73.5438C15.6794 73.8362 16.0901 73.9631 16.4193 73.9925C16.781 74.0245 17.5072 73.7761 17.6052 73.7454C17.6976 73.9564 17.7861 74.1634 17.8649 74.3597C17.9438 74.5559 18.0322 74.7776 18.1057 74.9712H18.4375C18.3468 74.7469 18.2462 74.5065 18.1356 74.2502C18.0431 74.0352 17.9397 73.8069 17.8309 73.5732C18.0394 73.438 18.2393 73.2904 18.4293 73.1312C18.7326 73.3435 19.4344 73.5224 19.5173 73.5438C19.4752 73.7708 19.433 73.9911 19.3881 74.1981C19.3296 74.4772 19.2712 74.7322 19.214 74.9712H19.5323C19.5799 74.7482 19.6288 74.5092 19.6764 74.2528C19.72 74.0232 19.7621 73.7761 19.8029 73.5238C19.8981 73.5238 20.6747 73.5238 21.0065 73.3702C21.3071 73.2367 21.6512 72.983 21.7273 72.6478C21.7479 72.5696 21.7514 72.4881 21.7377 72.4084C21.724 72.3288 21.6934 72.2529 21.6478 72.1856C21.6023 72.1184 21.5429 72.0613 21.4734 72.0181C21.4039 71.9749 21.3259 71.9465 21.2445 71.9348C20.7536 71.8774 20.1565 72.533 19.977 72.9282C19.9661 72.9509 19.8777 73.2167 19.8247 73.3849C19.8397 73.2808 19.8573 73.1806 19.8723 73.0738C19.9036 72.8628 19.9281 72.6505 19.9566 72.4235C19.9661 72.3127 19.9756 72.2019 19.9852 72.0884C19.9947 71.9749 19.9961 71.8587 20.0015 71.7412C20.0097 71.4741 20.0015 71.1977 19.992 70.9213C20.1796 70.948 20.8501 71.0322 21.1697 70.944C21.4893 70.8559 21.8674 70.6556 21.9939 70.3365C22.0261 70.2622 22.0421 70.1821 22.0408 70.1013C22.0395 70.0206 22.0209 69.941 21.9863 69.8678C21.9517 69.7945 21.9018 69.7292 21.8398 69.6761C21.7779 69.6229 21.7053 69.5832 21.6267 69.5594C21.1493 69.4258 20.4639 69.9906 20.2204 70.3605C20.2055 70.3832 20.0613 70.6623 19.9852 70.8172C19.9756 70.6516 19.9689 70.4847 19.9539 70.3178C19.9131 69.8344 19.8573 69.3457 19.8029 68.857C19.7866 68.7088 19.7716 68.5592 19.7553 68.4097C19.822 68.4204 20.6176 68.5432 20.9793 68.4391C21.2962 68.3509 21.6756 68.152 21.8021 67.8315C21.8348 67.7574 21.8512 67.6774 21.8501 67.5967C21.8491 67.516 21.8307 67.4364 21.7962 67.3632C21.7617 67.2899 21.7117 67.2247 21.6497 67.1717C21.5877 67.1187 21.515 67.0792 21.4363 67.0557C20.9589 66.9222 20.2735 67.4857 20.03 67.8489C20.0124 67.8756 19.8043 68.2775 19.758 68.383C19.724 68.0545 19.6941 67.7274 19.6764 67.4029C19.6519 66.9651 19.656 66.5262 19.6887 66.089C19.72 66.089 20.5482 66.2225 20.9127 66.1197C21.2296 66.0302 21.609 65.8313 21.7355 65.5121C21.7682 65.438 21.7845 65.3579 21.7835 65.2771C21.7825 65.1963 21.7642 65.1166 21.7296 65.0432C21.6951 64.9699 21.6452 64.9045 21.5831 64.8514C21.5211 64.7983 21.4484 64.7586 21.3697 64.735C20.8923 64.6015 20.2055 65.1663 19.9634 65.5282C19.9471 65.5522 19.7893 65.8593 19.7172 66.0062L19.69 65.9982C19.7357 65.5595 19.8208 65.1256 19.9444 64.7016C20.0096 64.4666 20.0804 64.2463 20.1633 64.034C20.3156 64.0727 21.012 64.245 21.352 64.1889C21.692 64.1328 22.0768 63.9779 22.2387 63.6735C22.2792 63.6036 22.3043 63.5261 22.3124 63.4461C22.3205 63.3661 22.3115 63.2853 22.2858 63.209C22.2602 63.1326 22.2186 63.0624 22.1636 63.0028C22.1086 62.9432 22.0416 62.8956 21.9667 62.863C21.507 62.6827 20.7617 63.1661 20.4802 63.4999C20.4639 63.5172 20.3293 63.7189 20.2327 63.8684C20.2708 63.7723 20.3061 63.6735 20.3442 63.5827C20.4802 63.2408 20.6312 62.9364 20.7644 62.668C20.842 62.5171 20.9154 62.3809 20.9848 62.2541C21.1548 62.2167 21.8348 62.0551 22.1054 61.8535C22.376 61.6519 22.6385 61.3207 22.6385 60.9776V60.9736Z" fill="#6862ED"/>
<path d="M10.1821 66.2305C10.2426 66.8431 10.3421 67.4514 10.48 68.0518C10.48 68.0825 10.4963 68.1145 10.5031 68.1452H12.6913V72.6852C13.143 73.3161 13.6311 73.9211 14.1533 74.4971V68.1452H20.9805V75.0179H22.4398V68.1452H29.267V75.0179H30.7358V68.1452H37.563V75.0179H39.0318V68.1452H45.859V75.0179H47.3224V68.1452H54.1496V75.0179H55.6116V68.1452H62.4388V75.0179H63.9021V68.1452H70.7198V75.0179H72.1832V68.1452H79.0158V75.0179H80.4792V68.1452H87.3064V73.5678C87.8945 72.6738 88.385 71.7214 88.7697 70.7263V68.1452H89.5449C89.6809 67.5137 89.7911 66.8741 89.8686 66.2305H10.1821Z" fill="#353535" stroke="#353535" stroke-width="0.3" stroke-linecap="round" stroke-linejoin="round"/>
<path opacity="0.3" d="M27.8475 35.2091C28.7542 34.319 28.7541 32.8758 27.8475 31.9857C26.9409 31.0956 25.471 31.0956 24.5644 31.9857C23.6578 32.8758 23.6578 34.319 24.5644 35.2091C25.471 36.0993 26.9409 36.0993 27.8475 35.2091Z" fill="white"/>
<path opacity="0.3" d="M19.114 35.9383C20.3321 35.5481 20.9973 34.2623 20.5998 33.0664C20.2023 31.8705 18.8927 31.2174 17.6747 31.6076C16.4567 31.9979 15.7914 33.2837 16.1889 34.4796C16.5864 35.6754 17.896 36.3285 19.114 35.9383Z" fill="white"/>
<path opacity="0.3" d="M34.3829 34.1856C35.3303 33.3374 35.398 31.8958 34.5341 30.9656C33.6702 30.0354 32.2019 29.969 31.2545 30.8171C30.3071 31.6653 30.2394 33.107 31.1033 34.0371C31.9672 34.9673 33.4355 35.0338 34.3829 34.1856Z" fill="white"/>
<path opacity="0.3" d="M40.1755 33.3227C41.4577 33.3227 42.497 32.3022 42.497 31.0433C42.497 29.7845 41.4577 28.764 40.1755 28.764C38.8934 28.764 37.854 29.7845 37.854 31.0433C37.854 32.3022 38.8934 33.3227 40.1755 33.3227Z" fill="white"/>
<path opacity="0.3" d="M47.9031 31.3518C49.1852 31.3518 50.2246 30.3314 50.2246 29.0725C50.2246 27.8137 49.1852 26.7932 47.9031 26.7932C46.6209 26.7932 45.5815 27.8137 45.5815 29.0725C45.5815 30.3314 46.6209 31.3518 47.9031 31.3518Z" fill="white"/>
<path opacity="0.3" d="M54.5228 31.1223C55.4294 30.2322 55.4294 28.789 54.5228 27.8989C53.6162 27.0088 52.1463 27.0088 51.2397 27.8989C50.3331 28.789 50.3331 30.2322 51.2397 31.1223C52.1463 32.0125 53.6162 32.0125 54.5228 31.1223Z" fill="white"/>
<path opacity="0.3" d="M69.9584 33.3838C70.4542 32.2229 69.8976 30.8872 68.7152 30.4004C67.5328 29.9136 66.1724 30.46 65.6766 31.6209C65.1807 32.7818 65.7373 34.1175 66.9197 34.6043C68.1021 35.0911 69.4626 34.5447 69.9584 33.3838Z" fill="white"/>
<path opacity="0.3" d="M82.77 35.8166C84.0173 35.5253 84.7879 34.2964 84.4912 33.0717C84.1945 31.8471 82.9429 31.0904 81.6955 31.3817C80.4482 31.673 79.6775 32.902 79.9742 34.1266C80.2709 35.3513 81.5226 36.1079 82.77 35.8166Z" fill="white"/>
<path opacity="0.3" d="M60.7414 33.1902C61.9931 32.9175 62.7826 31.7002 62.5049 30.4713C62.2272 29.2423 60.9873 28.4671 59.7356 28.7398C58.4839 29.0125 57.6944 30.2298 57.9721 31.4587C58.2498 32.6877 59.4897 33.4629 60.7414 33.1902Z" fill="white"/>
<path opacity="0.3" d="M74.879 35.3314C76.1444 35.1286 77.0028 33.9571 76.7962 32.7147C76.5897 31.4723 75.3964 30.6295 74.131 30.8323C72.8657 31.0351 72.0073 32.2066 72.2138 33.449C72.4203 34.6914 73.6136 35.5342 74.879 35.3314Z" fill="white"/>
<path opacity="0.3" d="M55.2595 29.0912C56.5416 29.0912 57.581 28.0707 57.581 26.8119C57.581 25.5531 56.5416 24.5326 55.2595 24.5326C53.9774 24.5326 52.938 25.5531 52.938 26.8119C52.938 28.0707 53.9774 29.0912 55.2595 29.0912Z" fill="white"/>
<path opacity="0.3" d="M45.3777 29.0912C46.6598 29.0912 47.6992 28.0707 47.6992 26.8119C47.6992 25.5531 46.6598 24.5326 45.3777 24.5326C44.0955 24.5326 43.0562 25.5531 43.0562 26.8119C43.0562 28.0707 44.0955 29.0912 45.3777 29.0912Z" fill="white"/>
<path d="M12.5405 32.0555C12.5405 32.0555 34.699 34.5378 59.9624 22.6886" stroke="#353535" stroke-width="0.3" stroke-linecap="round" stroke-linejoin="round"/>
<path d="M19.0399 33.9637C19.0475 34.105 19.0122 34.2455 18.9386 34.3672C18.8649 34.4889 18.7561 34.5864 18.6259 34.6473C18.4958 34.7083 18.3501 34.73 18.2074 34.7097C18.0647 34.6894 17.9313 34.628 17.8242 34.5333C17.717 34.4385 17.6409 34.3147 17.6054 34.1775C17.5699 34.0402 17.5767 33.8957 17.6249 33.7623C17.6731 33.6288 17.7605 33.5124 17.8761 33.4278C17.9917 33.3431 18.1302 33.294 18.2742 33.2867C18.3698 33.2816 18.4655 33.2952 18.5557 33.3265C18.646 33.3578 18.729 33.4063 18.8002 33.4692C18.8713 33.5321 18.9291 33.6081 18.9702 33.693C19.0114 33.7778 19.035 33.8698 19.0399 33.9637Z" fill="white" stroke="#353535" stroke-width="0.3" stroke-linecap="round" stroke-linejoin="round"/>
<path d="M18.6482 33.3828L17.9057 33.4215L17.8853 33.057C17.8801 32.9602 17.9143 32.8652 17.9803 32.7931C18.0464 32.721 18.1389 32.6776 18.2375 32.6724C18.3361 32.6677 18.4325 32.7014 18.5059 32.7662C18.5793 32.8309 18.6236 32.9216 18.6292 33.0183L18.6482 33.3828Z" fill="#353535" stroke="#353535" stroke-width="0.3" stroke-linecap="round" stroke-linejoin="round"/>
<path d="M17.7373 32.2838C17.7373 32.2838 18.182 32.3653 18.3153 32.6684C18.3589 32.514 18.4548 32.3788 18.5873 32.2851" stroke="#353535" stroke-width="0.3" stroke-linecap="round" stroke-linejoin="round"/>
<path d="M26.9278 33.507C26.9458 33.6473 26.9209 33.7898 26.8564 33.9163C26.7919 34.0428 26.6907 34.1477 26.5655 34.2177C26.4404 34.2878 26.2968 34.3199 26.1531 34.3099C26.0094 34.2999 25.8719 34.2483 25.758 34.1617C25.6441 34.075 25.5589 33.9571 25.5132 33.823C25.4675 33.6888 25.4633 33.5444 25.5012 33.4079C25.5391 33.2714 25.6173 33.149 25.726 33.0561C25.8347 32.9632 25.9689 32.904 26.1118 32.8861C26.207 32.8741 26.3036 32.8807 26.3961 32.9054C26.4886 32.9301 26.5753 32.9726 26.6511 33.0302C26.7269 33.0879 26.7904 33.1597 26.8378 33.2415C26.8853 33.3233 26.9159 33.4135 26.9278 33.507Z" fill="white" stroke="#353535" stroke-width="0.3" stroke-linecap="round" stroke-linejoin="round"/>
<path d="M26.4996 32.9555L25.7611 33.0476L25.7148 32.6857C25.7025 32.5896 25.7295 32.4926 25.7899 32.416C25.8504 32.3394 25.9393 32.2895 26.0372 32.2771C26.0856 32.2712 26.1347 32.2746 26.1817 32.2873C26.2288 32.2999 26.2728 32.3216 26.3114 32.351C26.3499 32.3804 26.3821 32.4169 26.4062 32.4586C26.4304 32.5002 26.4459 32.5461 26.452 32.5936L26.4996 32.9555Z" fill="#353535" stroke="#353535" stroke-width="0.3" stroke-linecap="round" stroke-linejoin="round"/>
<path d="M25.5083 31.9247C25.5083 31.9247 25.9585 31.9741 26.1135 32.2679C26.1449 32.1117 26.2293 31.9705 26.3529 31.8673" stroke="#353535" stroke-width="0.3" stroke-linecap="round" stroke-linejoin="round"/>
<path d="M33.5825 32.6657C33.6067 32.8049 33.5884 32.948 33.5298 33.077C33.4712 33.2059 33.3751 33.315 33.2534 33.3903C33.1318 33.4656 32.9901 33.5038 32.8463 33.5002C32.7026 33.4965 32.5632 33.4511 32.4457 33.3696C32.3282 33.2882 32.2379 33.1744 32.1863 33.0426C32.1346 32.9108 32.1239 32.767 32.1554 32.6292C32.187 32.4915 32.2594 32.366 32.3636 32.2686C32.4678 32.1713 32.599 32.1064 32.7407 32.0822C32.835 32.0661 32.9316 32.0684 33.025 32.0891C33.1184 32.1097 33.2067 32.1482 33.2849 32.2024C33.3631 32.2566 33.4297 32.3255 33.4807 32.405C33.5318 32.4845 33.5664 32.5731 33.5825 32.6657Z" fill="white" stroke="#353535" stroke-width="0.3" stroke-linecap="round" stroke-linejoin="round"/>
<path d="M33.1284 32.1356L32.3954 32.2598L32.3315 31.8993C32.3149 31.8039 32.3375 31.7059 32.3944 31.6268C32.4512 31.5477 32.5376 31.494 32.6348 31.4773C32.6829 31.4691 32.7322 31.4703 32.7799 31.4808C32.8276 31.4913 32.8727 31.511 32.9126 31.5386C32.9525 31.5663 32.9865 31.6014 33.0126 31.642C33.0386 31.6826 33.0563 31.7278 33.0645 31.7751L33.1284 32.1356Z" fill="#353535" stroke="#353535" stroke-width="0.3" stroke-linecap="round" stroke-linejoin="round"/>
<path d="M32.0962 31.1489C32.0962 31.1489 32.5491 31.1782 32.7164 31.464C32.7407 31.3065 32.8183 31.1616 32.9367 31.0527" stroke="#353535" stroke-width="0.3" stroke-linecap="round" stroke-linejoin="round"/>
<path d="M40.9929 31.1916C41.0255 31.3293 41.0158 31.4733 40.965 31.6055C40.9142 31.7377 40.8247 31.8522 40.7076 31.9344C40.5906 32.0166 40.4513 32.0629 40.3075 32.0674C40.1636 32.0719 40.0216 32.0344 39.8995 31.9597C39.7773 31.885 39.6805 31.7764 39.6212 31.6476C39.5619 31.5189 39.5429 31.3757 39.5665 31.2363C39.5901 31.0969 39.6552 30.9676 39.7537 30.8645C39.8522 30.7615 39.9796 30.6895 40.1198 30.6575C40.3077 30.6147 40.5053 30.6469 40.669 30.7471C40.8327 30.8473 40.9493 31.0071 40.9929 31.1916Z" fill="white" stroke="#353535" stroke-width="0.3" stroke-linecap="round" stroke-linejoin="round"/>
<path d="M40.509 30.6868L39.7841 30.8511L39.6998 30.4945C39.6778 30.4 39.695 30.3007 39.7475 30.2186C39.8 30.1365 39.8836 30.0782 39.9799 30.0566C40.0751 30.0348 40.1752 30.0505 40.2586 30.1005C40.342 30.1504 40.4022 30.2306 40.426 30.3236L40.509 30.6868Z" fill="#353535" stroke="#353535" stroke-width="0.3" stroke-linecap="round" stroke-linejoin="round"/>
<path d="M39.417 29.7588C39.417 29.7588 39.8712 29.7588 40.0548 30.0392C40.0693 29.8804 40.1383 29.7311 40.2507 29.616" stroke="#353535" stroke-width="0.3" stroke-linecap="round" stroke-linejoin="round"/>
<path d="M48.6228 28.9844C48.6727 29.1172 48.6814 29.2615 48.6478 29.3991C48.6142 29.5368 48.5398 29.6615 48.434 29.7576C48.3282 29.8537 48.1958 29.9169 48.0534 29.9391C47.9111 29.9614 47.7652 29.9416 47.6342 29.8825C47.5033 29.8233 47.3931 29.7274 47.3177 29.6068C47.2423 29.4862 47.205 29.3464 47.2105 29.2049C47.216 29.0635 47.2641 28.9269 47.3487 28.8123C47.4333 28.6977 47.5506 28.6103 47.6857 28.5612C47.7756 28.5285 47.8711 28.5135 47.9668 28.5171C48.0625 28.5207 48.1566 28.5428 48.2436 28.5821C48.3306 28.6214 48.4089 28.6772 48.474 28.7462C48.539 28.8153 48.5896 28.8962 48.6228 28.9844Z" fill="white" stroke="#353535" stroke-width="0.3" stroke-linecap="round" stroke-linejoin="round"/>
<path d="M48.0762 28.5438L47.3785 28.7975L47.2493 28.4544C47.2148 28.3642 47.218 28.2643 47.2583 28.1765C47.2986 28.0887 47.3726 28.0201 47.4642 27.9857C47.5101 27.9682 47.5592 27.9598 47.6085 27.9611C47.6577 27.9623 47.7063 27.9732 47.7512 27.9931C47.7961 28.013 47.8366 28.0415 47.8702 28.0769C47.9038 28.1123 47.9299 28.1539 47.947 28.1993L48.0762 28.5438Z" fill="#353535" stroke="#353535" stroke-width="0.3" stroke-linecap="round" stroke-linejoin="round"/>
<path d="M46.8735 27.76C46.8735 27.76 47.3237 27.7079 47.5413 27.9589C47.5349 27.8 47.5828 27.6435 47.6773 27.5143" stroke="#353535" stroke-width="0.3" stroke-linecap="round" stroke-linejoin="round"/>
<path d="M56.0088 26.3406C56.0647 26.4712 56.08 26.6152 56.0525 26.7543C56.0251 26.8933 55.9562 27.0213 55.8547 27.1219C55.7531 27.2226 55.6234 27.2913 55.482 27.3195C55.3406 27.3478 55.1938 27.3341 55.0603 27.2804C54.9268 27.2266 54.8126 27.1352 54.732 27.0177C54.6515 26.9001 54.6083 26.7617 54.6079 26.6201C54.6075 26.4784 54.65 26.3398 54.7299 26.2218C54.8098 26.1039 54.9236 26.0118 55.0568 25.9574C55.2348 25.8847 55.435 25.8841 55.6134 25.956C55.7918 26.0278 55.934 26.1661 56.0088 26.3406Z" fill="white" stroke="#353535" stroke-width="0.3" stroke-linecap="round" stroke-linejoin="round"/>
<path d="M55.4447 25.9293L54.7579 26.2124L54.6151 25.8759C54.5955 25.8319 54.5849 25.7845 54.584 25.7365C54.5832 25.6885 54.5919 25.6408 54.6099 25.5961C54.6278 25.5515 54.6546 25.5107 54.6886 25.4762C54.7226 25.4417 54.7633 25.4142 54.8082 25.3952C54.8532 25.3765 54.9015 25.3668 54.9503 25.3665C54.9992 25.3662 55.0476 25.3753 55.0928 25.3934C55.1381 25.4116 55.1792 25.4383 55.2139 25.472C55.2486 25.5057 55.2762 25.5459 55.2951 25.5901L55.4447 25.9293Z" fill="#353535" stroke="#353535" stroke-width="0.3" stroke-linecap="round" stroke-linejoin="round"/>
<path d="M54.208 25.1909C54.208 25.1909 54.6554 25.1202 54.888 25.3619C54.875 25.2027 54.9177 25.044 55.009 24.9119" stroke="#353535" stroke-width="0.3" stroke-linecap="round" stroke-linejoin="round"/>
<path d="M88.1157 32.0555C88.1157 32.0555 65.9599 34.5378 40.6938 22.6886" stroke="#353535" stroke-width="0.3" stroke-linecap="round" stroke-linejoin="round"/>
<path d="M81.6206 33.9637C81.6133 34.1047 81.6487 34.2447 81.7223 34.3659C81.796 34.4872 81.9046 34.5843 82.0345 34.645C82.1643 34.7057 82.3096 34.7273 82.4519 34.707C82.5943 34.6866 82.7272 34.6254 82.8341 34.5309C82.941 34.4364 83.017 34.3129 83.0524 34.176C83.0878 34.0392 83.0812 33.8951 83.0332 33.762C82.9853 33.6288 82.8983 33.5126 82.7831 33.428C82.668 33.3434 82.5299 33.2942 82.3863 33.2867C82.2907 33.2816 82.195 33.2952 82.1048 33.3265C82.0145 33.3578 81.9315 33.4063 81.8603 33.4692C81.7892 33.5321 81.7314 33.6081 81.6903 33.693C81.6491 33.7778 81.6254 33.8698 81.6206 33.9637Z" fill="white" stroke="#353535" stroke-width="0.3" stroke-linecap="round" stroke-linejoin="round"/>
<path d="M82.0078 33.3828L82.7504 33.4215L82.7708 33.057C82.7733 33.0088 82.7662 32.9606 82.7497 32.9152C82.7332 32.8698 82.7078 32.828 82.6748 32.7922C82.6418 32.7565 82.6019 32.7275 82.5575 32.7069C82.513 32.6864 82.4649 32.6747 82.4158 32.6724C82.3173 32.6677 82.2208 32.7014 82.1474 32.7662C82.0741 32.8309 82.0298 32.9216 82.0241 33.0183L82.0078 33.3828Z" fill="#353535" stroke="#353535" stroke-width="0.3" stroke-linecap="round" stroke-linejoin="round"/>
<path d="M82.9193 32.2838C82.9193 32.2838 82.4746 32.3653 82.3413 32.6684C82.2978 32.514 82.2018 32.3788 82.0693 32.2851" stroke="#353535" stroke-width="0.3" stroke-linecap="round" stroke-linejoin="round"/>
<path d="M74.8693 34.1849C75.199 33.958 75.2789 33.5117 75.0478 33.188C74.8167 32.8643 74.3621 32.7859 74.0325 33.0128C73.7028 33.2397 73.6229 33.686 73.854 34.0096C74.0851 34.3333 74.5396 34.4118 74.8693 34.1849Z" fill="white" stroke="#353535" stroke-width="0.3" stroke-linecap="round" stroke-linejoin="round"/>
<path d="M74.1567 32.9556L74.8952 33.0477L74.9415 32.6858C74.9538 32.5897 74.9268 32.4927 74.8663 32.4161C74.8059 32.3395 74.717 32.2896 74.6191 32.2772C74.5225 32.267 74.4256 32.2945 74.3493 32.3536C74.273 32.4128 74.2234 32.499 74.2111 32.5937L74.1567 32.9556Z" fill="#353535" stroke="#353535" stroke-width="0.3" stroke-linecap="round" stroke-linejoin="round"/>
<path d="M75.1483 31.9247C75.1483 31.9247 74.6981 31.9741 74.5431 32.2679C74.5117 32.1117 74.4273 31.9705 74.3037 31.8673" stroke="#353535" stroke-width="0.3" stroke-linecap="round" stroke-linejoin="round"/>
<path d="M67.0739 32.6657C67.0496 32.8049 67.068 32.948 67.1266 33.077C67.1851 33.2059 67.2813 33.315 67.403 33.3903C67.5246 33.4656 67.6663 33.5038 67.81 33.5002C67.9538 33.4965 68.0932 33.4511 68.2107 33.3696C68.3282 33.2882 68.4185 33.1744 68.4701 33.0426C68.5218 32.9108 68.5325 32.767 68.5009 32.6292C68.4694 32.4915 68.3969 32.366 68.2928 32.2686C68.1886 32.1713 68.0574 32.1064 67.9157 32.0822C67.8214 32.0661 67.7248 32.0684 67.6314 32.0891C67.538 32.1097 67.4496 32.1482 67.3714 32.2024C67.2932 32.2566 67.2267 32.3255 67.1756 32.405C67.1246 32.4845 67.09 32.5731 67.0739 32.6657Z" fill="white" stroke="#353535" stroke-width="0.3" stroke-linecap="round" stroke-linejoin="round"/>
<path d="M67.5278 32.1356L68.2609 32.2598L68.3248 31.8993C68.3414 31.8039 68.3188 31.7059 68.2619 31.6268C68.2051 31.5477 68.1186 31.494 68.0215 31.4773C67.9734 31.4691 67.924 31.4703 67.8764 31.4808C67.8287 31.4913 67.7836 31.511 67.7437 31.5386C67.7037 31.5663 67.6698 31.6014 67.6437 31.642C67.6176 31.6826 67.6 31.7278 67.5918 31.7751L67.5278 32.1356Z" fill="#353535" stroke="#353535" stroke-width="0.3" stroke-linecap="round" stroke-linejoin="round"/>
<path d="M68.5656 31.1489C68.5656 31.1489 68.1127 31.1782 67.9454 31.464C67.9211 31.3065 67.8435 31.1616 67.7251 31.0527" stroke="#353535" stroke-width="0.3" stroke-linecap="round" stroke-linejoin="round"/>
<path d="M59.6629 31.1916C59.6304 31.3293 59.6401 31.4733 59.6909 31.6055C59.7416 31.7377 59.8312 31.8522 59.9483 31.9344C60.0653 32.0166 60.2046 32.0629 60.3484 32.0674C60.4923 32.0719 60.6343 32.0344 60.7564 31.9597C60.8786 31.885 60.9754 31.7764 61.0347 31.6476C61.0939 31.5189 61.113 31.3757 61.0894 31.2363C61.0658 31.0969 61.0007 30.9676 60.9022 30.8645C60.8037 30.7615 60.6763 30.6895 60.5361 30.6575C60.3481 30.6147 60.1506 30.6469 59.9869 30.7471C59.8232 30.8473 59.7066 31.0071 59.6629 31.1916Z" fill="white" stroke="#353535" stroke-width="0.3" stroke-linecap="round" stroke-linejoin="round"/>
<path d="M60.1475 30.6868L60.8723 30.8511L60.9553 30.4945C60.9664 30.4478 60.9679 30.3994 60.9599 30.3521C60.9519 30.3047 60.9344 30.2594 60.9085 30.2187C60.8826 30.178 60.8488 30.1428 60.809 30.1149C60.7692 30.0871 60.7241 30.0673 60.6765 30.0566C60.5813 30.0348 60.4812 30.0505 60.3978 30.1005C60.3144 30.1504 60.2543 30.2306 60.2304 30.3236L60.1475 30.6868Z" fill="#353535" stroke="#353535" stroke-width="0.3" stroke-linecap="round" stroke-linejoin="round"/>
<path d="M61.2394 29.7588C61.2394 29.7588 60.7852 29.7588 60.6016 30.0392C60.5872 29.8804 60.5181 29.7311 60.4058 29.616" stroke="#353535" stroke-width="0.3" stroke-linecap="round" stroke-linejoin="round"/>
<path d="M52.0334 28.9844C51.9835 29.1172 51.9748 29.2615 52.0084 29.3991C52.042 29.5368 52.1164 29.6615 52.2222 29.7576C52.328 29.8537 52.4604 29.9169 52.6028 29.9391C52.7451 29.9614 52.891 29.9416 53.0219 29.8825C53.1529 29.8233 53.263 29.7274 53.3384 29.6068C53.4139 29.4862 53.4512 29.3464 53.4457 29.2049C53.4402 29.0635 53.3921 28.9269 53.3075 28.8123C53.2229 28.6977 53.1056 28.6103 52.9704 28.5612C52.8806 28.5285 52.7851 28.5135 52.6894 28.5171C52.5936 28.5207 52.4996 28.5428 52.4126 28.5821C52.3255 28.6214 52.2473 28.6772 52.1822 28.7462C52.1171 28.8153 52.0666 28.8962 52.0334 28.9844Z" fill="white" stroke="#353535" stroke-width="0.3" stroke-linecap="round" stroke-linejoin="round"/>
<path d="M52.5801 28.5438L53.2778 28.7975L53.407 28.4543C53.4239 28.4093 53.4316 28.3615 53.4297 28.3136C53.4278 28.2657 53.4163 28.2186 53.3958 28.1751C53.3754 28.1315 53.3464 28.0924 53.3105 28.0599C53.2746 28.0274 53.2325 28.0021 53.1866 27.9856C53.0945 27.9519 52.9924 27.9554 52.9029 27.9955C52.8134 28.0355 52.7438 28.1088 52.7093 28.1993L52.5801 28.5438Z" fill="#353535" stroke="#353535" stroke-width="0.3" stroke-linecap="round" stroke-linejoin="round"/>
<path d="M53.7828 27.76C53.7828 27.76 53.3326 27.7079 53.115 27.9589C53.1214 27.8 53.0735 27.6435 52.979 27.5143" stroke="#353535" stroke-width="0.3" stroke-linecap="round" stroke-linejoin="round"/>
<path d="M44.6474 26.3406C44.5914 26.4712 44.5762 26.6152 44.6036 26.7543C44.6311 26.8933 44.6999 27.0213 44.8015 27.1219C44.9031 27.2226 45.0328 27.2913 45.1742 27.3195C45.3156 27.3478 45.4623 27.3341 45.5958 27.2804C45.7293 27.2266 45.8436 27.1352 45.9241 27.0177C46.0047 26.9001 46.0479 26.7617 46.0483 26.6201C46.0486 26.4784 46.0062 26.3398 45.9263 26.2218C45.8464 26.1039 45.7326 26.0118 45.5994 25.9574C45.4213 25.8847 45.2212 25.8841 45.0428 25.956C44.8643 26.0278 44.7222 26.1661 44.6474 26.3406Z" fill="white" stroke="#353535" stroke-width="0.3" stroke-linecap="round" stroke-linejoin="round"/>
<path d="M45.2119 25.9293L45.8987 26.2124L46.0415 25.8759C46.0609 25.8315 46.0712 25.7839 46.0717 25.7356C46.0722 25.6874 46.063 25.6395 46.0445 25.5948C46.0261 25.5501 45.9987 25.5094 45.9641 25.4751C45.9295 25.4409 45.8883 25.4137 45.843 25.3952C45.798 25.3765 45.7496 25.3668 45.7008 25.3665C45.652 25.3662 45.6035 25.3753 45.5583 25.3934C45.5131 25.4116 45.4719 25.4383 45.4372 25.472C45.4025 25.5057 45.3749 25.5459 45.3561 25.5901L45.2119 25.9293Z" fill="#353535" stroke="#353535" stroke-width="0.3" stroke-linecap="round" stroke-linejoin="round"/>
<path d="M46.448 25.1909C46.448 25.1909 46.0006 25.1202 45.768 25.3619C45.781 25.2027 45.7383 25.044 45.647 24.9119" stroke="#353535" stroke-width="0.3" stroke-linecap="round" stroke-linejoin="round"/>
<path opacity="0.3" d="M50.4481 62.6493C51.3547 61.7592 51.3547 60.316 50.4481 59.4259C49.5415 58.5358 48.0716 58.5358 47.165 59.4259C46.2584 60.316 46.2584 61.7592 47.165 62.6493C48.0716 63.5394 49.5415 63.5394 50.4481 62.6493Z" fill="white"/>
<path d="M49.4223 71.2111H48.0977V74.0352H49.4223V71.2111Z" fill="white" stroke="#353535" stroke-width="0.3" stroke-linecap="round" stroke-linejoin="round"/>
<path d="M49.3554 70.0253H48.1953L48.4904 61.7666H49.0589L49.3554 70.0253Z" fill="#6862ED" stroke="#353535" stroke-width="0.3" stroke-linecap="round" stroke-linejoin="round"/>
<path d="M49.232 60.9254C49.232 61.2846 49.0225 61.577 48.7641 61.577C48.5057 61.577 48.2949 61.2846 48.2949 60.9254C48.2949 60.5662 48.7641 59.705 48.7641 59.705C48.7641 59.705 49.232 60.5662 49.232 60.9254Z" fill="white" stroke="#353535" stroke-width="0.3" stroke-linecap="round" stroke-linejoin="round"/>
<path d="M49.4223 70.0052H48.0977V71.211H49.4223V70.0052Z" fill="white" stroke="#353535" stroke-width="0.3" stroke-linecap="round" stroke-linejoin="round"/>
<path d="M49.5185 70.1001H48.032C47.9983 70.0985 47.9664 70.0846 47.9425 70.0611C47.9186 70.0377 47.9045 70.0064 47.9028 69.9732C47.9028 69.939 47.9162 69.906 47.9402 69.8811C47.9643 69.8563 47.9972 69.8414 48.032 69.8397H49.5185C49.5534 69.8414 49.5863 69.8563 49.6103 69.8811C49.6344 69.906 49.6478 69.939 49.6477 69.9732C49.6479 69.99 49.6447 70.0065 49.6382 70.022C49.6318 70.0375 49.6223 70.0515 49.6103 70.0633C49.5982 70.0752 49.5839 70.0845 49.5682 70.0908C49.5524 70.0971 49.5355 70.1003 49.5185 70.1001Z" fill="white" stroke="#353535" stroke-width="0.3" stroke-linecap="round" stroke-linejoin="round"/>
<path d="M49.5185 71.4327H48.032C47.9983 71.431 47.9664 71.4172 47.9425 71.3937C47.9186 71.3703 47.9045 71.3389 47.9028 71.3058C47.9045 71.2727 47.9186 71.2414 47.9425 71.2179C47.9664 71.1945 47.9983 71.1806 48.032 71.179H49.5185C49.5522 71.1806 49.5842 71.1945 49.608 71.2179C49.6319 71.2414 49.6461 71.2727 49.6477 71.3058C49.6479 71.3225 49.6447 71.3391 49.6382 71.3546C49.6318 71.37 49.6223 71.3841 49.6103 71.3959C49.5982 71.4077 49.5839 71.4171 49.5682 71.4234C49.5524 71.4297 49.5355 71.4328 49.5185 71.4327Z" fill="white" stroke="#353535" stroke-width="0.3" stroke-linecap="round" stroke-linejoin="round"/>
<path d="M49.7458 73.8442H47.8064C47.7351 73.8442 47.6772 73.901 47.6772 73.9711V74.0979C47.6772 74.168 47.7351 74.2248 47.8064 74.2248H49.7458C49.8172 74.2248 49.875 74.168 49.875 74.0979V73.9711C49.875 73.901 49.8172 73.8442 49.7458 73.8442Z" fill="white" stroke="#353535" stroke-width="0.3" stroke-linecap="round" stroke-linejoin="round"/>
<path d="M51.7805 75.0179H45.5762C45.5762 74.8075 45.6613 74.6058 45.8128 74.457C45.9643 74.3083 46.1698 74.2247 46.384 74.2247H50.9727C51.0788 74.2246 51.1839 74.245 51.282 74.2847C51.3801 74.3245 51.4692 74.383 51.5443 74.4566C51.6193 74.5303 51.6788 74.6178 51.7194 74.7142C51.7599 74.8105 51.7807 74.9137 51.7805 75.0179Z" fill="white" stroke="#353535" stroke-width="0.3" stroke-linecap="round" stroke-linejoin="round"/>
<path d="M12.5122 75.0179H89.6691" stroke="#353535" stroke-width="0.3" stroke-miterlimit="10" stroke-linecap="round"/>
<path d="M56.9094 57.1466C56.9094 57.1466 55.9942 55.1317 55.627 54.0154C55.2598 52.8991 54.747 52.2876 54.4166 51.9644C54.0861 51.6413 52.5846 51.0644 52.0338 50.6679C51.483 50.2713 49.6878 50.2673 49.541 50.3447C49.4954 50.3815 49.4601 50.429 49.4383 50.4828C49.4165 50.5366 49.409 50.5949 49.4163 50.6523C49.4236 50.7098 49.4456 50.7644 49.4803 50.8113C49.5149 50.8581 49.561 50.8956 49.6144 50.9202C49.9082 51.0644 50.3474 51.3889 50.6045 51.425C50.8615 51.461 52.144 52.3236 52.144 52.3236C52.144 52.3236 50.6412 51.9644 50.24 51.8923C49.8388 51.8202 49.3234 51.8923 49.5056 52.2168C49.5812 52.3528 49.6861 52.471 49.8129 52.5632C49.9397 52.6554 50.0855 52.7195 50.24 52.7509C50.5324 52.823 51.2287 53.2543 51.2287 53.2543C51.2287 53.2543 51.7428 54.9821 52.1086 55.5937C52.4745 56.2052 54.1622 57.2134 54.1622 57.2134C54.1622 57.2134 57.1202 63.0939 58.5482 65.1863C59.9762 67.2787 61.6762 68.0932 62.1522 68.4524C62.6282 68.8116 63.0689 68.885 63.5449 68.6687C64.0209 68.4524 65.3414 67.4442 65.3414 67.4442L67.9078 65.8967L68.4205 57.618C68.4205 57.618 67.1747 58.6608 66.6974 59.0213C66.22 59.3819 64.8722 60.2458 64.2779 60.6744C63.6836 61.103 63.4347 61.8267 63.5082 61.9696C63.5816 62.1125 63.0689 62.1499 62.8486 62.1499C62.6282 62.1499 62.1522 62.8335 62.1522 62.8335C62.1522 62.8335 58.1933 59.0547 57.6425 58.335C57.3488 57.9703 57.1025 57.5711 56.9094 57.1466Z" fill="white" stroke="#353535" stroke-width="0.3" stroke-linecap="round" stroke-linejoin="round"/>
<path d="M54.9535 56.9077C54.5006 56.9184 53.4575 56.9291 53.2358 56.8089C53.1283 56.7473 53.0319 56.6688 52.9502 56.5765L52.1655 52.5961H52.1859C52.415 52.5527 52.6331 52.4651 52.8276 52.3385C53.0222 52.2119 53.1892 52.0488 53.3192 51.8585C53.4491 51.6682 53.5395 51.4545 53.5849 51.2298C53.6304 51.0051 53.63 50.7737 53.584 50.5491L52.4674 46.9065L49.3911 47.49L49.7393 51.2795C49.7831 51.504 49.8716 51.7178 49.9999 51.9086C50.1281 52.0994 50.2934 52.2635 50.4863 52.3914C50.6793 52.5193 50.8961 52.6086 51.1243 52.654C51.3524 52.6994 51.5875 52.7002 51.816 52.6562H51.8364L52.6089 56.5765C52.5673 56.7168 52.5 56.8485 52.4103 56.9651C52.2498 57.1574 51.2774 57.5286 50.8531 57.6848C50.7951 57.7066 50.7452 57.7449 50.7098 57.7949C50.6744 57.845 50.6551 57.9043 50.6546 57.9652L52.9108 57.5366L52.9869 57.5219L55.2432 57.0933C55.2192 57.0376 55.1788 56.9902 55.1272 56.9571C55.0756 56.9241 55.0151 56.9069 54.9535 56.9077Z" fill="white" stroke="#353535" stroke-width="0.3" stroke-linecap="round" stroke-linejoin="round"/>
<path d="M52.1494 52.3997H52.1318L51.8326 52.4585C51.6357 52.497 51.4331 52.497 51.2363 52.4586C51.0394 52.4202 50.8522 52.344 50.6854 52.2345C50.5185 52.125 50.3753 51.9843 50.2639 51.8205C50.1525 51.6566 50.075 51.4727 50.036 51.2795L49.8442 49.3086L53.0049 49.5276L53.349 50.6318C53.389 50.8253 53.3897 51.0246 53.351 51.2183C53.3123 51.412 53.235 51.5963 53.1235 51.7606C53.012 51.9249 52.8686 52.0659 52.7014 52.1756C52.5343 52.2853 52.3467 52.3615 52.1494 52.3997Z" fill="#6862ED"/>
<path d="M55.8051 56.3735C55.3614 56.3143 54.9225 56.225 54.4913 56.1064C53.6291 55.8834 52.9953 53.524 52.9953 53.524C52.9953 53.524 51.8162 52.2782 51.7713 51.6546C51.7265 51.031 52.0433 50.7199 52.4513 51.2994C52.8593 51.8789 54.3091 53.0353 54.3091 53.0353L54.9891 53.2569" fill="white"/>
<path d="M55.8051 56.3735C55.3614 56.3143 54.9225 56.225 54.4913 56.1064C53.6291 55.8834 52.9953 53.524 52.9953 53.524C52.9953 53.524 51.8162 52.2782 51.7713 51.6546C51.7265 51.031 52.0433 50.7199 52.4513 51.2994C52.8593 51.8789 54.3091 53.0353 54.3091 53.0353L54.9891 53.2569" stroke="#353535" stroke-width="0.3" stroke-linecap="round" stroke-linejoin="round"/>
<path d="M51.1756 53.0901C51.1756 53.0901 52.7002 53.3265 52.756 53.703C52.8117 54.0796 52.3303 54.1584 52.1086 54.1103C51.8869 54.0622 51.3266 54.0796 51.0492 53.655C50.7717 53.2303 51.0424 53.0608 51.1756 53.0901Z" fill="white" stroke="#353535" stroke-width="0.3" stroke-linecap="round" stroke-linejoin="round"/>
<path d="M51.238 53.9006C51.238 53.9006 50.8749 54.1143 51.2516 54.6284C51.4189 54.8567 52.7177 55.3107 52.8986 55.0436C53.0794 54.7766 52.734 54.4788 52.3722 54.3012C52.0033 54.1439 51.6245 54.0101 51.238 53.9006Z" fill="white" stroke="#353535" stroke-width="0.3" stroke-linecap="round" stroke-linejoin="round"/>
<path d="M51.3618 54.7191C51.4232 54.9521 51.5146 55.1765 51.6338 55.3868C51.7698 55.5657 52.6769 55.8327 52.7681 55.6097C52.8592 55.3868 52.5858 55.2986 52.3601 55.2092C52.1343 55.1197 51.3618 54.7191 51.3618 54.7191Z" fill="white" stroke="#353535" stroke-width="0.3" stroke-linecap="round" stroke-linejoin="round"/>
<path d="M65.3411 67.4403L67.9074 65.8927L68.4201 57.614C68.4201 57.614 67.1743 58.6569 66.697 59.0174C66.2196 59.3779 64.8719 60.2458 64.2775 60.6745C63.6832 61.1031 63.4343 61.8268 63.5078 61.9697C63.5812 62.1125 63.0685 62.1499 62.8482 62.1499C62.6279 62.1499 62.1519 62.8336 62.1519 62.8336C62.1519 62.8336 63.9879 66.6445 64.2463 68.2348C64.7726 67.8756 65.3411 67.4403 65.3411 67.4403Z" fill="#6862ED" stroke="#353535" stroke-width="0.3" stroke-linecap="round" stroke-linejoin="round"/>
<path d="M62.1519 62.8336C62.1519 62.8336 63.9879 66.6445 64.2463 68.2348C64.7726 67.8756 65.3411 67.4403 65.3411 67.4403L66.4508 66.7727C65.7531 65.5175 63.5078 61.9657 63.5078 61.9657C63.5812 62.1099 63.0685 62.146 62.8482 62.146C62.6279 62.146 62.1519 62.8336 62.1519 62.8336Z" fill="#6862ED" stroke="#353535" stroke-width="0.3" stroke-linecap="round" stroke-linejoin="round"/>
<path d="M65.0095 63.3303L64.3403 62.7094" stroke="#353535" stroke-width="0.3" stroke-linecap="round" stroke-linejoin="round"/>
<path d="M67.9144 66.0236L65.48 63.7656" stroke="#353535" stroke-width="0.3" stroke-linecap="round" stroke-linejoin="round"/>
<path d="M67.3595 66.1009L65.6514 64.8151" stroke="#353535" stroke-width="0.3" stroke-linecap="round" stroke-linejoin="round"/>
<path d="M64.3716 65.8873C64.4872 66.0849 64.5742 66.2412 64.6191 66.336" stroke="#353535" stroke-width="0.3" stroke-linecap="round" stroke-linejoin="round"/>
<path d="M62.394 62.7094C62.394 62.7094 63.376 64.2516 64.0478 65.3465" stroke="#353535" stroke-width="0.3" stroke-linecap="round" stroke-linejoin="round"/>
<path d="M62.934 41.2195C62.934 41.2195 62.3601 43.623 62.7246 43.9849C62.9185 44.1592 63.0776 44.3675 63.1938 44.5991C63.1938 44.5991 61.8896 47.2109 62.2554 47.4152C62.6212 47.6195 63.1938 47.9279 63.1938 47.9279C63.1938 47.9279 64.0288 50.744 64.4464 50.999L64.5157 51.0418C64.7101 51.159 64.9303 51.2285 65.1577 51.2446C65.3852 51.2606 65.6133 51.2226 65.8227 51.1339L66.7407 50.7427L68.306 52.6348L73.202 48.3846L72.6798 46.5419C72.6798 46.5419 73.4101 41.8805 73.5665 40.7548C73.7229 39.6292 72.7845 38.7519 72.0025 38.2445C71.2205 37.7371 67.0467 36.8118 65.1699 37.3232C63.2931 37.8346 61.7794 38.6037 61.623 39.7814C61.4666 40.9591 62.934 41.2195 62.934 41.2195Z" fill="white" stroke="#353535" stroke-width="0.3" stroke-linecap="round" stroke-linejoin="round"/>
<path d="M66.7407 50.744L68.3768 49.9535L67.4588 51.5772L66.7407 50.744Z" fill="#353535" stroke="#353535" stroke-width="0.3" stroke-linecap="round" stroke-linejoin="round"/>
<path d="M72.6867 46.5459C72.6867 46.5459 73.417 41.8845 73.5734 40.7589C73.7298 39.6332 72.7914 38.756 72.0094 38.2486C71.2274 37.7411 67.0536 36.8158 65.1768 37.3272C63.3 37.8386 61.7863 38.6077 61.6299 39.7855C61.4735 40.9632 62.9341 41.2195 62.9341 41.2195C62.9341 41.2195 63.9772 41.3731 64.3934 41.2703C64.8096 41.1675 66.2716 40.8603 66.2716 40.8603C66.2716 40.8603 65.2801 42.7538 65.646 42.9607C66.0118 43.1677 67.7839 43.4214 67.7839 43.4214C67.7839 43.4214 67.7281 44.9583 68.0001 44.9583C68.2721 44.9583 68.7304 44.4963 68.7821 44.2907C68.8338 44.085 69.303 43.1637 70.0864 43.2665C70.8697 43.3693 70.92 45.0584 70.7664 45.4176C70.6127 45.7768 69.6784 46.4858 69.6784 46.4858C69.6784 46.4858 70.6168 47.5621 71.6082 47.4593C72.0516 47.4139 72.4419 47.0493 72.7384 46.6581L72.6867 46.5459Z" fill="#353535" stroke="#353535" stroke-width="0.3" stroke-linecap="round" stroke-linejoin="round"/>
<path d="M66.7461 40.652C66.7461 40.652 69.9271 40.3983 71.2178 41.2422" stroke="#353535" stroke-width="0.3" stroke-miterlimit="10"/>
<path d="M71.6396 42.6963C71.9074 42.7582 72.1501 42.8978 72.336 43.0969" stroke="#353535" stroke-width="0.3" stroke-miterlimit="10"/>
<path d="M66.2319 42.2557C66.2319 42.2557 66.8344 43.1904 68.8975 42.7618C69.8659 42.5642 70.6057 42.5335 71.1551 42.6002" stroke="#353535" stroke-width="0.3" stroke-miterlimit="10"/>
<path d="M64.6951 44.8901C64.7671 45.1038 64.7277 45.3107 64.6039 45.3508C64.4802 45.3909 64.3224 45.2507 64.249 45.0357C64.1755 44.8207 64.2163 44.6151 64.3387 44.575C64.4611 44.535 64.6216 44.6698 64.6951 44.8901Z" fill="#353535"/>
<path d="M64.0806 48.3886C64.0806 48.3886 65.2801 48.2858 65.4895 47.4673" stroke="#353535" stroke-width="0.3" stroke-linecap="round" stroke-linejoin="round"/>
<path d="M63.6113 44.089C63.6113 44.089 63.9772 43.5762 64.8108 43.7805" stroke="#353535" stroke-width="0.3" stroke-linecap="round" stroke-linejoin="round"/>
<path d="M68.3575 52.3317L66.376 54.0222L66.8452 56.8383L67.8883 55.503C67.8883 55.503 67.3144 63.082 67.4191 64.7164C67.4995 65.944 67.4995 67.1754 67.4191 68.403C67.3661 69.2229 67.158 70.7585 66.9499 72.2433C66.7418 73.7281 66.7935 74.9072 67.0016 74.9072C67.1793 74.9197 67.3547 74.9537 67.5238 75.0086H81.4502C81.4502 75.0086 81.6583 69.534 81.6583 67.9931C81.6583 66.4522 81.5019 60.8748 81.0844 59.1803C80.6669 57.4859 79.8849 55.953 78.6364 53.9567C77.3879 51.9605 74.6638 49.6692 74.3565 49.5637C74.0491 49.4582 73.7825 49.3086 73.365 49.5637C72.9475 49.8187 68.877 52.6348 68.877 52.6348L68.3575 52.3317Z" fill="#6862ED" stroke="#353535" stroke-width="0.3" stroke-linecap="round" stroke-linejoin="round"/>
<path d="M73.4699 47.7744L67.1064 53.4587L68.2529 55.3534L74.8775 49.1578L73.4699 47.7744Z" fill="#6862ED" stroke="#353535" stroke-width="0.3" stroke-linecap="round" stroke-linejoin="round"/>
<path d="M66.0634 71.1776C66.0634 71.1776 56.8834 72.2018 56.5706 72.2018C56.2578 72.2018 53.7527 70.4659 53.4426 70.4098C53.1325 70.3538 52.035 70.5113 51.6175 70.5634C51.2 70.6155 50.6261 70.2042 50.5295 70.6649C50.4329 71.1256 50.9987 71.4847 51.3115 71.5355C51.6243 71.5862 52.3029 71.7411 52.3029 71.7411L51.3632 72.2018C51.3632 72.2018 49.6945 72.9188 49.3817 72.9696C49.2969 72.9938 49.2225 73.0444 49.1695 73.1138C49.1165 73.1831 49.0879 73.2675 49.0879 73.3541C49.0879 73.4408 49.1165 73.5251 49.1695 73.5945C49.2225 73.6638 49.2969 73.7144 49.3817 73.7387C49.7032 73.8351 50.0369 73.8868 50.3731 73.8922C50.3997 73.9962 50.4514 74.0923 50.5238 74.1725C50.5963 74.2527 50.6873 74.3146 50.7893 74.3529C51.0278 74.4514 51.2716 74.537 51.5196 74.6093C51.5196 74.6093 52.4063 75.0699 52.9802 75.1207C53.5541 75.1714 56.266 74.9671 56.6835 74.9671C57.101 74.9671 65.6024 75.3263 67.7416 75.3263C69.8809 75.3263 71.7577 75.3771 72.1236 74.9164C72.4894 74.4557 66.0634 71.1776 66.0634 71.1776Z" fill="white" stroke="#353535" stroke-width="0.3" stroke-linecap="round" stroke-linejoin="round"/>
<path d="M52.2935 71.7412C52.2935 71.7412 53.3883 71.5355 53.5447 71.5355L52.2935 71.7412Z" fill="white"/>
<path d="M52.2935 71.7412C52.2935 71.7412 53.3883 71.5355 53.5447 71.5355" stroke="#353535" stroke-width="0.3" stroke-linecap="round" stroke-linejoin="round"/>
<path d="M77.2808 62.7241C77.3804 62.5616 77.4663 62.3915 77.5378 62.2153" stroke="#353535" stroke-width="0.3" stroke-linecap="round" stroke-linejoin="round"/>
<path d="M75.2437 65.854C75.2437 65.854 76.2337 64.4185 76.9192 63.3263" stroke="#353535" stroke-width="0.3" stroke-linecap="round" stroke-linejoin="round"/>
<path d="M71.592 54.2784C71.592 54.2784 69.6622 55.7633 69.4541 56.8382C69.246 57.9131 68.0451 68.6166 68.0451 68.6166C68.0451 68.6166 67.5759 68.8222 67.5759 69.0786V69.5927L65.6978 70.976C65.6978 70.976 66.1153 72.1017 67.7378 73.1779C69.3602 74.2541 71.7484 75.7349 72.5834 75.1715C73.4185 74.608 73.6714 73.0724 73.7299 72.3046C73.7884 71.5368 76.4948 61.0376 76.4948 61.0376" fill="#6862ED"/>
<path d="M71.592 54.2784C71.592 54.2784 69.6622 55.7633 69.4541 56.8382C69.246 57.9131 68.0451 68.6166 68.0451 68.6166C68.0451 68.6166 67.5759 68.8222 67.5759 69.0786V69.5927L65.6978 70.976C65.6978 70.976 66.1153 72.1017 67.7378 73.1779C69.3602 74.2541 71.7484 75.7349 72.5834 75.1715C73.4185 74.608 73.6714 73.0724 73.7299 72.3046C73.7884 71.5368 76.4948 61.0376 76.4948 61.0376" stroke="#353535" stroke-width="0.3" stroke-linecap="round" stroke-linejoin="round"/>
<path d="M67.7279 73.1753C69.345 74.2502 71.744 75.735 72.579 75.1715C73.4141 74.608 73.667 73.0725 73.7255 72.3047C73.7255 72.2339 73.7582 72.0804 73.8044 71.8601C71.9385 70.94 67.5715 69.5901 67.5715 69.5901L65.6934 70.9734C65.6934 70.9734 66.115 72.0991 67.7279 73.1753Z" fill="#6862ED" stroke="#353535" stroke-width="0.3" stroke-linecap="round" stroke-linejoin="round"/>
<path d="M71.5835 69.4819C71.7494 69.5474 71.9099 69.6155 72.0609 69.6929" stroke="#353535" stroke-width="0.3" stroke-linecap="round" stroke-linejoin="round"/>
<path d="M68.0449 68.6166C69.0152 68.7496 69.973 68.959 70.9091 69.2428" stroke="#353535" stroke-width="0.3" stroke-linecap="round" stroke-linejoin="round"/>
<path d="M68.7754 68.4124C68.7754 68.4124 70.7052 68.156 71.9564 68.5152" stroke="#353535" stroke-width="0.3" stroke-linecap="round" stroke-linejoin="round"/>
<path d="M70.7705 72.1938C71.1214 72.4022 71.4423 72.5851 71.6967 72.7146" stroke="#353535" stroke-width="0.3" stroke-linecap="round" stroke-linejoin="round"/>
<path d="M67.3198 70C67.3198 70 68.8389 71.0108 70.1949 71.8427" stroke="#353535" stroke-width="0.3" stroke-linecap="round" stroke-linejoin="round"/>
<path d="M48.8236 52.6748C48.8236 52.2302 48.1435 52.4972 48.1435 52.4972C48.3205 52.2978 48.4871 52.0897 48.6427 51.8737C48.8236 51.6066 48.4604 51.2955 48.1884 51.5172C47.884 51.7265 47.566 51.9161 47.2364 52.0846C47.0737 52.1585 46.9157 52.2419 46.7632 52.3343C46.347 52.58 43.8473 53.5615 43.4719 53.8886C43.0966 54.2157 42.7634 56.7114 42.7634 56.7114C42.7634 56.7114 42.5131 57.4484 42.1799 58.267C41.8467 59.0855 37.6375 64.8539 37.6375 64.8539L34.7244 62.4223C34.6893 62.3806 34.6446 62.3477 34.594 62.3264C34.5434 62.305 34.4884 62.2958 34.4334 62.2995C34.2253 62.2995 34.5775 63.6214 34.4524 64.6028C34.3273 65.5843 33.3644 66.6752 33.8187 66.9623C34.2729 67.2493 38.3162 69.3924 38.6915 69.1922C39.0669 68.9919 41.1395 66.069 41.6835 64.719C42.2275 63.369 44.3464 57.6167 44.3464 57.6167C44.3464 57.6167 45.3882 57.0826 46.1389 56.5939C46.8896 56.1052 47.0909 54.591 47.0909 54.137C47.0909 53.9567 46.6136 53.906 46.7169 53.6362C47.0991 53.508 48.8236 53.046 48.8236 52.6748Z" fill="white" stroke="#353535" stroke-width="0.3" stroke-linecap="round" stroke-linejoin="round"/>
<path d="M47.7591 58.0239C47.3266 57.8903 46.3338 57.5806 46.1611 57.399C46.0789 57.3065 46.0128 57.2014 45.9652 57.0879L46.5024 53.0687H46.5228C46.7535 53.0987 46.9878 53.0837 47.2126 53.0246C47.4373 52.9655 47.6479 52.8634 47.8324 52.7242C48.0168 52.5851 48.1715 52.4115 48.2875 52.2135C48.4035 52.0155 48.4786 51.797 48.5084 51.5705L48.6213 47.7676L45.5137 47.3671L44.6243 51.0698C44.5937 51.2962 44.609 51.5263 44.6692 51.747C44.7294 51.9676 44.8333 52.1744 44.9751 52.3555C45.1169 52.5366 45.2936 52.6885 45.4953 52.8024C45.6969 52.9163 45.9195 52.99 46.1502 53.0193H46.1706L45.6429 56.9784C45.5588 57.0988 45.4522 57.2026 45.3288 57.2841C45.1152 57.4177 44.0721 57.4684 43.6206 57.4858C43.5586 57.4877 43.4987 57.5082 43.4489 57.5444C43.3991 57.5807 43.3617 57.6311 43.3418 57.6887L45.6198 57.9825L45.6973 57.9918L47.9753 58.2856C47.9701 58.2257 47.9466 58.1688 47.9081 58.1222C47.8695 58.0755 47.8176 58.0413 47.7591 58.0239Z" fill="white" stroke="#353535" stroke-width="0.3" stroke-linecap="round" stroke-linejoin="round"/>
<path d="M47.7535 53.3772C47.7535 53.3772 46.2276 53.6149 46.1732 53.9914C46.1188 54.368 46.5989 54.4454 46.8206 54.392C47.0422 54.3386 47.6026 54.3599 47.8786 53.9367C48.1547 53.5134 47.8854 53.3491 47.7535 53.3772Z" fill="white" stroke="#353535" stroke-width="0.3" stroke-linecap="round" stroke-linejoin="round"/>
<path d="M47.566 55.0076C47.5046 55.2406 47.4132 55.4649 47.294 55.6752C47.158 55.8528 46.2522 56.1199 46.1611 55.8982C46.07 55.6765 46.342 55.5857 46.5691 55.4976C46.7962 55.4095 47.566 55.0076 47.566 55.0076Z" fill="white" stroke="#353535" stroke-width="0.3" stroke-linecap="round" stroke-linejoin="round"/>
<path d="M47.6911 54.1876C47.6911 54.1876 48.0542 54.4026 47.6775 54.9167C47.5102 55.145 46.2114 55.5977 46.0306 55.3306C45.8497 55.0636 46.1951 54.7671 46.5569 54.5882C46.926 54.4315 47.3049 54.2977 47.6911 54.1876Z" fill="white" stroke="#353535" stroke-width="0.3" stroke-linecap="round" stroke-linejoin="round"/>
<path d="M46.2508 52.7201H46.2684L46.5717 52.7589C46.9723 52.8093 47.3769 52.7019 47.697 52.4601C48.0171 52.2184 48.2267 51.862 48.2799 51.469L48.3384 49.4888L45.1995 49.9147L44.9275 51.0377C44.9014 51.2335 44.9149 51.4325 44.9673 51.6232C45.0198 51.8139 45.1101 51.9926 45.233 52.1489C45.356 52.3052 45.5092 52.4362 45.6838 52.5342C45.8585 52.6322 46.0512 52.6954 46.2508 52.7201Z" fill="#6862ED"/>
<path d="M43.0137 55.8941C43.0137 55.8941 43.3047 53.6028 43.5142 53.1928C43.7236 52.7829 44.764 52.2581 45.0972 51.8028C45.4304 51.3475 45.3474 50.9028 45.6412 51.1886C45.935 51.4743 45.8085 52.13 45.5582 52.4571C45.308 52.7842 44.8497 53.3985 44.8497 53.3985C44.8497 53.3985 45.0034 55.0689 44.6443 55.7018C44.3832 56.1625 43.8079 56.503 43.8079 56.503" fill="white"/>
<path d="M43.0137 55.8941C43.0137 55.8941 43.3047 53.6028 43.5142 53.1928C43.7236 52.7829 44.764 52.2581 45.0972 51.8028C45.4304 51.3475 45.3474 50.9028 45.6412 51.1886C45.935 51.4743 45.8085 52.13 45.5582 52.4571C45.308 52.7842 44.8497 53.3985 44.8497 53.3985C44.8497 53.3985 45.0034 55.0689 44.6443 55.7018C44.3832 56.1625 43.8079 56.503 43.8079 56.503" stroke="#353535" stroke-width="0.3" stroke-linecap="round" stroke-linejoin="round"/>
<path d="M36.8056 39.1845C36.8056 39.1845 34.5181 37.4367 31.5941 38.3099C28.6701 39.1832 24.4133 43.8006 24.3507 47.0453C24.2881 50.29 26.9551 53.9086 27.4012 54.2197C27.8473 54.5308 30.7046 54.5949 31.5315 55.8421C32.3584 57.0892 33.819 60.7705 34.3875 61.3941C34.956 62.0177 36.4846 62.0805 36.9933 61.2699C37.5019 60.4594 37.3741 60.147 37.3741 60.147C37.3741 60.147 36.1038 60.6464 36.1038 59.4606C36.1038 58.2749 37.2476 58.2135 38.5817 57.4644C39.9159 56.7153 40.6789 54.9688 39.7894 53.1595C38.9 51.3502 37.6284 49.9148 39.0265 48.3525C40.4245 46.7902 41.3779 46.3563 41.3779 44.1731C41.3779 41.9899 37.9439 39.8081 36.8056 39.1845Z" fill="#353535" stroke="#353535" stroke-width="0.3" stroke-linecap="round" stroke-linejoin="round"/>
<path d="M29.7675 41.0792C29.2969 41.6133 28.7624 42.2503 28.1205 42.9606C25.5501 45.7981 24.3941 48.6369 25.9363 51.0337" stroke="#353535" stroke-width="0.3" stroke-miterlimit="10"/>
<path d="M37.82 41.9525C37.82 41.9525 35.508 39.3033 33.5156 38.9255C32.2046 38.6758 31.394 39.2753 30.2598 40.5278" stroke="#353535" stroke-width="0.3" stroke-miterlimit="10"/>
<path d="M26.7144 51.6426C26.776 51.9082 26.8593 52.1685 26.9632 52.421" stroke="#353535" stroke-width="0.3" stroke-miterlimit="10"/>
<path d="M32.6112 45.4456C32.6112 45.4456 31.0078 44.7259 28.8318 46.3029C27.0638 47.5767 26.3933 49.4688 26.6395 51.214" stroke="#353535" stroke-width="0.3" stroke-miterlimit="10"/>
<path d="M34.4485 57.3282C33.1606 58.9212 33.7984 60.3153 34.8647 60.7465" stroke="#353535" stroke-width="0.3" stroke-miterlimit="10"/>
<path d="M39.7528 43.7738C40.1608 44.1664 40.5307 44.6511 40.5824 45.1678C40.7184 46.4297 37.7563 46.1132 37.9494 48.4473C38.1425 50.7813 40.8394 52.9258 39.4264 54.7551C38.1901 56.3574 36.4616 55.7819 35.1016 56.7126" stroke="#353535" stroke-width="0.3" stroke-miterlimit="10"/>
<path d="M38.4619 42.8339C38.6755 42.9532 38.8821 43.0843 39.0807 43.2264" stroke="#353535" stroke-width="0.3" stroke-miterlimit="10"/>
<path d="M37.9438 42.8258C37.9438 42.8258 36.3553 42.8872 36.101 43.3239C35.8467 43.7605 35.338 44.9462 34.7029 45.1932C34.0678 45.4403 32.6058 45.4429 32.6058 45.4429C32.6058 45.4429 32.1475 46.8223 31.7653 46.9478C31.3831 47.0733 30.8895 46.1293 30.8895 46.1293C30.8895 46.1293 29.8735 45.9423 29.8096 47.1281C29.7457 48.3138 29.6192 50.1845 28.9841 51.5572C28.349 52.9298 27.1413 54.6136 26.6966 55.3627C26.2519 56.1118 24.4716 58.3577 24.2173 61.1044C23.963 63.851 24.7899 69.4645 24.7899 69.4645L22.0576 75.0166H33.876C33.876 75.0166 33.6856 70.4633 33.6856 69.9011C33.6856 69.339 35.0198 66.5322 35.1476 65.472C35.2755 64.4118 34.7029 61.9776 34.2582 60.4808C33.8135 58.9839 32.6575 56.5845 32.4779 56.0503C32.2263 55.2959 32.2875 54.9901 32.3515 54.3666C32.4154 53.743 33.3035 52.4318 33.3035 52.4318C33.3035 52.4318 35.3367 53.492 35.7175 53.1808C36.0983 52.8697 37.1155 50.2432 37.1155 50.2432C37.1155 50.2432 38.1328 50.0563 38.1328 49.4942C38.1328 48.932 37.6881 47.9973 37.6881 47.5607C37.6881 47.124 38.4511 46.7488 38.5136 45.5578C38.5762 44.3667 37.9438 42.8258 37.9438 42.8258Z" fill="white" stroke="#353535" stroke-width="0.3" stroke-linecap="round" stroke-linejoin="round"/>
<path d="M33.3103 52.4331L32.2998 51.7334L32.6072 53.3571L33.3103 52.4331Z" fill="#353535" stroke="#353535" stroke-width="0.3" stroke-linecap="round" stroke-linejoin="round"/>
<path d="M31.2799 46.9425C31.2799 46.9425 30.7713 45.6326 29.9444 45.945C29.1175 46.2575 29.4371 48.1909 29.6915 48.6276C29.9458 49.0642 31.0256 49.1884 31.0256 49.1884C31.0256 49.1884 31.216 50.3114 31.4703 50.3741" fill="white"/>
<path d="M31.2799 46.9425C31.2799 46.9425 30.7713 45.6326 29.9444 45.945C29.1175 46.2575 29.4371 48.1909 29.6915 48.6276C29.9458 49.0642 31.0256 49.1884 31.0256 49.1884C31.0256 49.1884 31.216 50.3114 31.4703 50.3741" stroke="#353535" stroke-width="0.3" stroke-linecap="round" stroke-linejoin="round"/>
<path d="M30.9167 50.2139C30.917 50.0905 30.8799 49.9697 30.8103 49.867C30.7406 49.7642 30.6414 49.6841 30.5253 49.6367C30.4092 49.5894 30.2814 49.5769 30.158 49.6009C30.0347 49.6249 29.9214 49.6843 29.8325 49.7716C29.7436 49.8589 29.6831 49.9702 29.6586 50.0912C29.6342 50.2123 29.6469 50.3378 29.6951 50.4518C29.7433 50.5658 29.8249 50.6632 29.9296 50.7316C30.0343 50.8 30.1572 50.8364 30.283 50.8361C30.4509 50.8358 30.6119 50.7701 30.7307 50.6535C30.8495 50.5369 30.9164 50.3788 30.9167 50.2139Z" fill="#6862ED" stroke="#353535" stroke-width="0.3" stroke-linecap="round" stroke-linejoin="round"/>
<path d="M30.6066 49.2725C30.6069 49.2093 30.588 49.1474 30.5524 49.0947C30.5168 49.042 30.466 49.0009 30.4066 48.9766C30.3471 48.9523 30.2817 48.9458 30.2185 48.9581C30.1553 48.9704 30.0973 49.0008 30.0517 49.0455C30.0062 49.0902 29.9752 49.1472 29.9627 49.2092C29.9502 49.2713 29.9568 49.3355 29.9815 49.3939C30.0063 49.4523 30.0482 49.5021 30.1018 49.5371C30.1555 49.572 30.2185 49.5905 30.2829 49.5903C30.3687 49.5899 30.4508 49.5563 30.5114 49.4968C30.572 49.4373 30.6063 49.3567 30.6066 49.2725Z" fill="#6862ED" stroke="#353535" stroke-width="0.3" stroke-linecap="round" stroke-linejoin="round"/>
<path d="M36.9373 47.363C36.8774 47.6301 36.7102 47.8157 36.5619 47.7836C36.4137 47.7516 36.3416 47.5166 36.4014 47.2495C36.4613 46.9825 36.6272 46.7969 36.7754 46.8289C36.9237 46.861 36.9917 47.0986 36.9373 47.363Z" fill="#353535"/>
<path d="M36.312 46.2641C36.312 46.2641 36.9104 45.73 37.4599 46.2641" stroke="#353535" stroke-width="0.3" stroke-linecap="round" stroke-linejoin="round"/>
<path d="M35.9134 50.6318C35.5134 50.4138 35.1835 50.0899 34.9614 49.6971" stroke="#353535" stroke-width="0.3" stroke-linecap="round" stroke-linejoin="round"/>
<path d="M33.4557 61.9069C32.3677 61.5063 31.7557 57.9011 30.5997 56.4323C29.4437 54.9635 28.5597 55.4308 27.3357 55.4308C27.1266 55.445 26.9171 55.4093 26.7251 55.3267C26.7169 55.3387 26.7087 55.3534 26.7019 55.3654C26.2559 56.1145 24.477 58.3604 24.2227 61.1071C23.9683 63.8537 24.7952 69.4672 24.7952 69.4672L22.063 75.0193H33.8814C33.8814 75.0193 33.691 70.466 33.691 69.9038C33.691 69.3417 35.0251 66.5349 35.153 65.4747C35.2563 64.6148 34.9 62.8563 34.5247 61.4235C34.2867 61.8548 33.9385 62.0845 33.4557 61.9069Z" fill="#6862ED" stroke="#353535" stroke-width="0.3" stroke-linecap="round" stroke-linejoin="round"/>
<path d="M34.9519 68.7916C34.9519 68.7916 31.8239 60.9802 30.5999 58.9106C29.3759 56.8409 27.8799 56.0397 26.6559 56.9077C25.4319 57.7756 25.7719 60.0455 26.6559 61.8482C27.5399 63.6508 31.8919 71.1283 32.4359 71.4621C32.9799 71.7959 36.8559 73.3315 39.5759 73.7989C42.2959 74.2662 45.8999 74.4665 46.1719 74.4665C46.4439 74.4665 49.3679 72.9309 49.6399 72.8642C49.9119 72.7974 50.0479 72.5971 50.5239 72.5971C50.9999 72.5971 51.7479 72.063 51.8839 71.8627C52.0199 71.6624 50.3199 71.5957 49.5039 71.3954C48.6879 71.1951 48.3479 71.3286 47.7359 71.5957C47.1239 71.8627 45.7639 72.9977 45.4919 72.9977C45.2199 72.9977 43.0439 72.8642 42.2279 72.5303C41.4119 72.1965 34.9519 68.7916 34.9519 68.7916Z" fill="white" stroke="#353535" stroke-width="0.3" stroke-linecap="round" stroke-linejoin="round"/>
</svg>
