<svg width="102" height="103" viewBox="0 0 102 103" fill="none" xmlns="http://www.w3.org/2000/svg">
<path d="M71.4976 89.405C71.4976 89.405 82.0607 88.7468 89.3221 75.8048C96.5835 62.8629 95.2653 43.1196 86.2421 32.15C77.219 21.1803 63.1373 17.4518 49.7135 20.9668C43.1711 22.6773 38.8112 27.115 35.0403 32.46C31.7589 37.1188 28.067 41.6099 23.0952 44.5556C18.177 47.4683 13.1108 49.8091 10.6351 55.3448C4.58738 68.8433 9.00591 84.5505 23.3094 89.8447C38.7118 95.5583 64.458 92.4779 71.4976 89.405Z" fill="#6862ED"/>
<path opacity="0.8" d="M71.4976 89.405C71.4976 89.405 82.0607 88.7468 89.3221 75.8048C96.5835 62.8629 95.2653 43.1196 86.2421 32.15C77.219 21.1803 63.1373 17.4518 49.7135 20.9668C43.1711 22.6773 38.8112 27.115 35.0403 32.46C31.7589 37.1188 28.067 41.6099 23.0952 44.5556C18.177 47.4683 13.1108 49.8091 10.6351 55.3448C4.58738 68.8433 9.00591 84.5505 23.3094 89.8447C38.7118 95.5583 64.458 92.4779 71.4976 89.405Z" fill="#D1D0FA"/>
<path d="M38.2682 33.1507C38.2643 32.3562 37.9918 31.5864 37.4949 30.9665C36.9981 30.3465 36.3061 29.9129 35.5316 29.736C34.757 29.5592 33.9454 29.6495 33.2288 29.9924C32.5121 30.3352 31.9324 30.9104 31.5841 31.6245C31.2357 30.9104 30.6561 30.3352 29.9394 29.9924C29.2227 29.6495 28.4111 29.5592 27.6365 29.736C26.862 29.9129 26.1701 30.3465 25.6732 30.9665C25.1764 31.5864 24.9038 32.3562 24.8999 33.1507C24.8999 35.3788 27.3879 37.4731 29.1072 38.5983C30.0617 39.1912 30.9462 39.89 31.7437 40.6815C32.5131 39.7254 33.4569 38.924 34.5251 38.3198C36.2221 37.4174 38.2682 35.2116 38.2682 33.1507Z" fill="#AC6DEC"/>
<path d="M26.3853 32.0404C25.8023 33.2547 26.1848 34.974 27.4065 35.9803L29.2446 37.4954" stroke="white" stroke-width="0.3" stroke-linecap="round" stroke-linejoin="round"/>
<path d="M28.506 30.6516C28.0064 30.6934 27.527 30.8678 27.1172 31.1566" stroke="white" stroke-width="0.3" stroke-linecap="round" stroke-linejoin="round"/>
<path d="M32.3745 31.5279C32.3745 31.5279 32.8127 30.2839 34.9331 30.139" stroke="white" stroke-width="0.3" stroke-linecap="round" stroke-linejoin="round"/>
<path d="M78.797 45.004C78.8002 44.4321 78.609 43.8761 78.2546 43.4272C77.9002 42.9784 77.4038 42.6633 76.8467 42.5338C76.2897 42.4043 75.7052 42.4679 75.1891 42.7143C74.6731 42.9608 74.2561 43.3753 74.0067 43.8899C73.7572 43.3753 73.3403 42.9608 72.8242 42.7143C72.3081 42.4679 71.7236 42.4043 71.1666 42.5338C70.6096 42.6633 70.1131 42.9784 69.7588 43.4272C69.4044 43.8761 69.2131 44.4321 69.2163 45.004C69.2163 46.5933 70.9988 48.0972 72.2279 48.8993C72.9106 49.3236 73.5444 49.8218 74.1181 50.3847C74.667 49.7005 75.3412 49.127 76.1048 48.6951C77.3413 48.0564 78.797 46.4782 78.797 45.004Z" fill="#6862ED"/>
<path d="M70.3042 44.1945C70.1067 44.682 70.0723 45.2204 70.2062 45.7291C70.3401 46.2378 70.635 46.6895 71.0469 47.0167L72.3615 48.101" stroke="white" stroke-width="0.3" stroke-linecap="round" stroke-linejoin="round"/>
<path d="M71.8194 43.214C71.46 43.2444 71.1157 43.3728 70.8242 43.5853" stroke="white" stroke-width="0.3" stroke-linecap="round" stroke-linejoin="round"/>
<path d="M74.5894 43.8418C74.5894 43.8418 74.9013 42.9505 76.4164 42.8466" stroke="white" stroke-width="0.3" stroke-linecap="round" stroke-linejoin="round"/>
<path d="M21.7584 48.0749C21.7568 47.673 21.619 47.2835 21.3677 46.9699C21.1163 46.6563 20.7662 46.437 20.3743 46.3479C19.9824 46.2588 19.5718 46.305 19.2095 46.479C18.8472 46.653 18.5546 46.9446 18.3792 47.3063C18.2039 46.9446 17.9112 46.653 17.5489 46.479C17.1866 46.305 16.7761 46.2588 16.3842 46.3479C15.9923 46.437 15.6421 46.6563 15.3908 46.9699C15.1394 47.2835 15.0017 47.673 15 48.0749C15 49.189 16.2589 50.2584 17.1241 50.8229C17.6065 51.1235 18.0536 51.4772 18.4572 51.8775C18.846 51.3954 19.3222 50.991 19.8609 50.6855C20.7298 50.2287 21.7584 49.1147 21.7584 48.0749Z" fill="#AC6DEC"/>
<path d="M15.7692 47.5142C15.6287 47.8572 15.603 48.2365 15.696 48.5953C15.7891 48.9541 15.9959 49.2731 16.2854 49.5046L17.21 50.2695" stroke="white" stroke-width="0.3" stroke-linecap="round" stroke-linejoin="round"/>
<path d="M16.8344 46.8124C16.5828 46.8333 16.3416 46.9218 16.1362 47.0686" stroke="white" stroke-width="0.3" stroke-linecap="round" stroke-linejoin="round"/>
<path d="M18.7871 47.2543C18.7871 47.2543 19.0099 46.6304 20.0794 46.5562" stroke="white" stroke-width="0.3" stroke-linecap="round" stroke-linejoin="round"/>
<path d="M59.3079 50.8341C59.3071 50.4318 59.17 50.0418 58.9189 49.7275C58.6678 49.4133 58.3177 49.1934 57.9256 49.1038C57.5335 49.0141 57.1225 49.0601 56.7599 49.234C56.3972 49.408 56.1042 49.6998 55.9287 50.0617C55.7546 49.6985 55.4621 49.4054 55.0993 49.2304C54.7365 49.0554 54.3249 49.0091 53.9323 49.0989C53.5397 49.1888 53.1893 49.4095 52.9387 49.7248C52.688 50.0401 52.5521 50.4313 52.5532 50.8341C52.5532 51.9481 53.8084 53.0139 54.6773 53.582C55.1585 53.8813 55.6044 54.2338 56.0067 54.6329C56.3955 54.1508 56.8717 53.7464 57.4104 53.4409C58.283 52.9879 59.3079 51.8701 59.3079 50.8341Z" fill="#6862ED"/>
<path d="M53.3187 50.2695C53.1788 50.6126 53.1534 50.9917 53.2465 51.3504C53.3395 51.7091 53.5459 52.0281 53.8349 52.2599L54.7632 53.0249" stroke="white" stroke-width="0.3" stroke-linecap="round" stroke-linejoin="round"/>
<path d="M54.3889 49.5715C54.1358 49.5909 53.893 49.6795 53.687 49.8278" stroke="white" stroke-width="0.3" stroke-linecap="round" stroke-linejoin="round"/>
<path d="M56.3418 50.0134C56.3418 50.0134 56.5609 49.3858 57.6304 49.3115" stroke="white" stroke-width="0.3" stroke-linecap="round" stroke-linejoin="round"/>
<path d="M83.8663 76.2216C81.1305 74.7348 79.8889 75.9674 78.8945 74.7348C77.9001 73.5021 81.6277 70.2742 74.17 67.0514C74.17 67.0514 73.6601 60.1128 63.4794 59.8637C53.2987 59.6147 56.0191 66.8049 53.2808 68.5383C50.5425 70.2717 49.8006 67.5471 47.0648 69.283C44.329 71.0189 45.5733 74.4882 43.3347 74.9838C41.0961 75.4795 38.1156 72.7523 35.3798 74.4882C32.644 76.2242 32.644 77.7085 31.4024 77.7085C30.1607 77.7085 27.6722 76.7172 26.1807 77.7085C24.6892 78.6997 22.9478 79.94 22.9478 79.94H85.855C85.855 79.94 86.5995 77.7085 83.8663 76.2216Z" fill="white"/>
<path d="M89.7794 41.1294C88.8309 40.6211 88.4 41.043 88.0558 40.6211C87.7116 40.1992 89.0043 39.0758 86.4189 37.96C86.4189 37.96 86.2481 35.5557 82.7143 35.4692C79.1805 35.3828 80.129 37.8736 79.1831 38.4734C78.2372 39.0733 77.9771 38.1303 77.0286 38.7276C76.0802 39.3249 76.5187 40.5321 75.7359 40.7024C74.9532 40.8727 73.9257 39.9399 72.9798 40.5321C72.0339 41.1243 72.0313 41.6479 71.6004 41.6479C71.1695 41.6479 70.3078 41.3048 69.7902 41.6479C69.2726 41.991 68.6709 42.4104 68.6709 42.4104H90.4678C90.4678 42.4104 90.7278 41.6454 89.7794 41.1294Z" fill="white"/>
<path d="M35.0689 24.3039C34.1205 23.7955 33.6921 24.2174 33.3454 23.7955C32.9986 23.3736 34.2938 22.2502 31.7085 21.1345C31.7085 21.1345 31.5377 18.7301 28.0039 18.6437C24.4701 18.5573 25.4185 21.048 24.4726 21.6479C23.5267 22.2477 23.2666 21.3048 22.3182 21.902C21.3697 22.4993 21.8082 23.7066 21.0255 23.8769C20.2428 24.0472 19.2153 23.1144 18.2693 23.7066C17.3234 24.2988 17.3209 24.8224 16.89 24.8224C16.4591 24.8224 15.5973 24.4792 15.0797 24.8224C14.5622 25.1655 13.9604 25.5848 13.9604 25.5848H35.7599C35.7599 25.5848 36.0174 24.8198 35.0689 24.3039Z" fill="#6862ED"/>
<path opacity="0.7" d="M35.0689 24.3039C34.1205 23.7955 33.6921 24.2174 33.3454 23.7955C32.9986 23.3736 34.2938 22.2502 31.7085 21.1345C31.7085 21.1345 31.5377 18.7301 28.0039 18.6437C24.4701 18.5573 25.4185 21.048 24.4726 21.6479C23.5267 22.2477 23.2666 21.3048 22.3182 21.902C21.3697 22.4993 21.8082 23.7066 21.0255 23.8769C20.2428 24.0472 19.2153 23.1144 18.2693 23.7066C17.3234 24.2988 17.3209 24.8224 16.89 24.8224C16.4591 24.8224 15.5973 24.4792 15.0797 24.8224C14.5622 25.1655 13.9604 25.5848 13.9604 25.5848H35.7599C35.7599 25.5848 36.0174 24.8198 35.0689 24.3039Z" fill="white"/>
<path d="M24.1357 65.0765C23.4346 64.6952 23.1159 65.0129 22.8609 64.6952C22.606 64.3775 23.5621 63.549 21.6473 62.7229C21.6473 62.7229 21.5198 60.9438 18.9039 60.8777C16.288 60.8116 16.9891 62.6568 16.2854 63.1042C15.5817 63.5515 15.393 62.85 14.6893 63.2948C13.9856 63.7396 14.3069 64.6317 13.7332 64.7588C13.1595 64.8858 12.3921 64.1844 11.6935 64.6317C10.9949 65.079 10.9898 65.4577 10.6737 65.4577C10.3575 65.4577 9.71753 65.2036 9.33254 65.4577C8.94754 65.7119 8.50391 66.0296 8.50391 66.0296H24.6533C24.6533 66.0296 24.8395 65.4577 24.1357 65.0765Z" fill="white"/>
<path d="M59.3769 82.3113C59.3769 82.3113 60.6671 81.62 60.8761 82.1055C61.0852 82.5909 61.0164 86.0018 60.8073 86.0018C60.5982 86.0018 59.2393 83.1272 59.2393 83.1272L59.3769 82.3113Z" fill="#AC6DEC" stroke="#263238" stroke-width="0.3" stroke-linecap="round" stroke-linejoin="round"/>
<path d="M52.972 81.8361L59.3742 82.3113L59.2391 83.1272L50.8584 84.5531L52.972 81.8361Z" fill="#263238" stroke="#263238" stroke-width="0.3" stroke-linecap="round" stroke-linejoin="round"/>
<path d="M56.2867 68.5713C56.2867 68.5713 52.6993 75.4515 51.6769 78.1024C50.6545 80.7533 49.4281 84.2811 50.8585 84.5531C52.2888 84.825 57.8088 74.4349 57.8088 74.4349L58.6272 75.4515C58.6272 75.4515 55.1521 84.1464 55.764 85.9128C56.3759 87.6792 62.7245 96.735 62.7245 96.735L63.6092 96.1251L59.2391 84.6293C59.2391 84.6293 62.6455 74.9178 62.9183 72.6837C63.0651 71.6251 63.1561 70.5595 63.1911 69.4914L56.5136 67.725L56.2867 68.5713Z" fill="#263238" stroke="#263238" stroke-width="0.3" stroke-linecap="round" stroke-linejoin="round"/>
<path d="M62.7248 96.735C62.7248 96.735 60.5729 99.8002 60.6392 100.004C60.7055 100.207 64.3591 97.5508 64.3591 97.5508L63.6095 96.125L62.7248 96.735Z" fill="#AC6DEC" stroke="#263238" stroke-width="0.3" stroke-linecap="round" stroke-linejoin="round"/>
<path d="M59.0586 54.5085C59.3424 54.8942 59.5319 55.3407 59.6119 55.8123C59.7068 56.308 59.7732 56.8087 59.8107 57.3119L62.0697 57.0755L61.9116 53.0089L59.0586 54.5085Z" fill="white" stroke="#263238" stroke-width="0.3" stroke-linecap="round" stroke-linejoin="round"/>
<path d="M59.0962 49.5702C59.0962 49.5702 57.3522 49.372 56.9162 47.753C56.4802 46.134 58.3823 45.2647 59.0962 45.5011C59.8101 45.7375 59.6061 46.2916 59.8611 46.5178C60.116 46.744 60.2155 45.8468 61.1665 45.8468C61.3172 45.8369 61.468 45.8658 61.6044 45.9305C61.7408 45.9952 61.8584 46.0937 61.9458 46.2165C62.0332 46.3393 62.0876 46.4824 62.1038 46.6321C62.1201 46.7819 62.0976 46.9332 62.0385 47.0718C61.8804 47.387 62.0793 47.5802 63.1093 47.7428C64.1394 47.9055 64.7334 48.8103 64.6162 50.3099C64.4989 51.8094 63.8232 52.5236 63.0711 53.1056C62.3189 53.6877 61.7963 53.7385 61.5642 53.1056C61.3322 52.4728 60.7305 51.5654 60.6515 50.8919C60.5724 50.2184 61.1282 49.8752 60.6515 49.7075C60.1398 49.604 59.6181 49.558 59.0962 49.5702Z" fill="#263238" stroke="#263238" stroke-width="0.3" stroke-linecap="round" stroke-linejoin="round"/>
<path d="M58.7498 48.8585C58.7498 48.8585 58.5535 50.2412 58.0385 50.6758C57.5234 51.1104 56.9268 51.0316 57.2736 51.5069C57.4656 51.7482 57.6258 52.013 57.7503 52.2948C57.7275 52.9931 57.7403 53.6921 57.7886 54.3891C57.8676 55.0219 58.8085 54.7449 59.3745 54.7449C59.9405 54.7449 61.4346 54.1527 62.0286 53.2047C62.0286 53.2047 63.0205 52.3355 63.0995 51.7026C63.1785 51.0697 62.7833 50.8334 62.3473 51.1104C62.0648 51.3165 61.8564 51.608 61.7533 51.9415C61.7533 51.9415 61.8323 51.7433 61.3173 51.2299C60.8023 50.7164 61.4754 50.1243 61.6335 50.0048C61.7915 49.8853 61.5927 49.0949 60.5626 48.9881C59.961 48.9137 59.3559 48.8705 58.7498 48.8585Z" fill="white" stroke="#263238" stroke-width="0.3" stroke-linecap="round" stroke-linejoin="round"/>
<path d="M59.155 50.8995C59.0811 51.1028 58.9511 51.24 58.8618 51.2095C58.7726 51.179 58.7598 50.9884 58.8338 50.7851C58.9077 50.5818 59.0377 50.4445 59.1244 50.4776C59.2111 50.5106 59.2264 50.6987 59.155 50.8995Z" fill="#263238"/>
<path d="M58.439 52.6989C58.6525 52.8222 58.8999 52.8743 59.1452 52.8478C59.3905 52.8213 59.6209 52.7175 59.803 52.5515" stroke="#263238" stroke-width="0.3" stroke-linecap="round" stroke-linejoin="round"/>
<path d="M58.9688 49.8218C58.9688 49.8218 59.6036 49.5677 59.7005 50.4547" stroke="#263238" stroke-width="0.3" stroke-linecap="round" stroke-linejoin="round"/>
<path d="M64.7369 43.2593C64.7369 43.2593 63.8267 43.305 63.8267 43.577C63.8267 43.8489 63.8726 44.7537 64.1454 44.7995C64.4182 44.8452 64.3723 44.5275 64.5533 44.1209C64.6675 43.8475 64.7297 43.5553 64.7369 43.2593Z" fill="white" stroke="#263238" stroke-width="0.3" stroke-linecap="round" stroke-linejoin="round"/>
<path d="M56.5589 58.8344C56.5589 58.8344 56.6941 61.9606 56.6941 64.0422C56.6637 65.5596 56.5274 67.0729 56.2861 68.5714C56.2861 68.5714 56.4672 68.8433 57.4233 69.3339C58.3794 69.8244 61.8291 70.7394 62.6449 70.6047C63.4608 70.47 64.009 65.2164 64.4628 63.5415C64.9167 61.8666 65.2277 57.4747 65.2277 57.4747C65.2277 57.4747 72.948 53.8986 73.1749 53.22C73.4019 52.5414 67.3108 45.4299 67.3108 45.4299L66.5841 45.9383L69.5825 52.732C69.5825 52.732 65.5388 54.3154 63.6316 54.994C61.7245 55.6727 59.0041 56.1632 57.6043 57.251C56.2045 58.3388 56.5589 58.8344 56.5589 58.8344Z" fill="#AC6DEC" stroke="#263238" stroke-width="0.3" stroke-linecap="round" stroke-linejoin="round"/>
<path d="M63.5 59.5002C63.5 59.5002 62.6867 67.6792 59.0254 69.2321" stroke="#263238" stroke-width="0.3" stroke-linecap="round" stroke-linejoin="round"/>
<path d="M63.9076 64.8402C63.2627 66.0596 62.3321 67.1059 61.1948 67.8902" stroke="#263238" stroke-width="0.3" stroke-linecap="round" stroke-linejoin="round"/>
<path d="M57.5332 63.4193C58.7561 62.6389 59.6857 61.4772 60.1772 60.1152C60.1772 60.1152 58.8896 61.6707 58.0074 61.6707" stroke="#263238" stroke-width="0.3" stroke-linecap="round" stroke-linejoin="round"/>
<path d="M65.7026 34.8263V45.2342C65.7026 45.2342 66.5058 47.5344 67.5486 48.3503C68.5914 49.1661 70.3761 48.0529 71.4164 49.982C72.4566 51.9111 70.9065 52.3558 71.1946 53.4691C71.4827 54.5823 74.5422 53.8402 74.4683 55.693C74.3944 57.5458 70.9702 57.1036 70.8988 58.8853C70.8274 60.6669 72.6836 59.1801 72.9819 59.7011C73.2802 60.2222 73.2802 60.6644 71.6433 61.5565C70.0064 62.4486 70.3047 63.0383 70.3047 63.0383" stroke="#263238" stroke-width="0.3" stroke-linecap="round" stroke-linejoin="round"/>
<path d="M67.3239 45.4325C67.3239 45.4325 66.4162 43.1704 66.2352 43.0789C66.0542 42.9874 65.098 43.0789 64.736 43.1704C64.374 43.2619 64.3255 43.7118 64.3714 44.2557C64.4173 44.7996 64.5524 45.3435 64.8813 45.4325C65.2422 45.4887 65.6083 45.504 65.9726 45.4782L66.6074 46.0679L67.3239 45.4325Z" fill="white" stroke="#263238" stroke-width="0.3" stroke-linecap="round" stroke-linejoin="round"/>
<path d="M57.475 60.3518C57.475 60.3518 56.6769 60.1205 56.4551 59.0327C56.2333 57.9449 56.4194 56.5597 58.1506 55.604C59.8818 54.6484 65.9729 53.0751 65.9729 53.0751L65.5573 43.7347L66.5772 43.6559C66.5772 43.6559 69.3818 53.9749 69.3436 54.2977C69.3053 54.6204 58.9793 59.752 58.9793 59.752" fill="#AC6DEC"/>
<path d="M57.475 60.3518C57.475 60.3518 56.6769 60.1205 56.4551 59.0327C56.2333 57.9449 56.4194 56.5597 58.1506 55.604C59.8818 54.6484 65.9729 53.0751 65.9729 53.0751L65.5573 43.7347L66.5772 43.6559C66.5772 43.6559 69.3818 53.9749 69.3436 54.2977C69.3053 54.6204 58.9793 59.752 58.9793 59.752" stroke="#263238" stroke-width="0.3" stroke-linecap="round" stroke-linejoin="round"/>
<path d="M65.5574 43.7347C65.5574 43.7347 64.8435 41.9556 64.7925 41.3253C64.7415 40.695 65.7052 39.7444 65.8633 39.6656C66.0214 39.5868 66.4574 39.4292 66.4982 39.8639C66.529 40.0906 66.5018 40.3214 66.4191 40.5348C66.5468 40.6573 66.6478 40.8047 66.7158 40.9678C66.7837 41.1309 66.8173 41.3063 66.8143 41.4829C66.7517 41.9248 66.6183 42.3539 66.4191 42.7537L66.5772 43.661L65.5574 43.7347Z" fill="white" stroke="#263238" stroke-width="0.3" stroke-linecap="round" stroke-linejoin="round"/>
<path d="M75.3783 23.9837C75.3787 22.8134 74.9805 21.6777 74.2487 20.7625C73.517 19.8474 72.4951 19.2071 71.3506 18.9466C70.2061 18.6861 69.0067 18.8208 67.9491 19.3287C66.8914 19.8366 66.0381 20.6875 65.529 21.742C65.0185 20.6909 64.1655 19.8434 63.1094 19.338C62.0533 18.8326 60.8565 18.6991 59.7145 18.9593C58.5724 19.2195 57.5526 19.858 56.8216 20.7706C56.0907 21.6832 55.6917 22.8159 55.6899 23.9837C55.6899 27.2421 59.3512 30.3225 61.883 31.972C64.5397 33.7029 65.7661 35.022 65.7661 35.022C65.7661 35.022 67.5024 32.7803 69.8455 31.5577C72.385 30.2386 75.3783 27.0031 75.3783 23.9837Z" fill="#AC6DEC"/>
<path d="M57.6253 22.3927C56.7635 24.1718 57.327 26.6982 59.1245 28.1723L61.8296 30.3988" stroke="white" stroke-width="0.3" stroke-linecap="round" stroke-linejoin="round"/>
<path d="M60.736 20.3542C60.0012 20.4149 59.2965 20.6722 58.6963 21.0989" stroke="white" stroke-width="0.3" stroke-linecap="round" stroke-linejoin="round"/>
<path d="M66.4321 21.6405C66.4321 21.6405 67.0746 19.8207 70.1903 19.6072" stroke="white" stroke-width="0.3" stroke-linecap="round" stroke-linejoin="round"/>
<path d="M60.256 8.81518C60.2573 7.64472 59.8594 6.5086 59.1278 5.59316C58.3962 4.67772 57.3741 4.03732 56.2294 3.777C55.0847 3.51668 53.8852 3.6519 52.8277 4.16049C51.7701 4.66907 50.9174 5.52081 50.4093 6.57601C49.9003 5.52168 49.0473 4.67089 47.9898 4.16298C46.9324 3.65508 45.7333 3.52016 44.589 3.78033C43.4446 4.0405 42.4227 4.68033 41.6908 5.59504C40.9588 6.50974 40.5602 7.64511 40.5601 8.81518C40.5601 12.0761 44.2239 15.154 46.7531 16.8035C49.4099 18.5343 50.6362 19.8534 50.6362 19.8534C50.6362 19.8534 52.3751 17.6117 54.7157 16.3892C57.2653 15.0752 60.256 11.8346 60.256 8.81518Z" fill="#6862ED"/>
<path d="M29.3701 68.0783C29.3701 68.0783 27.5854 69.2982 28.1591 69.3491C28.7327 69.3999 29.6251 68.5866 29.6251 68.5866C29.6251 68.5866 28.669 69.1585 29.1152 69.3491C29.5614 69.5397 30.2625 68.6501 30.2625 68.6501C30.2625 68.6501 29.3701 69.7303 30.0075 69.4762C30.645 69.222 31.0274 68.3324 31.0274 68.3324C31.0274 68.3324 30.7724 67.7606 29.3701 68.0783Z" fill="white" stroke="#263238" stroke-width="0.3" stroke-linecap="round" stroke-linejoin="round"/>
<path d="M41.4122 42.0901C41.4122 42.0901 40.1374 40.3109 37.6515 41.264C35.1656 42.2172 34.9106 45.4577 35.1656 46.3473C35.4205 47.2369 34.0182 47.491 31.4049 48.4441C28.7915 49.3972 28.664 53.1461 30.13 54.2899C31.5961 55.4336 29.6839 55.3065 29.7476 57.9752C29.8113 60.6439 33.4446 62.5501 36.2492 61.7241C39.0538 60.8981 38.8626 59.3096 39.3725 57.0856C39.8824 54.8617 39.1813 53.5274 40.3923 52.193C41.6034 50.8587 44.2805 47.5546 44.4718 45.3306C44.663 43.1067 43.8981 42.2172 42.942 42.2172C42.4291 42.2252 41.9167 42.1827 41.4122 42.0901Z" fill="#263238" stroke="#263238" stroke-width="0.3" stroke-linecap="round" stroke-linejoin="round"/>
<path d="M29.9567 88.0985C29.9567 88.0985 28.8833 89.6768 28.8833 90.6401C28.8833 91.6034 29.2912 92.1651 30.102 91.7559C31.0785 91.2679 31.3259 88.7949 31.3259 88.7949C31.3259 88.7949 30.5661 87.2369 29.9567 88.0985Z" fill="#6862ED" stroke="#263238" stroke-width="0.3" stroke-miterlimit="10"/>
<path d="M38.0974 73.9875L38.0336 77.7364C38.0336 77.7364 35.484 79.1342 34.4004 80.5321C33.3168 81.93 31.9782 84.7894 31.2771 86.0602C30.5759 87.331 29.3011 88.6653 29.2374 89.8726C29.1736 91.0799 30.0022 91.3976 30.6397 90.508C31.2771 89.6184 31.5958 87.0768 32.2969 86.3779C32.9981 85.6789 36.695 82.5019 38.5435 81.0405C40.392 79.579 41.0294 78.6259 41.4119 77.6093C41.7943 76.5926 42.4317 74.75 42.4317 74.75C42.4317 74.75 39.9509 72.9073 38.0974 73.9875Z" fill="white" stroke="#263238" stroke-width="0.3" stroke-miterlimit="10"/>
<path d="M42.8016 92.9479C42.8016 92.9479 41.8531 94.5618 41.9653 95.2862C42.0775 96.0105 42.4752 96.1529 43.1381 95.8428C44.0866 95.398 44.2498 93.6138 44.367 92.2845C44.4716 90.9984 42.8016 92.9479 42.8016 92.9479Z" fill="#6862ED" stroke="#263238" stroke-width="0.3" stroke-miterlimit="10"/>
<path d="M43.4526 75.1311C43.4526 75.1311 42.2415 80.0873 42.3053 81.8029C42.369 83.5185 43.7484 90.2436 43.7484 90.9527C43.7484 91.6618 42.4888 92.9098 42.1395 94.3077C41.7902 95.7055 42.9044 95.9165 43.5418 94.6584C44.1792 93.4003 44.5234 91.4433 44.5923 90.3249C44.6611 89.2066 45.2373 83.5922 45.2373 82.4459V80.3491L47.2771 75.4565C47.2771 75.4565 44.9237 72.2083 43.4526 75.1311Z" fill="white" stroke="#263238" stroke-width="0.3" stroke-miterlimit="10"/>
<path d="M51.9344 34.2569C51.9344 34.2569 52.35 33.99 52.35 34.295C52.35 34.6 52.401 35.1693 51.9344 35.1312C51.4678 35.0931 51.9344 34.2569 51.9344 34.2569Z" fill="white" stroke="#263238" stroke-width="0.3" stroke-linecap="round" stroke-linejoin="round"/>
<path d="M50.5323 70.8738C49.8312 69.3488 48.3014 59.6271 48.3014 59.2459C48.3014 58.8647 47.7915 52.1294 47.7915 52.1294C47.7915 52.1294 50.9148 47.9357 51.2335 46.8555C51.5522 45.7753 50.7235 37.3244 50.7235 37.3244C50.7235 37.3244 51.7434 35.7512 51.7434 35.2428C51.7434 34.7345 50.4354 34.1398 49.8618 34.1398C49.2881 34.1398 49.7139 37.388 49.7139 37.388L49.2677 46.093C49.2677 46.093 47.2917 49.3336 46.7181 49.9054C46.1444 50.4773 43.276 51.2398 43.276 51.2398L42.7024 50.0961L40.7901 50.3502C40.7901 50.3502 41.7463 51.9387 41.81 52.2564C41.8737 52.5741 39.9615 53.4637 39.0691 54.1627C38.1768 54.8616 37.4119 55.4335 37.2206 56.5772C37.0294 57.7209 35.8183 62.6135 35.8183 62.6135C34.9897 63.5794 34.1815 64.5604 33.3809 65.5517C32.769 66.3141 32.0143 66.914 31.3616 67.6332C31.3616 67.6332 30.023 67.951 29.3856 68.078C28.7482 68.2051 27.1547 68.6499 27.3459 68.8405C27.5371 69.0311 28.9394 68.5864 29.3219 68.5228C29.7043 68.4593 29.8955 68.7134 30.7242 68.7134C31.0699 68.6926 31.3985 68.5565 31.6573 68.3271L31.7593 68.4059C33.5976 66.6674 36.5246 64.9645 37.5445 63.1854C38.0391 62.3238 39.5842 56.8314 39.5842 56.8314L41.2414 60.2625C41.2414 60.2625 39.7754 64.2021 37.7357 67.252C35.696 70.3019 33.5288 71.8269 34.1024 72.78C34.6761 73.7331 36.2696 72.78 36.9708 73.7331C37.6719 74.6862 37.9906 75.7029 39.7116 75.7029C41.4327 75.7029 42.1975 75.0675 43.4724 75.9571C44.7472 76.8466 47.4243 77.7997 48.5716 77.1008C49.719 76.4018 50.6114 75.7664 51.3763 75.2581C52.1411 74.7498 51.2335 72.3988 50.5323 70.8738Z" fill="white" stroke="#263238" stroke-width="0.3" stroke-linecap="round" stroke-linejoin="round"/>
<path d="M50.6294 19.7391V34.4678C50.6294 34.4678 50.9379 35.9089 51.6493 36.6307C52.3606 37.3526 53.921 38.7911 52.9929 39.823C52.0648 40.8549 51.3382 42.8094 52.3734 43.1271C53.4085 43.4448 56.0907 41.376 56.0907 43.1271C56.0907 44.8783 52.6819 45.6001 52.8884 46.6295C53.0949 47.6588 54.5405 47.1378 54.5405 47.1378" stroke="#263238" stroke-width="0.3" stroke-linecap="round" stroke-linejoin="round"/>
<path d="M31.5937 67.5394C31.065 67.7917 30.5643 68.0984 30.0996 68.4544C29.6101 68.8865 28.4474 69.2652 28.7228 69.3999C28.9981 69.5346 30.5636 68.828 30.5636 68.828C30.5636 68.828 31.5095 69.0822 31.92 68.0147" fill="white"/>
<path d="M31.5937 67.5394C31.065 67.7917 30.5643 68.0984 30.0996 68.4544C29.6101 68.8865 28.4474 69.2652 28.7228 69.3999C28.9981 69.5346 30.5636 68.828 30.5636 68.828C30.5636 68.828 31.5095 69.0822 31.92 68.0147" stroke="#263238" stroke-width="0.3" stroke-linecap="round" stroke-linejoin="round"/>
<path d="M49.6862 36.0155C49.6862 36.0155 49.4644 34.3584 49.4644 34.1398C49.4644 33.9212 49.9615 33.5858 50.2292 33.0901C50.497 32.5945 50.7264 32.869 50.7825 33.1461C50.8386 33.4231 50.2292 34.0839 50.2292 34.0839C50.2292 34.0839 50.8947 35.2429 50.4511 35.9063" fill="white"/>
<path d="M49.6862 36.0155C49.6862 36.0155 49.4644 34.3584 49.4644 34.1398C49.4644 33.9212 49.9615 33.5858 50.2292 33.0901C50.497 32.5945 50.7264 32.869 50.7825 33.1461C50.8386 33.4231 50.2292 34.0839 50.2292 34.0839C50.2292 34.0839 50.8947 35.2429 50.4511 35.9063" stroke="#263238" stroke-width="0.3" stroke-linecap="round" stroke-linejoin="round"/>
<path d="M51.5134 34.1932C51.5134 34.1932 51.9545 33.8069 51.9545 34.2492C51.9545 34.6914 52.0106 35.52 51.5134 35.4641C51.0163 35.4081 51.5134 34.1932 51.5134 34.1932Z" fill="white" stroke="#263238" stroke-width="0.3" stroke-linecap="round" stroke-linejoin="round"/>
<path d="M51.124 33.8628C51.124 33.8628 51.5676 33.4765 51.5676 33.9187C51.5676 34.361 51.6237 35.1895 51.124 35.1311C50.6242 35.0726 51.124 33.8628 51.124 33.8628Z" fill="white" stroke="#263238" stroke-width="0.3" stroke-linecap="round" stroke-linejoin="round"/>
<path d="M50.6824 33.5425C50.6824 33.5425 51.1235 33.1562 51.1235 33.5959C51.1235 34.0356 51.1796 34.8667 50.6824 34.8108C50.1852 34.7549 50.6824 33.5425 50.6824 33.5425Z" fill="white" stroke="#263238" stroke-width="0.3" stroke-linecap="round" stroke-linejoin="round"/>
<path d="M42.1773 43.9962C42.1773 43.9962 43.3884 46.6014 43.7708 47.618C44.1533 48.6347 43.3884 49.9055 42.9422 50.4138C42.496 50.9221 41.4991 50.8637 40.9892 50.7366C40.4792 50.6095 39.5767 49.42 39.5767 49.42C39.5767 49.42 39.5002 49.9055 38.8118 49.6513C38.1234 49.3972 38.1744 48.1263 38.6206 48.0628C38.8527 48.0268 39.0869 48.0056 39.3217 47.9993C39.3217 47.9993 40.0229 47.8086 40.469 46.6014C40.9152 45.3941 41.29 44.3139 42.1773 43.9962Z" fill="white" stroke="#263238" stroke-width="0.3" stroke-linecap="round" stroke-linejoin="round"/>
<path d="M40.3569 47.4199C40.3713 47.2401 40.4556 47.073 40.5918 46.9543C40.7281 46.8356 40.9055 46.7746 41.0861 46.7845" stroke="#263238" stroke-width="0.3" stroke-linecap="round" stroke-linejoin="round"/>
<path d="M42.0415 46.3296C42.0415 46.3296 42.2251 45.7374 42.7707 45.9204" stroke="#263238" stroke-width="0.3" stroke-linecap="round" stroke-linejoin="round"/>
<path d="M41.3589 45.2341C41.3589 45.2341 41.8153 44.6419 42.4068 45.0511" stroke="#263238" stroke-width="0.3" stroke-linecap="round" stroke-linejoin="round"/>
<path d="M41.5396 46.4668C41.5396 46.4668 41.6772 46.9192 41.95 47.0107C42.2229 47.1022 42.46 47.0107 42.46 47.1479C42.4128 47.3121 42.3359 47.4663 42.2331 47.6029" stroke="#263238" stroke-width="0.3" stroke-linecap="round" stroke-linejoin="round"/>
<path d="M42.4526 48.2383C42.2286 48.4158 41.967 48.54 41.6877 48.6017C41.4013 48.6558 41.1072 48.6558 40.8208 48.6017C40.8208 48.6017 41.2772 49.6006 41.9605 49.3642C42.6438 49.1278 42.4526 48.2383 42.4526 48.2383Z" stroke="#263238" stroke-width="0.3" stroke-linecap="round" stroke-linejoin="round"/>
<path d="M51.3558 75.2583C52.1207 74.75 51.2284 72.399 50.5272 70.874C49.8261 69.349 48.2963 59.6273 48.2963 59.2461C48.2963 59.0072 48.0974 56.28 47.947 54.2721L47.2764 54.0357L45.2724 50.6122C45.0174 50.7113 44.7268 50.8028 44.4667 50.8841L45.7415 54.0993L42.3633 55.3066L40.9023 52.9962L40.1629 53.4359L41.2848 56.2597L40.0099 57.7592L41.2185 60.2627C41.2185 60.2627 39.7524 64.2022 37.7127 67.2522C35.673 70.3021 33.5058 71.8271 34.0795 72.7802C34.6532 73.7333 36.2467 72.7802 36.9478 73.7333C37.649 74.6864 37.9677 75.7031 39.6887 75.7031C41.4097 75.7031 42.1746 75.0677 43.4494 75.9572C44.7242 76.8468 47.4014 77.7999 48.5487 77.101C49.696 76.402 50.591 75.7666 51.3558 75.2583Z" fill="#6862ED" stroke="#263238" stroke-width="0.3" stroke-miterlimit="10"/>
<path d="M42.7154 60.3389C42.6763 62.1379 42.3457 63.9189 41.7363 65.6127" stroke="#263238" stroke-width="0.3" stroke-linecap="round" stroke-linejoin="round"/>
<path d="M43.1082 60.405C43.2529 61.4678 43.208 62.5476 42.9756 63.5948" stroke="#263238" stroke-width="0.3" stroke-linecap="round" stroke-linejoin="round"/>
<path d="M47.417 59.2993C47.417 59.2993 48.3323 61.7723 48.2023 63.7904" stroke="#263238" stroke-width="0.3" stroke-linecap="round" stroke-linejoin="round"/>
<path d="M47.0902 59.5587C47.0902 59.5587 47.0902 63.2695 46.6338 65.6129" stroke="#263238" stroke-width="0.3" stroke-linecap="round" stroke-linejoin="round"/>
<path d="M41.6035 60.1457C41.6035 60.1457 45.4586 57.2152 48.072 58.6461" stroke="#263238" stroke-width="0.3" stroke-linecap="round" stroke-linejoin="round"/>
<path d="M29.9565 88.0986C29.7087 88.4706 29.5083 88.8718 29.3599 89.2931C29.6549 89.268 29.9518 89.3103 30.228 89.4169C30.5042 89.5235 30.7523 89.6915 30.9534 89.9082C31.086 89.5803 31.2084 89.194 31.3256 88.7924C31.1802 88.5656 30.9766 88.3816 30.7358 88.2596C30.4951 88.1376 30.226 88.082 29.9565 88.0986Z" fill="#263238" stroke="#263238" stroke-width="0.3" stroke-linecap="round" stroke-linejoin="round"/>
<path d="M43.6614 94.4043C43.8498 93.9664 44.0057 93.5153 44.128 93.0547C43.7879 92.7917 43.3875 92.617 42.9628 92.5464C42.7378 92.9021 42.5384 93.2732 42.3662 93.6571C42.8358 93.8345 43.2732 94.0868 43.6614 94.4043Z" fill="#263238" stroke="#263238" stroke-width="0.3" stroke-linecap="round" stroke-linejoin="round"/>
<path d="M42.7969 7.18347C41.9377 8.96261 42.5011 11.489 44.2986 12.9657L47.0038 15.1896" stroke="white" stroke-width="0.3" stroke-linecap="round" stroke-linejoin="round"/>
<path d="M45.9098 5.14526C45.1751 5.20592 44.4704 5.4632 43.8701 5.88996" stroke="white" stroke-width="0.3" stroke-linecap="round" stroke-linejoin="round"/>
<path d="M51.6104 6.43112C51.6104 6.43112 52.2554 4.61132 55.3711 4.39783" stroke="white" stroke-width="0.3" stroke-linecap="round" stroke-linejoin="round"/>
</svg>
