<svg width="102" height="103" viewBox="0 0 102 103" fill="none" xmlns="http://www.w3.org/2000/svg">
<path d="M95.8799 38.3163C95.3105 36.7457 94.6561 35.2073 93.9194 33.7079C87.4526 20.554 75.4166 11.6351 60.6001 9.29115C59.9623 9.18915 59.3217 9.10007 58.6784 9.02391C46.5853 7.56939 29.6554 9.38295 22.752 20.5621C19.1677 26.368 20.6386 33.6895 16.836 39.3301C11.9135 46.6517 5.5854 50.3094 4.41444 61.7355C3.55152 70.1423 3.9534 79.2285 9.89796 85.934C16.9033 93.839 28.925 96.5603 39.1944 95.0425C49.1618 93.5717 58.0848 88.6492 66.8017 84.0266C75.076 79.6385 84.5497 76.452 91.245 69.7465C99.6988 61.2744 99.6926 48.8896 95.8799 38.3163Z" fill="#6862ED"/>
<path opacity="0.7" d="M95.8799 38.3163C95.3105 36.7457 94.6561 35.2073 93.9194 33.7079C87.4526 20.554 75.4166 11.6351 60.6001 9.29115C59.9623 9.18915 59.3217 9.10007 58.6784 9.02391C46.5853 7.56939 29.6554 9.38295 22.752 20.5621C19.1677 26.368 20.6386 33.6895 16.836 39.3301C11.9135 46.6517 5.5854 50.3094 4.41444 61.7355C3.55152 70.1423 3.9534 79.2285 9.89796 85.934C16.9033 93.839 28.925 96.5603 39.1944 95.0425C49.1618 93.5717 58.0848 88.6492 66.8017 84.0266C75.076 79.6385 84.5497 76.452 91.245 69.7465C99.6988 61.2744 99.6926 48.8896 95.8799 38.3163Z" fill="white"/>
<g opacity="0.2">
<path d="M9.46346 35.958C10.2142 35.9172 11.7075 35.1216 11.7075 35.1216C11.7075 35.1216 10.8915 34.3056 10.8282 34.2546C10.1489 33.7324 8.52914 33.1204 7.73762 33.663C7.6089 33.7572 7.50141 33.8774 7.42211 34.0158C7.34282 34.1542 7.2935 34.3077 7.27734 34.4664C7.26118 34.6251 7.27855 34.7854 7.32833 34.9369C7.3781 35.0884 7.45916 35.2278 7.56626 35.346C7.99874 35.8621 8.8229 35.9947 9.46346 35.958Z" fill="black"/>
<path d="M24.8428 28.5957C24.8611 28.5957 24.6123 27.4595 24.5878 27.3881C24.3103 26.5721 23.2965 25.1726 22.3438 25.191C22.1844 25.198 22.0283 25.2385 21.8857 25.3099C21.7431 25.3813 21.6171 25.482 21.516 25.6054C21.415 25.7288 21.3411 25.8722 21.2991 26.0261C21.2572 26.18 21.2482 26.341 21.2728 26.4986C21.3523 27.1718 21.9664 27.7369 22.5213 28.0592C23.1639 28.4407 24.8428 28.5957 24.8428 28.5957Z" fill="black"/>
<path d="M26.5769 20.8784C25.6793 21.217 25.257 22.898 25.2999 23.7527C25.2999 23.8282 25.4916 24.9767 25.5039 24.9767H25.5222C25.4529 25.2419 25.3835 25.5255 25.3182 25.8376C25.1918 26.417 25.0551 27.0616 24.9531 27.7919C24.8345 28.569 24.7616 29.3523 24.7348 30.1379C24.7013 31.0173 24.7457 31.898 24.8674 32.7695V32.8001C24.745 32.5472 24.3778 31.8495 24.3452 31.8005C23.8617 31.0906 22.5092 30.0033 21.5932 30.2746C21.4413 30.3235 21.3015 30.4038 21.1828 30.5104C21.0641 30.6169 20.9692 30.7474 20.9043 30.8931C20.8394 31.0388 20.806 31.1966 20.8062 31.3562C20.8065 31.5157 20.8404 31.6734 20.9057 31.8189C21.1607 32.4472 21.9033 32.8287 22.5214 32.9939C23.2191 33.1816 24.7654 32.9225 24.8878 32.9001C25.0325 33.784 25.237 34.6571 25.4998 35.5133C25.6508 36.0131 25.816 36.5129 25.9894 37.0107C25.8772 36.7945 25.7854 36.6027 25.7568 36.5782C25.2754 35.8683 23.9208 34.781 23.0049 35.0523C22.8532 35.1014 22.7136 35.1819 22.595 35.2885C22.4765 35.3952 22.3817 35.5255 22.3169 35.6712C22.252 35.8168 22.2186 35.9745 22.2187 36.1339C22.2188 36.2934 22.2524 36.451 22.3174 36.5966C22.5744 37.2249 23.315 37.6166 23.9351 37.7716C24.5553 37.9267 25.8833 37.7451 26.2322 37.69C26.3015 37.8797 26.3668 38.0715 26.4362 38.2612C26.7687 39.1731 27.1032 40.0809 27.4052 40.9826C27.5112 41.3008 27.6092 41.617 27.6989 41.9332C27.599 41.7415 27.5133 41.5823 27.4949 41.5579C27.0135 40.85 25.6589 39.7627 24.743 40.0319C24.5912 40.0813 24.4515 40.162 24.333 40.2688C24.2145 40.3756 24.1197 40.5062 24.0549 40.652C23.99 40.7978 23.9566 40.9556 23.9567 41.1152C23.9568 41.2748 23.9905 41.4325 24.0555 41.5783C24.3105 42.2066 25.053 42.5881 25.6732 42.7533C26.2934 42.9185 27.4929 42.7533 27.9172 42.6799C28.0049 43.0083 28.0926 43.3347 28.162 43.655C28.2028 43.8753 28.2599 44.0854 28.2905 44.3078C28.3211 44.5301 28.3599 44.7464 28.3925 44.9626C28.4435 45.3829 28.4986 45.8133 28.5353 46.2233C28.5659 46.5089 28.5884 46.7803 28.6108 47.0557C28.5088 46.7374 28.2966 46.1213 28.2722 46.0703C27.922 45.402 27.4065 44.8345 26.7748 44.422C26.7398 44.346 26.6975 44.2735 26.6483 44.2058C26.5593 44.0734 26.4433 43.9613 26.308 43.8767C26.1728 43.7921 26.0212 43.737 25.8632 43.7149C25.7052 43.6927 25.5444 43.7041 25.3911 43.7483C25.2378 43.7924 25.0955 43.8684 24.9735 43.9712C24.2574 44.6117 24.4655 46.3294 24.8144 47.1148C24.8348 47.1597 25.1122 47.6371 25.2917 47.9308C25.1591 47.7717 25.0326 47.6167 24.8939 47.4535C24.6226 47.1311 24.3411 46.819 24.0412 46.4783L23.5822 45.9989C23.4333 45.8357 23.2538 45.6827 23.0906 45.5216C22.6989 45.1564 22.2868 44.8055 21.8666 44.4608C22.1481 44.2221 23.1354 43.3592 23.4149 42.7798C23.6944 42.2005 23.8862 41.3906 23.5761 40.7888C23.5083 40.6443 23.4108 40.5157 23.29 40.4114C23.1691 40.3072 23.0277 40.2296 22.8748 40.1838C22.7219 40.138 22.5611 40.1249 22.4028 40.1455C22.2445 40.1661 22.0924 40.2198 21.9563 40.3033C21.1403 40.8275 21.0975 42.5473 21.3219 43.3857C21.3362 43.4367 21.5626 44.012 21.6952 44.3261C21.4382 44.1221 21.1832 43.9181 20.9159 43.7141C20.1489 43.1409 19.3533 42.5819 18.5618 42.023C18.3197 41.8516 18.079 41.6789 17.8396 41.5048C17.9396 41.4212 19.137 40.4216 19.4492 39.7729C19.7266 39.1955 19.9184 38.3836 19.6083 37.7798C19.5403 37.6354 19.4427 37.5071 19.3218 37.403C19.2008 37.299 19.0593 37.2216 18.9065 37.176C18.7536 37.1304 18.5928 37.1175 18.4347 37.1382C18.2765 37.159 18.1245 37.2128 17.9885 37.2963C17.1848 37.8185 17.1317 39.5505 17.3541 40.3767C17.3724 40.4399 17.7009 41.2682 17.7947 41.4742C17.2643 41.0927 16.7421 40.7092 16.2402 40.3094C15.5599 39.7733 14.9159 39.1927 14.3124 38.5713C14.3594 38.5325 15.6119 37.4942 15.9322 36.8291C16.2096 36.2518 16.4034 35.4399 16.0934 34.8381C16.0256 34.6936 15.9281 34.565 15.8073 34.4608C15.6864 34.3565 15.5449 34.2789 15.3921 34.2331C15.2392 34.1873 15.0783 34.1742 14.9201 34.1948C14.7618 34.2154 14.6097 34.2692 14.4736 34.3526C13.6576 34.8769 13.6148 36.6068 13.8392 37.435C13.8534 37.4881 14.1044 38.1205 14.2288 38.4183L14.1839 38.4469C13.5919 37.8065 13.0586 37.1142 12.5907 36.3783C12.3275 35.9703 12.099 35.5786 11.8848 35.1869C12.1378 35.0176 13.2863 34.2302 13.6413 33.6631C13.9962 33.0959 14.2533 32.335 14.0187 31.7006C13.9668 31.5499 13.8837 31.4117 13.775 31.2952C13.6662 31.1787 13.5341 31.0863 13.3873 31.0242C13.2405 30.962 13.0822 30.9315 12.9229 30.9345C12.7635 30.9375 12.6065 30.974 12.4622 31.0417C11.6054 31.4741 11.3626 33.1877 11.4932 34.0343C11.4932 34.0813 11.6258 34.5423 11.7216 34.8748C11.6278 34.6973 11.5176 34.5137 11.4401 34.3403C11.1137 33.6916 10.8546 33.0796 10.6241 32.5329C10.4997 32.2208 10.3916 31.9372 10.2936 31.67C10.4568 31.3742 11.0933 30.1747 11.1464 29.5198C11.1994 28.865 11.0831 28.0551 10.5772 27.6043C10.4617 27.4944 10.3243 27.4101 10.1741 27.3568C10.0238 27.3035 9.86405 27.2825 9.70512 27.295C9.5462 27.3075 9.39169 27.3533 9.25162 27.4294C9.11156 27.5056 8.98909 27.6103 8.89216 27.7369C8.32912 28.5141 8.90236 30.1481 9.41032 30.8397C9.4552 30.8989 10.2488 31.7536 10.2569 31.7393V31.721C10.3446 31.9801 10.4426 32.2555 10.5568 32.5553C10.7608 33.1061 11.0158 33.7283 11.33 34.3913C11.6613 35.099 12.0332 35.787 12.4438 36.4517C12.8995 37.2042 13.4218 37.9142 14.0044 38.5733L14.0268 38.5958C13.7861 38.453 13.0966 38.0735 13.0395 38.0511C12.2459 37.7247 10.5221 37.5635 9.904 38.2959C9.8046 38.4206 9.73252 38.5649 9.69244 38.7192C9.65236 38.8736 9.64516 39.0347 9.67132 39.192C9.69748 39.3493 9.7564 39.4994 9.84428 39.6325C9.93216 39.7656 10.047 39.8788 10.1814 39.9646C10.7424 40.3461 11.5707 40.2563 12.1786 40.0523C12.864 39.8239 14.0146 38.7549 14.1003 38.6713C14.7098 39.3257 15.362 39.939 16.0526 40.5073C16.4606 40.8418 16.8686 41.1662 17.2766 41.4844C17.0726 41.3681 16.8686 41.2641 16.8441 41.2519C16.0505 40.9275 14.3267 40.7643 13.7066 41.4987C13.607 41.6233 13.5348 41.7674 13.4947 41.9218C13.4546 42.0761 13.4475 42.2372 13.4739 42.3945C13.5003 42.5518 13.5595 42.7017 13.6478 42.8345C13.736 42.9674 13.8513 43.0801 13.986 43.1654C14.545 43.5489 15.3753 43.4571 15.9832 43.2551C16.5911 43.0532 17.5928 42.1576 17.8539 41.9189L18.3598 42.2861C19.1391 42.8635 19.9204 43.4367 20.6691 44.0222C20.9322 44.2262 21.1852 44.4302 21.4382 44.6525L21.0628 44.4485C20.2692 44.1242 18.5454 43.961 17.9253 44.6954C17.826 44.8201 17.7541 44.9643 17.7142 45.1186C17.6743 45.2729 17.6673 45.4338 17.6936 45.591C17.72 45.7482 17.7791 45.8981 17.8672 46.0309C17.9552 46.1637 18.0703 46.2766 18.2048 46.3621C18.7678 46.7517 19.5838 46.6579 20.1958 46.4539C20.8078 46.2499 21.7095 45.4339 22.0196 45.1605C22.2725 45.3849 22.5255 45.6093 22.7601 45.8378C22.9172 45.9989 23.0804 46.1417 23.2293 46.3111L23.676 46.8007C23.9494 47.123 24.233 47.4535 24.492 47.7737C24.6736 47.9961 24.8429 48.2103 25.0143 48.4245C24.7532 48.2205 24.235 47.8125 24.1881 47.7921C23.4537 47.3494 21.7748 46.9271 21.0506 47.5595C20.9332 47.6677 20.84 47.7993 20.7769 47.9459C20.7139 48.0924 20.6824 48.2506 20.6845 48.4101C20.6866 48.5697 20.7223 48.727 20.7892 48.8718C20.8562 49.0166 20.9529 49.1457 21.073 49.2507C21.5687 49.7138 22.4031 49.7505 23.0334 49.6403C23.7291 49.52 24.9755 48.6775 25.1306 48.5714C25.4121 48.9304 25.6814 49.2813 25.9302 49.6159C26.7911 50.7644 27.4643 51.7538 27.9274 52.4555L28.5088 52.1618L28.4762 52.1169C27.9906 51.4131 27.2848 50.4217 26.3831 49.2609C26.0996 48.8978 25.7895 48.5143 25.4651 48.1226C25.7856 47.76 26.0839 47.3785 26.3586 46.9802C27.038 47.2331 28.4435 47.2209 28.623 47.2168C28.6618 47.6717 28.6924 48.1124 28.7169 48.5285C28.7985 49.9565 28.8148 51.1581 28.8148 51.9965L29.4513 51.6742C29.4309 50.8582 29.386 49.7587 29.284 48.4857C29.2473 48.0247 29.2004 47.5351 29.1473 47.0291C29.3248 46.9822 30.7793 46.5824 31.324 46.1336C31.8177 45.7256 32.3338 45.0687 32.3032 44.3914C32.302 44.232 32.2672 44.0746 32.2011 43.9296C32.135 43.7845 32.039 43.655 31.9195 43.5495C31.7999 43.444 31.6595 43.3649 31.5073 43.3174C31.3552 43.2698 31.1947 43.2549 31.0364 43.2735C30.0857 43.4122 29.3126 44.9606 29.1698 45.8051C29.1698 45.8561 29.129 46.4171 29.1167 46.7558C29.0922 46.5518 29.0739 46.3478 29.0474 46.1438C28.9984 45.7256 28.9372 45.3074 28.8719 44.8606L28.7556 44.2078C28.721 43.9875 28.6557 43.7611 28.6088 43.5367C28.4843 43.0165 28.3334 42.4963 28.1681 41.974C28.5353 41.9312 29.8348 41.7578 30.3876 41.4273C30.9405 41.0968 31.5464 40.5277 31.6116 39.8545C31.6344 39.6965 31.6236 39.5356 31.58 39.3821C31.5363 39.2286 31.4609 39.086 31.3585 38.9636C31.2561 38.8412 31.1291 38.7417 30.9857 38.6717C30.8424 38.6016 30.6858 38.5626 30.5264 38.557C29.5676 38.557 28.568 39.9626 28.2987 40.7765C28.2803 40.8275 28.1538 41.4334 28.0947 41.768C27.9927 41.4559 27.8907 41.1417 27.7805 40.8296C27.4582 39.9259 27.1012 39.0221 26.7503 38.1205C26.6422 37.843 26.5463 37.5656 26.4321 37.2902C26.5626 37.2759 28.113 37.1005 28.7312 36.7312C29.282 36.4048 29.8919 35.8336 29.9552 35.1584C29.9776 35.0005 29.9665 34.8396 29.9228 34.6863C29.8791 34.5329 29.8036 34.3905 29.7013 34.2681C29.5989 34.1458 29.4721 34.0464 29.3288 33.9762C29.1856 33.9061 29.0292 33.8668 28.8699 33.8609C27.9111 33.8609 26.9115 35.2685 26.6422 36.0825C26.6218 36.1437 26.4382 37.0148 26.4035 37.2392C26.173 36.6272 25.9466 36.0152 25.7487 35.4032C25.4787 34.5802 25.262 33.7407 25.1 32.8899C25.1612 32.8899 26.7789 32.7104 27.4113 32.3309C27.9621 32.0025 28.572 31.4333 28.6455 30.7581C28.6682 30.6002 28.6574 30.4392 28.6138 30.2857C28.5702 30.1322 28.4947 29.9896 28.3923 29.8672C28.29 29.7448 28.163 29.6454 28.0196 29.5753C27.8762 29.5053 27.7197 29.4662 27.5602 29.4607C26.6014 29.4607 25.6018 30.8683 25.3325 31.6802C25.3142 31.7353 25.1754 32.3983 25.1163 32.7165H25.0612C24.9263 31.8598 24.8683 30.9927 24.8878 30.1257C24.8878 29.6443 24.9184 29.1873 24.9572 28.7405C25.2611 28.7405 26.6544 28.7161 27.2624 28.4386C27.8703 28.1612 28.5129 27.6736 28.6598 27.0106C28.6998 26.8563 28.707 26.6953 28.6806 26.5381C28.6543 26.3809 28.5951 26.231 28.507 26.0982C28.4188 25.9653 28.3036 25.8526 28.169 25.7673C28.0343 25.682 27.8832 25.626 27.7254 25.603C26.7728 25.4888 25.6242 26.7862 25.2652 27.5655C25.2468 27.6063 25.0959 28.0592 24.9918 28.3917C25.0122 28.1877 25.0306 27.9837 25.053 27.7899C25.1387 27.0698 25.257 26.4149 25.3754 25.8356C25.4427 25.5071 25.51 25.2113 25.5794 24.9339C25.8772 24.7768 27.0706 24.1179 27.4745 23.6099C27.8784 23.102 28.2334 22.3533 28.058 21.6985C28.0224 21.5427 27.9543 21.3962 27.8583 21.2686C27.7623 21.1409 27.6404 21.0349 27.5007 20.9575C27.3609 20.8801 27.2064 20.8331 27.0472 20.8195C26.8881 20.8058 26.7278 20.8259 26.5769 20.8784Z" fill="black"/>
</g>
<g opacity="0.2">
<path d="M72.5995 44.726C73.0728 45.2278 74.5069 45.8011 74.5069 45.8011C74.5069 45.8011 74.5987 44.7403 74.5967 44.6729C74.562 43.8875 74.0357 42.3922 73.187 42.1576C73.045 42.1228 72.8973 42.1183 72.7534 42.1443C72.6095 42.1704 72.4727 42.2264 72.3519 42.3087C72.2311 42.3911 72.1289 42.4979 72.0521 42.6223C71.9753 42.7467 71.9254 42.8858 71.9059 43.0307C71.808 43.6427 72.1976 44.3037 72.5995 44.726Z" fill="black"/>
<path d="M86.8347 51.1581C86.8347 51.1724 87.4936 50.3258 87.5303 50.2666C87.9383 49.5934 88.3198 48.0553 87.7343 47.3923C87.6352 47.285 87.5145 47.1998 87.3803 47.1422C87.246 47.0846 87.1012 47.056 86.9551 47.0581C86.809 47.0602 86.6651 47.0931 86.5325 47.1545C86.4 47.216 86.2819 47.3046 86.1859 47.4147C85.7616 47.8676 85.729 48.6387 85.8289 49.2099C85.9534 49.8892 86.8326 51.1581 86.8347 51.1581Z" fill="black"/>
<path d="M93.2667 47.8186C92.4976 47.3882 91.0737 48.0838 90.4984 48.6183C90.4474 48.6652 89.7538 49.4771 89.7681 49.4833H89.7864C89.56 49.5893 89.3193 49.7097 89.0581 49.8443C88.5787 50.0953 88.0381 50.3849 87.4731 50.7399C86.8604 51.1145 86.2692 51.5232 85.7023 51.9639C85.066 52.4595 84.4749 53.0104 83.9357 53.6102L83.9173 53.6326C84.0234 53.396 84.2947 52.7289 84.3111 52.6759C84.5151 51.919 84.4885 50.3339 83.7562 49.8464C83.6321 49.7691 83.4931 49.7188 83.3483 49.6987C83.2035 49.6786 83.0561 49.6892 82.9157 49.7298C82.7752 49.7704 82.6449 49.8401 82.5332 49.9343C82.4214 50.0286 82.3307 50.1453 82.267 50.2768C81.9773 50.8256 82.1487 51.5722 82.3975 52.1026C82.6791 52.7024 83.7705 53.6326 83.8582 53.7061C83.325 54.3293 82.8343 54.9877 82.3894 55.6767C82.1283 56.0847 81.8773 56.4927 81.6305 56.9007C81.7141 56.6967 81.7876 56.509 81.7957 56.4927C81.9997 55.7359 81.9753 54.1508 81.2409 53.6653C81.1174 53.5895 80.9794 53.5403 80.8358 53.521C80.6922 53.5017 80.5461 53.5127 80.407 53.5533C80.2679 53.5938 80.1388 53.663 80.028 53.7564C79.9173 53.8498 79.8273 53.9654 79.7639 54.0957C79.4742 54.6445 79.6435 55.3891 79.8945 55.9215C80.1454 56.4539 81.0613 57.272 81.3082 57.4821C81.2143 57.6433 81.1205 57.8024 81.0287 57.9635C80.584 58.7326 80.1454 59.5037 79.6925 60.2483C79.5334 60.5095 79.3661 60.7624 79.1988 61.0154C79.2743 60.8318 79.3355 60.6768 79.3437 60.6523C79.5477 59.8954 79.5211 58.3083 78.7888 57.8228C78.6648 57.7452 78.5258 57.6946 78.3809 57.6744C78.236 57.6541 78.0885 57.6646 77.948 57.7053C77.8075 57.7459 77.6771 57.8157 77.5654 57.9101C77.4536 58.0045 77.3631 58.1214 77.2996 58.2532C77.0099 58.802 77.1813 59.5486 77.4301 60.079C77.679 60.6094 78.5093 61.3499 78.801 61.6029C78.6215 61.8559 78.444 62.1109 78.2604 62.3495C78.1319 62.5087 78.0177 62.6719 77.8789 62.8249L77.4811 63.2839C77.218 63.5654 76.9467 63.8591 76.6815 64.1284C76.4999 64.3161 76.3224 64.4915 76.1449 64.6711C76.3061 64.412 76.6121 63.8979 76.6345 63.8551C76.8957 63.216 76.9891 62.5208 76.9059 61.8355C76.9386 61.7654 76.9646 61.6923 76.9834 61.6172C77.0233 61.4765 77.0331 61.3291 77.0123 61.1844C76.9915 61.0397 76.9404 60.9009 76.8625 60.7772C76.7846 60.6535 76.6815 60.5476 76.56 60.4663C76.4385 60.3851 76.3013 60.3302 76.1572 60.3055C75.2881 60.181 74.2069 61.3418 73.8622 62.0476C73.8418 62.0905 73.6725 62.5658 73.5684 62.8636C73.6031 62.678 73.6357 62.4964 73.6684 62.3047C73.7337 61.9232 73.7887 61.5417 73.8479 61.1296C73.8683 60.9256 73.8907 60.7216 73.9132 60.5176C73.9356 60.3136 73.9417 60.1096 73.9581 59.8913C73.9825 59.4017 73.9846 58.906 73.9764 58.4042C74.3089 58.4613 75.4962 58.6449 76.0674 58.498C76.6386 58.3511 77.32 58.0084 77.5587 57.4352C77.6206 57.3023 77.6537 57.1578 77.656 57.0112C77.6583 56.8646 77.6296 56.7192 77.5719 56.5844C77.5141 56.4496 77.4286 56.3286 77.3208 56.2291C77.2131 56.1296 77.0856 56.054 76.9467 56.0072C76.1041 55.7522 74.8597 56.7355 74.413 57.3821C74.3844 57.4229 74.1151 57.9207 73.9723 58.1981C73.9723 57.8983 73.9601 57.5984 73.9417 57.2944C73.8907 56.4172 73.8112 55.5298 73.7377 54.6424C73.7153 54.3731 73.6949 54.1018 73.6745 53.8264C73.7928 53.8468 75.2004 54.0957 75.8389 53.9305C76.4081 53.7856 77.0915 53.4409 77.3302 52.8676C77.3921 52.7347 77.4253 52.5902 77.4275 52.4436C77.4298 52.297 77.4011 52.1516 77.3434 52.0168C77.2856 51.8821 77.2001 51.761 77.0923 51.6615C76.9846 51.5621 76.8571 51.4865 76.7182 51.4396C75.8757 51.1846 74.6313 52.1699 74.1845 52.8146C74.1498 52.8635 73.7643 53.5816 73.6745 53.7693C73.6296 53.1736 73.5888 52.58 73.5745 51.9925C73.5494 51.1994 73.576 50.4055 73.6541 49.6159C73.7092 49.6261 75.1759 49.8933 75.8308 49.724C76.3979 49.5771 77.0813 49.2344 77.32 48.6611C77.3819 48.5282 77.4151 48.3838 77.4173 48.2372C77.4196 48.0906 77.3909 47.9451 77.3332 47.8103C77.2754 47.6756 77.1899 47.5545 77.0821 47.4551C76.9744 47.3556 76.8469 47.28 76.708 47.2331C75.8675 46.9781 74.6231 47.9635 74.1743 48.6081C74.1457 48.6509 73.8499 49.1977 73.7173 49.4608L73.6684 49.4465C73.7633 48.6716 73.9257 47.9064 74.1539 47.1597C74.2804 46.7395 74.4232 46.3437 74.5721 45.9622C74.8414 46.0397 76.0694 46.3804 76.6753 46.2927C77.2812 46.205 77.9728 45.9439 78.2747 45.4012C78.3497 45.2758 78.3975 45.136 78.415 44.9909C78.4324 44.8457 78.4192 44.6986 78.3761 44.5589C78.333 44.4193 78.261 44.2902 78.1648 44.1802C78.0686 44.0701 77.9504 43.9816 77.8177 43.9202C77.0017 43.5734 75.6635 44.4159 75.1494 45.0075C75.1209 45.0401 74.872 45.3992 74.6945 45.6623C74.7639 45.493 74.8332 45.3135 74.8985 45.1523C75.1596 44.5403 75.437 43.9957 75.688 43.5203C75.8308 43.249 75.9675 43.0063 76.096 42.7798C76.3999 42.7186 77.6178 42.4575 78.1054 42.1087C78.5929 41.7598 79.0968 41.1988 79.1131 40.5787C79.1222 40.4328 79.1004 40.2866 79.0492 40.1497C78.9979 40.0128 78.9184 39.8882 78.8159 39.7841C78.7133 39.68 78.5899 39.5986 78.4538 39.5454C78.3176 39.4921 78.1718 39.4682 78.0258 39.475C77.1486 39.5403 76.3428 40.903 76.1572 41.6701C76.1429 41.7374 76.0103 42.7982 76.0266 42.7941H76.045C75.9165 43.0103 75.7798 43.2409 75.637 43.4979C75.3779 43.9732 75.0862 44.5179 74.8108 45.1299C74.5064 45.7824 74.2401 46.452 74.0131 47.1352C73.7545 47.8986 73.5653 48.6838 73.4481 49.4812C73.4481 49.4812 73.4481 49.4996 73.4481 49.5098C73.4073 49.2548 73.2645 48.5489 73.2441 48.4898C73.0033 47.7411 72.1017 46.4375 71.2204 46.4355C71.0744 46.4399 70.9309 46.475 70.7993 46.5383C70.6677 46.6016 70.5508 46.6919 70.4562 46.8032C70.3616 46.9145 70.2914 47.0444 70.2502 47.1845C70.2089 47.3246 70.1975 47.4719 70.2167 47.6167C70.2799 48.2287 70.8287 48.7611 71.3326 49.0671C71.8977 49.4119 73.3216 49.5853 73.4358 49.5975C73.3356 50.4095 73.2899 51.2274 73.2991 52.0455C73.2991 52.5249 73.3175 53.0063 73.342 53.4878C73.2971 53.2695 73.2583 53.0798 73.2481 53.0471C73.0095 52.3005 72.1057 50.9949 71.2265 50.9949C71.0804 50.9984 70.9366 51.0328 70.8047 51.0957C70.6728 51.1586 70.5556 51.2486 70.4608 51.3599C70.3661 51.4712 70.2959 51.6013 70.2549 51.7416C70.2139 51.8818 70.203 52.0292 70.2228 52.174C70.284 52.786 70.8348 53.3205 71.3387 53.6265C71.8426 53.9325 73.0584 54.1079 73.3787 54.1487L73.4093 54.7036C73.4664 55.591 73.5256 56.4743 73.5562 57.3454C73.5684 57.6514 73.5684 57.9574 73.5684 58.2573C73.5297 58.0635 73.497 57.8983 73.4889 57.8758C73.2481 57.1271 72.3444 55.8236 71.4652 55.8215C71.319 55.8254 71.1752 55.86 71.0433 55.9231C70.9113 55.9862 70.7942 56.0764 70.6995 56.1879C70.6047 56.2994 70.5346 56.4295 70.4936 56.5699C70.4526 56.7103 70.4417 56.8578 70.4615 57.0027C70.5227 57.6147 71.0735 58.1471 71.5774 58.4531C72.0813 58.7591 73.1788 58.9162 73.5603 58.9672C73.5603 59.2773 73.5439 59.5792 73.5215 59.8873C73.5031 60.0913 73.497 60.2953 73.4664 60.4993L73.3869 61.1011C73.3236 61.4825 73.2583 61.8763 73.1829 62.2455C73.1339 62.5046 73.0849 62.7494 73.0339 62.9962C73.0339 62.6902 72.9972 62.0925 72.9911 62.0435C72.8666 61.2683 72.1751 59.8424 71.302 59.7077C71.1564 59.689 71.0086 59.7013 70.8682 59.7439C70.7277 59.7864 70.5979 59.8583 70.4873 59.9546C70.3767 60.051 70.2877 60.1697 70.2263 60.303C70.1649 60.4363 70.1324 60.581 70.131 60.7277C70.0984 61.3397 70.5655 61.9517 71.0143 62.3312C71.508 62.7392 72.834 63.1247 72.9993 63.1696C72.9156 63.5776 72.8279 63.9734 72.7422 64.3467C72.4444 65.6258 72.1486 66.6825 71.9262 67.423L72.4729 67.6556C72.4786 67.6396 72.4834 67.6232 72.4872 67.6066C72.6912 66.8518 72.9707 65.7706 73.2461 64.4589C73.3338 64.0509 73.4195 63.6021 73.5031 63.1451C73.9464 63.1545 74.3898 63.1382 74.8312 63.0962C75.0535 63.7204 75.892 64.6976 76.0001 64.822C75.7043 65.1158 75.4146 65.3994 75.1372 65.6625C74.1825 66.5642 73.3522 67.2823 72.7626 67.778L73.3644 68.035C73.9295 67.5332 74.6659 66.86 75.4983 66.0358C75.8002 65.74 76.1103 65.4238 76.4387 65.0811C76.5774 65.177 77.7137 65.9624 78.3502 66.0787C78.9275 66.1827 79.6925 66.1562 80.1495 65.7359C80.2606 65.641 80.3505 65.5237 80.4132 65.3916C80.4759 65.2595 80.51 65.1157 80.5133 64.9695C80.5166 64.8234 80.4889 64.6782 80.4322 64.5434C80.3755 64.4087 80.291 64.2874 80.1841 64.1876C79.5273 63.6041 77.985 63.9836 77.3098 64.3753C77.269 64.3977 76.865 64.7017 76.6121 64.8975C76.7426 64.7608 76.8712 64.6282 77.0038 64.4895C77.269 64.208 77.524 63.9183 77.8014 63.6082L78.189 63.1411C78.3216 62.9881 78.444 62.8085 78.5725 62.6413C78.8622 62.2496 79.1397 61.8355 79.4069 61.4173C79.6537 61.6478 80.5432 62.4556 81.1001 62.6413C81.657 62.8269 82.4138 62.9228 82.9361 62.576C83.0638 62.4998 83.1737 62.397 83.2582 62.2746C83.3427 62.1522 83.4 62.0131 83.4261 61.8667C83.4522 61.7203 83.4466 61.5699 83.4096 61.4259C83.3725 61.2818 83.305 61.1474 83.2115 61.0317C82.6505 60.3544 81.0695 60.4891 80.3412 60.7808C80.2963 60.7991 79.7965 61.0664 79.5252 61.2194C79.6864 60.9644 79.8455 60.7114 79.9985 60.4483C80.4412 59.6873 80.8635 58.904 81.2898 58.1267C81.4183 57.886 81.5509 57.6514 81.6835 57.4127C81.7713 57.4964 82.8076 58.4797 83.4318 58.6959C83.9847 58.8877 84.7456 58.9774 85.2678 58.6306C85.3917 58.5532 85.498 58.4507 85.5797 58.3295C85.6614 58.2084 85.7168 58.0715 85.7422 57.9276C85.7676 57.7837 85.7624 57.6361 85.7271 57.4944C85.6918 57.3526 85.627 57.2198 85.5371 57.1047C84.9761 56.4274 83.3951 56.5621 82.6648 56.8538C82.6097 56.8762 81.8916 57.2618 81.7141 57.3699C82.0038 56.8477 82.2996 56.3315 82.6097 55.8317C83.0267 55.1569 83.4866 54.5096 83.9867 53.8937C84.0275 53.9325 85.1046 54.9647 85.7431 55.1851C86.298 55.3768 87.0569 55.4666 87.5791 55.1198C87.7033 55.0426 87.8098 54.9401 87.8917 54.819C87.9736 54.6979 88.0291 54.5609 88.0545 54.417C88.0799 54.273 88.0747 54.1253 88.0392 53.9834C88.0037 53.8416 87.9387 53.7089 87.8484 53.5939C87.2874 52.9166 85.7064 53.0512 84.9781 53.3429C84.9292 53.3633 84.3825 53.6571 84.1254 53.8019L84.0928 53.7632C84.6132 53.1577 85.1867 52.5999 85.8064 52.0965C86.143 51.815 86.4816 51.5641 86.8162 51.3274C86.9977 51.5314 87.8362 52.5025 88.387 52.7656C88.9378 53.0288 89.664 53.1899 90.2128 52.9023C90.3448 52.8394 90.462 52.7493 90.5569 52.638C90.6518 52.5266 90.7221 52.3966 90.7633 52.2562C90.8045 52.1159 90.8156 51.9685 90.796 51.8236C90.7763 51.6786 90.7264 51.5395 90.6493 51.4151C90.1658 50.6807 88.5808 50.6399 87.8239 50.8501C87.7811 50.8623 87.3772 51.0235 87.0834 51.1459C87.2344 51.0418 87.3914 50.9317 87.5383 50.8337C88.0952 50.4686 88.6257 50.1687 89.0989 49.9055C89.3682 49.7587 89.6151 49.6322 89.8476 49.5139C90.1353 49.6301 91.294 50.083 91.8876 50.0626C92.4813 50.0422 93.2136 49.8586 93.5706 49.3425C93.659 49.2254 93.7216 49.0908 93.7543 48.9478C93.787 48.8047 93.7891 48.6563 93.7604 48.5124C93.7317 48.3685 93.6728 48.2323 93.5877 48.1127C93.5026 47.9931 93.3932 47.8929 93.2667 47.8186Z" fill="black"/>
</g>
<g opacity="0.2">
<path d="M15.6407 65.5891C16.3955 65.836 18.1622 65.6238 18.1642 65.6238C18.1663 65.6238 17.6705 64.5018 17.6297 64.4345C17.1626 63.6613 15.7937 62.4373 14.8186 62.6699C14.6556 62.7126 14.5034 62.7893 14.3719 62.8948C14.2405 63.0003 14.1328 63.1323 14.0558 63.2823C13.9788 63.4322 13.9343 63.5967 13.9251 63.765C13.916 63.9333 13.9424 64.1016 14.0026 64.2591C14.2372 64.9343 14.9981 65.3811 15.6407 65.5891Z" fill="black"/>
<path d="M33.5868 64.2427C33.6052 64.2427 33.7908 63.035 33.7908 62.9575C33.8276 62.0517 33.3706 60.283 32.4179 59.9322C32.2584 59.8787 32.0894 59.8593 31.9219 59.8753C31.7544 59.8913 31.5921 59.9423 31.4456 60.025C31.299 60.1077 31.1715 60.2202 31.0712 60.3554C30.9709 60.4905 30.9001 60.6451 30.8634 60.8094C30.686 61.503 31.0674 62.2924 31.4938 62.8228C31.9956 63.443 33.5868 64.2427 33.5868 64.2427Z" fill="black"/>
<path d="M38.2501 57.3149C37.2301 57.3026 36.1775 58.7939 35.8919 59.6527C35.8674 59.7261 35.6124 60.9297 35.6307 60.9297H35.6532C35.4839 61.1643 35.3043 61.4173 35.1167 61.6968C34.7699 62.217 34.3843 62.8086 34.0089 63.4797C33.5942 64.1977 33.2223 64.9395 32.8951 65.7013C32.5261 66.5539 32.2326 67.4372 32.0179 68.3411V68.3737C31.9934 68.0779 31.9016 67.2517 31.8873 67.1885C31.6833 66.3072 30.7755 64.7221 29.7657 64.6344C29.5976 64.6244 29.4292 64.65 29.2715 64.7095C29.1139 64.769 28.9706 64.861 28.8508 64.9795C28.7311 65.0981 28.6377 65.2405 28.5768 65.3976C28.5158 65.5546 28.4885 65.7227 28.4969 65.891C28.5071 66.6071 29.0905 67.266 29.6372 67.6658C30.2492 68.1167 31.869 68.4533 31.9995 68.4818C31.8007 69.4066 31.6644 70.3437 31.5915 71.2868C31.5467 71.8356 31.5201 72.3905 31.4997 72.9474C31.4712 72.6903 31.4426 72.4639 31.4365 72.4313C31.2325 71.55 30.3247 69.9649 29.3149 69.8772C29.1467 69.8672 28.9783 69.8928 28.8207 69.9523C28.6631 70.0118 28.5197 70.1038 28.4 70.2223C28.2803 70.3409 28.1869 70.4833 28.1259 70.6404C28.0649 70.7974 28.0377 70.9655 28.046 71.1338C28.0562 71.8499 28.6397 72.5088 29.1864 72.9086C29.7331 73.3085 31.1121 73.6287 31.4773 73.7083L31.4589 74.3468C31.4365 75.3668 31.4181 76.3868 31.3692 77.3966C31.3529 77.7495 31.3223 78.0963 31.2937 78.4431C31.2692 78.2167 31.2447 78.0249 31.2386 77.9964C31.0346 77.1151 30.1268 75.53 29.117 75.4423C28.949 75.4327 28.7808 75.4585 28.6234 75.5181C28.4661 75.5777 28.323 75.6697 28.2035 75.7882C28.084 75.9068 27.9908 76.0491 27.9299 76.206C27.8691 76.3629 27.8419 76.5308 27.8502 76.6989C27.8604 77.415 28.4438 78.0739 28.9885 78.4737C29.5332 78.8736 30.7817 79.1633 31.2141 79.2591C31.1754 79.6141 31.1366 79.9691 31.0815 80.3118C31.0387 80.5443 31.0142 80.7708 30.9571 81.0013C30.9 81.2318 30.8571 81.4603 30.8082 81.6867C30.698 82.1172 30.5858 82.5639 30.4655 82.9801C30.3859 83.2718 30.3043 83.5493 30.2207 83.8267C30.2431 83.4758 30.2696 82.7863 30.2655 82.7292C30.1775 81.9377 29.8881 81.182 29.4251 80.5341C29.4189 80.446 29.4045 80.3585 29.3822 80.273C29.3455 80.1085 29.2744 79.9537 29.1737 79.8186C29.073 79.6834 28.9449 79.5711 28.7978 79.4889C28.6507 79.4066 28.4879 79.3564 28.32 79.3414C28.1521 79.3264 27.983 79.3471 27.8237 79.4019C26.8751 79.7549 26.4222 81.5256 26.463 82.4293C26.463 82.4823 26.5568 83.0597 26.6201 83.4207C26.5507 83.2167 26.4854 83.0127 26.4161 82.7985C26.2712 82.3783 26.1162 81.9621 25.9489 81.5133L25.6817 80.8667C25.598 80.6484 25.4777 80.4281 25.3818 80.2077C25.137 79.6998 24.8657 79.1877 24.5801 78.6941C24.9493 78.5676 26.2508 78.0984 26.7465 77.6353C27.2423 77.1722 27.7421 76.448 27.6686 75.7361C27.6566 75.5682 27.6095 75.4048 27.5303 75.2563C27.4511 75.1078 27.3416 74.9777 27.2089 74.8742C27.0762 74.7707 26.9233 74.6963 26.76 74.6557C26.5967 74.6151 26.4267 74.6093 26.261 74.6385C25.2675 74.8425 24.5515 76.5276 24.4556 77.4272C24.4556 77.4843 24.4556 78.1371 24.4556 78.4962C24.2822 78.1963 24.1109 77.8964 23.9252 77.5986C23.3887 76.7397 22.8195 75.887 22.2565 75.0323C22.0831 74.7711 21.9138 74.508 21.7445 74.2469C21.875 74.202 23.4356 73.6777 23.9885 73.1595C24.4842 72.6985 24.984 71.9723 24.9105 71.2603C24.8986 71.0925 24.8515 70.9291 24.7722 70.7807C24.693 70.6324 24.5835 70.5023 24.4508 70.399C24.318 70.2957 24.165 70.2215 24.0018 70.1811C23.8385 70.1408 23.6685 70.1352 23.5029 70.1648C22.5095 70.3688 21.7955 72.0518 21.6975 72.9515C21.6975 73.0188 21.6975 73.9592 21.7098 74.1979C21.3365 73.6206 20.9672 73.0433 20.6286 72.4578C20.1677 71.6693 19.7589 70.8515 19.4046 70.0098C19.4658 69.9894 21.0957 69.4488 21.6669 68.9184C22.1606 68.4553 22.6604 67.7311 22.587 67.0191C22.575 66.8513 22.5279 66.6879 22.4487 66.5394C22.3695 66.3909 22.26 66.2607 22.1273 66.1573C21.9946 66.0538 21.8417 65.9794 21.6784 65.9388C21.5151 65.8982 21.3451 65.8923 21.1794 65.9216C20.1961 66.1317 19.4719 67.8045 19.3801 68.7042C19.3801 68.7633 19.3801 69.4794 19.3801 69.8201L19.325 69.8323C18.9878 68.9733 18.7284 68.0857 18.5498 67.1803C18.4458 66.6846 18.3723 66.2052 18.3132 65.738C18.6273 65.6666 20.0574 65.33 20.6225 64.9118C21.1875 64.4936 21.7424 63.8429 21.7465 63.1268C21.7532 62.9586 21.7244 62.7909 21.662 62.6346C21.5996 62.4783 21.505 62.3368 21.3844 62.2195C21.2637 62.1021 21.1197 62.0114 20.9618 61.9534C20.8038 61.8953 20.6353 61.8711 20.4674 61.8824C19.4597 61.9783 18.5641 63.5715 18.3683 64.4549C18.3683 64.5018 18.305 65.0036 18.2703 65.3688C18.2479 65.1648 18.2193 64.9383 18.1989 64.7364C18.1275 63.9734 18.1071 63.2696 18.0949 62.6474C18.0949 62.2925 18.0949 61.9722 18.0949 61.6723C18.3683 61.4438 19.4535 60.5075 19.7555 59.8832C20.0574 59.259 20.2573 58.4185 19.9309 57.78C19.8592 57.6276 19.7563 57.492 19.6288 57.382C19.5013 57.272 19.3521 57.1901 19.1908 57.1416C19.0295 57.0931 18.8599 57.0791 18.6929 57.1006C18.5258 57.122 18.3652 57.1783 18.2214 57.2659C17.3707 57.8147 17.3095 59.6425 17.5441 60.5156C17.5645 60.5911 18.0174 61.7396 18.0317 61.7253L18.048 61.7111C18.0357 61.9987 18.0276 62.3088 18.0235 62.6474C18.0235 63.2717 18.0235 63.9755 18.0827 64.7445C18.1342 65.5718 18.2343 66.3954 18.3825 67.2109C18.5424 68.1256 18.7841 69.0241 19.1047 69.8955L19.1169 69.9282C18.9354 69.6936 18.4009 69.0571 18.356 69.0122C17.6991 68.388 16.0671 67.5679 15.1757 68.0514C15.0301 68.1367 14.9041 68.2517 14.806 68.3891C14.7079 68.5264 14.6399 68.6828 14.6064 68.8482C14.5729 69.0136 14.5747 69.1842 14.6116 69.3488C14.6485 69.5135 14.7198 69.6685 14.8207 69.8037C15.2287 70.3933 16.0753 70.6197 16.7505 70.6544C17.5115 70.6911 19.0476 70.0812 19.1679 70.0322C19.5198 70.9107 19.9287 71.7652 20.3919 72.5904C20.6592 73.0718 20.9407 73.5492 21.2324 74.0184C21.0672 73.8144 20.9183 73.6471 20.8958 73.6247C20.2389 73.0004 18.6069 72.1803 17.7155 72.6638C17.5674 72.7471 17.4387 72.8609 17.338 72.9977C17.2373 73.1345 17.1669 73.2912 17.1314 73.4573C17.0959 73.6234 17.0961 73.7952 17.1321 73.9613C17.1681 74.1273 17.239 74.2837 17.3401 74.4203C17.7481 75.0119 18.5947 75.2363 19.2699 75.273C19.9452 75.3097 21.2732 74.8119 21.6221 74.6753C21.7343 74.8568 21.8444 75.0384 21.9587 75.2199C22.5054 76.0869 23.0541 76.9478 23.5662 77.8107C23.7457 78.1147 23.913 78.4227 24.0803 78.7267C23.9354 78.5513 23.8089 78.4044 23.7885 78.384C23.1337 77.7618 21.4997 76.9397 20.6102 77.4252C20.4645 77.5094 20.3382 77.6235 20.2395 77.7599C20.1408 77.8963 20.072 78.0519 20.0375 78.2167C20.0031 78.3815 20.0037 78.5517 20.0395 78.7162C20.0753 78.8807 20.1453 79.0358 20.2451 79.1714C20.6531 79.763 21.4997 79.9874 22.1749 80.0241C22.8501 80.0609 24.0517 79.6161 24.4638 79.4509C24.627 79.7671 24.7902 80.0853 24.933 80.4015C25.0268 80.6198 25.137 80.8218 25.2125 81.0462C25.2879 81.2706 25.3818 81.4827 25.4634 81.699C25.6103 82.1192 25.7612 82.5537 25.8938 82.9679C25.9877 83.2555 26.0713 83.5309 26.1549 83.8083C25.9795 83.5044 25.6225 82.9148 25.5858 82.8679C25.0329 82.1519 23.5458 81.0951 22.589 81.4399C22.4322 81.5015 22.2902 81.5954 22.1721 81.7155C22.054 81.8356 21.9626 81.9792 21.9037 82.137C21.8448 82.2948 21.8198 82.4633 21.8303 82.6314C21.8408 82.7995 21.8867 82.9635 21.9648 83.1127C22.2749 83.7573 23.0807 84.1123 23.7437 84.2469C24.4719 84.3938 26.0223 84.0429 26.2141 84.0001C26.3549 84.4591 26.4854 84.9079 26.6017 85.3322C27.0097 86.7908 27.2912 88.0209 27.4789 88.89L28.1623 88.8247C28.1596 88.8082 28.1562 88.7919 28.1521 88.7757C27.9481 87.8985 27.6299 86.6521 27.1831 85.1731C27.0444 84.7059 26.8853 84.2102 26.718 83.7023C27.1712 83.4666 27.6106 83.205 28.0338 82.9189C28.605 83.4289 29.9901 83.9552 30.1697 84.0205C30.033 84.4815 29.8963 84.9283 29.7617 85.3465C29.2965 86.7867 28.8539 87.9699 28.5377 88.7982L29.2884 88.7247C29.5842 87.9087 29.9575 86.8173 30.3431 85.526C30.4859 85.0589 30.6266 84.557 30.7674 84.0409C30.9714 84.0633 32.5442 84.2265 33.2521 83.994C33.8927 83.79 34.6515 83.333 34.8841 82.6557C34.944 82.4986 34.9701 82.3306 34.9608 82.1626C34.9514 81.9947 34.9068 81.8306 34.8298 81.6811C34.7529 81.5316 34.6452 81.3999 34.514 81.2947C34.3827 81.1896 34.2308 81.1132 34.0681 81.0707C33.0807 80.8422 31.7262 82.0703 31.2631 82.8455C31.2345 82.8924 30.9938 83.4228 30.8551 83.7594C30.9102 83.5554 30.9673 83.3514 31.0224 83.1249C31.1346 82.6945 31.2264 82.262 31.3427 81.7949L31.4773 81.1094C31.5283 80.8809 31.5507 80.6321 31.5895 80.3934C31.667 79.8344 31.718 79.2632 31.7568 78.6879C32.1342 78.7859 33.4785 79.1123 34.1497 79.0001C34.8209 78.8879 35.6328 78.5594 35.9633 77.925C36.0463 77.7785 36.0976 77.6162 36.1137 77.4485C36.1298 77.2809 36.1103 77.1118 36.0566 76.9522C36.0029 76.7926 35.9161 76.6461 35.802 76.5224C35.6878 76.3986 35.5488 76.3002 35.3941 76.2338C34.4537 75.8585 32.9298 76.8662 32.3525 77.5639C32.3157 77.6067 31.9587 78.1535 31.767 78.4574C31.7894 78.1127 31.8098 77.7679 31.82 77.417C31.8465 76.397 31.8425 75.377 31.8445 74.357C31.8445 74.0456 31.8445 73.7335 31.8445 73.4207C31.9771 73.4553 33.5683 73.8797 34.319 73.7532C34.9841 73.641 35.8021 73.3125 36.1346 72.6781C36.2171 72.5313 36.2678 72.3689 36.2836 72.2013C36.2994 72.0337 36.2798 71.8646 36.2261 71.7051C36.1725 71.5455 36.086 71.399 35.9722 71.2749C35.8584 71.1509 35.7198 71.0521 35.5655 70.9849C34.623 70.6095 33.0991 71.6193 32.5218 72.315C32.4789 72.368 31.9649 73.1555 31.8445 73.3635C31.8445 72.674 31.8629 71.9886 31.9016 71.3133C31.9435 70.3964 32.0457 69.4832 32.2076 68.5797C32.2688 68.5981 33.9273 69.0469 34.6944 68.9163C35.3615 68.8041 36.1795 68.4757 36.51 67.8413C36.5931 67.6948 36.6443 67.5324 36.6604 67.3648C36.6765 67.1972 36.657 67.0281 36.6033 66.8685C36.5496 66.7089 36.4628 66.5624 36.3487 66.4386C36.2345 66.3148 36.0955 66.2165 35.9408 66.1501C35.0004 65.7747 33.4765 66.7825 32.8992 67.4802C32.8604 67.5251 32.4687 68.1248 32.2872 68.4145L32.2341 68.3941C32.4268 67.4936 32.6999 66.6122 33.0501 65.7605C33.2358 65.2913 33.4398 64.8506 33.6479 64.4263C33.9498 64.5426 35.3268 65.0526 36.0306 65.0138C36.7344 64.9751 37.5545 64.7384 37.9543 64.1448C38.0527 64.0081 38.1212 63.8522 38.1554 63.6873C38.1896 63.5224 38.1887 63.3521 38.1527 63.1876C38.1167 63.023 38.0465 62.8679 37.9466 62.7323C37.8466 62.5967 37.7193 62.4837 37.5728 62.4006C36.6793 61.9232 35.0534 62.7596 34.4027 63.3879C34.368 63.4226 34.0477 63.8102 33.8172 64.0958C33.9151 63.9061 34.0212 63.7082 34.1069 63.5287C34.4679 62.8535 34.8392 62.2557 35.1717 61.7294C35.3655 61.4316 35.5451 61.1664 35.7144 60.9134C36.0693 60.8726 37.4912 60.6911 38.0869 60.3381C38.6826 59.9852 39.3109 59.3916 39.3925 58.6817C39.4164 58.5154 39.405 58.3459 39.359 58.1843C39.3131 58.0227 39.2337 57.8725 39.126 57.7436C39.0182 57.6147 38.8845 57.5099 38.7336 57.436C38.5827 57.3622 38.418 57.3209 38.2501 57.3149Z" fill="black"/>
</g>
<path d="M72.4203 11.0518H28.1523V93.0598H72.4203V11.0518Z" fill="white"/>
<path d="M70.1211 6.88196H31.2652C30.331 6.88304 29.4354 7.25491 28.7752 7.91588C28.115 8.57685 27.7441 9.47286 27.7441 10.4071V92.9414C27.7441 93.8765 28.1155 94.7733 28.7765 95.4347C29.4375 96.0962 30.3342 96.468 31.2693 96.4686H70.1211C71.0558 96.4675 71.9519 96.0954 72.6125 95.434C73.2731 94.7727 73.6441 93.8761 73.6441 92.9414V10.4071C73.6441 9.47251 73.273 8.57619 72.6124 7.91516C71.9517 7.25413 71.0556 6.8825 70.1211 6.88196ZM71.6041 91.1503H29.7841V12.9652H71.6041V91.1503Z" fill="#263238"/>
<path d="M70.6166 14.1875H30.4551V17.2067H70.6166V14.1875Z" fill="#6862ED"/>
<path d="M64.4802 21.4965H39.2801C39.0929 21.4965 38.9133 21.5708 38.781 21.7032C38.6486 21.8356 38.5742 22.0151 38.5742 22.2023V32.9286C38.5742 33.0212 38.5925 33.1129 38.628 33.1984C38.6635 33.2839 38.7155 33.3616 38.7811 33.427C38.8466 33.4924 38.9245 33.5442 39.0101 33.5794C39.0957 33.6147 39.1875 33.6327 39.2801 33.6324H59.0987L58.6152 37.3044L61.3937 33.6324H64.4802C64.5727 33.6327 64.6643 33.6147 64.7498 33.5794C64.8353 33.5441 64.913 33.4923 64.9784 33.4269C65.0438 33.3615 65.0957 33.2838 65.131 33.1983C65.1662 33.1128 65.1842 33.0211 65.184 32.9286V22.2023C65.1842 22.1097 65.1662 22.018 65.131 21.9323C65.0957 21.8467 65.0439 21.7689 64.9786 21.7033C64.9132 21.6377 64.8355 21.5857 64.75 21.5502C64.6645 21.5147 64.5728 21.4965 64.4802 21.4965Z" fill="#263238"/>
<path d="M64.0231 20.8967H38.823C38.7304 20.8965 38.6387 20.9145 38.5531 20.9497C38.4674 20.985 38.3896 21.0368 38.324 21.1021C38.2585 21.1675 38.2065 21.2452 38.171 21.3307C38.1355 21.4162 38.1172 21.5079 38.1172 21.6005V32.3269C38.1172 32.4194 38.1355 32.5111 38.171 32.5967C38.2065 32.6822 38.2585 32.7599 38.324 32.8252C38.3896 32.8906 38.4674 32.9424 38.5531 32.9777C38.6387 33.0129 38.7304 33.0309 38.823 33.0307H58.6416L58.1581 36.7027L60.9366 33.0307H64.0231C64.2098 33.0307 64.3888 32.9565 64.5208 32.8245C64.6528 32.6925 64.7269 32.5135 64.7269 32.3269V21.6005C64.7269 21.4139 64.6528 21.2349 64.5208 21.1029C64.3888 20.9709 64.2098 20.8967 64.0231 20.8967Z" fill="white" stroke="#263238" stroke-width="0.3" stroke-linecap="round" stroke-linejoin="round"/>
<path d="M41.2344 24.124H61.1652" stroke="#263238" stroke-width="0.3" stroke-linecap="round" stroke-linejoin="round"/>
<path d="M41.2344 26.1293H61.1652" stroke="#263238" stroke-width="0.3" stroke-linecap="round" stroke-linejoin="round"/>
<path d="M41.2344 28.1326H61.1652" stroke="#263238" stroke-width="0.3" stroke-linecap="round" stroke-linejoin="round"/>
<path d="M41.2344 30.1359H61.1652" stroke="#263238" stroke-width="0.3" stroke-linecap="round" stroke-linejoin="round"/>
<path d="M62.7855 91.2238C61.7186 82.9862 60.3375 77.4089 60.3375 77.4089L43.7564 77.158C43.7564 77.158 43.3851 83.9593 43.0444 91.2238H62.7855Z" fill="#263238" stroke="#263238" stroke-width="0.3" stroke-miterlimit="10" stroke-linecap="round"/>
<path d="M60.7921 79.4081C60.5167 78.1208 60.3412 77.4089 60.3412 77.4089L43.7601 77.158C43.7601 77.158 43.7132 78.0005 43.6377 79.402L60.7921 79.4081Z" fill="white" stroke="#263238" stroke-width="0.3" stroke-miterlimit="10" stroke-linecap="round"/>
<path d="M54.2582 78.0759H50.5923V79.4917H54.2582V78.0759Z" fill="white" stroke="#263238" stroke-width="0.3" stroke-miterlimit="10" stroke-linecap="round"/>
<path d="M47.1751 77.8251H46.3428V79.9916H47.1751V77.8251Z" fill="#263238" stroke="#263238" stroke-width="0.3" stroke-miterlimit="10" stroke-linecap="round"/>
<path d="M58.0911 77.8251H57.2588V79.9916H58.0911V77.8251Z" fill="#263238" stroke="#263238" stroke-width="0.3" stroke-miterlimit="10" stroke-linecap="round"/>
<path d="M49.0216 53.749C49.0216 53.749 42.1427 54.869 42.0611 55.3484C41.9795 55.8278 43.3423 77.109 43.3423 77.109C43.3423 77.109 43.5014 78.3085 43.9828 78.3085H59.8214C59.8214 78.3085 61.1025 77.9883 61.3412 76.8683C61.5799 75.7484 61.2616 55.1872 61.2616 55.1872L52.3815 53.188L49.0216 53.749Z" fill="white" stroke="#263238" stroke-width="0.3" stroke-linecap="round" stroke-linejoin="round"/>
<path d="M52.8423 56.5071L52.8504 65.1832H54.0724L53.8276 63.3105" fill="white"/>
<path d="M52.8423 56.5071L52.8504 65.1832H54.0724L53.8276 63.3105" stroke="#263238" stroke-width="0.3" stroke-linecap="round" stroke-linejoin="round"/>
<path d="M50.6818 49.3671C50.6818 49.3671 50.082 53.4471 50.082 53.6878C50.082 53.9285 52.428 56.3887 52.836 56.5091C53.244 56.6295 55.1147 53.8673 55.1147 53.8673L54.8148 49.8485L50.6818 49.3671Z" fill="white" stroke="#263238" stroke-width="0.3" stroke-linecap="round" stroke-linejoin="round"/>
<path d="M54.8761 50.587L54.8211 49.8485L50.6819 49.3671C50.6819 49.3671 50.5289 50.4013 50.3779 51.4581C51.2041 51.7518 52.6321 51.8212 54.8761 50.587Z" fill="#263238" stroke="#263238" stroke-width="0.3" stroke-linecap="round" stroke-linejoin="round"/>
<path d="M48.2035 37.0597C48.2035 37.0597 47.0121 37.7533 47.0121 38.6917C47.0121 39.6301 48.0036 44.4914 48.0036 44.4914C48.0036 44.4914 47.6078 44.0447 47.0121 44.5893C46.4165 45.134 46.8081 47.119 47.6078 47.2658C48.4075 47.4127 48.6992 47.1679 48.6992 47.1679C48.6992 47.1679 48.995 49.3487 49.8375 49.6465C50.6801 49.9444 52.7629 51.6294 54.35 51.0337C55.9371 50.438 57.9669 49.0508 57.9669 47.9105C57.9669 46.7701 57.4223 40.3278 57.4223 40.3278C57.4223 40.3278 58.0179 37.9981 57.5712 37.1046C57.1244 36.2111 53.0607 35.6174 51.6715 35.6174C50.2823 35.6174 48.2035 37.0597 48.2035 37.0597Z" fill="white" stroke="#263238" stroke-width="0.3" stroke-linecap="round" stroke-linejoin="round"/>
<path d="M51.6716 35.6215C50.2844 35.6215 48.2036 37.0597 48.2036 37.0597C48.2036 37.0597 47.0122 37.7533 47.0122 38.6917C47.0122 39.6301 48.0036 44.4914 48.0036 44.4914H48.6993C48.6993 44.4914 48.3015 43.0532 48.7972 42.5575C49.2929 42.0617 50.1844 41.4171 50.1354 40.9724C50.0865 40.5277 49.095 40.2767 49.7886 39.0874C50.4822 37.8981 52.4651 38.1449 52.8119 38.2449C53.1587 38.3449 53.6055 38.7896 54.2991 38.7896C54.9927 38.7896 55.3905 37.9981 56.233 37.9981C57.0755 37.9981 57.4223 40.3277 57.4223 40.3277C57.4223 40.3277 58.018 37.9981 57.5712 37.1045C57.1245 36.211 53.0608 35.6215 51.6716 35.6215Z" fill="#263238" stroke="#263238" stroke-width="0.3" stroke-linecap="round" stroke-linejoin="round"/>
<path d="M47.7363 44.3425L47.9995 44.4955C47.927 44.4219 47.8362 44.3691 47.7363 44.3425Z" stroke="#263238" stroke-width="0.3" stroke-linecap="round" stroke-linejoin="round"/>
<path d="M54.7945 42.9574C54.7945 42.9574 54.9984 44.2467 55.488 44.5894C55.9776 44.9321 55.9348 45.6318 55.2412 45.7298C54.8314 45.7901 54.4163 45.8065 54.0029 45.7787" stroke="#263238" stroke-width="0.3" stroke-linecap="round" stroke-linejoin="round"/>
<path d="M54.7458 47.4699C54.7458 47.6882 54.6234 47.8657 54.4725 47.8657C54.3215 47.8657 54.2012 47.6882 54.2012 47.4699C54.2012 47.2516 54.3236 47.0619 54.4725 47.0619C54.6214 47.0619 54.7458 47.2496 54.7458 47.4699Z" fill="#263238"/>
<path d="M50.7798 42.3148C50.7798 42.3148 50.9838 41.7191 52.7137 41.7191" stroke="#263238" stroke-width="0.3" stroke-linecap="round" stroke-linejoin="round"/>
<path d="M54.9434 41.6191C54.9434 41.6191 55.9838 41.0745 56.9834 42.0659" stroke="#263238" stroke-width="0.3" stroke-linecap="round" stroke-linejoin="round"/>
<path d="M51.0776 43.8019C51.0776 43.8019 52.0201 44.1487 52.7627 43.7019" stroke="#263238" stroke-width="0.3" stroke-linecap="round" stroke-linejoin="round"/>
<path d="M55.4883 43.4531C55.4883 43.4531 56.2329 43.8509 56.8775 43.5531" stroke="#263238" stroke-width="0.3" stroke-linecap="round" stroke-linejoin="round"/>
<path d="M50.2024 52.2476L52.0608 56.0889L49.9025 59.0877L48.042 53.8082L50.2024 52.2476Z" fill="white" stroke="#263238" stroke-width="0.3" stroke-linecap="round" stroke-linejoin="round"/>
<path d="M53.5015 55.9073L55.6027 59.208L56.6818 54.1672L55.2416 52.729L53.5015 55.9073Z" fill="white" stroke="#263238" stroke-width="0.3" stroke-linecap="round" stroke-linejoin="round"/>
<path d="M42.0608 55.3483L39.7413 63.749L38.5418 60.4687L36.7812 61.4275C36.7812 61.4275 37.1015 71.4235 37.2606 71.9885C37.4198 72.5536 39.984 74.5487 40.541 74.0673C41.0979 73.5859 42.942 68.9489 42.942 68.9489L42.0608 55.3483Z" fill="white" stroke="#263238" stroke-width="0.3" stroke-linecap="round" stroke-linejoin="round"/>
<path d="M39.7412 63.749L41.7404 69.1081" stroke="#263238" stroke-width="0.3" stroke-linecap="round" stroke-linejoin="round"/>
<path d="M38.2135 59.0611C38.2135 59.0611 37.579 58.0575 37.1568 57.7923C36.7345 57.5271 35.6778 57.423 35.0964 57.2109C34.515 56.9987 34.2518 57.2109 34.3558 57.4761C34.4599 57.7413 35.1494 57.9514 35.4656 58.1105C35.705 58.2501 35.9195 58.4286 36.1 58.6389C36.1 58.6389 33.9866 59.4834 33.8275 59.4834C33.6684 59.4834 30.9715 60.33 30.7104 60.6462C30.4492 60.9624 31.2918 61.0155 31.2918 61.0155C31.2918 61.0155 30.3921 61.3337 30.8164 61.5969C31.2408 61.86 32.7708 61.4928 32.7708 61.4928H33.9948C35.1084 61.4635 36.2198 61.3749 37.324 61.2276C38.0646 61.1215 38.4012 61.0828 38.548 60.4687C38.6949 59.8547 38.2135 59.0611 38.2135 59.0611Z" fill="white" stroke="#263238" stroke-width="0.3" stroke-linecap="round" stroke-linejoin="round"/>
<path d="M33.8807 60.5401C33.8807 60.5401 32.0835 58.1105 32.0835 58.7959C32.0835 59.4814 33.0362 61.2807 33.5115 61.3867C33.9868 61.4928 35.1435 61.4398 35.1435 61.4398" fill="white"/>
<path d="M33.8807 60.5401C33.8807 60.5401 32.0835 58.1105 32.0835 58.7959C32.0835 59.4814 33.0362 61.2807 33.5115 61.3867C33.9868 61.4928 35.1435 61.4398 35.1435 61.4398" stroke="#263238" stroke-width="0.3" stroke-linecap="round" stroke-linejoin="round"/>
<path d="M38.1097 61.0155C37.6854 61.3337 34.9905 61.8621 34.7804 61.809C34.5703 61.756 33.2524 59.3774 33.2524 58.902C33.2524 58.4267 33.1484 58.0575 33.6768 58.4798C34.2051 58.902 34.9966 60.6993 34.9966 60.6993C34.9966 60.6993 37.057 59.8017 37.5854 59.8017H38.2729" fill="white"/>
<path d="M38.1097 61.0155C37.6854 61.3337 34.9905 61.8621 34.7804 61.809C34.5703 61.756 33.2524 59.3774 33.2524 58.902C33.2524 58.4267 33.1484 58.0575 33.6768 58.4798C34.2051 58.902 34.9966 60.6993 34.9966 60.6993C34.9966 60.6993 37.057 59.8017 37.5854 59.8017H38.2729" stroke="#263238" stroke-width="0.3" stroke-linecap="round" stroke-linejoin="round"/>
<path d="M39.0579 61.8804L38.5418 60.4688L36.7812 61.4276C36.7812 61.4276 36.7996 61.9906 36.8282 62.8556C37.2492 62.871 37.6683 62.7914 38.0544 62.6226C38.4404 62.4538 38.7834 62.2001 39.0579 61.8804Z" fill="white" stroke="#263238" stroke-width="0.3" stroke-linecap="round" stroke-linejoin="round"/>
<path d="M65.7104 51.8313C65.7104 51.8313 66.198 48.0451 66.4551 47.6595C66.7121 47.274 68.3196 43.9304 68.5114 43.7387C68.7031 43.5469 69.3478 43.8019 69.154 44.316C68.9602 44.8301 68.1911 46.3743 68.1911 46.6314C68.1984 46.8467 68.2195 47.0613 68.2543 47.274C68.2543 47.274 69.0907 47.7881 69.4783 48.3674C69.8659 48.9468 69.8007 49.7811 69.5436 50.2952C69.2866 50.8093 68.034 52.0782 68.034 52.0782L68.0218 52.8411L65.7104 51.8313Z" fill="white" stroke="#263238" stroke-width="0.3" stroke-linecap="round" stroke-linejoin="round"/>
<path d="M66.3901 51.3254C66.3901 51.3254 65.876 49.8464 66.0045 49.2671C66.133 48.6877 66.8409 47.7881 67.0245 47.6595C67.2081 47.531 68.4403 47.1455 68.6973 47.4025C68.9544 47.6595 68.3118 48.3021 68.3118 48.3021L67.4754 48.753C67.7421 49.4484 67.8305 50.1995 67.7324 50.9378" fill="white"/>
<path d="M66.3901 51.3254C66.3901 51.3254 65.876 49.8464 66.0045 49.2671C66.133 48.6877 66.8409 47.7881 67.0245 47.6595C67.2081 47.531 68.4403 47.1455 68.6973 47.4025C68.9544 47.6595 68.3118 48.3021 68.3118 48.3021L67.4754 48.753C67.7421 49.4484 67.8305 50.1995 67.7324 50.9378" stroke="#263238" stroke-width="0.3" stroke-linecap="round" stroke-linejoin="round"/>
<path d="M68.2547 47.0272C68.3153 46.9819 68.385 46.9505 68.4591 46.9351C68.5331 46.9198 68.6097 46.921 68.6832 46.9385C68.7568 46.956 68.8256 46.9895 68.8848 47.0365C68.944 47.0836 68.9921 47.143 69.0258 47.2107C69.3543 47.7228 68.9891 48.8244 68.7321 49.3752C68.475 49.926 67.9609 49.9994 67.9609 49.7424C67.9609 49.4854 68.218 47.9431 68.218 47.7962C68.218 47.6493 68.2547 47.274 68.2547 47.274V47.0272Z" fill="white" stroke="#263238" stroke-width="0.3" stroke-linecap="round" stroke-linejoin="round"/>
<path d="M69.0257 47.2107C69.0257 47.2107 69.6112 47.1373 69.905 47.8329C70.1987 48.5286 69.4643 49.8158 69.246 49.9994C69.0278 50.183 68.5851 49.9627 68.6585 49.6689C68.732 49.3752 69.1726 47.9431 69.1726 47.9431L69.0257 47.2107Z" fill="white" stroke="#263238" stroke-width="0.3" stroke-linecap="round" stroke-linejoin="round"/>
<path d="M70.0516 48.0166C70.0516 48.0166 70.529 48.6776 70.5657 49.0815C70.6024 49.4854 70.0883 50.1831 69.9415 50.2198C69.7946 50.2565 69.6477 50.1464 69.6844 49.8893C69.7211 49.6323 69.9415 48.6408 69.9415 48.6408L70.0516 48.0166Z" fill="white" stroke="#263238" stroke-width="0.3" stroke-linecap="round" stroke-linejoin="round"/>
<path d="M61.2612 55.1871L64.5844 61.3724L65.7105 51.8313L68.0198 52.8411C68.0198 52.8411 68.8623 59.4487 68.8623 62.7473C68.8623 66.046 67.9014 68.6878 67.1222 69.8873C66.3429 71.0869 64.9618 70.7278 63.4012 69.1672C61.8406 67.6066 61.3612 66.2276 61.3612 66.2276L61.2612 55.1871Z" fill="white" stroke="#263238" stroke-width="0.3" stroke-linecap="round" stroke-linejoin="round"/>
<path d="M65.6821 53.7224L68.1546 54.6343" stroke="#263238" stroke-width="0.3" stroke-linecap="round" stroke-linejoin="round"/>
<path d="M64.3845 64.3202L64.3457 64.9138" stroke="#263238" stroke-width="0.3" stroke-linecap="round" stroke-linejoin="round"/>
<path d="M64.5846 61.3724L64.4316 63.6368" stroke="#263238" stroke-width="0.3" stroke-linecap="round" stroke-linejoin="round"/>
<path d="M15.6201 16.2904C17.5388 16.2904 19.0942 14.735 19.0942 12.8163C19.0942 10.8976 17.5388 9.34216 15.6201 9.34216C13.7014 9.34216 12.146 10.8976 12.146 12.8163C12.146 14.735 13.7014 16.2904 15.6201 16.2904Z" fill="#6862ED"/>
<path d="M14.5247 12.1655H13.4109C13.3129 12.1655 13.2334 12.245 13.2334 12.343V14.4809C13.2334 14.5789 13.3129 14.6584 13.4109 14.6584H14.5247C14.6227 14.6584 14.7022 14.5789 14.7022 14.4809V12.343C14.7022 12.245 14.6227 12.1655 14.5247 12.1655Z" fill="white"/>
<path d="M17.7192 12.5266C18.0905 11.9799 17.5785 11.8167 17.5785 11.8167H16.2382L16.2627 11.7004C16.2627 11.7004 16.379 10.7906 16.228 10.5111C16.077 10.2316 15.5283 10.1154 15.5038 10.2194C15.4793 10.3234 15.516 10.7906 15.4691 11.0476C15.3297 11.468 15.1586 11.8772 14.9571 12.2716C14.9342 12.3029 14.9067 12.3304 14.8755 12.3532V14.4279C14.966 14.4839 15.0711 14.5116 15.1774 14.5075H17.1236C17.1815 14.4907 17.2355 14.4625 17.2824 14.4245C17.3293 14.3865 17.368 14.3394 17.3964 14.2862C17.4247 14.2329 17.4421 14.1745 17.4474 14.1144C17.4528 14.0543 17.446 13.9937 17.4275 13.9363C17.5396 13.8716 17.6261 13.7707 17.6729 13.6501C17.7196 13.5295 17.7237 13.3965 17.6846 13.2733C17.7468 13.2342 17.7986 13.1807 17.8357 13.1173C17.8727 13.0539 17.8938 12.9824 17.8972 12.909C17.9006 12.8357 17.8862 12.7626 17.8552 12.696C17.8242 12.6294 17.7776 12.5713 17.7192 12.5266Z" fill="white"/>
<path d="M83.5141 88.3099C86.9358 87.76 89.2638 84.5404 88.7139 81.1187C88.164 77.697 84.9444 75.369 81.5227 75.9189C78.101 76.4688 75.7729 79.6884 76.3228 83.1101C76.8727 86.5318 80.0924 88.8598 83.5141 88.3099Z" fill="#6862ED"/>
<path d="M80.5373 80.9401H78.5258C78.349 80.9401 78.2056 81.0835 78.2056 81.2603V85.1241C78.2056 85.301 78.349 85.4444 78.5258 85.4444H80.5373C80.7142 85.4444 80.8576 85.301 80.8576 85.1241V81.2603C80.8576 81.0835 80.7142 80.9401 80.5373 80.9401Z" fill="white"/>
<path d="M86.3104 81.5929C86.9836 80.6035 86.0574 80.3077 86.0574 80.3077H83.64L83.6808 80.1037C83.6808 80.1037 83.8848 78.4717 83.6176 77.9576C83.3503 77.4435 82.3548 77.2416 82.312 77.4313C82.2691 77.621 82.3344 78.4615 82.2487 78.9246C82.1631 79.3877 81.4327 80.9462 81.3226 81.1359C81.2831 81.1935 81.2341 81.2438 81.1777 81.2849V85.0323C81.3405 85.1346 81.5304 85.1851 81.7224 85.1772H85.2394C85.3436 85.1464 85.4406 85.0952 85.5247 85.0265C85.6088 84.9578 85.6784 84.873 85.7293 84.777C85.7803 84.6811 85.8115 84.5759 85.8213 84.4677C85.831 84.3595 85.819 84.2505 85.7861 84.147C86.5225 83.6207 86.2492 82.9454 86.2492 82.9454C87.0897 82.2233 86.3104 81.5929 86.3104 81.5929Z" fill="white"/>
<path d="M35.4343 53.9493C38.4434 53.2302 40.2998 50.208 39.5807 47.1989C38.8616 44.1898 35.8393 42.3334 32.8303 43.0525C29.8212 43.7716 27.9648 46.7938 28.6839 49.8029C29.4029 52.812 32.4252 54.6684 35.4343 53.9493Z" fill="#6862ED"/>
<path d="M37.5849 47.4861C37.5868 47.0758 37.4526 46.6765 37.2032 46.3507C36.9539 46.0249 36.6036 45.791 36.2071 45.6856C35.8106 45.5801 35.3903 45.6092 35.0121 45.7681C34.6339 45.9271 34.3191 46.207 34.1169 46.564C33.9148 46.207 33.6 45.9271 33.2218 45.7681C32.8435 45.6092 32.4233 45.5801 32.0268 45.6856C31.6303 45.791 31.28 46.0249 31.0306 46.3507C30.7813 46.6765 30.6471 47.0758 30.6489 47.4861C30.6489 48.3408 31.3017 49.0956 31.8362 49.7015C32.5543 50.5175 34.0537 51.919 34.0537 51.919C34.0537 51.919 35.6714 50.5175 36.3895 49.7015C36.9627 49.065 37.5849 48.3837 37.5849 47.4861Z" fill="white"/>
<path d="M80.1718 33.7467C82.1153 33.7467 83.6908 32.1712 83.6908 30.2277C83.6908 28.2843 82.1153 26.7087 80.1718 26.7087C78.2283 26.7087 76.6528 28.2843 76.6528 30.2277C76.6528 32.1712 78.2283 33.7467 80.1718 33.7467Z" fill="#6862ED"/>
<path d="M82.3382 29.5932C82.3349 29.3393 82.2487 29.0934 82.0928 28.893C81.9369 28.6926 81.7197 28.5486 81.4744 28.483C81.2291 28.4174 80.969 28.4338 80.7339 28.5296C80.4987 28.6254 80.3013 28.7955 80.1717 29.0139C80.0439 28.7915 79.8462 28.6176 79.6094 28.5191C79.3726 28.4205 79.1099 28.4029 78.862 28.4689C78.6142 28.535 78.3951 28.681 78.2387 28.8842C78.0823 29.0875 77.9974 29.3368 77.9971 29.5932C77.9971 30.1298 78.4051 30.6132 78.7437 30.9845C79.1946 31.4966 80.135 32.3758 80.135 32.3758C80.135 32.3758 81.155 31.4966 81.6038 30.9845C81.9485 30.5847 82.3382 30.1604 82.3382 29.5932Z" fill="white"/>
<path d="M14.6879 81.0747C16.6314 81.0747 18.2069 79.4992 18.2069 77.5557C18.2069 75.6123 16.6314 74.0367 14.6879 74.0367C12.7445 74.0367 11.1689 75.6123 11.1689 77.5557C11.1689 79.4992 12.7445 81.0747 14.6879 81.0747Z" fill="#6862ED"/>
<path d="M16.8543 76.9212C16.851 76.6673 16.7648 76.4214 16.6089 76.221C16.453 76.0206 16.2358 75.8766 15.9905 75.811C15.7452 75.7454 15.4851 75.7618 15.25 75.8576C15.0148 75.9535 14.8174 76.1235 14.6878 76.3419C14.56 76.1195 14.3623 75.9456 14.1255 75.8471C13.8887 75.7485 13.626 75.7309 13.3782 75.797C13.1303 75.863 12.9112 76.009 12.7548 76.2122C12.5984 76.4155 12.5135 76.6648 12.5132 76.9212C12.5132 77.4578 12.9212 77.9412 13.2598 78.3125C13.7107 78.8246 14.6511 79.7038 14.6511 79.7038C14.6511 79.7038 15.6711 78.8246 16.1199 78.3125C16.4647 77.9127 16.8543 77.4884 16.8543 76.9212Z" fill="white"/>
<path d="M39.1475 37.4003C41.0662 37.4003 42.6216 35.8448 42.6216 33.9261C42.6216 32.0074 41.0662 30.452 39.1475 30.452C37.2288 30.452 35.6733 32.0074 35.6733 33.9261C35.6733 35.8448 37.2288 37.4003 39.1475 37.4003Z" fill="#6862ED"/>
<path d="M38.0521 33.2754H36.9382C36.8402 33.2754 36.7607 33.3549 36.7607 33.4529V35.5908C36.7607 35.6888 36.8402 35.7683 36.9382 35.7683H38.0521C38.1501 35.7683 38.2295 35.6888 38.2295 35.5908V33.4529C38.2295 33.3549 38.1501 33.2754 38.0521 33.2754Z" fill="white"/>
<path d="M41.2465 33.6365C41.6198 33.0898 41.1057 32.9266 41.1057 32.9266H39.7655L39.7899 32.8083C39.7899 32.8083 39.9062 31.9005 39.7553 31.621C39.6043 31.3415 39.0555 31.2252 39.0331 31.3293C39.0107 31.4333 39.0331 31.9005 38.9964 32.1575C38.8592 32.5787 38.688 32.9881 38.4843 33.3815C38.463 33.4139 38.4361 33.4422 38.4048 33.4651V35.5317C38.4953 35.5876 38.6004 35.6153 38.7067 35.6112H40.6529C40.7108 35.5945 40.7648 35.5663 40.8116 35.5282C40.8583 35.4902 40.897 35.4431 40.9252 35.3898C40.9533 35.3364 40.9705 35.278 40.9756 35.2179C40.9807 35.1578 40.9736 35.0973 40.9548 35.04C41.0668 34.9754 41.1534 34.8744 41.2001 34.7538C41.2469 34.6332 41.251 34.5003 41.2118 34.377C41.2728 34.3378 41.3236 34.2845 41.3598 34.2216C41.3961 34.1588 41.4167 34.0882 41.4201 34.0157C41.4235 33.9432 41.4095 33.871 41.3793 33.805C41.3491 33.7391 41.3036 33.6813 41.2465 33.6365Z" fill="white"/>
</svg>
